<?xml version="1.0" standalone="no"?>
<!DOCTYPE svg PUBLIC "-//W3C//DTD SVG 20010904//EN"
 "http://www.w3.org/TR/2001/REC-SVG-20010904/DTD/svg10.dtd">
<svg version="1.0" xmlns="http://www.w3.org/2000/svg"
 width="512.000000pt" height="512.000000pt" viewBox="0 0 512.000000 512.000000"
 preserveAspectRatio="xMidYMid meet">
<metadata>
Created by potrace 1.14, written by Peter Selinger 2001-2017
</metadata>
<g transform="translate(0.000000,512.000000) scale(0.100000,-0.100000)"
fill="#000000" stroke="none">
<path d="M1918 5039 c-217 -51 -520 -379 -835 -904 -50 -82 -105 -177 -123
-210 -18 -33 -42 -76 -53 -95 -49 -88 -232 -461 -292 -596 -36 -82 -72 -162
-80 -179 -70 -157 -199 -509 -249 -680 -32 -112 -76 -294 -90 -375 -3 -19 -9
-55 -13 -80 -12 -69 -9 -260 5 -306 40 -136 175 -182 314 -107 187 99 439 476
642 958 119 282 248 693 287 913 7 42 17 72 24 72 20 0 63 -50 76 -88 10 -28
13 -154 13 -487 l-1 -450 -32 -85 c-141 -365 -337 -843 -424 -1032 -19 -40
-47 -102 -62 -138 -16 -36 -120 -246 -232 -467 -212 -421 -221 -443 -192 -507
15 -32 60 -52 87 -37 32 17 104 142 263 458 166 329 371 718 393 748 15 20 15
20 11 -2 -2 -12 6 -37 18 -55 34 -50 74 -57 319 -54 270 2 297 13 300 119 1
58 -21 88 -90 125 -54 29 -68 44 -88 97 -4 11 -8 155 -10 320 l-2 300 30 55
c106 194 142 251 150 236 4 -8 33 -86 64 -173 31 -87 85 -241 121 -343 35
-102 73 -208 83 -235 24 -70 54 -127 76 -146 11 -9 40 -23 65 -30 l47 -14
-142 -300 c-78 -165 -211 -439 -295 -610 -84 -171 -159 -327 -167 -349 -16
-44 -11 -88 14 -122 23 -32 46 -38 79 -20 24 12 56 69 177 313 350 702 651
1303 755 1503 61 118 141 274 178 347 37 72 69 130 71 128 3 -2 5 -201 5 -442
0 -316 -3 -445 -12 -460 -6 -12 -31 -36 -56 -53 -53 -37 -75 -74 -75 -129 0
-74 70 -122 175 -119 79 1 77 2 59 -39 -115 -268 -211 -543 -244 -703 -46
-220 2 -352 128 -355 176 -5 432 160 757 489 203 205 393 428 538 630 46 64
57 87 57 118 0 69 -46 128 -88 113 -9 -3 -86 -92 -169 -198 -161 -202 -170
-213 -291 -347 -313 -344 -631 -589 -768 -590 l-31 0 7 53 c16 116 108 380
239 687 l62 145 142 1 c113 0 149 4 174 17 43 23 66 59 66 106 0 51 -25 89
-83 129 -55 38 -60 52 -60 182 0 97 -13 63 170 445 34 72 97 207 140 300 42
94 91 199 108 235 16 36 71 157 122 270 51 113 103 230 117 260 40 87 173 399
173 405 0 4 9 25 19 48 32 70 100 255 137 372 79 247 100 396 70 499 -20 69
-52 120 -85 138 -35 19 -128 15 -186 -6 -201 -75 -461 -369 -768 -867 l-47
-76 -69 -2 -69 -2 25 97 c107 424 115 666 23 792 -98 136 -255 92 -467 -131
-179 -188 -424 -531 -694 -969 -46 -76 -86 -137 -89 -138 -3 0 -20 51 -39 113
-38 124 -59 173 -88 200 -20 17 -20 19 13 155 71 298 107 555 107 767 -1 186
-31 303 -99 384 -53 63 -142 85 -246 60z m128 -207 c44 -29 71 -240 50 -392
-3 -19 -8 -57 -11 -85 -16 -131 -87 -484 -123 -610 l-8 -30 -265 -1 c-227 -1
-269 -3 -296 -18 -37 -19 -60 -49 -65 -86 -2 -14 -11 -36 -20 -50 -9 -14 -19
-50 -23 -80 -10 -80 -76 -333 -130 -495 -121 -363 -276 -711 -428 -960 -36
-58 -151 -207 -194 -251 -76 -76 -156 -109 -187 -78 -15 14 -17 33 -15 108 7
217 93 522 274 976 412 1034 990 1927 1323 2046 41 15 101 18 118 6z m1375
-404 c32 -59 -14 -359 -97 -635 l-24 -81 -89 -4 c-79 -3 -93 -6 -116 -28 -15
-14 -34 -41 -43 -60 -13 -32 -145 -417 -365 -1067 l-82 -243 -37 113 c-20 61
-75 234 -123 382 -48 149 -91 284 -97 301 -10 28 -5 40 82 180 397 636 725
1066 871 1141 58 30 105 30 120 1z m1137 -12 c7 -59 -51 -264 -141 -496 -98
-254 -346 -829 -475 -1100 -55 -118 -151 -323 -237 -510 -32 -69 -58 -126 -60
-128 -1 -1 -1 267 -1 596 1 678 -4 634 85 673 27 11 59 31 71 44 29 31 37 99
16 148 l-15 38 108 162 c162 243 309 422 416 507 85 68 152 102 195 98 30 -3
35 -7 38 -32z m-2667 -1638 l16 -40 -46 -84 c-25 -46 -48 -84 -51 -84 -3 0 -5
19 -4 42 1 45 54 221 63 212 4 -3 13 -24 22 -46z m-348 -1100 c-6 -71 -20
-124 -39 -143 -15 -15 -87 -55 -99 -55 -3 0 7 24 23 53 16 28 47 85 68 125 21
39 42 72 45 72 4 0 5 -24 2 -52z"/>
</g>
</svg>
