<?xml version="1.0" standalone="no"?>
<!DOCTYPE svg PUBLIC "-//W3C//DTD SVG 1.1//EN" "http://www.w3.org/Graphics/SVG/1.1/DTD/svg11.dtd" >
<svg xmlns="http://www.w3.org/2000/svg" xmlns:xlink="http://www.w3.org/1999/xlink" version="1.1">
<metadata>
Created by FontForge 20170731 at Mon Mar 14 16:57:57 2022
 By Aleksey,,,
Copyright 2021 Dinamo (Johannes Breyer, Fabian Harb). All rights reserved.
</metadata>
<defs>
<font id="ABCArizonaMix-Regular" horiz-adv-x="1228" >
  <font-face 
    font-family="ABC Arizona Mix"
    font-weight="400"
    font-stretch="normal"
    units-per-em="2048"
    panose-1="2 0 0 4 0 2 0 6 0 3"
    ascent="1735"
    descent="-313"
    x-height="969"
    cap-height="1423"
    bbox="-365 -526 2365 1892"
    underline-thickness="102"
    underline-position="-307"
    unicode-range="U+000D-FB02"
  />
<missing-glyph horiz-adv-x="1298" 
d="M1126 0h-952v1454h952v-1454zM293 1341v-1228h715v1228h-715z" />
    <glyph glyph-name="fi" unicode="fi" horiz-adv-x="1202" 
d="M238 1063q0 187 128.5 301.5t325.5 114.5q166 0 305 -54v-237h-51q-24 83 -97 133.5t-175 50.5q-112 0 -180 -69t-68 -191v-143h598v-770q0 -87 15.5 -110.5t72.5 -35.5v-53h-364v53q57 12 72.5 35.5t15.5 110.5v655h-410v-661q0 -82 17 -108t87 -32v-53h-385v53
q60 7 76.5 33.5t16.5 108.5v659h-205v115h205v94z" />
    <glyph glyph-name="fl" unicode="fl" horiz-adv-x="1212" 
d="M238 854h-205v115h205v92q0 130 56.5 226.5t148.5 144t204 47.5q109 0 221 -41l154 26h12v-1269q0 -80 16 -107.5t72 -34.5v-53h-366v53q56 7 72 34.5t16 107.5v1071q-30 49 -82.5 77.5t-116.5 28.5q-105 0 -162 -70.5t-57 -203.5v-129h260v-115h-260v-664
q0 -83 17.5 -105.5t86.5 -31.5v-53h-385v53q62 9 77.5 31.5t15.5 105.5v664z" />
    <glyph glyph-name="f_b" unicode="fb" horiz-adv-x="1839" 
d="M238 854h-205v115h205v92q0 130 56.5 226.5t148.5 144t204 47.5q109 0 221 -41l154 26h12v-645h13q61 89 134.5 131.5t172.5 42.5q169 0 285 -132.5t116 -346.5q0 -236 -135.5 -387.5t-333.5 -151.5q-165 0 -280 109h-13l-88 -84h-61v1266q-30 49 -82.5 77.5t-116.5 28.5
q-105 0 -162 -70.5t-57 -203.5v-129h260v-115h-260v-664q0 -83 17.5 -105.5t86.5 -31.5v-53h-385v53q62 9 77.5 31.5t15.5 105.5v664zM1559 475q0 168 -72.5 271.5t-198.5 103.5q-83 0 -149 -51t-105 -133v-285q0 -143 63 -224t175 -81q134 0 209 112q78 116 78 287z" />
    <glyph glyph-name="f_f" unicode="ff" horiz-adv-x="1353" 
d="M1405 1452v-205h-51q-14 56 -57.5 90.5t-104.5 34.5q-74 0 -116 -49t-42 -145v-209h258v-115h-258v-655q0 -93 15.5 -115t87.5 -31v-53h-385v53q64 9 78 31t14 115v655h-418v-666q0 -82 17 -104t87 -31v-53h-385v53q59 7 76 32t17 101v668h-205v115h205v71
q0 123 57 217.5t149.5 142.5t204.5 48q160 0 287 -80q105 111 287 111q93 0 182 -27zM844 1102q0 62 12 115q-31 58 -85.5 91t-121.5 33q-104 0 -163.5 -67.5t-59.5 -202.5v-102h418v133z" />
    <glyph glyph-name="f_f_b" unicode="ffb" horiz-adv-x="2437" 
d="M2351 514q0 -236 -135.5 -387.5t-333.5 -151.5q-159 0 -278 109h-15l-86 -84h-61v1266q-30 48 -83 77t-118 29q-105 0 -161 -70.5t-56 -203.5v-129h260v-115h-260v-664q0 -84 16 -106t86 -31v-53h-383v53q60 9 75.5 32t15.5 105v664h-408v-666q0 -82 17 -104t87 -31v-53
h-385v53q59 7 76 32t17 101v668h-205v115h205v71q0 123 57 217.5t149.5 142.5t204.5 48q170 0 297 -86q114 117 299 117q107 0 219 -41l156 26h12v-645h13q61 89 134.5 131.5t170.5 42.5q169 0 285 -132.5t116 -346.5zM834 1061q0 85 24 153q-31 58 -87 92.5t-122 34.5
q-104 0 -163.5 -67.5t-59.5 -202.5v-102h408v92zM2157 475q0 168 -72.5 271.5t-198.5 103.5q-83 0 -149 -51t-105 -133v-285q0 -141 63 -223t173 -82q136 0 211 112q78 116 78 287z" />
    <glyph glyph-name="f_f_h" unicode="ffh" horiz-adv-x="2420" 
d="M2245 207q0 -91 14.5 -118t71.5 -36v-53h-365v53q58 9 73 35.5t15 118.5v426q0 103 -49.5 161t-126.5 58q-146 0 -244 -174v-471q0 -91 15 -118t71 -36v-53h-364v53q58 9 73 35.5t15 118.5l-2 1059q-30 49 -82.5 77.5t-116.5 28.5q-105 0 -162 -70.5t-57 -203.5v-129h260
v-115h-260v-664q0 -83 17.5 -105.5t86.5 -31.5v-53h-385v53q60 9 75.5 32t15.5 105v664h-408v-666q0 -82 17 -104t87 -31v-53h-385v53q59 7 76 32t17 101v668h-205v115h205v71q0 123 57 217.5t149.5 142.5t204.5 48q173 0 297 -86q117 117 299 117q107 0 219 -41l158 26h12
v-645h13q62 89 132.5 131.5t164.5 42.5q134 0 217.5 -94.5t83.5 -263.5v-428zM834 1061q0 85 24 153q-31 58 -87 92.5t-122 34.5q-104 0 -163.5 -67.5t-59.5 -202.5v-102h408v92z" />
    <glyph glyph-name="f_f_i" unicode="ffi" horiz-adv-x="1810" 
d="M1632 199q0 -88 14 -111t72 -35v-53h-364v53q60 12 74 34.5t14 111.5v655h-408v-661q0 -82 16.5 -108t86.5 -32v-53h-385v53q63 9 77.5 33t14.5 109v659h-418v-666q0 -82 17 -104t87 -31v-53h-385v53q59 7 76 32t17 101v668h-205v115h205v71q0 123 57 217.5t149.5 142.5
t204.5 48q178 0 312 -96q127 127 339 127q165 0 304 -54v-237h-50q-24 83 -97 133.5t-175 50.5q-114 0 -181 -68.5t-67 -191.5v-143h598v-770zM844 1063q0 70 20 137q-30 65 -86.5 103t-128.5 38q-104 0 -163.5 -67.5t-59.5 -202.5v-102h418v94z" />
    <glyph glyph-name="f_f_k" unicode="ffk" horiz-adv-x="2361" 
d="M1849 584l510 -578v-6h-258l-389 459l-80 -74v-176q0 -93 14.5 -120t71.5 -36v-53h-364v53q58 9 73 36t15 120v1057q-30 48 -83 77t-118 29q-105 0 -161 -70.5t-56 -203.5v-129h260v-115h-260v-664q0 -84 16 -106t86 -31v-53h-383v53q60 9 75.5 32t15.5 105v664h-408
v-666q0 -82 17 -104t87 -31v-53h-385v53q59 7 76 32t17 101v668h-205v115h205v71q0 123 57 217.5t149.5 142.5t204.5 48q170 0 297 -86q114 117 299 117q107 0 219 -41l156 26h12v-948h8l297 283q64 61 64 88q0 19 -37 28v54h365v-54q-84 -11 -140.5 -42t-134.5 -101z
M834 1061q0 85 24 153q-31 58 -87 92.5t-122 34.5q-104 0 -163.5 -67.5t-59.5 -202.5v-102h408v92z" />
    <glyph glyph-name="f_f_l" unicode="ffl" horiz-adv-x="1808" 
d="M1630 195q0 -79 16.5 -107t71.5 -35v-53h-364v53q55 7 71.5 35t16.5 107v1071q-30 48 -83 77t-118 29q-105 0 -161 -70.5t-56 -203.5v-129h258v-115h-258v-664q0 -84 16 -106t86 -31v-53h-385v53q62 9 77.5 31.5t15.5 105.5v664h-408v-666q0 -82 17 -104t87 -31v-53h-385
v53q59 7 76 32t17 101v668h-205v115h205v71q0 123 57 217.5t149.5 142.5t204.5 48q170 0 297 -86q114 117 299 117q107 0 219 -41l154 26h12v-1269zM834 1061q0 85 24 153q-31 58 -87 92.5t-122 34.5q-104 0 -163.5 -67.5t-59.5 -202.5v-102h408v92z" />
    <glyph glyph-name="f_h" unicode="fh" horiz-adv-x="1808" 
d="M238 854h-205v115h205v92q0 130 56.5 226.5t148.5 144t204 47.5q109 0 221 -41l156 26h12v-645h13q62 88 132.5 131t164.5 43q136 0 218.5 -94t82.5 -264v-428q0 -92 15 -118.5t73 -35.5v-53h-365v53q57 9 71.5 36t14.5 118v426q0 103 -49.5 161t-126.5 58
q-141 0 -244 -174v-471q0 -90 16 -117.5t72 -36.5v-53h-366v53q58 9 73 35.5t15 118.5l-2 1059q-30 49 -82.5 77.5t-116.5 28.5q-105 0 -162 -70.5t-57 -203.5v-129h260v-115h-260v-664q0 -83 17.5 -105.5t86.5 -31.5v-53h-385v53q62 9 77.5 31.5t15.5 105.5v664z" />
    <glyph glyph-name="f_k" unicode="fk" horiz-adv-x="1763" 
d="M1251 584l510 -578v-6h-258l-389 459l-80 -74v-176q0 -93 15 -120t73 -36v-53h-366v53q59 9 73.5 35.5t14.5 120.5v1057q-30 49 -82.5 77.5t-116.5 28.5q-105 0 -162 -70.5t-57 -203.5v-129h260v-115h-260v-664q0 -83 17.5 -105.5t86.5 -31.5v-53h-385v53q62 9 77.5 31.5
t15.5 105.5v664h-205v115h205v92q0 130 56.5 226.5t148.5 144t204 47.5q109 0 221 -41l154 26h12v-948h8l299 283q64 64 64 88q0 19 -37 28v54h363v-54q-84 -11 -140.5 -42t-134.5 -101z" />
    <glyph glyph-name=".notdef" horiz-adv-x="1298" 
d="M1126 0h-952v1454h952v-1454zM293 1341v-1228h715v1228h-715z" />
    <glyph glyph-name=".null" horiz-adv-x="0" 
 />
    <glyph glyph-name="nonmarkingreturn" horiz-adv-x="682" 
 />
    <glyph glyph-name="NULL" horiz-adv-x="0" 
 />
    <glyph glyph-name="NULL" horiz-adv-x="0" 
 />
    <glyph glyph-name="CR" unicode="&#xd;" horiz-adv-x="0" 
 />
    <glyph glyph-name="space" unicode=" " horiz-adv-x="495" 
 />
    <glyph glyph-name="exclam" unicode="!" horiz-adv-x="548" 
d="M326 395h-101l-63 1028h225zM137 115q0 57 41 98t98 41q60 0 101 -41t41 -98t-42.5 -98.5t-99.5 -41.5t-98 41.5t-41 98.5z" />
    <glyph glyph-name="quotedbl" unicode="&#x22;" horiz-adv-x="747" 
d="M244 852h-78l-64 571h205zM584 852h-78l-64 571h205z" />
    <glyph glyph-name="numbersign" unicode="#" horiz-adv-x="1320" 
d="M1247 997v-102h-272l-70 -379h254v-102h-272l-76 -414h-104l75 414h-354l-76 -414h-104l76 414h-250v102h268l70 379h-250v102h270l78 426h104l-77 -426h354l78 426h104l-78 -426h252zM446 516h355l69 379h-354z" />
    <glyph glyph-name="dollar" unicode="$" horiz-adv-x="1069" 
d="M598 -18v-166h-100v159q-228 3 -418 134v294h55q108 -316 363 -325v524l-117 51q-132 59 -199 152.5t-67 210.5q0 156 106 262q108 111 277 135v168h100v-162q99 -1 191 -25.5t159 -66.5v-287h-55q-71 265 -295 277v-522l98 -43q285 -126 285 -367q0 -156 -109 -268
q-109 -109 -274 -135zM498 840v469q-89 -19 -144 -81t-55 -149q0 -148 182 -231zM598 90q88 24 141.5 86t53.5 148q0 73 -46 128t-149 105v-467z" />
    <glyph glyph-name="percent" unicode="%" horiz-adv-x="1566" 
d="M66 1065q0 167 94 272t229 105t229.5 -105.5t94.5 -271.5q0 -167 -94.5 -273t-229.5 -106t-229 106t-94 273zM1335 1423h-127l-983 -1423h127zM545 1065q0 134 -42.5 207.5t-113.5 73.5q-73 0 -114.5 -74t-41.5 -207t41.5 -207t114.5 -74t114.5 74t41.5 207zM854 365
q0 166 94 271t230 105q135 0 229 -105t94 -271q0 -167 -94 -273t-229 -106t-229.5 106t-94.5 273zM1333 365q0 134 -42 207t-113 73q-73 0 -114.5 -74t-41.5 -206q0 -133 41.5 -207t114.5 -74q72 0 113.5 74t41.5 207z" />
    <glyph glyph-name="ampersand" unicode="&#x26;" horiz-adv-x="1366" 
d="M1032 365l316 -355v-10h-252l-170 193h-11q-170 -218 -417 -218q-179 0 -298.5 109.5t-119.5 271.5q0 131 78 225t239 177l23 12l-10 10q-96 105 -135 178t-39 160q0 139 112.5 234.5t276.5 95.5q149 0 250.5 -82.5t101.5 -206.5q0 -103 -65 -180.5t-205 -153.5l-58 -30
l309 -349h11l94 345h237v-11zM424 1157q0 -65 30.5 -121.5t106.5 -142.5l25 -27h10l14 8q181 100 181 275q0 91 -47.5 144t-129.5 53q-85 0 -137.5 -52t-52.5 -137zM860 268l-379 430h-8l-16 -6q-170 -99 -170 -278q0 -129 77 -210t205 -81q176 0 291 145z" />
    <glyph glyph-name="quotesingle" unicode="'" horiz-adv-x="409" 
d="M244 852h-78l-64 571h205z" />
    <glyph glyph-name="parenleft" unicode="(" horiz-adv-x="638" 
d="M524 -319q-224 221 -331 456t-107 512q0 279 107 513.5t331 455.5l58 -45q-289 -368 -289 -924q0 -555 289 -923z" />
    <glyph glyph-name="parenright" unicode=")" horiz-adv-x="636" 
d="M113 1614q224 -221 332 -457t108 -512q0 -278 -107.5 -511.5t-332.5 -457.5l-56 45q289 371 289 924t-289 924z" />
    <glyph glyph-name="asterisk" unicode="*" horiz-adv-x="847" 
d="M422 1038l-109 -276l-131 76l189 231l-2 2l-277 -45v160l275 -49l2 4l-187 231l131 76l109 -277h4l111 277l129 -76l-187 -231l2 -2l275 47v-160l-275 45l-2 -2l187 -231l-131 -76l-109 276h-4z" />
    <glyph glyph-name="plus" unicode="+" horiz-adv-x="1161" 
d="M639 541h408v-111h-408v-420h-117v420h-407v111h407v417h117v-417z" />
    <glyph glyph-name="comma" unicode="," horiz-adv-x="501" 
d="M397 96q0 -70 -55 -166l-145 -260h-97l181 307q-6 -2 -27 -2q-62 0 -105 39.5t-43 98.5q0 61 40 101t100 40q63 0 107 -46t44 -112z" />
    <glyph glyph-name="hyphen" unicode="-" horiz-adv-x="804" 
d="M680 551h-555v119h555v-119z" />
    <glyph glyph-name="period" unicode="." horiz-adv-x="483" 
d="M102 115q0 57 41 98t101 41q57 0 98 -41t41 -98t-41 -98.5t-98 -41.5t-99.5 41.5t-42.5 98.5z" />
    <glyph glyph-name="slash" unicode="/" horiz-adv-x="755" 
d="M606 1505h121l-571 -1585h-123z" />
    <glyph glyph-name="zero" unicode="0" horiz-adv-x="1230" 
d="M109 696q0 321 140.5 521t364.5 200q149 0 265 -90.5t180.5 -255t64.5 -375.5t-64.5 -375.5t-180.5 -255t-265 -90.5t-264 90.5t-178 254.5t-63 376zM903 696q0 290 -76 449.5t-213 159.5t-210.5 -158t-73.5 -451q0 -294 73.5 -451t210.5 -157q139 0 214 157.5t75 450.5z
" />
    <glyph glyph-name="one" unicode="1" horiz-adv-x="755" 
d="M340 0v1028h-283v86q173 12 254.5 75t98.5 204h127v-1393h-197z" />
    <glyph glyph-name="two" unicode="2" horiz-adv-x="1064" 
d="M958 0h-880v96l354 348q110 107 168.5 179.5t93.5 152.5q37 81 37 180q0 140 -88.5 223t-230.5 83q-168 0 -287 -113l-51 53q75 104 182.5 159.5t235.5 55.5q197 0 324.5 -114.5t127.5 -292.5q0 -192 -164 -381q-75 -88 -192 -199l-244 -229v-13h614v-188z" />
    <glyph glyph-name="three" unicode="3" horiz-adv-x="1116" 
d="M68 219l53 53q138 -141 332 -141q150 0 241.5 81t91.5 216q0 132 -97.5 197t-280.5 65v98l368 404v12h-647v189h883v-97l-451 -487v-14q201 -13 317.5 -120.5t116.5 -273.5q0 -129 -70 -228t-178.5 -148.5t-232.5 -49.5q-139 0 -253 63.5t-193 180.5z" />
    <glyph glyph-name="four" unicode="4" horiz-adv-x="1257" 
d="M895 0h-184v373h-678v96l762 924h100v-842h311v-178h-311v-373zM696 1122l-460 -559v-12h475v571h-15z" />
    <glyph glyph-name="five" unicode="5" horiz-adv-x="1091" 
d="M55 219l51 53q138 -141 334 -141q149 0 241.5 82.5t92.5 222.5q0 125 -84 200t-223 75q-154 0 -297 -90h-8l108 772h701v-189h-625l-63 -446h12q111 90 264 90q112 0 209 -49.5t157 -144t60 -214.5q0 -201 -136.5 -333t-348.5 -132q-137 0 -253 64.5t-192 179.5z" />
    <glyph glyph-name="six" unicode="6" horiz-adv-x="1196" 
d="M156 313q-54 145 -54 310q0 255 117 454q94 153 237 240.5t318 87.5q179 0 322 -94l-35 -78q-103 53 -248 53q-232 0 -362.5 -162.5t-131.5 -455.5h13q52 93 142 146.5t206 53.5q174 0 290.5 -115.5t116.5 -303.5q0 -203 -139 -338.5t-338 -135.5q-157 0 -275 89
t-179 249zM870 414q0 150 -70.5 235.5t-189.5 85.5q-94 0 -166.5 -60t-109.5 -157v-35q0 -195 68.5 -298t197.5 -103q124 0 197 90t73 242z" />
    <glyph glyph-name="seven" unicode="7" horiz-adv-x="1011" 
d="M834 1192v12h-773v189h928v-97l-629 -1296h-249v8z" />
    <glyph glyph-name="eight" unicode="8" horiz-adv-x="1224" 
d="M102 383q0 131 91.5 225.5t250.5 126.5v13q-135 33 -210.5 115t-75.5 202q0 149 127 250.5t327 101.5q201 0 328 -101.5t127 -250.5q0 -120 -76 -202t-211 -115v-13q160 -32 252 -126.5t92 -225.5q0 -184 -140.5 -296t-371.5 -112q-229 0 -369.5 112t-140.5 296z
M858 1053q0 118 -66.5 187t-179.5 69q-111 0 -177 -69t-66 -187q0 -117 66.5 -188.5t176.5 -71.5q112 0 179 71.5t67 188.5zM913 381q0 137 -83 221t-218 84q-134 0 -216.5 -84.5t-82.5 -220.5q0 -134 82 -215.5t217 -81.5t218 82t83 215z" />
    <glyph glyph-name="nine" unicode="9" horiz-adv-x="1191" 
d="M94 82l35 80q109 -56 252 -56q237 0 365 169.5t126 476.5h-12q-49 -88 -140.5 -141.5t-209.5 -53.5q-164 0 -279.5 116t-115.5 298q0 192 134 319t331 127q155 0 270.5 -82.5t177.5 -236.5q59 -151 59 -328q0 -258 -114 -457q-90 -153 -232.5 -239t-322.5 -86
q-172 0 -324 94zM858 897v43q0 174 -70 272.5t-194 98.5q-120 0 -193 -84.5t-73 -229.5q0 -142 70 -224.5t186 -82.5q94 0 165 56.5t109 150.5z" />
    <glyph glyph-name="colon" unicode=":" horiz-adv-x="536" 
d="M129 115q0 57 40.5 98t100.5 41q57 0 98.5 -41t41.5 -98t-41.5 -98.5t-98.5 -41.5t-99 41.5t-42 98.5zM129 811q0 57 40.5 98t100.5 41q57 0 98.5 -41t41.5 -98t-41.5 -98t-98.5 -41t-99 41t-42 98z" />
    <glyph glyph-name="semicolon" unicode=";" horiz-adv-x="555" 
d="M135 811q0 57 40.5 98t100.5 41q57 0 98.5 -41t41.5 -98t-41.5 -98t-98.5 -41t-99 41t-42 98zM426 96q0 -70 -55 -166l-146 -260h-96l180 307q-6 -2 -26 -2q-62 0 -105 39.5t-43 98.5q0 61 39.5 101t99.5 40q63 0 107.5 -46t44.5 -112z" />
    <glyph glyph-name="less" unicode="&#x3c;" horiz-adv-x="1120" 
d="M1010 135v-119l-924 412v115l924 411v-125l-777 -342v-8z" />
    <glyph glyph-name="equal" unicode="=" horiz-adv-x="1193" 
d="M1063 610h-932v111h932v-111zM1063 250h-932v110h932v-110z" />
    <glyph glyph-name="greater" unicode="&#x3e;" horiz-adv-x="1120" 
d="M1034 426l-921 -412v121l776 342v8l-776 344v123l921 -411v-115z" />
    <glyph glyph-name="question" unicode="?" horiz-adv-x="978" 
d="M383 668q160 66 235.5 153t75.5 205t-82 192t-215 74q-182 0 -305 -123l-53 58q170 221 422 221q186 0 311 -107.5t125 -275.5q0 -287 -403 -457v-213h-111v273zM301 115q0 57 41 98t98 41q60 0 101 -41t41 -98t-42.5 -98.5t-99.5 -41.5t-98 41.5t-41 98.5z" />
    <glyph glyph-name="at" unicode="@" horiz-adv-x="1599" 
d="M88 469q-3 159 54.5 304t157.5 248.5t239 164t292 57.5q146 2 273 -48t215.5 -138.5t138 -212.5t47.5 -264q0 -212 -99.5 -344t-256.5 -132q-76 0 -135.5 34t-83.5 95h-12q-89 -129 -234 -129q-114 0 -188 87t-74 231q0 118 50 221.5t140.5 167t198.5 63.5q120 0 203 -86
h12l104 70h60l-107 -485q-6 -30 -6 -58q0 -54 25 -83t72 -29q92 0 156.5 106t64.5 271q0 248 -155.5 403.5t-408.5 155.5q-174 3 -320.5 -85t-230.5 -243.5t-81 -341.5q0 -276 174 -452.5t446 -176.5q204 0 363 90l43 -80q-179 -114 -408 -114q-207 -3 -375 91.5
t-262.5 263.5t-91.5 378zM891 324l47 221q10 62 10 88q0 77 -35.5 118.5t-97.5 41.5q-98 0 -161.5 -97t-63.5 -245q0 -104 42 -161t120 -57q81 0 139 91z" />
    <glyph glyph-name="A" unicode="A" horiz-adv-x="1423" 
d="M1247 266q50 -122 80 -162q31 -42 94 -51v-53h-467v53q103 9 103 88q0 37 -29 113l-78 192h-569l-76 -194q-29 -79 -29 -113q0 -39 27 -59.5t88 -26.5v-53h-383v53q67 7 101.5 48.5t74.5 150.5l461 1171h121zM655 1141l-231 -586h481l-237 586h-13z" />
    <glyph glyph-name="B" unicode="B" horiz-adv-x="1347" 
d="M109 53q81 12 106 48.5t25 148.5v926q0 112 -25 147t-106 47v53h575q236 0 370 -90.5t134 -245.5q0 -128 -94.5 -218t-251.5 -115v-13q195 -19 306.5 -112t111.5 -236q0 -171 -143.5 -282t-387.5 -111h-620v53zM639 801q156 0 240 68t84 196q0 121 -84 185.5t-238 64.5
h-197v-514h195zM444 692v-583h215q177 0 275 77.5t98 219.5q0 140 -100.5 213t-286.5 73h-201z" />
    <glyph glyph-name="C" unicode="C" horiz-adv-x="1413" 
d="M94 707q-2 130 37.5 248t111.5 207.5t166.5 155t206.5 99t228 31.5q240 0 422 -102v-310h-58q-100 299 -368 299q-145 0 -262 -76.5t-182.5 -212.5t-65.5 -305q0 -183 74 -320t200.5 -207.5t286.5 -70.5q247 0 442 174l51 -51q-117 -149 -252.5 -220t-310.5 -71
q-144 -2 -276 49.5t-233 144.5t-160.5 233.5t-57.5 304.5z" />
    <glyph glyph-name="D" unicode="D" horiz-adv-x="1562" 
d="M242 1174q0 63 -5 98.5t-22.5 56t-38.5 27.5t-65 14v53h577q227 3 406.5 -86.5t278 -251.5t95.5 -368q0 -210 -97.5 -373t-275 -253.5t-407.5 -90.5h-577v53q88 15 109.5 52t21.5 163v906zM637 109q285 0 440.5 158t155.5 450q0 288 -155.5 443t-440.5 155h-191v-1206
h191z" />
    <glyph glyph-name="E" unicode="E" horiz-adv-x="1292" 
d="M1210 358v-358h-1101v53q82 15 106.5 50t24.5 147v928q0 115 -23.5 149t-107.5 43v53h1060v-307h-57q-10 110 -77.5 154.5t-221.5 44.5h-369v-541h273q126 0 180 35.5t59 114.5h58v-408h-58q-5 82 -58.5 116t-180.5 34h-273v-557h414q140 0 211.5 57t83.5 192h57z" />
    <glyph glyph-name="F" unicode="F" horiz-adv-x="1171" 
d="M109 53q45 8 68 17t38.5 31.5t20 55.5t4.5 93v930q0 79 -10.5 115t-36 51t-84.5 24v53h991v-307h-58q-10 109 -78.5 154t-222.5 45h-297v-557h236q124 0 179.5 34.5t60.5 114.5h55v-407h-55q-5 80 -59.5 114.5t-180.5 34.5h-236v-399q0 -117 26 -151t120 -46v-53h-481v53
z" />
    <glyph glyph-name="G" unicode="G" horiz-adv-x="1515" 
d="M940 727h498v-53q-73 -9 -97 -45.5t-24 -143.5v-368q-230 -142 -477 -142q-159 -2 -299 53t-238 152t-154 232.5t-55 289.5q-2 155 59.5 294t169 239t259 157.5t321.5 55.5q269 0 475 -102v-302h-59q-94 291 -410 291q-175 0 -308 -82.5t-202 -224t-69 -319.5
q0 -181 64 -321.5t187.5 -221t290.5 -80.5q124 0 240 43v352q0 111 -35 147.5t-137 45.5v53z" />
    <glyph glyph-name="H" unicode="H" horiz-adv-x="1656" 
d="M1548 1370q-81 -9 -106 -44t-25 -148v-930q0 -111 24.5 -145.5t106.5 -49.5v-53h-465v53q82 15 105.5 49t23.5 146v420h-768v-420q0 -112 23.5 -146t105.5 -49v-53h-464v53q82 15 106.5 49.5t24.5 145.5v930q0 113 -25 148t-106 44v53h464v-53q-80 -9 -104.5 -44
t-24.5 -148v-396h768v396q0 113 -24.5 148t-104.5 44v53h465v-53z" />
    <glyph glyph-name="I" unicode="I" horiz-adv-x="681" 
d="M111 53q81 12 106 47.5t25 147.5v930q0 112 -25.5 147.5t-105.5 44.5v53h464v-53q-80 -9 -104.5 -44t-24.5 -148v-930q0 -113 24 -148t105 -47v-53h-464v53z" />
    <glyph glyph-name="J" unicode="J" horiz-adv-x="958" 
d="M10 76l39 74q111 -54 211 -54q129 0 203 73.5t74 227.5v785q0 109 -25 144t-104 44v53h464v-53q-80 -9 -105.5 -44.5t-25.5 -143.5v-742q0 -230 -118 -348q-120 -117 -301 -117q-84 0 -168.5 28.5t-143.5 72.5z" />
    <glyph glyph-name="K" unicode="K" horiz-adv-x="1427" 
d="M717 823l725 -813v-10h-283l-586 678l-129 -133v-299q0 -110 24.5 -144t109.5 -49v-53h-469v53q82 15 106.5 49t24.5 144v932q0 113 -25 148t-106 44v53h464v-53q-80 -9 -104.5 -44t-24.5 -148v-471h9l469 485q82 88 82 129q0 37 -56 49v53h434v-53q-99 -12 -163 -55
q-61 -41 -172 -152z" />
    <glyph glyph-name="L" unicode="L" horiz-adv-x="1185" 
d="M109 53q83 12 107 48.5t24 144.5v934q0 111 -25 146t-106 44v53h464v-53q-84 -9 -106.5 -42t-22.5 -148v-1071h330q74 0 122 11.5t87 43t61 89t31 148.5h58v-401h-1024v53z" />
    <glyph glyph-name="M" unicode="M" horiz-adv-x="1929" 
d="M870 0l-501 1188h-13v-934q0 -112 25 -150.5t104 -50.5v-53h-376v53q79 12 105 51t26 150v926q0 107 -24.5 144t-106.5 46v53h380l484 -1149h14l467 1149h369v-53q-80 -9 -104.5 -44t-24.5 -144v-930q0 -115 23.5 -151t105.5 -48v-53h-465v53q83 12 107 49t24 150v946
h-14l-486 -1198h-119z" />
    <glyph glyph-name="N" unicode="N" horiz-adv-x="1560" 
d="M106 53q82 12 106 48.5t24 148.5v1040l-95 123v10h299l762 -1079h12v834q0 114 -24 148.5t-103 43.5v53h375v-53q-80 -9 -104.5 -44t-24.5 -148v-1178h-141l-825 1167h-13v-917q0 -113 23.5 -149t105.5 -48v-53h-377v53z" />
    <glyph glyph-name="O" unicode="O" horiz-adv-x="1613" 
d="M94 711q-2 154 52 291.5t148.5 236.5t228.5 155.5t284 53.5q152 2 285.5 -54t227.5 -154.5t147.5 -236t52.5 -292.5q1 -155 -52.5 -292t-147.5 -235.5t-227.5 -154.5t-285.5 -54q-150 -2 -284 54.5t-228.5 155t-148.5 235.5t-52 291zM1284 711q0 279 -131 450.5
t-346 171.5q-212 0 -343.5 -172t-131.5 -450q0 -279 131 -450t344 -171q215 0 346 170.5t131 450.5z" />
    <glyph glyph-name="P" unicode="P" horiz-adv-x="1210" 
d="M444 594v-344q0 -113 28.5 -149t121.5 -48v-53h-485v53q81 12 106 48t25 147v932q0 112 -24 146.5t-107 43.5v53h520q240 0 386 -110.5t146 -300.5t-146.5 -304t-385.5 -114h-185zM444 1315v-615h140q167 0 259.5 80.5t92.5 231.5t-91 227t-261 76h-140z" />
    <glyph glyph-name="Q" unicode="Q" horiz-adv-x="1613" 
d="M1157 102h457v-194h-12l-547 106q-127 -39 -252 -39q-200 -3 -364 94t-255 267t-88 375q-2 153 51 290.5t146.5 236t226.5 155.5t283 55q200 4 364 -92t255.5 -264.5t88.5 -372.5q0 -205 -101.5 -368t-252.5 -234v-15zM803 90q215 0 344 169.5t129 451.5
q0 281 -129.5 451.5t-343.5 170.5q-212 0 -341.5 -170.5t-129.5 -451.5t129 -451t342 -170z" />
    <glyph glyph-name="R" unicode="R" horiz-adv-x="1359" 
d="M1386 6v-6h-264l-567 692h-117v-440q0 -81 11 -119t36 -53.5t82 -26.5v-53h-463v53q57 11 82 26.5t36 53.5t11 119v930q0 107 -24 143t-105 45v53h547q234 0 375 -97.5t141 -260.5q0 -135 -102 -231t-274 -125zM438 799h166q161 0 249.5 69.5t88.5 194.5q0 122 -86.5 187
t-245.5 65h-172v-516z" />
    <glyph glyph-name="S" unicode="S" horiz-adv-x="1105" 
d="M94 111v301h56q108 -326 382 -326q116 0 199 68q84 69 84 176q0 77 -48 132t-155 105l-215 97q-134 61 -202 156t-68 216q0 174 137.5 293t343.5 119q102 0 201 -26t168 -68v-293h-55q-71 276 -326 276q-119 0 -196.5 -64t-77.5 -171q0 -76 43.5 -133.5t140.5 -100.5
l217 -100q149 -67 220 -157t71 -218q0 -181 -140.5 -299.5t-347.5 -118.5q-237 0 -432 136z" />
    <glyph glyph-name="T" unicode="T" horiz-adv-x="1275" 
d="M389 53q66 11 94.5 27t41 53.5t12.5 116.5v1069h-119q-151 0 -224 -51t-92 -162h-55v317h1184v-317h-55q-19 111 -91 162t-223 51h-121v-1069q0 -79 12.5 -116.5t41 -53.5t94.5 -27v-53h-500v53z" />
    <glyph glyph-name="U" unicode="U" horiz-adv-x="1554" 
d="M215 573v605q0 80 -11 117t-36 51.5t-82 23.5v53h465v-53q-35 -5 -55 -11.5t-36.5 -18t-24 -32.5t-11.5 -51.5t-4 -78.5v-596q0 -214 105 -332.5t294 -118.5q185 0 293.5 117.5t108.5 326.5v601q0 115 -23.5 150t-105.5 44v53h376v-53q-82 -9 -105.5 -45.5t-23.5 -153.5
v-593q0 -277 -149 -440t-410 -163q-265 0 -415 159.5t-150 438.5z" />
    <glyph glyph-name="V" unicode="V" horiz-adv-x="1400" 
d="M758 0h-121l-442 1161q-39 105 -75.5 148.5t-103.5 60.5v53h463v-53q-96 -20 -96 -86q0 -41 35 -131l323 -852h13l336 854q36 91 36 133q0 35 -21 53t-69 29v53h367v-53q-81 -22 -113 -63q-33 -41 -80 -154z" />
    <glyph glyph-name="W" unicode="W" horiz-adv-x="2017" 
d="M182 1155q-33 108 -66.5 152.5t-99.5 62.5v53h461v-53q-56 -13 -80 -36t-24 -62q0 -37 22 -111l246 -839h12l316 878l-76 223h229l338 -1075h13l241 801q27 94 27 133q0 37 -22 57.5t-77 30.5v53h367v-53q-72 -18 -107.5 -63.5t-68.5 -157.5l-344 -1149h-129l-324 1022
h-12l-367 -1022h-131z" />
    <glyph glyph-name="X" unicode="X" horiz-adv-x="1417" 
d="M606 711l-340 467q-61 89 -119 139q-47 41 -116 53v53h479v-53q-55 -15 -55 -57q0 -46 67 -137l205 -287h14l217 295q62 86 62 125q0 43 -66 61v53h379v-53q-79 -15 -127 -57q-42 -36 -121 -142l-284 -383l383 -526q63 -89 125 -151q49 -46 123 -58v-53h-484v53
q64 15 64 60q0 42 -62 125l-270 372h-14l-260 -352q-74 -103 -74 -143q0 -47 69 -62v-53h-385v53q77 17 129 60q57 50 127 149z" />
    <glyph glyph-name="Y" unicode="Y" horiz-adv-x="1396" 
d="M1014 1423h379v-53q-76 -18 -122 -60t-110 -141l-356 -569v-350q0 -113 23.5 -147.5t105.5 -49.5v-53h-465v53q44 7 67 16.5t39 31.5t20.5 55.5t4.5 93.5v330l-367 602q-52 93 -94 132t-112 56v53h475v-53q-74 -21 -74 -70q0 -41 55 -135l260 -432h13l268 432
q59 95 59 138q0 25 -16 41t-53 26v53z" />
    <glyph glyph-name="Z" unicode="Z" horiz-adv-x="1247" 
d="M72 0v96l827 1211v8h-448q-130 0 -197.5 -55t-87.5 -179h-55v342h1046v-96l-827 -1210v-8h452q149 0 221 58.5t95 205.5h55v-373h-1081z" />
    <glyph glyph-name="bracketleft" unicode="[" horiz-adv-x="698" 
d="M672 1593v-92h-287v-1708h287v-92h-477v1892h477z" />
    <glyph glyph-name="backslash" unicode="\" horiz-adv-x="759" 
d="M154 1505l573 -1585h-125l-573 1585h125z" />
    <glyph glyph-name="bracketright" unicode="]" horiz-adv-x="698" 
d="M27 -299v92h286v1708h-286v92h477v-1892h-477z" />
    <glyph glyph-name="asciicircum" unicode="^" horiz-adv-x="827" 
d="M199 813h-125l282 610h115l285 -610h-131l-207 481h-8z" />
    <glyph glyph-name="underscore" unicode="_" horiz-adv-x="1009" 
d="M950 -219h-889v113h889v-113z" />
    <glyph glyph-name="grave" unicode="`" horiz-adv-x="432" 
d="M287 1419l106 -293h-88l-262 285v8h244z" />
    <glyph glyph-name="a" unicode="a" horiz-adv-x="1013" 
d="M985 53q-85 -73 -192 -73q-68 0 -113 41.5t-45 111.5v8h-14q-111 -166 -287 -166q-104 0 -175 67t-71 169q0 106 81 171.5t251 111.5l211 59v84q0 107 -55 162t-154 55q-137 0 -283 -94l-41 55q85 82 185.5 130t201.5 48q152 0 243 -92t91 -266v-457q0 -92 68 -92
q33 0 67 18zM631 268v195l-152 -53q-107 -40 -151.5 -75t-44.5 -93q0 -59 38.5 -94t96.5 -35q63 0 117.5 42.5t95.5 112.5z" />
    <glyph glyph-name="b" unicode="b" horiz-adv-x="1153" 
d="M319 84h-12l-88 -94h-61v1253q0 71 -19.5 92t-83.5 27v53l281 49h12v-645h12q61 89 135 131.5t173 42.5q169 0 285 -132.5t116 -346.5q0 -236 -135.5 -387.5t-333.5 -151.5q-166 0 -281 109zM872 475q0 169 -72 272t-198 103q-83 0 -148.5 -50t-105.5 -132v-287
q0 -143 63 -224t175 -81q134 0 209 112q77 115 77 287z" />
    <glyph glyph-name="c" unicode="c" horiz-adv-x="970" 
d="M84 473q0 223 142 371.5t358 148.5q149 0 264 -59v-225h-55q-19 82 -76 131t-135 49q-140 0 -222 -107q-81 -103 -81 -262q0 -178 95 -282.5t249 -104.5q150 0 272 96l49 -47q-165 -207 -381 -207q-207 0 -343 142t-136 356z" />
    <glyph glyph-name="d" unicode="d" horiz-adv-x="1169" 
d="M86 457q0 230 134 383t337 153q141 0 236 -80h14v330q0 71 -20 92t-85 27v53l281 49h12v-1247q0 -75 14 -95t74 -26v-53l-266 -53h-10v155h-14q-108 -170 -308 -170q-170 0 -284.5 133t-114.5 349zM807 297v293q0 142 -63 222.5t-175 80.5q-129 0 -207.5 -109t-78.5 -286
q0 -175 75 -277t199 -102q82 0 147 50t103 128z" />
    <glyph glyph-name="e" unicode="e" horiz-adv-x="1013" 
d="M958 182q-88 -106 -181 -156.5t-210 -50.5q-101 0 -189.5 36.5t-153.5 102t-102.5 162t-37.5 209.5q0 217 129 362.5t324 145.5q170 0 273 -102t103 -283v-61h-641q0 -195 97.5 -304.5t263.5 -109.5q85 0 149.5 23t128.5 73zM279 643h446q-2 113 -57 180.5t-148 67.5
q-96 0 -159 -65t-82 -183z" />
    <glyph glyph-name="f" unicode="f" horiz-adv-x="745" 
d="M145 53q63 9 78 31.5t15 114.5v655h-205v115h205v133q0 176 101 276.5t275 100.5q100 0 183 -27v-205h-49q-14 56 -57.5 90.5t-104.5 34.5q-75 0 -117.5 -49t-42.5 -145v-209h260v-115h-260v-655q0 -92 16.5 -114.5t87.5 -31.5v-53h-385v53z" />
    <glyph glyph-name="g" unicode="g" horiz-adv-x="1081" 
d="M1032 868h-239v-10q44 -27 73 -79t29 -113q0 -139 -108 -231.5t-275 -92.5q-85 0 -162 25q-47 -20 -73.5 -51t-26.5 -66q0 -38 31.5 -61t91.5 -23h301q167 0 258.5 -63t91.5 -181q0 -152 -154 -256t-391 -104q-199 0 -317.5 67.5t-118.5 177.5q0 121 156 207v9
q-107 52 -107 163q0 64 41 121.5t123 98.5v8q-63 43 -98 109t-35 145q0 146 108 235q110 90 281 90q72 0 133 -20l377 74h10v-179zM702 668q0 108 -52 171.5t-140 63.5q-87 0 -140 -63.5t-53 -171.5q0 -105 53.5 -169.5t139.5 -64.5q87 0 139.5 63t52.5 171zM328 -2
q-115 -54 -115 -156q0 -83 71.5 -132.5t202.5 -49.5q143 0 247 59t104 146q0 69 -49 101t-154 32h-307z" />
    <glyph glyph-name="h" unicode="h" horiz-adv-x="1142" 
d="M180 1243q0 72 -19 92.5t-83 26.5v53l280 49h13v-645h12q63 89 132 131.5t159 42.5q139 0 223 -94t84 -264v-428q0 -92 15 -118.5t73 -35.5v-53h-367v53q58 9 73.5 36t15.5 118v426q0 104 -49 161.5t-130 57.5q-142 0 -241 -176v-469q0 -90 15.5 -117.5t70.5 -36.5v-53
h-365v53q58 9 73 35.5t15 118.5v1036z" />
    <glyph glyph-name="i" unicode="i" horiz-adv-x="557" 
d="M150 1280q0 56 38 94.5t95 38.5q54 0 92.5 -39t38.5 -94q0 -56 -38 -94.5t-93 -38.5q-57 0 -95 38t-38 95zM381 209q0 -93 14.5 -120t71.5 -36v-53h-365v53q58 9 73 36t15 120v549q0 72 -19.5 92.5t-82.5 26.5v53l279 49h14v-770z" />
    <glyph glyph-name="j" unicode="j" horiz-adv-x="528" 
d="M139 1280q0 56 38.5 94.5t94.5 38.5q54 0 92.5 -39t38.5 -94q0 -56 -38 -94.5t-93 -38.5q-56 0 -94.5 38t-38.5 95zM-123 -387l23 68q55 -19 106 -19q174 0 174 209v887q0 71 -19.5 92.5t-82.5 26.5v53l280 49h13v-1077q0 -172 -90 -256t-218 -84q-115 0 -186 51z" />
    <glyph glyph-name="k" unicode="k" horiz-adv-x="1097" 
d="M586 584l510 -578v-6h-258l-389 459l-80 -74v-176q0 -93 14.5 -120t71.5 -36v-53h-365v53q58 9 73 36t15 120v1032q0 73 -19 94t-83 27v53l280 49h13v-946h12l293 281q63 57 63 88q0 19 -37 28v54h365v-54q-88 -12 -143 -45q-54 -29 -131 -100z" />
    <glyph glyph-name="l" unicode="l" horiz-adv-x="544" 
d="M90 53q59 9 73.5 35.5t14.5 120.5v1032q0 73 -19 94t-83 27v53l280 49h13v-1255q0 -93 14.5 -120t71.5 -36v-53h-365v53z" />
    <glyph glyph-name="m" unicode="m" horiz-adv-x="1718" 
d="M190 758q0 71 -19.5 92.5t-82.5 26.5v53l279 49h14v-160h12q116 174 297 174q93 0 161 -50t99 -140h13q117 190 299 190q130 0 210 -91.5t80 -248.5v-444q0 -94 14.5 -120.5t73.5 -35.5v-53h-364v53q58 9 73 36t15 120v434q0 101 -44.5 155t-123.5 54q-133 0 -227 -174
v-477q0 -88 15 -112t73 -36v-53h-365v53q58 12 73 36t15 112v438q0 213 -170 213q-69 0 -129.5 -48.5t-99.5 -125.5v-473q0 -90 14.5 -115t71.5 -37v-53h-365v53q60 12 74 36.5t14 115.5v553z" />
    <glyph glyph-name="n" unicode="n" horiz-adv-x="1155" 
d="M190 758q0 72 -19 92.5t-83 26.5v53l281 49h12v-160h12q61 88 131 131t160 43q139 0 223 -94t84 -264v-428q0 -92 15 -118.5t73 -35.5v-53h-366v53q58 9 73 35.5t15 118.5v426q0 104 -48 161.5t-128 57.5q-145 0 -244 -176v-469q0 -90 15.5 -117.5t70.5 -36.5v-53h-365
v53q58 9 73 35.5t15 118.5v551z" />
    <glyph glyph-name="o" unicode="o" horiz-adv-x="1138" 
d="M84 485q0 222 137 365t350 143q211 0 348.5 -143t137.5 -365q0 -221 -137.5 -365.5t-348.5 -144.5q-212 0 -349.5 144.5t-137.5 365.5zM844 485q0 185 -74 291.5t-199 106.5q-128 0 -202 -107t-74 -291q0 -186 73.5 -292.5t202.5 -106.5q126 0 199.5 106t73.5 293z" />
    <glyph glyph-name="p" unicode="p" horiz-adv-x="1175" 
d="M180 758q0 71 -19.5 92.5t-82.5 26.5v53l280 49h13v-160h12q117 174 305 174q175 0 289.5 -134.5t114.5 -346.5q0 -233 -135.5 -385t-333.5 -152q-144 0 -240 78h-12v-264q0 -51 2 -74.5t13.5 -40t27 -21t51.5 -9.5v-54h-373v54q43 6 59.5 17t22.5 37t6 91v969zM895 471
q0 174 -73 276.5t-197 102.5q-83 0 -148.5 -49.5t-105.5 -132.5v-283q0 -151 63 -230t174 -79q131 0 207 110q80 112 80 285z" />
    <glyph glyph-name="q" unicode="q" horiz-adv-x="1150" 
d="M807 145h-12q-116 -170 -312 -170q-167 0 -282 131.5t-115 350.5q0 229 135 382.5t334 153.5q172 0 279 -110h12l88 86h61v-1180q0 -89 14.5 -112.5t73.5 -32.5v-54h-372v54q65 9 80.5 32t15.5 113v356zM807 297v293q0 145 -65 224t-173 79q-129 0 -207.5 -109
t-78.5 -286q0 -173 74.5 -276t201.5 -103q82 0 146.5 49t101.5 129z" />
    <glyph glyph-name="r" unicode="r" horiz-adv-x="784" 
d="M190 758q0 71 -19.5 92.5t-82.5 26.5v53l281 49h12v-281h12q42 153 110.5 224t168.5 71q31 0 73 -10v-195q-41 13 -81 13q-197 0 -283 -271v-331q0 -93 14.5 -115t83.5 -31v-53h-377v53q60 9 74 32t14 114v559z" />
    <glyph glyph-name="s" unicode="s" horiz-adv-x="841" 
d="M92 63v218h55q81 -201 256 -201q80 0 132.5 37.5t52.5 101.5q0 46 -30 76.5t-107 66.5l-152 68q-188 86 -188 260q0 131 100 217t252 86q144 0 266 -61v-213h-55q-52 168 -223 168q-79 0 -130 -37t-51 -98q0 -47 31.5 -81t104.5 -65l155 -67q189 -83 189 -258
q0 -133 -103 -219.5t-254 -86.5q-80 0 -160.5 23.5t-140.5 64.5z" />
    <glyph glyph-name="t" unicode="t" horiz-adv-x="731" 
d="M215 240v614h-197v88q58 4 92 8.5t64 17t44.5 28.5t26.5 49t17 71t10 103h134v-250h282v-115h-282v-610q0 -77 30 -111.5t94 -34.5q78 0 146 41l37 -57q-113 -107 -250 -107q-114 0 -181 67.5t-67 197.5z" />
    <glyph glyph-name="u" unicode="u" horiz-adv-x="1124" 
d="M170 311v445q0 82 -19.5 115.5t-74.5 43.5v54h284v-654q0 -96 42 -147t116 -51q72 0 133 49t101 131v461q0 85 -20 117.5t-77 39.5v54h287v-752q0 -77 14 -96t74 -25v-53l-266 -53h-10v155h-15q-49 -78 -122 -124t-162 -46q-126 0 -205.5 89.5t-79.5 246.5z" />
    <glyph glyph-name="v" unicode="v" horiz-adv-x="1030" 
d="M150 760q-27 71 -55.5 104t-82.5 51v54h402v-54q-78 -18 -78 -73q0 -23 22 -84l195 -490h14l193 475q28 73 28 101q0 56 -71 71v54h309v-54q-59 -17 -90.5 -53.5t-69.5 -124.5l-301 -737h-98z" />
    <glyph glyph-name="w" unicode="w" horiz-adv-x="1517" 
d="M512 293l203 518l-56 158h199l232 -678h14l149 444q23 77 23 105q0 29 -16.5 46.5t-53.5 28.5v54h305v-54q-61 -20 -92 -58.5t-61 -127.5l-252 -729h-96l-234 678h-12l-264 -678h-94l-254 739q-27 82 -57 120.5t-83 55.5v54h396v-54q-42 -10 -60 -27.5t-18 -47.5
q0 -23 22 -97l148 -450h12z" />
    <glyph glyph-name="x" unicode="x" horiz-adv-x="1032" 
d="M426 471l-215 297q-47 65 -89 99.5t-97 47.5v54h409v-54q-47 -15 -47 -49q0 -28 49 -98l103 -145h12l111 149q45 62 45 94q0 34 -54 49v54h324v-54q-60 -13 -106.5 -48.5t-100.5 -108.5l-168 -219l227 -316q53 -76 97 -114.5t102 -55.5v-53h-412v53q50 15 50 47
q0 30 -50 101l-127 184h-12l-129 -176q-51 -68 -51 -103q0 -38 65 -53v-53h-335v53q60 13 105 49.5t101 112.5z" />
    <glyph glyph-name="y" unicode="y" horiz-adv-x="1040" 
d="M725 969h307v-54q-62 -23 -97.5 -64.5t-66.5 -125.5l-336 -872q-114 -291 -348 -291q-86 0 -135 32v173q69 -29 144 -29q190 0 264 194l20 54l-313 743q-36 88 -67.5 125.5t-90.5 60.5v54h402v-54q-74 -20 -74 -67q0 -32 33 -111l200 -487h13l186 485q29 82 29 107
q0 50 -70 73v54z" />
    <glyph glyph-name="z" unicode="z" horiz-adv-x="937" 
d="M311 115v-13h250q101 0 154 38t88 141h55v-281h-786v88l532 766v12h-215q-109 0 -158 -30t-75 -115h-56v248h744v-88z" />
    <glyph glyph-name="braceleft" unicode="{" horiz-adv-x="755" 
d="M221 51v350q0 101 -40 148.5t-136 54.5v90q96 7 136 54.5t40 148.5v348q0 178 98 272.5t261 94.5q68 0 151 -21l-4 -86q-47 6 -94 6q-108 0 -167.5 -58t-59.5 -173v-346q0 -117 -48.5 -188t-140.5 -91v-10q189 -44 189 -280v-349q0 -115 59.5 -174t167.5 -59q45 0 94 6
l4 -86q-79 -20 -151 -20q-163 0 -261 95t-98 273z" />
    <glyph glyph-name="bar" unicode="|" horiz-adv-x="507" 
d="M311 -299h-116v1892h116v-1892z" />
    <glyph glyph-name="braceright" unicode="}" horiz-adv-x="755" 
d="M535 1243v-350q0 -101 40 -148.5t136 -54.5v-90q-96 -7 -136 -54.5t-40 -148.5v-348q0 -178 -97.5 -272t-261.5 -94q-87 0 -151 20l4 86q47 -6 94 -6q108 0 167.5 58t59.5 173v346q0 117 48.5 188t140.5 91v10q-189 44 -189 281v348q0 115 -59.5 174t-167.5 59
q-55 0 -94 -8l-4 86q68 21 151 21q165 0 262 -94.5t97 -272.5z" />
    <glyph glyph-name="asciitilde" unicode="~" horiz-adv-x="1165" 
d="M127 358q-1 121 63.5 196t169.5 75q90 0 201 -60l86 -47q100 -53 152 -53q61 0 94 41t33 115h114q0 -121 -65.5 -195t-171.5 -74q-85 0 -199 60l-88 47q-89 51 -149 51q-61 0 -94 -41t-33 -115h-113z" />
    <glyph glyph-name="uni00A0" unicode="&#xa0;" horiz-adv-x="495" 
 />
    <glyph glyph-name="exclamdown" unicode="&#xa1;" horiz-adv-x="512" 
d="M393 854q0 -57 -41 -98t-98 -41q-60 0 -100.5 40.5t-40.5 98.5q0 57 42 98t99 41t98 -41t41 -98zM205 573h100l64 -1028h-226z" />
    <glyph glyph-name="cent" unicode="&#xa2;" horiz-adv-x="1028" 
d="M971 182q-147 -185 -332 -205v-161h-100v161q-189 19 -308.5 157t-119.5 339t119.5 346t308.5 170v166h100v-162q135 -6 238 -59v-225h-56q-19 75 -67 123t-115 55v-754h12q151 0 273 96zM539 150v731q-105 -26 -168.5 -125.5t-63.5 -235.5q0 -144 62 -240.5t170 -129.5z
" />
    <glyph glyph-name="sterling" unicode="&#xa3;" horiz-adv-x="1138" 
d="M342 184h696v-184h-938v96q117 80 168 144q51 60 51 155q0 74 -26 162h-209v105h178l-39 133q-26 88 -26 178q0 197 133 320.5t338 123.5q176 0 325 -78v-276h-55q-64 246 -279 246q-125 0 -201.5 -73.5t-76.5 -209.5q0 -76 27 -168l59 -196h526v-105h-497q8 -36 8 -86
q0 -91 -40.5 -157t-121.5 -117v-13z" />
    <glyph glyph-name="currency" unicode="&#xa4;" horiz-adv-x="1234" 
d="M965 440l145 -145l-63 -70l-150 146q-116 -101 -279 -101q-161 0 -280 101l-148 -146l-67 70l149 147q-84 116 -84 267q0 147 82 266l-145 145l65 70l148 -143q112 100 280 100q169 0 281 -100l148 143l65 -70l-147 -145q82 -119 82 -266q0 -150 -82 -269zM934 709
q0 144 -90 237q-89 92 -226 92t-227 -92.5t-90 -236.5q0 -147 90 -240q89 -92 227 -92q137 0 226 92q90 93 90 240z" />
    <glyph glyph-name="yen" unicode="&#xa5;" horiz-adv-x="1294" 
d="M891 1393h356v-54q-80 -18 -126 -58t-91 -126l-250 -440h297v-107h-340v-141h340v-107h-340v-100q0 -116 23 -154t98 -53v-53h-436v53q74 15 97.5 54t23.5 153v100h-340v107h340v139l-2 2h-338v107h280l-237 444q-43 81 -85 121.5t-108 58.5v54h443v-54q-70 -15 -70 -57
q0 -28 37 -98l215 -422h12l234 422q37 67 37 98q0 42 -70 57v54z" />
    <glyph glyph-name="brokenbar" unicode="&#xa6;" horiz-adv-x="507" 
d="M311 897h-116v696h116v-696zM311 -299h-116v698h116v-698z" />
    <glyph glyph-name="section" unicode="&#xa7;" horiz-adv-x="1030" 
d="M745 276q136 -95 136 -233q0 -142 -120.5 -236t-309.5 -94q-194 0 -328 84v228h53q25 -94 98.5 -148.5t180.5 -54.5q113 0 178 43.5t65 118.5q0 60 -34 98t-127 82l-226 106q-114 55 -167.5 121.5t-53.5 157.5q0 92 55.5 169.5t147.5 119.5v10q-150 101 -150 248
q0 132 124 226.5t311 94.5q188 0 321 -71v-220h-55q-19 86 -87 134.5t-173 48.5q-120 0 -189 -46.5t-69 -117.5q0 -61 34 -97t129 -81l232 -109q118 -57 172.5 -123.5t54.5 -154.5q0 -95 -55 -172t-148 -119v-13zM649 330l17 -8q116 74 116 178q0 60 -35.5 100t-128.5 84
l-231 113l-10 6q-57 -32 -90 -78.5t-33 -95.5q0 -58 35.5 -102.5t113.5 -80.5z" />
    <glyph glyph-name="dieresis" unicode="&#xa8;" horiz-adv-x="700" 
d="M33 1280q0 54 37.5 90.5t91.5 36.5q51 0 88 -38t37 -89q0 -56 -35.5 -92.5t-89.5 -36.5t-91.5 37t-37.5 92zM418 1280q0 54 36.5 90.5t90.5 36.5q51 0 88 -38t37 -89q0 -56 -35.5 -92.5t-89.5 -36.5t-90.5 37t-36.5 92z" />
    <glyph glyph-name="copyright" unicode="&#xa9;" horiz-adv-x="1708" 
d="M113 727q-3 211 94 384.5t268.5 272t380.5 95.5q155 2 293.5 -55.5t237.5 -157.5t155.5 -240.5t54.5 -298.5q2 -158 -54.5 -298.5t-155.5 -240.5t-237.5 -157.5t-293.5 -55.5q-209 -3 -380.5 95.5t-268.5 272t-94 384.5zM1493 729q3 182 -81 333t-232 236t-326 82
q-135 2 -254 -47.5t-203 -136.5t-132 -208.5t-46 -258.5q0 -140 48 -262t132.5 -208t202.5 -135.5t254 -49.5t254 49.5t202.5 135.5t132.5 208t48 262zM496 723q0 170 112.5 285.5t278.5 115.5q115 0 211 -47v-180h-49q-7 60 -51.5 97.5t-106.5 37.5q-102 0 -164.5 -76
t-62.5 -196q0 -135 71.5 -214t188.5 -79q114 0 196 68l37 -46q-61 -81 -128.5 -119t-156.5 -38q-155 0 -265.5 113.5t-110.5 277.5z" />
    <glyph glyph-name="ordfeminine" unicode="&#xaa;" horiz-adv-x="909" 
d="M745 801q0 -78 11 -96.5t61 -24.5v-47l-239 -45h-7v139h-8q-96 -158 -248 -158q-94 0 -155.5 58.5t-61.5 150.5q0 90 74 148t223 98l176 51v68q0 172 -182 172q-62 0 -127 -22.5t-115 -59.5l-43 59q74 74 162 115t178 41q138 0 219.5 -78.5t81.5 -226.5v-342zM571 838
v157l-131 -43q-89 -27 -126.5 -58t-37.5 -83q0 -53 31.5 -81t83.5 -28q53 0 100.5 37t79.5 99z" />
    <glyph glyph-name="guillemotleft" unicode="&#xab;" horiz-adv-x="1234" 
d="M653 18l-63 -43l-506 510l506 508l63 -43l-338 -465zM1141 18l-64 -43l-506 510l506 508l64 -43l-338 -465z" />
    <glyph glyph-name="logicalnot" unicode="&#xac;" horiz-adv-x="1146" 
d="M125 539h885v-539h-115v428h-770v111z" />
    <glyph glyph-name="uni00AD" unicode="&#xad;" horiz-adv-x="804" 
d="M680 551h-555v119h555v-119z" />
    <glyph glyph-name="registered" unicode="&#xae;" horiz-adv-x="1708" 
d="M1597 727q2 -158 -54.5 -298.5t-155.5 -240.5t-237.5 -157.5t-293.5 -55.5q-209 -3 -380.5 95.5t-268.5 272t-94 384.5q-3 211 94 384.5t268.5 272t380.5 95.5q155 2 293.5 -55.5t237.5 -157.5t155.5 -240.5t54.5 -298.5zM1493 729q3 182 -81 333t-232 236t-326 82
q-135 2 -254 -47.5t-203 -136.5t-132 -208.5t-46 -258.5q0 -140 48 -262t132.5 -208t202.5 -135.5t254 -49.5t254 49.5t202.5 135.5t132.5 208t48 262zM961 707l303 -357v-8h-189l-291 356h-32v-221q0 -44 13.5 -61.5t49.5 -22.5v-51h-276v51q37 4 50 22t13 62v504
q0 49 -13 65.5t-50 18.5v51h331q135 0 215 -55t80 -152q0 -77 -54.5 -130t-149.5 -72zM752 770h75q85 0 132 35.5t47 101.5t-46 99.5t-133 33.5h-75v-270z" />
    <glyph glyph-name="macron" unicode="&#xaf;" horiz-adv-x="694" 
d="M653 1194h-610v102h610v-102z" />
    <glyph glyph-name="degree" unicode="&#xb0;" horiz-adv-x="761" 
d="M84 1157q0 125 84 209q82 82 211 82t211 -82q86 -83 86 -209q0 -128 -86 -211q-82 -82 -211 -82t-211 82q-84 84 -84 211zM573 1157q0 87 -54 142t-140 55q-82 0 -136.5 -56t-54.5 -141q0 -88 53 -142t138 -54q86 0 140 55t54 141z" />
    <glyph glyph-name="plusminus" unicode="&#xb1;" horiz-adv-x="1159" 
d="M637 961v-343h407v-112h-407v-287h-115v287h-409v112h409v343h115zM1044 -14h-931v112h931v-112z" />
    <glyph glyph-name="twosuperior" unicode="&#xb2;" horiz-adv-x="772" 
d="M70 821v88l200 172q125 105 174.5 171.5t49.5 142.5q0 85 -53.5 133.5t-139.5 48.5q-100 0 -188 -74l-52 51q59 76 140 120t172 44q134 0 218.5 -78t84.5 -198q0 -105 -61 -185t-214 -194l-82 -64v-8h365v-170h-614z" />
    <glyph glyph-name="threesuperior" unicode="&#xb3;" horiz-adv-x="782" 
d="M49 977l49 45q94 -94 209 -94q93 0 152 45.5t59 118.5q0 133 -199 139v74l185 208v9h-404v170h598v-88l-258 -293v-8q118 -13 185 -76t67 -156q0 -118 -92.5 -197t-232.5 -79q-202 0 -318 182z" />
    <glyph glyph-name="acute" unicode="&#xb4;" horiz-adv-x="436" 
d="M131 1126h-84l105 293h243v-8z" />
    <glyph glyph-name="mu" unicode="&#xb5;" horiz-adv-x="1181" 
d="M190 752q0 85 -19.5 119t-76.5 44v54h285v-654q0 -98 42.5 -148t117.5 -50q71 0 132 49.5t101 130.5v455q0 87 -20.5 121.5t-77.5 41.5v54h287v-752q0 -75 14 -95t74 -26v-53l-267 -53h-10v155h-12q-112 -170 -266 -170q-55 0 -105 29h-8v-215q0 -93 15 -114.5t87 -30.5
v-54h-293v1162z" />
    <glyph glyph-name="paragraph" unicode="&#xb6;" horiz-adv-x="1286" 
d="M1157 1370q-80 -9 -104.5 -44t-24.5 -148v-1477h-102v1624h-283v-1624h-102v961h-13q-216 0 -344.5 103.5t-128.5 276.5q0 176 128 278.5t345 102.5h629v-53z" />
    <glyph glyph-name="periodcentered" unicode="&#xb7;" horiz-adv-x="516" 
d="M119 563q0 57 40.5 98t100.5 41q57 0 98 -41t41 -98t-41 -98t-98 -41t-99 41t-42 98z" />
    <glyph glyph-name="cedilla" unicode="&#xb8;" horiz-adv-x="497" 
d="M25 -309l36 41q65 -62 144 -62q54 0 85.5 23.5t31.5 64.5q0 34 -25.5 54t-63.5 20q-39 0 -75 -22l-8 4l77 204l60 -18l-39 -104l4 -2q21 6 51 6q63 0 105.5 -38.5t42.5 -103.5q0 -74 -59.5 -125t-149.5 -51q-124 0 -217 109z" />
    <glyph glyph-name="onesuperior" unicode="&#xb9;" horiz-adv-x="706" 
d="M330 821v537h-285v82q180 12 255 66t93 200h107v-885h-170z" />
    <glyph glyph-name="ordmasculine" unicode="&#xba;" horiz-adv-x="993" 
d="M82 1008q0 192 117 316t299 124q180 0 297.5 -125.5t117.5 -314.5q0 -193 -117 -316t-298 -123q-182 0 -299 123t-117 316zM731 1008q0 153 -63.5 242t-169.5 89t-170 -89t-64 -242t64 -242.5t170 -89.5q109 0 171 88.5t62 243.5z" />
    <glyph glyph-name="guillemotright" unicode="&#xbb;" horiz-adv-x="1239" 
d="M96 950l64 43l506 -510l-506 -508l-64 43l336 465zM584 950l63 43l506 -510l-506 -508l-63 43l336 465z" />
    <glyph glyph-name="onequarter" unicode="&#xbc;" horiz-adv-x="2070" 
d="M336 594v510h-270v78q170 12 242 64.5t87 189.5h103v-842h-162zM1534 1423h-127l-983 -1423h127zM1823 0h-150v205h-420v84l486 553h84v-500h182v-137h-182v-205zM1415 350v-8h258v295h-8z" />
    <glyph glyph-name="onehalf" unicode="&#xbd;" horiz-adv-x="1976" 
d="M334 594v510h-271v78q170 12 242.5 64.5t87.5 189.5h103v-842h-162zM1532 1423h-127l-983 -1423h127zM1298 0v84l193 164q118 98 165.5 162.5t47.5 136.5q0 80 -52 127t-132 47q-98 0 -179 -72l-49 49q125 156 295 156q128 0 208.5 -74t80.5 -190q0 -104 -61 -180
t-199 -181l-80 -59v-8h348v-162h-586z" />
    <glyph glyph-name="threequarters" unicode="&#xbe;" horiz-adv-x="2095" 
d="M57 743l49 43q91 -88 199 -88q88 0 144.5 43.5t56.5 112.5q0 125 -189 131v72l175 198v9h-383v161h567v-84l-244 -278v-8q112 -13 176 -72.5t64 -146.5q0 -113 -88 -189t-224 -76q-184 0 -303 172zM1567 1423h-127l-983 -1423h127zM1855 0h-149v205h-420v84l486 553h83
v-500h183v-137h-183v-205zM1448 350v-8h258v295h-8z" />
    <glyph glyph-name="questiondown" unicode="&#xbf;" horiz-adv-x="962" 
d="M670 854q0 -57 -41 -98t-101 -41q-57 0 -98 41t-41 98t41 98t98 41t99.5 -41t42.5 -98zM588 301q-160 -66 -236 -153t-76 -205q0 -119 82 -193t215 -74q181 0 304 123l55 -57q-170 -221 -422 -221q-186 0 -312 107.5t-126 275.5q0 286 403 456v213h113v-272z" />
    <glyph glyph-name="Agrave" unicode="&#xc0;" horiz-adv-x="1423" 
d="M698 1833l107 -293h-88l-262 287v6h243zM1247 266q50 -122 80 -162q31 -42 94 -51v-53h-467v53q103 9 103 88q0 37 -29 113l-78 192h-569l-76 -194q-29 -79 -29 -113q0 -39 27 -59.5t88 -26.5v-53h-383v53q67 7 101.5 48.5t74.5 150.5l461 1171h121zM655 1141l-231 -586
h481l-237 586h-13z" />
    <glyph glyph-name="Aacute" unicode="&#xc1;" horiz-adv-x="1423" 
d="M961 1833v-6l-265 -287h-84l105 293h244zM1247 266q50 -122 80 -162q31 -42 94 -51v-53h-467v53q103 9 103 88q0 37 -29 113l-78 192h-569l-76 -194q-29 -79 -29 -113q0 -39 27 -59.5t88 -26.5v-53h-383v53q67 7 101.5 48.5t74.5 150.5l461 1171h121zM655 1141l-231 -586
h481l-237 586h-13z" />
    <glyph glyph-name="Acircumflex" unicode="&#xc2;" horiz-adv-x="1423" 
d="M901 1540l-190 141l-197 -141h-98l237 293h115l238 -293h-105zM1247 266q50 -122 80 -162q31 -42 94 -51v-53h-467v53q103 9 103 88q0 37 -29 113l-78 192h-569l-76 -194q-29 -79 -29 -113q0 -39 27 -59.5t88 -26.5v-53h-383v53q67 7 101.5 48.5t74.5 150.5l461 1171h121
zM655 1141l-231 -586h481l-237 586h-13z" />
    <glyph glyph-name="Atilde" unicode="&#xc3;" horiz-adv-x="1423" 
d="M461 1559h-80q7 119 60.5 182t131.5 63q41 0 73.5 -13t76.5 -44l37 -27q31 -23 50.5 -31t45.5 -8q38 0 61 27.5t37 89.5h80q-7 -120 -60 -184t-134 -64q-70 0 -148 60l-37 26q-49 39 -96 39q-39 0 -62.5 -27.5t-35.5 -88.5zM1247 266q50 -122 80 -162q31 -42 94 -51v-53
h-467v53q103 9 103 88q0 37 -29 113l-78 192h-569l-76 -194q-29 -79 -29 -113q0 -39 27 -59.5t88 -26.5v-53h-383v53q67 7 101.5 48.5t74.5 150.5l461 1171h121zM655 1141l-231 -586h481l-237 586h-13z" />
    <glyph glyph-name="Adieresis" unicode="&#xc4;" horiz-adv-x="1423" 
d="M389 1696q0 54 37.5 90.5t91.5 36.5q51 0 88 -38t37 -89q0 -56 -35.5 -92.5t-89.5 -36.5t-91.5 37t-37.5 92zM774 1696q0 54 36.5 90.5t90.5 36.5q51 0 88 -38t37 -89q0 -56 -35.5 -92.5t-89.5 -36.5t-90.5 37t-36.5 92zM1247 266q50 -122 80 -162q31 -42 94 -51v-53
h-467v53q103 9 103 88q0 37 -29 113l-78 192h-569l-76 -194q-29 -79 -29 -113q0 -39 27 -59.5t88 -26.5v-53h-383v53q67 7 101.5 48.5t74.5 150.5l461 1171h121zM655 1141l-231 -586h481l-237 586h-13z" />
    <glyph glyph-name="Aring" unicode="&#xc5;" horiz-adv-x="1423" 
d="M508 1698q0 80 58.5 137t140.5 57q81 0 138.5 -57t57.5 -137q0 -82 -57 -138.5t-139 -56.5q-84 0 -141.5 56.5t-57.5 138.5zM600 1698q0 -49 31 -80t76 -31q47 0 75.5 30.5t28.5 80.5q0 47 -29.5 77.5t-74.5 30.5t-76 -30.5t-31 -77.5zM1247 266q50 -122 80 -162
q31 -42 94 -51v-53h-467v53q103 9 103 88q0 37 -29 113l-78 192h-569l-76 -194q-29 -79 -29 -113q0 -39 27 -59.5t88 -26.5v-53h-383v53q67 7 101.5 48.5t74.5 150.5l461 1171h121zM655 1141l-231 -586h481l-237 586h-13z" />
    <glyph glyph-name="AE" unicode="&#xc6;" horiz-adv-x="1845" 
d="M1759 358v-358h-1020v53q42 8 63 15.5t38 28t22.5 54.5t5.5 93v202h-452l-111 -206q-45 -77 -45 -117q0 -51 86 -70v-53h-377v53q69 23 120.5 73t98.5 140l629 1157h901v-307h-57q-12 110 -80 154.5t-223 44.5h-285v-541h199q122 0 176 35.5t59 114.5h56v-408h-56
q-5 81 -58 115.5t-179 34.5h-197v-557h332q141 0 213 56.5t84 192.5h57zM856 1262l-381 -707h393v707h-12z" />
    <glyph glyph-name="Ccedilla" unicode="&#xc7;" horiz-adv-x="1413" 
d="M809 -25l-31 -79l4 -2q21 6 52 6q64 0 105.5 -38t41.5 -104q0 -74 -59.5 -125t-149.5 -51q-120 0 -217 109l37 41q68 -62 143 -62q54 0 85.5 23.5t31.5 64.5q0 35 -24.5 54.5t-63.5 19.5q-40 0 -76 -22l-6 4l61 166q-132 10 -250.5 66.5t-207.5 149t-140.5 225.5
t-50.5 286q-2 130 37.5 248t111.5 207.5t166.5 155t206.5 99t228 31.5q240 0 422 -102v-310h-58q-100 299 -368 299q-145 0 -262 -76.5t-182.5 -212.5t-65.5 -305q0 -183 74 -320t200.5 -207.5t286.5 -70.5q247 0 442 174l51 -51q-117 -149 -252.5 -220t-310.5 -71h-12z" />
    <glyph glyph-name="Egrave" unicode="&#xc8;" horiz-adv-x="1292" 
d="M694 1833l107 -293h-88l-262 287v6h243zM1210 358v-358h-1101v53q82 15 106.5 50t24.5 147v928q0 115 -23.5 149t-107.5 43v53h1060v-307h-57q-10 110 -77.5 154.5t-221.5 44.5h-369v-541h273q126 0 180 35.5t59 114.5h58v-408h-58q-5 82 -58.5 116t-180.5 34h-273v-557
h414q140 0 211.5 57t83.5 192h57z" />
    <glyph glyph-name="Eacute" unicode="&#xc9;" horiz-adv-x="1292" 
d="M692 1540h-84l105 293h243v-6zM1210 358v-358h-1101v53q82 15 106.5 50t24.5 147v928q0 115 -23.5 149t-107.5 43v53h1060v-307h-57q-10 110 -77.5 154.5t-221.5 44.5h-369v-541h273q126 0 180 35.5t59 114.5h58v-408h-58q-5 82 -58.5 116t-180.5 34h-273v-557h414
q140 0 211.5 57t83.5 192h57z" />
    <glyph glyph-name="Ecircumflex" unicode="&#xca;" horiz-adv-x="1292" 
d="M510 1540h-98l237 293h115l237 -293h-104l-190 141zM1210 358v-358h-1101v53q82 15 106.5 50t24.5 147v928q0 115 -23.5 149t-107.5 43v53h1060v-307h-57q-10 110 -77.5 154.5t-221.5 44.5h-369v-541h273q126 0 180 35.5t59 114.5h58v-408h-58q-5 82 -58.5 116t-180.5 34
h-273v-557h414q140 0 211.5 57t83.5 192h57z" />
    <glyph glyph-name="Edieresis" unicode="&#xcb;" horiz-adv-x="1292" 
d="M385 1696q0 54 37.5 90.5t91.5 36.5q51 0 88 -38t37 -89q0 -56 -35.5 -92.5t-89.5 -36.5t-91.5 37t-37.5 92zM770 1696q0 54 36.5 90.5t90.5 36.5q51 0 88 -38t37 -89q0 -56 -35.5 -92.5t-89.5 -36.5t-90.5 37t-36.5 92zM1210 358v-358h-1101v53q82 15 106.5 50t24.5 147
v928q0 115 -23.5 149t-107.5 43v53h1060v-307h-57q-10 110 -77.5 154.5t-221.5 44.5h-369v-541h273q126 0 180 35.5t59 114.5h58v-408h-58q-5 82 -58.5 116t-180.5 34h-273v-557h414q140 0 211.5 57t83.5 192h57z" />
    <glyph glyph-name="Igrave" unicode="&#xcc;" horiz-adv-x="681" 
d="M336 1833l106 -293h-88l-262 287v6h244zM111 53q81 12 106 47.5t25 147.5v930q0 112 -25.5 147.5t-105.5 44.5v53h464v-53q-80 -9 -104.5 -44t-24.5 -148v-930q0 -113 24 -148t105 -47v-53h-464v53z" />
    <glyph glyph-name="Iacute" unicode="&#xcd;" horiz-adv-x="681" 
d="M334 1540h-84l104 293h244v-6zM111 53q81 12 106 47.5t25 147.5v930q0 112 -25.5 147.5t-105.5 44.5v53h464v-53q-80 -9 -104.5 -44t-24.5 -148v-930q0 -113 24 -148t105 -47v-53h-464v53z" />
    <glyph glyph-name="Icircumflex" unicode="&#xce;" horiz-adv-x="681" 
d="M150 1540h-99l238 293h114l238 -293h-104l-191 141zM111 53q81 12 106 47.5t25 147.5v930q0 112 -25.5 147.5t-105.5 44.5v53h464v-53q-80 -9 -104.5 -44t-24.5 -148v-930q0 -113 24 -148t105 -47v-53h-464v53z" />
    <glyph glyph-name="Idieresis" unicode="&#xcf;" horiz-adv-x="681" 
d="M27 1696q0 54 37.5 90.5t91.5 36.5q51 0 88 -38t37 -89q0 -56 -35.5 -92.5t-89.5 -36.5t-91.5 37t-37.5 92zM412 1696q0 54 36.5 90.5t90.5 36.5q51 0 88 -38t37 -89q0 -56 -35.5 -92.5t-89.5 -36.5t-90.5 37t-36.5 92zM111 53q81 12 106 47.5t25 147.5v930
q0 112 -25.5 147.5t-105.5 44.5v53h464v-53q-80 -9 -104.5 -44t-24.5 -148v-930q0 -113 24 -148t105 -47v-53h-464v53z" />
    <glyph glyph-name="Eth" unicode="&#xd0;" horiz-adv-x="1576" 
d="M702 1423q170 2 316.5 -49.5t249.5 -144.5t160 -225.5t55 -286.5q0 -210 -97.5 -373t-275.5 -253.5t-408 -90.5h-577v53q88 15 109.5 52t21.5 163v412h-201v102h201v392q0 63 -5 98.5t-22.5 56t-38.5 27.5t-65 14v53h577zM651 109q285 0 440.5 158t155.5 450
q0 288 -155.5 443t-440.5 155h-190v-533h278v-102h-278v-571h190z" />
    <glyph glyph-name="Ntilde" unicode="&#xd1;" horiz-adv-x="1560" 
d="M778 1610l-37 26q-49 39 -96 39q-39 0 -62.5 -27.5t-35.5 -88.5h-80q7 119 60.5 182t131.5 63q41 0 73.5 -13t76.5 -44l37 -27q31 -23 50.5 -31t45.5 -8q38 0 61 27.5t37 89.5h80q-7 -120 -60 -184t-134 -64q-70 0 -148 60zM106 53q82 12 106 48.5t24 148.5v1040l-95 123
v10h299l762 -1079h12v834q0 114 -24 148.5t-103 43.5v53h375v-53q-80 -9 -104.5 -44t-24.5 -148v-1178h-141l-825 1167h-13v-917q0 -113 23.5 -149t105.5 -48v-53h-377v53z" />
    <glyph glyph-name="Ograve" unicode="&#xd2;" horiz-adv-x="1613" 
d="M801 1833l106 -293h-88l-262 287v6h244zM94 711q-2 154 52 291.5t148.5 236.5t228.5 155.5t284 53.5q152 2 285.5 -54t227.5 -154.5t147.5 -236t52.5 -292.5q1 -155 -52.5 -292t-147.5 -235.5t-227.5 -154.5t-285.5 -54q-150 -2 -284 54.5t-228.5 155t-148.5 235.5
t-52 291zM1284 711q0 279 -131 450.5t-346 171.5q-212 0 -343.5 -172t-131.5 -450q0 -279 131 -450t344 -171q215 0 346 170.5t131 450.5z" />
    <glyph glyph-name="Oacute" unicode="&#xd3;" horiz-adv-x="1613" 
d="M797 1540h-84l104 293h244v-6zM94 711q-2 154 52 291.5t148.5 236.5t228.5 155.5t284 53.5q152 2 285.5 -54t227.5 -154.5t147.5 -236t52.5 -292.5q1 -155 -52.5 -292t-147.5 -235.5t-227.5 -154.5t-285.5 -54q-150 -2 -284 54.5t-228.5 155t-148.5 235.5t-52 291z
M1284 711q0 279 -131 450.5t-346 171.5q-212 0 -343.5 -172t-131.5 -450q0 -279 131 -450t344 -171q215 0 346 170.5t131 450.5z" />
    <glyph glyph-name="Ocircumflex" unicode="&#xd4;" horiz-adv-x="1613" 
d="M614 1540h-98l238 293h114l238 -293h-105l-190 141zM94 711q-2 154 52 291.5t148.5 236.5t228.5 155.5t284 53.5q152 2 285.5 -54t227.5 -154.5t147.5 -236t52.5 -292.5q1 -155 -52.5 -292t-147.5 -235.5t-227.5 -154.5t-285.5 -54q-150 -2 -284 54.5t-228.5 155
t-148.5 235.5t-52 291zM1284 711q0 279 -131 450.5t-346 171.5q-212 0 -343.5 -172t-131.5 -450q0 -279 131 -450t344 -171q215 0 346 170.5t131 450.5z" />
    <glyph glyph-name="Otilde" unicode="&#xd5;" horiz-adv-x="1613" 
d="M793 1610l-37 26q-49 39 -97 39q-39 0 -62.5 -27.5t-35.5 -88.5h-80q7 118 60.5 181.5t132.5 63.5q41 0 73 -13t76 -44l37 -27q31 -23 50.5 -31t45.5 -8q38 0 62 28t37 89h80q-7 -119 -60.5 -183.5t-134.5 -64.5q-69 0 -147 60zM94 711q-2 154 52 291.5t148.5 236.5
t228.5 155.5t284 53.5q152 2 285.5 -54t227.5 -154.5t147.5 -236t52.5 -292.5q1 -155 -52.5 -292t-147.5 -235.5t-227.5 -154.5t-285.5 -54q-150 -2 -284 54.5t-228.5 155t-148.5 235.5t-52 291zM1284 711q0 279 -131 450.5t-346 171.5q-212 0 -343.5 -172t-131.5 -450
q0 -279 131 -450t344 -171q215 0 346 170.5t131 450.5z" />
    <glyph glyph-name="Odieresis" unicode="&#xd6;" horiz-adv-x="1613" 
d="M492 1696q0 54 37.5 90.5t91.5 36.5q51 0 87.5 -38t36.5 -89q0 -56 -35 -92.5t-89 -36.5t-91.5 37t-37.5 92zM877 1696q0 54 36.5 90.5t90.5 36.5q51 0 87.5 -38t36.5 -89q0 -56 -35 -92.5t-89 -36.5t-90.5 37t-36.5 92zM94 711q-2 154 52 291.5t148.5 236.5t228.5 155.5
t284 53.5q152 2 285.5 -54t227.5 -154.5t147.5 -236t52.5 -292.5q1 -155 -52.5 -292t-147.5 -235.5t-227.5 -154.5t-285.5 -54q-150 -2 -284 54.5t-228.5 155t-148.5 235.5t-52 291zM1284 711q0 279 -131 450.5t-346 171.5q-212 0 -343.5 -172t-131.5 -450q0 -279 131 -450
t344 -171q215 0 346 170.5t131 450.5z" />
    <glyph glyph-name="multiply" unicode="&#xd7;" horiz-adv-x="1001" 
d="M580 487l331 -333l-80 -78l-331 332l-332 -332l-76 76l332 333l-332 332l80 78l330 -332l329 330l78 -76z" />
    <glyph glyph-name="Oslash" unicode="&#xd8;" horiz-adv-x="1619" 
d="M1307 1255q104 -98 160.5 -239t56.5 -305q1 -155 -52.5 -292t-147.5 -235.5t-227.5 -154.5t-285.5 -54q-237 0 -418 129l-153 -192l-78 61l153 195q-104 101 -160.5 240.5t-56.5 302.5q-2 154 52 291.5t148.5 236.5t228.5 155.5t284 53.5q239 0 420 -129l151 190l78 -61z
M430 311l700 883q-127 139 -319 139q-216 0 -345.5 -171t-129.5 -451q0 -234 94 -400zM1288 711q0 233 -96 399l-700 -881q124 -139 319 -139q215 0 346 170.5t131 450.5z" />
    <glyph glyph-name="Ugrave" unicode="&#xd9;" horiz-adv-x="1554" 
d="M801 1833l106 -293h-88l-262 287v6h244zM215 573v605q0 80 -11 117t-36 51.5t-82 23.5v53h465v-53q-35 -5 -55 -11.5t-36.5 -18t-24 -32.5t-11.5 -51.5t-4 -78.5v-596q0 -214 105 -332.5t294 -118.5q185 0 293.5 117.5t108.5 326.5v601q0 115 -23.5 150t-105.5 44v53h376
v-53q-82 -9 -105.5 -45.5t-23.5 -153.5v-593q0 -277 -149 -440t-410 -163q-265 0 -415 159.5t-150 438.5z" />
    <glyph glyph-name="Uacute" unicode="&#xda;" horiz-adv-x="1554" 
d="M799 1540h-84l104 293h244v-6zM215 573v605q0 80 -11 117t-36 51.5t-82 23.5v53h465v-53q-35 -5 -55 -11.5t-36.5 -18t-24 -32.5t-11.5 -51.5t-4 -78.5v-596q0 -214 105 -332.5t294 -118.5q185 0 293.5 117.5t108.5 326.5v601q0 115 -23.5 150t-105.5 44v53h376v-53
q-82 -9 -105.5 -45.5t-23.5 -153.5v-593q0 -277 -149 -440t-410 -163q-265 0 -415 159.5t-150 438.5z" />
    <glyph glyph-name="Ucircumflex" unicode="&#xdb;" horiz-adv-x="1554" 
d="M616 1540h-98l238 293h114l238 -293h-104l-191 141zM215 573v605q0 80 -11 117t-36 51.5t-82 23.5v53h465v-53q-35 -5 -55 -11.5t-36.5 -18t-24 -32.5t-11.5 -51.5t-4 -78.5v-596q0 -214 105 -332.5t294 -118.5q185 0 293.5 117.5t108.5 326.5v601q0 115 -23.5 150
t-105.5 44v53h376v-53q-82 -9 -105.5 -45.5t-23.5 -153.5v-593q0 -277 -149 -440t-410 -163q-265 0 -415 159.5t-150 438.5z" />
    <glyph glyph-name="Udieresis" unicode="&#xdc;" horiz-adv-x="1554" 
d="M492 1696q0 54 37.5 90.5t91.5 36.5q51 0 87.5 -38t36.5 -89q0 -56 -35 -92.5t-89 -36.5t-91.5 37t-37.5 92zM877 1696q0 54 36.5 90.5t90.5 36.5q51 0 87.5 -38t36.5 -89q0 -56 -35 -92.5t-89 -36.5t-90.5 37t-36.5 92zM215 573v605q0 80 -11 117t-36 51.5t-82 23.5v53
h465v-53q-35 -5 -55 -11.5t-36.5 -18t-24 -32.5t-11.5 -51.5t-4 -78.5v-596q0 -214 105 -332.5t294 -118.5q185 0 293.5 117.5t108.5 326.5v601q0 115 -23.5 150t-105.5 44v53h376v-53q-82 -9 -105.5 -45.5t-23.5 -153.5v-593q0 -277 -149 -440t-410 -163q-265 0 -415 159.5
t-150 438.5z" />
    <glyph glyph-name="Yacute" unicode="&#xdd;" horiz-adv-x="1396" 
d="M987 1833v-6l-264 -287h-84l104 293h244zM1014 1423h379v-53q-76 -18 -122 -60t-110 -141l-356 -569v-350q0 -113 23.5 -147.5t105.5 -49.5v-53h-465v53q44 7 67 16.5t39 31.5t20.5 55.5t4.5 93.5v330l-367 602q-52 93 -94 132t-112 56v53h475v-53q-74 -21 -74 -70
q0 -41 55 -135l260 -432h13l268 432q59 95 59 138q0 25 -16 41t-53 26v53z" />
    <glyph glyph-name="Thorn" unicode="&#xde;" horiz-adv-x="1236" 
d="M629 1126q242 0 388 -110.5t146 -300.5q0 -189 -148 -303.5t-386 -114.5h-183v-49q0 -113 24 -148t105 -47v-53h-464v53q81 12 106 47.5t25 147.5v930q0 112 -25.5 147.5t-105.5 44.5v53h464v-53q-80 -9 -104.5 -44t-24.5 -148v-52h183zM584 403q169 0 261.5 80t92.5 232
q0 150 -92 227.5t-262 77.5h-138v-617h138z" />
    <glyph glyph-name="germandbls" unicode="&#xdf;" horiz-adv-x="1138" 
d="M461 18l26 78q43 -18 99 -18q117 0 189.5 85.5t72.5 225.5q0 156 -92.5 240.5t-255.5 89.5v96q126 5 202 88t76 223q0 116 -51 183t-143 67q-106 0 -161.5 -69.5t-55.5 -204.5v-1102h-279v53q59 9 73.5 34t14.5 116v835q0 203 112 322t304 119q173 0 280 -95t107 -249
q0 -131 -84.5 -228t-226.5 -129v-12q179 -25 285 -129t106 -258q0 -183 -122 -292.5t-302 -109.5q-87 0 -174 41z" />
    <glyph glyph-name="agrave" unicode="&#xe0;" horiz-adv-x="1013" 
d="M463 1419l106 -293h-88l-260 285v8h242zM985 53q-85 -73 -192 -73q-68 0 -113 41.5t-45 111.5v8h-14q-111 -166 -287 -166q-104 0 -175 67t-71 169q0 106 81 171.5t251 111.5l211 59v84q0 107 -55 162t-154 55q-137 0 -283 -94l-41 55q85 82 185.5 130t201.5 48
q152 0 243 -92t91 -266v-457q0 -92 68 -92q33 0 67 18zM631 268v195l-152 -53q-107 -40 -151.5 -75t-44.5 -93q0 -59 38.5 -94t96.5 -35q63 0 117.5 42.5t95.5 112.5z" />
    <glyph glyph-name="aacute" unicode="&#xe1;" horiz-adv-x="1013" 
d="M733 1419v-8l-264 -285h-84l104 293h244zM985 53q-85 -73 -192 -73q-68 0 -113 41.5t-45 111.5v8h-14q-111 -166 -287 -166q-104 0 -175 67t-71 169q0 106 81 171.5t251 111.5l211 59v84q0 107 -55 162t-154 55q-137 0 -283 -94l-41 55q85 82 185.5 130t201.5 48
q152 0 243 -92t91 -266v-457q0 -92 68 -92q33 0 67 18zM631 268v195l-152 -53q-107 -40 -151.5 -75t-44.5 -93q0 -59 38.5 -94t96.5 -35q63 0 117.5 42.5t95.5 112.5z" />
    <glyph glyph-name="acircumflex" unicode="&#xe2;" horiz-adv-x="1013" 
d="M668 1126l-191 142l-196 -142h-99l238 293h115l237 -293h-104zM985 53q-85 -73 -192 -73q-68 0 -113 41.5t-45 111.5v8h-14q-111 -166 -287 -166q-104 0 -175 67t-71 169q0 106 81 171.5t251 111.5l211 59v84q0 107 -55 162t-154 55q-137 0 -283 -94l-41 55
q85 82 185.5 130t201.5 48q152 0 243 -92t91 -266v-457q0 -92 68 -92q33 0 67 18zM631 268v195l-152 -53q-107 -40 -151.5 -75t-44.5 -93q0 -59 38.5 -94t96.5 -35q63 0 117.5 42.5t95.5 112.5z" />
    <glyph glyph-name="atilde" unicode="&#xe3;" horiz-adv-x="1013" 
d="M231 1143h-81q7 119 60 182.5t134 63.5q39 0 71.5 -13.5t76.5 -44.5l36 -26q32 -23 51.5 -31t45.5 -8q38 0 61.5 27.5t36.5 88.5h80q-7 -119 -61 -183t-132 -64q-72 0 -149 59l-37 27q-49 39 -94 39q-41 0 -65 -28t-34 -89zM985 53q-85 -73 -192 -73q-68 0 -113 41.5
t-45 111.5v8h-14q-111 -166 -287 -166q-104 0 -175 67t-71 169q0 106 81 171.5t251 111.5l211 59v84q0 107 -55 162t-154 55q-137 0 -283 -94l-41 55q85 82 185.5 130t201.5 48q152 0 243 -92t91 -266v-457q0 -92 68 -92q33 0 67 18zM631 268v195l-152 -53
q-107 -40 -151.5 -75t-44.5 -93q0 -59 38.5 -94t96.5 -35q63 0 117.5 42.5t95.5 112.5z" />
    <glyph glyph-name="adieresis" unicode="&#xe4;" horiz-adv-x="1013" 
d="M156 1280q0 54 37.5 90.5t91.5 36.5q51 0 88 -38t37 -89q0 -56 -35.5 -92.5t-89.5 -36.5t-91.5 37t-37.5 92zM541 1280q0 54 36.5 90.5t90.5 36.5q51 0 88 -38t37 -89q0 -56 -35.5 -92.5t-89.5 -36.5t-90.5 37t-36.5 92zM985 53q-85 -73 -192 -73q-68 0 -113 41.5
t-45 111.5v8h-14q-111 -166 -287 -166q-104 0 -175 67t-71 169q0 106 81 171.5t251 111.5l211 59v84q0 107 -55 162t-154 55q-137 0 -283 -94l-41 55q85 82 185.5 130t201.5 48q152 0 243 -92t91 -266v-457q0 -92 68 -92q33 0 67 18zM631 268v195l-152 -53
q-107 -40 -151.5 -75t-44.5 -93q0 -59 38.5 -94t96.5 -35q63 0 117.5 42.5t95.5 112.5z" />
    <glyph glyph-name="aring" unicode="&#xe5;" horiz-adv-x="1013" 
d="M279 1280q0 80 58 137.5t140 57.5q81 0 139 -57.5t58 -137.5q0 -82 -57.5 -138.5t-139.5 -56.5q-84 0 -141 56.5t-57 138.5zM371 1280q0 -49 30.5 -79t75.5 -30q47 0 76 30t29 79q0 47 -30 78t-75 31t-75.5 -31t-30.5 -78zM985 53q-85 -73 -192 -73q-68 0 -113 41.5
t-45 111.5v8h-14q-111 -166 -287 -166q-104 0 -175 67t-71 169q0 106 81 171.5t251 111.5l211 59v84q0 107 -55 162t-154 55q-137 0 -283 -94l-41 55q85 82 185.5 130t201.5 48q152 0 243 -92t91 -266v-457q0 -92 68 -92q33 0 67 18zM631 268v195l-152 -53
q-107 -40 -151.5 -75t-44.5 -93q0 -59 38.5 -94t96.5 -35q63 0 117.5 42.5t95.5 112.5z" />
    <glyph glyph-name="ae" unicode="&#xe6;" horiz-adv-x="1564" 
d="M1509 182q-162 -207 -395 -207q-130 0 -236 61t-163 169h-13q-143 -230 -364 -230q-109 0 -179.5 67.5t-70.5 172.5q0 102 79 166.5t241 110.5l223 61v84q0 108 -55.5 162.5t-157.5 54.5q-130 0 -279 -94l-41 55q81 81 183.5 129.5t203.5 48.5q193 0 275 -141h12
q60 68 141.5 104.5t173.5 36.5q173 0 276 -101.5t103 -283.5v-61h-643q1 -195 99 -304.5t260 -109.5q161 0 280 96zM829 643h449q-1 115 -56 181.5t-149 66.5q-95 0 -160 -65.5t-84 -182.5zM631 270v193l-158 -55q-105 -39 -147.5 -74t-42.5 -92q0 -59 38 -94t95 -35
q126 0 215 157z" />
    <glyph glyph-name="ccedilla" unicode="&#xe7;" horiz-adv-x="970" 
d="M557 -25l-29 -79l4 -2q21 6 52 6q62 0 104.5 -38.5t42.5 -103.5q0 -74 -59.5 -125t-149.5 -51q-124 0 -217 109l37 41q65 -62 143 -62q54 0 85.5 23.5t31.5 64.5q0 34 -25 54t-63 20q-40 0 -76 -22l-8 4l62 166q-180 25 -294 162t-114 331q0 223 142 371.5t358 148.5
q149 0 264 -59v-225h-55q-19 82 -75.5 131t-135.5 49q-138 0 -220 -105q-81 -103 -81 -264q0 -180 93.5 -283.5t248.5 -103.5q152 0 274 96l47 -47q-165 -207 -381 -207h-6z" />
    <glyph glyph-name="egrave" unicode="&#xe8;" horiz-adv-x="1013" 
d="M514 1419l107 -293h-89l-260 285v8h242zM958 182q-88 -106 -181 -156.5t-210 -50.5q-101 0 -189.5 36.5t-153.5 102t-102.5 162t-37.5 209.5q0 217 129 362.5t324 145.5q170 0 273 -102t103 -283v-61h-641q0 -195 97.5 -304.5t263.5 -109.5q85 0 149.5 23t128.5 73z
M279 643h446q-2 113 -57 180.5t-148 67.5q-96 0 -159 -65t-82 -183z" />
    <glyph glyph-name="eacute" unicode="&#xe9;" horiz-adv-x="1013" 
d="M784 1419v-8l-264 -285h-84l105 293h243zM958 182q-88 -106 -181 -156.5t-210 -50.5q-101 0 -189.5 36.5t-153.5 102t-102.5 162t-37.5 209.5q0 217 129 362.5t324 145.5q170 0 273 -102t103 -283v-61h-641q0 -195 97.5 -304.5t263.5 -109.5q85 0 149.5 23t128.5 73z
M279 643h446q-2 113 -57 180.5t-148 67.5q-96 0 -159 -65t-82 -183z" />
    <glyph glyph-name="ecircumflex" unicode="&#xea;" horiz-adv-x="1013" 
d="M719 1126l-191 142l-196 -142h-99l238 293h115l237 -293h-104zM958 182q-88 -106 -181 -156.5t-210 -50.5q-101 0 -189.5 36.5t-153.5 102t-102.5 162t-37.5 209.5q0 217 129 362.5t324 145.5q170 0 273 -102t103 -283v-61h-641q0 -195 97.5 -304.5t263.5 -109.5
q85 0 149.5 23t128.5 73zM279 643h446q-2 113 -57 180.5t-148 67.5q-96 0 -159 -65t-82 -183z" />
    <glyph glyph-name="edieresis" unicode="&#xeb;" horiz-adv-x="1013" 
d="M207 1280q0 54 37.5 90.5t91.5 36.5q51 0 88 -38t37 -89q0 -56 -35.5 -92.5t-89.5 -36.5t-91.5 37t-37.5 92zM592 1280q0 54 36.5 90.5t90.5 36.5q51 0 88 -38t37 -89q0 -56 -35.5 -92.5t-89.5 -36.5t-90.5 37t-36.5 92zM958 182q-88 -106 -181 -156.5t-210 -50.5
q-101 0 -189.5 36.5t-153.5 102t-102.5 162t-37.5 209.5q0 217 129 362.5t324 145.5q170 0 273 -102t103 -283v-61h-641q0 -195 97.5 -304.5t263.5 -109.5q85 0 149.5 23t128.5 73zM279 643h446q-2 113 -57 180.5t-148 67.5q-96 0 -159 -65t-82 -183z" />
    <glyph glyph-name="igrave" unicode="&#xec;" horiz-adv-x="557" 
d="M270 1419l107 -293h-88l-260 285v8h241zM381 209q0 -93 14.5 -120t71.5 -36v-53h-365v53q58 9 73 36t15 120v549q0 72 -19.5 92.5t-82.5 26.5v53l279 49h14v-770z" />
    <glyph glyph-name="iacute" unicode="&#xed;" horiz-adv-x="557" 
d="M272 1126h-84l105 293h244v-8zM379 209q0 -93 14.5 -120t71.5 -36v-53h-365v53q58 9 73 36t15 120v549q0 72 -19 92.5t-83 26.5v53l281 49h12v-770z" />
    <glyph glyph-name="icircumflex" unicode="&#xee;" horiz-adv-x="557" 
d="M84 1126h-98l237 293h115l237 -293h-104l-190 142zM381 209q0 -93 14.5 -120t71.5 -36v-53h-365v53q58 9 73 36t15 120v549q0 72 -19.5 92.5t-82.5 26.5v53l279 49h14v-770z" />
    <glyph glyph-name="idieresis" unicode="&#xef;" horiz-adv-x="557" 
d="M-39 1280q0 54 37.5 90.5t91.5 36.5q51 0 88 -38t37 -89q0 -56 -35.5 -92.5t-89.5 -36.5t-91.5 37t-37.5 92zM346 1280q0 54 36.5 90.5t90.5 36.5q51 0 88 -38t37 -89q0 -56 -35.5 -92.5t-89.5 -36.5t-90.5 37t-36.5 92zM381 209q0 -93 14.5 -120t71.5 -36v-53h-365v53
q58 9 73 36t15 120v549q0 72 -19.5 92.5t-82.5 26.5v53l279 49h14v-770z" />
    <glyph glyph-name="eth" unicode="&#xf0;" horiz-adv-x="1175" 
d="M821 1264q250 -231 250 -611q1 -136 -36.5 -260.5t-104.5 -217.5t-166.5 -147.5t-214.5 -52.5q-198 0 -331.5 149t-133.5 372q0 211 133.5 354t321.5 143q108 0 193.5 -57t141.5 -164h13q-21 268 -185 438l-325 -143l-39 80l293 129q-93 75 -244 131l29 72
q191 -53 327 -152l209 92l37 -82zM858 639q-32 97 -106 160t-170 63q-132 0 -217.5 -106t-85.5 -283q0 -171 78.5 -286t199.5 -115q137 0 219 129t82 362v76z" />
    <glyph glyph-name="ntilde" unicode="&#xf1;" horiz-adv-x="1155" 
d="M578 1194l-37 27q-49 39 -95 39q-41 0 -64 -27.5t-34 -89.5h-82q7 119 60.5 182.5t134.5 63.5q39 0 71 -13.5t76 -44.5l37 -26q33 -24 51.5 -31.5t44.5 -7.5q38 0 62 27.5t37 88.5h80q-7 -119 -61 -183t-132 -64q-72 0 -149 59zM190 758q0 72 -19 92.5t-83 26.5v53
l281 49h12v-160h12q61 88 131 131t160 43q139 0 223 -94t84 -264v-428q0 -92 15 -118.5t73 -35.5v-53h-366v53q58 9 73 35.5t15 118.5v426q0 104 -48 161.5t-128 57.5q-145 0 -244 -176v-469q0 -90 15.5 -117.5t70.5 -36.5v-53h-365v53q58 9 73 35.5t15 118.5v551z" />
    <glyph glyph-name="ograve" unicode="&#xf2;" horiz-adv-x="1138" 
d="M557 1419l107 -293h-89l-260 285v8h242zM84 485q0 222 137 365t350 143q211 0 348.5 -143t137.5 -365q0 -221 -137.5 -365.5t-348.5 -144.5q-212 0 -349.5 144.5t-137.5 365.5zM844 485q0 185 -74 291.5t-199 106.5q-128 0 -202 -107t-74 -291q0 -186 73.5 -292.5
t202.5 -106.5q126 0 199.5 106t73.5 293z" />
    <glyph glyph-name="oacute" unicode="&#xf3;" horiz-adv-x="1138" 
d="M563 1126h-84l105 293h243v-8zM84 485q0 222 137 365t350 143q211 0 348.5 -143t137.5 -365q0 -221 -137.5 -365.5t-348.5 -144.5q-212 0 -349.5 144.5t-137.5 365.5zM844 485q0 185 -74 291.5t-199 106.5q-128 0 -202 -107t-74 -291q0 -186 73.5 -292.5t202.5 -106.5
q126 0 199.5 106t73.5 293z" />
    <glyph glyph-name="ocircumflex" unicode="&#xf4;" horiz-adv-x="1138" 
d="M375 1126h-99l238 293h115l237 -293h-104l-191 142zM84 485q0 222 137 365t350 143q211 0 348.5 -143t137.5 -365q0 -221 -137.5 -365.5t-348.5 -144.5q-212 0 -349.5 144.5t-137.5 365.5zM844 485q0 185 -74 291.5t-199 106.5q-128 0 -202 -107t-74 -291
q0 -186 73.5 -292.5t202.5 -106.5q126 0 199.5 106t73.5 293z" />
    <glyph glyph-name="otilde" unicode="&#xf5;" horiz-adv-x="1138" 
d="M555 1194l-37 27q-49 39 -94 39q-41 0 -64 -27.5t-34 -89.5h-82q7 119 60 182.5t134 63.5q39 0 71.5 -13.5t76.5 -44.5l37 -26q33 -24 51.5 -31.5t44.5 -7.5q38 0 61.5 27.5t36.5 88.5h80q-7 -119 -60.5 -183t-131.5 -64q-73 0 -150 59zM84 485q0 222 137 365t350 143
q211 0 348.5 -143t137.5 -365q0 -221 -137.5 -365.5t-348.5 -144.5q-212 0 -349.5 144.5t-137.5 365.5zM844 485q0 185 -74 291.5t-199 106.5q-128 0 -202 -107t-74 -291q0 -186 73.5 -292.5t202.5 -106.5q126 0 199.5 106t73.5 293z" />
    <glyph glyph-name="odieresis" unicode="&#xf6;" horiz-adv-x="1138" 
d="M250 1280q0 54 37.5 90.5t91.5 36.5q51 0 88 -38t37 -89q0 -56 -35.5 -92.5t-89.5 -36.5t-91.5 37t-37.5 92zM635 1280q0 54 36.5 90.5t90.5 36.5q51 0 88 -38t37 -89q0 -56 -35.5 -92.5t-89.5 -36.5t-90.5 37t-36.5 92zM84 485q0 222 137 365t350 143q211 0 348.5 -143
t137.5 -365q0 -221 -137.5 -365.5t-348.5 -144.5q-212 0 -349.5 144.5t-137.5 365.5zM844 485q0 185 -74 291.5t-199 106.5q-128 0 -202 -107t-74 -291q0 -186 73.5 -292.5t202.5 -106.5q126 0 199.5 106t73.5 293z" />
    <glyph glyph-name="divide" unicode="&#xf7;" horiz-adv-x="1163" 
d="M469 829q0 50 33 84.5t82 34.5q47 0 80.5 -35t33.5 -84t-33 -81.5t-81 -32.5q-50 0 -82.5 32.5t-32.5 81.5zM1047 428h-932v111h932v-111zM469 135q0 51 33 85t82 34t81.5 -34t32.5 -85q0 -49 -33.5 -83t-80.5 -34q-49 0 -82 33.5t-33 83.5z" />
    <glyph glyph-name="oslash" unicode="&#xf8;" horiz-adv-x="1148" 
d="M924 854q67 -67 103 -162.5t36 -206.5q0 -221 -137 -365.5t-348 -144.5q-161 0 -277 82l-111 -141l-73 55l112 146q-139 139 -139 368q0 222 137.5 365t350.5 143q160 0 276 -82l109 138l71 -56zM340 256l424 539q-70 88 -186 88q-128 0 -202.5 -107t-74.5 -291
q0 -134 39 -229zM850 485q0 125 -37 226l-422 -539q74 -86 187 -86q126 0 199 106t73 293z" />
    <glyph glyph-name="ugrave" unicode="&#xf9;" horiz-adv-x="1124" 
d="M543 1419l106 -293h-88l-260 285v8h242zM170 311v445q0 82 -19.5 115.5t-74.5 43.5v54h284v-654q0 -96 42 -147t116 -51q72 0 133 49t101 131v461q0 85 -20 117.5t-77 39.5v54h287v-752q0 -77 14 -96t74 -25v-53l-266 -53h-10v155h-15q-49 -78 -122 -124t-162 -46
q-126 0 -205.5 89.5t-79.5 246.5z" />
    <glyph glyph-name="uacute" unicode="&#xfa;" horiz-adv-x="1124" 
d="M549 1126h-84l104 293h244v-8zM170 311v445q0 82 -19.5 115.5t-74.5 43.5v54h284v-654q0 -96 42 -147t116 -51q72 0 133 49t101 131v461q0 85 -20 117.5t-77 39.5v54h287v-752q0 -77 14 -96t74 -25v-53l-266 -53h-10v155h-15q-49 -78 -122 -124t-162 -46
q-126 0 -205.5 89.5t-79.5 246.5z" />
    <glyph glyph-name="ucircumflex" unicode="&#xfb;" horiz-adv-x="1124" 
d="M358 1126h-98l238 293h114l238 -293h-105l-190 142zM170 311v445q0 82 -19.5 115.5t-74.5 43.5v54h284v-654q0 -96 42 -147t116 -51q72 0 133 49t101 131v461q0 85 -20 117.5t-77 39.5v54h287v-752q0 -77 14 -96t74 -25v-53l-266 -53h-10v155h-15q-49 -78 -122 -124
t-162 -46q-126 0 -205.5 89.5t-79.5 246.5z" />
    <glyph glyph-name="udieresis" unicode="&#xfc;" horiz-adv-x="1124" 
d="M236 1280q0 54 37.5 90.5t91.5 36.5q51 0 87.5 -38t36.5 -89q0 -56 -35 -92.5t-89 -36.5t-91.5 37t-37.5 92zM621 1280q0 54 36.5 90.5t90.5 36.5q51 0 87.5 -38t36.5 -89q0 -56 -35 -92.5t-89 -36.5t-90.5 37t-36.5 92zM170 311v445q0 82 -19.5 115.5t-74.5 43.5v54h284
v-654q0 -96 42 -147t116 -51q72 0 133 49t101 131v461q0 85 -20 117.5t-77 39.5v54h287v-752q0 -77 14 -96t74 -25v-53l-266 -53h-10v155h-15q-49 -78 -122 -124t-162 -46q-126 0 -205.5 89.5t-79.5 246.5z" />
    <glyph glyph-name="yacute" unicode="&#xfd;" horiz-adv-x="1040" 
d="M811 1419v-8l-264 -285h-84l104 293h244zM725 969h307v-54q-62 -23 -97.5 -64.5t-66.5 -125.5l-336 -872q-114 -291 -348 -291q-86 0 -135 32v173q69 -29 144 -29q190 0 264 194l20 54l-313 743q-36 88 -67.5 125.5t-90.5 60.5v54h402v-54q-74 -20 -74 -67q0 -32 33 -111
l200 -487h13l186 485q29 82 29 107q0 50 -70 73v54z" />
    <glyph glyph-name="thorn" unicode="&#xfe;" horiz-adv-x="1153" 
d="M180 1243q0 71 -19.5 92.5t-82.5 26.5v53l280 49h13v-645h12q117 174 305 174q175 0 289.5 -134.5t114.5 -346.5q0 -233 -135.5 -385t-333.5 -152q-147 0 -240 78h-12v-264q0 -51 2 -74.5t13.5 -40t27 -21t51.5 -9.5v-54h-373v54q43 6 59.5 17t22.5 37t6 91v1454z
M895 471q0 174 -73 276.5t-197 102.5q-83 0 -148.5 -49.5t-105.5 -132.5v-283q0 -151 63 -230t174 -79q131 0 207 110q80 112 80 285z" />
    <glyph glyph-name="ydieresis" unicode="&#xff;" horiz-adv-x="1040" 
d="M233 1280q0 54 37.5 90.5t91.5 36.5q51 0 88 -38t37 -89q0 -56 -35.5 -92.5t-89.5 -36.5t-91.5 37t-37.5 92zM618 1280q0 54 36.5 90.5t90.5 36.5q51 0 88 -38t37 -89q0 -56 -35.5 -92.5t-89.5 -36.5t-90.5 37t-36.5 92zM725 969h307v-54q-62 -23 -97.5 -64.5
t-66.5 -125.5l-336 -872q-114 -291 -348 -291q-86 0 -135 32v173q69 -29 144 -29q190 0 264 194l20 54l-313 743q-36 88 -67.5 125.5t-90.5 60.5v54h402v-54q-74 -20 -74 -67q0 -32 33 -111l200 -487h13l186 485q29 82 29 107q0 50 -70 73v54z" />
    <glyph glyph-name="Amacron" unicode="&#x100;" horiz-adv-x="1423" 
d="M401 1712h611v-102h-611v102zM1247 266q50 -122 80 -162q31 -42 94 -51v-53h-467v53q103 9 103 88q0 37 -29 113l-78 192h-569l-76 -194q-29 -79 -29 -113q0 -39 27 -59.5t88 -26.5v-53h-383v53q67 7 101.5 48.5t74.5 150.5l461 1171h121zM655 1141l-231 -586h481
l-237 586h-13z" />
    <glyph glyph-name="amacron" unicode="&#x101;" horiz-adv-x="1013" 
d="M174 1296h610v-102h-610v102zM985 53q-85 -73 -192 -73q-68 0 -113 41.5t-45 111.5v8h-14q-111 -166 -287 -166q-104 0 -175 67t-71 169q0 106 81 171.5t251 111.5l211 59v84q0 107 -55 162t-154 55q-137 0 -283 -94l-41 55q85 82 185.5 130t201.5 48q152 0 243 -92
t91 -266v-457q0 -92 68 -92q33 0 67 18zM631 268v195l-152 -53q-107 -40 -151.5 -75t-44.5 -93q0 -59 38.5 -94t96.5 -35q63 0 117.5 42.5t95.5 112.5z" />
    <glyph glyph-name="Abreve" unicode="&#x102;" horiz-adv-x="1423" 
d="M455 1833h84q6 -70 51.5 -112t118.5 -42q74 0 118 40.5t50 113.5h84q-2 -131 -71 -210t-181 -79q-110 0 -179.5 79t-74.5 210zM1247 266q50 -122 80 -162q31 -42 94 -51v-53h-467v53q103 9 103 88q0 37 -29 113l-78 192h-569l-76 -194q-29 -79 -29 -113q0 -39 27 -59.5
t88 -26.5v-53h-383v53q67 7 101.5 48.5t74.5 150.5l461 1171h121zM655 1141l-231 -586h481l-237 586h-13z" />
    <glyph glyph-name="abreve" unicode="&#x103;" horiz-adv-x="1013" 
d="M223 1419h84q6 -72 51.5 -113.5t118.5 -41.5q74 0 118 41t50 114h84q-1 -133 -70 -211t-182 -78q-111 0 -180.5 78t-73.5 211zM985 53q-85 -73 -192 -73q-68 0 -113 41.5t-45 111.5v8h-14q-111 -166 -287 -166q-104 0 -175 67t-71 169q0 106 81 171.5t251 111.5l211 59
v84q0 107 -55 162t-154 55q-137 0 -283 -94l-41 55q85 82 185.5 130t201.5 48q152 0 243 -92t91 -266v-457q0 -92 68 -92q33 0 67 18zM631 268v195l-152 -53q-107 -40 -151.5 -75t-44.5 -93q0 -59 38.5 -94t96.5 -35q63 0 117.5 42.5t95.5 112.5z" />
    <glyph glyph-name="Aogonek" unicode="&#x104;" horiz-adv-x="1423" 
d="M1321 0q-201 -92 -201 -211q0 -49 28.5 -80t78.5 -31q55 0 102 35l35 -41q-70 -88 -176 -88q-83 0 -139 50t-56 128q0 72 54.5 133.5t146.5 104.5h-240v53q103 9 103 88q0 37 -29 113l-78 192h-569l-76 -194q-29 -79 -29 -113q0 -39 27 -59.5t88 -26.5v-53h-383v53
q67 7 101.5 48.5t74.5 150.5l461 1171h121l481 -1157q50 -122 80 -162q31 -42 94 -51v-53h-100zM655 1141l-231 -586h481l-237 586h-13z" />
    <glyph glyph-name="aogonek" unicode="&#x105;" horiz-adv-x="1013" 
d="M922 -281l34 -41q-70 -88 -176 -88q-83 0 -138.5 50t-55.5 129q0 126 159 217q-50 12 -80 51.5t-30 95.5v8h-14q-111 -166 -287 -166q-104 0 -175 67t-71 169q0 106 81 171.5t251 111.5l211 59v84q0 107 -55 162t-154 55q-137 0 -283 -94l-41 55q85 82 185.5 130
t201.5 48q152 0 243 -92t91 -266v-457q0 -92 68 -92q33 0 67 18l31 -51q-33 -29 -72 -47q-200 -92 -200 -211q0 -49 28 -79.5t78 -30.5q57 0 103 34zM631 268v195l-152 -53q-107 -40 -151.5 -75t-44.5 -93q0 -59 38.5 -94t96.5 -35q63 0 117.5 42.5t95.5 112.5z" />
    <glyph glyph-name="Cacute" unicode="&#x106;" horiz-adv-x="1413" 
d="M809 1540h-84l104 293h244v-6zM94 707q-2 130 37.5 248t111.5 207.5t166.5 155t206.5 99t228 31.5q240 0 422 -102v-310h-58q-100 299 -368 299q-145 0 -262 -76.5t-182.5 -212.5t-65.5 -305q0 -183 74 -320t200.5 -207.5t286.5 -70.5q247 0 442 174l51 -51
q-117 -149 -252.5 -220t-310.5 -71q-144 -2 -276 49.5t-233 144.5t-160.5 233.5t-57.5 304.5z" />
    <glyph glyph-name="cacute" unicode="&#x107;" horiz-adv-x="970" 
d="M539 1126h-84l104 293h244v-8zM84 473q0 223 142 371.5t358 148.5q149 0 264 -59v-225h-55q-19 82 -76 131t-135 49q-140 0 -222 -107q-81 -103 -81 -262q0 -178 95 -282.5t249 -104.5q150 0 272 96l49 -47q-165 -207 -381 -207q-207 0 -343 142t-136 356z" />
    <glyph glyph-name="Ccircumflex" unicode="&#x108;" horiz-adv-x="1413" 
d="M625 1540h-99l238 293h115l237 -293h-104l-191 141zM94 707q-2 130 37.5 248t111.5 207.5t166.5 155t206.5 99t228 31.5q240 0 422 -102v-310h-58q-100 299 -368 299q-145 0 -262 -76.5t-182.5 -212.5t-65.5 -305q0 -183 74 -320t200.5 -207.5t286.5 -70.5q247 0 442 174
l51 -51q-117 -149 -252.5 -220t-310.5 -71q-144 -2 -276 49.5t-233 144.5t-160.5 233.5t-57.5 304.5z" />
    <glyph glyph-name="ccircumflex" unicode="&#x109;" horiz-adv-x="970" 
d="M350 1126h-98l237 293h115l238 -293h-105l-190 142zM84 473q0 223 142 371.5t358 148.5q149 0 264 -59v-225h-55q-19 82 -76 131t-135 49q-140 0 -222 -107q-81 -103 -81 -262q0 -178 95 -282.5t249 -104.5q150 0 272 96l49 -47q-165 -207 -381 -207q-207 0 -343 142
t-136 356z" />
    <glyph glyph-name="Cdotaccent" unicode="&#x10a;" horiz-adv-x="1413" 
d="M690 1696q0 54 39 92.5t94 38.5q54 0 92.5 -38.5t38.5 -92.5q0 -57 -38.5 -96t-92.5 -39q-56 0 -94.5 39t-38.5 96zM94 707q-2 130 37.5 248t111.5 207.5t166.5 155t206.5 99t228 31.5q240 0 422 -102v-310h-58q-100 299 -368 299q-145 0 -262 -76.5t-182.5 -212.5
t-65.5 -305q0 -183 74 -320t200.5 -207.5t286.5 -70.5q247 0 442 174l51 -51q-117 -149 -252.5 -220t-310.5 -71q-144 -2 -276 49.5t-233 144.5t-160.5 233.5t-57.5 304.5z" />
    <glyph glyph-name="cdotaccent" unicode="&#x10b;" horiz-adv-x="970" 
d="M416 1280q0 56 39 94.5t94 38.5q54 0 92.5 -39t38.5 -94q0 -56 -38 -94.5t-93 -38.5q-56 0 -94.5 38t-38.5 95zM84 473q0 223 142 371.5t358 148.5q149 0 264 -59v-225h-55q-19 82 -76 131t-135 49q-140 0 -222 -107q-81 -103 -81 -262q0 -178 95 -282.5t249 -104.5
q150 0 272 96l49 -47q-165 -207 -381 -207q-207 0 -343 142t-136 356z" />
    <glyph glyph-name="Ccaron" unicode="&#x10c;" horiz-adv-x="1413" 
d="M1010 1833h100l-240 -293h-114l-236 293h103l190 -141zM94 707q-2 130 37.5 248t111.5 207.5t166.5 155t206.5 99t228 31.5q240 0 422 -102v-310h-58q-100 299 -368 299q-145 0 -262 -76.5t-182.5 -212.5t-65.5 -305q0 -183 74 -320t200.5 -207.5t286.5 -70.5
q247 0 442 174l51 -51q-117 -149 -252.5 -220t-310.5 -71q-144 -2 -276 49.5t-233 144.5t-160.5 233.5t-57.5 304.5z" />
    <glyph glyph-name="ccaron" unicode="&#x10d;" horiz-adv-x="970" 
d="M741 1419h101l-240 -293h-115l-235 293h102l191 -141zM84 473q0 223 142 371.5t358 148.5q149 0 264 -59v-225h-55q-19 82 -76 131t-135 49q-140 0 -222 -107q-81 -103 -81 -262q0 -178 95 -282.5t249 -104.5q150 0 272 96l49 -47q-165 -207 -381 -207q-207 0 -343 142
t-136 356z" />
    <glyph glyph-name="Dcaron" unicode="&#x10e;" horiz-adv-x="1562" 
d="M963 1833h100l-240 -293h-114l-236 293h102l191 -141zM242 1174q0 63 -5 98.5t-22.5 56t-38.5 27.5t-65 14v53h577q227 3 406.5 -86.5t278 -251.5t95.5 -368q0 -210 -97.5 -373t-275 -253.5t-407.5 -90.5h-577v53q88 15 109.5 52t21.5 163v906zM637 109q285 0 440.5 158
t155.5 450q0 288 -155.5 443t-440.5 155h-191v-1206h191z" />
    <glyph glyph-name="dcaron" unicode="&#x10f;" horiz-adv-x="1169" 
d="M1313 1354q0 -50 -39 -115l-100 -178h-80l120 203h-10q-46 0 -78 29t-32 75q0 45 30 76t74 31q51 0 83 -33.5t32 -87.5zM995 217q0 -75 14 -95t74 -26v-53l-266 -53h-10v155h-14q-108 -170 -308 -170q-170 0 -284.5 133t-114.5 349q0 230 134 383t337 153q141 0 236 -80
h14v330q0 71 -20 92t-85 27v53l281 49h12v-1247zM807 590q0 142 -63 222.5t-175 80.5q-129 0 -207.5 -109t-78.5 -286q0 -175 75 -277t199 -102q82 0 147 50t103 128v293z" />
    <glyph glyph-name="Dcroat" unicode="&#x110;" horiz-adv-x="1576" 
d="M702 1423q170 2 316.5 -49.5t249.5 -144.5t160 -225.5t55 -286.5q0 -210 -97.5 -373t-275.5 -253.5t-408 -90.5h-577v53q88 15 109.5 52t21.5 163v412h-201v102h201v392q0 63 -5 98.5t-22.5 56t-38.5 27.5t-65 14v53h577zM651 109q285 0 440.5 158t155.5 450
q0 288 -155.5 443t-440.5 155h-190v-533h278v-102h-278v-571h190z" />
    <glyph glyph-name="dcroat" unicode="&#x111;" horiz-adv-x="1169" 
d="M1137 1102h-142v-885q0 -75 14 -95t74 -26v-53l-266 -53h-10v155h-14q-108 -170 -308 -170q-170 0 -284.5 133t-114.5 349q0 230 134 383t337 153q141 0 236 -80h14v189h-289v94h289v47q0 71 -20 92t-85 27v53l281 49h12v-268h142v-94zM807 590q0 142 -63 222.5
t-175 80.5q-129 0 -207.5 -109t-78.5 -286q0 -175 75 -277t199 -102q82 0 147 50t103 128v293z" />
    <glyph glyph-name="Emacron" unicode="&#x112;" horiz-adv-x="1292" 
d="M1008 1610h-611v102h611v-102zM1210 358v-358h-1101v53q82 15 106.5 50t24.5 147v928q0 115 -23.5 149t-107.5 43v53h1060v-307h-57q-10 110 -77.5 154.5t-221.5 44.5h-369v-541h273q126 0 180 35.5t59 114.5h58v-408h-58q-5 82 -58.5 116t-180.5 34h-273v-557h414
q140 0 211.5 57t83.5 192h57z" />
    <glyph glyph-name="emacron" unicode="&#x113;" horiz-adv-x="1013" 
d="M225 1296h611v-102h-611v102zM958 182q-88 -106 -181 -156.5t-210 -50.5q-101 0 -189.5 36.5t-153.5 102t-102.5 162t-37.5 209.5q0 217 129 362.5t324 145.5q170 0 273 -102t103 -283v-61h-641q0 -195 97.5 -304.5t263.5 -109.5q85 0 149.5 23t128.5 73zM279 643h446
q-2 113 -57 180.5t-148 67.5q-96 0 -159 -65t-82 -183z" />
    <glyph glyph-name="Ebreve" unicode="&#x114;" horiz-adv-x="1292" 
d="M451 1833h84q6 -70 51.5 -112t118.5 -42q74 0 117.5 40.5t49.5 113.5h84q-2 -131 -70.5 -210t-180.5 -79q-110 0 -179.5 79t-74.5 210zM1210 358v-358h-1101v53q82 15 106.5 50t24.5 147v928q0 115 -23.5 149t-107.5 43v53h1060v-307h-57q-10 110 -77.5 154.5
t-221.5 44.5h-369v-541h273q126 0 180 35.5t59 114.5h58v-408h-58q-5 82 -58.5 116t-180.5 34h-273v-557h414q140 0 211.5 57t83.5 192h57z" />
    <glyph glyph-name="ebreve" unicode="&#x115;" horiz-adv-x="1013" 
d="M274 1419h84q6 -72 51.5 -113.5t118.5 -41.5q74 0 118 41t50 114h84q-1 -133 -70 -211t-182 -78q-111 0 -180.5 78t-73.5 211zM958 182q-88 -106 -181 -156.5t-210 -50.5q-101 0 -189.5 36.5t-153.5 102t-102.5 162t-37.5 209.5q0 217 129 362.5t324 145.5
q170 0 273 -102t103 -283v-61h-641q0 -195 97.5 -304.5t263.5 -109.5q85 0 149.5 23t128.5 73zM279 643h446q-2 113 -57 180.5t-148 67.5q-96 0 -159 -65t-82 -183z" />
    <glyph glyph-name="Edotaccent" unicode="&#x116;" horiz-adv-x="1292" 
d="M573 1696q0 54 39.5 92.5t94.5 38.5q54 0 92.5 -38.5t38.5 -92.5q0 -57 -38.5 -96t-92.5 -39q-56 0 -95 39t-39 96zM1210 358v-358h-1101v53q82 15 106.5 50t24.5 147v928q0 115 -23.5 149t-107.5 43v53h1060v-307h-57q-10 110 -77.5 154.5t-221.5 44.5h-369v-541h273
q126 0 180 35.5t59 114.5h58v-408h-58q-5 82 -58.5 116t-180.5 34h-273v-557h414q140 0 211.5 57t83.5 192h57z" />
    <glyph glyph-name="edotaccent" unicode="&#x117;" horiz-adv-x="1013" 
d="M395 1280q0 56 38.5 94.5t94.5 38.5q54 0 92.5 -39t38.5 -94q0 -56 -38 -94.5t-93 -38.5q-56 0 -94.5 38t-38.5 95zM958 182q-88 -106 -181 -156.5t-210 -50.5q-101 0 -189.5 36.5t-153.5 102t-102.5 162t-37.5 209.5q0 217 129 362.5t324 145.5q170 0 273 -102t103 -283
v-61h-641q0 -195 97.5 -304.5t263.5 -109.5q85 0 149.5 23t128.5 73zM279 643h446q-2 113 -57 180.5t-148 67.5q-96 0 -159 -65t-82 -183z" />
    <glyph glyph-name="Eogonek" unicode="&#x118;" horiz-adv-x="1292" 
d="M1253 -328q-70 -88 -176 -88q-83 0 -138.5 50t-55.5 128q0 72 54 133.5t146 104.5h-974v53q82 15 106.5 50t24.5 147v928q0 115 -23.5 149t-107.5 43v53h1060v-307h-57q-10 110 -77.5 154.5t-221.5 44.5h-369v-541h273q126 0 180 35.5t59 114.5h58v-408h-58
q-5 82 -58.5 116t-180.5 34h-273v-557h414q140 0 211.5 57t83.5 192h57v-358q-200 -92 -200 -211q0 -49 28 -80t78 -31q56 0 103 35z" />
    <glyph glyph-name="eogonek" unicode="&#x119;" horiz-adv-x="1013" 
d="M485 -211q0 -50 30 -80.5t81 -30.5q48 0 98 35l37 -41q-73 -88 -178 -88q-82 0 -137.5 50.5t-55.5 127.5q0 66 43 121.5t119 93.5v9q-191 9 -314.5 145.5t-123.5 353.5q0 142 59.5 258.5t164 183t231.5 66.5q170 0 272 -101.5t102 -283.5v-61h-641q0 -194 98 -304
t261 -110q84 0 148 22.5t132 73.5l47 -47q-66 -79 -126 -122t-140 -68q-101 -34 -154 -88.5t-53 -114.5zM279 643h446q0 115 -54.5 181.5t-148.5 66.5q-97 0 -160.5 -65t-82.5 -183z" />
    <glyph glyph-name="Ecaron" unicode="&#x11a;" horiz-adv-x="1292" 
d="M895 1833h100l-239 -293h-115l-235 293h102l190 -141zM1210 358v-358h-1101v53q82 15 106.5 50t24.5 147v928q0 115 -23.5 149t-107.5 43v53h1060v-307h-57q-10 110 -77.5 154.5t-221.5 44.5h-369v-541h273q126 0 180 35.5t59 114.5h58v-408h-58q-5 82 -58.5 116
t-180.5 34h-273v-557h414q140 0 211.5 57t83.5 192h57z" />
    <glyph glyph-name="ecaron" unicode="&#x11b;" horiz-adv-x="1013" 
d="M823 1419l-239 -293h-115l-236 293h103l190 -141l197 141h100zM958 182q-88 -106 -181 -156.5t-210 -50.5q-101 0 -189.5 36.5t-153.5 102t-102.5 162t-37.5 209.5q0 217 129 362.5t324 145.5q170 0 273 -102t103 -283v-61h-641q0 -195 97.5 -304.5t263.5 -109.5
q85 0 149.5 23t128.5 73zM279 643h446q-2 113 -57 180.5t-148 67.5q-96 0 -159 -65t-82 -183z" />
    <glyph glyph-name="Gcircumflex" unicode="&#x11c;" horiz-adv-x="1515" 
d="M1034 1540l-190 141l-197 -141h-98l237 293h115l238 -293h-105zM940 727h498v-53q-73 -9 -97 -45.5t-24 -143.5v-368q-230 -142 -477 -142q-159 -2 -299 53t-238 152t-154 232.5t-55 289.5q-2 155 59.5 294t169 239t259 157.5t321.5 55.5q269 0 475 -102v-302h-59
q-94 291 -410 291q-175 0 -308 -82.5t-202 -224t-69 -319.5q0 -181 64 -321.5t187.5 -221t290.5 -80.5q124 0 240 43v352q0 111 -35 147.5t-137 45.5v53z" />
    <glyph glyph-name="gcircumflex" unicode="&#x11d;" horiz-adv-x="1081" 
d="M711 1126l-193 142l-196 -142h-99l240 293h112l238 -293h-102zM1032 868h-239v-10q44 -27 73 -79t29 -113q0 -139 -108 -231.5t-275 -92.5q-85 0 -162 25q-47 -20 -73.5 -51t-26.5 -66q0 -38 31.5 -61t91.5 -23h301q167 0 258.5 -63t91.5 -181q0 -152 -154 -256
t-391 -104q-199 0 -317.5 67.5t-118.5 177.5q0 121 156 207v9q-107 52 -107 163q0 64 41 121.5t123 98.5v8q-63 43 -98 109t-35 145q0 146 108 235q110 90 281 90q72 0 133 -20l377 74h10v-179zM702 668q0 108 -52 171.5t-140 63.5q-87 0 -140 -63.5t-53 -171.5
q0 -105 53.5 -169.5t139.5 -64.5q87 0 139.5 63t52.5 171zM328 -2q-115 -54 -115 -156q0 -83 71.5 -132.5t202.5 -49.5q143 0 247 59t104 146q0 69 -49 101t-154 32h-307z" />
    <glyph glyph-name="Gbreve" unicode="&#x11e;" horiz-adv-x="1515" 
d="M590 1833h84q6 -70 51.5 -112t118.5 -42q74 0 118 40.5t50 113.5h84q-2 -131 -71 -210t-181 -79q-110 0 -179.5 79t-74.5 210zM940 727h498v-53q-73 -9 -97 -45.5t-24 -143.5v-368q-230 -142 -477 -142q-159 -2 -299 53t-238 152t-154 232.5t-55 289.5q-2 155 59.5 294
t169 239t259 157.5t321.5 55.5q269 0 475 -102v-302h-59q-94 291 -410 291q-175 0 -308 -82.5t-202 -224t-69 -319.5q0 -181 64 -321.5t187.5 -221t290.5 -80.5q124 0 240 43v352q0 111 -35 147.5t-137 45.5v53z" />
    <glyph glyph-name="gbreve" unicode="&#x11f;" horiz-adv-x="1081" 
d="M266 1419h84q6 -72 51.5 -113.5t118.5 -41.5q74 0 118 41t50 114h84q-1 -133 -70 -211t-182 -78q-111 0 -180.5 78t-73.5 211zM1032 868h-239v-10q44 -27 73 -79t29 -113q0 -139 -108 -231.5t-275 -92.5q-85 0 -162 25q-47 -20 -73.5 -51t-26.5 -66q0 -38 31.5 -61
t91.5 -23h301q167 0 258.5 -63t91.5 -181q0 -152 -154 -256t-391 -104q-199 0 -317.5 67.5t-118.5 177.5q0 121 156 207v9q-107 52 -107 163q0 64 41 121.5t123 98.5v8q-63 43 -98 109t-35 145q0 146 108 235q110 90 281 90q72 0 133 -20l377 74h10v-179zM702 668
q0 108 -52 171.5t-140 63.5q-87 0 -140 -63.5t-53 -171.5q0 -105 53.5 -169.5t139.5 -64.5q87 0 139.5 63t52.5 171zM328 -2q-115 -54 -115 -156q0 -83 71.5 -132.5t202.5 -49.5q143 0 247 59t104 146q0 69 -49 101t-154 32h-307z" />
    <glyph glyph-name="Gdotaccent" unicode="&#x120;" horiz-adv-x="1515" 
d="M713 1696q0 54 39 92.5t94 38.5q54 0 92.5 -38.5t38.5 -92.5q0 -57 -38.5 -96t-92.5 -39q-56 0 -94.5 39t-38.5 96zM940 727h498v-53q-73 -9 -97 -45.5t-24 -143.5v-368q-230 -142 -477 -142q-159 -2 -299 53t-238 152t-154 232.5t-55 289.5q-2 155 59.5 294t169 239
t259 157.5t321.5 55.5q269 0 475 -102v-302h-59q-94 291 -410 291q-175 0 -308 -82.5t-202 -224t-69 -319.5q0 -181 64 -321.5t187.5 -221t290.5 -80.5q124 0 240 43v352q0 111 -35 147.5t-137 45.5v53z" />
    <glyph glyph-name="gdotaccent" unicode="&#x121;" horiz-adv-x="1081" 
d="M389 1280q0 56 38.5 94.5t94.5 38.5q54 0 92.5 -39t38.5 -94q0 -56 -38 -94.5t-93 -38.5q-56 0 -94.5 38t-38.5 95zM1032 868h-239v-10q44 -27 73 -79t29 -113q0 -139 -108 -231.5t-275 -92.5q-85 0 -162 25q-47 -20 -73.5 -51t-26.5 -66q0 -38 31.5 -61t91.5 -23h301
q167 0 258.5 -63t91.5 -181q0 -152 -154 -256t-391 -104q-199 0 -317.5 67.5t-118.5 177.5q0 121 156 207v9q-107 52 -107 163q0 64 41 121.5t123 98.5v8q-63 43 -98 109t-35 145q0 146 108 235q110 90 281 90q72 0 133 -20l377 74h10v-179zM702 668q0 108 -52 171.5
t-140 63.5q-87 0 -140 -63.5t-53 -171.5q0 -105 53.5 -169.5t139.5 -64.5q87 0 139.5 63t52.5 171zM328 -2q-115 -54 -115 -156q0 -83 71.5 -132.5t202.5 -49.5q143 0 247 59t104 146q0 69 -49 101t-154 32h-307z" />
    <glyph glyph-name="uni0122" unicode="&#x122;" horiz-adv-x="1515" 
d="M940 727h498v-53q-73 -9 -97 -45.5t-24 -143.5v-368q-230 -142 -477 -142q-159 -2 -299 53t-238 152t-154 232.5t-55 289.5q-2 155 59.5 294t169 239t259 157.5t321.5 55.5q269 0 475 -102v-302h-59q-94 291 -410 291q-175 0 -308 -82.5t-202 -224t-69 -319.5
q0 -181 64 -321.5t187.5 -221t290.5 -80.5q124 0 240 43v352q0 111 -35 147.5t-137 45.5v53zM971 -217q0 -53 -41 -121l-105 -188h-84l127 215h-10q-50 0 -83.5 30.5t-33.5 77.5t32 80t79 33q51 0 85 -36.5t34 -90.5z" />
    <glyph glyph-name="uni0123" unicode="&#x123;" horiz-adv-x="1081" 
d="M406 1208q0 48 40 121l105 187h86l-127 -213h10q48 0 81.5 -31t33.5 -80q0 -47 -32 -79t-77 -32q-54 0 -87 35.5t-33 91.5zM1032 868h-239v-10q44 -27 73 -79t29 -113q0 -139 -108 -231.5t-275 -92.5q-85 0 -162 25q-47 -20 -73.5 -51t-26.5 -66q0 -38 31.5 -61t91.5 -23
h301q167 0 258.5 -63t91.5 -181q0 -152 -154 -256t-391 -104q-199 0 -317.5 67.5t-118.5 177.5q0 121 156 207v9q-107 52 -107 163q0 64 41 121.5t123 98.5v8q-63 43 -98 109t-35 145q0 146 108 235q110 90 281 90q72 0 133 -20l377 74h10v-179zM702 668q0 108 -52 171.5
t-140 63.5q-87 0 -140 -63.5t-53 -171.5q0 -105 53.5 -169.5t139.5 -64.5q87 0 139.5 63t52.5 171zM328 -2q-115 -54 -115 -156q0 -83 71.5 -132.5t202.5 -49.5q143 0 247 59t104 146q0 69 -49 101t-154 32h-307z" />
    <glyph glyph-name="Hcircumflex" unicode="&#x124;" horiz-adv-x="1656" 
d="M1024 1540l-190 141l-197 -141h-98l237 293h115l237 -293h-104zM1548 1370q-81 -9 -106 -44t-25 -148v-930q0 -111 24.5 -145.5t106.5 -49.5v-53h-465v53q82 15 105.5 49t23.5 146v420h-768v-420q0 -112 23.5 -146t105.5 -49v-53h-464v53q82 15 106.5 49.5t24.5 145.5
v930q0 113 -25 148t-106 44v53h464v-53q-80 -9 -104.5 -44t-24.5 -148v-396h768v396q0 113 -24.5 148t-104.5 44v53h465v-53z" />
    <glyph glyph-name="hcircumflex" unicode="&#x125;" horiz-adv-x="1142" 
d="M412 1540h-99l238 293h115l237 -293h-104l-191 141zM180 1243q0 72 -19 92.5t-83 26.5v53l280 49h13v-645h12q63 89 132 131.5t159 42.5q139 0 223 -94t84 -264v-428q0 -92 15 -118.5t73 -35.5v-53h-367v53q58 9 73.5 36t15.5 118v426q0 104 -49 161.5t-130 57.5
q-142 0 -241 -176v-469q0 -90 15.5 -117.5t70.5 -36.5v-53h-365v53q58 9 73 35.5t15 118.5v1036z" />
    <glyph glyph-name="Hbar" unicode="&#x126;" horiz-adv-x="1689" 
d="M1618 1038h-182v-790q0 -112 23.5 -146t105.5 -49v-53h-465v53q82 15 106.5 49.5t24.5 145.5v420h-770v-420q0 -111 24.5 -145.5t106.5 -49.5v-53h-465v53q82 15 105.5 49t23.5 146v790h-182v103h182v37q0 113 -24.5 148t-104.5 44v53h465v-53q-81 -9 -106 -44t-25 -148
v-37h770v37q0 113 -25 148t-106 44v53h465v-53q-80 -9 -104.5 -44t-24.5 -148v-37h182v-103zM461 782h770v256h-770v-256z" />
    <glyph glyph-name="hbar" unicode="&#x127;" horiz-adv-x="1142" 
d="M981 207q0 -92 15 -118.5t73 -35.5v-53h-367v53q58 9 73.5 36t15.5 118v426q0 104 -49 161.5t-130 57.5q-142 0 -241 -176v-469q0 -90 15.5 -117.5t70.5 -36.5v-53h-365v53q58 9 73 35.5t15 118.5v895h-153v94h153v47q0 72 -19 92.5t-83 26.5v53l280 49h13v-268h274v-94
h-274v-283h12q63 89 132 131.5t159 42.5q139 0 223 -94t84 -264v-428z" />
    <glyph glyph-name="Itilde" unicode="&#x128;" horiz-adv-x="681" 
d="M328 1610l-37 26q-49 39 -96 39q-39 0 -63 -27.5t-36 -88.5h-80q7 118 60.5 181.5t132.5 63.5q41 0 73 -13t76 -44l37 -27q30 -23 50.5 -31t46.5 -8q38 0 61 27.5t37 89.5h80q-7 -119 -60.5 -183.5t-134.5 -64.5q-69 0 -147 60zM111 53q81 12 106 47.5t25 147.5v930
q0 112 -25.5 147.5t-105.5 44.5v53h464v-53q-80 -9 -104.5 -44t-24.5 -148v-930q0 -113 24 -148t105 -47v-53h-464v53z" />
    <glyph glyph-name="itilde" unicode="&#x129;" horiz-adv-x="557" 
d="M266 1194l-37 27q-49 39 -94 39q-41 0 -64 -27.5t-34 -89.5h-82q7 119 60.5 182.5t134.5 63.5q39 0 71 -13.5t76 -44.5l37 -26q33 -24 51.5 -31.5t44.5 -7.5q38 0 61.5 27.5t36.5 88.5h80q-7 -119 -60.5 -183t-131.5 -64q-73 0 -150 59zM381 209q0 -93 14.5 -120
t71.5 -36v-53h-365v53q58 9 73 36t15 120v549q0 72 -19.5 92.5t-82.5 26.5v53l279 49h14v-770z" />
    <glyph glyph-name="Imacron" unicode="&#x12a;" horiz-adv-x="681" 
d="M649 1610h-610v102h610v-102zM111 53q81 12 106 47.5t25 147.5v930q0 112 -25.5 147.5t-105.5 44.5v53h464v-53q-80 -9 -104.5 -44t-24.5 -148v-930q0 -113 24 -148t105 -47v-53h-464v53z" />
    <glyph glyph-name="imacron" unicode="&#x12b;" horiz-adv-x="557" 
d="M588 1194h-611v102h611v-102zM381 209q0 -93 14.5 -120t71.5 -36v-53h-365v53q58 9 73 36t15 120v549q0 72 -19.5 92.5t-82.5 26.5v53l279 49h14v-770z" />
    <glyph glyph-name="Ibreve" unicode="&#x12c;" horiz-adv-x="681" 
d="M92 1833h84q6 -70 51.5 -112t118.5 -42q74 0 118 40.5t50 113.5h84q-2 -131 -71 -210t-181 -79q-110 0 -179.5 79t-74.5 210zM111 53q81 12 106 47.5t25 147.5v930q0 112 -25.5 147.5t-105.5 44.5v53h464v-53q-80 -9 -104.5 -44t-24.5 -148v-930q0 -113 24 -148t105 -47
v-53h-464v53z" />
    <glyph glyph-name="ibreve" unicode="&#x12d;" horiz-adv-x="557" 
d="M29 1419h84q6 -72 51.5 -113.5t118.5 -41.5q74 0 118 41t50 114h84q-1 -133 -70 -211t-182 -78q-111 0 -180.5 78t-73.5 211zM381 209q0 -93 14.5 -120t71.5 -36v-53h-365v53q58 9 73 36t15 120v549q0 72 -19.5 92.5t-82.5 26.5v53l279 49h14v-770z" />
    <glyph glyph-name="Iogonek" unicode="&#x12e;" horiz-adv-x="681" 
d="M575 1370q-80 -9 -104.5 -44t-24.5 -148v-930q0 -113 24 -148t105 -47v-53h-116q-201 -92 -201 -211q0 -49 28.5 -80t78.5 -31q55 0 102 35l35 -41q-70 -88 -176 -88q-83 0 -139 50t-56 128q0 72 54.5 133.5t146.5 104.5h-221v53q81 12 106 47.5t25 147.5v930
q0 112 -25.5 147.5t-105.5 44.5v53h464v-53z" />
    <glyph glyph-name="iogonek" unicode="&#x12f;" horiz-adv-x="557" 
d="M150 1280q0 56 39 94.5t94 38.5q54 0 92.5 -39t38.5 -94q0 -56 -38 -94.5t-93 -38.5q-56 0 -94.5 38t-38.5 95zM395 0q-200 -92 -200 -211q0 -49 28 -80t78 -31q55 0 102 35l35 -41q-70 -88 -176 -88q-83 0 -138.5 50t-55.5 128q0 72 54 133.5t146 104.5h-166v53
q58 9 73 36t15 120v549q0 72 -19.5 92.5t-82.5 26.5v53l279 49h14v-770q0 -93 14.5 -120t71.5 -36v-53h-72z" />
    <glyph glyph-name="Idotaccent" unicode="&#x130;" horiz-adv-x="681" 
d="M215 1696q0 54 39 92.5t94 38.5q54 0 92.5 -38.5t38.5 -92.5q0 -57 -38.5 -96t-92.5 -39q-56 0 -94.5 39t-38.5 96zM111 53q81 12 106 47.5t25 147.5v930q0 112 -25.5 147.5t-105.5 44.5v53h464v-53q-80 -9 -104.5 -44t-24.5 -148v-930q0 -113 24 -148t105 -47v-53h-464
v53z" />
    <glyph glyph-name="dotlessi" unicode="&#x131;" horiz-adv-x="557" 
d="M381 209q0 -93 14.5 -120t71.5 -36v-53h-365v53q58 9 73 36t15 120v549q0 72 -19.5 92.5t-82.5 26.5v53l279 49h14v-770z" />
    <glyph glyph-name="IJ" unicode="&#x132;" horiz-adv-x="1642" 
d="M111 53q81 12 106 47.5t25 147.5v930q0 112 -25.5 147.5t-105.5 44.5v53h464v-53q-80 -9 -104.5 -44t-24.5 -148v-930q0 -113 24 -148t105 -47v-53h-464v53zM692 76l39 74q111 -54 211 -54q129 0 203 73.5t74 227.5v785q0 109 -25 144t-104 44v53h464v-53
q-80 -9 -105.5 -44.5t-25.5 -143.5v-742q0 -230 -118 -348q-120 -117 -301 -117q-84 0 -168.5 28.5t-143.5 72.5z" />
    <glyph glyph-name="ij" unicode="&#x133;" horiz-adv-x="1085" 
d="M150 1280q0 56 38 94.5t95 38.5q54 0 92.5 -39t38.5 -94q0 -56 -38 -94.5t-93 -38.5q-57 0 -95 38t-38 95zM381 209q0 -93 14.5 -120t71.5 -36v-53h-365v53q58 9 73 36t15 120v549q0 72 -19.5 92.5t-82.5 26.5v53l279 49h14v-770zM696 1280q0 56 39 94.5t94 38.5
q54 0 93 -39t39 -94q0 -56 -38.5 -94.5t-93.5 -38.5q-56 0 -94.5 38t-38.5 95zM434 -387l23 68q55 -19 106 -19q174 0 174 209v887q0 71 -19.5 92.5t-82.5 26.5v53l280 49h13v-1077q0 -172 -90 -256t-217 -84q-116 0 -187 51z" />
    <glyph glyph-name="Jcircumflex" unicode="&#x134;" horiz-adv-x="958" 
d="M446 1540h-98l238 293h114l238 -293h-104l-191 141zM10 76l39 74q111 -54 211 -54q129 0 203 73.5t74 227.5v785q0 109 -25 144t-104 44v53h464v-53q-80 -9 -105.5 -44.5t-25.5 -143.5v-742q0 -230 -118 -348q-120 -117 -301 -117q-84 0 -168.5 28.5t-143.5 72.5z" />
    <glyph glyph-name="jcircumflex" unicode="&#x135;" horiz-adv-x="528" 
d="M74 1126h-99l238 293h115l237 -293h-104l-191 142zM-123 -387l23 68q55 -19 106 -19q174 0 174 209v887q0 71 -19.5 92.5t-82.5 26.5v53l280 49h13v-1077q0 -172 -90 -256t-218 -84q-115 0 -186 51z" />
    <glyph glyph-name="uni0136" unicode="&#x136;" horiz-adv-x="1427" 
d="M717 823l725 -813v-10h-283l-586 678l-129 -133v-299q0 -110 24.5 -144t109.5 -49v-53h-469v53q82 15 106.5 49t24.5 144v932q0 113 -25 148t-106 44v53h464v-53q-80 -9 -104.5 -44t-24.5 -148v-471h9l469 485q82 88 82 129q0 37 -56 49v53h434v-53q-99 -12 -163 -55
q-61 -41 -172 -152zM909 -217q0 -53 -41 -121l-104 -188h-84l127 215h-10q-50 0 -83.5 30.5t-33.5 77.5t32 80t79 33q51 0 84.5 -36.5t33.5 -90.5z" />
    <glyph glyph-name="uni0137" unicode="&#x137;" horiz-adv-x="1097" 
d="M586 584l510 -578v-6h-258l-389 459l-80 -74v-176q0 -93 14.5 -120t71.5 -36v-53h-365v53q58 9 73 36t15 120v1032q0 73 -19 94t-83 27v53l280 49h13v-946h12l293 281q63 57 63 88q0 19 -37 28v54h365v-54q-88 -12 -143 -45q-54 -29 -131 -100zM698 -217q0 -53 -41 -121
l-104 -188h-84l127 215h-10q-50 0 -83.5 30.5t-33.5 77.5t32 80t79 33q51 0 84.5 -36.5t33.5 -90.5z" />
    <glyph glyph-name="Lacute" unicode="&#x139;" horiz-adv-x="1185" 
d="M334 1540h-84l104 293h244v-6zM109 53q83 12 107 48.5t24 144.5v934q0 111 -25 146t-106 44v53h464v-53q-84 -9 -106.5 -42t-22.5 -148v-1071h330q74 0 122 11.5t87 43t61 89t31 148.5h58v-401h-1024v53z" />
    <glyph glyph-name="lacute" unicode="&#x13a;" horiz-adv-x="544" 
d="M260 1540h-84l105 293h243v-6zM90 53q59 9 73.5 35.5t14.5 120.5v1032q0 73 -19 94t-83 27v53l280 49h13v-1255q0 -93 14.5 -120t71.5 -36v-53h-365v53z" />
    <glyph glyph-name="uni013B" unicode="&#x13b;" horiz-adv-x="1185" 
d="M1133 401v-401h-1024v53q83 12 107 48.5t24 144.5v934q0 111 -25 146t-106 44v53h464v-53q-84 -9 -106.5 -42t-22.5 -148v-1071h330q74 0 122 11.5t87 43t61 89t31 148.5h58zM782 -217q0 -53 -41 -121l-104 -188h-84l127 215h-10q-50 0 -83.5 30.5t-33.5 77.5t32 80
t79 33q51 0 84.5 -36.5t33.5 -90.5z" />
    <glyph glyph-name="uni013C" unicode="&#x13c;" horiz-adv-x="544" 
d="M369 209q0 -93 14.5 -120t71.5 -36v-53h-365v53q59 9 73.5 35.5t14.5 120.5v1032q0 73 -19 94t-83 27v53l280 49h13v-1255zM387 -217q0 -53 -39 -121l-106 -188h-84l129 215h-13q-48 0 -81 30.5t-33 77.5t32 80t76 33q54 0 86.5 -35.5t32.5 -91.5z" />
    <glyph glyph-name="Lcaron" unicode="&#x13d;" horiz-adv-x="1185" 
d="M803 1030h-80l121 203h-10q-46 0 -78.5 29t-32.5 75q0 45 30 76t74 31q51 0 83 -33.5t32 -87.5q0 -50 -39 -115zM1133 401v-401h-1024v53q83 12 107 48.5t24 144.5v934q0 111 -25 146t-106 44v53h464v-53q-84 -9 -106.5 -42t-22.5 -148v-1071h330q74 0 122 11.5t87 43
t61 89t31 148.5h58z" />
    <glyph glyph-name="lcaron" unicode="&#x13e;" horiz-adv-x="544" 
d="M686 1354q0 -50 -39 -115l-100 -178h-80l121 203h-10q-46 0 -78.5 29t-32.5 75q0 45 30 76t74 31q51 0 83 -33.5t32 -87.5zM369 209q0 -93 14.5 -120t71.5 -36v-53h-365v53q59 9 73.5 35.5t14.5 120.5v1032q0 73 -19 94t-83 27v53l280 49h13v-1255z" />
    <glyph glyph-name="Ldot" unicode="&#x13f;" horiz-adv-x="1185" 
d="M109 53q83 12 107 48.5t24 144.5v934q0 111 -25 146t-106 44v53h464v-53q-84 -9 -106.5 -42t-22.5 -148v-1071h330q74 0 122 11.5t87 43t61 89t31 148.5h58v-401h-1024v53zM622 604q0 57 41 98t101 41q57 0 98 -41t41 -98t-41 -98.5t-98 -41.5t-99.5 41.5t-42.5 98.5z
" />
    <glyph glyph-name="ldot" unicode="&#x140;" horiz-adv-x="671" 
d="M90 53q59 9 73.5 35.5t14.5 120.5v1032q0 73 -19 94t-83 27v53l280 49h13v-1255q0 -93 14.5 -120t71.5 -36v-53h-365v53zM467 741q0 58 41 99t100 41q57 0 98.5 -41.5t41.5 -98.5t-41.5 -98t-98.5 -41t-99 41t-42 98z" />
    <glyph glyph-name="Lslash" unicode="&#x141;" horiz-adv-x="1232" 
d="M1180 401v-401h-1022v53q79 12 104 49.5t25 143.5v239l-195 -110v119l195 110v576q0 111 -25 146t-104 44v53h463v-53q-84 -9 -106.5 -42t-22.5 -148v-461l378 215v-119l-378 -215v-491h329q73 0 122 11.5t88.5 42.5t61.5 89.5t29 148.5h58z" />
    <glyph glyph-name="lslash" unicode="&#x142;" horiz-adv-x="661" 
d="M606 834l-174 -99v-526q0 -93 15 -120t73 -36v-53h-364v53q58 9 73 36t15 120v420l-178 -101v111l178 100v502q0 73 -19.5 94t-83.5 27v53l279 49h12v-618l174 98v-110z" />
    <glyph glyph-name="Nacute" unicode="&#x143;" horiz-adv-x="1560" 
d="M784 1540h-84l105 293h244v-6zM106 53q82 12 106 48.5t24 148.5v1040l-95 123v10h299l762 -1079h12v834q0 114 -24 148.5t-103 43.5v53h375v-53q-80 -9 -104.5 -44t-24.5 -148v-1178h-141l-825 1167h-13v-917q0 -113 23.5 -149t105.5 -48v-53h-377v53z" />
    <glyph glyph-name="nacute" unicode="&#x144;" horiz-adv-x="1155" 
d="M586 1126h-84l104 293h244v-8zM190 758q0 72 -19 92.5t-83 26.5v53l281 49h12v-160h12q61 88 131 131t160 43q139 0 223 -94t84 -264v-428q0 -92 15 -118.5t73 -35.5v-53h-366v53q58 9 73 35.5t15 118.5v426q0 104 -48 161.5t-128 57.5q-145 0 -244 -176v-469
q0 -90 15.5 -117.5t70.5 -36.5v-53h-365v53q58 9 73 35.5t15 118.5v551z" />
    <glyph glyph-name="uni0145" unicode="&#x145;" horiz-adv-x="1560" 
d="M1087 1423h375v-53q-80 -9 -104.5 -44t-24.5 -148v-1178h-141l-825 1167h-13v-917q0 -113 23.5 -149t105.5 -48v-53h-377v53q82 12 106 48.5t24 148.5v1040l-95 123v10h299l762 -1079h12v834q0 114 -24 148.5t-103 43.5v53zM934 -217q0 -53 -41 -121l-105 -188h-83
l126 215h-10q-50 0 -83 30.5t-33 77.5q0 48 31.5 80.5t78.5 32.5q51 0 85 -36.5t34 -90.5z" />
    <glyph glyph-name="uni0146" unicode="&#x146;" horiz-adv-x="1155" 
d="M991 207q0 -92 15 -118.5t73 -35.5v-53h-366v53q58 9 73 35.5t15 118.5v426q0 104 -48 161.5t-128 57.5q-145 0 -244 -176v-469q0 -90 15.5 -117.5t70.5 -36.5v-53h-365v53q58 9 73 35.5t15 118.5v551q0 72 -19 92.5t-83 26.5v53l281 49h12v-160h12q61 88 131 131t160 43
q139 0 223 -94t84 -264v-428zM713 -217q0 -53 -41 -121l-105 -188h-84l127 215h-10q-50 0 -83.5 30.5t-33.5 77.5t32 80t79 33q51 0 85 -36.5t34 -90.5z" />
    <glyph glyph-name="Ncaron" unicode="&#x147;" horiz-adv-x="1560" 
d="M985 1833h100l-239 -293h-115l-235 293h102l190 -141zM106 53q82 12 106 48.5t24 148.5v1040l-95 123v10h299l762 -1079h12v834q0 114 -24 148.5t-103 43.5v53h375v-53q-80 -9 -104.5 -44t-24.5 -148v-1178h-141l-825 1167h-13v-917q0 -113 23.5 -149t105.5 -48v-53h-377
v53z" />
    <glyph glyph-name="ncaron" unicode="&#x148;" horiz-adv-x="1155" 
d="M788 1419h101l-240 -293h-114l-236 293h102l191 -141zM190 758q0 72 -19 92.5t-83 26.5v53l281 49h12v-160h12q61 88 131 131t160 43q139 0 223 -94t84 -264v-428q0 -92 15 -118.5t73 -35.5v-53h-366v53q58 9 73 35.5t15 118.5v426q0 104 -48 161.5t-128 57.5
q-145 0 -244 -176v-469q0 -90 15.5 -117.5t70.5 -36.5v-53h-365v53q58 9 73 35.5t15 118.5v551z" />
    <glyph glyph-name="Eng" unicode="&#x14a;" horiz-adv-x="1560" 
d="M823 -387l23 68q55 -19 104 -19q178 0 178 203v194l-761 1094h-13v-903q0 -109 25 -147t104 -50v-53h-377v53q81 12 105.5 49t24.5 148v1036l-95 127v10h299l762 -1091h12v846q0 113 -24 148t-103 44v53h375v-53q-82 -9 -105.5 -43.5t-23.5 -148.5v-1280q0 -168 -96 -252
t-229 -84q-111 0 -185 51z" />
    <glyph glyph-name="eng" unicode="&#x14b;" horiz-adv-x="1134" 
d="M500 -387l20 68q55 -19 107 -19q174 0 174 209v762q0 103 -49.5 161t-126.5 58q-145 0 -244 -176v-469q0 -90 15.5 -117.5t70.5 -36.5v-53h-365v53q58 9 73 35.5t15 118.5v551q0 72 -19 92.5t-83 26.5v53l281 49h12v-160h12q61 88 131.5 131t161.5 43q138 0 221.5 -94
t83.5 -264v-733q0 -165 -85.5 -252.5t-221.5 -87.5q-118 0 -184 51z" />
    <glyph glyph-name="Omacron" unicode="&#x14c;" horiz-adv-x="1613" 
d="M1112 1610h-610v102h610v-102zM94 711q-2 154 52 291.5t148.5 236.5t228.5 155.5t284 53.5q152 2 285.5 -54t227.5 -154.5t147.5 -236t52.5 -292.5q1 -155 -52.5 -292t-147.5 -235.5t-227.5 -154.5t-285.5 -54q-150 -2 -284 54.5t-228.5 155t-148.5 235.5t-52 291z
M1284 711q0 279 -131 450.5t-346 171.5q-212 0 -343.5 -172t-131.5 -450q0 -279 131 -450t344 -171q215 0 346 170.5t131 450.5z" />
    <glyph glyph-name="omacron" unicode="&#x14d;" horiz-adv-x="1138" 
d="M877 1194h-611v102h611v-102zM84 485q0 222 137 365t350 143q211 0 348.5 -143t137.5 -365q0 -221 -137.5 -365.5t-348.5 -144.5q-212 0 -349.5 144.5t-137.5 365.5zM844 485q0 185 -74 291.5t-199 106.5q-128 0 -202 -107t-74 -291q0 -186 73.5 -292.5t202.5 -106.5
q126 0 199.5 106t73.5 293z" />
    <glyph glyph-name="Obreve" unicode="&#x14e;" horiz-adv-x="1613" 
d="M557 1833h84q6 -70 51.5 -112t118.5 -42q74 0 118 40.5t50 113.5h84q-2 -131 -71 -210t-181 -79q-110 0 -179.5 79t-74.5 210zM94 711q-2 154 52 291.5t148.5 236.5t228.5 155.5t284 53.5q152 2 285.5 -54t227.5 -154.5t147.5 -236t52.5 -292.5q1 -155 -52.5 -292
t-147.5 -235.5t-227.5 -154.5t-285.5 -54q-150 -2 -284 54.5t-228.5 155t-148.5 235.5t-52 291zM1284 711q0 279 -131 450.5t-346 171.5q-212 0 -343.5 -172t-131.5 -450q0 -279 131 -450t344 -171q215 0 346 170.5t131 450.5z" />
    <glyph glyph-name="obreve" unicode="&#x14f;" horiz-adv-x="1138" 
d="M317 1419h84q6 -72 51.5 -113.5t118.5 -41.5q74 0 118 41t50 114h84q-1 -133 -70 -211t-182 -78q-111 0 -180.5 78t-73.5 211zM84 485q0 222 137 365t350 143q211 0 348.5 -143t137.5 -365q0 -221 -137.5 -365.5t-348.5 -144.5q-212 0 -349.5 144.5t-137.5 365.5z
M844 485q0 185 -74 291.5t-199 106.5q-128 0 -202 -107t-74 -291q0 -186 73.5 -292.5t202.5 -106.5q126 0 199.5 106t73.5 293z" />
    <glyph glyph-name="Ohungarumlaut" unicode="&#x150;" horiz-adv-x="1613" 
d="M651 1540h-76l89 293h215v-6zM954 1540h-75l90 293h215v-6zM94 711q-2 154 52 291.5t148.5 236.5t228.5 155.5t284 53.5q152 2 285.5 -54t227.5 -154.5t147.5 -236t52.5 -292.5q1 -155 -52.5 -292t-147.5 -235.5t-227.5 -154.5t-285.5 -54q-150 -2 -284 54.5t-228.5 155
t-148.5 235.5t-52 291zM1284 711q0 279 -131 450.5t-346 171.5q-212 0 -343.5 -172t-131.5 -450q0 -279 131 -450t344 -171q215 0 346 170.5t131 450.5z" />
    <glyph glyph-name="ohungarumlaut" unicode="&#x151;" horiz-adv-x="1138" 
d="M414 1126h-76l88 293h215v-8zM717 1126h-76l90 293h215v-8zM84 485q0 222 137 365t350 143q211 0 348.5 -143t137.5 -365q0 -221 -137.5 -365.5t-348.5 -144.5q-212 0 -349.5 144.5t-137.5 365.5zM844 485q0 185 -74 291.5t-199 106.5q-128 0 -202 -107t-74 -291
q0 -186 73.5 -292.5t202.5 -106.5q126 0 199.5 106t73.5 293z" />
    <glyph glyph-name="OE" unicode="&#x152;" horiz-adv-x="1880" 
d="M877 0q-225 -3 -405.5 88.5t-280.5 255.5t-97 367q-3 205 97 368.5t280 254.5t406 89h876v-307h-57q-11 106 -79.5 152.5t-217.5 46.5h-293v-541h203q121 0 174.5 35t58.5 115h55v-408h-55q-4 82 -57.5 116t-175.5 34h-203v-557h338q139 0 210 58t83 191h57v-358h-917z
M899 109v1206h-41q-230 0 -378 -164.5t-148 -439.5q0 -137 40 -250.5t110 -190t167 -119t209 -42.5h41z" />
    <glyph glyph-name="oe" unicode="&#x153;" horiz-adv-x="1796" 
d="M1741 182q-83 -106 -178 -156.5t-217 -50.5q-116 0 -214.5 48.5t-164.5 138.5h-15q-67 -89 -165.5 -138t-215.5 -49q-212 0 -349.5 144.5t-137.5 365.5q0 222 137 365t350 143q120 0 218 -48.5t165 -137.5h13q64 89 154.5 137.5t199.5 48.5q171 0 274 -102t103 -283v-61
h-643q1 -198 98 -306t260 -108q162 0 281 96zM1061 643h448q0 113 -55 180.5t-151 67.5q-95 0 -159 -67.5t-83 -180.5zM844 485q0 185 -74 291.5t-199 106.5q-128 0 -202 -107t-74 -291q0 -186 73.5 -292.5t202.5 -106.5q126 0 199.5 106t73.5 293z" />
    <glyph glyph-name="Racute" unicode="&#x154;" horiz-adv-x="1359" 
d="M915 1833v-6l-264 -287h-84l105 293h243zM1386 6v-6h-264l-567 692h-117v-440q0 -81 11 -119t36 -53.5t82 -26.5v-53h-463v53q57 11 82 26.5t36 53.5t11 119v930q0 107 -24 143t-105 45v53h547q234 0 375 -97.5t141 -260.5q0 -135 -102 -231t-274 -125zM438 799h166
q161 0 249.5 69.5t88.5 194.5q0 122 -86.5 187t-245.5 65h-172v-516z" />
    <glyph glyph-name="racute" unicode="&#x155;" horiz-adv-x="784" 
d="M449 1126h-84l104 293h244v-8zM190 758q0 71 -19.5 92.5t-82.5 26.5v53l281 49h12v-281h12q42 153 110.5 224t168.5 71q31 0 73 -10v-195q-41 13 -81 13q-197 0 -283 -271v-331q0 -93 14.5 -115t83.5 -31v-53h-377v53q60 9 74 32t14 114v559z" />
    <glyph glyph-name="uni0156" unicode="&#x156;" horiz-adv-x="1359" 
d="M1386 6v-6h-264l-567 692h-117v-440q0 -81 11 -119t36 -53.5t82 -26.5v-53h-463v53q57 11 82 26.5t36 53.5t11 119v930q0 107 -24 143t-105 45v53h547q234 0 375 -97.5t141 -260.5q0 -135 -102 -231t-274 -125zM438 799h166q161 0 249.5 69.5t88.5 194.5q0 122 -86.5 187
t-245.5 65h-172v-516zM870 -217q0 -53 -41 -121l-104 -188h-84l127 215h-10q-50 0 -83.5 30.5t-33.5 77.5t32 80t79 33q51 0 84.5 -36.5t33.5 -90.5z" />
    <glyph glyph-name="uni0157" unicode="&#x157;" horiz-adv-x="784" 
d="M745 983v-195q-41 13 -81 13q-197 0 -283 -271v-331q0 -93 14.5 -115t83.5 -31v-53h-377v53q60 9 74 32t14 114v559q0 71 -19.5 92.5t-82.5 26.5v53l281 49h12v-281h12q42 153 110.5 224t168.5 71q31 0 73 -10zM401 -217q0 -53 -41 -121l-104 -188h-84l127 215h-10
q-50 0 -83.5 30.5t-33.5 77.5t32 80t79 33q51 0 84.5 -36.5t33.5 -90.5z" />
    <glyph glyph-name="Rcaron" unicode="&#x158;" horiz-adv-x="1359" 
d="M954 1833l-239 -293h-115l-235 293h102l190 -141l197 141h100zM1386 6v-6h-264l-567 692h-117v-440q0 -81 11 -119t36 -53.5t82 -26.5v-53h-463v53q57 11 82 26.5t36 53.5t11 119v930q0 107 -24 143t-105 45v53h547q234 0 375 -97.5t141 -260.5q0 -135 -102 -231
t-274 -125zM438 799h166q161 0 249.5 69.5t88.5 194.5q0 122 -86.5 187t-245.5 65h-172v-516z" />
    <glyph glyph-name="rcaron" unicode="&#x159;" horiz-adv-x="784" 
d="M649 1419h101l-240 -293h-115l-235 293h102l191 -141zM190 758q0 71 -19.5 92.5t-82.5 26.5v53l281 49h12v-281h12q42 153 110.5 224t168.5 71q31 0 73 -10v-195q-41 13 -81 13q-197 0 -283 -271v-331q0 -93 14.5 -115t83.5 -31v-53h-377v53q60 9 74 32t14 114v559z" />
    <glyph glyph-name="Sacute" unicode="&#x15a;" horiz-adv-x="1105" 
d="M563 1540h-84l105 293h243v-6zM94 111v301h56q108 -326 382 -326q116 0 199 68q84 69 84 176q0 77 -48 132t-155 105l-215 97q-134 61 -202 156t-68 216q0 174 137.5 293t343.5 119q102 0 201 -26t168 -68v-293h-55q-71 276 -326 276q-119 0 -196.5 -64t-77.5 -171
q0 -76 43.5 -133.5t140.5 -100.5l217 -100q149 -67 220 -157t71 -218q0 -181 -140.5 -299.5t-347.5 -118.5q-237 0 -432 136z" />
    <glyph glyph-name="sacute" unicode="&#x15b;" horiz-adv-x="841" 
d="M418 1126h-84l104 293h244v-8zM92 63v218h55q81 -201 256 -201q80 0 132.5 37.5t52.5 101.5q0 46 -30 76.5t-107 66.5l-152 68q-188 86 -188 260q0 131 100 217t252 86q144 0 266 -61v-213h-55q-52 168 -223 168q-79 0 -130 -37t-51 -98q0 -47 31.5 -81t104.5 -65
l155 -67q189 -83 189 -258q0 -133 -103 -219.5t-254 -86.5q-80 0 -160.5 23.5t-140.5 64.5z" />
    <glyph glyph-name="Scircumflex" unicode="&#x15c;" horiz-adv-x="1105" 
d="M379 1540h-98l237 293h115l237 -293h-104l-191 141zM94 111v301h56q108 -326 382 -326q116 0 199 68q84 69 84 176q0 77 -48 132t-155 105l-215 97q-134 61 -202 156t-68 216q0 174 137.5 293t343.5 119q102 0 201 -26t168 -68v-293h-55q-71 276 -326 276
q-119 0 -196.5 -64t-77.5 -171q0 -76 43.5 -133.5t140.5 -100.5l217 -100q149 -67 220 -157t71 -218q0 -181 -140.5 -299.5t-347.5 -118.5q-237 0 -432 136z" />
    <glyph glyph-name="scircumflex" unicode="&#x15d;" horiz-adv-x="843" 
d="M229 1126h-98l240 293h112l238 -293h-103l-192 142zM92 63v218h55q81 -201 256 -201q80 0 132.5 37.5t52.5 101.5q0 46 -30 76.5t-107 66.5l-152 68q-188 86 -188 260q0 131 100 217t252 86q144 0 266 -61v-213h-55q-52 168 -223 168q-79 0 -130 -37t-51 -98
q0 -47 31.5 -81t104.5 -65l155 -67q189 -83 189 -258q0 -133 -103 -219.5t-254 -86.5q-80 0 -160.5 23.5t-140.5 64.5z" />
    <glyph glyph-name="Scedilla" unicode="&#x15e;" horiz-adv-x="1105" 
d="M584 -23l-31 -81l4 -2q21 6 51 6q64 0 106 -38t42 -104q0 -74 -59.5 -125t-149.5 -51q-120 0 -217 109l37 41q68 -62 143 -62q54 0 85.5 23.5t31.5 64.5q0 35 -24.5 54.5t-63.5 19.5q-40 0 -76 -22l-6 4l59 161q-233 3 -422 136v301h56q108 -326 382 -326q116 0 199 68
q84 69 84 176q0 77 -48 132t-155 105l-215 97q-134 61 -202 156t-68 216q0 174 137.5 293t343.5 119q102 0 201 -26t168 -68v-293h-55q-71 276 -326 276q-119 0 -196.5 -64t-77.5 -171q0 -76 43.5 -133.5t140.5 -100.5l217 -100q149 -67 220 -157t71 -218
q0 -168 -121.5 -284.5t-308.5 -131.5z" />
    <glyph glyph-name="scedilla" unicode="&#x15f;" horiz-adv-x="841" 
d="M455 -20l-31 -84l4 -2q21 6 51 6q64 0 106 -38t42 -104q0 -74 -59.5 -125t-149.5 -51q-120 0 -217 109l37 41q68 -62 143 -62q54 0 85.5 23.5t31.5 64.5q0 35 -24.5 54.5t-63.5 19.5q-40 0 -76 -22l-6 4l59 161q-81 2 -160 25t-135 63v218h55q81 -201 256 -201
q80 0 132.5 37.5t52.5 101.5q0 46 -30 76.5t-107 66.5l-152 68q-188 86 -188 260q0 131 100 217t252 86q144 0 266 -61v-213h-55q-52 168 -223 168q-79 0 -130 -37t-51 -98q0 -47 31.5 -81t104.5 -65l155 -67q189 -83 189 -258q0 -120 -81.5 -202t-213.5 -99z" />
    <glyph glyph-name="Scaron" unicode="&#x160;" horiz-adv-x="1105" 
d="M764 1833h100l-239 -293h-115l-236 293h103l190 -141zM94 111v301h56q108 -326 382 -326q116 0 199 68q84 69 84 176q0 77 -48 132t-155 105l-215 97q-134 61 -202 156t-68 216q0 174 137.5 293t343.5 119q102 0 201 -26t168 -68v-293h-55q-71 276 -326 276
q-119 0 -196.5 -64t-77.5 -171q0 -76 43.5 -133.5t140.5 -100.5l217 -100q149 -67 220 -157t71 -218q0 -181 -140.5 -299.5t-347.5 -118.5q-237 0 -432 136z" />
    <glyph glyph-name="scaron" unicode="&#x161;" horiz-adv-x="843" 
d="M621 1419h100l-240 -293h-112l-238 293h102l191 -141zM92 63v218h55q81 -201 256 -201q80 0 132.5 37.5t52.5 101.5q0 46 -30 76.5t-107 66.5l-152 68q-188 86 -188 260q0 131 100 217t252 86q144 0 266 -61v-213h-55q-52 168 -223 168q-79 0 -130 -37t-51 -98
q0 -47 31.5 -81t104.5 -65l155 -67q189 -83 189 -258q0 -133 -103 -219.5t-254 -86.5q-80 0 -160.5 23.5t-140.5 64.5z" />
    <glyph glyph-name="uni0162" unicode="&#x162;" horiz-adv-x="1275" 
d="M47 1423h1184v-317h-55q-19 111 -91 162t-223 51h-121v-1069q0 -79 12.5 -116.5t41 -53.5t94.5 -27v-53h-217l-39 -104l4 -2q21 6 51 6q64 0 106 -38t42 -104q0 -74 -59.5 -125t-149.5 -51q-120 0 -217 109l36 41q68 -62 144 -62q54 0 85.5 23.5t31.5 64.5q0 34 -25 54
t-64 20t-75 -22l-6 4l69 186h-217v53q66 11 94.5 27t41 53.5t12.5 116.5v1069h-119q-151 0 -224 -51t-92 -162h-55v317z" />
    <glyph glyph-name="uni0163" unicode="&#x163;" horiz-adv-x="731" 
d="M586 -242q0 -74 -59.5 -125t-149.5 -51q-120 0 -217 109l37 41q68 -62 143 -62q54 0 85.5 23.5t31.5 64.5q0 35 -24.5 54.5t-63.5 19.5q-40 0 -76 -22l-6 4l67 180q-139 59 -139 246v614h-197v88q58 4 92 8.5t64 17t44.5 28.5t26.5 49t17 71t10 103h134v-250h282v-115
h-282v-610q0 -77 30 -111.5t94 -34.5q78 0 146 41l37 -57q-113 -107 -250 -107q-5 0 -22 2t-27 3l-31 -84l4 -2q21 6 51 6q64 0 106 -38t42 -104z" />
    <glyph glyph-name="Tcaron" unicode="&#x164;" horiz-adv-x="1275" 
d="M831 1833h101l-240 -293h-114l-236 293h102l191 -141zM389 53q66 11 94.5 27t41 53.5t12.5 116.5v1069h-119q-151 0 -224 -51t-92 -162h-55v317h1184v-317h-55q-19 111 -91 162t-223 51h-121v-1069q0 -79 12.5 -116.5t41 -53.5t94.5 -27v-53h-500v53z" />
    <glyph glyph-name="tcaron" unicode="&#x165;" horiz-adv-x="731" 
d="M580 1061h-80l121 203h-11q-46 0 -78 29t-32 75q0 45 30 76t74 31q51 0 83 -33.5t32 -87.5q0 -50 -39 -115zM676 139l37 -57q-113 -107 -250 -107q-114 0 -181 67.5t-67 197.5v614h-197v88q58 4 92 8.5t64 17t44.5 28.5t26.5 49t17 71t10 103h134v-250h282v-115h-282
v-610q0 -77 30 -111.5t94 -34.5q78 0 146 41z" />
    <glyph glyph-name="Tbar" unicode="&#x166;" horiz-adv-x="1275" 
d="M47 1423h1184v-317h-55q-19 111 -91 162t-223 51h-121v-508h271v-92h-271v-469q0 -79 12.5 -116.5t41 -53.5t94.5 -27v-53h-500v53q66 11 94.5 27t41 53.5t12.5 116.5v469h-273v92h273v508h-119q-151 0 -224 -51t-92 -162h-55v317z" />
    <glyph glyph-name="tbar" unicode="&#x167;" horiz-adv-x="747" 
d="M723 82q-116 -107 -252 -107q-114 0 -181 67.5t-67 197.5v241h-166v94h166v279h-194v88q57 4 90.5 8.5t63.5 17t44 28.5t26.5 49t17.5 71.5t10 102.5h133v-250h282v-115h-282v-279h260v-94h-260v-237q0 -77 30.5 -111.5t96.5 -34.5q75 0 143 41z" />
    <glyph glyph-name="Utilde" unicode="&#x168;" horiz-adv-x="1554" 
d="M795 1610l-37 26q-49 39 -96 39q-39 0 -63 -27.5t-36 -88.5h-80q7 118 60.5 181.5t132.5 63.5q41 0 73 -13t76 -44l37 -27q31 -23 50.5 -31t45.5 -8q38 0 62 28t37 89h80q-7 -119 -60.5 -183.5t-134.5 -64.5q-69 0 -147 60zM215 573v605q0 80 -11 117t-36 51.5t-82 23.5
v53h465v-53q-35 -5 -55 -11.5t-36.5 -18t-24 -32.5t-11.5 -51.5t-4 -78.5v-596q0 -214 105 -332.5t294 -118.5q185 0 293.5 117.5t108.5 326.5v601q0 115 -23.5 150t-105.5 44v53h376v-53q-82 -9 -105.5 -45.5t-23.5 -153.5v-593q0 -277 -149 -440t-410 -163
q-265 0 -415 159.5t-150 438.5z" />
    <glyph glyph-name="utilde" unicode="&#x169;" horiz-adv-x="1124" 
d="M541 1194l-37 27q-49 39 -94 39q-41 0 -65 -28t-34 -89h-82q7 119 60.5 182.5t134.5 63.5q39 0 71 -13.5t76 -44.5l37 -26q32 -23 51.5 -31t45.5 -8q38 0 61.5 27.5t36.5 88.5h80q-7 -119 -61 -183t-132 -64q-72 0 -149 59zM170 311v445q0 82 -19.5 115.5t-74.5 43.5v54
h284v-654q0 -96 42 -147t116 -51q72 0 133 49t101 131v461q0 85 -20 117.5t-77 39.5v54h287v-752q0 -77 14 -96t74 -25v-53l-266 -53h-10v155h-15q-49 -78 -122 -124t-162 -46q-126 0 -205.5 89.5t-79.5 246.5z" />
    <glyph glyph-name="Umacron" unicode="&#x16a;" horiz-adv-x="1554" 
d="M1114 1610h-610v102h610v-102zM215 573v605q0 80 -11 117t-36 51.5t-82 23.5v53h465v-53q-35 -5 -55 -11.5t-36.5 -18t-24 -32.5t-11.5 -51.5t-4 -78.5v-596q0 -214 105 -332.5t294 -118.5q185 0 293.5 117.5t108.5 326.5v601q0 115 -23.5 150t-105.5 44v53h376v-53
q-82 -9 -105.5 -45.5t-23.5 -153.5v-593q0 -277 -149 -440t-410 -163q-265 0 -415 159.5t-150 438.5z" />
    <glyph glyph-name="umacron" unicode="&#x16b;" horiz-adv-x="1124" 
d="M862 1194h-610v102h610v-102zM170 311v445q0 82 -19.5 115.5t-74.5 43.5v54h284v-654q0 -96 42 -147t116 -51q72 0 133 49t101 131v461q0 85 -20 117.5t-77 39.5v54h287v-752q0 -77 14 -96t74 -25v-53l-266 -53h-10v155h-15q-49 -78 -122 -124t-162 -46
q-126 0 -205.5 89.5t-79.5 246.5z" />
    <glyph glyph-name="Ubreve" unicode="&#x16c;" horiz-adv-x="1554" 
d="M557 1833h84q6 -70 51.5 -112t118.5 -42q74 0 118 40.5t50 113.5h84q-2 -131 -71 -210t-181 -79q-110 0 -179.5 79t-74.5 210zM215 573v605q0 80 -11 117t-36 51.5t-82 23.5v53h465v-53q-35 -5 -55 -11.5t-36.5 -18t-24 -32.5t-11.5 -51.5t-4 -78.5v-596
q0 -214 105 -332.5t294 -118.5q185 0 293.5 117.5t108.5 326.5v601q0 115 -23.5 150t-105.5 44v53h376v-53q-82 -9 -105.5 -45.5t-23.5 -153.5v-593q0 -277 -149 -440t-410 -163q-265 0 -415 159.5t-150 438.5z" />
    <glyph glyph-name="ubreve" unicode="&#x16d;" horiz-adv-x="1124" 
d="M303 1419h84q6 -72 51.5 -113.5t118.5 -41.5q74 0 118 41t50 114h84q-1 -133 -70 -211t-182 -78q-111 0 -180.5 78t-73.5 211zM170 311v445q0 82 -19.5 115.5t-74.5 43.5v54h284v-654q0 -96 42 -147t116 -51q72 0 133 49t101 131v461q0 85 -20 117.5t-77 39.5v54h287
v-752q0 -77 14 -96t74 -25v-53l-266 -53h-10v155h-15q-49 -78 -122 -124t-162 -46q-126 0 -205.5 89.5t-79.5 246.5z" />
    <glyph glyph-name="Uring" unicode="&#x16e;" horiz-adv-x="1554" 
d="M610 1698q0 80 58.5 137t140.5 57t139.5 -57t57.5 -137q0 -82 -57.5 -138.5t-139.5 -56.5q-84 0 -141.5 56.5t-57.5 138.5zM913 1698q0 47 -29.5 77.5t-74.5 30.5t-76 -30.5t-31 -77.5q0 -49 31 -80t76 -31q47 0 75.5 30.5t28.5 80.5zM215 573v605q0 80 -11 117t-36 51.5
t-82 23.5v53h465v-53q-35 -5 -55 -11.5t-36.5 -18t-24 -32.5t-11.5 -51.5t-4 -78.5v-596q0 -214 105 -332.5t294 -118.5q185 0 293.5 117.5t108.5 326.5v601q0 115 -23.5 150t-105.5 44v53h376v-53q-82 -9 -105.5 -45.5t-23.5 -153.5v-593q0 -277 -149 -440t-410 -163
q-265 0 -415 159.5t-150 438.5z" />
    <glyph glyph-name="uring" unicode="&#x16f;" horiz-adv-x="1124" 
d="M356 1280q0 80 58.5 137.5t140.5 57.5q81 0 139 -57.5t58 -137.5q0 -82 -57.5 -138.5t-139.5 -56.5q-84 0 -141.5 56.5t-57.5 138.5zM659 1280q0 47 -30 78t-74 31q-45 0 -75.5 -31t-30.5 -78q0 -49 30.5 -79t75.5 -30q47 0 75.5 29.5t28.5 79.5zM170 311v445
q0 82 -19.5 115.5t-74.5 43.5v54h284v-654q0 -96 42 -147t116 -51q72 0 133 49t101 131v461q0 85 -20 117.5t-77 39.5v54h287v-752q0 -77 14 -96t74 -25v-53l-266 -53h-10v155h-15q-49 -78 -122 -124t-162 -46q-126 0 -205.5 89.5t-79.5 246.5z" />
    <glyph glyph-name="Uhungarumlaut" unicode="&#x170;" horiz-adv-x="1554" 
d="M653 1540h-75l88 293h215v-6zM956 1540h-75l90 293h215v-6zM215 573v605q0 80 -11 117t-36 51.5t-82 23.5v53h465v-53q-35 -5 -55 -11.5t-36.5 -18t-24 -32.5t-11.5 -51.5t-4 -78.5v-596q0 -214 105 -332.5t294 -118.5q185 0 293.5 117.5t108.5 326.5v601
q0 115 -23.5 150t-105.5 44v53h376v-53q-82 -9 -105.5 -45.5t-23.5 -153.5v-593q0 -277 -149 -440t-410 -163q-265 0 -415 159.5t-150 438.5z" />
    <glyph glyph-name="uhungarumlaut" unicode="&#x171;" horiz-adv-x="1124" 
d="M399 1126h-75l88 293h215v-8zM702 1126h-75l90 293h215v-8zM170 311v445q0 82 -19.5 115.5t-74.5 43.5v54h284v-654q0 -96 42 -147t116 -51q72 0 133 49t101 131v461q0 85 -20 117.5t-77 39.5v54h287v-752q0 -77 14 -96t74 -25v-53l-266 -53h-10v155h-15
q-49 -78 -122 -124t-162 -46q-126 0 -205.5 89.5t-79.5 246.5z" />
    <glyph glyph-name="Uogonek" unicode="&#x172;" horiz-adv-x="1554" 
d="M616 -238q0 121 150 211v9q-261 6 -405 162t-144 429v605q0 80 -11 117t-36 51.5t-82 23.5v53h465v-53q-35 -5 -55 -11.5t-36.5 -18t-24 -32.5t-11.5 -51.5t-4 -78.5v-596q0 -214 105 -332.5t294 -118.5q185 0 293.5 117.5t108.5 326.5v603q0 113 -24.5 148t-104.5 44v53
h376v-53q-83 -9 -107 -44.5t-24 -151.5v-596q0 -226 -97.5 -376t-276.5 -204q-106 -31 -165 -89t-59 -118q0 -52 28 -82.5t81 -30.5t100 35l35 -41q-67 -88 -174 -88q-85 0 -140 49.5t-55 128.5z" />
    <glyph glyph-name="uogonek" unicode="&#x173;" horiz-adv-x="1114" 
d="M936 217q0 -77 14 -96t74 -25v-53l-90 -20q-122 -29 -185 -91.5t-63 -138.5q0 -54 30 -84.5t81 -30.5t98 35l37 -41q-70 -88 -176 -88q-86 0 -140.5 49.5t-54.5 130.5q0 77 49 139t135 101v141h-8q-123 -170 -291 -170q-126 0 -204 89t-78 247v443q0 85 -19.5 118
t-76.5 43v54h286v-654q0 -96 43 -147t117 -51q72 0 131.5 48t99.5 130v459q0 87 -19.5 120.5t-76.5 40.5v54h287v-752z" />
    <glyph glyph-name="Wcircumflex" unicode="&#x174;" horiz-adv-x="2017" 
d="M838 1540h-99l238 293h115l237 -293h-104l-191 141zM182 1155q-33 108 -66.5 152.5t-99.5 62.5v53h461v-53q-56 -13 -80 -36t-24 -62q0 -37 22 -111l246 -839h12l316 878l-76 223h229l338 -1075h13l241 801q27 94 27 133q0 37 -22 57.5t-77 30.5v53h367v-53
q-72 -18 -107.5 -63.5t-68.5 -157.5l-344 -1149h-129l-324 1022h-12l-367 -1022h-131z" />
    <glyph glyph-name="wcircumflex" unicode="&#x175;" horiz-adv-x="1517" 
d="M575 1126h-98l238 293h114l238 -293h-104l-191 142zM512 293l203 518l-56 158h199l232 -678h14l149 444q23 77 23 105q0 29 -16.5 46.5t-53.5 28.5v54h305v-54q-61 -20 -92 -58.5t-61 -127.5l-252 -729h-96l-234 678h-12l-264 -678h-94l-254 739q-27 82 -57 120.5
t-83 55.5v54h396v-54q-42 -10 -60 -27.5t-18 -47.5q0 -23 22 -97l148 -450h12z" />
    <glyph glyph-name="Ycircumflex" unicode="&#x176;" horiz-adv-x="1396" 
d="M928 1540l-191 141l-196 -141h-99l238 293h115l237 -293h-104zM1014 1423h379v-53q-76 -18 -122 -60t-110 -141l-356 -569v-350q0 -113 23.5 -147.5t105.5 -49.5v-53h-465v53q44 7 67 16.5t39 31.5t20.5 55.5t4.5 93.5v330l-367 602q-52 93 -94 132t-112 56v53h475v-53
q-74 -21 -74 -70q0 -41 55 -135l260 -432h13l268 432q59 95 59 138q0 25 -16 41t-53 26v53z" />
    <glyph glyph-name="ycircumflex" unicode="&#x177;" horiz-adv-x="1040" 
d="M745 1126l-190 142l-197 -142h-98l238 293h114l238 -293h-105zM725 969h307v-54q-62 -23 -97.5 -64.5t-66.5 -125.5l-336 -872q-114 -291 -348 -291q-86 0 -135 32v173q69 -29 144 -29q190 0 264 194l20 54l-313 743q-36 88 -67.5 125.5t-90.5 60.5v54h402v-54
q-74 -20 -74 -67q0 -32 33 -111l200 -487h13l186 485q29 82 29 107q0 50 -70 73v54z" />
    <glyph glyph-name="Ydieresis" unicode="&#x178;" horiz-adv-x="1396" 
d="M416 1696q0 54 37.5 90.5t91.5 36.5q51 0 88 -38t37 -89q0 -56 -35.5 -92.5t-89.5 -36.5t-91.5 37t-37.5 92zM801 1696q0 54 36.5 90.5t90.5 36.5q51 0 88 -38t37 -89q0 -56 -35.5 -92.5t-89.5 -36.5t-90.5 37t-36.5 92zM1014 1423h379v-53q-76 -18 -122 -60t-110 -141
l-356 -569v-350q0 -113 23.5 -147.5t105.5 -49.5v-53h-465v53q44 7 67 16.5t39 31.5t20.5 55.5t4.5 93.5v330l-367 602q-52 93 -94 132t-112 56v53h475v-53q-74 -21 -74 -70q0 -41 55 -135l260 -432h13l268 432q59 95 59 138q0 25 -16 41t-53 26v53z" />
    <glyph glyph-name="Zacute" unicode="&#x179;" horiz-adv-x="1247" 
d="M625 1540h-84l104 293h244v-6zM72 0v96l827 1211v8h-448q-130 0 -197.5 -55t-87.5 -179h-55v342h1046v-96l-827 -1210v-8h452q149 0 221 58.5t95 205.5h55v-373h-1081z" />
    <glyph glyph-name="zacute" unicode="&#x17a;" horiz-adv-x="937" 
d="M459 1126h-84l104 293h244v-8zM311 102v13l533 766v88h-744v-248h56q26 85 75 115t158 30h215v-12l-532 -766v-88h786v281h-55q-35 -103 -88 -141t-154 -38h-250z" />
    <glyph glyph-name="Zdotaccent" unicode="&#x17b;" horiz-adv-x="1247" 
d="M506 1696q0 54 39 92.5t94 38.5q54 0 92.5 -38.5t38.5 -92.5q0 -57 -38.5 -96t-92.5 -39q-56 0 -94.5 39t-38.5 96zM72 0v96l827 1211v8h-448q-130 0 -197.5 -55t-87.5 -179h-55v342h1046v-96l-827 -1210v-8h452q149 0 221 58.5t95 205.5h55v-373h-1081z" />
    <glyph glyph-name="zdotaccent" unicode="&#x17c;" horiz-adv-x="937" 
d="M334 1280q0 56 39 94.5t94 38.5q54 0 92.5 -39t38.5 -94q0 -56 -38 -94.5t-93 -38.5q-56 0 -94.5 38t-38.5 95zM311 102v13l533 766v88h-744v-248h56q26 85 75 115t158 30h215v-12l-532 -766v-88h786v281h-55q-35 -103 -88 -141t-154 -38h-250z" />
    <glyph glyph-name="Zcaron" unicode="&#x17d;" horiz-adv-x="1247" 
d="M827 1833h101l-240 -293h-115l-235 293h102l191 -141zM72 0v96l827 1211v8h-448q-130 0 -197.5 -55t-87.5 -179h-55v342h1046v-96l-827 -1210v-8h452q149 0 221 58.5t95 205.5h55v-373h-1081z" />
    <glyph glyph-name="zcaron" unicode="&#x17e;" horiz-adv-x="937" 
d="M662 1419h100l-240 -293h-114l-236 293h102l191 -141zM311 102v13l533 766v88h-744v-248h56q26 85 75 115t158 30h215v-12l-532 -766v-88h786v281h-55q-35 -103 -88 -141t-154 -38h-250z" />
    <glyph glyph-name="uni01E2" unicode="&#x1e2;" horiz-adv-x="1845" 
d="M954 1712h611v-102h-611v102zM1759 358v-358h-1020v53q42 8 63 15.5t38 28t22.5 54.5t5.5 93v202h-452l-111 -206q-45 -77 -45 -117q0 -51 86 -70v-53h-377v53q69 23 120.5 73t98.5 140l629 1157h901v-307h-57q-12 110 -80 154.5t-223 44.5h-285v-541h199q122 0 176 35.5
t59 114.5h56v-408h-56q-5 81 -58 115.5t-179 34.5h-197v-557h332q141 0 213 56.5t84 192.5h57zM856 1262l-381 -707h393v707h-12z" />
    <glyph glyph-name="uni01E3" unicode="&#x1e3;" horiz-adv-x="1564" 
d="M469 1296h610v-102h-610v102zM1509 182q-162 -207 -395 -207q-130 0 -236 61t-163 169h-13q-143 -230 -364 -230q-109 0 -179.5 67.5t-70.5 172.5q0 102 79 166.5t241 110.5l223 61v84q0 108 -55.5 162.5t-157.5 54.5q-130 0 -279 -94l-41 55q81 81 183.5 129.5
t203.5 48.5q193 0 275 -141h12q60 68 141.5 104.5t173.5 36.5q173 0 276 -101.5t103 -283.5v-61h-643q1 -195 99 -304.5t260 -109.5q161 0 280 96zM829 643h449q-1 115 -56 181.5t-149 66.5q-95 0 -160 -65.5t-84 -182.5zM631 270v193l-158 -55q-105 -39 -147.5 -74
t-42.5 -92q0 -59 38 -94t95 -35q126 0 215 157z" />
    <glyph glyph-name="AEacute" unicode="&#x1fc;" horiz-adv-x="1845" 
d="M1513 1833v-6l-264 -287h-84l105 293h243zM1759 358v-358h-1020v53q42 8 63 15.5t38 28t22.5 54.5t5.5 93v202h-452l-111 -206q-45 -77 -45 -117q0 -51 86 -70v-53h-377v53q69 23 120.5 73t98.5 140l629 1157h901v-307h-57q-12 110 -80 154.5t-223 44.5h-285v-541h199
q122 0 176 35.5t59 114.5h56v-408h-56q-5 81 -58 115.5t-179 34.5h-197v-557h332q141 0 213 56.5t84 192.5h57zM856 1262l-381 -707h393v707h-12z" />
    <glyph glyph-name="aeacute" unicode="&#x1fd;" horiz-adv-x="1564" 
d="M1028 1419v-8l-264 -285h-84l104 293h244zM1509 182q-162 -207 -395 -207q-130 0 -236 61t-163 169h-13q-143 -230 -364 -230q-109 0 -179.5 67.5t-70.5 172.5q0 102 79 166.5t241 110.5l223 61v84q0 108 -55.5 162.5t-157.5 54.5q-130 0 -279 -94l-41 55
q81 81 183.5 129.5t203.5 48.5q193 0 275 -141h12q60 68 141.5 104.5t173.5 36.5q173 0 276 -101.5t103 -283.5v-61h-643q1 -195 99 -304.5t260 -109.5q161 0 280 96zM829 643h449q-1 115 -56 181.5t-149 66.5q-95 0 -160 -65.5t-84 -182.5zM631 270v193l-158 -55
q-105 -39 -147.5 -74t-42.5 -92q0 -59 38 -94t95 -35q126 0 215 157z" />
    <glyph glyph-name="Oslashacute" unicode="&#x1fe;" horiz-adv-x="1619" 
d="M1061 1833v-6l-266 -285h-84l106 291h244zM1307 1255q104 -98 160.5 -239t56.5 -305q1 -155 -52.5 -292t-147.5 -235.5t-227.5 -154.5t-285.5 -54q-237 0 -418 129l-153 -192l-78 61l153 195q-104 101 -160.5 240.5t-56.5 302.5q-2 154 52 291.5t148.5 236.5t228.5 155.5
t284 53.5q239 0 420 -129l151 190l78 -61zM430 311l700 883q-127 139 -319 139q-216 0 -345.5 -171t-129.5 -451q0 -234 94 -400zM1288 711q0 233 -96 399l-700 -881q124 -139 319 -139q215 0 346 170.5t131 450.5z" />
    <glyph glyph-name="oslashacute" unicode="&#x1ff;" horiz-adv-x="1148" 
d="M825 1419v-8l-266 -285h-84l107 293h243zM924 854q67 -67 103 -162.5t36 -206.5q0 -221 -137 -365.5t-348 -144.5q-161 0 -277 82l-111 -141l-73 55l112 146q-139 139 -139 368q0 222 137.5 365t350.5 143q160 0 276 -82l109 138l71 -56zM340 256l424 539q-70 88 -186 88
q-128 0 -202.5 -107t-74.5 -291q0 -134 39 -229zM850 485q0 125 -37 226l-422 -539q74 -86 187 -86q126 0 199 106t73 293z" />
    <glyph glyph-name="uni0218" unicode="&#x218;" horiz-adv-x="1105" 
d="M723 768q149 -67 220 -157t71 -218q0 -181 -140.5 -299.5t-347.5 -118.5q-237 0 -432 136v301h56q108 -326 382 -326q116 0 199 68q84 69 84 176q0 77 -48 132t-155 105l-215 97q-134 61 -202 156t-68 216q0 174 137.5 293t343.5 119q102 0 201 -26t168 -68v-293h-55
q-71 276 -326 276q-119 0 -196.5 -64t-77.5 -171q0 -76 43.5 -133.5t140.5 -100.5zM676 -217q0 -53 -41 -121l-105 -188h-84l127 215h-10q-50 0 -83.5 30.5t-33.5 77.5t32 80t79 33q51 0 85 -36.5t34 -90.5z" />
    <glyph glyph-name="uni0219" unicode="&#x219;" horiz-adv-x="841" 
d="M561 539q189 -83 189 -258q0 -133 -103 -219.5t-254 -86.5q-80 0 -160.5 23.5t-140.5 64.5v218h55q81 -201 256 -201q80 0 132.5 37.5t52.5 101.5q0 46 -30 76.5t-107 66.5l-152 68q-188 86 -188 260q0 131 100 217t252 86q144 0 266 -61v-213h-55q-52 168 -223 168
q-79 0 -130 -37t-51 -98q0 -47 31.5 -81t104.5 -65zM547 -217q0 -53 -41 -121l-105 -188h-84l127 215h-10q-50 0 -83.5 30.5t-33.5 77.5t32 80t79 33q51 0 85 -36.5t34 -90.5z" />
    <glyph glyph-name="uni021A" unicode="&#x21a;" horiz-adv-x="1275" 
d="M47 1423h1184v-317h-55q-19 111 -91 162t-223 51h-121v-1069q0 -79 12.5 -116.5t41 -53.5t94.5 -27v-53h-500v53q66 11 94.5 27t41 53.5t12.5 116.5v1069h-119q-151 0 -224 -51t-92 -162h-55v317zM756 -217q0 -53 -41 -121l-105 -188h-84l127 215h-10q-50 0 -83.5 30.5
t-33.5 77.5t32 80t79 33q51 0 85 -36.5t34 -90.5z" />
    <glyph glyph-name="uni021B" unicode="&#x21b;" horiz-adv-x="731" 
d="M215 240v614h-197v88q58 4 92 8.5t64 17t44.5 28.5t26.5 49t17 71t10 103h134v-250h282v-115h-282v-610q0 -77 30 -111.5t94 -34.5q78 0 146 41l37 -57q-113 -107 -250 -107q-114 0 -181 67.5t-67 197.5zM506 -217q0 -53 -41 -121l-105 -188h-84l127 215h-10
q-50 0 -83.5 30.5t-33.5 77.5t32 80t79 33q51 0 85 -36.5t34 -90.5z" />
    <glyph glyph-name="uni0226" unicode="&#x226;" horiz-adv-x="1423" 
d="M578 1696q0 54 39 92.5t94 38.5q54 0 92.5 -38.5t38.5 -92.5q0 -57 -38.5 -96t-92.5 -39q-56 0 -94.5 39t-38.5 96zM1247 266q50 -122 80 -162q31 -42 94 -51v-53h-467v53q103 9 103 88q0 37 -29 113l-78 192h-569l-76 -194q-29 -79 -29 -113q0 -39 27 -59.5t88 -26.5
v-53h-383v53q67 7 101.5 48.5t74.5 150.5l461 1171h121zM655 1141l-231 -586h481l-237 586h-13z" />
    <glyph glyph-name="uni0227" unicode="&#x227;" horiz-adv-x="1013" 
d="M344 1280q0 56 39 94.5t94 38.5q54 0 92.5 -39t38.5 -94q0 -56 -38 -94.5t-93 -38.5q-56 0 -94.5 38t-38.5 95zM985 53q-85 -73 -192 -73q-68 0 -113 41.5t-45 111.5v8h-14q-111 -166 -287 -166q-104 0 -175 67t-71 169q0 106 81 171.5t251 111.5l211 59v84
q0 107 -55 162t-154 55q-137 0 -283 -94l-41 55q85 82 185.5 130t201.5 48q152 0 243 -92t91 -266v-457q0 -92 68 -92q33 0 67 18zM631 268v195l-152 -53q-107 -40 -151.5 -75t-44.5 -93q0 -59 38.5 -94t96.5 -35q63 0 117.5 42.5t95.5 112.5z" />
    <glyph glyph-name="uni0232" unicode="&#x232;" horiz-adv-x="1396" 
d="M428 1712h610v-102h-610v102zM1014 1423h379v-53q-76 -18 -122 -60t-110 -141l-356 -569v-350q0 -113 23.5 -147.5t105.5 -49.5v-53h-465v53q44 7 67 16.5t39 31.5t20.5 55.5t4.5 93.5v330l-367 602q-52 93 -94 132t-112 56v53h475v-53q-74 -21 -74 -70q0 -41 55 -135
l260 -432h13l268 432q59 95 59 138q0 25 -16 41t-53 26v53z" />
    <glyph glyph-name="uni0233" unicode="&#x233;" horiz-adv-x="1040" 
d="M252 1296h610v-102h-610v102zM725 969h307v-54q-62 -23 -97.5 -64.5t-66.5 -125.5l-336 -872q-114 -291 -348 -291q-86 0 -135 32v173q69 -29 144 -29q190 0 264 194l20 54l-313 743q-36 88 -67.5 125.5t-90.5 60.5v54h402v-54q-74 -20 -74 -67q0 -32 33 -111l200 -487
h13l186 485q29 82 29 107q0 50 -70 73v54z" />
    <glyph glyph-name="uni0237" unicode="&#x237;" horiz-adv-x="528" 
d="M-123 -387l23 68q55 -19 106 -19q174 0 174 209v887q0 71 -19.5 92.5t-82.5 26.5v53l280 49h13v-1077q0 -172 -90 -256t-218 -84q-115 0 -186 51z" />
    <glyph glyph-name="circumflex" unicode="&#x2c6;" horiz-adv-x="702" 
d="M158 1126h-101l240 293h115l235 -293h-102l-191 142z" />
    <glyph glyph-name="caron" unicode="&#x2c7;" horiz-adv-x="702" 
d="M543 1419h98l-238 -293h-114l-238 293h105l190 -141z" />
    <glyph glyph-name="breve" unicode="&#x2d8;" horiz-adv-x="630" 
d="M66 1419h84q6 -72 50 -113.5t117 -41.5q75 0 119.5 41.5t50.5 113.5h84q-1 -133 -71 -211t-183 -78q-111 0 -180.5 78.5t-70.5 210.5z" />
    <glyph glyph-name="dotaccent" unicode="&#x2d9;" horiz-adv-x="335" 
d="M39 1280q0 56 38 94.5t93 38.5q54 0 92.5 -39t38.5 -94q0 -57 -37.5 -95t-93.5 -38t-93.5 38t-37.5 95z" />
    <glyph glyph-name="ring" unicode="&#x2da;" horiz-adv-x="487" 
d="M45 1280q0 80 58.5 137.5t140.5 57.5q81 0 138.5 -57.5t57.5 -137.5q0 -82 -57 -138.5t-139 -56.5q-84 0 -141.5 56.5t-57.5 138.5zM348 1280q0 47 -30 78t-74 31q-47 0 -77 -31t-30 -78q0 -49 29.5 -79t77.5 -30q45 0 74.5 30t29.5 79z" />
    <glyph glyph-name="ogonek" unicode="&#x2db;" horiz-adv-x="577" 
d="M76 -238q0 88 75.5 158t194.5 107l55 -27q-200 -92 -200 -211q0 -49 29 -80t79 -31q54 0 101 35l34 -41q-70 -88 -176 -88q-83 0 -137.5 49.5t-54.5 128.5z" />
    <glyph glyph-name="tilde" unicode="&#x2dc;" horiz-adv-x="741" 
d="M360 1194l-36 27q-52 39 -97 39q-39 0 -62.5 -28t-35.5 -89h-80q7 119 59.5 182.5t133.5 63.5q40 0 71 -13t78 -45l37 -26q31 -23 50 -31t44 -8q39 0 63 27.5t36 88.5h79q-7 -119 -60.5 -183t-131.5 -64q-71 0 -148 59z" />
    <glyph glyph-name="hungarumlaut" unicode="&#x2dd;" horiz-adv-x="733" 
d="M143 1126h-75l88 293h215v-8zM446 1126h-75l90 293h215v-8z" />
    <glyph glyph-name="uni0394" unicode="&#x394;" horiz-adv-x="1218" 
d="M1186 0h-1147v90l502 1333h125l520 -1333v-90zM172 123v-14h778v14l-387 999h-16z" />
    <glyph glyph-name="Pi" unicode="&#x3a0;" horiz-adv-x="1486" 
d="M1378 1370q-78 -7 -103.5 -43.5t-25.5 -136.5v-940q0 -112 23.5 -147t105.5 -50v-53h-463v53q82 15 105.5 50t23.5 147v1065h-600v-1065q0 -112 23.5 -147t105.5 -50v-53h-464v53q84 15 107.5 50t23.5 147v940q0 100 -26.5 136t-104.5 44v53h1269v-53z" />
    <glyph glyph-name="uni03A9" unicode="&#x3a9;" horiz-adv-x="1546" 
d="M133 0v182h432v23q-213 56 -338 211t-125 366q-2 137 49 261t140.5 213.5t215.5 141.5t267 50q186 3 342 -86t244.5 -243t85.5 -337q0 -207 -125 -362q-127 -157 -336 -215v-23h430v-182h-547v238q155 37 249.5 181t94.5 353q0 256 -119.5 408.5t-318.5 152.5
q-200 0 -319 -153.5t-119 -407.5q0 -211 94 -354q93 -141 248 -180v-238h-545z" />
    <glyph glyph-name="uni03BC" unicode="&#x3bc;" horiz-adv-x="1116" 
d="M166 752q0 85 -19.5 119t-76.5 44v54h284v-654q0 -98 42.5 -148t117.5 -50q71 0 132.5 49.5t101.5 130.5v455q0 86 -21 121t-78 42v54h287v-752q0 -75 14 -95t74 -26v-53l-266 -53h-10v155h-13q-112 -170 -266 -170q-54 0 -104 29h-9v-215q0 -92 15.5 -114t87.5 -31v-54
h-293v1162z" />
    <glyph glyph-name="pi" unicode="&#x3c0;" 
d="M1198 82q-116 -107 -250 -107q-116 0 -183 67.5t-67 197.5v614h-299v-854h-190v854h-172v115h1089v-115h-237v-610q0 -146 127 -146q78 0 143 41z" />
    <glyph glyph-name="uni0E3F" unicode="&#xe3f;" horiz-adv-x="1306" 
d="M700 0v-184h-100v184h-473v53q76 15 99.5 50.5t23.5 140.5v913q0 98 -25 136.5t-96 45.5v54h471v188h100v-190q204 -7 319.5 -96t115.5 -232q0 -124 -87 -210t-237 -112v-12q184 -19 289.5 -111t105.5 -233q0 -170 -136 -277.5t-370 -107.5zM600 1290h-162v-508h162v508z
M700 1284v-496q109 17 167.5 82t58.5 170q0 99 -58.5 162t-167.5 82zM438 682v-580h162v580h-162zM700 106q141 14 217 88.5t76 202.5q0 122 -75 193t-218 88v-572z" />
    <glyph glyph-name="Wgrave" unicode="&#x1e80;" horiz-adv-x="2017" 
d="M1024 1833l106 -293h-88l-262 287v6h244zM182 1155q-33 108 -66.5 152.5t-99.5 62.5v53h461v-53q-56 -13 -80 -36t-24 -62q0 -37 22 -111l246 -839h12l316 878l-76 223h229l338 -1075h13l241 801q27 94 27 133q0 37 -22 57.5t-77 30.5v53h367v-53q-72 -18 -107.5 -63.5
t-68.5 -157.5l-344 -1149h-129l-324 1022h-12l-367 -1022h-131z" />
    <glyph glyph-name="wgrave" unicode="&#x1e81;" horiz-adv-x="1517" 
d="M758 1419l106 -293h-88l-260 285v8h242zM512 293l203 518l-56 158h199l232 -678h14l149 444q23 77 23 105q0 29 -16.5 46.5t-53.5 28.5v54h305v-54q-61 -20 -92 -58.5t-61 -127.5l-252 -729h-96l-234 678h-12l-264 -678h-94l-254 739q-27 82 -57 120.5t-83 55.5v54h396
v-54q-42 -10 -60 -27.5t-18 -47.5q0 -23 22 -97l148 -450h12z" />
    <glyph glyph-name="Wacute" unicode="&#x1e82;" horiz-adv-x="2017" 
d="M1022 1540h-84l104 293h244v-6zM182 1155q-33 108 -66.5 152.5t-99.5 62.5v53h461v-53q-56 -13 -80 -36t-24 -62q0 -37 22 -111l246 -839h12l316 878l-76 223h229l338 -1075h13l241 801q27 94 27 133q0 37 -22 57.5t-77 30.5v53h367v-53q-72 -18 -107.5 -63.5
t-68.5 -157.5l-344 -1149h-129l-324 1022h-12l-367 -1022h-131z" />
    <glyph glyph-name="wacute" unicode="&#x1e83;" horiz-adv-x="1517" 
d="M764 1126h-84l104 293h244v-8zM512 293l203 518l-56 158h199l232 -678h14l149 444q23 77 23 105q0 29 -16.5 46.5t-53.5 28.5v54h305v-54q-61 -20 -92 -58.5t-61 -127.5l-252 -729h-96l-234 678h-12l-264 -678h-94l-254 739q-27 82 -57 120.5t-83 55.5v54h396v-54
q-42 -10 -60 -27.5t-18 -47.5q0 -23 22 -97l148 -450h12z" />
    <glyph glyph-name="Wdieresis" unicode="&#x1e84;" horiz-adv-x="2017" 
d="M715 1696q0 54 37.5 90.5t91.5 36.5q51 0 88 -38t37 -89q0 -56 -35.5 -92.5t-89.5 -36.5t-91.5 37t-37.5 92zM1100 1696q0 54 36.5 90.5t90.5 36.5q51 0 88 -38t37 -89q0 -56 -35.5 -92.5t-89.5 -36.5t-90.5 37t-36.5 92zM182 1155q-33 108 -66.5 152.5t-99.5 62.5v53
h461v-53q-56 -13 -80 -36t-24 -62q0 -37 22 -111l246 -839h12l316 878l-76 223h229l338 -1075h13l241 801q27 94 27 133q0 37 -22 57.5t-77 30.5v53h367v-53q-72 -18 -107.5 -63.5t-68.5 -157.5l-344 -1149h-129l-324 1022h-12l-367 -1022h-131z" />
    <glyph glyph-name="wdieresis" unicode="&#x1e85;" horiz-adv-x="1517" 
d="M451 1280q0 54 37.5 90.5t91.5 36.5q51 0 88 -38t37 -89q0 -56 -35.5 -92.5t-89.5 -36.5t-91.5 37t-37.5 92zM836 1280q0 54 36.5 90.5t90.5 36.5q51 0 87.5 -38t36.5 -89q0 -56 -35 -92.5t-89 -36.5t-90.5 37t-36.5 92zM512 293l203 518l-56 158h199l232 -678h14
l149 444q23 77 23 105q0 29 -16.5 46.5t-53.5 28.5v54h305v-54q-61 -20 -92 -58.5t-61 -127.5l-252 -729h-96l-234 678h-12l-264 -678h-94l-254 739q-27 82 -57 120.5t-83 55.5v54h396v-54q-42 -10 -60 -27.5t-18 -47.5q0 -23 22 -97l148 -450h12z" />
    <glyph glyph-name="uni1E9E" unicode="&#x1e9e;" horiz-adv-x="1449" 
d="M918 782q201 -18 320.5 -120.5t119.5 -270.5q0 -126 -66 -222t-172 -145t-233 -49q-160 0 -291 84l43 78q80 -47 188 -47q138 0 222 85.5t84 223.5q0 142 -94.5 220.5t-264.5 78.5h-69v93l360 512v12h-629v-1315h-336v53q85 15 108 49.5t23 149.5v1171h1076v-90z" />
    <glyph glyph-name="uni1ECA" unicode="&#x1eca;" horiz-adv-x="681" 
d="M111 53q81 12 106 47.5t25 147.5v930q0 112 -25.5 147.5t-105.5 44.5v53h464v-53q-80 -9 -104.5 -44t-24.5 -148v-930q0 -113 24 -148t105 -47v-53h-464v53zM209 -279q0 54 39 93t94 39q54 0 92.5 -39t38.5 -93q0 -57 -38 -96t-93 -39q-57 0 -95 39t-38 96z" />
    <glyph glyph-name="uni1ECB" unicode="&#x1ecb;" horiz-adv-x="557" 
d="M150 1280q0 56 38 94.5t95 38.5q54 0 92.5 -39t38.5 -94q0 -56 -38 -94.5t-93 -38.5q-57 0 -95 38t-38 95zM381 209q0 -93 14.5 -120t71.5 -36v-53h-365v53q58 9 73 36t15 120v549q0 72 -19.5 92.5t-82.5 26.5v53l279 49h14v-770zM150 -279q0 54 39 93t94 39
q54 0 92.5 -39t38.5 -93q0 -57 -38 -96t-93 -39q-57 0 -95 39t-38 96z" />
    <glyph glyph-name="uni1ECC" unicode="&#x1ecc;" horiz-adv-x="1613" 
d="M94 711q-2 154 52 291.5t148.5 236.5t228.5 155.5t284 53.5q152 2 285.5 -54t227.5 -154.5t147.5 -236t52.5 -292.5q1 -155 -52.5 -292t-147.5 -235.5t-227.5 -154.5t-285.5 -54q-150 -2 -284 54.5t-228.5 155t-148.5 235.5t-52 291zM1284 711q0 279 -131 450.5
t-346 171.5q-212 0 -343.5 -172t-131.5 -450q0 -279 131 -450t344 -171q215 0 346 170.5t131 450.5zM674 -279q0 54 39 93t94 39q54 0 92.5 -39t38.5 -93q0 -57 -38 -96t-93 -39q-57 0 -95 39t-38 96z" />
    <glyph glyph-name="uni1ECD" unicode="&#x1ecd;" horiz-adv-x="1138" 
d="M84 485q0 222 137 365t350 143q211 0 348.5 -143t137.5 -365q0 -221 -137.5 -365.5t-348.5 -144.5q-212 0 -349.5 144.5t-137.5 365.5zM844 485q0 185 -74 291.5t-199 106.5q-128 0 -202 -107t-74 -291q0 -186 73.5 -292.5t202.5 -106.5q126 0 199.5 106t73.5 293z
M436 -279q0 54 39 93t94 39q54 0 92.5 -39t38.5 -93q0 -57 -38 -96t-93 -39q-57 0 -95 39t-38 96z" />
    <glyph glyph-name="uni1EE4" unicode="&#x1ee4;" horiz-adv-x="1554" 
d="M215 573v605q0 80 -11 117t-36 51.5t-82 23.5v53h465v-53q-35 -5 -55 -11.5t-36.5 -18t-24 -32.5t-11.5 -51.5t-4 -78.5v-596q0 -214 105 -332.5t294 -118.5q185 0 293.5 117.5t108.5 326.5v601q0 115 -23.5 150t-105.5 44v53h376v-53q-82 -9 -105.5 -45.5t-23.5 -153.5
v-593q0 -277 -149 -440t-410 -163q-265 0 -415 159.5t-150 438.5zM653 -279q0 54 39 93t94 39q54 0 93 -39t39 -93q0 -57 -38 -96t-94 -39q-57 0 -95 39t-38 96z" />
    <glyph glyph-name="uni1EE5" unicode="&#x1ee5;" horiz-adv-x="1124" 
d="M170 311v445q0 82 -19.5 115.5t-74.5 43.5v54h284v-654q0 -96 42 -147t116 -51q72 0 133 49t101 131v461q0 85 -20 117.5t-77 39.5v54h287v-752q0 -77 14 -96t74 -25v-53l-266 -53h-10v155h-15q-49 -78 -122 -124t-162 -46q-126 0 -205.5 89.5t-79.5 246.5zM436 -279
q0 54 39 93t94 39q54 0 92.5 -39t38.5 -93q0 -57 -38 -96t-93 -39q-57 0 -95 39t-38 96z" />
    <glyph glyph-name="Ygrave" unicode="&#x1ef2;" horiz-adv-x="1396" 
d="M725 1833l106 -293h-88l-262 287v6h244zM1014 1423h379v-53q-76 -18 -122 -60t-110 -141l-356 -569v-350q0 -113 23.5 -147.5t105.5 -49.5v-53h-465v53q44 7 67 16.5t39 31.5t20.5 55.5t4.5 93.5v330l-367 602q-52 93 -94 132t-112 56v53h475v-53q-74 -21 -74 -70
q0 -41 55 -135l260 -432h13l268 432q59 95 59 138q0 25 -16 41t-53 26v53z" />
    <glyph glyph-name="ygrave" unicode="&#x1ef3;" horiz-adv-x="1040" 
d="M543 1419l106 -293h-88l-260 285v8h242zM725 969h307v-54q-62 -23 -97.5 -64.5t-66.5 -125.5l-336 -872q-114 -291 -348 -291q-86 0 -135 32v173q69 -29 144 -29q190 0 264 194l20 54l-313 743q-36 88 -67.5 125.5t-90.5 60.5v54h402v-54q-74 -20 -74 -67q0 -32 33 -111
l200 -487h13l186 485q29 82 29 107q0 50 -70 73v54z" />
    <glyph glyph-name="uni2002" unicode="&#x2002;" horiz-adv-x="1024" 
 />
    <glyph glyph-name="uni2003" unicode="&#x2003;" horiz-adv-x="2048" 
 />
    <glyph glyph-name="uni2009" unicode="&#x2009;" horiz-adv-x="256" 
 />
    <glyph glyph-name="uni200A" unicode="&#x200a;" horiz-adv-x="86" 
 />
    <glyph glyph-name="endash" unicode="&#x2013;" horiz-adv-x="1073" 
d="M954 514h-833v111h833v-111z" />
    <glyph glyph-name="emdash" unicode="&#x2014;" horiz-adv-x="1630" 
d="M1511 514h-1390v111h1390v-111z" />
    <glyph glyph-name="quoteleft" unicode="&#x2018;" horiz-adv-x="473" 
d="M373 981q0 -61 -40 -101t-100 -40q-63 0 -107 46t-44 113q0 71 57 166l146 258h94l-178 -305q6 2 26 2q62 0 104 -39t42 -100z" />
    <glyph glyph-name="quoteright" unicode="&#x2019;" horiz-adv-x="475" 
d="M408 1290q0 -40 -12.5 -76.5t-43.5 -89.5l-145 -260h-96l180 307q-6 -2 -27 -2q-62 0 -104.5 39.5t-42.5 98.5q0 61 39.5 101t99.5 40q63 0 107.5 -46t44.5 -112z" />
    <glyph glyph-name="quotesinglbase" unicode="&#x201a;" horiz-adv-x="499" 
d="M395 96q0 -70 -55 -166l-145 -260h-97l181 307q-6 -2 -27 -2q-62 0 -105 39.5t-43 98.5q0 61 40 101t100 40q63 0 107 -46t44 -112z" />
    <glyph glyph-name="quotedblleft" unicode="&#x201c;" horiz-adv-x="860" 
d="M287 1423h94l-178 -305q6 2 26 2q62 0 104 -39t42 -100t-39.5 -101t-99.5 -40q-63 0 -107.5 46t-44.5 113q0 64 55 166zM762 981q0 -61 -40.5 -101t-100.5 -40q-63 0 -106.5 46t-43.5 113q0 64 55 166l146 258h94l-176 -305q6 2 24 2q62 0 105 -39t43 -100z" />
    <glyph glyph-name="quotedblright" unicode="&#x201d;" horiz-adv-x="862" 
d="M408 1290q0 -40 -12.5 -76.5t-43.5 -89.5l-145 -260h-96l180 307q-6 -2 -27 -2q-62 0 -104.5 39.5t-42.5 98.5q0 61 39.5 101t99.5 40q63 0 107.5 -46t44.5 -112zM795 1290q0 -40 -12.5 -76.5t-43.5 -89.5l-145 -260h-96l180 307q-6 -2 -27 -2q-62 0 -104.5 39.5
t-42.5 98.5q0 61 39.5 101t99.5 40q63 0 107.5 -46t44.5 -112z" />
    <glyph glyph-name="quotedblbase" unicode="&#x201e;" horiz-adv-x="888" 
d="M395 96q0 -70 -55 -166l-145 -260h-97l181 307q-6 -2 -27 -2q-62 0 -105 39.5t-43 98.5q0 61 40 101t100 40q63 0 107 -46t44 -112zM782 96q0 -70 -55 -166l-145 -260h-97l181 307q-6 -2 -27 -2q-62 0 -104.5 39.5t-42.5 98.5q0 61 39.5 101t99.5 40q63 0 107 -46
t44 -112z" />
    <glyph glyph-name="dagger" unicode="&#x2020;" horiz-adv-x="1032" 
d="M623 -299h-217l59 1325l-410 -59v207l410 -58l-59 477h217l-60 -477l414 58v-207l-414 59z" />
    <glyph glyph-name="daggerdbl" unicode="&#x2021;" horiz-adv-x="1130" 
d="M672 -299h-217l59 479l-410 -59v209l410 -60l-47 377l47 379l-410 -59v207l410 -58l-59 477h217l-60 -477l414 58v-207l-414 59l50 -379l-50 -377l414 60v-209l-414 59z" />
    <glyph glyph-name="bullet" unicode="&#x2022;" horiz-adv-x="866" 
d="M156 559q0 113 82 196t196 83q112 0 195.5 -83t83.5 -196q0 -114 -83 -196t-196 -82q-114 0 -196 82t-82 196z" />
    <glyph glyph-name="ellipsis" unicode="&#x2026;" horiz-adv-x="1732" 
d="M1352 115q0 57 41 98t100 41q57 0 98 -41t41 -98t-41 -98.5t-98 -41.5t-99 41.5t-42 98.5zM717 115q0 57 40.5 98t100.5 41q57 0 98 -41t41 -98t-41 -98.5t-98 -41.5t-99 41.5t-42 98.5zM102 115q0 57 41 98t101 41q57 0 98 -41t41 -98t-41 -98.5t-98 -41.5t-99.5 41.5
t-42.5 98.5z" />
    <glyph glyph-name="perthousand" unicode="&#x2030;" horiz-adv-x="2043" 
d="M389 686q-135 0 -229 106t-94 273t94 272t229 105t229.5 -105.5t94.5 -271.5q0 -167 -94.5 -273t-229.5 -106zM225 0l983 1423h127l-983 -1423h-127zM389 784q73 0 114.5 74t41.5 207q0 134 -42.5 207.5t-113.5 73.5q-73 0 -114.5 -74t-41.5 -207t41.5 -207t114.5 -74z
M1985 365q0 -167 -94 -273t-232 -106q-147 0 -240 120q-93 -120 -241 -120q-135 0 -229.5 106t-94.5 273q0 166 94 271t230 105q149 0 241 -118q44 56 107 87t133 31q138 0 232 -104.5t94 -271.5zM1333 365q0 134 -42 207t-113 73q-73 0 -114.5 -74t-41.5 -206
q0 -133 41.5 -207t114.5 -74q72 0 113.5 74t41.5 207zM1817 365q0 134 -42.5 207t-115.5 73q-72 0 -113 -73.5t-41 -206.5q0 -129 42 -205t112 -76q74 0 116 74t42 207z" />
    <glyph glyph-name="guilsinglleft" unicode="&#x2039;" horiz-adv-x="747" 
d="M653 18l-63 -43l-506 510l506 508l63 -43l-338 -465z" />
    <glyph glyph-name="guilsinglright" unicode="&#x203a;" horiz-adv-x="749" 
d="M96 948l64 45l506 -510l-506 -510l-64 45l338 463z" />
    <glyph glyph-name="uni203D" unicode="&#x203d;" horiz-adv-x="978" 
d="M897 1065q0 -144 -103.5 -258.5t-293.5 -196.5l-11 -215h-100l-45 895q-141 -13 -252 -121l-53 58q170 221 422 221q186 0 311 -107.5t125 -275.5zM506 729q188 114 188 297q0 82 -43.5 146.5t-118.5 95.5zM582 115q0 -57 -42.5 -98.5t-99.5 -41.5t-98 41.5t-41 98.5
t41 98t98 41q60 0 101 -41t41 -98z" />
    <glyph glyph-name="fraction" unicode="&#x2044;" horiz-adv-x="370" 
d="M618 1423h127l-983 -1423h-127z" />
    <glyph glyph-name="uni2070" unicode="&#x2070;" horiz-adv-x="985" 
d="M76 1255q0 202 118 332.5t298 130.5q181 0 298 -130t117 -333q0 -202 -117 -331t-298 -129t-298.5 129t-117.5 331zM715 1255q0 166 -59.5 262.5t-163.5 96.5t-165 -96.5t-61 -262.5q0 -164 61 -260t165 -96q103 0 163 95.5t60 260.5z" />
    <glyph glyph-name="uni2074" unicode="&#x2074;" horiz-adv-x="880" 
d="M633 821h-158v215h-440v88l508 582h90v-526h190v-144h-190v-215zM205 1190v-10h270v311h-8z" />
    <glyph glyph-name="uni2075" unicode="&#x2075;" horiz-adv-x="768" 
d="M35 977l51 45q96 -96 209 -96q96 0 154.5 46.5t58.5 121.5q0 69 -49 110t-133 41q-107 0 -195 -61h-8l76 508h473v-170h-414l-35 -224h10q73 64 179 64q111 0 188 -74q78 -75 78 -186q0 -133 -92 -219q-91 -88 -234 -88q-197 0 -317 182z" />
    <glyph glyph-name="uni2076" unicode="&#x2076;" horiz-adv-x="833" 
d="M125 989q-47 100 -47 219q0 190 96 318q68 93 161 142.5t202 49.5q126 0 227 -76l-31 -59q-77 41 -162 41q-137 0 -222 -96t-89 -260h8q76 108 221 108q111 0 187 -73q78 -72 78 -191q0 -136 -94.5 -226.5t-233.5 -90.5q-103 0 -179.5 50t-121.5 144zM573 1083
q0 84 -41 133.5t-110 49.5q-55 0 -96 -31.5t-62 -83.5v-57q0 -100 38.5 -156.5t109.5 -56.5q72 0 116.5 55.5t44.5 146.5z" />
    <glyph glyph-name="uni2077" unicode="&#x2077;" horiz-adv-x="741" 
d="M700 1604l-378 -783h-230v8l467 682v9h-500v172h641v-88z" />
    <glyph glyph-name="uni2078" unicode="&#x2078;" horiz-adv-x="856" 
d="M76 1061q0 82 59.5 142t157.5 79v8q-84 20 -132 72t-48 121q0 101 88 168t227 67t226 -67t87 -168q0 -69 -48 -121t-132 -72v-8q102 -20 160.5 -80.5t58.5 -140.5q0 -119 -96 -192.5t-256 -73.5t-256 73.5t-96 192.5zM563 1477q0 71 -37.5 114t-97.5 43t-97.5 -43
t-37.5 -114t37 -112.5t98 -41.5q62 0 98.5 41t36.5 113zM600 1061q0 83 -48 132.5t-124 49.5t-125 -49.5t-49 -132.5t48.5 -131.5t125.5 -48.5q76 0 124 48.5t48 131.5z" />
    <glyph glyph-name="uni2079" unicode="&#x2079;" horiz-adv-x="833" 
d="M711 1524q45 -89 45 -217q0 -88 -25 -172t-72 -146q-142 -194 -360 -194q-127 0 -227 77l30 58q74 -39 162 -39q137 0 222 95.5t89 260.5h-8q-76 -110 -221 -110q-110 0 -186 73q-78 75 -78 191q0 136 94.5 226.5t233.5 90.5q103 0 179.5 -50t121.5 -144zM260 1430
q0 -84 42 -133.5t112 -49.5q104 0 157 117v55q0 100 -38 156.5t-109 56.5q-72 0 -118 -56t-46 -146z" />
    <glyph glyph-name="uni2080" unicode="&#x2080;" horiz-adv-x="985" 
d="M76 209q0 202 118 332.5t298 130.5q181 0 298 -130t117 -333q0 -202 -117 -331.5t-298 -129.5t-298.5 129.5t-117.5 331.5zM715 209q0 166 -59.5 262t-163.5 96t-165 -96t-61 -262q0 -164 61 -260t165 -96q103 0 163 95.5t60 260.5z" />
    <glyph glyph-name="uni2081" unicode="&#x2081;" horiz-adv-x="708" 
d="M332 -225v536h-285v82q180 12 255 66t93 200h107v-884h-170z" />
    <glyph glyph-name="uni2082" unicode="&#x2082;" horiz-adv-x="772" 
d="M70 -225v88l200 172q126 106 175 171.5t49 141.5q0 85 -53.5 133.5t-139.5 48.5q-101 0 -188 -73l-52 51q59 76 140 120t172 44q134 0 218.5 -78.5t84.5 -198.5q0 -105 -61 -185t-214 -194l-82 -63v-8h365v-170h-614z" />
    <glyph glyph-name="uni2083" unicode="&#x2083;" horiz-adv-x="784" 
d="M49 -70l49 45q94 -94 209 -94q93 0 152 45.5t59 118.5q0 133 -199 139v74l185 209v8h-404v170h598v-88l-258 -293v-8q118 -13 185 -75.5t67 -155.5q0 -118 -92.5 -197.5t-232.5 -79.5q-202 0 -318 182z" />
    <glyph glyph-name="uni2084" unicode="&#x2084;" horiz-adv-x="880" 
d="M633 -225h-158v215h-440v88l508 581h90v-526h190v-143h-190v-215zM205 143v-10h270v311h-8z" />
    <glyph glyph-name="uni2085" unicode="&#x2085;" horiz-adv-x="768" 
d="M37 -70l51 45q96 -96 209 -96q96 0 154.5 46.5t58.5 121.5q0 69 -49 110.5t-133 41.5q-106 0 -195 -62h-8l76 508h473v-170h-414l-35 -223h11q72 63 178 63q112 0 188 -73q78 -75 78 -187q0 -133 -92 -219q-91 -88 -234 -88q-197 0 -317 182z" />
    <glyph glyph-name="uni2086" unicode="&#x2086;" horiz-adv-x="833" 
d="M125 -59q-47 100 -47 219q0 189 96 317q68 93 161 143t202 50q126 0 227 -76l-31 -59q-76 40 -162 40q-137 0 -222 -96t-89 -260h8q77 109 221 109q110 0 187 -74q78 -72 78 -191q0 -136 -94.5 -226.5t-233.5 -90.5q-207 0 -301 195zM573 35q0 84 -41 133t-110 49
q-55 0 -96 -31.5t-62 -83.5v-57q0 -100 38.5 -156.5t109.5 -56.5q72 0 116.5 56t44.5 147z" />
    <glyph glyph-name="uni2087" unicode="&#x2087;" horiz-adv-x="739" 
d="M700 557l-378 -782h-230v8l467 682v8h-500v172h641v-88z" />
    <glyph glyph-name="uni2088" unicode="&#x2088;" horiz-adv-x="856" 
d="M76 12q0 82 59.5 142t157.5 79v9q-84 20 -132 71.5t-48 120.5q0 101 88 168.5t227 67.5t226 -67.5t87 -168.5q0 -69 -48 -120.5t-132 -71.5v-9q102 -20 160.5 -80.5t58.5 -140.5q0 -119 -96 -192.5t-256 -73.5t-256 73.5t-96 192.5zM563 428q0 72 -37.5 115t-97.5 43
t-97.5 -43t-37.5 -115q0 -71 37 -112.5t98 -41.5q62 0 98.5 41t36.5 113zM600 12q0 84 -48 133.5t-124 49.5t-125 -50t-49 -133t48.5 -131.5t125.5 -48.5q76 0 124 48.5t48 131.5z" />
    <glyph glyph-name="uni2089" unicode="&#x2089;" horiz-adv-x="833" 
d="M711 475q45 -89 45 -217q0 -88 -25 -171.5t-72 -145.5q-143 -195 -360 -195q-126 0 -227 78l30 57q74 -39 162 -39q137 0 222 96t89 261h-8q-77 -111 -221 -111q-109 0 -186 74q-78 75 -78 190q0 136 94.5 227t233.5 91q207 0 301 -195zM260 381q0 -84 42 -133t112 -49
q104 0 157 116v56q0 100 -38 156.5t-109 56.5q-72 0 -118 -56.5t-46 -146.5z" />
    <glyph glyph-name="uni20A6" unicode="&#x20a6;" horiz-adv-x="1325" 
d="M1247 762v-105h-186v-657h-135l-324 657h-223v-399q0 -81 9.5 -117.5t32 -53.5t77.5 -34v-53h-342v53q53 17 74.5 33.5t30.5 53t9 118.5v399h-186v105h186v461l-90 159v11h250l311 -631h213v371q0 82 -10 119t-32 53t-81 34v54h343v-54q-53 -15 -75 -33.5t-30 -54.5
t-8 -118v-371h186zM379 1087v-325h172l-160 325h-12zM940 356h14v301h-161z" />
    <glyph glyph-name="uni20A9" unicode="&#x20a9;" horiz-adv-x="2142" 
d="M2048 1339q-71 -13 -105 -57.5t-69 -151.5l-78 -241h203v-107h-238l-49 -157h281v-107h-316l-166 -518h-120l-297 1038h-13l-331 -1038h-123l-166 518h-326v107h293l-51 157h-242v107h207l-76 239q-34 104 -68.5 149t-101.5 62v54h461v-54q-59 -12 -83.5 -37t-24.5 -67
q0 -41 20 -102l258 -828h12l279 877l-64 211h226l307 -1090h12l260 825q25 80 25 119q0 40 -23.5 62.5t-77.5 29.5v54h365v-54z" />
    <glyph glyph-name="uni20AA" unicode="&#x20aa;" horiz-adv-x="1505" 
d="M197 0v1393h278q254 0 386 -125.5t132 -370.5v-584h-162v586q0 203 -84.5 297t-269.5 94h-106v-1290h-174zM1030 0q-253 0 -385.5 126.5t-132.5 371.5v581h164v-583q0 -206 83 -300t271 -94h105v1291h174v-1393h-279z" />
    <glyph glyph-name="Euro" unicode="&#x20ac;" horiz-adv-x="1343" 
d="M1278 221q-164 -246 -424 -246q-216 0 -376.5 142.5t-205.5 384.5h-174v106h162q-2 14 -2 66q0 54 6 106h-166v107h183q52 244 214 387t371 143q169 0 314 -74v-268h-56q-26 115 -92 174.5t-162 59.5q-152 0 -257 -114.5t-138 -307.5h647v-107h-659q-2 -14 -2 -65
q0 -55 6 -107h655v-106h-637q43 -176 155 -271.5t273 -95.5q182 0 314 135z" />
    <glyph glyph-name="uni20B4" unicode="&#x20b4;" horiz-adv-x="1249" 
d="M1147 895v-107h-1057v107h698q107 74 107 192q0 100 -70 161t-188 61q-120 0 -202.5 -64t-112.5 -186h-56v268q69 40 166.5 65t202.5 25q207 0 322.5 -100t115.5 -258q0 -90 -47 -164h121zM90 516v105h1057v-105h-668q-117 -76 -117 -197q0 -110 78.5 -172.5t212.5 -62.5
q130 0 227 77t146 224h55v-274q-187 -136 -424 -136q-215 0 -344 101.5t-129 269.5q0 94 49 170h-143z" />
    <glyph glyph-name="uni20B8" unicode="&#x20b8;" horiz-adv-x="1232" 
d="M1159 1294h-1085v99h1085v-99zM520 1081h-84q-149 0 -222 -48t-85 -156h-55v303h1085v-303h-55q-12 108 -85 156t-222 48h-84v-827q0 -109 24.5 -144t112.5 -57v-53h-465v53q86 19 110.5 54.5t24.5 146.5v827z" />
    <glyph glyph-name="uni20B9" unicode="&#x20b9;" horiz-adv-x="1142" 
d="M1065 1286h-383v-12q177 -60 201 -230h182v-106h-182q-21 -153 -156 -244q-136 -91 -319 -94v-12l577 -580v-8h-272l-586 606v88h192q152 0 245.5 62t111.5 182h-549v106h549q-17 116 -111.5 179t-247.5 63h-190v107h938v-107z" />
    <glyph glyph-name="uni20BA" unicode="&#x20ba;" horiz-adv-x="1284" 
d="M1206 573q-20 -269 -205 -421t-505 -152h-301v53q81 15 101.5 52t20.5 153v285l-190 -56v111l190 55v164l-190 -55v110l190 56v209q0 83 -10.5 122t-34 55t-75.5 25v54h434v-54q-76 -12 -98.5 -48t-22.5 -154v-156l514 147v-110l-514 -148v-163l514 147v-111l-514 -147
v-490q232 0 352 121t125 346h219z" />
    <glyph glyph-name="uni20BD" unicode="&#x20bd;" horiz-adv-x="1234" 
d="M481 612v-159h437v-105h-437v-94q0 -110 26 -149.5t105 -51.5v-53h-446v53q75 12 99 51t24 148v96h-183v105h183v702q0 98 -26 138t-95 46v54h485q227 0 364.5 -105t137.5 -284q0 -177 -138 -284.5t-364 -107.5h-172zM481 1290v-575h125q160 0 248 75t88 214
q0 140 -87.5 213t-248.5 73h-125z" />
    <glyph glyph-name="uni20BF" unicode="&#x20bf;" horiz-adv-x="1316" 
d="M809 6v-190h-100v184h-4h-123v-184h-101v184h-348v53q76 15 99.5 50.5t23.5 140.5v913q0 98 -25 136.5t-96 45.5v54h346v188h101v-188h77q40 0 50 -2v190h100v-201q159 -26 245.5 -109.5t86.5 -207.5t-88 -211t-240 -113v-8q186 -19 292.5 -112t106.5 -234
q0 -150 -106.5 -252.5t-296.5 -126.5zM449 1290v-506h172q151 0 231 65t80 191q0 121 -82.5 185.5t-231.5 64.5h-169zM635 102q174 0 269 75t95 220q0 140 -97.5 212.5t-278.5 72.5h-174v-580h186z" />
    <glyph glyph-name="uni2116" unicode="&#x2116;" horiz-adv-x="2465" 
d="M131 53q81 12 106 49t25 148v1040l-96 123v10h299l762 -1079h14v834q0 115 -23.5 149t-105.5 43v53h375v-53q-79 -9 -104 -44.5t-25 -147.5v-1178h-141l-826 1167h-12v-917q0 -111 25 -148t104 -49v-53h-377v53zM1536 692q0 192 117.5 316.5t298.5 124.5
q180 0 296.5 -124.5t116.5 -316.5q0 -193 -116 -315.5t-297 -122.5q-182 0 -299 122.5t-117 315.5zM2185 692q0 153 -63.5 242.5t-169.5 89.5q-107 0 -171.5 -89.5t-64.5 -242.5q0 -154 63.5 -243t172.5 -89t171 88.5t62 243.5zM1608 0h686v109h-686v-109z" />
    <glyph glyph-name="uni2117" unicode="&#x2117;" horiz-adv-x="1708" 
d="M113 727q-3 211 94 384.5t268.5 272t380.5 95.5q155 2 293.5 -55.5t237.5 -157.5t155.5 -240.5t54.5 -298.5q2 -158 -54.5 -298.5t-155.5 -240.5t-237.5 -157.5t-293.5 -55.5q-209 -3 -380.5 95.5t-268.5 272t-94 384.5zM1493 729q3 182 -81 333t-232 236t-326 82
q-135 2 -254 -47.5t-203 -136.5t-132 -208.5t-46 -258.5q0 -140 48 -262t132.5 -208t202.5 -135.5t254 -49.5t254 49.5t202.5 135.5t132.5 208t48 262zM791 645v-172q0 -43 15 -59t58 -21v-51h-286v51q36 5 48.5 20.5t12.5 59.5v512q0 44 -13 61.5t-48 18.5v51h323
q141 0 227 -59.5t86 -171.5q0 -114 -87 -177t-226 -63h-110zM791 1038v-315h73q93 0 142 41.5t49 120.5q0 153 -191 153h-73z" />
    <glyph glyph-name="trademark" unicode="&#x2122;" horiz-adv-x="1748" 
d="M305 1354h-35q-65 0 -97.5 -27t-49.5 -94h-49v190h608v-190h-49q-13 66 -45.5 93.5t-95.5 27.5h-39v-490q0 -49 13.5 -72.5t45.5 -31.5v-45h-266v45q32 6 45.5 29.5t13.5 74.5v490zM805 1274q0 50 -12 71.5t-43 32.5v45h217l215 -499h10l213 499h217v-45q-29 -11 -41 -34
t-12 -72v-412q0 -48 12 -71t41 -29v-45h-250v45q30 6 41.5 27.5t11.5 72.5v385h-8l-223 -530h-68l-229 524h-10v-379q0 -49 12.5 -71.5t42.5 -28.5v-45h-192v45q31 6 43 28t12 72v414z" />
    <glyph glyph-name="Omega" unicode="&#x2126;" horiz-adv-x="1556" 
d="M139 0v182h432v23q-213 56 -338 211q-124 154 -124 366q-3 183 84.5 337t243 243t343.5 86q186 3 342 -86t244.5 -243t85.5 -337q0 -207 -125 -362q-127 -157 -336 -215v-23h430v-182h-547v238q156 37 250.5 181.5t94.5 352.5q0 256 -120 408.5t-319 152.5
q-200 0 -319 -153.5t-119 -407.5q0 -211 94 -354q93 -141 248 -180v-238h-545z" />
    <glyph glyph-name="onethird" unicode="&#x2153;" horiz-adv-x="1996" 
d="M334 594v510h-271v78q170 12 242.5 64.5t87.5 189.5h103v-842h-162zM1532 1423h-127l-983 -1423h127zM1280 147l49 43q91 -88 199 -88q88 0 144.5 43.5t56.5 112.5q0 125 -189 131v72l174 198v9h-383v161h567v-84l-243 -278v-8q111 -13 175 -72.5t64 -146.5
q0 -113 -88 -189t-223 -76q-184 0 -303 172z" />
    <glyph glyph-name="twothirds" unicode="&#x2154;" horiz-adv-x="1986" 
d="M76 596v84l192 164q118 98 165.5 162.5t47.5 136.5q0 80 -52 127t-132 47q-97 0 -178 -72l-49 49q125 156 295 156q128 0 208 -74t80 -190q0 -104 -61 -180t-199 -181l-80 -59v-8h349v-162h-586zM1540 1423h-127l-983 -1423h127zM1288 147l49 43q91 -88 199 -88
q88 0 144.5 43.5t56.5 112.5q0 125 -189 131v72l174 198v9h-383v161h568v-84l-244 -278v-8q112 -13 176 -72.5t64 -146.5q0 -113 -88 -189t-224 -76q-184 0 -303 172z" />
    <glyph glyph-name="uni2155" unicode="&#x2155;" horiz-adv-x="1998" 
d="M334 594v510h-271v78q170 12 242.5 64.5t87.5 189.5h103v-842h-162zM1532 1423h-127l-983 -1423h127zM1282 147l47 43q90 -90 199 -90q91 0 147 44t56 116q0 66 -47.5 104.5t-127.5 38.5q-104 0 -184 -57h-8l72 483h450v-161h-393l-33 -213h8q73 61 172 61q104 0 179 -72
q73 -70 73 -178q0 -127 -88 -209q-85 -82 -221 -82q-190 0 -301 172z" />
    <glyph glyph-name="uni2156" unicode="&#x2156;" horiz-adv-x="1986" 
d="M76 596v84l192 164q118 98 165.5 162.5t47.5 136.5q0 80 -52 127t-132 47q-97 0 -178 -72l-49 49q125 156 295 156q128 0 208 -74t80 -190q0 -104 -61 -180t-199 -181l-80 -59v-8h349v-162h-586zM1540 1423h-127l-983 -1423h127zM1290 147l47 43q90 -90 199 -90
q91 0 147 44t56 116q0 66 -47 104.5t-127 38.5q-105 0 -185 -57h-8l72 483h450v-161h-393l-33 -213h9q73 61 172 61q103 0 178 -72q74 -71 74 -178q0 -126 -89 -209q-85 -82 -221 -82q-190 0 -301 172z" />
    <glyph glyph-name="uni2157" unicode="&#x2157;" horiz-adv-x="2004" 
d="M47 743l49 43q91 -88 199 -88q88 0 144.5 43.5t56.5 112.5q0 125 -189 131v72l174 198v9h-383v161h568v-84l-244 -278v-8q112 -13 176 -72.5t64 -146.5q0 -112 -89 -189q-88 -76 -223 -76q-184 0 -303 172zM1556 1423h-126l-984 -1423h127zM1307 147l47 43
q90 -90 198 -90q91 0 147 44t56 116q0 66 -47 104.5t-127 38.5q-104 0 -184 -57h-8l71 483h451v-161h-393l-33 -213h8q73 61 172 61q103 0 178 -72q74 -71 74 -178q0 -127 -88 -209q-85 -82 -221 -82q-190 0 -301 172z" />
    <glyph glyph-name="uni2158" unicode="&#x2158;" horiz-adv-x="2111" 
d="M631 594h-150v205h-420v84l486 553h84v-500h182v-137h-182v-205zM223 944v-8h258v295h-8zM1642 1423h-126l-984 -1423h127zM1393 147l47 43q90 -90 198 -90q91 0 147 44t56 116q0 66 -47 104.5t-127 38.5q-104 0 -184 -57h-8l71 483h451v-161h-393l-33 -213h8
q73 61 172 61q103 0 178 -72q74 -71 74 -178q0 -127 -88 -209q-85 -82 -221 -82q-190 0 -301 172z" />
    <glyph glyph-name="uni2159" unicode="&#x2159;" horiz-adv-x="2031" 
d="M334 594v510h-271v78q170 12 242.5 64.5t87.5 189.5h103v-842h-162zM1532 1423h-127l-983 -1423h127zM1337 160q-43 87 -43 209q0 179 90 301q138 184 345 184q120 0 217 -72l-31 -55q-75 37 -152 37q-131 0 -212 -91.5t-87 -248.5h11q73 104 208 104q106 0 179 -70
t73 -179q0 -129 -90 -216.5t-221 -87.5q-99 0 -172 48t-115 137zM1765 250q0 78 -39.5 126t-105.5 48q-104 0 -152 -111v-53q0 -94 37.5 -148.5t104.5 -54.5q69 0 112 53.5t43 139.5z" />
    <glyph glyph-name="uni215A" unicode="&#x215a;" horiz-adv-x="2035" 
d="M43 741l47 43q90 -90 199 -90q91 0 147 44t56 116q0 66 -47.5 104.5t-127.5 38.5q-104 0 -184 -57h-8l72 483h450v-161h-393l-33 -213h8q73 61 172 61q104 0 179 -72q73 -70 73 -178q0 -127 -88 -209q-85 -82 -221 -82q-190 0 -301 172zM1546 1423h-127l-983 -1423h127z
M1352 160q-43 87 -43 209q0 179 90 301q138 184 344 184q120 0 217 -72l-31 -55q-75 37 -151 37q-131 0 -212 -91.5t-87 -248.5h10q73 104 209 104q106 0 179 -70t73 -179q0 -129 -90.5 -216.5t-221.5 -87.5q-98 0 -171 48t-115 137zM1780 250q0 78 -40 126t-106 48
q-103 0 -151 -111v-53q0 -95 37 -149t104 -54q69 0 112.5 53.5t43.5 139.5z" />
    <glyph glyph-name="oneeighth" unicode="&#x215b;" horiz-adv-x="2054" 
d="M334 594v510h-271v78q170 12 242.5 64.5t87.5 189.5h103v-842h-162zM1532 1423h-127l-983 -1423h127zM1303 227q0 78 56 136t150 75v8q-80 20 -125 68.5t-45 114.5q0 98 83.5 161.5t215.5 63.5t215.5 -63.5t83.5 -161.5q0 -66 -46 -114.5t-126 -68.5v-8q96 -19 151.5 -76
t55.5 -135q0 -113 -90.5 -182.5t-243.5 -69.5t-244 69.5t-91 182.5zM1765 625q0 67 -35 108t-92 41t-93 -41t-36 -108t35.5 -106.5t93.5 -39.5q57 0 92 39.5t35 106.5zM1802 227q0 79 -45 126.5t-119 47.5t-119.5 -47.5t-45.5 -126.5q0 -78 45.5 -125t119.5 -47t119 46.5
t45 125.5z" />
    <glyph glyph-name="threeeighths" unicode="&#x215c;" horiz-adv-x="2068" 
d="M51 743l49 43q91 -88 199 -88q88 0 144.5 43.5t56.5 112.5q0 125 -189 131v72l174 198v9h-383v161h568v-84l-244 -278v-8q112 -13 176 -72.5t64 -146.5q0 -113 -88 -189t-224 -76q-184 0 -303 172zM1559 1423h-127l-983 -1423h126zM1329 227q0 78 56.5 136t150.5 75v8
q-80 20 -125 68.5t-45 114.5q0 98 83.5 161.5t215.5 63.5t215.5 -63.5t83.5 -161.5q0 -66 -46 -114.5t-126 -68.5v-8q96 -19 151.5 -76t55.5 -135q0 -113 -90.5 -182.5t-243.5 -69.5t-244.5 69.5t-91.5 182.5zM1792 625q0 67 -35 108t-92 41t-93 -41t-36 -108t35.5 -106.5
t93.5 -39.5q57 0 92 39.5t35 106.5zM1829 227q0 79 -45 126.5t-119 47.5t-120 -47.5t-46 -126.5q0 -78 46 -125t120 -47t119 46.5t45 125.5z" />
    <glyph glyph-name="fiveeighths" unicode="&#x215d;" horiz-adv-x="2062" 
d="M45 741l47 43q90 -90 199 -90q91 0 147 44t56 116q0 66 -47.5 104.5t-127.5 38.5q-104 0 -184 -57h-8l72 483h450v-161h-393l-33 -213h8q73 61 172 61q104 0 179 -72q73 -70 73 -178q0 -127 -88 -209q-85 -82 -221 -82q-190 0 -301 172zM1548 1423h-127l-983 -1423h127z
M1317 227q0 78 56.5 136t150.5 75v8q-80 20 -125 68.5t-45 114.5q0 98 83.5 161.5t215.5 63.5t215.5 -63.5t83.5 -161.5q0 -66 -46 -114.5t-126 -68.5v-8q96 -19 151.5 -76t55.5 -135q0 -113 -90.5 -182.5t-243.5 -69.5t-244.5 69.5t-91.5 182.5zM1780 625q0 67 -35 108
t-92 41t-93 -41t-36 -108t35.5 -106.5t93.5 -39.5q57 0 92 39.5t35 106.5zM1817 227q0 79 -45 126.5t-119 47.5t-120 -47.5t-46 -126.5q0 -78 46 -125t120 -47t119 46.5t45 125.5z" />
    <glyph glyph-name="seveneighths" unicode="&#x215e;" horiz-adv-x="2037" 
d="M678 1339l-361 -745h-217v8l445 649v9h-477v163h610v-84zM1528 1423h-127l-983 -1423h127zM1296 227q0 78 56.5 136t150.5 75v8q-80 20 -125 68.5t-45 114.5q0 98 83.5 161.5t215.5 63.5t215.5 -63.5t83.5 -161.5q0 -66 -46 -114.5t-126 -68.5v-8q96 -19 151.5 -76
t55.5 -135q0 -113 -90.5 -182.5t-243.5 -69.5t-244.5 69.5t-91.5 182.5zM1759 625q0 67 -35 108t-92 41t-93 -41t-36 -108t35.5 -106.5t93.5 -39.5q57 0 92 39.5t35 106.5zM1796 227q0 79 -45 126.5t-119 47.5t-120 -47.5t-46 -126.5q0 -78 46 -125t120 -47t119 46.5
t45 125.5z" />
    <glyph glyph-name="uni215F" unicode="&#x215f;" horiz-adv-x="1378" 
d="M477 594v510h-270v78q170 12 242.5 64.5t87.5 189.5h102v-842h-162zM1675 1423h-127l-983 -1423h127z" />
    <glyph glyph-name="arrowleft" unicode="&#x2190;" horiz-adv-x="1409" 
d="M408 545h903v-109h-903v-14l331 -348l-53 -60l-598 475v3l598 475l53 -60l-331 -350v-12z" />
    <glyph glyph-name="arrowup" unicode="&#x2191;" horiz-adv-x="1056" 
d="M586 0h-115v1128h-12l-348 -329l-58 51l475 598h2l476 -598l-60 -51l-348 329h-12v-1128z" />
    <glyph glyph-name="arrowright" unicode="&#x2192;" horiz-adv-x="1409" 
d="M98 436v109h903v12l-331 350l53 60l598 -475v-3l-598 -475l-53 60l331 348v14h-903z" />
    <glyph glyph-name="arrowdown" unicode="&#x2193;" horiz-adv-x="1056" 
d="M473 295v1128h113v-1128h14l346 330l60 -52l-476 -598h-2l-475 598l60 52l346 -330h14z" />
    <glyph glyph-name="uni2196" unicode="&#x2196;" horiz-adv-x="1177" 
d="M375 793l735 -736l-76 -80l-739 738l-10 -10l-13 -482l-79 -4l-87 760l3 2l759 -86l-6 -80l-479 -12z" />
    <glyph glyph-name="uni2197" unicode="&#x2197;" horiz-adv-x="1177" 
d="M143 -23l-75 80l735 736l-8 10l-480 12l-6 80l760 86l2 -2l-86 -760l-80 4l-12 482l-10 10z" />
    <glyph glyph-name="uni2198" unicode="&#x2198;" horiz-adv-x="1175" 
d="M801 176l-735 735l75 80l740 -737l10 10l12 481l80 5l86 -760l-2 -2l-758 86l4 80l480 12z" />
    <glyph glyph-name="uni2199" unicode="&#x2199;" horiz-adv-x="1175" 
d="M1034 991l76 -80l-735 -735l10 -10l479 -12l4 -80l-759 -86l-3 2l87 760l79 -5l15 -481l8 -10z" />
    <glyph glyph-name="uni21A4" unicode="&#x21a4;" horiz-adv-x="1505" 
d="M1227 545v385h112v-879h-112v385h-791v-14l332 -348l-53 -60l-598 475v3l598 475l53 -60l-332 -350v-12h791z" />
    <glyph glyph-name="uni21A5" unicode="&#x21a5;" horiz-adv-x="1062" 
d="M602 1128h-12v-1019h366v-109h-847v109h366v1019h-12l-348 -329l-60 51l475 598h5l475 -598l-60 -51z" />
    <glyph glyph-name="uni21A6" unicode="&#x21a6;" horiz-adv-x="1505" 
d="M737 907l54 60l598 -475v-3l-598 -475l-54 60l332 350v12h-790v-385h-113v879h113v-385h790v14z" />
    <glyph glyph-name="uni21A7" unicode="&#x21a7;" horiz-adv-x="1060" 
d="M600 295l348 330l60 -52l-476 -598h-4l-473 598l58 52l348 -330h12v1020h-364v108h845v-108h-366v-1020h12z" />
    <glyph glyph-name="uni21B0" unicode="&#x21b0;" horiz-adv-x="1454" 
d="M410 1049h903v-1049h-113v942h-790v-14l331 -350l-53 -58l-598 473v4l598 476l53 -60l-331 -350v-14z" />
    <glyph glyph-name="uni21B1" unicode="&#x21b1;" horiz-adv-x="1464" 
d="M723 1413l51 60l598 -476v-4l-598 -473l-51 58l332 350v14h-793v-942h-112v1049h905v14z" />
    <glyph glyph-name="uni21B2" unicode="&#x21b2;" horiz-adv-x="1466" 
d="M1202 512v942h113v-1048h-903v-15l331 -350l-53 -59l-598 475v4l598 473l53 -57l-331 -351v-14h790z" />
    <glyph glyph-name="uni21B3" unicode="&#x21b3;" horiz-adv-x="1466" 
d="M723 877l51 57l598 -473v-4l-598 -475l-51 59l332 350v15h-905v1048h112v-942h793v14z" />
    <glyph glyph-name="partialdiff" unicode="&#x2202;" horiz-adv-x="1189" 
d="M49 428q0 192 128 325.5t329 133.5q122 0 219 -64t149 -172h7q8 76 8 125q0 268 -142 419.5t-413 150.5v102q361 12 561.5 -180t200.5 -527q1 -121 -25 -236t-78 -211.5t-124 -169t-167 -112t-202 -37.5q-194 0 -322.5 128t-128.5 325zM840 541q-25 91 -99 145.5
t-176 54.5q-143 0 -225 -102q-84 -104 -84 -256q0 -137 67.5 -222t182.5 -85q138 0 230 132.5t104 332.5z" />
    <glyph glyph-name="emptyset" unicode="&#x2205;" horiz-adv-x="1191" 
d="M942 850q68 -68 105.5 -162.5t37.5 -202.5q0 -217 -141 -363.5t-348 -146.5q-150 0 -272 84l-107 -135l-74 58l109 137q-143 143 -143 366q0 106 38 200t102.5 161.5t155 107t191.5 39.5q152 0 274 -84l107 135l74 -57zM319 207l484 616q-91 60 -207 60q-161 0 -268 -113
t-107 -285q0 -166 98 -278zM973 485q0 164 -99 277l-485 -617q94 -61 207 -61q161 0 269 114.5t108 286.5z" />
    <glyph glyph-name="Delta" unicode="&#x2206;" horiz-adv-x="1261" 
d="M1208 0h-1147v90l502 1333h125l520 -1333v-90zM195 123v-14h778v14l-387 999h-17z" />
    <glyph glyph-name="product" unicode="&#x220f;" horiz-adv-x="1509" 
d="M1391 1370q-78 -7 -103.5 -43.5t-25.5 -136.5v-940q0 -112 23.5 -147t105.5 -50v-53h-463v53q82 15 105.5 50t23.5 147v1065h-600v-1065q0 -112 23.5 -147t105.5 -50v-53h-465v53q84 15 107.5 50t23.5 147v940q0 100 -26.5 136t-104.5 44v53h1270v-53z" />
    <glyph glyph-name="summation" unicode="&#x2211;" horiz-adv-x="1167" 
d="M285 178h792v-178h-999v96l452 592l-456 639v96h989v-305h-55q-23 111 -81 158t-175 47h-426v-8l362 -504v-96l-403 -529v-8z" />
    <glyph glyph-name="minus" unicode="&#x2212;" horiz-adv-x="1161" 
d="M1047 428h-932v111h932v-111z" />
    <glyph glyph-name="uni2215" unicode="&#x2215;" horiz-adv-x="1009" 
d="M938 1423h127l-983 -1423h-127z" />
    <glyph glyph-name="radical" unicode="&#x221a;" horiz-adv-x="1187" 
d="M774 1423h436v-108h-354l-407 -1315h-164l-262 795h120l219 -666h9z" />
    <glyph glyph-name="infinity" unicode="&#x221e;" horiz-adv-x="1470" 
d="M111 541q0 138 87 226.5t216 88.5q93 0 169.5 -53t149.5 -164h8q135 217 316 217q129 0 216 -88.5t87 -226.5q0 -137 -87.5 -227.5t-215.5 -90.5q-95 0 -170.5 52.5t-145.5 164.5h-8q-75 -112 -151 -164.5t-168 -52.5q-133 0 -218 89t-85 229zM684 541q-68 113 -128 162
t-138 49q-87 0 -142 -59t-55 -152t55 -152t142 -59q74 0 136 49.5t130 161.5zM1247 541q0 92 -54.5 151.5t-139.5 59.5q-74 0 -134.5 -49.5t-127.5 -161.5q64 -114 123.5 -162.5t138.5 -48.5q85 0 139.5 59t54.5 152z" />
    <glyph glyph-name="integral" unicode="&#x222b;" horiz-adv-x="733" 
d="M-20 -281v103q56 -21 114 -21q106 0 160.5 61.5t54.5 180.5v1212q0 163 83 255t226 92q82 0 134 -27v-102q-50 20 -113 20q-104 0 -159.5 -61.5t-55.5 -178.5v-1216q0 -164 -82 -254t-229 -90q-71 0 -133 26z" />
    <glyph glyph-name="approxequal" unicode="&#x2248;" horiz-adv-x="1175" 
d="M133 551q-1 121 64 195.5t170 74.5q91 0 200 -59l86 -47q100 -53 152 -53q61 0 94 40.5t33 114.5h115q0 -121 -66 -194.5t-172 -73.5q-87 0 -199 59l-88 47q-91 52 -149 52q-61 0 -94 -41t-33 -115h-113zM133 160q-1 121 64 195.5t170 74.5q91 0 200 -59l86 -47
q102 -54 152 -54q61 0 94 41t33 115h115q0 -121 -66 -194.5t-172 -73.5q-87 0 -199 59l-88 47q-89 51 -149 51q-61 0 -94 -40.5t-33 -114.5h-113z" />
    <glyph glyph-name="notequal" unicode="&#x2260;" horiz-adv-x="1193" 
d="M1063 721v-111h-367l-86 -250h453v-110h-492l-86 -250h-110l86 250h-330v110h369l86 250h-455v111h494l86 248h110l-86 -248h328z" />
    <glyph glyph-name="lessequal" unicode="&#x2264;" horiz-adv-x="1163" 
d="M1042 313v-118l-931 337v121l931 340v-123l-774 -276v-8zM1042 98v-112h-931v112h931z" />
    <glyph glyph-name="greaterequal" unicode="&#x2265;" horiz-adv-x="1163" 
d="M1053 532l-932 -337v118l774 273v8l-774 276v123l932 -340v-121zM1053 -14h-932v112h932v-112z" />
    <glyph glyph-name="angleleft" unicode="&#x2329;" horiz-adv-x="657" 
d="M598 -295l-84 -24l-471 968l471 969l84 -25l-326 -944z" />
    <glyph glyph-name="angleright" unicode="&#x232a;" horiz-adv-x="657" 
d="M61 1589l82 25l471 -969l-471 -969l-82 25l324 944z" />
    <glyph glyph-name="uni2460" unicode="&#x2460;" horiz-adv-x="1662" 
d="M90 727q-3 158 53.5 299t156 241t239 157.5t295.5 54.5q155 2 293.5 -55.5t237.5 -157.5t155.5 -240.5t54.5 -298.5q2 -158 -54.5 -298.5t-155.5 -240.5t-237.5 -157.5t-293.5 -55.5q-156 -3 -295.5 54.5t-239 157.5t-156 241t-53.5 299zM1468 729q0 139 -48.5 260
t-132.5 206.5t-202 135t-254 49.5q-183 0 -328 -84t-225.5 -232.5t-80.5 -334.5q0 -187 82 -337t227.5 -234t327.5 -84q135 -2 253.5 47.5t203 136.5t132 210t45.5 261zM797 311v510h-271v78q170 12 242.5 64.5t87.5 189.5h102v-842h-161z" />
    <glyph glyph-name="uni2461" unicode="&#x2461;" horiz-adv-x="1708" 
d="M113 727q-4 211 93 385t269 272.5t381 94.5q155 2 293.5 -55.5t237.5 -157.5t155.5 -240.5t54.5 -298.5q2 -158 -54.5 -298.5t-155.5 -240.5t-237.5 -157.5t-293.5 -55.5q-209 -4 -381 94.5t-269 272.5t-93 385zM1491 729q0 139 -48.5 260t-132.5 206.5t-202 135
t-254 49.5q-183 0 -328 -84t-226 -233t-81 -334q0 -187 82 -337t227.5 -234t327.5 -84q180 -3 326.5 82t229 236.5t79.5 336.5zM573 324v84l193 163q118 98 165.5 162.5t47.5 136.5q0 80 -52 127t-132 47q-99 0 -179 -71l-49 49q125 156 295 156q128 0 208.5 -74.5
t80.5 -190.5q0 -104 -61 -180q-59 -74 -199 -180l-80 -59v-9h348v-161h-586z" />
    <glyph glyph-name="uni2462" unicode="&#x2462;" horiz-adv-x="1708" 
d="M113 727q-4 211 93 385t269 272.5t381 94.5q155 2 293.5 -55.5t237.5 -157.5t155.5 -240.5t54.5 -298.5q2 -158 -54.5 -298.5t-155.5 -240.5t-237.5 -157.5t-293.5 -55.5q-209 -4 -381 94.5t-269 272.5t-93 385zM1491 729q0 139 -48.5 260t-132.5 206.5t-202 135
t-254 49.5q-183 0 -328 -84t-226 -233t-81 -334q0 -187 82 -337t227.5 -234t327.5 -84q180 -3 326.5 82t229 236.5t79.5 336.5zM532 471l50 43q91 -88 198 -88q88 0 144.5 43.5t56.5 112.5q0 125 -188 131v71l174 199v8h-383v162h567v-84l-244 -278v-9q112 -13 176 -72.5
t64 -146.5q0 -112 -88 -188t-223 -76q-185 0 -304 172z" />
    <glyph glyph-name="uni2463" unicode="&#x2463;" horiz-adv-x="1708" 
d="M113 727q-4 211 93 385t269 272.5t381 94.5q155 2 293.5 -55.5t237.5 -157.5t155.5 -240.5t54.5 -298.5q2 -158 -54.5 -298.5t-155.5 -240.5t-237.5 -157.5t-293.5 -55.5q-209 -4 -381 94.5t-269 272.5t-93 385zM1491 729q0 139 -48.5 260t-132.5 206.5t-202 135
t-254 49.5q-183 0 -328 -84t-226 -233t-81 -334q0 -187 82 -337t227.5 -234t327.5 -84q180 -3 326.5 82t229 236.5t79.5 336.5zM1010 324h-150v204h-420v84l486 553h84v-499h182v-138h-182v-204zM602 674v-8h258v295h-8z" />
    <glyph glyph-name="uni2464" unicode="&#x2464;" horiz-adv-x="1708" 
d="M113 727q-4 211 93 385t269 272.5t381 94.5q155 2 293.5 -55.5t237.5 -157.5t155.5 -240.5t54.5 -298.5q2 -158 -54.5 -298.5t-155.5 -240.5t-237.5 -157.5t-293.5 -55.5q-209 -4 -381 94.5t-269 272.5t-93 385zM1491 729q0 139 -48.5 260t-132.5 206.5t-202 135
t-254 49.5q-183 0 -328 -84t-226 -233t-81 -334q0 -187 82 -337t227.5 -234t327.5 -84q180 -3 326.5 82t229 236.5t79.5 336.5zM518 461l47 43q90 -90 199 -90q91 0 147 43.5t56 115.5q0 66 -47 105t-127 39q-103 0 -185 -58h-8l72 484h450v-162h-393l-33 -213h9
q73 61 172 61q104 0 178 -71q73 -70 73 -178q0 -127 -88 -209q-85 -82 -221 -82q-190 0 -301 172z" />
    <glyph glyph-name="uni2465" unicode="&#x2465;" horiz-adv-x="1708" 
d="M113 727q-4 211 93 385t269 272.5t381 94.5q155 2 293.5 -55.5t237.5 -157.5t155.5 -240.5t54.5 -298.5q2 -158 -54.5 -298.5t-155.5 -240.5t-237.5 -157.5t-293.5 -55.5q-209 -4 -381 94.5t-269 272.5t-93 385zM1491 729q0 139 -48.5 260t-132.5 206.5t-202 135
t-254 49.5q-183 0 -328 -84t-226 -233t-81 -334q0 -187 82 -337t227.5 -234t327.5 -84q180 -3 326.5 82t229 236.5t79.5 336.5zM543 473q-43 87 -43 209q0 179 90 301q138 184 344 184q122 0 217 -71l-31 -56q-75 37 -151 37q-131 0 -212 -91.5t-87 -248.5h10
q74 105 209 105q106 0 179 -70.5t73 -179.5q0 -128 -90.5 -215.5t-221.5 -87.5q-99 0 -171.5 47.5t-114.5 136.5zM971 563q0 78 -40 126t-106 48q-104 0 -151 -110v-54q0 -94 37 -148t104 -54q69 0 112.5 53t43.5 139z" />
    <glyph glyph-name="uni2466" unicode="&#x2466;" horiz-adv-x="1708" 
d="M113 727q-4 211 93 385t269 272.5t381 94.5q155 2 293.5 -55.5t237.5 -157.5t155.5 -240.5t54.5 -298.5q2 -158 -54.5 -298.5t-155.5 -240.5t-237.5 -157.5t-293.5 -55.5q-209 -4 -381 94.5t-269 272.5t-93 385zM1491 729q0 139 -48.5 260t-132.5 206.5t-202 135
t-254 49.5q-183 0 -328 -84t-226 -233t-81 -334q0 -187 82 -337t227.5 -234t327.5 -84q180 -3 326.5 82t229 236.5t79.5 336.5zM1184 1057l-361 -746h-217v8l445 650v8h-478v164h611v-84z" />
    <glyph glyph-name="uni2467" unicode="&#x2467;" horiz-adv-x="1708" 
d="M113 727q-4 211 93 385t269 272.5t381 94.5q155 2 293.5 -55.5t237.5 -157.5t155.5 -240.5t54.5 -298.5q2 -158 -54.5 -298.5t-155.5 -240.5t-237.5 -157.5t-293.5 -55.5q-209 -4 -381 94.5t-269 272.5t-93 385zM1491 729q0 139 -48.5 260t-132.5 206.5t-202 135
t-254 49.5q-183 0 -328 -84t-226 -233t-81 -334q0 -187 82 -337t227.5 -234t327.5 -84q180 -3 326.5 82t229 236.5t79.5 336.5zM518 541q0 78 56.5 136t150.5 75v8q-80 20 -125 68t-45 114q0 98 83.5 161.5t215.5 63.5t215.5 -63.5t83.5 -161.5q0 -65 -46 -113.5t-126 -68.5
v-8q96 -19 151.5 -76t55.5 -135q0 -113 -90.5 -182.5t-243.5 -69.5t-244.5 69.5t-91.5 182.5zM981 938q0 67 -35 108t-92 41t-93 -41t-36 -108t35.5 -106t93.5 -39t92.5 39t34.5 106zM1018 541q0 79 -45 126.5t-119 47.5t-120 -47.5t-46 -126.5q0 -78 46 -125t120 -47
t119 46.5t45 125.5z" />
    <glyph glyph-name="uni2468" unicode="&#x2468;" horiz-adv-x="1708" 
d="M113 727q-4 211 93 385t269 272.5t381 94.5q155 2 293.5 -55.5t237.5 -157.5t155.5 -240.5t54.5 -298.5q2 -158 -54.5 -298.5t-155.5 -240.5t-237.5 -157.5t-293.5 -55.5q-209 -4 -381 94.5t-269 272.5t-93 385zM1491 729q0 139 -48.5 260t-132.5 206.5t-202 135
t-254 49.5q-183 0 -328 -84t-226 -233t-81 -334q0 -187 82 -337t227.5 -234t327.5 -84q180 -3 326.5 82t229 236.5t79.5 336.5zM1147 981q43 -87 43 -209q0 -179 -90 -301q-138 -184 -344 -184q-122 0 -217 71l30 56q75 -37 152 -37q131 0 212 91.5t87 248.5h-10
q-74 -105 -209 -105q-106 0 -179 70.5t-73 179.5q0 129 90 216t221 87q99 0 172 -47.5t115 -136.5zM719 891q0 -78 39.5 -126t105.5 -48q53 0 92 30t60 80v54q0 94 -37.5 148t-104.5 54q-69 0 -112 -53t-43 -139z" />
    <glyph glyph-name="uni24EA" unicode="&#x24ea;" horiz-adv-x="1708" 
d="M113 727q-4 211 93 385t269 272.5t381 94.5q155 2 293.5 -55.5t237.5 -157.5t155.5 -240.5t54.5 -298.5q2 -158 -54.5 -298.5t-155.5 -240.5t-237.5 -157.5t-293.5 -55.5q-209 -4 -381 94.5t-269 272.5t-93 385zM1491 729q0 139 -48.5 260t-132.5 206.5t-202 135
t-254 49.5q-183 0 -328 -84t-226 -233t-81 -334q0 -187 82 -337t227.5 -234t327.5 -84q180 -3 326.5 82t229 236.5t79.5 336.5zM459 727q0 191 112 315.5t283 124.5q172 0 284.5 -123.5t112.5 -316.5t-112 -315.5t-285 -122.5q-171 0 -283 123t-112 315zM1069 727
q0 158 -57.5 250t-157.5 92q-98 0 -155.5 -92t-57.5 -250t57.5 -249t155.5 -91q100 0 157.5 91t57.5 249z" />
    <glyph glyph-name="uni24FF" unicode="&#x24ff;" horiz-adv-x="1708" 
d="M1599 727q3 -211 -94 -385t-268.5 -272.5t-380.5 -94.5q-156 -3 -296 55t-240 158.5t-157 241.5t-54 297q-3 156 54 297t157 241.5t240 158.5t296 55q209 4 380.5 -94.5t268.5 -272.5t94 -385zM459 727q0 -192 112 -315t283 -123q173 0 285 122.5t112 315.5t-112.5 316.5
t-284.5 123.5q-171 0 -283 -124.5t-112 -315.5zM1069 727q0 -158 -57.5 -249t-157.5 -91q-98 0 -155.5 91t-57.5 249t57.5 250t155.5 92q100 0 157.5 -92t57.5 -250z" />
    <glyph glyph-name="lozenge" unicode="&#x25ca;" horiz-adv-x="1198" 
d="M633 0h-103l-436 711l467 712h101l442 -714zM633 207h14l277 418l-363 587h-12l-275 -419z" />
    <glyph glyph-name="openbullet" unicode="&#x25e6;" horiz-adv-x="911" 
d="M156 557q0 124 89 212.5t212 88.5t210 -87t87 -210q0 -125 -87.5 -212t-213.5 -87q-121 0 -209 87.5t-88 207.5zM655 561q0 85 -58 144t-140 59q-85 0 -144 -60.5t-59 -146.5q0 -84 58.5 -142.5t140.5 -58.5q85 0 143.5 59.5t58.5 145.5z" />
    <glyph glyph-name="uni2776" unicode="&#x2776;" horiz-adv-x="1662" 
d="M1577 727q3 -211 -94 -385t-268.5 -272.5t-380.5 -94.5q-156 -3 -296.5 55t-240 158.5t-157 241.5t-54.5 297q-3 156 54.5 297t157 241.5t240 158.5t296.5 55q209 4 380.5 -94.5t268.5 -272.5t94 -385zM797 821v-510h161v842h-102q-15 -137 -87.5 -189.5t-242.5 -64.5
v-78h271z" />
    <glyph glyph-name="uni2777" unicode="&#x2777;" horiz-adv-x="1662" 
d="M1577 727q3 -211 -94 -385t-268.5 -272.5t-380.5 -94.5q-156 -3 -296.5 55t-240 158.5t-157 241.5t-54.5 297q-3 156 54.5 297t157 241.5t240 158.5t296.5 55q209 4 380.5 -94.5t268.5 -272.5t94 -385zM551 408v-84h586v161h-349v9l80 59q140 106 199 180q61 76 61 180
q0 116 -80 190.5t-208 74.5q-170 0 -295 -156l49 -49q80 71 178 71q80 0 132 -47t52 -127q0 -72 -47.5 -136.5t-165.5 -162.5z" />
    <glyph glyph-name="uni2778" unicode="&#x2778;" horiz-adv-x="1662" 
d="M1577 731q2 -158 -54.5 -298.5t-155.5 -241t-238 -157.5t-295 -54q-156 -3 -296.5 55t-240 158.5t-157 241t-54.5 296.5q-3 156 54.5 297t157 241.5t240 158.5t296.5 55q209 4 380.5 -94.5t268.5 -272.5t94 -385zM561 518l-49 -43q119 -172 303 -172q135 0 223 76t88 188
q0 87 -64 146.5t-175 72.5v9l243 278v84h-567v-162h383v-8l-174 -199v-71q189 -6 189 -131q0 -69 -56.5 -112.5t-144.5 -43.5q-108 0 -199 88z" />
    <glyph glyph-name="uni2779" unicode="&#x2779;" horiz-adv-x="1662" 
d="M1577 729q3 -211 -94 -385t-268.5 -272.5t-380.5 -94.5q-156 -3 -296.5 55t-240 158.5t-157 241.5t-54.5 297q-3 156 54.5 297t157 241.5t240 158.5t296.5 55q209 4 380.5 -94.5t268.5 -272.5t94 -385zM840 326h149v204h182v138h-182v499h-84l-485 -553v-84h420v-204z
M582 668v8l249 287h9v-295h-258z" />
    <glyph glyph-name="uni277A" unicode="&#x277a;" horiz-adv-x="1662" 
d="M1577 731q2 -158 -54.5 -298.5t-155.5 -241t-238 -157.5t-295 -54q-156 -3 -296.5 55t-240 158.5t-157 241t-54.5 296.5q-3 156 54.5 297t157 241.5t240 158.5t296.5 55q209 4 380.5 -94.5t268.5 -272.5t94 -385zM545 508l-47 -43q111 -172 301 -172q136 0 221 82
q88 82 88 209q0 107 -74 178q-75 72 -178 72q-98 0 -172 -62h-8l33 213h393v162h-451l-71 -483h8q80 57 184 57q80 0 127 -38.5t47 -104.5q0 -72 -56 -116t-147 -44q-108 0 -198 90z" />
    <glyph glyph-name="uni277B" unicode="&#x277b;" horiz-adv-x="1662" 
d="M1577 731q2 -158 -54.5 -298.5t-155.5 -241t-238 -157.5t-295 -54q-156 -3 -296.5 55t-240 158.5t-157 241t-54.5 296.5q-3 156 54.5 297t157 241.5t240 158.5t296.5 55q209 4 380.5 -94.5t268.5 -272.5t94 -385zM518 477q42 -89 115 -136.5t172 -47.5q131 0 221 87
t90 216q0 109 -73 179.5t-179 70.5q-136 0 -209 -105h-10q6 157 87 248.5t212 91.5q77 0 152 -37l30 56q-95 71 -217 71q-206 0 -344 -184q-90 -122 -90 -301q0 -122 43 -209zM946 567q0 -86 -43 -139t-112 -53q-67 0 -104.5 54.5t-37.5 148.5v53q21 50 60 80t92 30
q66 0 105.5 -48t39.5 -126z" />
    <glyph glyph-name="uni277C" unicode="&#x277c;" horiz-adv-x="1662" 
d="M1577 727q3 -211 -94 -385t-268.5 -272.5t-380.5 -94.5q-156 -3 -296.5 55t-240 158.5t-157 241.5t-54.5 297q-3 156 54.5 297t157 241.5t240 158.5t296.5 55q209 4 380.5 -94.5t268.5 -272.5t94 -385zM803 311l360 746v84h-610v-164h477v-8l-444 -650v-8h217z" />
    <glyph glyph-name="uni277D" unicode="&#x277d;" horiz-adv-x="1662" 
d="M1577 731q2 -158 -54.5 -298.5t-155.5 -241t-238 -157.5t-295 -54q-156 -3 -296.5 55t-240 158.5t-157 241t-54.5 296.5q-3 156 54.5 297t157 241.5t240 158.5t296.5 55q209 4 380.5 -94.5t268.5 -272.5t94 -385zM498 545q0 -113 91.5 -182.5t244.5 -69.5t243 69.5
t90 182.5q0 79 -55 135.5t-151 75.5v8q80 20 126 68.5t46 113.5q0 98 -83.5 161.5t-215.5 63.5t-215.5 -63.5t-83.5 -161.5q0 -66 45 -114t125 -68v-8q-94 -17 -150.5 -75t-56.5 -136zM961 942q0 -67 -34.5 -106t-92.5 -39t-93.5 39t-35.5 106t36 108.5t93 41.5t92 -41.5
t35 -108.5zM997 545q0 -79 -44.5 -125.5t-118.5 -46.5t-120 47t-46 125q0 79 46 126.5t120 47.5t118.5 -47.5t44.5 -126.5z" />
    <glyph glyph-name="uni277E" unicode="&#x277e;" horiz-adv-x="1662" 
d="M1577 731q2 -158 -54.5 -298.5t-155.5 -241t-238 -157.5t-295 -54q-156 -3 -296.5 55t-240 158.5t-157 241t-54.5 296.5q-3 156 54.5 297t157 241.5t240 158.5t296.5 55q209 4 380.5 -94.5t268.5 -272.5t94 -385zM1126 985q-42 89 -114.5 136.5t-171.5 47.5
q-131 0 -221.5 -87.5t-90.5 -215.5q0 -109 73 -179.5t179 -70.5q136 0 209 105h10q-6 -157 -87 -248.5t-212 -91.5q-76 0 -151 37l-31 -56q95 -71 217 -71q206 0 344 184q90 122 90 301q0 122 -43 209zM698 895q0 86 43.5 139t112.5 53q67 0 104 -54t37 -148v-54
q-47 -110 -151 -110q-66 0 -106 48t-40 126z" />
    <glyph glyph-name="uni300A" unicode="&#x300a;" horiz-adv-x="1073" 
d="M596 -295l-82 -24l-469 966l469 971l82 -25l-338 -942zM1016 -295l-82 -24l-469 966l469 971l82 -25l-338 -942z" />
    <glyph glyph-name="uni300B" unicode="&#x300b;" horiz-adv-x="1073" 
d="M57 1589l84 25l467 -967l-467 -971l-84 25l338 942zM477 1589l84 25l469 -967l-469 -971l-84 25l338 942z" />
    <glyph glyph-name="uni300C" unicode="&#x300c;" horiz-adv-x="710" 
d="M711 1593v-92h-379v-825h-191v917h570z" />
    <glyph glyph-name="uni300D" unicode="&#x300d;" horiz-adv-x="462" 
d="M-242 -299v92h381v825h191v-917h-572z" />
    <glyph glyph-name="uni300E" unicode="&#x300e;" horiz-adv-x="868" 
d="M541 676h-400v917h684v-245h-284v-672zM281 1524v-779h120v670h285v109h-405z" />
    <glyph glyph-name="uni300F" unicode="&#x300f;" horiz-adv-x="757" 
d="M223 602h400v-917h-684v245h284v672zM483 -246v778h-121v-669h-284v-109h405z" />
    <glyph glyph-name="uni3010" unicode="&#x3010;" horiz-adv-x="675" 
d="M195 -299v1892h487v-4q-381 -387 -381 -940q0 -557 381 -944v-4h-487z" />
    <glyph glyph-name="uni3011" unicode="&#x3011;" horiz-adv-x="675" 
d="M481 1593v-1892h-487v4q381 387 381 940q0 557 -381 944v4h487z" />
    <glyph glyph-name="uni3014" unicode="&#x3014;" horiz-adv-x="624" 
d="M600 -246l-61 -76l-414 322v1296l412 322l63 -72l-285 -225v-1344z" />
    <glyph glyph-name="uni3015" unicode="&#x3015;" horiz-adv-x="624" 
d="M25 1540l61 76l414 -322v-1296l-412 -322l-63 72l284 225v1344z" />
    <glyph glyph-name="uniE000" unicode="&#xe000;" horiz-adv-x="1792" 
d="M1741 1409l-1049 -1434l-641 861l96 71l547 -735l953 1305z" />
    <glyph glyph-name="uniE001" unicode="&#xe001;" horiz-adv-x="1830" 
d="M1708 1280h-1585v113h1585v-113zM1708 672h-1585v110h1585v-110zM1708 61h-1585v113h1585v-113z" />
    <glyph glyph-name="uniE002" unicode="&#xe002;" horiz-adv-x="1740" 
d="M1597 0h-1454v1454h1454v-1454zM260 1346v-1237h1221v1237h-1221z" />
    <glyph glyph-name="uniE003" unicode="&#xe003;" horiz-adv-x="1751" 
d="M1481 113v559h116v-672h-1454v1454h910v-113h-793v-1228h1221zM854 315l-416 592l99 64l323 -463l721 940l88 -66z" />
    <glyph glyph-name="uniE004" unicode="&#xe004;" horiz-adv-x="1284" 
d="M1118 711l-475 -598h557v-113h-1118v113h559l-475 598l57 51l348 -330h13v991h114v-991h13l348 330z" />
    <glyph glyph-name="uniE005" unicode="&#xe005;" horiz-adv-x="1226" 
d="M549 745v678h115v-678h12l348 330l59 -53l-475 -598h-4l-473 598l57 53l349 -330h12zM1165 0h-1118v113h1118v-113z" />
    <glyph glyph-name="uniF8FF" unicode="&#xf8ff;" horiz-adv-x="1828" 
d="M455 336q0 20 20 49q23 31 84 92q-99 -22 -133 -22q-115 0 -170 28q-63 34 -63 82q0 41 53 84q-66 39 -115 88q-64 70 -76 135q-8 44 -8 68q0 58 37 125q47 80 109 125q30 22 131 65q63 29 108 41q103 33 225 45l111 15l80 12q49 6 100 6q63 0 142 -8q105 -11 177.5 -27
t159.5 -49q98 -40 230 -139q86 -68 86 -188q0 -76 -43 -146q-28 -48 -65 -79.5t-107 -71.5q43 -49 53 -78q6 -18 6 -33q0 -62 -104 -88q-75 -16 -133 -16q-6 0 -16.5 0.5t-30.5 1.5t-35 2l-68 6q33 -44 41 -72q2 -4 2 -18q0 -31 -29 -37l-28 -4q-30 0 -74 30
q-38 -32 -70 -32q-29 0 -51 22q-47 -35 -69 -35q-21 0 -58 29q-39 -20 -55 -20q-18 0 -39 24q-42 -33 -80 -33q-41 0 -82 41q-20 -26 -40.5 -38.5t-51.5 -12.5q-49 0 -59 23q-2 2 -2 8zM791 1235q-113 -9 -166 -21q-79 -19 -88 -49q-2 -2 -2 -12q0 -15 8 -23q26 -33 73 -51
q40 -18 138 -28q82 -7 141 -7q67 0 102 3q172 9 217 90q13 28 5 41q-15 27 -78 36q-33 6 -56 11q-66 14 -96 14q-108 0 -198 -4zM1280 739q54 12 106 45q54 39 54 76q0 25 -4 45q-12 44 -50 68q-45 26 -90 26q-103 0 -157 -16q-117 -36 -140 -156l-2 -16q0 -28 12.5 -43
t43.5 -29q42 -22 88 -22q24 0 54.5 5t55.5 11t29 6zM649 711q55 13 93.5 56t33.5 85q-9 86 -78 113q-59 26 -147 26q-87 0 -174 -37q-101 -44 -101 -86q0 -88 78 -125q43 -19 95 -32q52 -15 114 -15q15 0 32.5 3t33.5 7zM795 485q10 0 25.5 22.5t23.5 47.5q15 50 12 78
q-3 15 -20 43q-6 6 -13 6q-5 0 -16 -8q-23 -14 -33 -41q-22 -51 -16 -86l6 -35l14 -23q16 -4 17 -4zM977 512l6 35q6 35 -16 86q-12 31 -35 41q-14 14 -27 2q-18 -28 -20 -43q-3 -28 12 -78q8 -25 23.5 -47.5t25.5 -22.5q1 0 17 4q1 1 14 23zM674 72q-13 8 -56 28
q-73 35 -106 64q-28 22 -43 43q-10 23 -4 31q9 18 33 18q34 0 90 -35q20 20 34 27.5t37 7.5q39 0 72 -23q44 23 70 23q32 0 69 -29q4 2 17.5 11t27.5 15.5t25 6.5q16 0 26 -6t29 -25l1 2q2 2 4.5 5t6 6t8.5 6.5t11 6t14.5 4t18.5 1.5q29 0 41.5 -9t27.5 -36q23 27 31 33
q30 24 55 24q2 0 5.5 -0.5t10 -1.5t11.5 -2q26 -7 47 -28q8 -8 8 -17q0 -10 -20 -43q-9 -15 -51 -51l-72 -59q-83 -62 -184 -62q-57 0 -111 4q-96 9 -184 60z" />
    <glyph glyph-name="uni0122.ss06" horiz-adv-x="1515" 
d="M940 727h498v-53q-73 -9 -97 -45.5t-24 -143.5v-368q-230 -142 -477 -142q-159 -2 -299 53t-238 152t-154 232.5t-55 289.5q-2 155 59.5 294t169 239t259 157.5t321.5 55.5q269 0 475 -102v-302h-59q-94 291 -410 291q-175 0 -308 -82.5t-202 -224t-69 -319.5
q0 -181 64 -321.5t187.5 -221t290.5 -80.5q124 0 240 43v352q0 111 -35 147.5t-137 45.5v53zM745 -526h-59l78 411h194v-6z" />
    <glyph glyph-name="uni0136.ss06" horiz-adv-x="1427" 
d="M717 823l725 -813v-10h-283l-586 678l-129 -133v-299q0 -110 24.5 -144t109.5 -49v-53h-469v53q82 15 106.5 49t24.5 144v932q0 113 -25 148t-106 44v53h464v-53q-80 -9 -104.5 -44t-24.5 -148v-471h9l469 485q82 88 82 129q0 37 -56 49v53h434v-53q-99 -12 -163 -55
q-61 -41 -172 -152zM684 -526h-59l77 411h195v-6z" />
    <glyph glyph-name="Lcaron.ss06" horiz-adv-x="1187" 
d="M109 53q83 12 107 48.5t24 144.5v934q0 111 -25 146t-106 44v53h464v-53q-84 -9 -106.5 -42t-22.5 -148v-1071h330q74 0 122 11.5t87 43t61 89t31 148.5h58v-401h-1024v53zM774 1032h-55l72 391h184v-6z" />
    <glyph glyph-name="uni013B.ss06" horiz-adv-x="1185" 
d="M109 53q83 12 107 48.5t24 144.5v934q0 111 -25 146t-106 44v53h464v-53q-84 -9 -106.5 -42t-22.5 -148v-1071h330q74 0 122 11.5t87 43t61 89t31 148.5h58v-401h-1024v53zM555 -526h-59l77 411h195v-6z" />
    <glyph glyph-name="uni0145.ss06" horiz-adv-x="1560" 
d="M106 53q82 12 106 48.5t24 148.5v1040l-95 123v10h299l762 -1079h12v834q0 114 -24 148.5t-103 43.5v53h375v-53q-80 -9 -104.5 -44t-24.5 -148v-1178h-141l-825 1167h-13v-917q0 -113 23.5 -149t105.5 -48v-53h-377v53zM709 -526h-60l78 411h195v-6z" />
    <glyph glyph-name="Q.ss04" horiz-adv-x="1622" 
d="M1571 -45v-125l-375 254q-171 -109 -389 -109q-150 -2 -284 54.5t-228.5 155t-148.5 235.5t-52 291q-2 154 52 291.5t148.5 236.5t228.5 155.5t284 53.5q152 2 285.5 -54t227.5 -154.5t147.5 -236t52.5 -292.5q0 -171 -61.5 -316t-174.5 -245zM1065 172l-260 176v125
l336 -227q143 169 143 465q0 279 -131 450.5t-346 171.5q-212 0 -343.5 -172t-131.5 -450q0 -279 131 -450t344 -171q148 0 258 82z" />
    <glyph glyph-name="uni0156.ss06" horiz-adv-x="1359" 
d="M1386 6v-6h-264l-567 692h-117v-440q0 -81 11 -119t36 -53.5t82 -26.5v-53h-463v53q57 11 82 26.5t36 53.5t11 119v930q0 107 -24 143t-105 45v53h547q234 0 375 -97.5t141 -260.5q0 -135 -102 -231t-274 -125zM438 799h166q161 0 249.5 69.5t88.5 194.5q0 122 -86.5 187
t-245.5 65h-172v-516zM643 -526h-59l78 411h194v-6z" />
    <glyph glyph-name="uni0218.ss06" horiz-adv-x="1105" 
d="M94 111v301h56q108 -326 382 -326q116 0 199 68q84 69 84 176q0 77 -48 132t-155 105l-215 97q-134 61 -202 156t-68 216q0 174 137.5 293t343.5 119q102 0 201 -26t168 -68v-293h-55q-71 276 -326 276q-119 0 -196.5 -64t-77.5 -171q0 -76 43.5 -133.5t140.5 -100.5
l217 -100q149 -67 220 -157t71 -218q0 -181 -140.5 -299.5t-347.5 -118.5q-237 0 -432 136zM451 -526h-60l78 411h195v-6z" />
    <glyph glyph-name="uni021A.ss06" horiz-adv-x="1275" 
d="M389 53q66 11 94.5 27t41 53.5t12.5 116.5v1069h-119q-151 0 -224 -51t-92 -162h-55v317h1184v-317h-55q-19 111 -91 162t-223 51h-121v-1069q0 -79 12.5 -116.5t41 -53.5t94.5 -27v-53h-500v53zM530 -526h-59l78 411h194v-6z" />
    <glyph glyph-name="a.salt" horiz-adv-x="1163" 
d="M86 461q0 226 135 379t328 153q84 0 156 -30t122 -80h13l88 86h61v-738q0 -88 13 -108.5t75 -26.5v-53l-268 -53h-10v155h-13q-114 -170 -305 -170q-76 0 -147 34t-126.5 95t-88.5 154t-33 203zM799 297v297q0 139 -64 219t-170 80q-129 0 -205 -111q-77 -109 -77 -282
q0 -172 74 -276.5t198 -104.5q78 0 142.5 50t101.5 128z" />
    <glyph glyph-name="a.ss02" horiz-adv-x="987" 
d="M819 217q0 -75 14 -95t74 -26v-53l-266 -53h-10v151h-13q-108 -166 -284 -166q-104 0 -175 67t-71 169q0 106 79.5 169.5t252.5 113.5l211 59v84q0 108 -54.5 162.5t-154.5 54.5q-131 0 -283 -94l-41 55q85 82 185.5 130t201.5 48q154 0 244 -92t90 -266v-418zM631 268
v195l-152 -53q-107 -40 -151.5 -75t-44.5 -93q0 -59 38.5 -94t96.5 -35q63 0 117.5 42.5t95.5 112.5z" />
    <glyph glyph-name="aacute.salt" horiz-adv-x="1163" 
d="M567 1126h-84l105 293h243v-8zM86 461q0 226 135 379t328 153q84 0 156 -30t122 -80h13l88 86h61v-738q0 -88 13 -108.5t75 -26.5v-53l-268 -53h-10v155h-13q-114 -170 -305 -170q-76 0 -147 34t-126.5 95t-88.5 154t-33 203zM799 297v297q0 139 -64 219t-170 80
q-129 0 -205 -111q-77 -109 -77 -282q0 -172 74 -276.5t198 -104.5q78 0 142.5 50t101.5 128z" />
    <glyph glyph-name="aacute.ss02" horiz-adv-x="987" 
d="M733 1419v-8l-264 -285h-84l104 293h244zM819 217q0 -75 14 -95t74 -26v-53l-266 -53h-10v151h-13q-108 -166 -284 -166q-104 0 -175 67t-71 169q0 106 79.5 169.5t252.5 113.5l211 59v84q0 108 -54.5 162.5t-154.5 54.5q-131 0 -283 -94l-41 55q85 82 185.5 130
t201.5 48q154 0 244 -92t90 -266v-418zM631 268v195l-152 -53q-107 -40 -151.5 -75t-44.5 -93q0 -59 38.5 -94t96.5 -35q63 0 117.5 42.5t95.5 112.5z" />
    <glyph glyph-name="abreve.salt" horiz-adv-x="1163" 
d="M322 1419h84q6 -72 51 -113.5t118 -41.5q74 0 118 41t50 114h84q-1 -133 -70 -211t-182 -78q-111 0 -180 78t-73 211zM86 461q0 226 135 379t328 153q84 0 156 -30t122 -80h13l88 86h61v-738q0 -88 13 -108.5t75 -26.5v-53l-268 -53h-10v155h-13q-114 -170 -305 -170
q-76 0 -147 34t-126.5 95t-88.5 154t-33 203zM799 297v297q0 139 -64 219t-170 80q-129 0 -205 -111q-77 -109 -77 -282q0 -172 74 -276.5t198 -104.5q78 0 142.5 50t101.5 128z" />
    <glyph glyph-name="abreve.ss02" horiz-adv-x="987" 
d="M223 1419h84q6 -72 51.5 -113.5t118.5 -41.5q74 0 118 41t50 114h84q-1 -133 -70 -211t-182 -78q-111 0 -180.5 78t-73.5 211zM819 217q0 -75 14 -95t74 -26v-53l-266 -53h-10v151h-13q-108 -166 -284 -166q-104 0 -175 67t-71 169q0 106 79.5 169.5t252.5 113.5l211 59
v84q0 108 -54.5 162.5t-154.5 54.5q-131 0 -283 -94l-41 55q85 82 185.5 130t201.5 48q154 0 244 -92t90 -266v-418zM631 268v195l-152 -53q-107 -40 -151.5 -75t-44.5 -93q0 -59 38.5 -94t96.5 -35q63 0 117.5 42.5t95.5 112.5z" />
    <glyph glyph-name="_154" horiz-adv-x="1163" 
d="M770 1419h100l-239 -293h-115l-235 293h102l190 -141zM86 461q0 226 135 379t328 153q84 0 156 -30t122 -80h13l88 86h61v-738q0 -88 13 -108.5t75 -26.5v-53l-268 -53h-10v155h-13q-114 -170 -305 -170q-76 0 -147 34t-126.5 95t-88.5 154t-33 203zM799 297v297
q0 139 -64 219t-170 80q-129 0 -205 -111q-77 -109 -77 -282q0 -172 74 -276.5t198 -104.5q78 0 142.5 50t101.5 128z" />
    <glyph glyph-name="acircumflex.salt" horiz-adv-x="1163" 
d="M379 1126h-98l237 293h115l237 -293h-104l-191 142zM86 461q0 226 135 379t328 153q84 0 156 -30t122 -80h13l88 86h61v-738q0 -88 13 -108.5t75 -26.5v-53l-268 -53h-10v155h-13q-114 -170 -305 -170q-76 0 -147 34t-126.5 95t-88.5 154t-33 203zM799 297v297
q0 139 -64 219t-170 80q-129 0 -205 -111q-77 -109 -77 -282q0 -172 74 -276.5t198 -104.5q78 0 142.5 50t101.5 128z" />
    <glyph glyph-name="acircumflex.ss02" horiz-adv-x="987" 
d="M668 1126l-191 142l-196 -142h-99l238 293h115l237 -293h-104zM819 217q0 -75 14 -95t74 -26v-53l-266 -53h-10v151h-13q-108 -166 -284 -166q-104 0 -175 67t-71 169q0 106 79.5 169.5t252.5 113.5l211 59v84q0 108 -54.5 162.5t-154.5 54.5q-131 0 -283 -94l-41 55
q85 82 185.5 130t201.5 48q154 0 244 -92t90 -266v-418zM631 268v195l-152 -53q-107 -40 -151.5 -75t-44.5 -93q0 -59 38.5 -94t96.5 -35q63 0 117.5 42.5t95.5 112.5z" />
    <glyph glyph-name="adieresis.salt" horiz-adv-x="1163" 
d="M254 1280q0 54 37.5 90.5t91.5 36.5q51 0 88 -38t37 -89q0 -56 -35.5 -92.5t-89.5 -36.5t-91.5 37t-37.5 92zM639 1280q0 54 36.5 90.5t90.5 36.5q51 0 88 -38t37 -89q0 -56 -35.5 -92.5t-89.5 -36.5t-90.5 37t-36.5 92zM86 461q0 226 135 379t328 153q84 0 156 -30
t122 -80h13l88 86h61v-738q0 -88 13 -108.5t75 -26.5v-53l-268 -53h-10v155h-13q-114 -170 -305 -170q-76 0 -147 34t-126.5 95t-88.5 154t-33 203zM799 297v297q0 139 -64 219t-170 80q-129 0 -205 -111q-77 -109 -77 -282q0 -172 74 -276.5t198 -104.5q78 0 142.5 50
t101.5 128z" />
    <glyph glyph-name="adieresis.ss02" horiz-adv-x="987" 
d="M156 1280q0 54 37.5 90.5t91.5 36.5q51 0 88 -38t37 -89q0 -56 -35.5 -92.5t-89.5 -36.5t-91.5 37t-37.5 92zM541 1280q0 54 36.5 90.5t90.5 36.5q51 0 88 -38t37 -89q0 -56 -35.5 -92.5t-89.5 -36.5t-90.5 37t-36.5 92zM819 217q0 -75 14 -95t74 -26v-53l-266 -53h-10
v151h-13q-108 -166 -284 -166q-104 0 -175 67t-71 169q0 106 79.5 169.5t252.5 113.5l211 59v84q0 108 -54.5 162.5t-154.5 54.5q-131 0 -283 -94l-41 55q85 82 185.5 130t201.5 48q154 0 244 -92t90 -266v-418zM631 268v195l-152 -53q-107 -40 -151.5 -75t-44.5 -93
q0 -59 38.5 -94t96.5 -35q63 0 117.5 42.5t95.5 112.5z" />
    <glyph glyph-name="uni0227.salt" horiz-adv-x="1163" 
d="M442 1280q0 56 39 94.5t94 38.5q54 0 93 -39t39 -94q0 -56 -38.5 -94.5t-93.5 -38.5q-56 0 -94.5 38t-38.5 95zM86 461q0 226 135 379t328 153q84 0 156 -30t122 -80h13l88 86h61v-738q0 -88 13 -108.5t75 -26.5v-53l-268 -53h-10v155h-13q-114 -170 -305 -170
q-76 0 -147 34t-126.5 95t-88.5 154t-33 203zM799 297v297q0 139 -64 219t-170 80q-129 0 -205 -111q-77 -109 -77 -282q0 -172 74 -276.5t198 -104.5q78 0 142.5 50t101.5 128z" />
    <glyph glyph-name="uni0227.ss02" horiz-adv-x="987" 
d="M344 1280q0 56 39 94.5t94 38.5q54 0 92.5 -39t38.5 -94q0 -56 -38 -94.5t-93 -38.5q-56 0 -94.5 38t-38.5 95zM819 217q0 -75 14 -95t74 -26v-53l-266 -53h-10v151h-13q-108 -166 -284 -166q-104 0 -175 67t-71 169q0 106 79.5 169.5t252.5 113.5l211 59v84
q0 108 -54.5 162.5t-154.5 54.5q-131 0 -283 -94l-41 55q85 82 185.5 130t201.5 48q154 0 244 -92t90 -266v-418zM631 268v195l-152 -53q-107 -40 -151.5 -75t-44.5 -93q0 -59 38.5 -94t96.5 -35q63 0 117.5 42.5t95.5 112.5z" />
    <glyph glyph-name="agrave.salt" horiz-adv-x="1163" 
d="M561 1419l107 -293h-88l-261 285v8h242zM86 461q0 226 135 379t328 153q84 0 156 -30t122 -80h13l88 86h61v-738q0 -88 13 -108.5t75 -26.5v-53l-268 -53h-10v155h-13q-114 -170 -305 -170q-76 0 -147 34t-126.5 95t-88.5 154t-33 203zM799 297v297q0 139 -64 219
t-170 80q-129 0 -205 -111q-77 -109 -77 -282q0 -172 74 -276.5t198 -104.5q78 0 142.5 50t101.5 128z" />
    <glyph glyph-name="agrave.ss02" horiz-adv-x="987" 
d="M463 1419l106 -293h-88l-260 285v8h242zM819 217q0 -75 14 -95t74 -26v-53l-266 -53h-10v151h-13q-108 -166 -284 -166q-104 0 -175 67t-71 169q0 106 79.5 169.5t252.5 113.5l211 59v84q0 108 -54.5 162.5t-154.5 54.5q-131 0 -283 -94l-41 55q85 82 185.5 130t201.5 48
q154 0 244 -92t90 -266v-418zM631 268v195l-152 -53q-107 -40 -151.5 -75t-44.5 -93q0 -59 38.5 -94t96.5 -35q63 0 117.5 42.5t95.5 112.5z" />
    <glyph glyph-name="amacron.salt" horiz-adv-x="1163" 
d="M883 1194h-611v102h611v-102zM86 461q0 226 135 379t328 153q84 0 156 -30t122 -80h13l88 86h61v-738q0 -88 13 -108.5t75 -26.5v-53l-268 -53h-10v155h-13q-114 -170 -305 -170q-76 0 -147 34t-126.5 95t-88.5 154t-33 203zM799 297v297q0 139 -64 219t-170 80
q-129 0 -205 -111q-77 -109 -77 -282q0 -172 74 -276.5t198 -104.5q78 0 142.5 50t101.5 128z" />
    <glyph glyph-name="amacron.ss02" horiz-adv-x="987" 
d="M174 1296h610v-102h-610v102zM819 217q0 -75 14 -95t74 -26v-53l-266 -53h-10v151h-13q-108 -166 -284 -166q-104 0 -175 67t-71 169q0 106 79.5 169.5t252.5 113.5l211 59v84q0 108 -54.5 162.5t-154.5 54.5q-131 0 -283 -94l-41 55q85 82 185.5 130t201.5 48
q154 0 244 -92t90 -266v-418zM631 268v195l-152 -53q-107 -40 -151.5 -75t-44.5 -93q0 -59 38.5 -94t96.5 -35q63 0 117.5 42.5t95.5 112.5z" />
    <glyph glyph-name="aogonek.salt" horiz-adv-x="1163" 
d="M969 16q-111 -28 -170.5 -89.5t-59.5 -133.5q0 -54 28.5 -84.5t78.5 -30.5q59 0 100 35l37 -41q-67 -88 -178 -88q-83 0 -138 51t-55 132q0 73 49.5 133.5t137.5 103.5v141h-15q-114 -170 -303 -170q-161 0 -279 134t-118 352q0 226 134.5 379t330.5 153q166 0 276 -110
h13l88 86h61v-738q0 -88 13 -108.5t75 -26.5v-53zM797 594q0 139 -64 219t-170 80q-129 0 -205 -111q-77 -109 -77 -282t73.5 -277t200.5 -104q78 0 143.5 52t98.5 128v295z" />
    <glyph glyph-name="aogonek.ss02" horiz-adv-x="987" 
d="M805 18q-117 -30 -175.5 -90.5t-58.5 -136.5q0 -50 30 -81.5t79 -31.5q53 0 100 35l35 -41q-70 -88 -178 -88q-83 0 -138 51t-55 132q0 73 51 135t136 102v137h-13q-109 -166 -282 -166q-105 0 -176.5 67t-71.5 169q0 106 81.5 171.5t250.5 111.5l211 59v84
q0 108 -54.5 162.5t-156.5 54.5q-132 0 -281 -94l-41 55q80 80 183 129t200 49q157 0 247.5 -91.5t90.5 -266.5v-418q0 -75 14 -95t74 -26v-53zM631 268v195l-150 -53q-107 -38 -152.5 -73.5t-45.5 -92.5q0 -60 37.5 -95.5t95.5 -35.5q63 0 118.5 42.5t96.5 112.5z" />
    <glyph glyph-name="aring.salt" horiz-adv-x="1163" 
d="M377 1280q0 80 58 137.5t140 57.5q81 0 139 -57.5t58 -137.5q0 -82 -57.5 -138.5t-139.5 -56.5q-84 0 -141 56.5t-57 138.5zM680 1280q0 47 -30 78t-75 31t-75.5 -31t-30.5 -78q0 -49 30.5 -79t75.5 -30q47 0 76 30t29 79zM86 461q0 226 135 379t328 153q84 0 156 -30
t122 -80h13l88 86h61v-738q0 -88 13 -108.5t75 -26.5v-53l-268 -53h-10v155h-13q-114 -170 -305 -170q-76 0 -147 34t-126.5 95t-88.5 154t-33 203zM799 297v297q0 139 -64 219t-170 80q-129 0 -205 -111q-77 -109 -77 -282q0 -172 74 -276.5t198 -104.5q78 0 142.5 50
t101.5 128z" />
    <glyph glyph-name="aring.ss02" horiz-adv-x="987" 
d="M279 1280q0 80 58 137.5t140 57.5q81 0 139 -57.5t58 -137.5q0 -82 -57.5 -138.5t-139.5 -56.5q-84 0 -141 56.5t-57 138.5zM371 1280q0 -49 30.5 -79t75.5 -30q47 0 76 30t29 79q0 47 -30 78t-75 31t-75.5 -31t-30.5 -78zM819 217q0 -75 14 -95t74 -26v-53l-266 -53h-10
v151h-13q-108 -166 -284 -166q-104 0 -175 67t-71 169q0 106 79.5 169.5t252.5 113.5l211 59v84q0 108 -54.5 162.5t-154.5 54.5q-131 0 -283 -94l-41 55q85 82 185.5 130t201.5 48q154 0 244 -92t90 -266v-418zM631 268v195l-152 -53q-107 -40 -151.5 -75t-44.5 -93
q0 -59 38.5 -94t96.5 -35q63 0 117.5 42.5t95.5 112.5z" />
    <glyph glyph-name="atilde.salt" horiz-adv-x="1163" 
d="M559 1194l-37 27q-49 39 -94 39q-41 0 -64 -27.5t-34 -89.5h-82q7 119 60 182.5t134 63.5q39 0 71.5 -13.5t76.5 -44.5l37 -26q33 -24 51.5 -31.5t44.5 -7.5q38 0 61.5 27.5t36.5 88.5h80q-7 -119 -60.5 -183t-131.5 -64q-73 0 -150 59zM86 461q0 226 135 379t328 153
q84 0 156 -30t122 -80h13l88 86h61v-738q0 -88 13 -108.5t75 -26.5v-53l-268 -53h-10v155h-13q-114 -170 -305 -170q-76 0 -147 34t-126.5 95t-88.5 154t-33 203zM799 297v297q0 139 -64 219t-170 80q-129 0 -205 -111q-77 -109 -77 -282q0 -172 74 -276.5t198 -104.5
q78 0 142.5 50t101.5 128z" />
    <glyph glyph-name="atilde.ss02" horiz-adv-x="987" 
d="M231 1143h-81q7 119 60 182.5t134 63.5q39 0 71.5 -13.5t76.5 -44.5l36 -26q32 -23 51.5 -31t45.5 -8q38 0 61.5 27.5t36.5 88.5h80q-7 -119 -61 -183t-132 -64q-72 0 -149 59l-37 27q-49 39 -94 39q-41 0 -65 -28t-34 -89zM819 217q0 -75 14 -95t74 -26v-53l-266 -53
h-10v151h-13q-108 -166 -284 -166q-104 0 -175 67t-71 169q0 106 79.5 169.5t252.5 113.5l211 59v84q0 108 -54.5 162.5t-154.5 54.5q-131 0 -283 -94l-41 55q85 82 185.5 130t201.5 48q154 0 244 -92t90 -266v-418zM631 268v195l-152 -53q-107 -40 -151.5 -75t-44.5 -93
q0 -59 38.5 -94t96.5 -35q63 0 117.5 42.5t95.5 112.5z" />
    <glyph glyph-name="dcaron.ss06" horiz-adv-x="1169" 
d="M86 457q0 230 134 383t337 153q141 0 236 -80h14v330q0 71 -20 92t-85 27v53l281 49h12v-1247q0 -75 14 -95t74 -26v-53l-266 -53h-10v155h-14q-108 -170 -308 -170q-170 0 -284.5 133t-114.5 349zM1145 1063h-55l73 391h185v-6zM807 297v293q0 142 -63 222.5t-175 80.5
q-129 0 -207.5 -109t-78.5 -286q0 -175 75 -277t199 -102q82 0 147 50t103 128z" />
    </font>
</defs>
</svg>
