<?xml version="1.0" standalone="no"?>
<!DOCTYPE svg PUBLIC "-//W3C//DTD SVG 1.1//EN" "http://www.w3.org/Graphics/SVG/1.1/DTD/svg11.dtd" >
<svg xmlns="http://www.w3.org/2000/svg" xmlns:xlink="http://www.w3.org/1999/xlink" version="1.1">
<metadata>
Created by FontForge 20170731 at Mon Mar 14 16:57:59 2022
 By Aleksey,,,
Copyright 2021 Dinamo (Johannes Breyer, Fabian Harb). All rights reserved.
</metadata>
<defs>
<font id="ABCArizonaMix-Italic" horiz-adv-x="1228" >
  <font-face 
    font-family="ABC Arizona Mix"
    font-weight="400"
    font-style="italic"
    font-stretch="normal"
    units-per-em="2048"
    panose-1="2 0 0 4 0 2 0 6 0 3"
    ascent="1735"
    descent="-313"
    x-height="969"
    cap-height="1423"
    bbox="-487 -526 2433 1894"
    underline-thickness="102"
    underline-position="-307"
    slope="-14"
    unicode-range="U+000D-FB02"
  />
<missing-glyph horiz-adv-x="1302" 
d="M1001 0h-946l365 1454h946zM510 1341l-307 -1228h706l310 1228h-709z" />
    <glyph glyph-name="fi" unicode="fi" horiz-adv-x="1200" 
d="M391 1110q43 171 176.5 270t317.5 99q174 0 305 -64v-227h-49q-30 81 -101.5 132.5t-162.5 51.5q-111 0 -185.5 -58.5t-103.5 -172.5l-41 -172h600l-193 -768q-16 -69 -16 -90q0 -29 13.5 -40.5t49.5 -17.5v-53h-366v53q29 6 39.5 8t27 9.5t20.5 13.5t13 23.5t13.5 35.5
l13.5 54l164 657h-408l-164 -655q-16 -62 -16 -86q0 -29 17.5 -42t60.5 -18v-53h-385v53q67 6 87.5 30t43.5 114l164 657h-191v115h221z" />
    <glyph glyph-name="fl" unicode="fl" horiz-adv-x="1208" 
d="M326 854h-191v115h221l31 129q44 181 170.5 281t306.5 100q121 0 234 -45l168 30h12l-322 -1274q-14 -57 -14 -79q0 -26 14.5 -39t49.5 -19v-53h-367v53q67 9 86.5 31t40.5 104l272 1086q-27 44 -77 71t-109 27q-203 0 -268 -250l-39 -153h254v-115h-281l-168 -668
q-12 -46 -12 -73q0 -29 17.5 -42t60.5 -18v-53h-385v53q64 7 87 31.5t42 101.5z" />
    <glyph glyph-name="f_b" unicode="fb" horiz-adv-x="1828" 
d="M324 854h-191v115h221l31 129q44 181 170.5 281t306.5 100q121 0 234 -45l168 30h12l-160 -635h14q123 164 295 164q140 0 235 -112t95 -281q2 -94 -26 -187.5t-81 -172t-123 -139.5t-157.5 -94.5t-179.5 -31.5q-84 0 -156 32.5t-117 88.5h-12l-123 -96h-61l319 1274
q-27 44 -77.5 71t-110.5 27q-203 0 -268 -250l-39 -153h254v-115h-281l-168 -666q-12 -47 -12 -73q0 -29 17.5 -43.5t60.5 -18.5v-53h-385v53q64 7 87 31.5t42 101.5zM1563 571q0 131 -54.5 205t-152.5 74q-148 0 -283 -193l-74 -288q-12 -52 -12 -97q0 -93 50.5 -144.5
t136.5 -51.5q104 -3 195.5 68t143.5 186.5t50 240.5z" />
    <glyph glyph-name="f_f" unicode="ff" horiz-adv-x="1366" 
d="M1610 1448v-201h-51q-13 52 -57 88.5t-105 36.5q-145 0 -185 -162l-61 -241h254v-115h-283l-164 -657q-14 -52 -14 -86q0 -29 16.5 -40.5t61.5 -17.5v-53h-385v53q66 9 86 30.5t45 113.5l164 657h-412l-166 -664q-14 -57 -14 -77q0 -29 17.5 -42t60.5 -18v-53h-385v53
q66 9 86.5 32.5t44.5 111.5l164 657h-191v115h221l29 118q42 169 168.5 265t298.5 96q158 0 274 -76q113 107 293 107q101 0 189 -31zM1008 1157q8 38 26 82q-30 46 -81 74t-109 28q-203 0 -264 -241l-33 -131h414z" />
    <glyph glyph-name="f_f_b" unicode="ffb" horiz-adv-x="2430" 
d="M2357 600q1 -118 -43.5 -233t-119.5 -202t-181.5 -139.5t-220.5 -50.5q-84 0 -156.5 32.5t-117.5 88.5h-13l-121 -96h-63l319 1274q-27 44 -77.5 71t-110.5 27q-203 0 -268 -250l-37 -153h252v-115h-281l-168 -666q-12 -47 -12 -73q0 -29 17.5 -43.5t60.5 -18.5v-53h-385
v53q64 7 87 31.5t42 101.5l166 668h-406l-166 -664q-14 -57 -14 -77q0 -29 17.5 -42t60.5 -18v-53h-385v53q66 9 86.5 32.5t44.5 111.5l164 657h-191v115h221l29 118q42 169 168.5 265t298.5 96q164 0 289 -84q127 115 321 115q121 0 234 -45l168 30h12l-158 -635h13
q123 164 295 164q140 0 234.5 -112t94.5 -281zM989 1098q16 69 49 133q-26 50 -79.5 80t-114.5 30q-203 0 -264 -241l-33 -131h409zM2165 571q0 131 -54.5 205t-152.5 74q-148 0 -283 -193l-73 -288q-13 -57 -13 -97q0 -93 50.5 -144.5t136.5 -51.5q104 -3 195.5 68
t143.5 186.5t50 240.5z" />
    <glyph glyph-name="f_f_h" unicode="ffh" horiz-adv-x="2420" 
d="M2169 180q-12 -46 -12 -71t14 -37.5t49 -18.5v-53h-371v53q63 9 86.5 32t44.5 103l109 433q10 52 10 73q0 74 -39.5 116t-103.5 42q-151 0 -277 -180l-123 -498q-10 -52 -10 -61q0 -30 13.5 -42t50.5 -18v-53h-367v53q64 9 84 29t41 100l272 1092q-27 44 -77.5 71
t-110.5 27q-203 0 -268 -250l-37 -153h252v-115h-281l-168 -666q-12 -47 -12 -73q0 -29 17.5 -43.5t60.5 -18.5v-53h-385v53q64 7 87 31.5t42 101.5l166 668h-406l-166 -664q-14 -57 -14 -77q0 -29 17.5 -42t60.5 -18v-53h-385v53q66 9 86.5 32.5t44.5 111.5l164 657h-191
v115h221l29 118q42 169 168.5 265t298.5 96q164 0 289 -84q127 115 321 115q121 0 234 -45l170 30h10l-158 -635h13q69 85 140.5 124.5t156.5 39.5q112 0 185 -76.5t73 -201.5q0 -55 -15 -113zM989 1098q16 69 49 133q-26 50 -79.5 80t-114.5 30q-203 0 -264 -241l-33 -131
h409z" />
    <glyph glyph-name="f_f_i" unicode="ffi" horiz-adv-x="1792" 
d="M1182 1141l-43 -172h602l-193 -768q-16 -75 -16 -92q0 -26 13.5 -38t49.5 -18v-53h-366v53q69 13 84 30.5t43 113.5l164 657h-408l-166 -655q-14 -60 -14 -84q0 -30 17.5 -43.5t60.5 -18.5v-53h-385v53q65 6 85 29.5t46 114.5l164 657h-400l-166 -664q-14 -57 -14 -77
q0 -29 17.5 -42t60.5 -18v-53h-385v53q66 9 86.5 32.5t44.5 111.5l164 657h-191v115h221l29 118q42 169 168.5 265t298.5 96q79 0 156 -22.5t133 -61.5q137 115 336 115q171 0 305 -64v-227h-49q-31 81 -103.5 132.5t-161.5 51.5q-111 0 -185 -58.5t-103 -172.5zM985 1110
q18 71 51 127q-29 48 -80.5 76t-111.5 28q-203 0 -264 -241l-33 -131h401z" />
    <glyph glyph-name="f_f_k" unicode="ffk" horiz-adv-x="2342" 
d="M2423 915q-94 -13 -154 -45q-73 -39 -153 -100l-261 -199l377 -561v-10h-225l-297 461l-111 -84l-45 -178q-14 -63 -14 -86q0 -29 14.5 -42t47.5 -18v-53h-367v53q64 9 83.5 29t43.5 108l270 1084q-25 42 -76 70t-110 28q-206 0 -268 -250l-39 -153h254v-115h-281
l-168 -666q-12 -47 -12 -73q0 -29 17.5 -43.5t60.5 -18.5v-53h-385v53q66 9 86.5 30.5t42.5 102.5l166 668h-400l-166 -664q-14 -57 -14 -77q0 -29 17.5 -42t60.5 -18v-53h-385v53q66 9 86.5 32.5t44.5 111.5l164 657h-191v115h221l29 118q42 169 168.5 265t298.5 96
q166 0 285 -82q128 113 319 113q121 0 234 -45l170 30h10l-234 -932h15l368 285q68 50 68 76q0 16 -29 22v54h363v-54zM981 1098q17 71 53 139q-30 48 -80.5 76t-109.5 28q-203 0 -264 -241l-33 -131h401z" />
    <glyph glyph-name="f_f_l" unicode="ffl" horiz-adv-x="1800" 
d="M1550 190q-14 -57 -14 -79q0 -26 14 -39t49 -19v-53h-366v53q65 9 86 33q23 27 41 102l272 1086q-27 43 -77.5 70.5t-108.5 27.5q-206 0 -268 -250l-39 -153h254v-115h-281l-168 -668q-12 -46 -12 -73q0 -29 17.5 -42t60.5 -18v-53h-385v53q66 9 86 31t41 102l168 668
h-400l-166 -664q-14 -57 -14 -77q0 -29 17.5 -42t60.5 -18v-53h-385v53q66 9 86.5 32.5t44.5 111.5l164 657h-191v115h221l29 118q42 169 168.5 265t298.5 96q166 0 285 -82q128 113 317 113q123 0 236 -45l168 30h12zM981 1098q17 71 53 139q-30 48 -80.5 76t-109.5 28
q-203 0 -264 -241l-33 -131h401z" />
    <glyph glyph-name="f_h" unicode="fh" horiz-adv-x="1806" 
d="M324 854h-189v115h219l33 129q42 181 168.5 281t306.5 100q121 0 234 -45l170 30h10l-158 -635h12q69 85 140.5 124.5t156.5 39.5q112 0 185.5 -76.5t73.5 -201.5q0 -55 -15 -113l-104 -422q-13 -50 -13 -71q0 -25 14.5 -37.5t49.5 -18.5v-53h-371v53q63 9 86.5 32
t44.5 103l109 433q10 52 10 73q0 74 -39.5 116t-103.5 42q-151 0 -277 -180l-123 -498q-10 -52 -10 -61q0 -30 13.5 -42t50.5 -18v-53h-367v53q64 9 84 29t41 100l272 1092q-27 44 -77.5 71t-110.5 27q-203 0 -268 -250l-37 -153h252v-115h-281l-168 -666q-12 -47 -12 -73
q0 -29 17.5 -43.5t60.5 -18.5v-53h-385v53q64 7 87 31.5t42 101.5z" />
    <glyph glyph-name="f_k" unicode="fk" horiz-adv-x="1748" 
d="M1829 915q-94 -13 -154 -45q-73 -39 -153 -100l-260 -199l376 -561v-10h-225l-295 461l-112 -86l-45 -176q-15 -68 -15 -86q0 -29 14.5 -42t47.5 -18v-53h-367v53q64 9 83.5 29t43.5 108l272 1084q-27 44 -77.5 71t-110.5 27q-203 0 -268 -250l-39 -153h254v-115h-281
l-168 -666q-12 -47 -12 -73q0 -29 17.5 -43.5t60.5 -18.5v-53h-385v53q64 7 87 31.5t42 101.5l166 668h-191v115h221l31 129q44 181 170.5 281t306.5 100q121 0 234 -45l170 30h12l-236 -932h15l371 285q65 53 65 76q0 16 -29 22v54h363v-54z" />
    <glyph glyph-name=".notdef" horiz-adv-x="1302" 
d="M1001 0h-946l365 1454h946zM510 1341l-307 -1228h706l310 1228h-709z" />
    <glyph glyph-name=".null" horiz-adv-x="0" 
 />
    <glyph glyph-name="nonmarkingreturn" horiz-adv-x="682" 
 />
    <glyph glyph-name="NULL" horiz-adv-x="0" 
 />
    <glyph glyph-name="NULL" horiz-adv-x="0" 
 />
    <glyph glyph-name="CR" unicode="&#xd;" horiz-adv-x="0" 
 />
    <glyph glyph-name="space" unicode=" " horiz-adv-x="507" 
 />
    <glyph glyph-name="exclam" unicode="!" horiz-adv-x="555" 
d="M305 395h-100l196 1028h224zM55 102q0 64 44.5 108t109.5 44q57 0 92 -35.5t35 -91.5q0 -66 -45 -109t-111 -43q-56 0 -90.5 35t-34.5 92z" />
    <glyph glyph-name="quotedbl" unicode="&#x22;" horiz-adv-x="745" 
d="M328 852h-78l84 571h201zM668 852h-78l84 571h200z" />
    <glyph glyph-name="numbersign" unicode="#" horiz-adv-x="1333" 
d="M1376 997v-102h-284l-166 -379h243v-102h-288l-181 -414h-110l180 414h-350l-180 -414h-109l180 414h-237v102h282l166 379h-237v102h280l187 426h108l-186 -426h352l186 426h109l-186 -426h241zM465 516h350l166 379h-350z" />
    <glyph glyph-name="dollar" unicode="$" horiz-adv-x="1060" 
d="M834 1413q152 -18 268 -86v-287h-55q-61 228 -238 269l-135 -537l55 -37q113 -78 166 -157.5t53 -184.5q0 -122 -65 -218t-172 -147t-236 -53l-41 -159h-100l41 166q-196 21 -340 127v294h55q102 -285 311 -319l131 522l-75 51q-203 141 -203 347q0 183 136 299t345 116
l41 162h101zM588 831l123 486q-117 -6 -194 -76.5t-77 -173.5q0 -71 34 -125t108 -106zM616 547l-116 -467q111 8 185.5 77t74.5 173q0 64 -33.5 112.5t-110.5 104.5z" />
    <glyph glyph-name="percent" unicode="%" horiz-adv-x="1658" 
d="M209 999q0 112 49 213t138 165.5t196 64.5q120 0 203 -86q82 -85 82 -228q2 -105 -48.5 -207.5t-143 -170t-198.5 -64.5q-123 0 -200.5 87t-77.5 226zM1618 1423h-141l-1330 -1423h142zM715 1165q0 88 -32.5 134.5t-92.5 46.5q-50 2 -92.5 -36t-69.5 -97t-42 -125.5
t-15 -126.5q0 -177 121 -177q63 -4 117 62t80.5 154t25.5 165zM905 299q0 112 48 213t136.5 165t196.5 64q120 0 203 -86q82 -85 82 -227q2 -105 -48.5 -207.5t-142.5 -170t-198 -64.5q-123 0 -200 86t-77 227zM1409 465q0 180 -125 180q-65 3 -117 -62.5t-76.5 -153.5
t-23.5 -169q0 -176 119 -176q63 -4 117 62t80.5 154t25.5 165z" />
    <glyph glyph-name="ampersand" unicode="&#x26;" horiz-adv-x="1310" 
d="M1317 791v-11l-340 -432l225 -336v-12h-223l-119 180h-10q-169 -205 -404 -205q-163 0 -276 109t-113 262q0 273 365 420l41 16q-113 171 -113 299q0 154 112 260.5t283 106.5q148 0 244 -81.5t96 -203.5q0 -112 -77.5 -195.5t-229.5 -146.5l-94 -39l229 -340h15l143 349
h246zM537 1120q0 -118 94 -260h14l49 23q211 102 211 276q0 86 -45 136.5t-123 50.5q-90 0 -145 -65t-55 -161zM803 266l-289 441h-8l-29 -13q-102 -53 -159.5 -130.5t-57.5 -174.5q0 -114 72.5 -190t189.5 -76q166 0 281 143z" />
    <glyph glyph-name="quotesingle" unicode="'" horiz-adv-x="405" 
d="M328 852h-78l84 571h201z" />
    <glyph glyph-name="parenleft" unicode="(" horiz-adv-x="651" 
d="M358 -319q-129 171 -193.5 344.5t-64.5 369.5q0 686 721 1223l53 -49q-268 -250 -423 -582q-156 -331 -156 -670q0 -342 127 -602z" />
    <glyph glyph-name="parenright" unicode=")" horiz-adv-x="651" 
d="M377 1614q128 -171 193 -345t65 -370q0 -685 -723 -1223l-51 50q270 252 424 579q155 332 155 672q0 342 -127 602z" />
    <glyph glyph-name="asterisk" unicode="*" horiz-adv-x="872" 
d="M578 1042l-162 -278l-115 86l225 225v2l-268 -49v158l283 -45l2 2l-142 243l144 62l55 -279h2l162 279l115 -84l-226 -227v-2l271 49v-158l-283 45l-2 -2l141 -244l-143 -61l-57 278h-2z" />
    <glyph glyph-name="plus" unicode="+" horiz-adv-x="1167" 
d="M643 541h408v-111h-408v-420h-115v420h-409v111h409v417h115v-417z" />
    <glyph glyph-name="comma" unicode="," horiz-adv-x="497" 
d="M324 117q0 -45 -20 -83t-73 -102l-211 -262h-102l252 305h-6q-57 0 -93 35t-36 92q0 61 44.5 106.5t106.5 45.5q60 0 99 -38.5t39 -98.5z" />
    <glyph glyph-name="hyphen" unicode="-" horiz-adv-x="819" 
d="M715 551h-551v119h551v-119z" />
    <glyph glyph-name="period" unicode="." horiz-adv-x="479" 
d="M31 102q0 63 44 107.5t107 44.5q57 0 92 -35.5t35 -91.5q0 -65 -44.5 -108.5t-108.5 -43.5q-57 0 -91 35t-34 92z" />
    <glyph glyph-name="slash" unicode="/" horiz-adv-x="778" 
d="M868 1505h131l-968 -1585h-133z" />
    <glyph glyph-name="zero" unicode="0" horiz-adv-x="1236" 
d="M143 496q0 224 82 434q83 212 230 350q149 137 340 137q183 0 294 -143.5t111 -382.5q2 -129 -28.5 -262.5t-89.5 -251t-138 -209.5t-182 -144t-213 -49q-185 0 -295.5 141t-110.5 380zM985 983q0 322 -192 322q-128 0 -230 -150q-96 -146 -153 -362q-54 -218 -54 -387
q0 -157 49.5 -237.5t143.5 -80.5q126 0 229 148q101 146 154 358q53 214 53 389z" />
    <glyph glyph-name="one" unicode="1" horiz-adv-x="755" 
d="M215 0l258 1028h-270v86q178 12 278 76t154 203h125l-348 -1393h-197z" />
    <glyph glyph-name="two" unicode="2" horiz-adv-x="1077" 
d="M881 0h-887v96l473 363q139 107 216.5 182t125.5 158q53 89 53 186q0 124 -80.5 200.5t-214.5 76.5q-153 0 -280 -109l-47 53q76 100 180.5 155.5t228.5 55.5q182 0 301 -110t119 -283q-3 -86 -29.5 -158.5t-85 -143.5t-131.5 -135t-190 -151l-322 -235v-13h570v-188z
" />
    <glyph glyph-name="three" unicode="3" horiz-adv-x="1097" 
d="M12 223l58 49q141 -141 329 -141q150 0 253.5 86.5t103.5 218.5q0 245 -312 254v98l467 404v12h-606v189h883v-97l-584 -497v-13q170 -24 263.5 -124t93.5 -248q0 -126 -68 -227.5t-181 -156.5t-247 -55q-151 0 -259.5 65t-193.5 183z" />
    <glyph glyph-name="four" unicode="4" horiz-adv-x="1253" 
d="M770 0h-188l94 373h-651v96l993 924h100l-211 -842h297v-178h-342zM848 1104l-582 -541v-12h455l139 553h-12z" />
    <glyph glyph-name="five" unicode="5" horiz-adv-x="1103" 
d="M-4 223l55 49q135 -141 336 -141q167 0 277 91.5t110 236.5q0 116 -74.5 184t-199.5 68q-138 0 -293 -90h-10l299 772h680v-189h-650l-166 -432h15q101 76 235 76q151 0 260 -105.5t109 -271.5q0 -136 -71 -250t-193.5 -180t-268.5 -66q-278 0 -450 248z" />
    <glyph glyph-name="six" unicode="6" horiz-adv-x="1212" 
d="M152 362q-15 70 -15 156q0 178 68.5 347.5t191.5 297.5q236 242 557 242q94 0 183 -26.5t155 -73.5l-43 -74q-107 55 -256 55q-241 0 -400.5 -155.5t-215.5 -430.5h12q59 78 143 123t185 45q161 0 272 -109.5t111 -275.5q0 -101 -38 -194t-104 -162t-161.5 -110.5
t-204.5 -41.5q-173 0 -288.5 105t-151.5 282zM887 449q0 130 -66.5 208t-175.5 78q-88 0 -166.5 -57t-124.5 -148l-8 -75q-4 -62 -4 -68q0 -134 63.5 -219.5t176.5 -85.5q89 0 160.5 54t108 137.5t36.5 175.5z" />
    <glyph glyph-name="seven" unicode="7" horiz-adv-x="1013" 
d="M995 1190v14h-733v189h920v-97l-920 -1296h-274v8z" />
    <glyph glyph-name="eight" unicode="8" horiz-adv-x="1232" 
d="M76 344q0 158 125 268q125 113 319 140v14q-102 30 -160.5 98.5t-58.5 165.5q0 169 143 278t357 109q186 0 304 -93t118 -232t-100.5 -233.5t-278.5 -125.5v-14q124 -29 194 -108.5t70 -190.5q0 -132 -76 -234.5t-205.5 -156.5t-287.5 -54q-207 0 -335 102.5t-128 266.5z
M1016 1106q0 94 -58 148.5t-157 54.5q-131 0 -213 -88q-82 -85 -82 -215q0 -97 57.5 -155t155.5 -58q133 0 215 91.5t82 221.5zM901 444q0 109 -70.5 175.5t-185.5 66.5q-155 0 -258.5 -109.5t-103.5 -257.5q0 -109 68 -172t184 -63q158 0 262 105.5t104 254.5z" />
    <glyph glyph-name="nine" unicode="9" horiz-adv-x="1212" 
d="M31 92l41 76q121 -62 262 -62q169 0 301.5 81t211 220t103.5 322h-12q-56 -77 -148 -124.5t-198 -47.5q-155 0 -261 112.5t-106 276.5q0 127 59 234t169.5 172t251.5 65q170 0 290.5 -103t159.5 -278q21 -95 21 -180q0 -174 -66 -343t-186 -290q-229 -235 -537 -235
q-99 0 -194 27.5t-162 76.5zM965 895l4 68l2 34q0 136 -70 224q-72 90 -186 90q-132 0 -206.5 -92.5t-74.5 -237.5q0 -127 65.5 -209t172.5 -82q95 0 171 57t122 148z" />
    <glyph glyph-name="colon" unicode=":" horiz-adv-x="544" 
d="M47 102q0 63 44.5 107.5t107.5 44.5q57 0 92 -35.5t35 -91.5q0 -65 -45 -108.5t-109 -43.5q-57 0 -91 35t-34 92zM217 799q0 63 44.5 107t107.5 44q57 0 92 -35.5t35 -91.5q0 -65 -45 -108t-109 -43q-57 0 -91 35t-34 92z" />
    <glyph glyph-name="semicolon" unicode=";" horiz-adv-x="563" 
d="M211 799q0 63 44 107t107 44q57 0 92 -35.5t35 -91.5q0 -65 -44.5 -108t-108.5 -43q-57 0 -91 35t-34 92zM350 117q0 -45 -20 -83.5t-72 -101.5l-211 -262h-102l252 305h-7q-57 0 -93 35t-36 92q0 61 45 106.5t107 45.5q60 0 98.5 -38.5t38.5 -98.5z" />
    <glyph glyph-name="less" unicode="&#x3c;" horiz-adv-x="1187" 
d="M1018 135v-119l-924 412v115l924 411v-125l-776 -342v-8z" />
    <glyph glyph-name="equal" unicode="=" horiz-adv-x="1294" 
d="M1116 610h-932v111h932v-111zM1116 250h-932v110h932v-110z" />
    <glyph glyph-name="greater" unicode="&#x3e;" horiz-adv-x="1185" 
d="M1094 426l-922 -412v121l776 342v8l-776 344v123l922 -411v-115z" />
    <glyph glyph-name="question" unicode="?" horiz-adv-x="1015" 
d="M461 672q193 58 296 154t103 225q0 109 -79.5 175t-207.5 66q-95 0 -173.5 -35.5t-133.5 -93.5l-55 56q182 229 444 229q174 0 290 -102.5t116 -255.5q0 -174 -133.5 -297t-372.5 -195l-51 -203h-111zM262 102q0 63 44.5 107.5t107.5 44.5q57 0 92 -35.5t35 -91.5
q0 -65 -45 -108.5t-109 -43.5q-57 0 -91 35t-34 92z" />
    <glyph glyph-name="at" unicode="@" horiz-adv-x="1609" 
d="M86 377q-4 171 63 331.5t181.5 279t274.5 189t333 66.5q174 3 314.5 -73.5t218 -210.5t75.5 -297q2 -147 -53 -276.5t-155 -207t-220 -74.5q-78 0 -134 34t-77 91h-14q-91 -125 -238 -125q-104 0 -169.5 79t-65.5 206q-2 88 33 177t94 157.5t143.5 110.5t173.5 40
q122 0 205 -86h12l97 70h61l-162 -477q-18 -53 -18 -92q0 -86 88 -86q80 -3 149 67.5t106 175.5t36 211q0 217 -139 349.5t-367 132.5q-151 3 -289.5 -59t-237 -166.5t-156 -245.5t-54.5 -291q0 -239 148.5 -388t385.5 -149q205 0 369 99l39 -82q-195 -121 -416 -121
q-134 -2 -253.5 47t-203.5 135t-132 205.5t-46 253.5zM874 328l89 266q14 38 14 80q0 54 -30.5 86.5t-84.5 32.5q-77 0 -142 -60.5t-99.5 -148t-34.5 -176.5q0 -79 38 -127t101 -48q94 0 149 95z" />
    <glyph glyph-name="A" unicode="A" horiz-adv-x="1402" 
d="M1171 258q18 -98 38.5 -137.5t74.5 -67.5v-53h-469v53q89 24 123.5 57t34.5 89q0 1 -4 51l-31 196h-555l-121 -190q-57 -92 -57 -131q0 -45 76 -72v-53h-385v53q82 29 133 74t108 137l731 1159h119zM821 1141l-370 -586h471l-88 586h-13z" />
    <glyph glyph-name="B" unicode="B" horiz-adv-x="1353" 
d="M-4 53q92 22 127 60q38 41 61 139l228 907q18 71 18 115q0 45 -20.5 67.5t-67.5 28.5v53h549q204 0 321 -85t117 -224q0 -143 -110.5 -240.5t-294.5 -128.5v-12q147 -19 236 -102t89 -201q3 -125 -81 -225t-224 -153t-305 -52h-643v53zM729 801q174 0 277.5 83t103.5 224
q0 99 -71 153t-201 54h-181l-129 -514h201zM502 692l-148 -583h232q200 0 319 94q123 94 123 256q0 233 -326 233h-200z" />
    <glyph glyph-name="C" unicode="C" horiz-adv-x="1394" 
d="M150 618q-2 126 37 250.5t114.5 229t176 185t229.5 124.5t266 41q244 0 424 -109v-303h-58q-41 142 -138.5 220.5t-231.5 78.5q-120 3 -231 -54t-189.5 -151.5t-124 -219t-43.5 -251.5q0 -239 133 -377.5t342 -138.5q227 0 418 170l51 -49q-117 -150 -251 -219.5
t-298 -69.5q-124 -2 -238.5 44t-201 128.5t-137.5 205.5t-49 265z" />
    <glyph glyph-name="D" unicode="D" horiz-adv-x="1566" 
d="M410 1159q18 73 18 115q0 44 -20.5 66t-67.5 30v53h518q144 2 270.5 -42.5t216 -124t140 -192t49.5 -241.5q3 -176 -66.5 -330t-192.5 -263t-296 -170.5t-371 -59.5h-614v53q53 13 81.5 25t50 38.5t32.5 57.5t28 96zM555 109q172 0 314.5 56t237 155t146.5 234.5
t52 293.5q0 221 -127.5 344t-350.5 123h-172l-303 -1206h203z" />
    <glyph glyph-name="E" unicode="E" horiz-adv-x="1314" 
d="M1145 358v-358h-1153v53q54 13 83.5 25.5t51.5 40t33 58.5t28 97l222 885q18 73 18 117q0 43 -20.5 65t-67.5 29v53h1036v-307h-57q-11 109 -78 154t-221 45h-365l-135 -541h189q120 0 173.5 35t59.5 115h55v-408h-55q-6 80 -58.5 115t-172.5 35h-219l-140 -557h441
q139 0 210 57.5t84 191.5h58z" />
    <glyph glyph-name="F" unicode="F" horiz-adv-x="1200" 
d="M-4 53q66 15 99.5 36.5t51 56t37.5 108.5l226 897q22 86 22 127t-20 61t-70 31v53h971v-307h-58q-8 106 -77.5 152.5t-221.5 46.5h-299l-139 -557h221q122 0 175.5 35t58.5 114h57v-407h-57q-5 80 -60 114.5t-178 34.5h-246l-98 -391q-16 -75 -16 -104q0 -42 22.5 -62.5
t81.5 -38.5v-53h-483v53z" />
    <glyph glyph-name="G" unicode="G" horiz-adv-x="1523" 
d="M379 618q0 -248 122.5 -390t340.5 -142q86 0 192 29l92 377q11 57 11 73q0 51 -28.5 76t-94.5 33v53h497v-53q-79 -13 -117.5 -54.5t-62.5 -132.5l-98 -393q-210 -119 -428 -119q-134 -2 -255 46t-210 133t-140.5 208.5t-49.5 264.5q-3 161 65.5 312t187.5 264.5
t290 180.5t362 64q278 0 471 -109v-295h-56q-50 137 -160.5 214t-256.5 77q-122 2 -230.5 -36t-189 -107t-139 -160t-87.5 -197t-28 -217z" />
    <glyph glyph-name="H" unicode="H" horiz-adv-x="1656" 
d="M1309 1423h460v-53q-83 -15 -118 -53q-37 -40 -60 -139l-231 -930q-17 -73 -17 -98q0 -41 22 -63t73 -34v-53h-463v53q83 16 115 53q36 38 63 142l104 420h-763l-105 -420q-16 -69 -16 -98q0 -41 21.5 -63t72.5 -34v-53h-463v53q85 15 117 53q37 40 61 142l232 928
q16 75 16 100q0 41 -21 62t-71 32v53h461v-53q-84 -15 -119 -53t-59 -139l-99 -396h764l98 394q17 73 17 100q0 41 -21 62t-71 32v53z" />
    <glyph glyph-name="I" unicode="I" horiz-adv-x="686" 
d="M4 53q85 15 119 52t61 151l226 907q18 73 18 115q0 41 -20 61t-70 31v53h461v-53q-84 -15 -120 -54.5t-63 -150.5l-225 -909q-16 -75 -16 -104q0 -43 21 -65t71 -34v-53h-463v53z" />
    <glyph glyph-name="J" unicode="J" horiz-adv-x="962" 
d="M-84 90l43 74q115 -68 219 -68q259 0 328 279l199 784q18 73 18 117q0 41 -20 62t-70 32v53h461v-53q-85 -19 -120.5 -57t-62.5 -146l-192 -772q-54 -214 -173 -317t-306 -103t-324 115z" />
    <glyph glyph-name="K" unicode="K" horiz-adv-x="1411" 
d="M1595 1370q-116 -15 -196 -63q-82 -50 -189 -138l-424 -362l531 -797v-10h-248l-436 676l-176 -152l-66 -264q-20 -79 -20 -113q0 -38 21.5 -59t72.5 -35v-53h-461v53q86 19 119.5 56.5t60.5 148.5l230 918q16 75 16 102q0 39 -21 60.5t-71 31.5v53h461v-53
q-84 -17 -120 -56t-61 -138l-116 -469h10l580 501q104 88 104 129q0 24 -33 33v53h432v-53z" />
    <glyph glyph-name="L" unicode="L" horiz-adv-x="1196" 
d="M-8 53q97 25 130.5 61t61.5 148l226 903q18 71 18 113q0 43 -20.5 64t-69.5 28v53h465v-53q-87 -9 -122 -47t-63 -154l-266 -1060h369q75 0 122 11t84 43.5t58 89t33 148.5h55v-401h-1081v53z" />
    <glyph glyph-name="M" unicode="M" horiz-adv-x="1931" 
d="M752 0l-207 1186h-15l-229 -934q-18 -70 -18 -107q0 -38 19 -58t67 -34v-53h-377v53q89 19 124.5 56.5t63.5 142.5l228 909q18 71 18 113q0 38 -19.5 60t-62.5 36v53h361l200 -1161h15l759 1161h373v-53q-83 -7 -120.5 -51t-67.5 -160l-228 -905q-18 -70 -18 -111
q0 -38 19.5 -58.5t64.5 -31.5v-53h-461v53q89 19 125.5 57t63.5 144l235 938h-16l-777 -1192h-120z" />
    <glyph glyph-name="N" unicode="N" horiz-adv-x="1560" 
d="M-10 53q91 19 126.5 57.5t63.5 145.5l256 1034l-59 125v8h266l514 -1116h12l217 869q19 81 19 102q0 37 -19.5 58t-66.5 34v53h373v-53q-87 -19 -125.5 -59.5t-63.5 -139.5l-291 -1171h-133l-544 1163h-13l-225 -909q-18 -70 -18 -111q0 -37 19 -56.5t67 -33.5v-53h-375
v53z" />
    <glyph glyph-name="O" unicode="O" horiz-adv-x="1617" 
d="M147 588q-3 164 61 322.5t173 278t264.5 191.5t325.5 68q273 0 445.5 -171.5t172.5 -440.5q2 -110 -26 -219.5t-80 -205t-128.5 -177.5t-166.5 -140t-199 -90t-223 -29q-274 0 -446.5 172t-172.5 441zM1358 860q0 220 -105 346.5t-288 126.5q-100 3 -193 -41.5t-164 -123
t-124 -178t-80 -210.5t-25 -217q0 -221 105 -347t288 -126q100 -3 193 41.5t164 123t124 178t80 210.5t25 217z" />
    <glyph glyph-name="P" unicode="P" horiz-adv-x="1212" 
d="M473 594l-84 -334q-16 -75 -16 -106q0 -40 21.5 -61.5t76.5 -39.5v-53h-479v53q89 21 127 62q37 40 65 151l224 893q22 83 22 121q0 40 -20.5 59.5t-71.5 30.5v53h479q212 0 344.5 -102t132.5 -268q0 -142 -83 -248t-221 -158.5t-312 -52.5h-205zM653 1315l-153 -615h147
q198 0 312 97.5t114 267.5q0 121 -76 185.5t-213 64.5h-131z" />
    <glyph glyph-name="Q" unicode="Q" horiz-adv-x="1615" 
d="M1120 102h465v-194h-12l-565 110q-125 -43 -252 -43q-270 0 -441.5 171.5t-171.5 441.5q-2 131 37 260t114.5 237.5t176 191.5t228.5 128.5t264 42.5q271 0 441.5 -171.5t170.5 -440.5q0 -248 -127 -443q-125 -189 -328 -276v-15zM762 90q125 -4 237 65.5t186 182.5
t117 251t41 271q0 219 -104 346t-281 127q-124 4 -236 -66.5t-187.5 -183t-118.5 -250.5t-41 -270q0 -221 104 -347t283 -126z" />
    <glyph glyph-name="R" unicode="R" horiz-adv-x="1359" 
d="M831 702l451 -692v-10h-238l-434 692h-106l-113 -446q-16 -75 -16 -105q0 -39 20.5 -58.5t73.5 -29.5v-53h-467v53q90 15 123 51q36 42 59 140l228 917q22 86 22 125q0 38 -21.5 58t-70.5 26v53h502q207 0 341 -95t134 -241q0 -156 -133 -262q-132 -102 -355 -123z
M528 799h166q187 0 298.5 80t111.5 219q0 105 -77 161t-218 56h-152z" />
    <glyph glyph-name="S" unicode="S" horiz-adv-x="1099" 
d="M51 119v293h55q123 -326 392 -326q117 0 200 68q84 69 84 182q0 67 -38.5 121.5t-122.5 111.5l-142 99q-205 138 -205 356q0 187 140 305.5t352 118.5q103 0 201 -26.5t172 -73.5v-287h-56q-85 276 -327 276q-124 0 -205.5 -70.5t-81.5 -181.5q0 -69 33.5 -123.5
t107.5 -105.5l150 -104q113 -77 166 -159t53 -192q0 -126 -67.5 -224.5t-179 -150t-245.5 -51.5q-249 0 -436 144z" />
    <glyph glyph-name="T" unicode="T" horiz-adv-x="1275" 
d="M281 53q97 15 133.5 55.5t66.5 159.5l262 1051h-131q-158 0 -233 -50.5t-82 -162.5h-55v317h1183v-317h-55q-12 109 -92.5 161t-233.5 52h-94l-264 -1051q-16 -75 -16 -110q0 -49 23.5 -71.5t84.5 -33.5v-53h-497v53z" />
    <glyph glyph-name="U" unicode="U" horiz-adv-x="1564" 
d="M219 426q0 66 23 170l143 575q18 71 18 107q0 41 -20 60.5t-74 31.5v53h465v-53q-83 -18 -119.5 -56.5t-62.5 -139.5l-148 -592q-18 -80 -18 -144q0 -147 86.5 -227t241.5 -80q184 0 312 114t183 330l148 592q18 76 18 115q0 36 -18.5 56t-63.5 32v53h375v-53
q-87 -15 -129 -57q-36 -39 -63 -146l-152 -606q-70 -285 -233.5 -435.5t-413.5 -150.5q-223 0 -360.5 123t-137.5 328z" />
    <glyph glyph-name="V" unicode="V" horiz-adv-x="1404" 
d="M641 0h-121l-155 1161q-12 95 -37.5 139t-85.5 70v53h460v-53q-84 -19 -113.5 -46t-29.5 -83q0 -27 8 -84l113 -870h12l557 870q74 116 74 152q0 38 -59 61v53h370v-53q-88 -27 -139 -72q-51 -42 -119 -151z" />
    <glyph glyph-name="W" unicode="W" horiz-adv-x="2011" 
d="M360 1165q-6 94 -27 134.5t-81 70.5v53h465v-53q-97 -17 -131 -63t-29 -140l45 -843h12l521 884l-13 215h213l58 -1089h12l455 821q36 67 49.5 98t13.5 54t-15.5 37t-52.5 26v53h367v-53q-88 -27 -133 -72q-44 -41 -100 -141l-641 -1157h-131l-56 1016h-12l-598 -1016
h-131z" />
    <glyph glyph-name="X" unicode="X" horiz-adv-x="1400" 
d="M668 723l-217 455q-47 95 -80 131q-34 40 -99 61v53h480v-53q-60 -13 -86.5 -35.5t-26.5 -58.5q0 -29 31 -96l139 -301h12l326 331q70 70 70 113q0 33 -39 47v53h378v-53q-88 -22 -139 -55q-53 -35 -135 -117l-420 -428l250 -524q43 -85 81 -126.5t103 -66.5v-53h-483v53
q59 17 85 39t26 55q0 27 -27 86l-178 377h-12l-363 -364q-92 -95 -92 -137q0 -36 45 -56v-53h-387v53q80 27 145 72q58 40 146 125z" />
    <glyph glyph-name="Y" unicode="Y" horiz-adv-x="1406" 
d="M1237 1423h383v-53q-82 -16 -139 -56.5t-127 -123.5l-520 -604l-91 -359q-12 -53 -12 -84q0 -41 20 -60t70 -30v-53h-465v53q84 10 121 45.5t60 128.5l94 373l-215 576q-34 93 -70 137t-96 57v53h477v-53q-117 -20 -117 -98q0 -40 27 -113l158 -434h12l395 461
q82 94 82 141q0 34 -47 43v53z" />
    <glyph glyph-name="Z" unicode="Z" horiz-adv-x="1234" 
d="M-20 0v96l1103 1211v8h-448q-130 0 -197 -55t-86 -179h-55v342h1069v-96l-1104 -1210v-8h438q143 0 213 58.5t93 205.5h55v-373h-1081z" />
    <glyph glyph-name="bracketleft" unicode="[" horiz-adv-x="698" 
d="M940 1593v-92h-299l-424 -1708h277v-92h-492l471 1892h467z" />
    <glyph glyph-name="backslash" unicode="\" horiz-adv-x="768" 
d="M401 1505l195 -1585h-115l-194 1585h114z" />
    <glyph glyph-name="bracketright" unicode="]" horiz-adv-x="698" 
d="M-158 -299v92h297l426 1708h-276v92h491l-473 -1892h-465z" />
    <glyph glyph-name="asciicircum" unicode="^" horiz-adv-x="851" 
d="M315 813h-122l280 610h117l282 -610h-129l-208 481h-9z" />
    <glyph glyph-name="underscore" unicode="_" horiz-adv-x="997" 
d="M788 -219h-884v110h884v-110z" />
    <glyph glyph-name="grave" unicode="`" horiz-adv-x="434" 
d="M496 1419l47 -293h-82l-193 285v8h228z" />
    <glyph glyph-name="a" unicode="a" horiz-adv-x="1155" 
d="M74 373q-2 112 41.5 225t117.5 201t179 142.5t217 51.5q84 0 156 -32t120 -89h13l120 97h62l-187 -750q-14 -55 -14 -74q0 -22 13.5 -31t50.5 -14v-53l-287 -57h-12l36 149h-12q-120 -164 -293 -164q-141 0 -231 111.5t-90 286.5zM745 311l74 301q12 47 12 88
q0 88 -50 140.5t-136 52.5q-108 0 -196.5 -71.5t-136.5 -184t-48 -236.5q0 -131 52.5 -206.5t144.5 -75.5q84 0 150 49.5t134 142.5z" />
    <glyph glyph-name="b" unicode="b" horiz-adv-x="1150" 
d="M238 96h-13l-125 -106h-61l307 1231q10 52 10 65q0 31 -16.5 45.5t-58.5 22.5v53l307 57h10l-160 -635h15q118 164 295 164q140 0 234.5 -112t94.5 -281q1 -118 -43.5 -233t-119.5 -202t-181.5 -139.5t-220.5 -50.5q-85 0 -157 32.5t-117 88.5zM885 571q0 131 -55 205
t-154 74q-150 0 -281 -193l-73 -290q-13 -57 -13 -95q0 -91 52 -143.5t135 -52.5q104 -3 195.5 68t143.5 186.5t50 240.5z" />
    <glyph glyph-name="c" unicode="c" horiz-adv-x="968" 
d="M82 418q-2 110 40 216t115.5 186t181 128t226.5 45q146 0 273 -65v-219h-56q-25 87 -82 133.5t-137 46.5q-154 0 -262.5 -126.5t-108.5 -301.5q0 -155 77.5 -241.5t213.5 -86.5q149 0 271 96l45 -47q-73 -99 -176 -153t-214 -54q-177 0 -292 126.5t-115 316.5z" />
    <glyph glyph-name="d" unicode="d" horiz-adv-x="1163" 
d="M74 369q-2 114 41.5 228t118 202.5t181 142.5t220.5 51q154 0 254 -100h12l84 338q8 27 8 55q0 31 -17 46.5t-58 21.5v53l307 57h10l-315 -1259q-11 -50 -11 -60q0 -20 14.5 -30.5t49.5 -14.5v-53l-287 -57h-12l37 149h-13q-123 -164 -297 -164q-137 0 -232 112t-95 282z
M756 311l71 293q13 57 13 98q0 91 -50 141t-137 50q-105 0 -195 -69t-142 -182.5t-52 -242.5q0 -131 54.5 -205.5t152.5 -74.5q151 0 285 192z" />
    <glyph glyph-name="e" unicode="e" horiz-adv-x="1007" 
d="M936 672q0 -46 -8 -82l-8 -43h-644q-6 -40 -6 -78q0 -160 81 -248t222 -88q153 0 269 96l47 -47q-74 -98 -176.5 -152.5t-214.5 -54.5q-176 0 -295 122t-119 317q-1 110 37 215.5t105 187t165 130t207 46.5q153 0 245.5 -90t92.5 -231zM297 643h453q6 35 6 64
q0 86 -45 135t-129 49q-97 0 -172 -67.5t-113 -180.5z" />
    <glyph glyph-name="f" unicode="f" horiz-adv-x="761" 
d="M31 53q67 9 88 32t43 112l164 657h-191v115h221l47 188q37 152 145.5 237t268.5 85q99 0 187 -31v-201h-50q-14 53 -58 89t-105 36q-145 0 -185 -162l-61 -241h254v-115h-281l-164 -657q-16 -66 -16 -86q0 -29 16.5 -40.5t61.5 -17.5v-53h-385v53z" />
    <glyph glyph-name="g" unicode="g" horiz-adv-x="1048" 
d="M1104 868h-254v-10q32 -24 52 -66t20 -94q0 -155 -123.5 -255.5t-304.5 -100.5q-72 0 -146 23q-62 -19 -99.5 -51t-37.5 -68q0 -35 26 -53.5t82 -24.5l275 -31q307 -34 307 -231q0 -102 -75.5 -182t-198 -121t-267.5 -41q-196 0 -315 69.5t-119 184.5q0 139 201 225v6
q-78 54 -78 137q0 69 53.5 129.5t149.5 98.5v6q-98 79 -98 211q0 159 124.5 261.5t305.5 102.5q57 0 137 -22l373 76h10v-179zM737 727q0 80 -41 128t-114 48q-103 0 -172.5 -87t-69.5 -204q0 -84 42.5 -131t117.5 -47q101 0 169 87.5t68 205.5zM246 8q-73 -30 -114.5 -75.5
t-41.5 -100.5q0 -81 75.5 -126.5t201.5 -45.5q148 0 247 51q103 50 103 139q0 56 -39.5 84t-126.5 39z" />
    <glyph glyph-name="h" unicode="h" horiz-adv-x="1144" 
d="M362 1217q13 47 13 71q0 31 -17 45.5t-59 20.5v53l305 57h12l-159 -635h12q69 85 141 124.5t158 39.5q111 0 184.5 -77.5t73.5 -202.5q0 -59 -14 -111l-105 -422q-12 -50 -12 -74q0 -25 13 -36t48 -17v-53h-370v53q63 9 88 33.5t43 101.5l108 433q11 57 11 73
q0 73 -40.5 115.5t-105.5 42.5q-144 0 -272 -180l-125 -498q-8 -31 -8 -61t12.5 -42t48.5 -18v-53h-366v53q64 9 83.5 28.5t40.5 100.5z" />
    <glyph glyph-name="i" unicode="i" horiz-adv-x="559" 
d="M346 1268q0 63 43.5 105t106.5 42q51 0 83.5 -33t32.5 -84q0 -63 -43.5 -106t-105.5 -43q-51 0 -84 34t-33 85zM311 193q-14 -60 -14 -82q0 -29 13.5 -40.5t49.5 -17.5v-53h-366v53q66 9 86.5 31.5t40.5 110.5l135 540q10 52 10 70q0 30 -15.5 43.5t-57.5 19.5v54l305 57
h10z" />
    <glyph glyph-name="j" unicode="j" horiz-adv-x="530" 
d="M336 1268q0 61 43.5 104t105.5 43q51 0 84 -33t33 -84q0 -63 -42.5 -106t-104.5 -43q-51 0 -85 34t-34 85zM-336 -387l33 70q53 -21 117 -21q83 0 134 47.5t77 151.5l217 872q10 42 10 70q0 30 -16.5 44.5t-55.5 20.5v54l303 57h13l-277 -1104q-79 -313 -373 -313
q-102 0 -182 51z" />
    <glyph glyph-name="k" unicode="k" horiz-adv-x="1089" 
d="M1167 915q-80 -10 -145 -41.5t-156 -99.5l-266 -203l377 -561v-10h-225l-297 461l-113 -84l-45 -184q-12 -53 -12 -82q0 -27 13 -39.5t48 -18.5v-53h-366v53q65 9 84 28t40 101l265 1055q6 27 6 49q0 31 -16.5 46.5t-57.5 21.5v53l305 57h10l-233 -932h14l369 285
q65 53 65 76q0 16 -26 22v54h362v-54z" />
    <glyph glyph-name="l" unicode="l" horiz-adv-x="546" 
d="M-23 53q65 9 85.5 31t43.5 111l256 1026q13 47 13 69q0 30 -17 44t-57 20v53l303 57h10l-319 -1271q-14 -60 -14 -82q0 -29 13.5 -40.5t49.5 -17.5v-53h-367v53z" />
    <glyph glyph-name="m" unicode="m" horiz-adv-x="1716" 
d="M256 739q8 31 8 62q0 32 -16 46.5t-55 20.5v54l303 57h10l-37 -150h12q132 164 299 164q97 0 159.5 -56.5t70.5 -148.5h12q144 205 336 205q105 0 174.5 -72.5t69.5 -189.5q0 -55 -15 -110l-104 -426q-17 -66 -17 -84q0 -29 14 -41t50 -17v-53h-371v53q34 5 51 10.5
t34 20.5t27 41t21 72l111 446q10 52 10 72q0 65 -36.5 101t-98.5 36q-139 0 -262 -188l-117 -469q-16 -66 -16 -86q0 -26 13 -37t50 -19v-53h-366v53q66 9 86.5 32t42.5 112l110 450q10 52 10 72q0 63 -34 98t-95 35q-137 0 -270 -180l-119 -475q-14 -52 -14 -88
q0 -26 13 -38t48 -18v-53h-366v53q65 9 85 30t42 105z" />
    <glyph glyph-name="n" unicode="n" horiz-adv-x="1157" 
d="M254 731q12 61 12 72q0 30 -17 44.5t-59 20.5v54l306 57h10l-37 -150h12q69 85 141 124.5t158 39.5q111 0 184.5 -77.5t73.5 -204.5q0 -57 -14 -109l-106 -426q-13 -50 -13 -70q0 -24 14 -35.5t50 -17.5v-53h-371v53q64 11 88.5 35t42.5 100l109 433q10 52 10 73
q0 73 -40 115.5t-103 42.5q-149 0 -277 -180l-123 -498q-8 -31 -8 -61t12.5 -42t48.5 -18v-53h-366v53q64 9 84 29t41 100z" />
    <glyph glyph-name="o" unicode="o" horiz-adv-x="1140" 
d="M78 385q-3 161 74 302.5t211.5 225t289.5 80.5q184 0 299 -114t115 -295q2 -120 -43.5 -233.5t-122.5 -196.5t-185 -132.5t-224 -46.5q-185 0 -299.5 114.5t-114.5 295.5zM858 616q0 127 -55.5 197t-155.5 70q-106 4 -192 -79t-129 -205t-41 -247q0 -128 55 -197t158 -69
q78 -3 147.5 45t115 125.5t72 172.5t25.5 187z" />
    <glyph glyph-name="p" unicode="p" horiz-adv-x="1169" 
d="M248 735q12 47 12 72q0 27 -15.5 40t-56.5 19v54l301 59h11l-37 -150h12q123 164 295 164q139 0 234.5 -109.5t95.5 -287.5q2 -112 -41.5 -225.5t-118 -202t-181 -142.5t-220.5 -51q-149 0 -254 97h-13l-71 -285q-15 -55 -15 -86q0 -28 15 -39.5t55 -17.5v-54h-375v54
q66 9 85 30t44 113zM907 569q0 133 -54 207t-151 74q-149 0 -284 -193l-74 -290q-12 -52 -12 -97q0 -91 50 -142.5t136 -51.5q108 -4 200 70t141.5 188.5t47.5 234.5z" />
    <glyph glyph-name="q" unicode="q" horiz-adv-x="1146" 
d="M711 139h-13q-63 -83 -133.5 -123.5t-161.5 -40.5q-140 0 -234.5 111.5t-94.5 280.5q-2 92 25.5 184.5t79.5 172t121 141.5t157 96t180 32q178 0 278 -121h13l121 97h61l-297 -1184q-14 -52 -14 -86q0 -25 12.5 -36t46.5 -19v-54h-373v54q69 6 94.5 31.5t45.5 113.5z
M756 311l71 293q13 57 13 96q0 91 -50 142t-137 51q-105 0 -194.5 -70t-141 -184.5t-51.5 -243.5q0 -128 54.5 -202t152.5 -74q152 0 283 192z" />
    <glyph glyph-name="r" unicode="r" horiz-adv-x="784" 
d="M252 733q12 43 12 70q0 30 -17.5 44.5t-56.5 20.5v54l302 57h14l-68 -260h15q76 148 146.5 211t172.5 63q34 0 68 -12v-195q-44 15 -95 15q-101 0 -190.5 -73t-161.5 -202l-86 -344q-12 -46 -12 -71q0 -29 16 -41t58 -17v-53h-379v53q63 9 84.5 30t42.5 101z" />
    <glyph glyph-name="s" unicode="s" horiz-adv-x="839" 
d="M20 80v201h56q37 -98 104.5 -149.5t159.5 -51.5q84 0 134 37t50 104q0 42 -22.5 74.5t-77.5 69.5l-111 75q-143 96 -143 246q0 131 102 219t258 88q145 0 275 -71v-203h-55q-25 81 -84.5 124.5t-149.5 43.5q-81 0 -135.5 -38.5t-54.5 -100.5q0 -44 24 -77t84 -75l111 -72
q77 -51 114 -109t37 -134q0 -129 -105 -217.5t-257 -88.5q-173 0 -314 105z" />
    <glyph glyph-name="t" unicode="t" horiz-adv-x="714" 
d="M141 184q0 38 13 88l145 582h-178v88q45 3 78 7.5t61.5 14t47 17.5t37.5 27t29.5 34t25.5 47t24.5 57t26.5 73h131l-62 -250h258v-115h-286l-154 -612q-6 -27 -6 -49q0 -95 104 -95q69 0 133 31l31 -57q-117 -97 -242 -97q-99 0 -158 56t-59 153z" />
    <glyph glyph-name="u" unicode="u" horiz-adv-x="1120" 
d="M119 246q0 46 14 106l94 377q13 47 13 70q0 29 -17.5 44t-56.5 21v54l303 57h10l-160 -643q-10 -52 -10 -80q0 -63 33.5 -99t93.5 -36q134 0 269 194l104 416q12 43 12 70q0 30 -17.5 45.5t-58.5 21.5v54l308 57h10l-189 -752q-14 -60 -14 -78q0 -23 13 -31.5t49 -13.5
v-53l-287 -57h-12l36 149h-12q-120 -164 -287 -164q-104 0 -172.5 75.5t-68.5 195.5z" />
    <glyph glyph-name="v" unicode="v" horiz-adv-x="1038" 
d="M242 743q-11 68 -36 94.5t-93 36.5v52l288 57l2 -31l9 -53l24 -164l62 -467h12l326 500q43 67 43 96q0 36 -52 51v54h310v-54q-63 -11 -97.5 -40t-81.5 -101l-507 -774h-97z" />
    <glyph glyph-name="w" unicode="w" horiz-adv-x="1533" 
d="M473 289l326 524l-13 156h185l61 -684h15l282 473q43 76 43 108q0 18 -10.5 28t-36.5 21v54h299v-54q-64 -17 -99.5 -49.5t-84.5 -113.5l-451 -752h-98l-60 670h-12l-418 -670h-96l-69 756q-5 57 -31.5 84t-91.5 34v52l290 57l5 -49l18 -240l35 -405h12z" />
    <glyph glyph-name="x" unicode="x" horiz-adv-x="1017" 
d="M424 481l-145 305q-29 60 -60.5 88t-85.5 41v54h408v-54q-82 -18 -82 -65q0 -21 18 -62l76 -170h14l168 175q58 58 58 88q0 19 -37 34v54h323v-54q-71 -12 -121.5 -42.5t-109.5 -94.5l-244 -252l160 -329q27 -59 57.5 -90t85.5 -54v-53h-407v53q90 20 90 68q0 15 -17 57
l-96 215h-14l-187 -194q-77 -77 -77 -107q0 -24 45 -39v-53h-334v53q72 18 124 51t122 103z" />
    <glyph glyph-name="y" unicode="y" horiz-adv-x="1030" 
d="M823 969h307v-54q-66 -20 -102 -50t-78 -99l-544 -909q-99 -164 -189 -232q-81 -63 -192 -63q-78 0 -142 37v168q72 -29 154 -29q96 0 169 45t138 156l37 61l-137 743q-10 66 -38.5 93t-96.5 38v52l282 57l4 -20l37 -220l84 -491h14l308 518q39 62 39 94q0 18 -12 29
t-42 22v54z" />
    <glyph glyph-name="z" unicode="z" horiz-adv-x="946" 
d="M238 115v-13h247q99 0 150 38.5t88 140.5h53v-281h-807v88l713 766v12h-217q-99 0 -146 -30.5t-73 -114.5h-53v248h759v-88z" />
    <glyph glyph-name="braceleft" unicode="{" horiz-adv-x="753" 
d="M104 -35q0 54 15 107l92 368q12 52 12 88q0 54 -29.5 79.5t-97.5 31.5v92q105 7 158 50.5t78 140.5l92 368q37 158 146.5 240t267.5 82q84 0 163 -29l-32 -84q-49 12 -99 12q-208 0 -258 -200l-96 -381q-53 -220 -246 -250v-10q59 -13 91 -61.5t32 -121.5q0 -56 -14 -108
l-88 -359q-12 -46 -12 -83q0 -154 184 -154q30 0 92 10l-6 -88q-80 -22 -154 -22q-129 0 -210 77t-81 205z" />
    <glyph glyph-name="bar" unicode="|" horiz-adv-x="514" 
d="M121 -299h-119l471 1892h119z" />
    <glyph glyph-name="braceright" unicode="}" horiz-adv-x="751" 
d="M729 1329q0 -56 -14 -108l-90 -367q-13 -57 -13 -88q0 -54 29.5 -79.5t95.5 -31.5v-92q-105 -7 -156.5 -50t-76.5 -140l-92 -371q-37 -157 -146.5 -238t-267.5 -81q-96 0 -166 28l35 84q49 -12 98 -12q208 0 258 201l94 381q59 222 248 249v9q-60 17 -91.5 64.5
t-31.5 119.5q0 53 15 108l88 359q12 46 12 84q0 153 -184 153q-30 0 -92 -10l6 88q71 21 153 21q126 0 207.5 -77.5t81.5 -203.5z" />
    <glyph glyph-name="asciitilde" unicode="~" horiz-adv-x="1132" 
d="M113 358q-1 121 63.5 196t169.5 75q90 0 201 -60l86 -47q100 -53 151 -53q61 0 94 41t33 115h115q0 -121 -66 -195t-172 -74q-84 0 -198 60l-88 47q-89 51 -150 51t-94 -41t-33 -115h-112z" />
    <glyph glyph-name="uni00A0" unicode="&#xa0;" horiz-adv-x="507" 
 />
    <glyph glyph-name="exclamdown" unicode="&#xa1;" horiz-adv-x="520" 
d="M483 866q0 -63 -44 -107t-107 -44q-57 0 -93 35.5t-36 91.5q0 66 44.5 108.5t110.5 42.5q57 0 91 -35t34 -92zM236 573h98l-195 -1028h-223z" />
    <glyph glyph-name="cent" unicode="&#xa2;" horiz-adv-x="1034" 
d="M895 709q-19 72 -62 117t-104 57l-184 -746q46 -4 51 -4q148 0 270 96l47 -47q-74 -99 -177 -153t-214 -54h-18l-39 -159h-103l44 176q-133 37 -212 152.5t-79 273.5q-1 107 39 210t110 183t172 130t217 52l41 162h103l-41 -166q113 -15 194 -61v-219h-55zM449 166
l178 719q-136 -22 -228 -144t-92 -280q0 -105 37 -181.5t105 -113.5z" />
    <glyph glyph-name="sterling" unicode="&#xa3;" horiz-adv-x="1132" 
d="M1165 1339v-276h-55q-58 246 -281 246q-159 0 -247.5 -107.5t-81.5 -312.5l10 -227h512v-105h-510q-1 -134 -52 -216t-169 -146v-11h653v-184h-950v96q106 58 161 95.5t96 90.5t54 114.5t14 160.5h-200v105h196l-8 194q-9 247 136.5 404t394.5 157q184 0 327 -78z" />
    <glyph glyph-name="currency" unicode="&#xa4;" horiz-adv-x="1236" 
d="M1053 977q57 -86 57 -209q0 -184 -123 -330l119 -147l-76 -58l-108 142q-132 -105 -301 -105q-159 0 -263 99l-180 -142l-55 72l178 139q-59 89 -59 209q0 188 120 330l-116 149l73 58l111 -142q130 105 299 105q157 0 264 -98l181 139l55 -72zM999 768
q0 121 -75.5 195.5t-194.5 74.5q-159 0 -268 -115t-109 -274q0 -119 76.5 -195.5t194.5 -76.5q105 0 192 54.5t135.5 144t48.5 192.5z" />
    <glyph glyph-name="yen" unicode="&#xa5;" horiz-adv-x="1292" 
d="M1098 1393h360v-54q-88 -17 -144.5 -56.5t-131.5 -131.5l-351 -436h279v-107h-348l-37 -141h324v-107h-351l-26 -108q-19 -74 -19 -109q0 -36 17 -54t63 -36v-53h-438v53q85 22 119 62q36 39 63 137l27 108h-324v107h350l35 141h-323v107h297l-117 442
q-23 91 -54.5 131.5t-88.5 50.5v54h436v-54q-61 -6 -85 -24t-24 -55q0 -30 12 -80l105 -422h12l336 420q68 86 68 125q0 27 -41 36v54z" />
    <glyph glyph-name="brokenbar" unicode="&#xa6;" horiz-adv-x="514" 
d="M420 897h-119l172 696h119zM121 -299h-119l174 698h119z" />
    <glyph glyph-name="section" unicode="&#xa7;" horiz-adv-x="1013" 
d="M1075 1339v-213h-55q-30 88 -101 135.5t-178 47.5q-119 0 -189.5 -51.5t-70.5 -137.5q0 -51 28 -91t93 -81l170 -106q94 -60 135 -120t41 -138q0 -107 -71.5 -191t-196.5 -129v-12q78 -84 78 -189q0 -148 -122.5 -249t-318.5 -101q-208 0 -344 92v220h56
q33 -98 105.5 -150.5t180.5 -52.5q119 0 191 50t72 136q0 53 -28 93t-91 79l-172 109q-89 58 -130.5 120.5t-41.5 141.5q0 204 268 311v10q-86 89 -86 205q0 138 128 239t325 101q184 0 325 -78zM481 795l-22 14q-174 -64 -174 -191q0 -51 25.5 -88t92.5 -81l160 -103
l43 -31q84 37 129 87.5t45 107.5q0 50 -28 87t-101 87z" />
    <glyph glyph-name="dieresis" unicode="&#xa8;" horiz-adv-x="702" 
d="M219 1266q0 60 41 100.5t102 40.5q48 0 79.5 -31t31.5 -80q0 -62 -40.5 -103.5t-100.5 -41.5q-50 0 -81.5 32t-31.5 83zM602 1266q0 60 41.5 100.5t101.5 40.5q50 0 81.5 -31t31.5 -80q0 -62 -41 -103.5t-102 -41.5q-50 0 -81.5 32t-31.5 83z" />
    <glyph glyph-name="copyright" unicode="&#xa9;" horiz-adv-x="1763" 
d="M201 727q-3 211 94 384.5t268.5 272t380.5 95.5q155 2 293.5 -55.5t237.5 -157.5t156 -240.5t55 -298.5q2 -158 -55 -298.5t-156 -240.5t-237.5 -157.5t-293.5 -55.5q-209 -3 -380.5 95.5t-268.5 272t-94 384.5zM1581 729q3 182 -81 333t-232 236t-326 82
q-136 0 -254 -49.5t-202 -135t-132.5 -206.5t-48.5 -260q-3 -185 80.5 -336.5t231 -236.5t327.5 -82q136 0 254 49.5t202.5 135.5t132.5 208t48 262zM584 723q0 170 112.5 285.5t278.5 115.5q115 0 211 -47v-180h-49q-7 60 -51.5 97.5t-106.5 37.5q-102 0 -164.5 -76
t-62.5 -196q0 -135 71.5 -214t188.5 -79q114 0 196 68l37 -46q-61 -81 -128 -119t-156 -38q-155 0 -266 113.5t-111 277.5z" />
    <glyph glyph-name="ordfeminine" unicode="&#xaa;" horiz-adv-x="886" 
d="M813 809q-12 -49 -12 -76q0 -25 11 -37t40 -16v-47l-266 -45h-4l30 129h-8q-92 -148 -237 -148q-81 0 -138 56t-57 141q0 101 77.5 159.5t237.5 92.5l213 45l19 72q8 36 8 53q0 62 -42.5 94.5t-117.5 32.5q-137 0 -250 -84l-38 59q175 158 354 158q117 0 191.5 -70
t74.5 -182q0 -42 -12 -88zM643 829l39 154l-150 -41q-101 -27 -142.5 -56t-41.5 -85q0 -47 27 -73t74 -26q91 0 194 127z" />
    <glyph glyph-name="guillemotleft" unicode="&#xab;" horiz-adv-x="1224" 
d="M557 14l-74 -39l-389 549l582 469l59 -59l-416 -426zM985 14l-76 -39l-352 502l639 516l59 -59l-477 -490z" />
    <glyph glyph-name="logicalnot" unicode="&#xac;" horiz-adv-x="1196" 
d="M1010 539v-539h-117v428h-770v111h887z" />
    <glyph glyph-name="uni00AD" unicode="&#xad;" horiz-adv-x="819" 
d="M715 551h-551v119h551v-119z" />
    <glyph glyph-name="registered" unicode="&#xae;" horiz-adv-x="1763" 
d="M1686 727q2 -158 -55 -298.5t-156 -240.5t-237.5 -157.5t-293.5 -55.5q-209 -3 -380.5 95.5t-268.5 272t-94 384.5q-3 211 94 384.5t268.5 272t380.5 95.5q155 2 293.5 -55.5t237.5 -157.5t156 -240.5t55 -298.5zM1581 729q3 182 -81 333t-232 236t-326 82
q-136 0 -254 -49.5t-202 -135t-132.5 -206.5t-48.5 -260q-3 -185 80.5 -336.5t231 -236.5t327.5 -82q136 0 254 49.5t202.5 135.5t132.5 208t48 262zM1047 707l303 -357v-8h-189l-291 356h-32v-221q0 -44 13.5 -61.5t49.5 -22.5v-51h-276v51q37 4 50 22t13 62v504
q0 49 -13 65.5t-50 18.5v51h331q135 0 215 -55t80 -152q0 -78 -54.5 -130.5t-149.5 -71.5zM838 770h75q86 0 132.5 35.5t46.5 101.5t-46 99.5t-133 33.5h-75v-270z" />
    <glyph glyph-name="macron" unicode="&#xaf;" horiz-adv-x="694" 
d="M840 1194h-609v102h609v-102z" />
    <glyph glyph-name="degree" unicode="&#xb0;" horiz-adv-x="765" 
d="M248 1157q0 125 84 209q85 82 211 82q129 0 211 -82q86 -83 86 -209q0 -128 -86 -211q-82 -82 -211 -82q-126 0 -211 82q-84 84 -84 211zM737 1157q0 85 -55 141t-139 56t-138.5 -56t-54.5 -141q0 -86 54 -141t139 -55q86 0 140 55t54 141z" />
    <glyph glyph-name="plusminus" unicode="&#xb1;" horiz-adv-x="1216" 
d="M633 961v-343h407v-112h-407v-287h-117v287h-407v112h407v343h117zM1040 -14h-931v112h931v-112z" />
    <glyph glyph-name="twosuperior" unicode="&#xb2;" horiz-adv-x="780" 
d="M176 821v88l295 191q139 91 198.5 158.5t59.5 150.5q0 77 -51.5 122.5t-132.5 45.5q-104 0 -187 -68l-47 54q128 155 307 155q121 0 208 -79t87 -191q0 -109 -69 -189t-217 -169l-146 -91v-8h322v-170h-627z" />
    <glyph glyph-name="threesuperior" unicode="&#xb3;" horiz-adv-x="770" 
d="M172 979l51 45q93 -96 215 -96q98 0 156.5 47t58.5 125q0 116 -153 125v84l239 204v9h-362v170h598v-88l-352 -297v-11q92 -17 146 -76t54 -141q0 -123 -95.5 -203.5t-233.5 -80.5q-106 0 -188 49.5t-134 134.5z" />
    <glyph glyph-name="acute" unicode="&#xb4;" horiz-adv-x="434" 
d="M299 1126h-92l158 293h258v-8z" />
    <glyph glyph-name="mu" unicode="&#xb5;" horiz-adv-x="1193" 
d="M281 731q12 59 12 70q0 29 -16.5 43t-57.5 20v54l301 57h12l-161 -649q-9 -34 -9 -72q0 -66 32.5 -101.5t92.5 -35.5q133 0 271 194l106 424q10 45 10 62q0 30 -17 45.5t-58 21.5v54l307 57h10l-188 -752q-15 -53 -15 -78q0 -23 13 -31.5t49 -13.5v-53l-287 -57h-12
l37 149h-13q-66 -89 -132 -126.5t-150 -37.5q-70 0 -117 41h-8l-55 -219q-17 -80 -17 -94q0 -29 16 -41t60 -18v-54h-303z" />
    <glyph glyph-name="paragraph" unicode="&#xb6;" horiz-adv-x="1298" 
d="M1395 1370q-85 -6 -122.5 -44t-62.5 -142l-372 -1483h-103l406 1624h-281l-405 -1624h-103l240 961q-180 0 -288.5 96.5t-108.5 245.5q0 200 151 309q152 110 395 110h654v-53z" />
    <glyph glyph-name="periodcentered" unicode="&#xb7;" horiz-adv-x="512" 
d="M137 551q0 63 44.5 107t107.5 44q57 0 92 -35.5t35 -91.5q0 -65 -45 -108t-109 -43q-57 0 -91 35t-34 92z" />
    <glyph glyph-name="cedilla" unicode="&#xb8;" horiz-adv-x="501" 
d="M-162 -311l37 41q66 -60 143 -60q56 0 92.5 26t36.5 68q0 32 -23.5 50t-62.5 18q-26 0 -63 -16l-8 6l125 207l53 -29l-64 -104l2 -2q21 6 41 6q51 0 88 -38t37 -93q0 -80 -63.5 -133.5t-161.5 -53.5q-129 0 -209 107z" />
    <glyph glyph-name="onesuperior" unicode="&#xb9;" horiz-adv-x="700" 
d="M430 821l133 537h-272v82q191 12 281 66t141 200h108l-221 -885h-170z" />
    <glyph glyph-name="ordmasculine" unicode="&#xba;" horiz-adv-x="999" 
d="M201 934q-3 132 63.5 252t182.5 192.5t249 69.5q159 0 258 -102t99 -265q0 -102 -38 -196t-103 -163.5t-157.5 -111t-195.5 -41.5q-161 0 -259.5 100.5t-98.5 264.5zM874 1124q0 100 -48 157.5t-130 57.5q-88 3 -163.5 -67.5t-115.5 -174.5t-38 -206q0 -100 47 -156.5
t131 -56.5q90 0 164.5 68.5t113.5 170t39 207.5z" />
    <glyph glyph-name="guillemotright" unicode="&#xbb;" 
d="M244 954l75 41l351 -503l-639 -517l-60 60l480 489zM672 954l73 41l390 -551l-584 -469l-59 60l417 426z" />
    <glyph glyph-name="onequarter" unicode="&#xbc;" horiz-adv-x="2095" 
d="M379 594l127 510h-260v78q181 12 266.5 64t136.5 190h103l-209 -842h-164zM1792 1423h-139l-1331 -1423h141zM1722 0h-151l53 205h-399v84l622 553h86l-125 -500h166v-137h-200zM1411 350v-8h246l72 281h-9z" />
    <glyph glyph-name="onehalf" unicode="&#xbd;" horiz-adv-x="1980" 
d="M379 594l127 510h-260v78q181 12 266.5 64t136.5 190h103l-209 -842h-164zM1790 1423h-139l-1332 -1423h142zM1194 0v84l281 182q131 83 188 147.5t57 145.5q0 74 -49 118t-125 44q-97 0 -178 -66l-45 52q120 147 293 147q115 0 198.5 -75.5t83.5 -180.5
q0 -102 -65.5 -178.5t-208.5 -165.5l-139 -84v-8h307v-162h-598z" />
    <glyph glyph-name="threequarters" unicode="&#xbe;" horiz-adv-x="2062" 
d="M131 748l49 40q87 -90 205 -90q92 0 148.5 45t56.5 117q0 112 -148 121v80l228 194v9h-344v161h569v-84l-336 -282v-10q88 -17 140.5 -73t52.5 -134q0 -117 -93 -195q-91 -76 -223 -76q-100 0 -177.5 47.5t-127.5 129.5zM1765 1423h-139l-1331 -1423h141zM1698 0h-152
l53 205h-399v84l623 553h86l-125 -500h166v-137h-201zM1386 350v-8h246l72 281h-8z" />
    <glyph glyph-name="questiondown" unicode="&#xbf;" horiz-adv-x="995" 
d="M743 866q0 -63 -44 -107t-107 -44q-57 0 -92 35.5t-35 91.5q0 65 44.5 108t108.5 43q57 0 91 -35t34 -92zM545 297q-193 -58 -296.5 -154t-103.5 -225q0 -110 79.5 -176t207.5 -66q95 0 173.5 35.5t133.5 93.5l56 -55q-182 -229 -445 -229q-174 0 -289.5 102.5
t-115.5 255.5q0 174 133.5 297t372.5 195l51 202h110z" />
    <glyph glyph-name="Agrave" unicode="&#xc0;" horiz-adv-x="1402" 
d="M983 1833l47 -293h-80l-192 287v6h225zM1171 258q18 -98 38.5 -137.5t74.5 -67.5v-53h-469v53q89 24 123.5 57t34.5 89q0 1 -4 51l-31 196h-555l-121 -190q-57 -92 -57 -131q0 -45 76 -72v-53h-385v53q82 29 133 74t108 137l731 1159h119zM821 1141l-370 -586h471
l-88 586h-13z" />
    <glyph glyph-name="Aacute" unicode="&#xc1;" horiz-adv-x="1402" 
d="M1268 1833v-6l-324 -287h-92l158 293h258zM1171 258q18 -98 38.5 -137.5t74.5 -67.5v-53h-469v53q89 24 123.5 57t34.5 89q0 1 -4 51l-31 196h-555l-121 -190q-57 -92 -57 -131q0 -45 76 -72v-53h-385v53q82 29 133 74t108 137l731 1159h119zM821 1141l-370 -586h471
l-88 586h-13z" />
    <glyph glyph-name="Acircumflex" unicode="&#xc2;" horiz-adv-x="1402" 
d="M1151 1540l-156 137l-239 -137h-117l330 293h104l174 -293h-96zM1171 258q18 -98 38.5 -137.5t74.5 -67.5v-53h-469v53q89 24 123.5 57t34.5 89q0 1 -4 51l-31 196h-555l-121 -190q-57 -92 -57 -131q0 -45 76 -72v-53h-385v53q82 29 133 74t108 137l731 1159h119z
M821 1141l-370 -586h471l-88 586h-13z" />
    <glyph glyph-name="Atilde" unicode="&#xc3;" horiz-adv-x="1402" 
d="M721 1559h-82q24 120 82.5 182.5t138.5 62.5q78 0 154 -61l30 -27q40 -35 86 -35q44 0 73 28.5t48 88.5h84q-24 -122 -83 -185t-140 -63q-84 0 -154 64l-26 24q-45 37 -88 37q-86 0 -123 -116zM1171 258q18 -98 38.5 -137.5t74.5 -67.5v-53h-469v53q89 24 123.5 57
t34.5 89q0 1 -4 51l-31 196h-555l-121 -190q-57 -92 -57 -131q0 -45 76 -72v-53h-385v53q82 29 133 74t108 137l731 1159h119zM821 1141l-370 -586h471l-88 586h-13z" />
    <glyph glyph-name="Adieresis" unicode="&#xc4;" horiz-adv-x="1402" 
d="M666 1677q0 60 42 102t103 42q48 0 79.5 -32t31.5 -81q0 -61 -41 -103t-101 -42q-51 0 -82.5 32t-31.5 82zM1051 1677q0 60 41.5 102t101.5 42q48 0 80.5 -32t32.5 -81q0 -61 -42 -103t-102 -42q-49 0 -80.5 32t-31.5 82zM1171 258q18 -98 38.5 -137.5t74.5 -67.5v-53
h-469v53q89 24 123.5 57t34.5 89q0 1 -4 51l-31 196h-555l-121 -190q-57 -92 -57 -131q0 -45 76 -72v-53h-385v53q82 29 133 74t108 137l731 1159h119zM821 1141l-370 -586h471l-88 586h-13z" />
    <glyph glyph-name="Aring" unicode="&#xc5;" horiz-adv-x="1402" 
d="M791 1700q0 80 57.5 137t138.5 57q82 0 141.5 -57.5t59.5 -136.5q0 -82 -58 -138.5t-143 -56.5q-82 0 -139 56.5t-57 138.5zM883 1700q0 -49 29.5 -80t74.5 -31q47 0 77 31t30 80q0 47 -30 77.5t-77 30.5q-45 0 -74.5 -30.5t-29.5 -77.5zM1171 258q18 -98 38.5 -137.5
t74.5 -67.5v-53h-469v53q89 24 123.5 57t34.5 89q0 1 -4 51l-31 196h-555l-121 -190q-57 -92 -57 -131q0 -45 76 -72v-53h-385v53q82 29 133 74t108 137l731 1159h119zM821 1141l-370 -586h471l-88 586h-13z" />
    <glyph glyph-name="AE" unicode="&#xc6;" horiz-adv-x="1875" 
d="M1061 1423h876v-307h-55q-17 110 -82 154.5t-217 44.5h-287l-135 -541h119q111 0 165 36t58 114h58v-408h-58q-4 79 -59 114.5t-166 35.5h-143l-140 -557h365q137 0 208 58t83 191h55v-358h-1071v53q93 22 129 60t61 143l47 190h-446l-150 -190q-46 -59 -66 -91.5
t-20 -55.5q0 -38 58 -56v-53h-377v53q80 26 141.5 74.5t134.5 142.5zM512 555h387l174 696h-12z" />
    <glyph glyph-name="Ccedilla" unicode="&#xc7;" horiz-adv-x="1394" 
d="M1397 1339v-303h-58q-41 142 -138.5 220.5t-231.5 78.5q-120 3 -231 -54t-189.5 -151.5t-124 -219t-43.5 -251.5q0 -239 133 -377.5t342 -138.5q227 0 418 170l51 -49q-117 -150 -251 -219.5t-298 -69.5h-28l-52 -79l2 -2q21 6 43 6q51 0 88 -38t37 -93
q0 -80 -64.5 -133.5t-160.5 -53.5q-131 0 -211 107l39 41q60 -60 141 -60q56 0 93.5 26t37.5 68q0 30 -24.5 49t-63.5 19q-26 0 -63 -16l-8 6l96 160q-230 35 -379 206.5t-149 429.5q-2 126 37 250.5t114.5 229t176 185t229.5 124.5t266 41q244 0 424 -109z" />
    <glyph glyph-name="Egrave" unicode="&#xc8;" horiz-adv-x="1314" 
d="M961 1833l47 -293h-80l-193 287v6h226zM1145 358v-358h-1153v53q54 13 83.5 25.5t51.5 40t33 58.5t28 97l222 885q18 73 18 117q0 43 -20.5 65t-67.5 29v53h1036v-307h-57q-11 109 -78 154t-221 45h-365l-135 -541h189q120 0 173.5 35t59.5 115h55v-408h-55
q-6 80 -58.5 115t-172.5 35h-219l-140 -557h441q139 0 210 57.5t84 191.5h58z" />
    <glyph glyph-name="Eacute" unicode="&#xc9;" horiz-adv-x="1314" 
d="M922 1540h-93l158 293h258v-6zM1145 358v-358h-1153v53q54 13 83.5 25.5t51.5 40t33 58.5t28 97l222 885q18 73 18 117q0 43 -20.5 65t-67.5 29v53h1036v-307h-57q-11 109 -78 154t-221 45h-365l-135 -541h189q120 0 173.5 35t59.5 115h55v-408h-55q-6 80 -58.5 115
t-172.5 35h-219l-140 -557h441q139 0 210 57.5t84 191.5h58z" />
    <glyph glyph-name="Ecircumflex" unicode="&#xca;" horiz-adv-x="1314" 
d="M733 1540h-117l330 293h105l174 -293h-97l-155 137zM1145 358v-358h-1153v53q54 13 83.5 25.5t51.5 40t33 58.5t28 97l222 885q18 73 18 117q0 43 -20.5 65t-67.5 29v53h1036v-307h-57q-11 109 -78 154t-221 45h-365l-135 -541h189q120 0 173.5 35t59.5 115h55v-408h-55
q-6 80 -58.5 115t-172.5 35h-219l-140 -557h441q139 0 210 57.5t84 191.5h58z" />
    <glyph glyph-name="Edieresis" unicode="&#xcb;" horiz-adv-x="1314" 
d="M643 1677q0 60 42 102t103 42q48 0 79.5 -32t31.5 -81q0 -62 -40.5 -103.5t-100.5 -41.5q-51 0 -83 32t-32 82zM1028 1677q0 60 41.5 102t101.5 42q48 0 80.5 -32t32.5 -81q0 -61 -41.5 -103t-101.5 -42q-49 0 -81 32t-32 82zM1145 358v-358h-1153v53q54 13 83.5 25.5
t51.5 40t33 58.5t28 97l222 885q18 73 18 117q0 43 -20.5 65t-67.5 29v53h1036v-307h-57q-11 109 -78 154t-221 45h-365l-135 -541h189q120 0 173.5 35t59.5 115h55v-408h-55q-6 80 -58.5 115t-172.5 35h-219l-140 -557h441q139 0 210 57.5t84 191.5h58z" />
    <glyph glyph-name="Igrave" unicode="&#xcc;" horiz-adv-x="686" 
d="M637 1833l47 -293h-80l-192 287v6h225zM4 53q85 15 119 52t61 151l226 907q18 73 18 115q0 41 -20 61t-70 31v53h461v-53q-84 -15 -120 -54.5t-63 -150.5l-225 -909q-16 -75 -16 -104q0 -43 21 -65t71 -34v-53h-463v53z" />
    <glyph glyph-name="Iacute" unicode="&#xcd;" horiz-adv-x="686" 
d="M598 1540h-92l158 293h258v-6zM4 53q85 15 119 52t61 151l226 907q18 73 18 115q0 41 -20 61t-70 31v53h461v-53q-84 -15 -120 -54.5t-63 -150.5l-225 -909q-16 -75 -16 -104q0 -43 21 -65t71 -34v-53h-463v53z" />
    <glyph glyph-name="Icircumflex" unicode="&#xce;" horiz-adv-x="686" 
d="M408 1540h-117l330 293h104l174 -293h-96l-156 137zM4 53q85 15 119 52t61 151l226 907q18 73 18 115q0 41 -20 61t-70 31v53h461v-53q-84 -15 -120 -54.5t-63 -150.5l-225 -909q-16 -75 -16 -104q0 -43 21 -65t71 -34v-53h-463v53z" />
    <glyph glyph-name="Idieresis" unicode="&#xcf;" horiz-adv-x="686" 
d="M317 1677q0 60 42.5 102t103.5 42q47 0 78.5 -32t31.5 -81q0 -62 -40.5 -103.5t-100.5 -41.5q-51 0 -83 32t-32 82zM702 1677q0 60 42 102t102 42q48 0 80 -32t32 -81q0 -61 -41.5 -103t-101.5 -42q-49 0 -81 32t-32 82zM4 53q85 15 119 52t61 151l226 907q18 73 18 115
q0 41 -20 61t-70 31v53h461v-53q-84 -15 -120 -54.5t-63 -150.5l-225 -909q-16 -75 -16 -104q0 -43 21 -65t71 -34v-53h-463v53z" />
    <glyph glyph-name="Eth" unicode="&#xd0;" horiz-adv-x="1576" 
d="M868 1423q144 2 271 -42.5t217 -124t141 -192.5t49 -241q3 -176 -66.5 -330t-192 -263t-295.5 -170.5t-371 -59.5h-617v53q102 29 131.5 62.5t63.5 154.5l104 416h-184v102h211l92 371q18 71 18 113q0 44 -21.5 67t-68.5 31v53h518zM565 109q172 0 314.5 56t237 155
t146.5 234.5t52 293.5q0 221 -127 344t-350 123h-172l-131 -527h268v-102h-295l-143 -577h200z" />
    <glyph glyph-name="Ntilde" unicode="&#xd1;" horiz-adv-x="1560" 
d="M1030 1614l-26 24q-45 37 -89 37q-85 0 -122 -116h-82q24 120 82.5 182.5t138.5 62.5q77 0 153 -61l31 -27q40 -35 86 -35q44 0 73 28.5t48 88.5h84q-24 -122 -83 -185t-140 -63q-84 0 -154 64zM-10 53q91 19 126.5 57.5t63.5 145.5l256 1034l-59 125v8h266l514 -1116h12
l217 869q19 81 19 102q0 37 -19.5 58t-66.5 34v53h373v-53q-87 -19 -125.5 -59.5t-63.5 -139.5l-291 -1171h-133l-544 1163h-13l-225 -909q-18 -70 -18 -111q0 -37 19 -56.5t67 -33.5v-53h-375v53z" />
    <glyph glyph-name="Ograve" unicode="&#xd2;" horiz-adv-x="1617" 
d="M1042 1833l48 -293h-80l-193 287v6h225zM147 588q-3 164 61 322.5t173 278t264.5 191.5t325.5 68q273 0 445.5 -171.5t172.5 -440.5q2 -110 -26 -219.5t-80 -205t-128.5 -177.5t-166.5 -140t-199 -90t-223 -29q-274 0 -446.5 172t-172.5 441zM1358 860q0 220 -105 346.5
t-288 126.5q-100 3 -193 -41.5t-164 -123t-124 -178t-80 -210.5t-25 -217q0 -221 105 -347t288 -126q100 -3 193 41.5t164 123t124 178t80 210.5t25 217z" />
    <glyph glyph-name="Oacute" unicode="&#xd3;" horiz-adv-x="1617" 
d="M1001 1540h-92l158 293h258v-6zM147 588q-3 164 61 322.5t173 278t264.5 191.5t325.5 68q273 0 445.5 -171.5t172.5 -440.5q2 -110 -26 -219.5t-80 -205t-128.5 -177.5t-166.5 -140t-199 -90t-223 -29q-274 0 -446.5 172t-172.5 441zM1358 860q0 220 -105 346.5
t-288 126.5q-100 3 -193 -41.5t-164 -123t-124 -178t-80 -210.5t-25 -217q0 -221 105 -347t288 -126q100 -3 193 41.5t164 123t124 178t80 210.5t25 217z" />
    <glyph glyph-name="Ocircumflex" unicode="&#xd4;" horiz-adv-x="1617" 
d="M813 1540h-117l330 293h104l175 -293h-97l-155 137zM147 588q-3 164 61 322.5t173 278t264.5 191.5t325.5 68q273 0 445.5 -171.5t172.5 -440.5q2 -110 -26 -219.5t-80 -205t-128.5 -177.5t-166.5 -140t-199 -90t-223 -29q-274 0 -446.5 172t-172.5 441zM1358 860
q0 220 -105 346.5t-288 126.5q-100 3 -193 -41.5t-164 -123t-124 -178t-80 -210.5t-25 -217q0 -221 105 -347t288 -126q100 -3 193 41.5t164 123t124 178t80 210.5t25 217z" />
    <glyph glyph-name="Otilde" unicode="&#xd5;" horiz-adv-x="1617" 
d="M1016 1614l-27 24q-45 37 -88 37q-86 0 -123 -116h-82q24 120 83 182.5t139 62.5q77 0 153 -61l31 -27q40 -35 86 -35q44 0 73 28.5t48 88.5h84q-24 -122 -83 -185t-141 -63q-83 0 -153 64zM147 588q-3 164 61 322.5t173 278t264.5 191.5t325.5 68q273 0 445.5 -171.5
t172.5 -440.5q2 -110 -26 -219.5t-80 -205t-128.5 -177.5t-166.5 -140t-199 -90t-223 -29q-274 0 -446.5 172t-172.5 441zM1358 860q0 220 -105 346.5t-288 126.5q-100 3 -193 -41.5t-164 -123t-124 -178t-80 -210.5t-25 -217q0 -221 105 -347t288 -126q100 -3 193 41.5
t164 123t124 178t80 210.5t25 217z" />
    <glyph glyph-name="Odieresis" unicode="&#xd6;" horiz-adv-x="1617" 
d="M723 1677q0 60 42 102t103 42q48 0 79.5 -32t31.5 -81q0 -62 -40.5 -103.5t-100.5 -41.5q-51 0 -83 32t-32 82zM1108 1677q0 60 41.5 102t101.5 42q48 0 80.5 -32t32.5 -81q0 -61 -41.5 -103t-101.5 -42q-49 0 -81 32t-32 82zM147 588q-3 164 61 322.5t173 278
t264.5 191.5t325.5 68q273 0 445.5 -171.5t172.5 -440.5q2 -110 -26 -219.5t-80 -205t-128.5 -177.5t-166.5 -140t-199 -90t-223 -29q-274 0 -446.5 172t-172.5 441zM1358 860q0 220 -105 346.5t-288 126.5q-100 3 -193 -41.5t-164 -123t-124 -178t-80 -210.5t-25 -217
q0 -221 105 -347t288 -126q100 -3 193 41.5t164 123t124 178t80 210.5t25 217z" />
    <glyph glyph-name="multiply" unicode="&#xd7;" horiz-adv-x="1097" 
d="M627 487l331 -333l-79 -78l-332 332l-332 -332l-76 76l332 333l-332 332l80 78l330 -332l330 330l77 -76z" />
    <glyph glyph-name="Oslash" unicode="&#xd8;" horiz-adv-x="1619" 
d="M1679 1423l-211 -202q121 -160 121 -385q3 -165 -60.5 -324t-172 -278.5t-263.5 -191t-325 -67.5q-262 0 -432 156l-207 -199l-68 68l211 203q-122 155 -122 385q-2 131 37.5 260.5t115.5 237.5t176.5 191t229 128.5t264.5 42.5q260 0 430 -156l209 201zM414 340l866 834
q-104 159 -313 159q-100 3 -193.5 -42t-164.5 -123.5t-124.5 -178t-80.5 -210.5t-25 -216q0 -123 35 -223zM1325 1081l-866 -831q105 -160 313 -160q100 -3 193.5 41.5t164.5 123t124.5 178t80.5 210.5t25 217q0 121 -35 221z" />
    <glyph glyph-name="Ugrave" unicode="&#xd9;" horiz-adv-x="1564" 
d="M1092 1833l47 -293h-80l-193 287v6h226zM219 426q0 66 23 170l143 575q18 71 18 107q0 41 -20 60.5t-74 31.5v53h465v-53q-83 -18 -119.5 -56.5t-62.5 -139.5l-148 -592q-18 -80 -18 -144q0 -147 86.5 -227t241.5 -80q184 0 312 114t183 330l148 592q18 76 18 115
q0 36 -18.5 56t-63.5 32v53h375v-53q-87 -15 -129 -57q-36 -39 -63 -146l-152 -606q-70 -285 -233.5 -435.5t-413.5 -150.5q-223 0 -360.5 123t-137.5 328z" />
    <glyph glyph-name="Uacute" unicode="&#xda;" horiz-adv-x="1564" 
d="M1053 1540h-92l157 293h258v-6zM219 426q0 66 23 170l143 575q18 71 18 107q0 41 -20 60.5t-74 31.5v53h465v-53q-83 -18 -119.5 -56.5t-62.5 -139.5l-148 -592q-18 -80 -18 -144q0 -147 86.5 -227t241.5 -80q184 0 312 114t183 330l148 592q18 76 18 115q0 36 -18.5 56
t-63.5 32v53h375v-53q-87 -15 -129 -57q-36 -39 -63 -146l-152 -606q-70 -285 -233.5 -435.5t-413.5 -150.5q-223 0 -360.5 123t-137.5 328z" />
    <glyph glyph-name="Ucircumflex" unicode="&#xdb;" horiz-adv-x="1564" 
d="M862 1540h-117l330 293h105l174 -293h-97l-155 137zM219 426q0 66 23 170l143 575q18 71 18 107q0 41 -20 60.5t-74 31.5v53h465v-53q-83 -18 -119.5 -56.5t-62.5 -139.5l-148 -592q-18 -80 -18 -144q0 -147 86.5 -227t241.5 -80q184 0 312 114t183 330l148 592
q18 76 18 115q0 36 -18.5 56t-63.5 32v53h375v-53q-87 -15 -129 -57q-36 -39 -63 -146l-152 -606q-70 -285 -233.5 -435.5t-413.5 -150.5q-223 0 -360.5 123t-137.5 328z" />
    <glyph glyph-name="Udieresis" unicode="&#xdc;" horiz-adv-x="1564" 
d="M772 1677q0 60 42.5 102t103.5 42q47 0 78.5 -32t31.5 -81q0 -62 -40.5 -103.5t-100.5 -41.5q-51 0 -83 32t-32 82zM1157 1677q0 60 41.5 102t101.5 42q48 0 80.5 -32t32.5 -81q0 -61 -41.5 -103t-101.5 -42q-49 0 -81 32t-32 82zM219 426q0 66 23 170l143 575
q18 71 18 107q0 41 -20 60.5t-74 31.5v53h465v-53q-83 -18 -119.5 -56.5t-62.5 -139.5l-148 -592q-18 -80 -18 -144q0 -147 86.5 -227t241.5 -80q184 0 312 114t183 330l148 592q18 76 18 115q0 36 -18.5 56t-63.5 32v53h375v-53q-87 -15 -129 -57q-36 -39 -63 -146
l-152 -606q-70 -285 -233.5 -435.5t-413.5 -150.5q-223 0 -360.5 123t-137.5 328z" />
    <glyph glyph-name="Yacute" unicode="&#xdd;" horiz-adv-x="1406" 
d="M1278 1833v-6l-324 -287h-92l158 293h258zM1237 1423h383v-53q-82 -16 -139 -56.5t-127 -123.5l-520 -604l-91 -359q-12 -53 -12 -84q0 -41 20 -60t70 -30v-53h-465v53q84 10 121 45.5t60 128.5l94 373l-215 576q-34 93 -70 137t-96 57v53h477v-53q-117 -20 -117 -98
q0 -40 27 -113l158 -434h12l395 461q82 94 82 141q0 34 -47 43v53z" />
    <glyph glyph-name="Thorn" unicode="&#xde;" horiz-adv-x="1234" 
d="M741 1126q213 0 346.5 -100t133.5 -262q0 -145 -83 -252t-223 -161t-317 -54h-199l-10 -41q-16 -75 -16 -104q0 -42 21 -64.5t71 -34.5v-53h-461v53q87 19 120 55t60 148l226 909q18 73 18 113q0 41 -20 61t-70 31v53h461v-53q-89 -22 -122.5 -58t-60.5 -147l-10 -39h135
zM567 403q201 0 316.5 99t115.5 270q0 121 -76 184.5t-214 63.5h-129l-154 -617h141z" />
    <glyph glyph-name="germandbls" unicode="&#xdf;" horiz-adv-x="1146" 
d="M360 29l31 75q62 -26 127 -26q142 0 229 106t87 256q0 129 -69.5 200t-195.5 79v96q178 7 278.5 104t100.5 257q0 94 -45.5 147t-126.5 53q-184 0 -239 -225l-289 -1151h-271v53q30 4 44.5 8t28.5 11t22 24.5t15.5 38.5t18.5 62l226 901q44 183 156 282t292 99
q163 0 264 -87.5t101 -232.5q0 -144 -109.5 -249t-290.5 -144v-12q128 -30 211.5 -123.5t83.5 -220.5q0 -184 -137 -308.5t-338 -124.5q-120 0 -205 52z" />
    <glyph glyph-name="agrave" unicode="&#xe0;" horiz-adv-x="1155" 
d="M727 1419l47 -293h-80l-192 285v8h225zM74 373q-2 112 41.5 225t117.5 201t179 142.5t217 51.5q84 0 156 -32t120 -89h13l120 97h62l-187 -750q-14 -55 -14 -74q0 -22 13.5 -31t50.5 -14v-53l-287 -57h-12l36 149h-12q-120 -164 -293 -164q-141 0 -231 111.5t-90 286.5z
M745 311l74 301q12 47 12 88q0 88 -50 140.5t-136 52.5q-108 0 -196.5 -71.5t-136.5 -184t-48 -236.5q0 -131 52.5 -206.5t144.5 -75.5q84 0 150 49.5t134 142.5z" />
    <glyph glyph-name="aacute" unicode="&#xe1;" horiz-adv-x="1155" 
d="M678 1126h-94l159 293h258v-8zM74 373q-2 112 41.5 225t117.5 201t179 142.5t217 51.5q84 0 156 -32t120 -89h13l120 97h62l-187 -750q-14 -55 -14 -74q0 -22 13.5 -31t50.5 -14v-53l-287 -57h-12l36 149h-12q-120 -164 -293 -164q-141 0 -231 111.5t-90 286.5zM745 311
l74 301q12 47 12 88q0 88 -50 140.5t-136 52.5q-108 0 -196.5 -71.5t-136.5 -184t-48 -236.5q0 -131 52.5 -206.5t144.5 -75.5q84 0 150 49.5t134 142.5z" />
    <glyph glyph-name="acircumflex" unicode="&#xe2;" horiz-adv-x="1155" 
d="M492 1126h-117l330 293h104l174 -293h-96l-156 136zM74 373q-2 112 41.5 225t117.5 201t179 142.5t217 51.5q84 0 156 -32t120 -89h13l120 97h62l-187 -750q-14 -55 -14 -74q0 -22 13.5 -31t50.5 -14v-53l-287 -57h-12l36 149h-12q-120 -164 -293 -164q-141 0 -231 111.5
t-90 286.5zM745 311l74 301q12 47 12 88q0 88 -50 140.5t-136 52.5q-108 0 -196.5 -71.5t-136.5 -184t-48 -236.5q0 -131 52.5 -206.5t144.5 -75.5q84 0 150 49.5t134 142.5z" />
    <glyph glyph-name="atilde" unicode="&#xe3;" horiz-adv-x="1155" 
d="M698 1198l-26 25q-45 37 -88 37q-84 0 -123 -117h-82q24 120 82.5 183t138.5 63q77 0 154 -62l30 -27q39 -34 86 -34q44 0 73.5 27.5t49.5 88.5h82q-24 -122 -82.5 -184.5t-140.5 -62.5q-85 0 -154 63zM74 373q-2 112 41.5 225t117.5 201t179 142.5t217 51.5
q84 0 156 -32t120 -89h13l120 97h62l-187 -750q-14 -55 -14 -74q0 -22 13.5 -31t50.5 -14v-53l-287 -57h-12l36 149h-12q-120 -164 -293 -164q-141 0 -231 111.5t-90 286.5zM745 311l74 301q12 47 12 88q0 88 -50 140.5t-136 52.5q-108 0 -196.5 -71.5t-136.5 -184
t-48 -236.5q0 -131 52.5 -206.5t144.5 -75.5q84 0 150 49.5t134 142.5z" />
    <glyph glyph-name="adieresis" unicode="&#xe4;" horiz-adv-x="1155" 
d="M408 1266q0 60 41.5 100.5t101.5 40.5q50 0 81.5 -31t31.5 -80q0 -62 -41.5 -103.5t-102.5 -41.5q-50 0 -81 32t-31 83zM793 1266q0 60 41 100.5t102 40.5q48 0 79.5 -31t31.5 -80q0 -61 -41 -103t-101 -42q-50 0 -81 32t-31 83zM74 373q-2 112 41.5 225t117.5 201
t179 142.5t217 51.5q84 0 156 -32t120 -89h13l120 97h62l-187 -750q-14 -55 -14 -74q0 -22 13.5 -31t50.5 -14v-53l-287 -57h-12l36 149h-12q-120 -164 -293 -164q-141 0 -231 111.5t-90 286.5zM745 311l74 301q12 47 12 88q0 88 -50 140.5t-136 52.5q-108 0 -196.5 -71.5
t-136.5 -184t-48 -236.5q0 -131 52.5 -206.5t144.5 -75.5q84 0 150 49.5t134 142.5z" />
    <glyph glyph-name="aring" unicode="&#xe5;" horiz-adv-x="1155" 
d="M524 1280q0 80 57.5 137.5t141.5 57.5q82 0 140.5 -57.5t58.5 -137.5q0 -81 -58.5 -138t-140.5 -57q-84 0 -141.5 56.5t-57.5 138.5zM829 1280q0 47 -30.5 78t-75.5 31q-47 0 -77 -31t-30 -78q0 -49 29.5 -79t77.5 -30q45 0 75.5 30t30.5 79zM74 373q-2 112 41.5 225
t117.5 201t179 142.5t217 51.5q84 0 156 -32t120 -89h13l120 97h62l-187 -750q-14 -55 -14 -74q0 -22 13.5 -31t50.5 -14v-53l-287 -57h-12l36 149h-12q-120 -164 -293 -164q-141 0 -231 111.5t-90 286.5zM745 311l74 301q12 47 12 88q0 88 -50 140.5t-136 52.5
q-108 0 -196.5 -71.5t-136.5 -184t-48 -236.5q0 -131 52.5 -206.5t144.5 -75.5q84 0 150 49.5t134 142.5z" />
    <glyph glyph-name="ae" unicode="&#xe6;" horiz-adv-x="1562" 
d="M1493 672q0 -49 -8 -80l-10 -45h-644q-6 -37 -6 -78q0 -159 81.5 -247.5t219.5 -88.5q152 0 271 96l47 -47q-74 -98 -176.5 -152.5t-214.5 -54.5q-129 0 -231 67t-146 183h-12q-182 -250 -406 -250q-100 0 -163.5 62.5t-63.5 159.5q0 112 85.5 180t256.5 106l260 58
l20 86q11 49 11 69q0 73 -50.5 115.5t-136.5 42.5q-146 0 -287 -96l-36 59q198 176 395 176q87 0 154 -36t104 -103h12q139 139 336 139q154 0 246 -92q92 -89 92 -229zM1307 643q6 35 6 64q0 87 -45 135.5t-129 48.5q-98 0 -174.5 -68t-112.5 -180h455zM610 449l-159 -46
q-124 -34 -178 -72t-54 -102q0 -54 30 -85t81 -31q123 0 231 135z" />
    <glyph glyph-name="ccedilla" unicode="&#xe7;" horiz-adv-x="968" 
d="M272 461q0 -155 77.5 -241.5t213.5 -86.5q149 0 271 96l45 -47q-73 -99 -176 -153t-214 -54h-18l-51 -79l2 -2q21 6 43 6q51 0 88 -38t37 -93q0 -80 -64.5 -133.5t-160.5 -53.5q-131 0 -211 107l39 41q60 -60 141 -60q56 0 93.5 26t37.5 68q0 30 -24.5 49t-63.5 19
q-27 0 -64 -16l-8 6l98 162q-146 31 -233.5 149.5t-87.5 284.5q-2 110 40 216t115.5 186t181 128t226.5 45q146 0 273 -65v-219h-56q-25 87 -82 133.5t-137 46.5q-154 0 -262.5 -126.5t-108.5 -301.5z" />
    <glyph glyph-name="egrave" unicode="&#xe8;" horiz-adv-x="1007" 
d="M674 1419l47 -293h-80l-192 285v8h225zM936 672q0 -46 -8 -82l-8 -43h-644q-6 -40 -6 -78q0 -160 81 -248t222 -88q153 0 269 96l47 -47q-74 -98 -176.5 -152.5t-214.5 -54.5q-176 0 -295 122t-119 317q-1 110 37 215.5t105 187t165 130t207 46.5q153 0 245.5 -90
t92.5 -231zM297 643h453q6 35 6 64q0 86 -45 135t-129 49q-97 0 -172 -67.5t-113 -180.5z" />
    <glyph glyph-name="eacute" unicode="&#xe9;" horiz-adv-x="1007" 
d="M530 1126l160 293h258v-8l-323 -285h-95zM936 672q0 -46 -8 -82l-8 -43h-644q-6 -40 -6 -78q0 -160 81 -248t222 -88q153 0 269 96l47 -47q-74 -98 -176.5 -152.5t-214.5 -54.5q-176 0 -295 122t-119 317q-1 110 37 215.5t105 187t165 130t207 46.5q153 0 245.5 -90
t92.5 -231zM297 643h453q6 35 6 64q0 86 -45 135t-129 49q-97 0 -172 -67.5t-113 -180.5z" />
    <glyph glyph-name="ecircumflex" unicode="&#xea;" horiz-adv-x="1007" 
d="M834 1126l-156 136l-240 -136h-116l329 293h105l174 -293h-96zM936 672q0 -46 -8 -82l-8 -43h-644q-6 -40 -6 -78q0 -160 81 -248t222 -88q153 0 269 96l47 -47q-74 -98 -176.5 -152.5t-214.5 -54.5q-176 0 -295 122t-119 317q-1 110 37 215.5t105 187t165 130t207 46.5
q153 0 245.5 -90t92.5 -231zM297 643h453q6 35 6 64q0 86 -45 135t-129 49q-97 0 -172 -67.5t-113 -180.5z" />
    <glyph glyph-name="edieresis" unicode="&#xeb;" horiz-adv-x="1007" 
d="M354 1266q0 60 42 100.5t102 40.5q50 0 81 -31t31 -80q0 -62 -41 -103.5t-102 -41.5q-50 0 -81.5 32t-31.5 83zM993 1296q0 -62 -40.5 -103.5t-100.5 -41.5q-50 0 -81.5 32t-31.5 83q0 60 41.5 100.5t102.5 40.5q48 0 79 -31t31 -80zM936 672q0 -46 -8 -82l-8 -43h-644
q-6 -40 -6 -78q0 -160 81 -248t222 -88q153 0 269 96l47 -47q-74 -98 -176.5 -152.5t-214.5 -54.5q-176 0 -295 122t-119 317q-1 110 37 215.5t105 187t165 130t207 46.5q153 0 245.5 -90t92.5 -231zM297 643h453q6 35 6 64q0 86 -45 135t-129 49q-97 0 -172 -67.5
t-113 -180.5z" />
    <glyph glyph-name="igrave" unicode="&#xec;" horiz-adv-x="559" 
d="M473 1419l47 -293h-80l-192 285v8h225zM311 193q-14 -60 -14 -82q0 -29 13.5 -40.5t49.5 -17.5v-53h-366v53q66 9 86.5 31.5t40.5 110.5l135 540q10 52 10 70q0 30 -15.5 43.5t-57.5 19.5v54l305 57h10z" />
    <glyph glyph-name="iacute" unicode="&#xed;" horiz-adv-x="559" 
d="M424 1126h-94l159 293h259v-8zM311 193q-14 -60 -14 -82q0 -29 13.5 -40.5t49.5 -17.5v-53h-366v53q66 9 86.5 31.5t40.5 110.5l135 540q10 52 10 70q0 30 -15.5 43.5t-57.5 19.5v54l305 57h10z" />
    <glyph glyph-name="icircumflex" unicode="&#xee;" horiz-adv-x="559" 
d="M238 1126h-117l330 293h104l174 -293h-96l-156 136zM311 193q-14 -60 -14 -82q0 -29 13.5 -40.5t49.5 -17.5v-53h-366v53q66 9 86.5 31.5t40.5 110.5l135 540q10 52 10 70q0 30 -15.5 43.5t-57.5 19.5v54l305 57h10z" />
    <glyph glyph-name="idieresis" unicode="&#xef;" horiz-adv-x="559" 
d="M154 1266q0 60 41.5 100.5t101.5 40.5q50 0 81.5 -31t31.5 -80q0 -62 -41.5 -103.5t-102.5 -41.5q-50 0 -81 32t-31 83zM539 1266q0 60 41 100.5t102 40.5q48 0 79.5 -31t31.5 -80q0 -61 -41 -103t-101 -42q-50 0 -81 32t-31 83zM311 193q-14 -60 -14 -82
q0 -29 13.5 -40.5t49.5 -17.5v-53h-366v53q66 9 86.5 31.5t40.5 110.5l135 540q10 52 10 70q0 30 -15.5 43.5t-57.5 19.5v54l305 57h10z" />
    <glyph glyph-name="eth" unicode="&#xf0;" horiz-adv-x="1177" 
d="M1126 1337l-180 -77q170 -191 170 -469q2 -112 -26.5 -229t-84.5 -223t-130.5 -189t-174 -130.5t-206.5 -44.5q-179 0 -294.5 126t-115.5 319q0 153 67.5 285t184.5 210t256 78q117 0 207 -63t133 -162h12q6 46 6 90q0 203 -116 352l-326 -141l-35 78l299 131
q-85 82 -205 139l35 62q159 -53 277 -154l213 92zM903 645q-20 98 -92 157.5t-170 59.5q-107 0 -192 -68t-130 -176.5t-45 -232.5q0 -141 59.5 -227t162.5 -86q140 0 242 127.5t145 347.5z" />
    <glyph glyph-name="ntilde" unicode="&#xf1;" horiz-adv-x="1157" 
d="M752 1198l-27 25q-45 37 -88 37q-84 0 -123 -117h-82q24 120 82.5 183t138.5 63q77 0 154 -62l31 -27q39 -34 86 -34q44 0 73.5 27.5t49.5 88.5h81q-24 -122 -82.5 -184.5t-140.5 -62.5q-84 0 -153 63zM254 731q12 61 12 72q0 30 -17 44.5t-59 20.5v54l306 57h10
l-37 -150h12q69 85 141 124.5t158 39.5q111 0 184.5 -77.5t73.5 -204.5q0 -57 -14 -109l-106 -426q-13 -50 -13 -70q0 -24 14 -35.5t50 -17.5v-53h-371v53q64 11 88.5 35t42.5 100l109 433q10 52 10 73q0 73 -40 115.5t-103 42.5q-149 0 -277 -180l-123 -498q-8 -31 -8 -61
t12.5 -42t48.5 -18v-53h-366v53q64 9 84 29t41 100z" />
    <glyph glyph-name="ograve" unicode="&#xf2;" horiz-adv-x="1140" 
d="M743 1419l48 -293h-80l-193 285v8h225zM78 385q-3 161 74 302.5t211.5 225t289.5 80.5q184 0 299 -114t115 -295q2 -120 -43.5 -233.5t-122.5 -196.5t-185 -132.5t-224 -46.5q-185 0 -299.5 114.5t-114.5 295.5zM858 616q0 127 -55.5 197t-155.5 70q-106 4 -192 -79
t-129 -205t-41 -247q0 -128 55 -197t158 -69q78 -3 147.5 45t115 125.5t72 172.5t25.5 187z" />
    <glyph glyph-name="oacute" unicode="&#xf3;" horiz-adv-x="1140" 
d="M694 1126h-94l160 293h258v-8zM78 385q-3 161 74 302.5t211.5 225t289.5 80.5q184 0 299 -114t115 -295q2 -120 -43.5 -233.5t-122.5 -196.5t-185 -132.5t-224 -46.5q-185 0 -299.5 114.5t-114.5 295.5zM858 616q0 127 -55.5 197t-155.5 70q-106 4 -192 -79t-129 -205
t-41 -247q0 -128 55 -197t158 -69q78 -3 147.5 45t115 125.5t72 172.5t25.5 187z" />
    <glyph glyph-name="ocircumflex" unicode="&#xf4;" horiz-adv-x="1140" 
d="M508 1126h-117l330 293h104l174 -293h-96l-155 136zM78 385q-3 161 74 302.5t211.5 225t289.5 80.5q184 0 299 -114t115 -295q2 -120 -43.5 -233.5t-122.5 -196.5t-185 -132.5t-224 -46.5q-185 0 -299.5 114.5t-114.5 295.5zM858 616q0 127 -55.5 197t-155.5 70
q-106 4 -192 -79t-129 -205t-41 -247q0 -128 55 -197t158 -69q78 -3 147.5 45t115 125.5t72 172.5t25.5 187z" />
    <glyph glyph-name="otilde" unicode="&#xf5;" horiz-adv-x="1140" 
d="M713 1198l-27 25q-45 37 -88 37q-84 0 -123 -117h-82q24 120 82.5 183t138.5 63q77 0 154 -62l31 -27q39 -34 86 -34q44 0 73.5 27.5t49.5 88.5h82q-24 -122 -83 -184.5t-141 -62.5q-84 0 -153 63zM78 385q-3 161 74 302.5t211.5 225t289.5 80.5q184 0 299 -114t115 -295
q2 -120 -43.5 -233.5t-122.5 -196.5t-185 -132.5t-224 -46.5q-185 0 -299.5 114.5t-114.5 295.5zM858 616q0 127 -55.5 197t-155.5 70q-106 4 -192 -79t-129 -205t-41 -247q0 -128 55 -197t158 -69q78 -3 147.5 45t115 125.5t72 172.5t25.5 187z" />
    <glyph glyph-name="odieresis" unicode="&#xf6;" horiz-adv-x="1140" 
d="M422 1266q0 60 41.5 100.5t101.5 40.5q50 0 81.5 -31t31.5 -80q0 -62 -41 -103.5t-102 -41.5q-50 0 -81.5 32t-31.5 83zM807 1266q0 60 41 100.5t102 40.5q48 0 79.5 -31t31.5 -80q0 -62 -40.5 -103.5t-100.5 -41.5q-50 0 -81.5 32t-31.5 83zM78 385q-3 161 74 302.5
t211.5 225t289.5 80.5q184 0 299 -114t115 -295q2 -120 -43.5 -233.5t-122.5 -196.5t-185 -132.5t-224 -46.5q-185 0 -299.5 114.5t-114.5 295.5zM858 616q0 127 -55.5 197t-155.5 70q-106 4 -192 -79t-129 -205t-41 -247q0 -128 55 -197t158 -69q78 -3 147.5 45t115 125.5
t72 172.5t25.5 187z" />
    <glyph glyph-name="divide" unicode="&#xf7;" horiz-adv-x="1177" 
d="M473 829q0 50 33 84.5t82 34.5q47 0 80.5 -35t33.5 -84t-33 -81.5t-81 -32.5q-50 0 -82.5 32.5t-32.5 81.5zM1057 428h-932v111h932v-111zM473 135q0 51 33 85t82 34t81.5 -34t32.5 -85q0 -49 -33.5 -83t-80.5 -34q-49 0 -82 33.5t-33 83.5z" />
    <glyph glyph-name="oslash" unicode="&#xf8;" horiz-adv-x="1142" 
d="M1079 969l-104 -113q92 -112 92 -272q2 -120 -42.5 -233.5t-121.5 -197t-184.5 -132.5t-224.5 -46q-155 0 -261 80l-110 -118l-62 59l111 119q-92 109 -92 270q-3 161 74 302.5t211.5 225t289.5 80.5q146 0 256 -78l105 113zM297 252l512 553q-54 78 -160 78
q-106 4 -192 -79t-129 -205t-41 -247q0 -48 10 -100zM848 719l-512 -553q53 -80 162 -80q80 -3 150 45t115.5 125.5t71.5 172.5t25 187q0 56 -12 103z" />
    <glyph glyph-name="ugrave" unicode="&#xf9;" horiz-adv-x="1120" 
d="M733 1419l47 -293h-80l-192 285v8h225zM119 246q0 46 14 106l94 377q13 47 13 70q0 29 -17.5 44t-56.5 21v54l303 57h10l-160 -643q-10 -52 -10 -80q0 -63 33.5 -99t93.5 -36q134 0 269 194l104 416q12 43 12 70q0 30 -17.5 45.5t-58.5 21.5v54l308 57h10l-189 -752
q-14 -60 -14 -78q0 -23 13 -31.5t49 -13.5v-53l-287 -57h-12l36 149h-12q-120 -164 -287 -164q-104 0 -172.5 75.5t-68.5 195.5z" />
    <glyph glyph-name="uacute" unicode="&#xfa;" horiz-adv-x="1120" 
d="M684 1126h-94l160 293h258v-8zM119 246q0 46 14 106l94 377q13 47 13 70q0 29 -17.5 44t-56.5 21v54l303 57h10l-160 -643q-10 -52 -10 -80q0 -63 33.5 -99t93.5 -36q134 0 269 194l104 416q12 43 12 70q0 30 -17.5 45.5t-58.5 21.5v54l308 57h10l-189 -752
q-14 -60 -14 -78q0 -23 13 -31.5t49 -13.5v-53l-287 -57h-12l36 149h-12q-120 -164 -287 -164q-104 0 -172.5 75.5t-68.5 195.5z" />
    <glyph glyph-name="ucircumflex" unicode="&#xfb;" horiz-adv-x="1120" 
d="M498 1126h-117l330 293h104l174 -293h-96l-156 136zM119 246q0 46 14 106l94 377q13 47 13 70q0 29 -17.5 44t-56.5 21v54l303 57h10l-160 -643q-10 -52 -10 -80q0 -63 33.5 -99t93.5 -36q134 0 269 194l104 416q12 43 12 70q0 30 -17.5 45.5t-58.5 21.5v54l308 57h10
l-189 -752q-14 -60 -14 -78q0 -23 13 -31.5t49 -13.5v-53l-287 -57h-12l36 149h-12q-120 -164 -287 -164q-104 0 -172.5 75.5t-68.5 195.5z" />
    <glyph glyph-name="udieresis" unicode="&#xfc;" horiz-adv-x="1120" 
d="M414 1266q0 60 41.5 100.5t101.5 40.5q50 0 81.5 -31t31.5 -80q0 -62 -41.5 -103.5t-102.5 -41.5q-50 0 -81 32t-31 83zM799 1266q0 60 41 100.5t102 40.5q48 0 79.5 -31t31.5 -80q0 -61 -41 -103t-101 -42q-50 0 -81 32t-31 83zM119 246q0 46 14 106l94 377q13 47 13 70
q0 29 -17.5 44t-56.5 21v54l303 57h10l-160 -643q-10 -52 -10 -80q0 -63 33.5 -99t93.5 -36q134 0 269 194l104 416q12 43 12 70q0 30 -17.5 45.5t-58.5 21.5v54l308 57h10l-189 -752q-14 -60 -14 -78q0 -23 13 -31.5t49 -13.5v-53l-287 -57h-12l36 149h-12
q-120 -164 -287 -164q-104 0 -172.5 75.5t-68.5 195.5z" />
    <glyph glyph-name="yacute" unicode="&#xfd;" horiz-adv-x="1030" 
d="M971 1419v-8l-324 -285h-94l160 293h258zM823 969h307v-54q-66 -20 -102 -50t-78 -99l-544 -909q-99 -164 -189 -232q-81 -63 -192 -63q-78 0 -142 37v168q72 -29 154 -29q96 0 169 45t138 156l37 61l-137 743q-10 66 -38.5 93t-96.5 38v52l282 57l4 -20l37 -220l84 -491
h14l308 518q39 62 39 94q0 18 -12 29t-42 22v54z" />
    <glyph glyph-name="thorn" unicode="&#xfe;" horiz-adv-x="1150" 
d="M367 1219q12 47 12 71q0 29 -16 42.5t-58 21.5v53l305 57h11l-160 -635h14q122 164 295 164q139 0 234.5 -109.5t95.5 -287.5q2 -112 -41.5 -225.5t-118 -202t-181 -142.5t-220.5 -51q-149 0 -254 97h-13l-71 -285q-15 -55 -15 -86q0 -28 15 -39.5t55 -17.5v-54h-375v54
q66 9 87 31t42 112zM907 573q0 129 -54.5 203t-150.5 74q-149 0 -284 -193l-74 -290q-12 -52 -12 -97q0 -91 50 -142.5t136 -51.5q108 -4 200 71t141.5 190.5t47.5 235.5z" />
    <glyph glyph-name="ydieresis" unicode="&#xff;" horiz-adv-x="1030" 
d="M377 1266q0 60 41.5 100.5t101.5 40.5q50 0 81.5 -31t31.5 -80q0 -62 -41.5 -103.5t-102.5 -41.5q-50 0 -81 32t-31 83zM762 1266q0 60 41 100.5t102 40.5q48 0 79.5 -31t31.5 -80q0 -61 -41 -103t-101 -42q-50 0 -81 32t-31 83zM823 969h307v-54q-66 -20 -102 -50
t-78 -99l-544 -909q-99 -164 -189 -232q-81 -63 -192 -63q-78 0 -142 37v168q72 -29 154 -29q96 0 169 45t138 156l37 61l-137 743q-10 66 -38.5 93t-96.5 38v52l282 57l4 -20l37 -220l84 -491h14l308 518q39 62 39 94q0 18 -12 29t-42 22v54z" />
    <glyph glyph-name="Amacron" unicode="&#x100;" horiz-adv-x="1402" 
d="M688 1614v102h608v-102h-608zM1171 258q18 -98 38.5 -137.5t74.5 -67.5v-53h-469v53q89 24 123.5 57t34.5 89q0 1 -4 51l-31 196h-555l-121 -190q-57 -92 -57 -131q0 -45 76 -72v-53h-385v53q82 29 133 74t108 137l731 1159h119zM821 1141l-370 -586h471l-88 586h-13z
" />
    <glyph glyph-name="amacron" unicode="&#x101;" horiz-adv-x="1155" 
d="M1030 1194h-606v102h606v-102zM74 373q-2 112 41.5 225t117.5 201t179 142.5t217 51.5q84 0 156 -32t120 -89h13l120 97h62l-187 -750q-14 -55 -14 -74q0 -22 13.5 -31t50.5 -14v-53l-287 -57h-12l36 149h-12q-120 -164 -293 -164q-141 0 -231 111.5t-90 286.5zM745 311
l74 301q12 47 12 88q0 88 -50 140.5t-136 52.5q-108 0 -196.5 -71.5t-136.5 -184t-48 -236.5q0 -131 52.5 -206.5t144.5 -75.5q84 0 150 49.5t134 142.5z" />
    <glyph glyph-name="Abreve" unicode="&#x102;" horiz-adv-x="1402" 
d="M760 1763q0 33 6 70h84q-4 -32 -4 -35q0 -57 36 -90t99 -33q74 0 128 41.5t81 116.5h84q-30 -136 -110.5 -214.5t-196.5 -78.5q-96 0 -151.5 60t-55.5 163zM1171 258q18 -98 38.5 -137.5t74.5 -67.5v-53h-469v53q89 24 123.5 57t34.5 89q0 1 -4 51l-31 196h-555
l-121 -190q-57 -92 -57 -131q0 -45 76 -72v-53h-385v53q82 29 133 74t108 137l731 1159h119zM821 1141l-370 -586h471l-88 586h-13z" />
    <glyph glyph-name="abreve" unicode="&#x103;" horiz-adv-x="1155" 
d="M498 1350q0 32 6 69h84q-4 -32 -4 -35q0 -57 36 -90.5t99 -33.5q146 0 209 159h84q-30 -136 -110.5 -214.5t-196.5 -78.5q-96 0 -151.5 60.5t-55.5 163.5zM74 373q-2 112 41.5 225t117.5 201t179 142.5t217 51.5q84 0 156 -32t120 -89h13l120 97h62l-187 -750
q-14 -55 -14 -74q0 -22 13.5 -31t50.5 -14v-53l-287 -57h-12l36 149h-12q-120 -164 -293 -164q-141 0 -231 111.5t-90 286.5zM745 311l74 301q12 47 12 88q0 88 -50 140.5t-136 52.5q-108 0 -196.5 -71.5t-136.5 -184t-48 -236.5q0 -131 52.5 -206.5t144.5 -75.5
q84 0 150 49.5t134 142.5z" />
    <glyph glyph-name="Aogonek" unicode="&#x104;" horiz-adv-x="1402" 
d="M1171 258q18 -98 38.5 -137.5t74.5 -67.5v-53h-82q-136 -55 -198 -108t-62 -115q0 -44 27 -71.5t73 -27.5q58 0 105 35l33 -43q-74 -86 -183 -86q-78 0 -127 47.5t-49 122.5q0 157 244 246h-250v53q89 24 123.5 57t34.5 89q0 1 -4 51l-31 196h-555l-121 -190
q-57 -92 -57 -131q0 -45 76 -72v-53h-385v53q82 29 133 74t108 137l731 1159h119zM821 1141l-370 -586h471l-88 586h-13z" />
    <glyph glyph-name="aogonek" unicode="&#x105;" horiz-adv-x="1155" 
d="M913 219q-14 -55 -14 -74q0 -22 13.5 -31t50.5 -14v-53l-193 -39l21 -8q-137 -56 -199 -109t-62 -114q0 -44 27.5 -71.5t73.5 -27.5q57 0 104 35l33 -43q-74 -86 -182 -86q-78 0 -127 47.5t-49 122.5q0 84 68 147.5t190 102.5l32 135h-12q-120 -164 -293 -164
q-141 0 -231 111.5t-90 286.5q-2 112 41.5 225t117.5 201t179 142.5t217 51.5q84 0 156 -32t120 -89h13l120 97h62zM819 612q12 47 12 88q0 88 -50 140.5t-136 52.5q-108 0 -196.5 -71.5t-136.5 -184t-48 -236.5q0 -131 52.5 -206.5t144.5 -75.5q84 0 150 49.5t134 142.5z
" />
    <glyph glyph-name="Cacute" unicode="&#x106;" horiz-adv-x="1394" 
d="M987 1540h-92l158 293h258v-6zM150 618q-2 126 37 250.5t114.5 229t176 185t229.5 124.5t266 41q244 0 424 -109v-303h-58q-41 142 -138.5 220.5t-231.5 78.5q-120 3 -231 -54t-189.5 -151.5t-124 -219t-43.5 -251.5q0 -239 133 -377.5t342 -138.5q227 0 418 170l51 -49
q-117 -150 -251 -219.5t-298 -69.5q-124 -2 -238.5 44t-201 128.5t-137.5 205.5t-49 265z" />
    <glyph glyph-name="cacute" unicode="&#x107;" horiz-adv-x="968" 
d="M649 1126h-94l160 293h258v-8zM82 418q-2 110 40 216t115.5 186t181 128t226.5 45q146 0 273 -65v-219h-56q-25 87 -82 133.5t-137 46.5q-154 0 -262.5 -126.5t-108.5 -301.5q0 -155 77.5 -241.5t213.5 -86.5q149 0 271 96l45 -47q-73 -99 -176 -153t-214 -54
q-177 0 -292 126.5t-115 316.5z" />
    <glyph glyph-name="Ccircumflex" unicode="&#x108;" horiz-adv-x="1394" 
d="M797 1540h-117l330 293h104l174 -293h-96l-156 137zM150 618q-2 126 37 250.5t114.5 229t176 185t229.5 124.5t266 41q244 0 424 -109v-303h-58q-41 142 -138.5 220.5t-231.5 78.5q-120 3 -231 -54t-189.5 -151.5t-124 -219t-43.5 -251.5q0 -239 133 -377.5t342 -138.5
q227 0 418 170l51 -49q-117 -150 -251 -219.5t-298 -69.5q-124 -2 -238.5 44t-201 128.5t-137.5 205.5t-49 265z" />
    <glyph glyph-name="ccircumflex" unicode="&#x109;" horiz-adv-x="968" 
d="M463 1126h-117l330 293h104l174 -293h-96l-156 136zM82 418q-2 110 40 216t115.5 186t181 128t226.5 45q146 0 273 -65v-219h-56q-25 87 -82 133.5t-137 46.5q-154 0 -262.5 -126.5t-108.5 -301.5q0 -155 77.5 -241.5t213.5 -86.5q149 0 271 96l45 -47q-73 -99 -176 -153
t-214 -54q-177 0 -292 126.5t-115 316.5z" />
    <glyph glyph-name="Cdotaccent" unicode="&#x10a;" horiz-adv-x="1394" 
d="M895 1679q0 63 42.5 105.5t104.5 42.5q51 0 84 -33t33 -84q0 -63 -42.5 -106t-104.5 -43q-51 0 -84 33.5t-33 84.5zM150 618q-2 126 37 250.5t114.5 229t176 185t229.5 124.5t266 41q244 0 424 -109v-303h-58q-41 142 -138.5 220.5t-231.5 78.5q-120 3 -231 -54
t-189.5 -151.5t-124 -219t-43.5 -251.5q0 -239 133 -377.5t342 -138.5q227 0 418 170l51 -49q-117 -150 -251 -219.5t-298 -69.5q-124 -2 -238.5 44t-201 128.5t-137.5 205.5t-49 265z" />
    <glyph glyph-name="cdotaccent" unicode="&#x10b;" horiz-adv-x="968" 
d="M571 1268q0 61 44 104t106 43q51 0 84 -33t33 -84q0 -63 -43 -106t-105 -43q-51 0 -85 34t-34 85zM82 418q-2 110 40 216t115.5 186t181 128t226.5 45q146 0 273 -65v-219h-56q-25 87 -82 133.5t-137 46.5q-154 0 -262.5 -126.5t-108.5 -301.5q0 -155 77.5 -241.5
t213.5 -86.5q149 0 271 96l45 -47q-73 -99 -176 -153t-214 -54q-177 0 -292 126.5t-115 316.5z" />
    <glyph glyph-name="Ccaron" unicode="&#x10c;" horiz-adv-x="1394" 
d="M1257 1827h117l-330 -291h-104l-174 291h98l156 -135zM150 618q-2 126 37 250.5t114.5 229t176 185t229.5 124.5t266 41q244 0 424 -109v-303h-58q-41 142 -138.5 220.5t-231.5 78.5q-120 3 -231 -54t-189.5 -151.5t-124 -219t-43.5 -251.5q0 -239 133 -377.5t342 -138.5
q227 0 418 170l51 -49q-117 -150 -251 -219.5t-298 -69.5q-124 -2 -238.5 44t-201 128.5t-137.5 205.5t-49 265z" />
    <glyph glyph-name="ccaron" unicode="&#x10d;" horiz-adv-x="968" 
d="M926 1413h116l-329 -293h-105l-174 293h98l154 -135zM82 418q-2 110 40 216t115.5 186t181 128t226.5 45q146 0 273 -65v-219h-56q-25 87 -82 133.5t-137 46.5q-154 0 -262.5 -126.5t-108.5 -301.5q0 -155 77.5 -241.5t213.5 -86.5q149 0 271 96l45 -47
q-73 -99 -176 -153t-214 -54q-177 0 -292 126.5t-115 316.5z" />
    <glyph glyph-name="Dcaron" unicode="&#x10e;" horiz-adv-x="1566" 
d="M1229 1827h117l-330 -291h-105l-174 291h99l155 -135zM410 1159q18 73 18 115q0 44 -20.5 66t-67.5 30v53h518q144 2 270.5 -42.5t216 -124t140 -192t49.5 -241.5q3 -176 -66.5 -330t-192.5 -263t-296 -170.5t-371 -59.5h-614v53q53 13 81.5 25t50 38.5t32.5 57.5t28 96z
M555 109q172 0 314.5 56t237 155t146.5 234.5t52 293.5q0 221 -127.5 344t-350.5 123h-172l-303 -1206h203z" />
    <glyph glyph-name="dcaron" unicode="&#x10f;" horiz-adv-x="1163" 
d="M1528 1370q0 -33 -13.5 -60t-50.5 -77l-135 -172h-88l166 203q-41 1 -66.5 28.5t-25.5 69.5q0 48 30.5 80.5t79.5 32.5q43 0 73 -31t30 -74zM1235 1464l-315 -1259q-11 -50 -11 -60q0 -20 14.5 -30.5t49.5 -14.5v-53l-287 -57h-12l37 149h-13q-123 -164 -297 -164
q-137 0 -232 112t-95 282q-2 114 41.5 228t118 202.5t181 142.5t220.5 51q154 0 254 -100h12l84 338q8 27 8 55q0 31 -17 46.5t-58 21.5v53l307 57h10zM827 604q13 57 13 98q0 91 -50 141t-137 50q-105 0 -195 -69t-142 -182.5t-52 -242.5q0 -131 54.5 -205.5t152.5 -74.5
q151 0 285 192z" />
    <glyph glyph-name="Dcroat" unicode="&#x110;" horiz-adv-x="1576" 
d="M868 1423q144 2 271 -42.5t217 -124t141 -192.5t49 -241q3 -176 -66.5 -330t-192 -263t-295.5 -170.5t-371 -59.5h-617v53q102 29 131.5 62.5t63.5 154.5l104 416h-184v102h211l92 371q18 71 18 113q0 44 -21.5 67t-68.5 31v53h518zM565 109q172 0 314.5 56t237 155
t146.5 234.5t52 293.5q0 221 -127 344t-350 123h-172l-131 -527h268v-102h-295l-143 -577h200z" />
    <glyph glyph-name="dcroat" unicode="&#x111;" horiz-adv-x="1163" 
d="M1145 1102l-225 -897q-11 -50 -11 -60q0 -20 14.5 -30.5t49.5 -14.5v-53l-287 -57h-12l37 149h-13q-123 -164 -297 -164q-137 0 -232 112t-95 282q-2 114 41.5 228t118 202.5t181 142.5t220.5 51q154 0 254 -100h12l51 209h-264v94h289l8 35q8 27 8 55q0 31 -17 46.5
t-58 21.5v53l307 57h10l-68 -268h142v-94h-164zM827 604q13 57 13 98q0 91 -50 141t-137 50q-105 0 -195 -69t-142 -182.5t-52 -242.5q0 -131 54.5 -205.5t152.5 -74.5q151 0 285 192z" />
    <glyph glyph-name="Emacron" unicode="&#x112;" horiz-adv-x="1314" 
d="M1274 1614h-608v102h608v-102zM1145 358v-358h-1153v53q54 13 83.5 25.5t51.5 40t33 58.5t28 97l222 885q18 73 18 117q0 43 -20.5 65t-67.5 29v53h1036v-307h-57q-11 109 -78 154t-221 45h-365l-135 -541h189q120 0 173.5 35t59.5 115h55v-408h-55q-6 80 -58.5 115
t-172.5 35h-219l-140 -557h441q139 0 210 57.5t84 191.5h58z" />
    <glyph glyph-name="emacron" unicode="&#x113;" horiz-adv-x="1007" 
d="M369 1194v102h606v-102h-606zM936 672q0 -46 -8 -82l-8 -43h-644q-6 -40 -6 -78q0 -160 81 -248t222 -88q153 0 269 96l47 -47q-74 -98 -176.5 -152.5t-214.5 -54.5q-176 0 -295 122t-119 317q-1 110 37 215.5t105 187t165 130t207 46.5q153 0 245.5 -90t92.5 -231z
M297 643h453q6 35 6 64q0 86 -45 135t-129 49q-97 0 -172 -67.5t-113 -180.5z" />
    <glyph glyph-name="Ebreve" unicode="&#x114;" horiz-adv-x="1314" 
d="M737 1763q0 33 6 70h84q-4 -32 -4 -35q0 -57 36 -90t99 -33q74 0 128 41.5t81 116.5h84q-30 -136 -110.5 -214.5t-196.5 -78.5q-96 0 -151.5 60t-55.5 163zM1145 358v-358h-1153v53q54 13 83.5 25.5t51.5 40t33 58.5t28 97l222 885q18 73 18 117q0 43 -20.5 65t-67.5 29
v53h1036v-307h-57q-11 109 -78 154t-221 45h-365l-135 -541h189q120 0 173.5 35t59.5 115h55v-408h-55q-6 80 -58.5 115t-172.5 35h-219l-140 -557h441q139 0 210 57.5t84 191.5h58z" />
    <glyph glyph-name="ebreve" unicode="&#x115;" horiz-adv-x="1007" 
d="M442 1350q0 25 7 69h83q-4 -32 -4 -35q0 -57 36.5 -90.5t99.5 -33.5q145 0 208 159h84q-30 -136 -110.5 -214.5t-196.5 -78.5q-96 0 -151.5 60.5t-55.5 163.5zM936 672q0 -46 -8 -82l-8 -43h-644q-6 -40 -6 -78q0 -160 81 -248t222 -88q153 0 269 96l47 -47
q-74 -98 -176.5 -152.5t-214.5 -54.5q-176 0 -295 122t-119 317q-1 110 37 215.5t105 187t165 130t207 46.5q153 0 245.5 -90t92.5 -231zM297 643h453q6 35 6 64q0 86 -45 135t-129 49q-97 0 -172 -67.5t-113 -180.5z" />
    <glyph glyph-name="Edotaccent" unicode="&#x116;" horiz-adv-x="1314" 
d="M829 1679q0 63 43 105.5t105 42.5q51 0 84 -33t33 -84q0 -63 -43 -106t-105 -43q-51 0 -84 33.5t-33 84.5zM1145 358v-358h-1153v53q54 13 83.5 25.5t51.5 40t33 58.5t28 97l222 885q18 73 18 117q0 43 -20.5 65t-67.5 29v53h1036v-307h-57q-11 109 -78 154t-221 45h-365
l-135 -541h189q120 0 173.5 35t59.5 115h55v-408h-55q-6 80 -58.5 115t-172.5 35h-219l-140 -557h441q139 0 210 57.5t84 191.5h58z" />
    <glyph glyph-name="edotaccent" unicode="&#x117;" horiz-adv-x="1007" 
d="M545 1268q0 61 43.5 104t105.5 43q51 0 84 -33t33 -84q0 -63 -42.5 -106t-104.5 -43q-51 0 -85 34t-34 85zM936 672q0 -46 -8 -82l-8 -43h-644q-6 -40 -6 -78q0 -160 81 -248t222 -88q153 0 269 96l47 -47q-74 -98 -176.5 -152.5t-214.5 -54.5q-176 0 -295 122t-119 317
q-1 110 37 215.5t105 187t165 130t207 46.5q153 0 245.5 -90t92.5 -231zM297 643h453q6 35 6 64q0 86 -45 135t-129 49q-97 0 -172 -67.5t-113 -180.5z" />
    <glyph glyph-name="Eogonek" unicode="&#x118;" horiz-adv-x="1314" 
d="M340 1423h1036v-307h-57q-11 109 -78 154t-221 45h-365l-135 -541h189q120 0 173.5 35t59.5 115h55v-408h-55q-6 80 -58.5 115t-172.5 35h-219l-140 -557h441q139 0 210 57.5t84 191.5h58v-358q-136 -55 -198 -108t-62 -115q0 -44 27 -71.5t73 -27.5q58 0 105 35l32 -43
q-74 -86 -182 -86q-78 0 -127 47.5t-49 122.5q0 157 244 246h-1016v53q54 13 83.5 25.5t51.5 40t33 58.5t28 97l222 885q18 73 18 117q0 43 -20.5 65t-67.5 29v53z" />
    <glyph glyph-name="eogonek" unicode="&#x119;" horiz-adv-x="1007" 
d="M936 672q0 -46 -8 -82l-8 -43h-644q-6 -40 -6 -78q0 -159 81 -247.5t218 -88.5q157 0 273 96l47 -47q-65 -83 -128 -124.5t-165 -73.5q-118 -36 -180 -89.5t-62 -115.5q0 -45 27 -73t74 -28q55 0 102 35l35 -43q-74 -86 -184 -86q-78 0 -127.5 48t-49.5 120
q0 71 49.5 128t137.5 97v7q-146 24 -240 141q-94 116 -94 289q-2 148 63 281.5t186 217t267 80.5q152 0 244 -90t92 -231zM750 643q8 41 8 66q0 85 -47 133.5t-129 48.5q-97 0 -172 -67.5t-113 -180.5h453z" />
    <glyph glyph-name="Ecaron" unicode="&#x11a;" horiz-adv-x="1314" 
d="M1192 1827h117l-330 -291h-105l-174 291h99l155 -135zM1145 358v-358h-1153v53q54 13 83.5 25.5t51.5 40t33 58.5t28 97l222 885q18 73 18 117q0 43 -20.5 65t-67.5 29v53h1036v-307h-57q-11 109 -78 154t-221 45h-365l-135 -541h189q120 0 173.5 35t59.5 115h55v-408
h-55q-6 80 -58.5 115t-172.5 35h-219l-140 -557h441q139 0 210 57.5t84 191.5h58z" />
    <glyph glyph-name="ecaron" unicode="&#x11b;" horiz-adv-x="1007" 
d="M1018 1413l-330 -293h-104l-174 293h98l154 -135l239 135h117zM936 672q0 -46 -8 -82l-8 -43h-644q-6 -40 -6 -78q0 -160 81 -248t222 -88q153 0 269 96l47 -47q-74 -98 -176.5 -152.5t-214.5 -54.5q-176 0 -295 122t-119 317q-1 110 37 215.5t105 187t165 130t207 46.5
q153 0 245.5 -90t92.5 -231zM297 643h453q6 35 6 64q0 86 -45 135t-129 49q-97 0 -172 -67.5t-113 -180.5z" />
    <glyph glyph-name="Gcircumflex" unicode="&#x11c;" horiz-adv-x="1523" 
d="M1221 1540l-156 137l-240 -137h-116l329 293h105l174 -293h-96zM379 618q0 -248 122.5 -390t340.5 -142q86 0 192 29l92 377q11 57 11 73q0 51 -28.5 76t-94.5 33v53h497v-53q-79 -13 -117.5 -54.5t-62.5 -132.5l-98 -393q-210 -119 -428 -119q-134 -2 -255 46t-210 133
t-140.5 208.5t-49.5 264.5q-3 161 65.5 312t187.5 264.5t290 180.5t362 64q278 0 471 -109v-295h-56q-50 137 -160.5 214t-256.5 77q-122 2 -230.5 -36t-189 -107t-139 -160t-87.5 -197t-28 -217z" />
    <glyph glyph-name="gcircumflex" unicode="&#x11d;" horiz-adv-x="1048" 
d="M825 1126l-155 136l-240 -136h-117l332 293h103l176 -293h-99zM1104 868h-254v-10q32 -24 52 -66t20 -94q0 -155 -123.5 -255.5t-304.5 -100.5q-72 0 -146 23q-62 -19 -99.5 -51t-37.5 -68q0 -35 26 -53.5t82 -24.5l275 -31q307 -34 307 -231q0 -102 -75.5 -182
t-198 -121t-267.5 -41q-196 0 -315 69.5t-119 184.5q0 139 201 225v6q-78 54 -78 137q0 69 53.5 129.5t149.5 98.5v6q-98 79 -98 211q0 159 124.5 261.5t305.5 102.5q57 0 137 -22l373 76h10v-179zM737 727q0 80 -41 128t-114 48q-103 0 -172.5 -87t-69.5 -204
q0 -84 42.5 -131t117.5 -47q101 0 169 87.5t68 205.5zM246 8q-73 -30 -114.5 -75.5t-41.5 -100.5q0 -81 75.5 -126.5t201.5 -45.5q148 0 247 51q103 50 103 139q0 56 -39.5 84t-126.5 39z" />
    <glyph glyph-name="Gbreve" unicode="&#x11e;" horiz-adv-x="1523" 
d="M831 1763q0 26 7 70h84q-4 -32 -4 -35q0 -57 36 -90t99 -33q74 0 128 41.5t81 116.5h84q-30 -136 -111 -214.5t-197 -78.5q-96 0 -151.5 60t-55.5 163zM379 618q0 -248 122.5 -390t340.5 -142q86 0 192 29l92 377q11 57 11 73q0 51 -28.5 76t-94.5 33v53h497v-53
q-79 -13 -117.5 -54.5t-62.5 -132.5l-98 -393q-210 -119 -428 -119q-134 -2 -255 46t-210 133t-140.5 208.5t-49.5 264.5q-3 161 65.5 312t187.5 264.5t290 180.5t362 64q278 0 471 -109v-295h-56q-50 137 -160.5 214t-256.5 77q-122 2 -230.5 -36t-189 -107t-139 -160
t-87.5 -197t-28 -217z" />
    <glyph glyph-name="gbreve" unicode="&#x11f;" horiz-adv-x="1048" 
d="M438 1350q0 32 6 69h84q-4 -32 -4 -35q0 -57 36 -90.5t99 -33.5q146 0 209 159h84q-30 -136 -110.5 -214.5t-196.5 -78.5q-96 0 -151.5 60.5t-55.5 163.5zM1104 868h-254v-10q32 -24 52 -66t20 -94q0 -155 -123.5 -255.5t-304.5 -100.5q-72 0 -146 23q-62 -19 -99.5 -51
t-37.5 -68q0 -35 26 -53.5t82 -24.5l275 -31q307 -34 307 -231q0 -102 -75.5 -182t-198 -121t-267.5 -41q-196 0 -315 69.5t-119 184.5q0 139 201 225v6q-78 54 -78 137q0 69 53.5 129.5t149.5 98.5v6q-98 79 -98 211q0 159 124.5 261.5t305.5 102.5q57 0 137 -22l373 76h10
v-179zM737 727q0 80 -41 128t-114 48q-103 0 -172.5 -87t-69.5 -204q0 -84 42.5 -131t117.5 -47q101 0 169 87.5t68 205.5zM246 8q-73 -30 -114.5 -75.5t-41.5 -100.5q0 -81 75.5 -126.5t201.5 -45.5q148 0 247 51q103 50 103 139q0 56 -39.5 84t-126.5 39z" />
    <glyph glyph-name="Gdotaccent" unicode="&#x120;" horiz-adv-x="1523" 
d="M924 1679q0 63 42.5 105.5t104.5 42.5q51 0 84 -33t33 -84q0 -63 -43 -106t-105 -43q-51 0 -83.5 33.5t-32.5 84.5zM379 618q0 -248 122.5 -390t340.5 -142q86 0 192 29l92 377q11 57 11 73q0 51 -28.5 76t-94.5 33v53h497v-53q-79 -13 -117.5 -54.5t-62.5 -132.5
l-98 -393q-210 -119 -428 -119q-134 -2 -255 46t-210 133t-140.5 208.5t-49.5 264.5q-3 161 65.5 312t187.5 264.5t290 180.5t362 64q278 0 471 -109v-295h-56q-50 137 -160.5 214t-256.5 77q-122 2 -230.5 -36t-189 -107t-139 -160t-87.5 -197t-28 -217z" />
    <glyph glyph-name="gdotaccent" unicode="&#x121;" horiz-adv-x="1048" 
d="M541 1268q0 61 43.5 104t105.5 43q51 0 84 -33t33 -84q0 -63 -43 -106t-105 -43q-51 0 -84.5 34t-33.5 85zM1104 868h-254v-10q32 -24 52 -66t20 -94q0 -155 -123.5 -255.5t-304.5 -100.5q-72 0 -146 23q-62 -19 -99.5 -51t-37.5 -68q0 -35 26 -53.5t82 -24.5l275 -31
q307 -34 307 -231q0 -102 -75.5 -182t-198 -121t-267.5 -41q-196 0 -315 69.5t-119 184.5q0 139 201 225v6q-78 54 -78 137q0 69 53.5 129.5t149.5 98.5v6q-98 79 -98 211q0 159 124.5 261.5t305.5 102.5q57 0 137 -22l373 76h10v-179zM737 727q0 80 -41 128t-114 48
q-103 0 -172.5 -87t-69.5 -204q0 -84 42.5 -131t117.5 -47q101 0 169 87.5t68 205.5zM246 8q-73 -30 -114.5 -75.5t-41.5 -100.5q0 -81 75.5 -126.5t201.5 -45.5q148 0 247 51q103 50 103 139q0 56 -39.5 84t-126.5 39z" />
    <glyph glyph-name="uni0122" unicode="&#x122;" horiz-adv-x="1523" 
d="M379 618q0 -248 122.5 -390t340.5 -142q86 0 192 29l92 377q11 57 11 73q0 51 -28.5 76t-94.5 33v53h497v-53q-79 -13 -117.5 -54.5t-62.5 -132.5l-98 -393q-210 -119 -428 -119q-134 -2 -255 46t-210 133t-140.5 208.5t-49.5 264.5q-3 161 65.5 312t187.5 264.5
t290 180.5t362 64q278 0 471 -109v-295h-56q-50 137 -160.5 214t-256.5 77q-122 2 -230.5 -36t-189 -107t-139 -160t-87.5 -197t-28 -217zM874 -201q0 -33 -15 -64t-50 -79l-143 -182h-91l177 215q-43 2 -72 30t-29 72q0 50 33.5 84.5t83.5 34.5q44 0 75 -32t31 -79z" />
    <glyph glyph-name="uni0123" unicode="&#x123;" horiz-adv-x="1048" 
d="M522 1190q0 35 15.5 66.5t52.5 76.5l141 180h92l-174 -213q41 -2 68.5 -30.5t27.5 -71.5q0 -50 -32 -84.5t-82 -34.5q-45 0 -77 32t-32 79zM1104 868h-254v-10q32 -24 52 -66t20 -94q0 -155 -123.5 -255.5t-304.5 -100.5q-72 0 -146 23q-62 -19 -99.5 -51t-37.5 -68
q0 -35 26 -53.5t82 -24.5l275 -31q307 -34 307 -231q0 -102 -75.5 -182t-198 -121t-267.5 -41q-196 0 -315 69.5t-119 184.5q0 139 201 225v6q-78 54 -78 137q0 69 53.5 129.5t149.5 98.5v6q-98 79 -98 211q0 159 124.5 261.5t305.5 102.5q57 0 137 -22l373 76h10v-179z
M737 727q0 80 -41 128t-114 48q-103 0 -172.5 -87t-69.5 -204q0 -84 42.5 -131t117.5 -47q101 0 169 87.5t68 205.5zM246 8q-73 -30 -114.5 -75.5t-41.5 -100.5q0 -81 75.5 -126.5t201.5 -45.5q148 0 247 51q103 50 103 139q0 56 -39.5 84t-126.5 39z" />
    <glyph glyph-name="Hcircumflex" unicode="&#x124;" horiz-adv-x="1656" 
d="M1288 1540l-155 137l-240 -137h-117l330 293h104l174 -293h-96zM1309 1423h460v-53q-83 -15 -118 -53q-37 -40 -60 -139l-231 -930q-17 -73 -17 -98q0 -41 22 -63t73 -34v-53h-463v53q83 16 115 53q36 38 63 142l104 420h-763l-105 -420q-16 -69 -16 -98q0 -41 21.5 -63
t72.5 -34v-53h-463v53q85 15 117 53q37 40 61 142l232 928q16 75 16 100q0 41 -21 62t-71 32v53h461v-53q-84 -15 -119 -53t-59 -139l-99 -396h764l98 394q17 73 17 100q0 41 -21 62t-71 32v53z" />
    <glyph glyph-name="hcircumflex" unicode="&#x125;" horiz-adv-x="1144" 
d="M670 1540h-117l330 293h104l174 -293h-96l-156 137zM362 1217q13 47 13 71q0 31 -17 45.5t-59 20.5v53l305 57h12l-159 -635h12q69 85 141 124.5t158 39.5q111 0 184.5 -77.5t73.5 -202.5q0 -59 -14 -111l-105 -422q-12 -50 -12 -74q0 -25 13 -36t48 -17v-53h-370v53
q63 9 88 33.5t43 101.5l108 433q11 57 11 73q0 73 -40.5 115.5t-105.5 42.5q-144 0 -272 -180l-125 -498q-8 -31 -8 -61t12.5 -42t48.5 -18v-53h-366v53q64 9 83.5 28.5t40.5 100.5z" />
    <glyph glyph-name="Hbar" unicode="&#x126;" horiz-adv-x="1687" 
d="M1786 1370q-84 -15 -119 -53q-34 -37 -61 -139l-9 -37h172v-103h-198l-195 -790q-16 -69 -16 -98q0 -41 20.5 -63t71.5 -34v-53h-463v53q85 15 117 53q36 38 63 142l105 420h-764l-104 -420q-17 -73 -17 -98q0 -41 20.5 -63t71.5 -34v-53h-463v53q85 15 117 53
q37 40 64 142l194 790h-174v103h201l8 35q16 75 16 102q0 39 -20.5 60.5t-69.5 31.5v53h461v-53q-84 -15 -119 -53q-34 -37 -61 -139l-8 -37h764l8 35q16 75 16 102q0 39 -20.5 60.5t-69.5 31.5v53h461v-53zM537 782h766l61 256h-764z" />
    <glyph glyph-name="hbar" unicode="&#x127;" horiz-adv-x="1144" 
d="M907 180q-12 -50 -12 -74q0 -25 13 -36t48 -17v-53h-370v53q63 9 88 33.5t43 101.5l108 433q11 57 11 73q0 73 -40.5 115.5t-105.5 42.5q-144 0 -272 -180l-125 -498q-8 -31 -8 -61t12.5 -42t48.5 -18v-53h-366v53q64 9 83.5 28.5t40.5 100.5l230 920h-144v94h168l4 21
q13 47 13 71q0 31 -17 45.5t-59 20.5v53l305 57h12l-67 -268h262v-94h-287l-67 -273h12q69 85 141 124.5t158 39.5q111 0 184.5 -77.5t73.5 -202.5q0 -59 -14 -111z" />
    <glyph glyph-name="Itilde" unicode="&#x128;" horiz-adv-x="686" 
d="M610 1614l-26 24q-45 37 -88 37q-86 0 -123 -116h-82q24 120 82.5 182.5t138.5 62.5q78 0 154 -61l30 -27q40 -35 86 -35q44 0 73 28.5t48 88.5h84q-24 -122 -83 -185t-140 -63q-84 0 -154 64zM4 53q85 15 119 52t61 151l226 907q18 73 18 115q0 41 -20 61t-70 31v53h461
v-53q-84 -15 -120 -54.5t-63 -150.5l-225 -909q-16 -75 -16 -104q0 -43 21 -65t71 -34v-53h-463v53z" />
    <glyph glyph-name="itilde" unicode="&#x129;" horiz-adv-x="559" 
d="M444 1198l-26 25q-45 37 -88 37q-84 0 -123 -117h-82q24 120 82.5 183t138.5 63q77 0 154 -62l30 -27q39 -34 86 -34q44 0 73.5 27.5t49.5 88.5h82q-24 -122 -82.5 -184.5t-140.5 -62.5q-85 0 -154 63zM311 193q-14 -60 -14 -82q0 -29 13.5 -40.5t49.5 -17.5v-53h-366v53
q66 9 86.5 31.5t40.5 110.5l135 540q10 52 10 70q0 30 -15.5 43.5t-57.5 19.5v54l305 57h10z" />
    <glyph glyph-name="Imacron" unicode="&#x12a;" horiz-adv-x="686" 
d="M948 1614h-608v102h608v-102zM4 53q85 15 119 52t61 151l226 907q18 73 18 115q0 41 -20 61t-70 31v53h461v-53q-84 -15 -120 -54.5t-63 -150.5l-225 -909q-16 -75 -16 -104q0 -43 21 -65t71 -34v-53h-463v53z" />
    <glyph glyph-name="imacron" unicode="&#x12b;" horiz-adv-x="559" 
d="M776 1194h-606v102h606v-102zM311 193q-14 -60 -14 -82q0 -29 13.5 -40.5t49.5 -17.5v-53h-366v53q66 9 86.5 31.5t40.5 110.5l135 540q10 52 10 70q0 30 -15.5 43.5t-57.5 19.5v54l305 57h10z" />
    <glyph glyph-name="Ibreve" unicode="&#x12c;" horiz-adv-x="686" 
d="M414 1763q0 33 6 70h84q-4 -32 -4 -35q0 -57 36 -90t99 -33q74 0 128 41.5t81 116.5h84q-30 -136 -110.5 -214.5t-196.5 -78.5q-96 0 -151.5 60t-55.5 163zM4 53q85 15 119 52t61 151l226 907q18 73 18 115q0 41 -20 61t-70 31v53h461v-53q-84 -15 -120 -54.5t-63 -150.5
l-225 -909q-16 -75 -16 -104q0 -43 21 -65t71 -34v-53h-463v53z" />
    <glyph glyph-name="ibreve" unicode="&#x12d;" horiz-adv-x="559" 
d="M244 1350q0 32 6 69h84q-4 -32 -4 -35q0 -57 36 -90.5t99 -33.5q146 0 209 159h84q-30 -136 -110.5 -214.5t-196.5 -78.5q-96 0 -151.5 60.5t-55.5 163.5zM311 193q-14 -60 -14 -82q0 -29 13.5 -40.5t49.5 -17.5v-53h-366v53q66 9 86.5 31.5t40.5 110.5l135 540
q10 52 10 70q0 30 -15.5 43.5t-57.5 19.5v54l305 57h10z" />
    <glyph glyph-name="Iogonek" unicode="&#x12e;" horiz-adv-x="686" 
d="M338 1423h461v-53q-84 -15 -120 -54.5t-63 -150.5l-225 -909q-16 -75 -16 -104q0 -43 21 -65t71 -34v-53h-133q-136 -55 -198 -108t-62 -115q0 -44 27 -71.5t73 -27.5q58 0 105 35l32 -43q-74 -86 -182 -86q-78 0 -127 47.5t-49 122.5q0 157 244 246h-193v53
q85 15 119 52t61 151l226 907q18 73 18 115q0 41 -20 61t-70 31v53z" />
    <glyph glyph-name="iogonek" unicode="&#x12f;" horiz-adv-x="559" 
d="M612 1298q0 -63 -42.5 -106t-104.5 -43q-51 0 -85 34t-34 85q0 61 44 104t106 43q51 0 83.5 -33t32.5 -84zM508 979l-197 -786q-14 -60 -14 -82q0 -29 13.5 -40.5t49.5 -17.5v-53h-81q-137 -56 -199 -109t-62 -114q0 -44 27.5 -71.5t73.5 -27.5q57 0 104 35l33 -43
q-74 -86 -182 -86q-78 0 -127 47.5t-49 122.5q0 158 243 246h-147v53q66 9 86.5 31.5t40.5 110.5l135 540q10 52 10 70q0 30 -15.5 43.5t-57.5 19.5v54l305 57h10z" />
    <glyph glyph-name="Idotaccent" unicode="&#x130;" horiz-adv-x="686" 
d="M506 1679q0 63 42.5 105.5t104.5 42.5q51 0 84 -33t33 -84q0 -63 -42.5 -106t-104.5 -43q-51 0 -84 33.5t-33 84.5zM4 53q85 15 119 52t61 151l226 907q18 73 18 115q0 41 -20 61t-70 31v53h461v-53q-84 -15 -120 -54.5t-63 -150.5l-225 -909q-16 -75 -16 -104
q0 -43 21 -65t71 -34v-53h-463v53z" />
    <glyph glyph-name="dotlessi" unicode="&#x131;" horiz-adv-x="559" 
d="M311 193q-14 -60 -14 -82q0 -29 13.5 -40.5t49.5 -17.5v-53h-366v53q66 9 86.5 31.5t40.5 110.5l135 540q10 52 10 70q0 30 -15.5 43.5t-57.5 19.5v54l305 57h10z" />
    <glyph glyph-name="IJ" unicode="&#x132;" horiz-adv-x="1648" 
d="M4 53q85 15 119 52t61 151l226 907q18 73 18 115q0 41 -20 61t-70 31v53h461v-53q-84 -15 -120 -54.5t-63 -150.5l-225 -909q-16 -75 -16 -104q0 -43 21 -65t71 -34v-53h-463v53zM602 90l43 74q115 -68 219 -68q259 0 328 279l199 784q18 73 18 117q0 41 -20 62t-70 32
v53h461v-53q-85 -19 -120.5 -57t-62.5 -146l-192 -772q-54 -214 -173 -317t-306 -103t-324 115z" />
    <glyph glyph-name="ij" unicode="&#x133;" horiz-adv-x="1087" 
d="M346 1268q0 63 43.5 105t106.5 42q51 0 83.5 -33t32.5 -84q0 -63 -43.5 -106t-105.5 -43q-51 0 -84 34t-33 85zM311 193q-14 -60 -14 -82q0 -29 13.5 -40.5t49.5 -17.5v-53h-366v53q66 9 86.5 31.5t40.5 110.5l135 540q10 52 10 70q0 30 -15.5 43.5t-57.5 19.5v54l305 57
h10zM895 1268q0 61 43.5 104t105.5 43q51 0 84 -33t33 -84q0 -63 -42.5 -106t-104.5 -43q-51 0 -85 34t-34 85zM223 -387l33 70q52 -21 117 -21q83 0 134 47.5t77 151.5l217 872q10 42 10 70q0 30 -16.5 44.5t-55.5 20.5v54l303 57h13l-277 -1104q-79 -313 -372 -313
q-103 0 -183 51z" />
    <glyph glyph-name="Jcircumflex" unicode="&#x134;" horiz-adv-x="962" 
d="M698 1540h-116l329 293h105l174 -293h-96l-156 137zM-84 90l43 74q115 -68 219 -68q259 0 328 279l199 784q18 73 18 117q0 41 -20 62t-70 32v53h461v-53q-85 -19 -120.5 -57t-62.5 -146l-192 -772q-54 -214 -173 -317t-306 -103t-324 115z" />
    <glyph glyph-name="jcircumflex" unicode="&#x135;" horiz-adv-x="530" 
d="M227 1126h-116l329 293h105l174 -293h-96l-156 136zM-336 -387l33 70q53 -21 117 -21q83 0 134 47.5t77 151.5l217 872q10 42 10 70q0 30 -16.5 44.5t-55.5 20.5v54l303 57h13l-277 -1104q-79 -313 -373 -313q-102 0 -182 51z" />
    <glyph glyph-name="uni0136" unicode="&#x136;" horiz-adv-x="1411" 
d="M1595 1370q-116 -15 -196 -63q-82 -50 -189 -138l-424 -362l531 -797v-10h-248l-436 676l-176 -152l-66 -264q-20 -79 -20 -113q0 -38 21.5 -59t72.5 -35v-53h-461v53q86 19 119.5 56.5t60.5 148.5l230 918q16 75 16 102q0 39 -21 60.5t-71 31.5v53h461v-53
q-84 -17 -120 -56t-61 -138l-116 -469h10l580 501q104 88 104 129q0 24 -33 33v53h432v-53zM782 -201q0 -33 -15 -64t-50 -79l-144 -182h-90l176 215q-43 2 -71.5 30t-28.5 72q0 50 33.5 84.5t83.5 34.5q44 0 75 -32t31 -79z" />
    <glyph glyph-name="uni0137" unicode="&#x137;" horiz-adv-x="1089" 
d="M1167 915q-80 -10 -145 -41.5t-156 -99.5l-266 -203l377 -561v-10h-225l-297 461l-113 -84l-45 -184q-12 -53 -12 -82q0 -27 13 -39.5t48 -18.5v-53h-366v53q65 9 84 28t40 101l265 1055q6 27 6 49q0 31 -16.5 46.5t-57.5 21.5v53l305 57h10l-233 -932h14l369 285
q65 53 65 76q0 16 -26 22v54h362v-54zM571 -201q0 -33 -15 -64t-50 -79l-144 -182h-90l177 215q-43 2 -72 30t-29 72q0 50 33.5 84.5t83.5 34.5q44 0 75 -32t31 -79z" />
    <glyph glyph-name="Lacute" unicode="&#x139;" horiz-adv-x="1196" 
d="M598 1540h-92l158 293h258v-6zM-8 53q97 25 130.5 61t61.5 148l226 903q18 71 18 113q0 43 -20.5 64t-69.5 28v53h465v-53q-87 -9 -122 -47t-63 -154l-266 -1060h369q75 0 122 11t84 43.5t58 89t33 148.5h55v-401h-1081v53z" />
    <glyph glyph-name="lacute" unicode="&#x13a;" horiz-adv-x="546" 
d="M528 1540h-92l158 293h258v-6zM-23 53q65 9 85.5 31t43.5 111l256 1026q13 47 13 69q0 30 -17 44t-57 20v53l303 57h10l-319 -1271q-14 -60 -14 -82q0 -29 13.5 -40.5t49.5 -17.5v-53h-367v53z" />
    <glyph glyph-name="uni013B" unicode="&#x13b;" horiz-adv-x="1196" 
d="M1073 401v-401h-1081v53q97 25 130.5 61t61.5 148l226 903q18 71 18 113q0 43 -20.5 64t-69.5 28v53h465v-53q-87 -9 -122 -47t-63 -154l-266 -1060h369q75 0 122 11t84 43.5t58 89t33 148.5h55zM629 -201q0 -33 -15 -63.5t-51 -79.5l-143 -182h-90l176 215
q-43 2 -71.5 30t-28.5 72q0 50 33 84.5t83 34.5q45 0 76 -32t31 -79z" />
    <glyph glyph-name="uni013C" unicode="&#x13c;" horiz-adv-x="546" 
d="M295 193q-14 -60 -14 -82q0 -29 13.5 -40.5t49.5 -17.5v-53h-367v53q65 9 85.5 31t43.5 111l256 1026q13 47 13 69q0 30 -17 44t-57 20v53l303 57h10zM211 -201q0 -35 -15.5 -66.5t-52.5 -76.5l-141 -182h-92l176 215q-43 2 -70.5 30t-27.5 72q0 50 32 84.5t82 34.5
q45 0 77 -32t32 -79z" />
    <glyph glyph-name="Lcaron" unicode="&#x13d;" horiz-adv-x="1196" 
d="M1163 1339q0 -33 -13.5 -60.5t-49.5 -76.5l-135 -172h-88l165 203q-41 1 -66.5 28.5t-25.5 69.5q0 48 31 80.5t80 32.5q42 0 72 -31t30 -74zM721 109q75 0 122 11t84 43.5t58 89t33 148.5h55v-401h-1081v53q97 25 130.5 61t61.5 148l226 903q18 71 18 113q0 43 -20.5 64
t-69.5 28v53h465v-53q-87 -9 -122 -47t-63 -154l-266 -1060h369z" />
    <glyph glyph-name="lcaron" unicode="&#x13e;" horiz-adv-x="546" 
d="M907 1370q0 -33 -13.5 -60.5t-49.5 -76.5l-135 -172h-88l165 203q-41 1 -66.5 28.5t-25.5 69.5q0 48 31 80.5t80 32.5q42 0 72 -31t30 -74zM614 1464l-319 -1271q-14 -60 -14 -82q0 -29 13.5 -40.5t49.5 -17.5v-53h-367v53q65 9 85.5 31t43.5 111l256 1026q13 47 13 69
q0 30 -17 44t-57 20v53l303 57h10z" />
    <glyph glyph-name="Ldot" unicode="&#x13f;" horiz-adv-x="1196" 
d="M-8 53q97 25 130.5 61t61.5 148l226 903q18 71 18 113q0 43 -20.5 64t-69.5 28v53h465v-53q-87 -9 -122 -47t-63 -154l-266 -1060h369q75 0 122 11t84 43.5t58 89t33 148.5h55v-401h-1081v53zM654 591q0 63 44 107.5t107 44.5q57 0 92 -35.5t35 -91.5q0 -65 -44.5 -108.5
t-108.5 -43.5q-57 0 -91 35t-34 92z" />
    <glyph glyph-name="ldot" unicode="&#x140;" horiz-adv-x="673" 
d="M-23 53q65 9 85.5 31t43.5 111l256 1026q13 47 13 69q0 30 -17 44t-57 20v53l303 57h10l-319 -1271q-14 -60 -14 -82q0 -29 13.5 -40.5t49.5 -17.5v-53h-367v53zM539 729q0 63 44 107.5t107 44.5q57 0 92 -35.5t35 -91.5q0 -65 -44.5 -108.5t-108.5 -43.5q-57 0 -91 35
t-34 92z" />
    <glyph glyph-name="Lslash" unicode="&#x141;" horiz-adv-x="1239" 
d="M1118 401v-401h-1083v53q97 25 130.5 61t61.5 148l56 217l-203 -100v115l235 116l140 555q16 75 16 111q0 43 -20.5 65t-69.5 29v53h467v-53q-89 -9 -123 -46t-63 -155l-111 -442l420 207v-115l-453 -223l-123 -487h371q73 0 119.5 11.5t84 43t58.5 88.5t33 149h57z" />
    <glyph glyph-name="lslash" unicode="&#x142;" horiz-adv-x="661" 
d="M496 731l-136 -538q-14 -60 -14 -82q0 -28 13.5 -40t50.5 -18v-53h-367v53q66 9 86.5 31.5t40.5 110.5l109 430l-191 -95v107l221 108l119 476q10 52 10 67q0 31 -16 45.5t-57 20.5v53l305 57h10l-154 -612l183 90v-106z" />
    <glyph glyph-name="Nacute" unicode="&#x143;" horiz-adv-x="1560" 
d="M1016 1540h-92l157 293h258v-6zM-10 53q91 19 126.5 57.5t63.5 145.5l256 1034l-59 125v8h266l514 -1116h12l217 869q19 81 19 102q0 37 -19.5 58t-66.5 34v53h373v-53q-87 -19 -125.5 -59.5t-63.5 -139.5l-291 -1171h-133l-544 1163h-13l-225 -909q-18 -70 -18 -111
q0 -37 19 -56.5t67 -33.5v-53h-375v53z" />
    <glyph glyph-name="nacute" unicode="&#x144;" horiz-adv-x="1157" 
d="M731 1126h-94l160 293h258v-8zM254 731q12 61 12 72q0 30 -17 44.5t-59 20.5v54l306 57h10l-37 -150h12q69 85 141 124.5t158 39.5q111 0 184.5 -77.5t73.5 -204.5q0 -57 -14 -109l-106 -426q-13 -50 -13 -70q0 -24 14 -35.5t50 -17.5v-53h-371v53q64 11 88.5 35
t42.5 100l109 433q10 52 10 73q0 73 -40 115.5t-103 42.5q-149 0 -277 -180l-123 -498q-8 -31 -8 -61t12.5 -42t48.5 -18v-53h-366v53q64 9 84 29t41 100z" />
    <glyph glyph-name="uni0145" unicode="&#x145;" horiz-adv-x="1560" 
d="M1319 1423h373v-53q-87 -19 -125.5 -59.5t-63.5 -139.5l-291 -1171h-133l-544 1163h-13l-225 -909q-18 -70 -18 -111q0 -37 19 -56.5t67 -33.5v-53h-375v53q91 19 126.5 57.5t63.5 145.5l256 1034l-59 125v8h266l514 -1116h12l217 869q19 81 19 102q0 37 -19.5 58
t-66.5 34v53zM788 -201q0 -33 -15 -64t-50 -79l-143 -182h-91l177 215q-43 2 -72 30t-29 72q0 50 33.5 84.5t83.5 34.5q44 0 75 -32t31 -79z" />
    <glyph glyph-name="uni0146" unicode="&#x146;" horiz-adv-x="1157" 
d="M918 176q-13 -50 -13 -70q0 -24 14 -35.5t50 -17.5v-53h-371v53q64 11 88.5 35t42.5 100l109 433q10 52 10 73q0 73 -40 115.5t-103 42.5q-149 0 -277 -180l-123 -498q-8 -31 -8 -61t12.5 -42t48.5 -18v-53h-366v53q64 9 84 29t41 100l137 549q12 61 12 72q0 30 -17 44.5
t-59 20.5v54l306 57h10l-37 -150h12q69 85 141 124.5t158 39.5q111 0 184.5 -77.5t73.5 -204.5q0 -57 -14 -109zM559 -201q0 -33 -15 -64t-50 -79l-144 -182h-90l176 215q-43 2 -71.5 30t-28.5 72q0 50 33.5 84.5t83.5 34.5q44 0 75 -32t31 -79z" />
    <glyph glyph-name="Ncaron" unicode="&#x147;" horiz-adv-x="1560" 
d="M1286 1827h117l-330 -291h-104l-174 291h98l156 -135zM-10 53q91 19 126.5 57.5t63.5 145.5l256 1034l-59 125v8h266l514 -1116h12l217 869q19 81 19 102q0 37 -19.5 58t-66.5 34v53h373v-53q-87 -19 -125.5 -59.5t-63.5 -139.5l-291 -1171h-133l-544 1163h-13l-225 -909
q-18 -70 -18 -111q0 -37 19 -56.5t67 -33.5v-53h-375v53z" />
    <glyph glyph-name="ncaron" unicode="&#x148;" horiz-adv-x="1157" 
d="M1008 1413h116l-329 -293h-105l-174 293h98l154 -135zM254 731q12 61 12 72q0 30 -17 44.5t-59 20.5v54l306 57h10l-37 -150h12q69 85 141 124.5t158 39.5q111 0 184.5 -77.5t73.5 -204.5q0 -57 -14 -109l-106 -426q-13 -50 -13 -70q0 -24 14 -35.5t50 -17.5v-53h-371v53
q64 11 88.5 35t42.5 100l109 433q10 52 10 73q0 73 -40 115.5t-103 42.5q-149 0 -277 -180l-123 -498q-8 -31 -8 -61t12.5 -42t48.5 -18v-53h-366v53q64 9 84 29t41 100z" />
    <glyph glyph-name="Eng" unicode="&#x14a;" horiz-adv-x="1560" 
d="M606 -387l35 70q53 -21 115 -21q165 0 211 184l53 213l-485 1102h-13l-225 -903q-18 -73 -18 -115q0 -38 18.5 -57.5t67.5 -32.5v-53h-375v53q93 19 128.5 57t61.5 148l256 1030l-59 127v8h274l500 -1140h12l221 888q19 87 19 107q0 38 -19.5 59t-64.5 33v53h373v-53
q-87 -19 -125.5 -58.5t-63.5 -137.5l-323 -1305q-37 -156 -134.5 -231.5t-242.5 -75.5q-114 0 -197 51z" />
    <glyph glyph-name="eng" unicode="&#x14b;" horiz-adv-x="1136" 
d="M287 -387l35 70q50 -21 114 -21q83 0 134 47.5t77 151.5l191 760q10 52 10 73q0 72 -39 115t-100 43q-157 0 -281 -182l-123 -496q-8 -31 -8 -61t12.5 -42t48.5 -18v-53h-366v53q64 9 84 29t41 100l137 549q12 61 12 72q0 30 -17 44.5t-59 20.5v54l306 57h10l-37 -150h12
q135 164 295 164q113 0 187.5 -77t74.5 -203q0 -59 -14 -111l-182 -727q-79 -313 -373 -313q-102 0 -182 51z" />
    <glyph glyph-name="Omacron" unicode="&#x14c;" horiz-adv-x="1617" 
d="M1354 1614h-609v102h609v-102zM147 588q-3 164 61 322.5t173 278t264.5 191.5t325.5 68q273 0 445.5 -171.5t172.5 -440.5q2 -110 -26 -219.5t-80 -205t-128.5 -177.5t-166.5 -140t-199 -90t-223 -29q-274 0 -446.5 172t-172.5 441zM1358 860q0 220 -105 346.5
t-288 126.5q-100 3 -193 -41.5t-164 -123t-124 -178t-80 -210.5t-25 -217q0 -221 105 -347t288 -126q100 -3 193 41.5t164 123t124 178t80 210.5t25 217z" />
    <glyph glyph-name="omacron" unicode="&#x14d;" horiz-adv-x="1140" 
d="M1044 1194h-606v102h606v-102zM78 385q-3 161 74 302.5t211.5 225t289.5 80.5q184 0 299 -114t115 -295q2 -120 -43.5 -233.5t-122.5 -196.5t-185 -132.5t-224 -46.5q-185 0 -299.5 114.5t-114.5 295.5zM858 616q0 127 -55.5 197t-155.5 70q-106 4 -192 -79t-129 -205
t-41 -247q0 -128 55 -197t158 -69q78 -3 147.5 45t115 125.5t72 172.5t25.5 187z" />
    <glyph glyph-name="Obreve" unicode="&#x14e;" horiz-adv-x="1617" 
d="M819 1763q0 33 6 70h84q-4 -32 -4 -35q0 -57 36 -90t99 -33q74 0 128 41.5t81 116.5h84q-30 -136 -110.5 -214.5t-196.5 -78.5q-96 0 -151.5 60t-55.5 163zM147 588q-3 164 61 322.5t173 278t264.5 191.5t325.5 68q273 0 445.5 -171.5t172.5 -440.5q2 -110 -26 -219.5
t-80 -205t-128.5 -177.5t-166.5 -140t-199 -90t-223 -29q-274 0 -446.5 172t-172.5 441zM1358 860q0 220 -105 346.5t-288 126.5q-100 3 -193 -41.5t-164 -123t-124 -178t-80 -210.5t-25 -217q0 -221 105 -347t288 -126q100 -3 193 41.5t164 123t124 178t80 210.5t25 217z
" />
    <glyph glyph-name="obreve" unicode="&#x14f;" horiz-adv-x="1140" 
d="M512 1350q0 32 6 69h84q-4 -32 -4 -35q0 -57 36 -90.5t99 -33.5q146 0 209 159h84q-30 -136 -110.5 -214.5t-196.5 -78.5q-96 0 -151.5 60.5t-55.5 163.5zM78 385q-3 161 74 302.5t211.5 225t289.5 80.5q184 0 299 -114t115 -295q2 -120 -43.5 -233.5t-122.5 -196.5
t-185 -132.5t-224 -46.5q-185 0 -299.5 114.5t-114.5 295.5zM858 616q0 127 -55.5 197t-155.5 70q-106 4 -192 -79t-129 -205t-41 -247q0 -128 55 -197t158 -69q78 -3 147.5 45t115 125.5t72 172.5t25.5 187z" />
    <glyph glyph-name="Ohungarumlaut" unicode="&#x150;" horiz-adv-x="1617" 
d="M864 1540h-78l144 293h217v-6zM1169 1540h-79l145 293h219v-6zM147 588q-3 164 61 322.5t173 278t264.5 191.5t325.5 68q273 0 445.5 -171.5t172.5 -440.5q2 -110 -26 -219.5t-80 -205t-128.5 -177.5t-166.5 -140t-199 -90t-223 -29q-274 0 -446.5 172t-172.5 441z
M1358 860q0 220 -105 346.5t-288 126.5q-100 3 -193 -41.5t-164 -123t-124 -178t-80 -210.5t-25 -217q0 -221 105 -347t288 -126q100 -3 193 41.5t164 123t124 178t80 210.5t25 217z" />
    <glyph glyph-name="ohungarumlaut" unicode="&#x151;" horiz-adv-x="1140" 
d="M557 1126h-78l146 293h217v-8zM862 1126h-80l146 293h219v-8zM78 385q-3 161 74 302.5t211.5 225t289.5 80.5q184 0 299 -114t115 -295q2 -120 -43.5 -233.5t-122.5 -196.5t-185 -132.5t-224 -46.5q-185 0 -299.5 114.5t-114.5 295.5zM858 616q0 127 -55.5 197t-155.5 70
q-106 4 -192 -79t-129 -205t-41 -247q0 -128 55 -197t158 -69q78 -3 147.5 45t115 125.5t72 172.5t25.5 187z" />
    <glyph glyph-name="OE" unicode="&#x152;" horiz-adv-x="1894" 
d="M797 0q-291 0 -470.5 165.5t-179.5 442.5q-3 158 64.5 308t185 263t286.5 180.5t357 63.5h918v-307h-55q-12 108 -78 153.5t-217 45.5h-291l-135 -541h125q108 0 160 37t57 113h57v-408h-57q-5 78 -55 114t-158 36h-156l-139 -557h364q137 0 208 58t83 191h55v-358h-929z
M805 109l303 1206h-72q-117 2 -222.5 -37.5t-184 -110t-136.5 -162.5t-87 -197.5t-27 -211.5q0 -229 109 -358t296 -129h21z" />
    <glyph glyph-name="oe" unicode="&#x153;" horiz-adv-x="1798" 
d="M1726 674q0 -46 -8 -82l-8 -45h-645q-4 -66 -4 -78q0 -159 81.5 -247.5t217.5 -88.5q153 0 272 96l47 -47q-73 -99 -176 -153t-219 -54q-112 0 -203.5 53t-148.5 150h-12q-169 -203 -428 -203q-185 0 -299.5 114.5t-114.5 295.5q-3 161 74 302.5t211.5 225t289.5 80.5
q113 0 203.5 -46t147.5 -132h12q153 178 375 178q152 0 243.5 -89t91.5 -230zM1540 643q6 35 6 64q0 85 -46.5 134.5t-125.5 49.5q-98 0 -174.5 -68t-112.5 -180h453zM858 614q0 128 -54.5 198.5t-154.5 70.5q-80 3 -150 -44.5t-116 -125t-72.5 -172t-25.5 -187.5
q0 -127 55 -197.5t154 -70.5q80 -3 150 44.5t116 124.5t72.5 171.5t25.5 187.5z" />
    <glyph glyph-name="Racute" unicode="&#x154;" horiz-adv-x="1359" 
d="M1198 1833v-6l-324 -287h-92l158 293h258zM831 702l451 -692v-10h-238l-434 692h-106l-113 -446q-16 -75 -16 -105q0 -39 20.5 -58.5t73.5 -29.5v-53h-467v53q90 15 123 51q36 42 59 140l228 917q22 86 22 125q0 38 -21.5 58t-70.5 26v53h502q207 0 341 -95t134 -241
q0 -156 -133 -262q-132 -102 -355 -123zM528 799h166q187 0 298.5 80t111.5 219q0 105 -77 161t-218 56h-152z" />
    <glyph glyph-name="racute" unicode="&#x155;" horiz-adv-x="784" 
d="M586 1126h-94l159 293h258v-8zM252 733q12 43 12 70q0 30 -17.5 44.5t-56.5 20.5v54l302 57h14l-68 -260h15q76 148 146.5 211t172.5 63q34 0 68 -12v-195q-44 15 -95 15q-101 0 -190.5 -73t-161.5 -202l-86 -344q-12 -46 -12 -71q0 -29 16 -41t58 -17v-53h-379v53
q63 9 84.5 30t42.5 101z" />
    <glyph glyph-name="uni0156" unicode="&#x156;" horiz-adv-x="1359" 
d="M831 702l451 -692v-10h-238l-434 692h-106l-113 -446q-16 -75 -16 -105q0 -39 20.5 -58.5t73.5 -29.5v-53h-467v53q90 15 123 51q36 42 59 140l228 917q22 86 22 125q0 38 -21.5 58t-70.5 26v53h502q207 0 341 -95t134 -241q0 -156 -133 -262q-132 -102 -355 -123z
M528 799h166q187 0 298.5 80t111.5 219q0 105 -77 161t-218 56h-152zM754 -201q0 -33 -15 -63.5t-51 -79.5l-143 -182h-90l176 215q-43 2 -72 30t-29 72q0 50 33.5 84.5t83.5 34.5q45 0 76 -32t31 -79z" />
    <glyph glyph-name="uni0157" unicode="&#x157;" horiz-adv-x="784" 
d="M840 981v-195q-44 15 -95 15q-101 0 -190.5 -73t-161.5 -202l-86 -344q-12 -46 -12 -71q0 -29 16 -41t58 -17v-53h-379v53q63 9 84.5 30t42.5 101l135 549q12 43 12 70q0 30 -17.5 44.5t-56.5 20.5v54l302 57h14l-68 -260h15q76 148 146.5 211t172.5 63q34 0 68 -12z
M229 -201q0 -33 -15 -64t-50 -79l-144 -182h-90l176 215q-43 2 -71.5 30t-28.5 72q0 50 33.5 84.5t83.5 34.5q44 0 75 -32t31 -79z" />
    <glyph glyph-name="Rcaron" unicode="&#x158;" horiz-adv-x="1359" 
d="M1262 1827l-330 -291h-105l-174 291h99l155 -135l238 135h117zM831 702l451 -692v-10h-238l-434 692h-106l-113 -446q-16 -75 -16 -105q0 -39 20.5 -58.5t73.5 -29.5v-53h-467v53q90 15 123 51q36 42 59 140l228 917q22 86 22 125q0 38 -21.5 58t-70.5 26v53h502
q207 0 341 -95t134 -241q0 -156 -133 -262q-132 -102 -355 -123zM528 799h166q187 0 298.5 80t111.5 219q0 105 -77 161t-218 56h-152z" />
    <glyph glyph-name="rcaron" unicode="&#x159;" horiz-adv-x="784" 
d="M862 1413h117l-330 -293h-104l-174 293h98l154 -135zM252 733q12 43 12 70q0 30 -17.5 44.5t-56.5 20.5v54l302 57h14l-68 -260h15q76 148 146.5 211t172.5 63q34 0 68 -12v-195q-44 15 -95 15q-101 0 -190.5 -73t-161.5 -202l-86 -344q-12 -46 -12 -71q0 -29 16 -41
t58 -17v-53h-379v53q63 9 84.5 30t42.5 101z" />
    <glyph glyph-name="Sacute" unicode="&#x15a;" horiz-adv-x="1099" 
d="M768 1540h-92l158 293h258v-6zM51 119v293h55q123 -326 392 -326q117 0 200 68q84 69 84 182q0 67 -38.5 121.5t-122.5 111.5l-142 99q-205 138 -205 356q0 187 140 305.5t352 118.5q103 0 201 -26.5t172 -73.5v-287h-56q-85 276 -327 276q-124 0 -205.5 -70.5
t-81.5 -181.5q0 -69 33.5 -123.5t107.5 -105.5l150 -104q113 -77 166 -159t53 -192q0 -126 -67.5 -224.5t-179 -150t-245.5 -51.5q-249 0 -436 144z" />
    <glyph glyph-name="sacute" unicode="&#x15b;" horiz-adv-x="839" 
d="M530 1126h-94l160 293h258v-8zM20 80v201h56q37 -98 104.5 -149.5t159.5 -51.5q84 0 134 37t50 104q0 42 -22.5 74.5t-77.5 69.5l-111 75q-143 96 -143 246q0 131 102 219t258 88q145 0 275 -71v-203h-55q-25 81 -84.5 124.5t-149.5 43.5q-81 0 -135.5 -38.5
t-54.5 -100.5q0 -44 24 -77t84 -75l111 -72q77 -51 114 -109t37 -134q0 -129 -105 -217.5t-257 -88.5q-173 0 -314 105z" />
    <glyph glyph-name="Scircumflex" unicode="&#x15c;" horiz-adv-x="1099" 
d="M580 1540h-117l330 293h104l174 -293h-96l-156 137zM51 119v293h55q123 -326 392 -326q117 0 200 68q84 69 84 182q0 67 -38.5 121.5t-122.5 111.5l-142 99q-205 138 -205 356q0 187 140 305.5t352 118.5q103 0 201 -26.5t172 -73.5v-287h-56q-85 276 -327 276
q-124 0 -205.5 -70.5t-81.5 -181.5q0 -69 33.5 -123.5t107.5 -105.5l150 -104q113 -77 166 -159t53 -192q0 -126 -67.5 -224.5t-179 -150t-245.5 -51.5q-249 0 -436 144z" />
    <glyph glyph-name="scircumflex" unicode="&#x15d;" horiz-adv-x="839" 
d="M344 1126h-117l330 293h105l174 -293h-97l-155 136zM20 80v201h56q37 -98 104.5 -149.5t159.5 -51.5q84 0 134 37t50 104q0 42 -22.5 74.5t-77.5 69.5l-111 75q-143 96 -143 246q0 131 102 219t258 88q145 0 275 -71v-203h-55q-25 81 -84.5 124.5t-149.5 43.5
q-81 0 -135.5 -38.5t-54.5 -100.5q0 -44 24 -77t84 -75l111 -72q77 -51 114 -109t37 -134q0 -129 -105 -217.5t-257 -88.5q-173 0 -314 105z" />
    <glyph glyph-name="Scedilla" unicode="&#x15e;" horiz-adv-x="1099" 
d="M1139 1348v-287h-56q-85 276 -327 276q-124 0 -205.5 -70.5t-81.5 -181.5q0 -69 33.5 -123.5t107.5 -105.5l150 -104q113 -77 166 -159t53 -192q0 -181 -129 -296.5t-324 -127.5l-51 -81l2 -2q21 6 43 6q51 0 88 -38t37 -93q0 -80 -64.5 -133.5t-160.5 -53.5
q-131 0 -211 107l39 41q60 -60 141 -60q56 0 93.5 26t37.5 68q0 30 -24.5 49t-63.5 19q-26 0 -63 -16l-9 6l93 153q-227 9 -402 144v293h55q123 -326 392 -326q117 0 200 68q84 69 84 182q0 67 -38.5 121.5t-122.5 111.5l-142 99q-205 138 -205 356q0 187 140 305.5
t352 118.5q103 0 201 -26.5t172 -73.5z" />
    <glyph glyph-name="scedilla" unicode="&#x15f;" horiz-adv-x="839" 
d="M805 922v-203h-55q-25 81 -84.5 124.5t-149.5 43.5q-81 0 -135.5 -38.5t-54.5 -100.5q0 -44 24 -77t84 -75l111 -72q77 -51 114 -109t37 -134q0 -126 -94 -211q-99 -86 -237 -95l-52 -79l2 -2q21 6 43 6q51 0 88 -38t37 -93q0 -80 -64.5 -133.5t-160.5 -53.5
q-131 0 -211 107l39 41q60 -60 141 -60q56 0 93.5 26t37.5 68q0 30 -24.5 49t-63.5 19q-26 0 -63 -16l-8 6l94 155q-146 12 -273 103v201h56q37 -98 104.5 -149.5t159.5 -51.5q84 0 134 37t50 104q0 42 -22.5 74.5t-77.5 69.5l-111 75q-143 96 -143 246q0 131 102 219
t258 88q145 0 275 -71z" />
    <glyph glyph-name="Scaron" unicode="&#x160;" horiz-adv-x="1099" 
d="M1038 1827h117l-330 -291h-104l-174 291h98l156 -135zM51 119v293h55q123 -326 392 -326q117 0 200 68q84 69 84 182q0 67 -38.5 121.5t-122.5 111.5l-142 99q-205 138 -205 356q0 187 140 305.5t352 118.5q103 0 201 -26.5t172 -73.5v-287h-56q-85 276 -327 276
q-124 0 -205.5 -70.5t-81.5 -181.5q0 -69 33.5 -123.5t107.5 -105.5l150 -104q113 -77 166 -159t53 -192q0 -126 -67.5 -224.5t-179 -150t-245.5 -51.5q-249 0 -436 144z" />
    <glyph glyph-name="scaron" unicode="&#x161;" horiz-adv-x="843" 
d="M809 1413h117l-330 -293h-104l-175 293h97l155 -135zM20 80v201h56q37 -98 104.5 -149.5t159.5 -51.5q84 0 134 37t50 104q0 42 -22.5 74.5t-77.5 69.5l-111 75q-143 96 -143 246q0 131 102 219t258 88q145 0 275 -71v-203h-55q-25 81 -84.5 124.5t-149.5 43.5
q-81 0 -135.5 -38.5t-54.5 -100.5q0 -44 24 -77t84 -75l111 -72q77 -51 114 -109t37 -134q0 -129 -105 -217.5t-257 -88.5q-173 0 -314 105z" />
    <glyph glyph-name="uni0162" unicode="&#x162;" horiz-adv-x="1275" 
d="M242 1423h1183v-317h-55q-12 109 -92.5 161t-233.5 52h-94l-264 -1051q-16 -75 -16 -110q0 -49 23.5 -71.5t84.5 -33.5v-53h-229l-66 -104l2 -2q21 6 43 6q51 0 88 -38t37 -93q0 -80 -64.5 -133.5t-160.5 -53.5q-131 0 -211 107l39 41q60 -60 141 -60q56 0 93.5 26
t37.5 68q0 30 -24.5 49t-63.5 19q-26 0 -63 -16l-8 6l108 178h-196v53q97 15 133.5 55.5t66.5 159.5l262 1051h-131q-158 0 -233 -50.5t-82 -162.5h-55v317z" />
    <glyph glyph-name="uni0163" unicode="&#x163;" horiz-adv-x="714" 
d="M492 854l-154 -612q-6 -27 -6 -49q0 -95 104 -95q69 0 133 31l31 -57q-117 -97 -242 -97q-38 0 -65 9l-55 -88l2 -2q21 6 43 6q51 0 88 -38t37 -93q0 -80 -64.5 -133.5t-161.5 -53.5q-131 0 -211 107l39 41q60 -60 142 -60q56 0 93.5 26t37.5 68q0 30 -24.5 49t-63.5 19
q-27 0 -64 -16l-8 6l110 184q-90 56 -90 178q0 38 11 88l145 582h-178v88q45 3 78 7.5t61.5 14t47 17.5t37.5 27t29.5 34t25.5 47t24.5 57t26.5 73h131l-62 -250h258v-115h-286z" />
    <glyph glyph-name="Tcaron" unicode="&#x164;" horiz-adv-x="1275" 
d="M1159 1827h117l-330 -291h-104l-174 291h98l156 -135zM281 53q97 15 133.5 55.5t66.5 159.5l262 1051h-131q-158 0 -233 -50.5t-82 -162.5h-55v317h1183v-317h-55q-12 109 -92.5 161t-233.5 52h-94l-264 -1051q-16 -75 -16 -110q0 -49 23.5 -71.5t84.5 -33.5v-53h-497v53
z" />
    <glyph glyph-name="tcaron" unicode="&#x165;" horiz-adv-x="714" 
d="M938 1370q0 -33 -13.5 -60t-50.5 -77l-135 -172h-88l166 203q-41 1 -66.5 28.5t-25.5 69.5q0 48 31 80.5t80 32.5q42 0 72 -31t30 -74zM582 1219l-62 -250h258v-115h-286l-154 -612q-6 -27 -6 -49q0 -95 104 -95q69 0 133 31l31 -57q-117 -97 -242 -97q-99 0 -158 56
t-59 153q0 38 13 88l145 582h-178v88q45 3 78 7.5t61.5 14t47 17.5t37.5 27t29.5 34t25.5 47t24.5 57t26.5 73h131z" />
    <glyph glyph-name="Tbar" unicode="&#x166;" horiz-adv-x="1275" 
d="M242 1423h1183v-317h-55q-12 109 -92.5 161t-233.5 52h-94l-127 -508h260v-92h-284l-113 -451q-16 -75 -16 -110q0 -49 23.5 -71.5t84.5 -33.5v-53h-497v53q97 15 133.5 55.5t66.5 159.5l113 451h-264v92h286l127 508h-131q-158 0 -233 -50.5t-82 -162.5h-55v317z" />
    <glyph glyph-name="tbar" unicode="&#x167;" horiz-adv-x="733" 
d="M788 854h-286l-70 -279h250v-94h-274l-60 -239q-6 -27 -6 -49q0 -95 104 -95q70 0 134 31l30 -57q-117 -97 -241 -97q-99 0 -158 56t-59 153q0 41 12 88l53 209h-158v94h181l69 279h-178v88q45 3 78 7.5t61.5 14t47 17.5t37.5 27t29.5 34t25.5 47t24.5 57t26.5 73h131
l-62 -250h258v-115z" />
    <glyph glyph-name="Utilde" unicode="&#x168;" horiz-adv-x="1564" 
d="M1065 1614l-27 24q-45 37 -88 37q-86 0 -123 -116h-82q24 120 83 182.5t139 62.5q77 0 153 -61l31 -27q40 -35 86 -35q44 0 73 28.5t48 88.5h84q-24 -122 -83 -185t-140 -63q-84 0 -154 64zM219 426q0 66 23 170l143 575q18 71 18 107q0 41 -20 60.5t-74 31.5v53h465v-53
q-83 -18 -119.5 -56.5t-62.5 -139.5l-148 -592q-18 -80 -18 -144q0 -147 86.5 -227t241.5 -80q184 0 312 114t183 330l148 592q18 76 18 115q0 36 -18.5 56t-63.5 32v53h375v-53q-87 -15 -129 -57q-36 -39 -63 -146l-152 -606q-70 -285 -233.5 -435.5t-413.5 -150.5
q-223 0 -360.5 123t-137.5 328z" />
    <glyph glyph-name="utilde" unicode="&#x169;" horiz-adv-x="1120" 
d="M705 1198l-27 25q-45 37 -88 37q-84 0 -123 -117h-82q24 120 82.5 183t138.5 63q77 0 154 -62l31 -27q39 -34 86 -34q44 0 73 27.5t49 88.5h82q-24 -122 -82.5 -184.5t-140.5 -62.5q-84 0 -153 63zM119 246q0 46 14 106l94 377q13 47 13 70q0 29 -17.5 44t-56.5 21v54
l303 57h10l-160 -643q-10 -52 -10 -80q0 -63 33.5 -99t93.5 -36q134 0 269 194l104 416q12 43 12 70q0 30 -17.5 45.5t-58.5 21.5v54l308 57h10l-189 -752q-14 -60 -14 -78q0 -23 13 -31.5t49 -13.5v-53l-287 -57h-12l36 149h-12q-120 -164 -287 -164q-104 0 -172.5 75.5
t-68.5 195.5z" />
    <glyph glyph-name="Umacron" unicode="&#x16a;" horiz-adv-x="1564" 
d="M1403 1614h-608v102h608v-102zM219 426q0 66 23 170l143 575q18 71 18 107q0 41 -20 60.5t-74 31.5v53h465v-53q-83 -18 -119.5 -56.5t-62.5 -139.5l-148 -592q-18 -80 -18 -144q0 -147 86.5 -227t241.5 -80q184 0 312 114t183 330l148 592q18 76 18 115q0 36 -18.5 56
t-63.5 32v53h375v-53q-87 -15 -129 -57q-36 -39 -63 -146l-152 -606q-70 -285 -233.5 -435.5t-413.5 -150.5q-223 0 -360.5 123t-137.5 328z" />
    <glyph glyph-name="umacron" unicode="&#x16b;" horiz-adv-x="1120" 
d="M1036 1194h-606v102h606v-102zM119 246q0 46 14 106l94 377q13 47 13 70q0 29 -17.5 44t-56.5 21v54l303 57h10l-160 -643q-10 -52 -10 -80q0 -63 33.5 -99t93.5 -36q134 0 269 194l104 416q12 43 12 70q0 30 -17.5 45.5t-58.5 21.5v54l308 57h10l-189 -752
q-14 -60 -14 -78q0 -23 13 -31.5t49 -13.5v-53l-287 -57h-12l36 149h-12q-120 -164 -287 -164q-104 0 -172.5 75.5t-68.5 195.5z" />
    <glyph glyph-name="Ubreve" unicode="&#x16c;" horiz-adv-x="1564" 
d="M868 1763q0 33 6 70h84q-4 -32 -4 -35q0 -57 36.5 -90t99.5 -33q74 0 127.5 41.5t80.5 116.5h84q-30 -136 -110.5 -214.5t-196.5 -78.5q-96 0 -151.5 60t-55.5 163zM219 426q0 66 23 170l143 575q18 71 18 107q0 41 -20 60.5t-74 31.5v53h465v-53q-83 -18 -119.5 -56.5
t-62.5 -139.5l-148 -592q-18 -80 -18 -144q0 -147 86.5 -227t241.5 -80q184 0 312 114t183 330l148 592q18 76 18 115q0 36 -18.5 56t-63.5 32v53h375v-53q-87 -15 -129 -57q-36 -39 -63 -146l-152 -606q-70 -285 -233.5 -435.5t-413.5 -150.5q-223 0 -360.5 123t-137.5 328
z" />
    <glyph glyph-name="ubreve" unicode="&#x16d;" horiz-adv-x="1120" 
d="M502 1350q0 32 6 69h84q-4 -32 -4 -35q0 -57 36 -90.5t99 -33.5q146 0 209 159h84q-30 -136 -110.5 -214.5t-196.5 -78.5q-96 0 -151.5 60.5t-55.5 163.5zM119 246q0 46 14 106l94 377q13 47 13 70q0 29 -17.5 44t-56.5 21v54l303 57h10l-160 -643q-10 -52 -10 -80
q0 -63 33.5 -99t93.5 -36q134 0 269 194l104 416q12 43 12 70q0 30 -17.5 45.5t-58.5 21.5v54l308 57h10l-189 -752q-14 -60 -14 -78q0 -23 13 -31.5t49 -13.5v-53l-287 -57h-12l36 149h-12q-120 -164 -287 -164q-104 0 -172.5 75.5t-68.5 195.5z" />
    <glyph glyph-name="Uring" unicode="&#x16e;" horiz-adv-x="1564" 
d="M899 1700q0 80 57.5 137t139.5 57t141 -57.5t59 -136.5q0 -82 -57.5 -138.5t-142.5 -56.5q-82 0 -139.5 56.5t-57.5 138.5zM1202 1700q0 47 -29.5 77.5t-76.5 30.5q-45 0 -75 -30.5t-30 -77.5q0 -49 30 -80t75 -31q47 0 76.5 31t29.5 80zM219 426q0 66 23 170l143 575
q18 71 18 107q0 41 -20 60.5t-74 31.5v53h465v-53q-83 -18 -119.5 -56.5t-62.5 -139.5l-148 -592q-18 -80 -18 -144q0 -147 86.5 -227t241.5 -80q184 0 312 114t183 330l148 592q18 76 18 115q0 36 -18.5 56t-63.5 32v53h375v-53q-87 -15 -129 -57q-36 -39 -63 -146
l-152 -606q-70 -285 -233.5 -435.5t-413.5 -150.5q-223 0 -360.5 123t-137.5 328z" />
    <glyph glyph-name="uring" unicode="&#x16f;" horiz-adv-x="1120" 
d="M530 1280q0 80 57.5 137.5t141.5 57.5q82 0 140.5 -57.5t58.5 -137.5q0 -81 -58.5 -138t-140.5 -57q-84 0 -141.5 56.5t-57.5 138.5zM836 1280q0 47 -31 78t-76 31q-47 0 -76.5 -30.5t-29.5 -78.5q0 -49 29.5 -79t76.5 -30q45 0 76 30.5t31 78.5zM119 246q0 46 14 106
l94 377q13 47 13 70q0 29 -17.5 44t-56.5 21v54l303 57h10l-160 -643q-10 -52 -10 -80q0 -63 33.5 -99t93.5 -36q134 0 269 194l104 416q12 43 12 70q0 30 -17.5 45.5t-58.5 21.5v54l308 57h10l-189 -752q-14 -60 -14 -78q0 -23 13 -31.5t49 -13.5v-53l-287 -57h-12l36 149
h-12q-120 -164 -287 -164q-104 0 -172.5 75.5t-68.5 195.5z" />
    <glyph glyph-name="Uhungarumlaut" unicode="&#x170;" horiz-adv-x="1564" 
d="M913 1540h-77l143 293h217v-6zM1219 1540h-80l145 293h219v-6zM219 426q0 66 23 170l143 575q18 71 18 107q0 41 -20 60.5t-74 31.5v53h465v-53q-83 -18 -119.5 -56.5t-62.5 -139.5l-148 -592q-18 -80 -18 -144q0 -147 86.5 -227t241.5 -80q184 0 312 114t183 330
l148 592q18 76 18 115q0 36 -18.5 56t-63.5 32v53h375v-53q-87 -15 -129 -57q-36 -39 -63 -146l-152 -606q-70 -285 -233.5 -435.5t-413.5 -150.5q-223 0 -360.5 123t-137.5 328z" />
    <glyph glyph-name="uhungarumlaut" unicode="&#x171;" horiz-adv-x="1120" 
d="M547 1126h-78l145 293h217v-8zM852 1126h-80l146 293h219v-8zM119 246q0 46 14 106l94 377q13 47 13 70q0 29 -17.5 44t-56.5 21v54l303 57h10l-160 -643q-10 -52 -10 -80q0 -63 33.5 -99t93.5 -36q134 0 269 194l104 416q12 43 12 70q0 30 -17.5 45.5t-58.5 21.5v54
l308 57h10l-189 -752q-14 -60 -14 -78q0 -23 13 -31.5t49 -13.5v-53l-287 -57h-12l36 149h-12q-120 -164 -287 -164q-104 0 -172.5 75.5t-68.5 195.5z" />
    <glyph glyph-name="Uogonek" unicode="&#x172;" horiz-adv-x="1564" 
d="M461 -246q0 133 178 221v7q-194 20 -307 138.5t-113 305.5q0 66 23 170l141 569q20 79 20 115q0 39 -20.5 58.5t-73.5 31.5v53h465v-53q-86 -17 -122.5 -58.5t-61.5 -146.5l-146 -581q-18 -80 -18 -146q0 -147 86.5 -227t241.5 -80q184 0 312 114t183 330l148 592
q20 79 20 113q0 36 -19.5 57t-64.5 33v53h375v-53q-88 -15 -129 -59q-35 -38 -63 -146l-152 -604q-60 -236 -183 -380.5t-302 -188.5q-297 -70 -297 -215q0 -44 27 -71.5t73 -27.5q54 0 104 35l33 -43q-74 -86 -182 -86q-79 0 -127.5 48t-48.5 122z" />
    <glyph glyph-name="uogonek" unicode="&#x173;" horiz-adv-x="1120" 
d="M874 223q-14 -60 -14 -78q0 -23 13 -31.5t51 -13.5v-53l-121 -33q-138 -35 -213.5 -100t-75.5 -135q0 -45 27 -73t73 -28q55 0 105 35l33 -43q-71 -86 -183 -86q-79 0 -127.5 48t-48.5 122q0 82 62.5 146.5t171.5 107.5l32 131h-12q-62 -85 -131.5 -124.5t-155.5 -39.5
q-104 0 -172.5 75.5t-68.5 195.5q0 46 14 106l94 377q13 47 13 70q0 29 -17.5 44t-56.5 21v54l303 57h10l-160 -643q-10 -52 -10 -80q0 -63 33.5 -99t93.5 -36q133 0 271 194l102 416q12 43 12 70q0 30 -17.5 45.5t-58.5 21.5v54l310 57h8z" />
    <glyph glyph-name="Wcircumflex" unicode="&#x174;" horiz-adv-x="2011" 
d="M1057 1540h-117l330 293h104l174 -293h-96l-156 137zM360 1165q-6 94 -27 134.5t-81 70.5v53h465v-53q-97 -17 -131 -63t-29 -140l45 -843h12l521 884l-13 215h213l58 -1089h12l455 821q36 67 49.5 98t13.5 54t-15.5 37t-52.5 26v53h367v-53q-88 -27 -133 -72
q-44 -41 -100 -141l-641 -1157h-131l-56 1016h-12l-598 -1016h-131z" />
    <glyph glyph-name="wcircumflex" unicode="&#x175;" horiz-adv-x="1533" 
d="M719 1126h-117l330 293h104l174 -293h-96l-156 136zM473 289l326 524l-13 156h185l61 -684h15l282 473q43 76 43 108q0 18 -10.5 28t-36.5 21v54h299v-54q-64 -17 -99.5 -49.5t-84.5 -113.5l-451 -752h-98l-60 670h-12l-418 -670h-96l-69 756q-5 57 -31.5 84t-91.5 34v52
l290 57l5 -49l18 -240l35 -405h12z" />
    <glyph glyph-name="Ycircumflex" unicode="&#x176;" horiz-adv-x="1406" 
d="M1159 1540l-155 137l-240 -137h-117l330 293h104l174 -293h-96zM1237 1423h383v-53q-82 -16 -139 -56.5t-127 -123.5l-520 -604l-91 -359q-12 -53 -12 -84q0 -41 20 -60t70 -30v-53h-465v53q84 10 121 45.5t60 128.5l94 373l-215 576q-34 93 -70 137t-96 57v53h477v-53
q-117 -20 -117 -98q0 -40 27 -113l158 -434h12l395 461q82 94 82 141q0 34 -47 43v53z" />
    <glyph glyph-name="ycircumflex" unicode="&#x177;" horiz-adv-x="1030" 
d="M856 1126l-156 136l-239 -136h-117l330 293h104l174 -293h-96zM823 969h307v-54q-66 -20 -102 -50t-78 -99l-544 -909q-99 -164 -189 -232q-81 -63 -192 -63q-78 0 -142 37v168q72 -29 154 -29q96 0 169 45t138 156l37 61l-137 743q-10 66 -38.5 93t-96.5 38v52l282 57
l4 -20l37 -220l84 -491h14l308 518q39 62 39 94q0 18 -12 29t-42 22v54z" />
    <glyph glyph-name="Ydieresis" unicode="&#x178;" horiz-adv-x="1406" 
d="M674 1677q0 60 42 102t103 42q48 0 79.5 -32t31.5 -81q0 -61 -41 -103t-101 -42q-51 0 -82.5 32t-31.5 82zM1059 1677q0 60 41.5 102t101.5 42q48 0 80.5 -32t32.5 -81q0 -61 -42 -103t-102 -42q-49 0 -80.5 32t-31.5 82zM1237 1423h383v-53q-82 -16 -139 -56.5
t-127 -123.5l-520 -604l-91 -359q-12 -53 -12 -84q0 -41 20 -60t70 -30v-53h-465v53q84 10 121 45.5t60 128.5l94 373l-215 576q-34 93 -70 137t-96 57v53h477v-53q-117 -20 -117 -98q0 -40 27 -113l158 -434h12l395 461q82 94 82 141q0 34 -47 43v53z" />
    <glyph glyph-name="Zacute" unicode="&#x179;" horiz-adv-x="1234" 
d="M846 1540h-92l157 293h258v-6zM-20 0v96l1103 1211v8h-448q-130 0 -197 -55t-86 -179h-55v342h1069v-96l-1104 -1210v-8h438q143 0 213 58.5t93 205.5h55v-373h-1081z" />
    <glyph glyph-name="zacute" unicode="&#x17a;" horiz-adv-x="946" 
d="M590 1126h-94l159 293h258v-8zM238 102v13l714 766v88h-759v-248h53q26 84 73 114.5t146 30.5h217v-12l-713 -766v-88h807v281h-53q-37 -102 -88 -140.5t-150 -38.5h-247z" />
    <glyph glyph-name="Zdotaccent" unicode="&#x17b;" horiz-adv-x="1234" 
d="M754 1679q0 63 42.5 105.5t104.5 42.5q51 0 84 -33t33 -84q0 -63 -43 -106t-105 -43q-51 0 -83.5 33.5t-32.5 84.5zM-20 0v96l1103 1211v8h-448q-130 0 -197 -55t-86 -179h-55v342h1069v-96l-1104 -1210v-8h438q143 0 213 58.5t93 205.5h55v-373h-1081z" />
    <glyph glyph-name="zdotaccent" unicode="&#x17c;" horiz-adv-x="946" 
d="M512 1268q0 61 44 104t106 43q51 0 83.5 -33t32.5 -84q0 -63 -42.5 -106t-104.5 -43q-51 0 -85 34t-34 85zM238 102v13l714 766v88h-759v-248h53q26 84 73 114.5t146 30.5h217v-12l-713 -766v-88h807v281h-53q-37 -102 -88 -140.5t-150 -38.5h-247z" />
    <glyph glyph-name="Zcaron" unicode="&#x17d;" horiz-adv-x="1234" 
d="M1114 1827h117l-330 -291h-104l-174 291h98l156 -135zM-20 0v96l1103 1211v8h-448q-130 0 -197 -55t-86 -179h-55v342h1069v-96l-1104 -1210v-8h438q143 0 213 58.5t93 205.5h55v-373h-1081z" />
    <glyph glyph-name="zcaron" unicode="&#x17e;" horiz-adv-x="946" 
d="M866 1413h117l-330 -293h-104l-174 293h98l154 -135zM238 102v13l714 766v88h-759v-248h53q26 84 73 114.5t146 30.5h217v-12l-713 -766v-88h807v281h-53q-37 -102 -88 -140.5t-150 -38.5h-247z" />
    <glyph glyph-name="uni01E2" unicode="&#x1e2;" horiz-adv-x="1875" 
d="M1239 1716h608v-102h-608v102zM1061 1423h876v-307h-55q-17 110 -82 154.5t-217 44.5h-287l-135 -541h119q111 0 165 36t58 114h58v-408h-58q-4 79 -59 114.5t-166 35.5h-143l-140 -557h365q137 0 208 58t83 191h55v-358h-1071v53q93 22 129 60t61 143l47 190h-446
l-150 -190q-46 -59 -66 -91.5t-20 -55.5q0 -38 58 -56v-53h-377v53q80 26 141.5 74.5t134.5 142.5zM512 555h387l174 696h-12z" />
    <glyph glyph-name="uni01E3" unicode="&#x1e3;" horiz-adv-x="1562" 
d="M604 1296h606v-102h-606v102zM1493 672q0 -49 -8 -80l-10 -45h-644q-6 -37 -6 -78q0 -159 81.5 -247.5t219.5 -88.5q152 0 271 96l47 -47q-74 -98 -176.5 -152.5t-214.5 -54.5q-129 0 -231 67t-146 183h-12q-182 -250 -406 -250q-100 0 -163.5 62.5t-63.5 159.5
q0 112 85.5 180t256.5 106l260 58l20 86q11 49 11 69q0 73 -50.5 115.5t-136.5 42.5q-146 0 -287 -96l-36 59q198 176 395 176q87 0 154 -36t104 -103h12q139 139 336 139q154 0 246 -92q92 -89 92 -229zM1307 643q6 35 6 64q0 87 -45 135.5t-129 48.5q-98 0 -174.5 -68
t-112.5 -180h455zM610 449l-159 -46q-124 -34 -178 -72t-54 -102q0 -54 30 -85t81 -31q123 0 231 135z" />
    <glyph glyph-name="AEacute" unicode="&#x1fc;" horiz-adv-x="1875" 
d="M1821 1833v-6l-324 -287h-92l158 293h258zM1061 1423h876v-307h-55q-17 110 -82 154.5t-217 44.5h-287l-135 -541h119q111 0 165 36t58 114h58v-408h-58q-4 79 -59 114.5t-166 35.5h-143l-140 -557h365q137 0 208 58t83 191h55v-358h-1071v53q93 22 129 60t61 143l47 190
h-446l-150 -190q-46 -59 -66 -91.5t-20 -55.5q0 -38 58 -56v-53h-377v53q80 26 141.5 74.5t134.5 142.5zM512 555h387l174 696h-12z" />
    <glyph glyph-name="aeacute" unicode="&#x1fd;" horiz-adv-x="1562" 
d="M1184 1419v-8l-324 -285h-94l160 293h258zM1493 672q0 -49 -8 -80l-10 -45h-644q-6 -37 -6 -78q0 -159 81.5 -247.5t219.5 -88.5q152 0 271 96l47 -47q-74 -98 -176.5 -152.5t-214.5 -54.5q-129 0 -231 67t-146 183h-12q-182 -250 -406 -250q-100 0 -163.5 62.5
t-63.5 159.5q0 112 85.5 180t256.5 106l260 58l20 86q11 49 11 69q0 73 -50.5 115.5t-136.5 42.5q-146 0 -287 -96l-36 59q198 176 395 176q87 0 154 -36t104 -103h12q139 139 336 139q154 0 246 -92q92 -89 92 -229zM1307 643q6 35 6 64q0 87 -45 135.5t-129 48.5
q-98 0 -174.5 -68t-112.5 -180h455zM610 449l-159 -46q-124 -34 -178 -72t-54 -102q0 -54 30 -85t81 -31q123 0 231 135z" />
    <glyph glyph-name="Oslashacute" unicode="&#x1fe;" horiz-adv-x="1619" 
d="M1327 1833v-6l-323 -287h-93l158 293h258zM1679 1423l-211 -202q121 -160 121 -385q3 -165 -60.5 -324t-172 -278.5t-263.5 -191t-325 -67.5q-262 0 -432 156l-207 -199l-68 68l211 203q-122 155 -122 385q-2 131 37.5 260.5t115.5 237.5t176.5 191t229 128.5t264.5 42.5
q260 0 430 -156l209 201zM414 340l866 834q-104 159 -313 159q-100 3 -193.5 -42t-164.5 -123.5t-124.5 -178t-80.5 -210.5t-25 -216q0 -123 35 -223zM1325 1081l-866 -831q105 -160 313 -160q100 -3 193.5 41.5t164.5 123t124.5 178t80.5 210.5t25 217q0 121 -35 221z" />
    <glyph glyph-name="oslashacute" unicode="&#x1ff;" horiz-adv-x="1142" 
d="M1018 1419v-8l-324 -285h-94l160 293h258zM1079 969l-104 -113q92 -112 92 -272q2 -120 -42.5 -233.5t-121.5 -197t-184.5 -132.5t-224.5 -46q-155 0 -261 80l-110 -118l-62 59l111 119q-92 109 -92 270q-3 161 74 302.5t211.5 225t289.5 80.5q146 0 256 -78l105 113z
M297 252l512 553q-54 78 -160 78q-106 4 -192 -79t-129 -205t-41 -247q0 -48 10 -100zM848 719l-512 -553q53 -80 162 -80q80 -3 150 45t115.5 125.5t71.5 172.5t25 187q0 56 -12 103z" />
    <glyph glyph-name="uni0218" unicode="&#x218;" horiz-adv-x="1099" 
d="M1139 1348v-287h-56q-85 276 -327 276q-124 0 -205.5 -70.5t-81.5 -181.5q0 -69 33.5 -123.5t107.5 -105.5l150 -104q113 -77 166 -159t53 -192q0 -126 -67.5 -224.5t-179 -150t-245.5 -51.5q-249 0 -436 144v293h55q123 -326 392 -326q117 0 200 68q84 69 84 182
q0 67 -38.5 121.5t-122.5 111.5l-142 99q-205 138 -205 356q0 187 140 305.5t352 118.5q103 0 201 -26.5t172 -73.5zM565 -201q0 -33 -15 -64t-50 -79l-144 -182h-90l176 215q-43 2 -71.5 30t-28.5 72q0 50 33.5 84.5t83.5 34.5q44 0 75 -32t31 -79z" />
    <glyph glyph-name="uni0219" unicode="&#x219;" horiz-adv-x="839" 
d="M805 922v-203h-55q-25 81 -84.5 124.5t-149.5 43.5q-81 0 -135.5 -38.5t-54.5 -100.5q0 -44 24 -77t84 -75l111 -72q77 -51 114 -109t37 -134q0 -129 -105 -217.5t-257 -88.5q-173 0 -314 105v201h56q37 -98 104.5 -149.5t159.5 -51.5q84 0 134 37t50 104
q0 42 -22.5 74.5t-77.5 69.5l-111 75q-143 96 -143 246q0 131 102 219t258 88q145 0 275 -71zM406 -201q0 -33 -15 -63.5t-51 -79.5l-143 -182h-91l177 215q-43 2 -72 30t-29 72q0 50 33.5 84.5t83.5 34.5q45 0 76 -32t31 -79z" />
    <glyph glyph-name="uni021A" unicode="&#x21a;" horiz-adv-x="1275" 
d="M242 1423h1183v-317h-55q-12 109 -92.5 161t-233.5 52h-94l-264 -1051q-16 -75 -16 -110q0 -49 23.5 -71.5t84.5 -33.5v-53h-497v53q97 15 133.5 55.5t66.5 159.5l262 1051h-131q-158 0 -233 -50.5t-82 -162.5h-55v317zM575 -201q0 -33 -15 -64t-50 -79l-143 -182h-91
l177 215q-43 2 -72 30t-29 72q0 50 33.5 84.5t83.5 34.5q44 0 75 -32t31 -79z" />
    <glyph glyph-name="uni021B" unicode="&#x21b;" horiz-adv-x="714" 
d="M492 854l-154 -612q-6 -27 -6 -49q0 -95 104 -95q69 0 133 31l31 -57q-117 -97 -242 -97q-99 0 -158 56t-59 153q0 38 13 88l145 582h-178v88q45 3 78 7.5t61.5 14t47 17.5t37.5 27t29.5 34t25.5 47t24.5 57t26.5 73h131l-62 -250h258v-115h-286zM328 -201
q0 -33 -15 -63.5t-51 -79.5l-143 -182h-90l176 215q-43 2 -72 30t-29 72q0 50 33.5 84.5t83.5 34.5q45 0 76 -32t31 -79z" />
    <glyph glyph-name="uni0226" unicode="&#x226;" horiz-adv-x="1402" 
d="M852 1679q0 63 42.5 105.5t104.5 42.5q51 0 84 -33t33 -84q0 -63 -42.5 -106t-104.5 -43q-51 0 -84 33.5t-33 84.5zM1171 258q18 -98 38.5 -137.5t74.5 -67.5v-53h-469v53q89 24 123.5 57t34.5 89q0 1 -4 51l-31 196h-555l-121 -190q-57 -92 -57 -131q0 -45 76 -72v-53
h-385v53q82 29 133 74t108 137l731 1159h119zM821 1141l-370 -586h471l-88 586h-13z" />
    <glyph glyph-name="uni0227" unicode="&#x227;" horiz-adv-x="1155" 
d="M600 1268q0 61 44 104t106 43q51 0 83.5 -33t32.5 -84q0 -63 -42.5 -106t-104.5 -43q-51 0 -85 34t-34 85zM74 373q-2 112 41.5 225t117.5 201t179 142.5t217 51.5q84 0 156 -32t120 -89h13l120 97h62l-187 -750q-14 -55 -14 -74q0 -22 13.5 -31t50.5 -14v-53l-287 -57
h-12l36 149h-12q-120 -164 -293 -164q-141 0 -231 111.5t-90 286.5zM745 311l74 301q12 47 12 88q0 88 -50 140.5t-136 52.5q-108 0 -196.5 -71.5t-136.5 -184t-48 -236.5q0 -131 52.5 -206.5t144.5 -75.5q84 0 150 49.5t134 142.5z" />
    <glyph glyph-name="uni0232" unicode="&#x232;" horiz-adv-x="1406" 
d="M696 1716h609v-102h-609v102zM1237 1423h383v-53q-82 -16 -139 -56.5t-127 -123.5l-520 -604l-91 -359q-12 -53 -12 -84q0 -41 20 -60t70 -30v-53h-465v53q84 10 121 45.5t60 128.5l94 373l-215 576q-34 93 -70 137t-96 57v53h477v-53q-117 -20 -117 -98q0 -40 27 -113
l158 -434h12l395 461q82 94 82 141q0 34 -47 43v53z" />
    <glyph glyph-name="uni0233" unicode="&#x233;" horiz-adv-x="1030" 
d="M391 1296h606v-102h-606v102zM823 969h307v-54q-66 -20 -102 -50t-78 -99l-544 -909q-99 -164 -189 -232q-81 -63 -192 -63q-78 0 -142 37v168q72 -29 154 -29q96 0 169 45t138 156l37 61l-137 743q-10 66 -38.5 93t-96.5 38v52l282 57l4 -20l37 -220l84 -491h14l308 518
q39 62 39 94q0 18 -12 29t-42 22v54z" />
    <glyph glyph-name="uni0237" unicode="&#x237;" horiz-adv-x="530" 
d="M-336 -387l33 70q53 -21 117 -21q83 0 134 47.5t77 151.5l217 872q10 42 10 70q0 30 -16.5 44.5t-55.5 20.5v54l303 57h13l-277 -1104q-79 -313 -373 -313q-102 0 -182 51z" />
    <glyph glyph-name="circumflex" unicode="&#x2c6;" horiz-adv-x="718" 
d="M330 1126h-117l330 293h104l174 -293h-96l-156 136z" />
    <glyph glyph-name="caron" unicode="&#x2c7;" horiz-adv-x="718" 
d="M770 1419h117l-330 -293h-104l-174 293h98l155 -137z" />
    <glyph glyph-name="breve" unicode="&#x2d8;" horiz-adv-x="630" 
d="M281 1350q0 32 6 69h82q-2 -8 -2 -33q0 -57 36 -91.5t97 -34.5q152 0 209 159h86q-29 -136 -111.5 -214.5t-198.5 -78.5q-94 0 -149 60.5t-55 163.5z" />
    <glyph glyph-name="dotaccent" unicode="&#x2d9;" horiz-adv-x="337" 
d="M231 1268q0 63 43.5 105t106.5 42q50 0 82.5 -33t32.5 -84q0 -63 -43 -106t-105 -43q-51 0 -84 34t-33 85z" />
    <glyph glyph-name="ring" unicode="&#x2da;" horiz-adv-x="499" 
d="M244 1280q0 80 57.5 137.5t138.5 57.5q82 0 141.5 -58t59.5 -137q0 -82 -58 -138.5t-143 -56.5q-82 0 -139 56.5t-57 138.5zM547 1280q0 47 -30 78t-77 31q-44 0 -74 -31t-30 -78q0 -49 29.5 -79t74.5 -30q48 0 77.5 30t29.5 79z" />
    <glyph glyph-name="ogonek" unicode="&#x2db;" horiz-adv-x="579" 
d="M-70 -246q0 94 86.5 162.5t239.5 108.5l55 -25q-136 -55 -198 -108t-62 -115q0 -44 27.5 -71.5t73.5 -27.5q55 0 102 35l35 -43q-74 -86 -185 -86q-78 0 -126 47.5t-48 122.5z" />
    <glyph glyph-name="tilde" unicode="&#x2dc;" horiz-adv-x="712" 
d="M524 1198l-26 25q-45 37 -88 37q-86 0 -123 -117h-82q24 120 82.5 183t138.5 63q77 0 154 -62l30 -27q39 -34 86 -34q44 0 73 28t48 88h84q-24 -122 -82.5 -184.5t-140.5 -62.5q-85 0 -154 63z" />
    <glyph glyph-name="hungarumlaut" unicode="&#x2dd;" horiz-adv-x="716" 
d="M297 1126h-78l143 293h218v-8zM602 1126h-80l146 293h219v-8z" />
    <glyph glyph-name="uni0394" unicode="&#x394;" horiz-adv-x="1226" 
d="M1094 0h-1157v90l843 1333h133l181 -1333v-90zM88 121v-12h799v8l-139 1030h-13z" />
    <glyph glyph-name="Pi" unicode="&#x3a0;" horiz-adv-x="1482" 
d="M1593 1370q-88 -15 -122 -56.5t-64 -162.5l-225 -907q-15 -55 -15 -94q0 -41 21.5 -63.5t71.5 -33.5v-53h-463v53q79 13 116 52t60 133l268 1077h-588l-266 -1059q-16 -75 -16 -106q0 -44 21 -65t71 -32v-53h-463v53q86 15 120 54.5t62 154.5l221 891q23 90 23 123
q0 41 -20.5 61.5t-71.5 32.5v53h1259v-53z" />
    <glyph glyph-name="uni03A9" unicode="&#x3a9;" horiz-adv-x="1570" 
d="M72 0v182h448l6 27q-160 51 -262 186q-98 134 -98 307q-2 109 35 219.5t108 205.5t165 168.5t214 114.5t246 38q264 0 432 -161t168 -413q0 -234 -165.5 -424.5t-426.5 -248.5l-4 -19h416v-182h-578l62 238q204 49 335.5 240.5t131.5 426.5q0 198 -98.5 313t-270.5 115
q-92 3 -178.5 -37t-152 -109.5t-114.5 -157t-74 -182.5t-24 -183q0 -160 68 -275t186 -153l-57 -236h-518z" />
    <glyph glyph-name="uni03BC" unicode="&#x3bc;" horiz-adv-x="1142" 
d="M256 731q12 59 12 70q0 29 -16 43t-57 20v54l301 57h12l-162 -649q-8 -31 -8 -72q0 -66 32.5 -101.5t92.5 -35.5q132 0 270 194l107 424q10 45 10 62q0 30 -17.5 45.5t-58.5 21.5v54l307 57h11l-189 -752q-14 -49 -14 -78q0 -23 12.5 -31.5t48.5 -13.5v-53l-286 -57h-13
l37 149h-12q-66 -89 -132.5 -126.5t-150.5 -37.5q-70 0 -117 41h-8l-55 -219q-16 -75 -16 -94q0 -29 16 -41t59 -18v-54h-303z" />
    <glyph glyph-name="pi" unicode="&#x3c0;" horiz-adv-x="1232" 
d="M985 854l-154 -612q-6 -27 -6 -49q0 -48 27.5 -71.5t73.5 -23.5q70 0 137 31l31 -57q-49 -44 -113 -70.5t-131 -26.5q-97 0 -156 57.5t-59 153.5q0 39 12 86l146 582h-299l-213 -854h-193l213 854h-154v115h1094v-115h-256z" />
    <glyph glyph-name="uni0E3F" unicode="&#xe3f;" horiz-adv-x="1320" 
d="M891 719q137 -25 220 -106t83 -191q0 -128 -78.5 -225.5t-210 -147t-293.5 -49.5h-26l-45 -184h-99l45 184h-462v53q86 15 117 50t59 143l223 905q18 83 18 109q0 35 -19 53t-63 26v54h476l47 188h98l-47 -192q165 -17 255.5 -96t90.5 -199q0 -138 -105.5 -232.5
t-283.5 -130.5v-12zM809 1288h-158l-127 -506h160zM905 1280l-123 -492q138 19 215.5 96t77.5 199q0 156 -170 197zM500 682l-144 -580h158l145 580h-159zM612 104q172 12 272.5 103.5t100.5 238.5q0 195 -229 230z" />
    <glyph glyph-name="Wgrave" unicode="&#x1e80;" horiz-adv-x="2011" 
d="M1284 1833l47 -293h-80l-192 287v6h225zM360 1165q-6 94 -27 134.5t-81 70.5v53h465v-53q-97 -17 -131 -63t-29 -140l45 -843h12l521 884l-13 215h213l58 -1089h12l455 821q36 67 49.5 98t13.5 54t-15.5 37t-52.5 26v53h367v-53q-88 -27 -133 -72q-44 -41 -100 -141
l-641 -1157h-131l-56 1016h-12l-598 -1016h-131z" />
    <glyph glyph-name="wgrave" unicode="&#x1e81;" horiz-adv-x="1533" 
d="M954 1419l47 -293h-79l-193 285v8h225zM473 289l326 524l-13 156h185l61 -684h15l282 473q43 76 43 108q0 18 -10.5 28t-36.5 21v54h299v-54q-64 -17 -99.5 -49.5t-84.5 -113.5l-451 -752h-98l-60 670h-12l-418 -670h-96l-69 756q-5 57 -31.5 84t-91.5 34v52l290 57
l5 -49l18 -240l35 -405h12z" />
    <glyph glyph-name="Wacute" unicode="&#x1e82;" horiz-adv-x="2011" 
d="M1245 1540h-92l158 293h258v-6zM360 1165q-6 94 -27 134.5t-81 70.5v53h465v-53q-97 -17 -131 -63t-29 -140l45 -843h12l521 884l-13 215h213l58 -1089h12l455 821q36 67 49.5 98t13.5 54t-15.5 37t-52.5 26v53h367v-53q-88 -27 -133 -72q-44 -41 -100 -141l-641 -1157
h-131l-56 1016h-12l-598 -1016h-131z" />
    <glyph glyph-name="wacute" unicode="&#x1e83;" horiz-adv-x="1533" 
d="M905 1126h-94l160 293h258v-8zM473 289l326 524l-13 156h185l61 -684h15l282 473q43 76 43 108q0 18 -10.5 28t-36.5 21v54h299v-54q-64 -17 -99.5 -49.5t-84.5 -113.5l-451 -752h-98l-60 670h-12l-418 -670h-96l-69 756q-5 57 -31.5 84t-91.5 34v52l290 57l5 -49
l18 -240l35 -405h12z" />
    <glyph glyph-name="Wdieresis" unicode="&#x1e84;" horiz-adv-x="2011" 
d="M965 1677q0 60 42 102t103 42q48 0 79.5 -32t31.5 -81q0 -61 -41 -103t-101 -42q-51 0 -82.5 32t-31.5 82zM1350 1677q0 60 41.5 102t101.5 42q48 0 80.5 -32t32.5 -81q0 -61 -42 -103t-102 -42q-49 0 -80.5 32t-31.5 82zM360 1165q-6 94 -27 134.5t-81 70.5v53h465v-53
q-97 -17 -131 -63t-29 -140l45 -843h12l521 884l-13 215h213l58 -1089h12l455 821q36 67 49.5 98t13.5 54t-15.5 37t-52.5 26v53h367v-53q-88 -27 -133 -72q-44 -41 -100 -141l-641 -1157h-131l-56 1016h-12l-598 -1016h-131z" />
    <glyph glyph-name="wdieresis" unicode="&#x1e85;" horiz-adv-x="1533" 
d="M635 1266q0 60 41.5 100.5t101.5 40.5q50 0 81.5 -31t31.5 -80q0 -62 -41 -103.5t-102 -41.5q-50 0 -81.5 32t-31.5 83zM1020 1266q0 60 41 100.5t102 40.5q48 0 79.5 -31t31.5 -80q0 -62 -40.5 -103.5t-100.5 -41.5q-50 0 -81.5 32t-31.5 83zM473 289l326 524l-13 156
h185l61 -684h15l282 473q43 76 43 108q0 18 -10.5 28t-36.5 21v54h299v-54q-64 -17 -99.5 -49.5t-84.5 -113.5l-451 -752h-98l-60 670h-12l-418 -670h-96l-69 756q-5 57 -31.5 84t-91.5 34v52l290 57l5 -49l18 -240l35 -405h12z" />
    <glyph glyph-name="uni1E9E" unicode="&#x1e9e;" horiz-adv-x="1470" 
d="M1530 1423v-90l-539 -555q164 -24 264.5 -118t100.5 -240q0 -127 -72 -229.5t-194.5 -159t-270.5 -56.5q-175 0 -303 84l41 82q84 -51 207 -51q165 0 266 94q105 94 105 248q0 129 -83 197.5t-237 68.5h-59v93l497 512v12h-606l-330 -1315h-331v53q93 22 128 58.5
t62 146.5l291 1165h1063z" />
    <glyph glyph-name="uni1ECA" unicode="&#x1eca;" horiz-adv-x="686" 
d="M4 53q85 15 119 52t61 151l226 907q18 73 18 115q0 41 -20 61t-70 31v53h461v-53q-84 -15 -120 -54.5t-63 -150.5l-225 -909q-16 -75 -16 -104q0 -43 21 -65t71 -34v-53h-463v53zM29 -295q0 63 42.5 105.5t104.5 42.5q51 0 84 -32t33 -83q0 -65 -43 -108.5t-105 -43.5
q-51 0 -83.5 34t-32.5 85z" />
    <glyph glyph-name="uni1ECB" unicode="&#x1ecb;" horiz-adv-x="559" 
d="M346 1268q0 63 43.5 105t106.5 42q51 0 83.5 -33t32.5 -84q0 -63 -43.5 -106t-105.5 -43q-51 0 -84 34t-33 85zM311 193q-14 -60 -14 -82q0 -29 13.5 -40.5t49.5 -17.5v-53h-366v53q66 9 86.5 31.5t40.5 110.5l135 540q10 52 10 70q0 30 -15.5 43.5t-57.5 19.5v54l305 57
h10zM-31 -295q0 63 43 105.5t105 42.5q51 0 83.5 -32t32.5 -83q0 -65 -42.5 -108.5t-104.5 -43.5q-51 0 -84 34t-33 85z" />
    <glyph glyph-name="uni1ECC" unicode="&#x1ecc;" horiz-adv-x="1617" 
d="M147 588q-3 164 61 322.5t173 278t264.5 191.5t325.5 68q273 0 445.5 -171.5t172.5 -440.5q2 -110 -26 -219.5t-80 -205t-128.5 -177.5t-166.5 -140t-199 -90t-223 -29q-274 0 -446.5 172t-172.5 441zM1358 860q0 220 -105 346.5t-288 126.5q-100 3 -193 -41.5t-164 -123
t-124 -178t-80 -210.5t-25 -217q0 -221 105 -347t288 -126q100 -3 193 41.5t164 123t124 178t80 210.5t25 217zM557 -295q0 63 43 105.5t105 42.5q51 0 83.5 -32t32.5 -83q0 -65 -42.5 -108.5t-104.5 -43.5q-51 0 -84 34t-33 85z" />
    <glyph glyph-name="uni1ECD" unicode="&#x1ecd;" horiz-adv-x="1140" 
d="M78 385q-3 161 74 302.5t211.5 225t289.5 80.5q184 0 299 -114t115 -295q2 -120 -43.5 -233.5t-122.5 -196.5t-185 -132.5t-224 -46.5q-185 0 -299.5 114.5t-114.5 295.5zM858 616q0 127 -55.5 197t-155.5 70q-106 4 -192 -79t-129 -205t-41 -247q0 -128 55 -197t158 -69
q78 -3 147.5 45t115 125.5t72 172.5t25.5 187zM279 -295q0 63 42.5 105.5t104.5 42.5q51 0 84 -32t33 -83q0 -65 -43 -108.5t-105 -43.5q-51 0 -83.5 34t-32.5 85z" />
    <glyph glyph-name="uni1EE4" unicode="&#x1ee4;" horiz-adv-x="1564" 
d="M219 426q0 66 23 170l143 575q18 71 18 107q0 41 -20 60.5t-74 31.5v53h465v-53q-83 -18 -119.5 -56.5t-62.5 -139.5l-148 -592q-18 -80 -18 -144q0 -147 86.5 -227t241.5 -80q184 0 312 114t183 330l148 592q18 76 18 115q0 36 -18.5 56t-63.5 32v53h375v-53
q-87 -15 -129 -57q-36 -39 -63 -146l-152 -606q-70 -285 -233.5 -435.5t-413.5 -150.5q-223 0 -360.5 123t-137.5 328zM504 -295q0 63 42.5 105.5t104.5 42.5q51 0 84 -32t33 -83q0 -65 -42.5 -108.5t-104.5 -43.5q-51 0 -84 34t-33 85z" />
    <glyph glyph-name="uni1EE5" unicode="&#x1ee5;" horiz-adv-x="1120" 
d="M119 246q0 46 14 106l94 377q13 47 13 70q0 29 -17.5 44t-56.5 21v54l303 57h10l-160 -643q-10 -52 -10 -80q0 -63 33.5 -99t93.5 -36q134 0 269 194l104 416q12 43 12 70q0 30 -17.5 45.5t-58.5 21.5v54l308 57h10l-189 -752q-14 -60 -14 -78q0 -23 13 -31.5t49 -13.5
v-53l-287 -57h-12l36 149h-12q-120 -164 -287 -164q-104 0 -172.5 75.5t-68.5 195.5zM268 -295q0 63 43 105.5t105 42.5q51 0 83.5 -32t32.5 -83q0 -65 -42.5 -108.5t-104.5 -43.5q-51 0 -84 34t-33 85z" />
    <glyph glyph-name="Ygrave" unicode="&#x1ef2;" horiz-adv-x="1406" 
d="M993 1833l47 -293h-79l-193 287v6h225zM1237 1423h383v-53q-82 -16 -139 -56.5t-127 -123.5l-520 -604l-91 -359q-12 -53 -12 -84q0 -41 20 -60t70 -30v-53h-465v53q84 10 121 45.5t60 128.5l94 373l-215 576q-34 93 -70 137t-96 57v53h477v-53q-117 -20 -117 -98
q0 -40 27 -113l158 -434h12l395 461q82 94 82 141q0 34 -47 43v53z" />
    <glyph glyph-name="ygrave" unicode="&#x1ef3;" horiz-adv-x="1030" 
d="M696 1419l47 -293h-79l-193 285v8h225zM823 969h307v-54q-66 -20 -102 -50t-78 -99l-544 -909q-99 -164 -189 -232q-81 -63 -192 -63q-78 0 -142 37v168q72 -29 154 -29q96 0 169 45t138 156l37 61l-137 743q-10 66 -38.5 93t-96.5 38v52l282 57l4 -20l37 -220l84 -491
h14l308 518q39 62 39 94q0 18 -12 29t-42 22v54z" />
    <glyph glyph-name="uni2002" unicode="&#x2002;" horiz-adv-x="1024" 
 />
    <glyph glyph-name="uni2003" unicode="&#x2003;" horiz-adv-x="2048" 
 />
    <glyph glyph-name="uni2009" unicode="&#x2009;" horiz-adv-x="256" 
 />
    <glyph glyph-name="uni200A" unicode="&#x200a;" horiz-adv-x="86" 
 />
    <glyph glyph-name="endash" unicode="&#x2013;" horiz-adv-x="1081" 
d="M977 514h-830v111h830v-111z" />
    <glyph glyph-name="emdash" unicode="&#x2014;" horiz-adv-x="1640" 
d="M1534 514h-1387v111h1387v-111z" />
    <glyph glyph-name="quoteleft" unicode="&#x2018;" horiz-adv-x="477" 
d="M496 991q0 -60 -45.5 -105.5t-108.5 -45.5q-60 0 -97.5 38.5t-37.5 98.5q0 43 19.5 82t70.5 104l211 260h104l-252 -303h7q60 0 94.5 -34.5t34.5 -94.5z" />
    <glyph glyph-name="quoteright" unicode="&#x2019;" horiz-adv-x="477" 
d="M606 1309q0 -45 -20 -83.5t-72 -101.5l-211 -262h-102l252 305h-7q-57 0 -93 35t-36 92q0 61 45 106.5t107 45.5q60 0 98.5 -38.5t38.5 -98.5z" />
    <glyph glyph-name="quotesinglbase" unicode="&#x201a;" horiz-adv-x="497" 
d="M324 117q0 -45 -20 -83t-73 -102l-211 -262h-102l252 305h-6q-57 0 -93 35t-36 92q0 61 44.5 106.5t106.5 45.5q60 0 99 -38.5t39 -98.5z" />
    <glyph glyph-name="quotedblleft" unicode="&#x201c;" horiz-adv-x="860" 
d="M494 991q0 -60 -45.5 -105.5t-108.5 -45.5q-60 0 -97.5 38.5t-37.5 98.5q0 42 19.5 80t70.5 104l211 262h104l-254 -305h9q57 0 93 -35t36 -92zM879 991q0 -60 -45.5 -105.5t-108.5 -45.5q-60 0 -97.5 38.5t-37.5 98.5q0 42 19.5 80t70.5 104l211 262h104l-254 -305h9
q57 0 93 -35t36 -92z" />
    <glyph glyph-name="quotedblright" unicode="&#x201d;" horiz-adv-x="862" 
d="M606 1309q0 -45 -20 -83.5t-72 -101.5l-211 -262h-102l252 305h-7q-57 0 -93 35t-36 92q0 61 45 106.5t107 45.5q60 0 98.5 -38.5t38.5 -98.5zM991 1309q0 -45 -20 -83.5t-72 -101.5l-211 -262h-102l252 305h-7q-57 0 -93 35t-36 92q0 61 45 106.5t107 45.5
q60 0 98.5 -38.5t38.5 -98.5z" />
    <glyph glyph-name="quotedblbase" unicode="&#x201e;" horiz-adv-x="880" 
d="M324 117q0 -45 -20 -83t-73 -102l-211 -262h-102l252 305h-6q-57 0 -93 35t-36 92q0 61 44.5 106.5t106.5 45.5q60 0 99 -38.5t39 -98.5zM709 117q0 -45 -20 -83t-73 -102l-210 -262h-103l252 305h-6q-57 0 -93 35t-36 92q0 61 44.5 106.5t106.5 45.5q60 0 99 -38.5
t39 -98.5z" />
    <glyph glyph-name="dagger" unicode="&#x2020;" horiz-adv-x="1062" 
d="M446 -299h-221l391 1325l-399 -59v207l422 -58l57 477h222l-181 -477l402 58v-207l-424 59z" />
    <glyph glyph-name="daggerdbl" unicode="&#x2021;" horiz-adv-x="1128" 
d="M487 -299h-221l180 479l-399 -59v209l420 -60l45 377l143 379l-397 -59v207l420 -58l57 477h219l-178 -477l404 58v-207l-426 59l-45 -379l-144 -377l404 60v-209l-424 59z" />
    <glyph glyph-name="bullet" unicode="&#x2022;" horiz-adv-x="880" 
d="M184 532q0 127 88 216.5t215 89.5q110 0 181 -72t71 -182q0 -129 -89 -216t-218 -87q-112 0 -180 69t-68 182z" />
    <glyph glyph-name="ellipsis" unicode="&#x2026;" horiz-adv-x="1728" 
d="M1280 102q0 63 44.5 107.5t107.5 44.5q57 0 92 -35.5t35 -91.5q0 -65 -45 -108.5t-109 -43.5q-57 0 -91 35t-34 92zM645 102q0 63 44.5 107.5t107.5 44.5q57 0 92 -35.5t35 -91.5q0 -65 -45 -108.5t-109 -43.5q-57 0 -91 35t-34 92zM31 102q0 63 44 107.5t107 44.5
q57 0 92 -35.5t35 -91.5q0 -65 -44.5 -108.5t-108.5 -43.5q-57 0 -91 35t-34 92z" />
    <glyph glyph-name="perthousand" unicode="&#x2030;" horiz-adv-x="2146" 
d="M209 999q0 112 49 213t138 165.5t196 64.5q120 0 203 -86q82 -85 82 -228q2 -105 -48.5 -207.5t-143 -170t-198.5 -64.5q-123 0 -200.5 87t-77.5 226zM147 0l1330 1423h141l-1329 -1423h-142zM371 961q0 -177 121 -177q63 -4 117 62t80.5 154t25.5 165q0 88 -32.5 134.5
t-92.5 46.5q-50 2 -92.5 -36t-69.5 -97t-42 -125.5t-15 -126.5zM2062 428q2 -105 -48.5 -207.5t-142.5 -170t-198 -64.5q-152 0 -227 123q-114 -123 -264 -123q-123 0 -200 86t-77 227q0 112 48 213t136.5 165t196.5 64q72 0 133 -31.5t99 -88.5q108 120 260 120
q119 0 202 -86q82 -85 82 -227zM1409 465q0 180 -125 180q-65 3 -117 -62.5t-76.5 -153.5t-23.5 -169q0 -176 119 -176q63 -4 117 62t80.5 154t25.5 165zM1901 465q0 87 -32.5 133.5t-92.5 46.5q-65 3 -117.5 -62.5t-77.5 -153t-25 -169.5q0 -176 121 -176q63 -4 117 61.5
t81 154t26 165.5z" />
    <glyph glyph-name="guilsinglleft" unicode="&#x2039;" horiz-adv-x="747" 
d="M537 14l-74 -39l-371 523l606 495l60 -59l-445 -461z" />
    <glyph glyph-name="guilsinglright" unicode="&#x203a;" horiz-adv-x="749" 
d="M213 954l74 39l372 -522l-608 -498l-59 60l446 463z" />
    <glyph glyph-name="uni203D" unicode="&#x203d;" horiz-adv-x="1015" 
d="M559 600l-61 -205h-101l183 897h-7q-95 0 -173.5 -35.5t-133.5 -93.5l-55 56q182 229 444 229q174 0 290 -102.5t116 -255.5q0 -174 -132 -296t-370 -194zM596 721q264 120 264 330q0 131 -108 196zM541 127q0 -65 -45 -108.5t-109 -43.5q-57 0 -91 35t-34 92
q0 63 44.5 107.5t107.5 44.5q57 0 92 -35.5t35 -91.5z" />
    <glyph glyph-name="fraction" unicode="&#x2044;" horiz-adv-x="370" 
d="M844 1423h139l-1329 -1423h-141z" />
    <glyph glyph-name="uni2070" unicode="&#x2070;" horiz-adv-x="991" 
d="M264 1171q-3 146 64 273.5t183 202t249 71.5q162 0 256 -104q98 -101 98 -266q2 -148 -64.5 -277t-182.5 -204t-251 -72q-159 0 -256 106q-96 107 -96 270zM930 1376q0 116 -44 177t-128 61q-68 2 -127 -40.5t-98 -111.5t-61 -154.5t-21 -170.5q0 -113 44 -175.5
t123 -62.5q90 -3 163.5 71t111.5 183.5t37 222.5z" />
    <glyph glyph-name="uni2074" unicode="&#x2074;" horiz-adv-x="872" 
d="M711 821h-158l55 215h-420v88l656 582h88l-131 -526h174v-144h-209zM385 1190v-10h258l76 297h-10z" />
    <glyph glyph-name="uni2075" unicode="&#x2075;" horiz-adv-x="770" 
d="M164 979l51 45q98 -98 219 -98q103 0 167.5 50t64.5 130q0 66 -45 102.5t-123 36.5q-95 0 -189 -61h-10l203 508h456v-170h-438l-86 -217h10q69 57 162 57q98 0 163 -69t65 -177q0 -134 -102 -227.5t-249 -93.5q-203 0 -319 184z" />
    <glyph glyph-name="uni2076" unicode="&#x2076;" horiz-adv-x="833" 
d="M268 1053q-10 62 -10 98q0 105 40.5 209.5t109.5 183.5q162 174 374 174q142 0 246 -73l-31 -62q-80 41 -178 41q-139 0 -234 -91t-124 -251h10q91 94 205 94q98 0 171 -72.5t73 -175.5q0 -141 -104.5 -237t-248.5 -96q-115 0 -195 70.5t-104 187.5zM745 1112
q0 69 -38.5 111.5t-98.5 42.5q-110 0 -168 -111l-6 -53q-4 -46 -4 -49q0 -77 34 -124.5t95 -47.5q83 0 134.5 67t51.5 164z" />
    <glyph glyph-name="uni2077" unicode="&#x2077;" horiz-adv-x="745" 
d="M981 1604l-557 -783h-250v8l641 684v7h-481v172h647v-88z" />
    <glyph glyph-name="uni2078" unicode="&#x2078;" horiz-adv-x="856" 
d="M219 1044q0 97 75.5 164.5t205.5 87.5v11q-66 19 -102 61t-36 102q0 107 97 179q92 69 241 69q126 0 207.5 -63t81.5 -156q0 -85 -62.5 -144t-172.5 -79v-10q80 -19 126 -70.5t46 -124.5q0 -127 -109 -201q-106 -75 -276 -75q-147 0 -234.5 68t-87.5 181zM815 1516
q0 52 -31.5 85t-81.5 33q-71 0 -118 -55.5t-47 -136.5q0 -52 29.5 -85.5t78.5 -33.5q72 0 121 56.5t49 136.5zM752 1104q0 63 -40.5 101t-107.5 38q-90 0 -150.5 -62t-60.5 -153q0 -67 40 -107t108 -40q86 0 148.5 65.5t62.5 157.5z" />
    <glyph glyph-name="uni2079" unicode="&#x2079;" horiz-adv-x="833" 
d="M969 1462q10 -62 10 -98q0 -108 -40.5 -212.5t-109.5 -180.5q-164 -176 -374 -176q-146 0 -246 75l31 60q77 -39 178 -39q139 0 234 90.5t124 249.5h-10q-91 -94 -205 -94q-98 0 -171 72t-73 175q0 141 104.5 237.5t248.5 96.5q115 0 195 -70.5t104 -185.5zM492 1401
q0 -68 39.5 -111t97.5 -43q109 0 168 111l6 55q4 46 4 49q0 77 -33.5 123.5t-95.5 46.5q-83 0 -134.5 -67t-51.5 -164z" />
    <glyph glyph-name="uni2080" unicode="&#x2080;" horiz-adv-x="993" 
d="M4 125q-3 146 64 273.5t183 202t249 71.5q162 0 256 -105q98 -101 98 -266q2 -148 -64.5 -277t-182.5 -204t-251 -72q-158 0 -256 107q-96 107 -96 270zM670 330q0 116 -43.5 176.5t-128.5 60.5q-90 3 -162.5 -70t-109.5 -182.5t-36 -224.5q0 -112 44 -174.5t124 -62.5
q90 -3 163.5 71t111.5 183.5t37 222.5z" />
    <glyph glyph-name="uni2081" unicode="&#x2081;" horiz-adv-x="700" 
d="M170 -225l133 536h-272v82q191 12 281 66t141 200h108l-221 -884h-170z" />
    <glyph glyph-name="uni2082" unicode="&#x2082;" horiz-adv-x="778" 
d="M-86 -225v88l295 190q139 91 198.5 158.5t59.5 150.5q0 77 -51.5 122.5t-132.5 45.5q-105 0 -187 -67l-47 53q129 156 307 156q121 0 208 -79.5t87 -191.5q0 -109 -69 -189t-217 -169l-146 -90v-8h322v-170h-627z" />
    <glyph glyph-name="uni2083" unicode="&#x2083;" horiz-adv-x="772" 
d="M-90 -68l51 45q93 -96 215 -96q98 0 156.5 47t58.5 125q0 116 -153 125v84l239 205v8h-362v170h598v-88l-353 -297v-10q92 -17 146.5 -76t54.5 -141q0 -123 -96 -204t-234 -81q-106 0 -187.5 49t-133.5 135z" />
    <glyph glyph-name="uni2084" unicode="&#x2084;" horiz-adv-x="872" 
d="M451 -225h-158l55 215h-420v88l656 581h88l-131 -526h174v-143h-209zM125 143v-10h258l76 297h-10z" />
    <glyph glyph-name="uni2085" unicode="&#x2085;" horiz-adv-x="770" 
d="M-98 -68l51 45q98 -98 219 -98q103 0 167 50t64 130q0 66 -44.5 103t-122.5 37q-94 0 -189 -62h-10l203 508h456v-170h-438l-86 -217h10q69 57 162 57q98 0 162.5 -68.5t64.5 -176.5q0 -134 -101.5 -228t-248.5 -94q-203 0 -319 184z" />
    <glyph glyph-name="uni2086" unicode="&#x2086;" horiz-adv-x="835" 
d="M6 4q-10 62 -10 98q0 105 40 210.5t109 183.5q162 174 375 174q140 0 246 -74l-31 -61q-79 40 -178 40q-139 0 -234 -91t-124 -251h10q92 95 205 95q98 0 170.5 -72.5t72.5 -175.5q0 -141 -104 -237.5t-248 -96.5q-115 0 -195 70.5t-104 187.5zM483 63q0 69 -38.5 111.5
t-98.5 42.5q-110 0 -168 -111l-6 -53q-4 -46 -4 -49q0 -77 34 -124.5t95 -47.5q83 0 134.5 67t51.5 164z" />
    <glyph glyph-name="uni2087" unicode="&#x2087;" horiz-adv-x="745" 
d="M721 557l-557 -782h-250v8l641 684v6h-481v172h647v-88z" />
    <glyph glyph-name="uni2088" unicode="&#x2088;" horiz-adv-x="856" 
d="M-43 -4q0 97 75.5 164.5t205.5 87.5v10q-66 19 -102 61.5t-36 102.5q0 106 97 178q94 70 241 70q126 0 207.5 -63t81.5 -156q0 -86 -62.5 -145t-172.5 -79v-10q80 -19 126 -70t46 -124q0 -127 -109 -201q-107 -76 -276 -76q-147 0 -234.5 68.5t-87.5 181.5zM553 467
q0 52 -31.5 85.5t-81.5 33.5q-71 0 -118.5 -56.5t-47.5 -136.5q0 -52 30 -85.5t79 -33.5q72 0 121 56.5t49 136.5zM489 55q0 63 -40 101.5t-107 38.5q-90 0 -150.5 -62t-60.5 -153q0 -68 40.5 -108t107.5 -40q86 0 148 65.5t62 157.5z" />
    <glyph glyph-name="uni2089" unicode="&#x2089;" horiz-adv-x="835" 
d="M709 414q10 -62 10 -99q0 -108 -40.5 -212.5t-109.5 -180.5q-164 -176 -374 -176q-145 0 -246 76l31 59q77 -39 178 -39q139 0 234 90.5t124 249.5h-10q-91 -94 -205 -94q-98 0 -171 72.5t-73 175.5q0 141 104.5 237.5t248.5 96.5q115 0 195 -70.5t104 -185.5zM231 352
q0 -68 40 -110.5t98 -42.5q110 0 168 110l6 56q4 46 4 49q0 77 -33.5 123.5t-95.5 46.5q-83 0 -135 -68t-52 -164z" />
    <glyph glyph-name="uni20A6" unicode="&#x20a6;" horiz-adv-x="1325" 
d="M1399 1337q-85 -18 -115.5 -53.5t-58.5 -144.5l-95 -377h177v-105h-201l-164 -657h-127l-160 657h-233l-100 -403q-21 -83 -21 -113q0 -35 18.5 -54.5t63.5 -33.5v-53h-342v53q83 22 114 57.5t58 143.5l100 403h-172v105h199l119 475l-41 147v9h225l154 -631h227l94 377
q19 81 19 114q0 37 -17.5 55t-62.5 29v56h342v-56zM532 1098l-83 -336h180l-82 336h-15zM901 330h14l82 327h-176z" />
    <glyph glyph-name="uni20A9" unicode="&#x20a9;" horiz-adv-x="2148" 
d="M1903 1393h364v-54q-89 -21 -135 -67q-46 -43 -98 -137l-138 -246h199v-107h-260l-88 -157h289v-107h-348l-291 -518h-121l-39 1040h-12l-584 -1040h-121l-37 518h-317v107h309l-10 157h-232v107h224l-19 258q-9 106 -25.5 136t-82.5 54v56h456v-56q-57 -10 -89 -21.5
t-48.5 -34.5t-19.5 -51t0 -79l57 -844h12l496 883l-10 203h211l41 -1088h12l465 830q34 62 46.5 89.5t12.5 49.5q0 44 -69 65v54z" />
    <glyph glyph-name="uni20AA" unicode="&#x20aa;" horiz-adv-x="1513" 
d="M78 0l348 1393h260q200 0 315 -94.5t115 -268.5q0 -67 -18 -143l-142 -574h-163l143 576q22 99 22 162q0 121 -69.5 180t-210.5 59h-100l-324 -1290h-176zM936 0q-199 0 -315.5 95.5t-116.5 266.5q0 68 18 144l144 573h161l-143 -575q-22 -99 -22 -160q0 -242 284 -242
h98l322 1291h176l-348 -1393h-258z" />
    <glyph glyph-name="Euro" unicode="&#x20ac;" horiz-adv-x="1349" 
d="M1366 1335v-262h-55q-24 112 -97 174t-170 62q-170 0 -301 -119q-132 -120 -196 -303h653v-107h-684q-20 -90 -20 -172h637v-106h-633q20 -181 113 -274t247 -93q186 0 303 135l54 -47q-155 -248 -416 -248q-213 0 -352.5 146t-151.5 381h-176v106h176q6 83 25 172h-132
v107h164q83 238 269 383q187 147 428 147q166 0 315 -82z" />
    <glyph glyph-name="uni20B4" unicode="&#x20b4;" horiz-adv-x="1249" 
d="M1239 895v-107h-1061v107h709q157 89 157 219q0 88 -63 141.5t-168 53.5q-119 0 -194.5 -60t-116.5 -190h-56v268q72 40 173 65t202 25q184 0 291 -89.5t107 -225.5q0 -114 -80 -207h100zM109 516v105h1060v-105h-680q-167 -87 -167 -223q0 -95 73.5 -152t188.5 -57
q263 0 377 301h55v-272q-94 -66 -210 -102t-235 -36q-189 0 -305 93t-116 243q0 114 81 205h-122z" />
    <glyph glyph-name="uni20B8" unicode="&#x20b8;" horiz-adv-x="1294" 
d="M1337 1294h-1091v99h1091v-99zM711 1083h-119q-138 0 -202 -47t-91 -159h-53v303h1083v-303h-53q-25 110 -96.5 158t-212.5 48h-66l-209 -835q-14 -55 -14 -98q0 -41 20.5 -62t71.5 -35v-53h-461v53q94 21 132.5 57.5t62.5 137.5z" />
    <glyph glyph-name="uni20B9" unicode="&#x20b9;" horiz-adv-x="1138" 
d="M1278 1286h-455v-12q82 -29 131 -89t56 -141h178v-106h-184q-33 -153 -192 -246.5t-368 -93.5h-34v-14l442 -576v-8h-238l-452 606v88h219q174 0 284 63t136 181h-549v106h555q-7 119 -93 180.5t-235 61.5h-141v107h940v-107z" />
    <glyph glyph-name="uni20BA" unicode="&#x20ba;" horiz-adv-x="1265" 
d="M1214 573q-122 -573 -808 -573h-330v53q34 7 54.5 13t39 18t28 22.5t21 35t18 47l19.5 67.5l70 281l-187 -52v107l213 57l41 168l-184 -51v104l211 58l57 229q17 80 17 103q0 35 -19 53t-63 26v54h438v-54q-78 -10 -115.5 -48.5t-60.5 -129.5l-43 -178l512 139v-102
l-541 -148l-41 -165l512 137v-105l-541 -147l-120 -490q504 0 583 471h219z" />
    <glyph glyph-name="uni20BD" unicode="&#x20bd;" horiz-adv-x="1247" 
d="M514 612l-39 -159h424v-105h-450l-27 -106q-16 -75 -16 -101q0 -40 20.5 -58.5t73.5 -29.5v-53h-445v53q82 15 115 51q35 38 59 140l27 104h-166v105h191l170 682q22 104 22 122q0 37 -19 56t-63 26v54h430q212 0 340.5 -99.5t128.5 -257.5q0 -202 -166 -313
q-164 -111 -422 -111h-188zM684 1290l-145 -575h129q189 0 302 91.5t113 246.5q0 112 -76 174.5t-206 62.5h-117z" />
    <glyph glyph-name="uni20BF" unicode="&#x20bf;" horiz-adv-x="1331" 
d="M893 719q137 -25 220 -104.5t83 -190.5q0 -177 -139 -289q-136 -110 -355 -131l-47 -188h-100l45 184h-125l-45 -184h-102l45 184h-346v53q86 15 117 50t59 143l223 905q18 83 18 109q0 35 -19 53t-63 26v54h343l47 188h102l-49 -188h47q12 0 78 -4l47 192h100l-51 -207
q123 -30 189.5 -104.5t66.5 -175.5q0 -139 -104 -233t-285 -130v-12zM653 1290l-125 -508h168q176 0 278.5 78.5t102.5 222.5q0 99 -70.5 153t-195.5 54h-158zM565 102q193 0 307.5 93t114.5 251q0 115 -82 175.5t-237 60.5h-164l-144 -580h205z" />
    <glyph glyph-name="uni2116" unicode="&#x2116;" horiz-adv-x="2476" 
d="M25 55q90 19 125 57t63 146l258 1034l-61 125v8h266l516 -1116h12l215 869q19 81 19 102q0 37 -19.5 58t-66.5 34v53h374v-53q-87 -19 -125 -59t-63 -139l-293 -1172h-131l-545 1163h-14l-223 -909q-19 -74 -19 -111t19 -56.5t67 -33.5v-53h-374v53zM1583 621
q0 135 65.5 253.5t180.5 189.5t250 71q156 0 256 -103q98 -101 98 -264q0 -102 -38 -196t-103 -163.5t-157.5 -111t-195.5 -41.5q-160 0 -258 100.5t-98 264.5zM2257 811q0 100 -48 157.5t-132 57.5q-88 3 -163.5 -67.5t-116 -174.5t-38.5 -206q0 -100 47.5 -156.5
t132.5 -56.5q88 -3 163.5 66.5t116 173t38.5 206.5zM1511 0h682v109h-682v-109z" />
    <glyph glyph-name="uni2117" unicode="&#x2117;" horiz-adv-x="1763" 
d="M201 727q-3 211 94 384.5t268.5 272t380.5 95.5q155 2 293.5 -55.5t237.5 -157.5t156 -240.5t55 -298.5q2 -158 -55 -298.5t-156 -240.5t-237.5 -157.5t-293.5 -55.5q-209 -3 -380.5 95.5t-268.5 272t-94 384.5zM1581 729q3 182 -81 333t-232 236t-326 82
q-136 0 -254 -49.5t-202 -135t-132.5 -206.5t-48.5 -260q-3 -185 80.5 -336.5t231 -236.5t327.5 -82q136 0 254 49.5t202.5 135.5t132.5 208t48 262zM883 645v-172q0 -43 15 -59t58 -21v-51h-288v51q36 5 48.5 20.5t12.5 59.5v512q0 44 -13 61.5t-48 18.5v51h325
q142 0 228 -59.5t86 -171.5q0 -114 -87.5 -177t-226.5 -63h-110zM883 1038v-315h73q91 0 141 41.5t50 120.5q0 153 -191 153h-73z" />
    <glyph glyph-name="trademark" unicode="&#x2122;" horiz-adv-x="1740" 
d="M522 1354h-47q-62 0 -92 -26.5t-47 -94.5h-49v190h608v-190h-49q-12 64 -45.5 92.5t-98.5 28.5h-32l-123 -492q-8 -36 -8 -49q0 -44 39 -53v-45h-263v45q37 8 54.5 28.5t29.5 71.5zM985 1280q8 27 8 53q0 33 -30 45v45h200l97 -505h10l342 505h217v-45q-32 -6 -51 -29
t-31 -71l-107 -430q-6 -30 -6 -45q0 -19 7 -28t24 -15v-45h-248v45q35 7 52 26t28 62l100 397h-8l-358 -530h-66l-100 514h-8l-94 -379q-7 -35 -7 -47q0 -33 29 -43v-45h-186v45q33 8 50.5 27t29.5 63z" />
    <glyph glyph-name="Omega" unicode="&#x2126;" horiz-adv-x="1587" 
d="M84 0v182h448l7 27q-162 52 -263 186q-98 134 -98 307q-2 109 35 219.5t108 205.5t165 168.5t214 114.5t246 38q264 0 432 -161t168 -413q0 -234 -165.5 -424.5t-426.5 -248.5l-4 -19h416v-182h-578l62 238q204 49 335.5 240.5t131.5 426.5q0 198 -98.5 313t-270.5 115
q-115 4 -219 -58.5t-174 -162t-110.5 -219t-38.5 -229.5q0 -160 67.5 -275t185.5 -153l-57 -236h-518z" />
    <glyph glyph-name="onethird" unicode="&#x2153;" horiz-adv-x="1988" 
d="M379 594l127 510h-260v78q181 12 266.5 64t136.5 190h103l-209 -842h-164zM1790 1423h-139l-1332 -1423h142zM1198 152l49 41q88 -91 205 -91q92 0 148.5 45t56.5 117q0 112 -148 121v80l228 194v9h-344v161h569v-84l-336 -282v-10q88 -17 140.5 -73t52.5 -134
q0 -117 -93 -195q-91 -76 -223 -76q-100 0 -177.5 47.5t-127.5 129.5z" />
    <glyph glyph-name="twothirds" unicode="&#x2154;" horiz-adv-x="1957" 
d="M119 596v84l280 182q131 83 188.5 147.5t57.5 145.5q0 74 -49 118t-125 44q-97 0 -178 -66l-45 52q120 147 293 147q115 0 198.5 -75.5t83.5 -180.5q0 -102 -65.5 -178.5t-208.5 -165.5l-139 -84v-8h307v-162h-598zM1778 1423h-140l-1331 -1423h142zM1186 152l49 41
q88 -91 205 -91q92 0 148.5 45t56.5 117q0 112 -148 121v80l227 194v9h-344v161h570v-84l-336 -282v-10q88 -17 140 -73t52 -134q0 -118 -92 -195q-91 -76 -223 -76q-100 0 -177.5 47.5t-127.5 129.5z" />
    <glyph glyph-name="uni2155" unicode="&#x2155;" horiz-adv-x="1992" 
d="M379 594l127 510h-260v78q181 12 266.5 64t136.5 190h103l-209 -842h-164zM1790 1423h-139l-1332 -1423h142zM1194 152l49 41q93 -93 207 -93q98 0 160.5 48.5t62.5 123.5q0 61 -44 96t-118 35q-92 0 -178 -57h-10l193 483h434v-161h-416l-82 -207h8q70 55 156 55
q92 0 153.5 -66t61.5 -169q0 -129 -97 -217.5t-235 -88.5q-194 0 -305 177z" />
    <glyph glyph-name="uni2156" unicode="&#x2156;" horiz-adv-x="1959" 
d="M119 596v84l280 182q131 83 188.5 147.5t57.5 145.5q0 74 -49 118t-125 44q-97 0 -178 -66l-45 52q120 147 293 147q115 0 198.5 -75.5t83.5 -180.5q0 -102 -65.5 -178.5t-208.5 -165.5l-139 -84v-8h307v-162h-598zM1778 1423h-140l-1331 -1423h142zM1180 152l49 41
q93 -93 207 -93q98 0 160.5 48.5t62.5 123.5q0 61 -44 96t-118 35q-92 0 -178 -57h-10l192 483h434v-161h-415l-82 -207h8q70 55 156 55q92 0 153.5 -66t61.5 -169q0 -129 -97 -217.5t-235 -88.5q-194 0 -305 177z" />
    <glyph glyph-name="uni2157" unicode="&#x2157;" horiz-adv-x="1941" 
d="M121 748l49 40q87 -90 205 -90q92 0 148.5 45t56.5 117q0 112 -148 121v80l227 194v9h-344v161h570v-84l-336 -282v-10q88 -17 140 -73t52 -134q0 -118 -92 -195q-91 -76 -223 -76q-100 0 -177.5 47.5t-127.5 129.5zM1753 1423h-139l-1331 -1423h141zM1155 152l49 41
q93 -93 207 -93q98 0 160.5 48.5t62.5 123.5q0 61 -43.5 96t-117.5 35q-93 0 -179 -57h-10l193 483h434v-161h-416l-82 -207h8q70 55 156 55q92 0 153.5 -66t61.5 -169q0 -129 -97 -217.5t-235 -88.5q-194 0 -305 177z" />
    <glyph glyph-name="uni2158" unicode="&#x2158;" horiz-adv-x="2117" 
d="M659 594h-151l53 205h-399v84l622 553h86l-125 -500h166v-137h-200zM348 944v-8h246l72 281h-9zM1911 1423h-139l-1332 -1423h142zM1315 152l49 41q93 -93 207 -93q98 0 160.5 48.5t62.5 123.5q0 61 -44 96t-118 35q-92 0 -178 -57h-10l192 483h435v-161h-416l-82 -207h8
q70 55 156 55q92 0 153.5 -66t61.5 -169q0 -129 -97 -217.5t-235 -88.5q-194 0 -305 177z" />
    <glyph glyph-name="uni2159" unicode="&#x2159;" horiz-adv-x="2045" 
d="M379 594l127 510h-260v78q181 12 266.5 64t136.5 190h103l-209 -842h-164zM1790 1423h-139l-1332 -1423h142zM1284 219q-8 36 -8 94q0 104 37 203t104 172q153 166 357 166q134 0 233 -72l-29 -57q-74 39 -170 39q-133 0 -224.5 -87t-117.5 -239h11q84 90 194 90
q95 0 163.5 -68t68.5 -167q0 -135 -98 -226.5t-236 -91.5q-111 0 -187.5 67t-97.5 177zM1737 276q0 67 -36.5 107.5t-92.5 40.5q-103 0 -162 -105l-6 -53q-2 -10 -2 -43q0 -76 31.5 -121t91.5 -45q78 0 127 63t49 156z" />
    <glyph glyph-name="uni215A" unicode="&#x215a;" horiz-adv-x="2009" 
d="M113 745l49 41q92 -92 207 -92q98 0 160.5 48.5t62.5 123.5q0 61 -44 96t-118 35q-92 0 -178 -57h-10l192 483h434v-161h-415l-82 -207h8q70 55 156 55q92 0 153.5 -66.5t61.5 -169.5q0 -128 -96.5 -216.5t-235.5 -88.5q-195 0 -305 176zM1765 1423h-139l-1331 -1423h141
zM1257 219q-8 36 -8 94q0 103 37.5 202.5t104.5 172.5q153 166 356 166q134 0 233 -72l-28 -57q-74 39 -170 39q-133 0 -224.5 -87t-117.5 -239h10q84 90 195 90q95 0 163 -68t68 -167q0 -135 -98 -226.5t-236 -91.5q-111 0 -187.5 67t-97.5 177zM1710 276q0 67 -36.5 107.5
t-92.5 40.5q-103 0 -162 -105l-6 -53q-2 -10 -2 -43q0 -76 31.5 -121t91.5 -45q78 0 127 63t49 156z" />
    <glyph glyph-name="oneeighth" unicode="&#x215b;" horiz-adv-x="2068" 
d="M379 594l127 510h-260v78q181 12 266.5 64t136.5 190h103l-209 -842h-164zM1790 1423h-139l-1332 -1423h142zM1249 213q0 92 71 156t196 84v8q-63 20 -96.5 60.5t-33.5 96.5q0 104 90 170t230 66q120 0 197 -60t77 -149q0 -81 -59.5 -137t-163.5 -76v-8q76 -19 120 -68.5
t44 -117.5q0 -120 -102 -191.5t-265 -71.5q-139 0 -222 66t-83 172zM1815 662q0 50 -29 81t-78 31q-67 0 -112.5 -53t-45.5 -129q0 -49 29.5 -81t73.5 -32q69 0 115.5 52.5t46.5 130.5zM1755 268q0 61 -38 97t-101 36q-86 0 -144.5 -59t-58.5 -145q0 -63 39 -102.5
t102 -39.5q82 0 141.5 63t59.5 150z" />
    <glyph glyph-name="threeeighths" unicode="&#x215c;" horiz-adv-x="2023" 
d="M125 748l49 40q87 -90 205 -90q92 0 148.5 45t56.5 117q0 112 -148 121v80l228 194v9h-345v161h570v-84l-336 -282v-10q88 -17 140 -73t52 -134q0 -118 -92 -195q-91 -76 -223 -76q-100 0 -177.5 47.5t-127.5 129.5zM1757 1423h-139l-1331 -1423h141zM1219 213
q0 92 70.5 156t195.5 84v8q-63 20 -96 60.5t-33 96.5q0 104 89.5 170t229.5 66q120 0 197.5 -60t77.5 -149q0 -81 -60 -136.5t-164 -76.5v-8q76 -19 120 -68.5t44 -117.5q0 -120 -101.5 -191.5t-264.5 -71.5q-139 0 -222 66t-83 172zM1784 662q0 50 -29 81t-78 31
q-67 0 -112 -53t-45 -129q0 -49 29 -81t73 -32q69 0 115.5 52.5t46.5 130.5zM1724 268q0 61 -38 97t-101 36q-86 0 -144.5 -59t-58.5 -145q0 -63 39.5 -102.5t102.5 -39.5q82 0 141 62.5t59 150.5z" />
    <glyph glyph-name="fiveeighths" unicode="&#x215d;" horiz-adv-x="2035" 
d="M117 745l49 41q92 -92 207 -92q98 0 160.5 48.5t62.5 123.5q0 61 -44 96t-118 35q-92 0 -178 -57h-10l192 483h434v-161h-415l-82 -207h8q70 55 156 55q92 0 153.5 -66.5t61.5 -169.5q0 -128 -96.5 -216.5t-235.5 -88.5q-195 0 -305 176zM1767 1423h-139l-1331 -1423h141
zM1227 213q0 92 70.5 156t195.5 84v8q-63 20 -96 60.5t-33 96.5q0 104 89.5 170t229.5 66q120 0 197.5 -60t77.5 -149q0 -81 -59.5 -137t-163.5 -76v-8q76 -19 119.5 -68.5t43.5 -117.5q0 -120 -101.5 -191.5t-264.5 -71.5q-139 0 -222 66t-83 172zM1792 662q0 50 -28.5 81
t-77.5 31q-67 0 -112.5 -53t-45.5 -129q0 -49 29 -81t73 -32q69 0 115.5 52.5t46.5 130.5zM1733 268q0 61 -38.5 97t-101.5 36q-86 0 -144 -59t-58 -145q0 -63 39 -102.5t102 -39.5q82 0 141.5 63t59.5 150z" />
    <glyph glyph-name="seveneighths" unicode="&#x215e;" horiz-adv-x="2037" 
d="M905 1339l-530 -745h-240v8l610 651v7h-458v163h618v-84zM1769 1423h-139l-1331 -1423h141zM1229 213q0 92 70.5 156t195.5 84v8q-63 20 -96 60.5t-33 96.5q0 104 90 170t230 66q120 0 197 -60t77 -149q0 -81 -59.5 -137t-163.5 -76v-8q76 -19 120 -68.5t44 -117.5
q0 -120 -102 -191.5t-265 -71.5q-139 0 -222 66t-83 172zM1794 662q0 50 -28.5 81t-77.5 31q-67 0 -112.5 -53t-45.5 -129q0 -49 29 -81t73 -32q69 0 115.5 52.5t46.5 130.5zM1735 268q0 61 -38.5 97t-101.5 36q-86 0 -144 -59t-58 -145q0 -63 39 -102.5t102 -39.5
q82 0 141.5 63t59.5 150z" />
    <glyph glyph-name="uni215F" unicode="&#x215f;" horiz-adv-x="1456" 
d="M459 594l127 510h-260v78q181 12 266.5 64t136.5 190h102l-208 -842h-164zM1868 1423h-139l-1332 -1423h142z" />
    <glyph glyph-name="arrowleft" unicode="&#x2190;" horiz-adv-x="1415" 
d="M412 545h903v-109h-903v-14l331 -348l-53 -60l-598 475v3l598 475l53 -60l-331 -350v-12z" />
    <glyph glyph-name="arrowup" unicode="&#x2191;" horiz-adv-x="1083" 
d="M688 0h-115v1128h-12l-348 -329l-59 51l475 598h4l473 -598l-57 -51l-349 329h-12v-1128z" />
    <glyph glyph-name="arrowright" unicode="&#x2192;" horiz-adv-x="1415" 
d="M104 436v109h906v12l-332 350l51 60l598 -475v-3l-598 -475l-51 60l332 348v14h-906z" />
    <glyph glyph-name="arrowdown" unicode="&#x2193;" horiz-adv-x="1085" 
d="M526 295v1128h115v-1128h12l348 330l60 -52l-475 -598h-4l-476 598l60 52l348 -330h12z" />
    <glyph glyph-name="uni2196" unicode="&#x2196;" horiz-adv-x="1353" 
d="M461 793l735 -736l-76 -80l-739 738l-10 -10l-13 -482l-79 -4l-86 760l2 2l759 -86l-6 -80l-479 -12z" />
    <glyph glyph-name="uni2197" unicode="&#x2197;" horiz-adv-x="1062" 
d="M66 -23l-76 80l733 736l-8 10l-479 12l-5 80l758 86l4 -2l-88 -760l-78 4l-14 482l-8 10z" />
    <glyph glyph-name="uni2198" unicode="&#x2198;" horiz-adv-x="1355" 
d="M897 176l-735 735l76 80l739 -737l8 10l14 481l80 5l86 -760l-2 -2l-760 86l5 80l479 12z" />
    <glyph glyph-name="uni2199" unicode="&#x2199;" horiz-adv-x="1062" 
d="M999 991l76 -80l-735 -735l10 -10l479 -12l5 -80l-760 -86l-2 2l86 760l80 -5l14 -481l8 -10z" />
    <glyph glyph-name="uni21A4" unicode="&#x21a4;" horiz-adv-x="1527" 
d="M1208 545v385h113v-879h-113v385h-790v-14l332 -348l-54 -60l-598 475v3l598 475l54 -60l-332 -350v-12h790z" />
    <glyph glyph-name="uni21A5" unicode="&#x21a5;" horiz-adv-x="1220" 
d="M698 1128h-12v-1019h365v-109h-848v109h368v1019h-12l-348 -329l-59 51l475 598h4l473 -598l-57 -51z" />
    <glyph glyph-name="uni21A6" unicode="&#x21a6;" horiz-adv-x="1527" 
d="M784 907l52 60l598 -475v-3l-598 -475l-52 60l330 350v12h-790v-385h-113v879h113v-385h790v14z" />
    <glyph glyph-name="uni21A7" unicode="&#x21a7;" horiz-adv-x="1220" 
d="M786 295l349 330l59 -52l-475 -598h-4l-473 598l57 52l348 -330h12v1020h-366v108h846v-108h-365v-1020h12z" />
    <glyph glyph-name="uni21B0" unicode="&#x21b0;" horiz-adv-x="1638" 
d="M526 1049h906v-1049h-113v942h-793v-14l332 -350l-53 -58l-598 473v4l598 476l53 -60l-332 -350v-14z" />
    <glyph glyph-name="uni21B1" unicode="&#x21b1;" horiz-adv-x="1427" 
d="M821 1413l53 60l599 -476v-4l-599 -473l-53 58l332 350v14h-793v-942h-110v1049h903v14z" />
    <glyph glyph-name="uni21B2" unicode="&#x21b2;" horiz-adv-x="1429" 
d="M1190 512v942h113v-1048h-904v-15l330 -350l-51 -59l-598 475v4l598 473l51 -57l-330 -351v-14h791z" />
    <glyph glyph-name="uni21B3" unicode="&#x21b3;" horiz-adv-x="1638" 
d="M903 877l51 57l598 -473v-4l-598 -475l-51 59l330 350v15h-903v1048h112v-942h791v14z" />
    <glyph glyph-name="partialdiff" unicode="&#x2202;" horiz-adv-x="1173" 
d="M68 428q0 192 127.5 325.5t328.5 133.5q122 0 218 -63.5t147 -170.5h10q8 76 8 125q0 260 -139 414q-139 157 -416 154v102q361 12 561.5 -180t200.5 -527q1 -121 -25 -236t-78 -211.5t-124 -169t-167 -112t-202 -37.5q-194 0 -322 128t-128 325zM858 541
q-25 91 -98.5 145.5t-175.5 54.5q-144 0 -226 -102q-84 -104 -84 -256q0 -137 67.5 -222t182.5 -85q138 0 230 132.5t104 332.5z" />
    <glyph glyph-name="emptyset" unicode="&#x2205;" horiz-adv-x="1224" 
d="M961 850q68 -68 105.5 -162.5t37.5 -202.5q0 -216 -141.5 -363t-348.5 -147q-149 0 -274 84l-104 -135l-76 58l108 137q-143 153 -143 366q0 215 141 361.5t348 146.5q153 0 275 -84l106 135l74 -57zM338 207l483 616q-97 60 -207 60q-161 0 -267.5 -113t-106.5 -285
q0 -165 98 -278zM991 485q0 165 -98 277l-485 -617q94 -61 206 -61q161 0 269 114.5t108 286.5z" />
    <glyph glyph-name="Delta" unicode="&#x2206;" horiz-adv-x="1282" 
d="M1118 0h-1157v90l844 1333h133l180 -1333v-90zM113 121v-12h798v8l-139 1030h-12z" />
    <glyph glyph-name="product" unicode="&#x220f;" horiz-adv-x="1509" 
d="M1608 1370q-88 -15 -122.5 -56.5t-64.5 -162.5l-225 -907q-14 -52 -14 -94q0 -41 21.5 -64t70.5 -33v-53h-463v53q79 13 116 52t60 133l268 1077h-587l-267 -1059q-16 -75 -16 -106q0 -44 21 -65t71 -32v-53h-463v53q86 15 120.5 55t62.5 154l221 891q22 86 22 123
q0 41 -20.5 61.5t-71.5 32.5v53h1260v-53z" />
    <glyph glyph-name="summation" unicode="&#x2211;" horiz-adv-x="1454" 
d="M485 178h795v-178h-1001v96l454 594l-459 637v96h990v-305h-56q-23 111 -81 158t-175 47h-426v-8l363 -504v-96l-404 -529v-8z" />
    <glyph glyph-name="minus" unicode="&#x2212;" horiz-adv-x="1167" 
d="M1051 428h-932v111h932v-111z" />
    <glyph glyph-name="uni2215" unicode="&#x2215;" horiz-adv-x="1030" 
d="M1174 1423h139l-1329 -1423h-142z" />
    <glyph glyph-name="radical" unicode="&#x221a;" horiz-adv-x="1034" 
d="M823 1423h437v-108h-355l-407 -1315h-164l-262 795h121l219 -666h8z" />
    <glyph glyph-name="infinity" unicode="&#x221e;" horiz-adv-x="1490" 
d="M129 541q0 138 87 226.5t216 88.5q182 0 318 -217h10q69 111 144.5 164t170.5 53q128 0 214.5 -88.5t86.5 -226.5q0 -137 -87 -227.5t-214 -90.5q-95 0 -170 52.5t-145 164.5h-10q-73 -111 -149.5 -164t-168.5 -53q-133 0 -218 89t-85 229zM702 541q-68 113 -128 162
t-138 49q-86 0 -141 -58.5t-55 -152.5t55 -152.5t141 -58.5q74 0 136 49.5t130 161.5zM1266 541q0 92 -55 151.5t-140 59.5q-74 0 -134.5 -49.5t-129.5 -161.5q67 -114 126.5 -162.5t137.5 -48.5q85 0 140 59t55 152z" />
    <glyph glyph-name="integral" unicode="&#x222b;" horiz-adv-x="604" 
d="M-41 -281v103q55 -21 113 -21q106 0 161.5 62t55.5 180v1212q0 163 82 255t225 92q80 0 133 -27v-102q-50 20 -113 20q-104 0 -159.5 -61.5t-55.5 -178.5v-1216q0 -164 -81.5 -254t-229.5 -90q-69 0 -131 26z" />
    <glyph glyph-name="approxequal" unicode="&#x2248;" horiz-adv-x="1181" 
d="M137 551q-1 121 64 195.5t170 74.5q91 0 200 -59l86 -47q100 -53 152 -53q61 0 94 40.5t33 114.5h115q0 -121 -66 -194.5t-172 -73.5q-87 0 -199 59l-88 47q-91 52 -149 52q-61 0 -94 -41t-33 -115h-113zM137 160q-1 121 64 195.5t170 74.5q91 0 200 -59l86 -47
q102 -54 152 -54q61 0 94 41t33 115h115q0 -121 -66 -194.5t-172 -73.5q-87 0 -199 59l-88 47q-89 51 -149 51q-61 0 -94 -40.5t-33 -114.5h-113z" />
    <glyph glyph-name="notequal" unicode="&#x2260;" horiz-adv-x="1294" 
d="M1114 721v-111h-371l-88 -250h459v-110h-496l-88 -250h-110l88 250h-326v110h363l88 250h-451v111h490l86 248h110l-86 -248h332z" />
    <glyph glyph-name="lessequal" unicode="&#x2264;" horiz-adv-x="1249" 
d="M1067 313v-118l-932 337v121l932 340v-123l-774 -276v-8zM1067 98v-112h-932v112h932z" />
    <glyph glyph-name="greaterequal" unicode="&#x2265;" horiz-adv-x="1308" 
d="M1120 532l-932 -337v118l775 273v8l-775 276v123l932 -340v-121zM1120 -14h-932v112h932v-112z" />
    <glyph glyph-name="angleleft" unicode="&#x2329;" horiz-adv-x="657" 
d="M401 -305l-84 -14l-229 991l707 946l73 -43l-563 -944z" />
    <glyph glyph-name="angleright" unicode="&#x232a;" horiz-adv-x="657" 
d="M338 1599l84 15l229 -991l-706 -947l-76 43l565 945z" />
    <glyph glyph-name="uni2460" unicode="&#x2460;" horiz-adv-x="1677" 
d="M150 625q-3 173 64 332.5t182 274.5t274.5 182.5t333.5 64.5q283 0 465 -183t182 -465q2 -139 -40 -270.5t-121.5 -237.5t-185 -185.5t-237.5 -122t-272 -40.5q-182 -3 -331 82.5t-232.5 236t-81.5 331.5zM1546 829q0 240 -154 395.5t-391 155.5q-154 3 -294.5 -56.5
t-240 -162t-157.5 -242.5t-55 -292q0 -242 152 -397.5t391 -155.5q204 -4 378.5 99t274.5 278.5t96 377.5zM762 311l127 510h-260v78q181 12 266.5 64t136.5 190h103l-209 -842h-164z" />
    <glyph glyph-name="uni2461" unicode="&#x2461;" horiz-adv-x="1730" 
d="M176 625q-3 173 64 332.5t182 274.5t274.5 182.5t333.5 64.5q283 0 465 -183t182 -465q2 -139 -40 -270.5t-121.5 -237.5t-185 -185.5t-237.5 -122t-272 -40.5q-182 -3 -331 82.5t-232.5 236t-81.5 331.5zM1573 829q0 240 -154 395.5t-391 155.5q-154 3 -294.5 -56.5
t-240 -162t-157.5 -242.5t-55 -292q0 -242 151.5 -397.5t390.5 -155.5q153 -3 293.5 57.5t241 163t159.5 243t56 291.5zM559 324v84l281 182q131 83 188 147.5t57 145.5q0 74 -49 117.5t-125 43.5q-98 0 -178 -65l-45 51q121 148 293 148q115 0 199 -75.5t84 -180.5
q0 -70 -34.5 -130.5t-90 -107.5t-150.5 -106l-139 -84v-9h307v-161h-598z" />
    <glyph glyph-name="uni2462" unicode="&#x2462;" horiz-adv-x="1730" 
d="M176 625q-3 173 64 332.5t182 274.5t274.5 182.5t333.5 64.5q283 0 465 -183t182 -465q2 -139 -40 -270.5t-121.5 -237.5t-185 -185.5t-237.5 -122t-272 -40.5q-182 -3 -331 82.5t-232.5 236t-81.5 331.5zM1573 829q0 240 -154 395.5t-391 155.5q-154 3 -294.5 -56.5
t-240 -162t-157.5 -242.5t-55 -292q0 -242 151.5 -397.5t390.5 -155.5q153 -3 293.5 57.5t241 163t159.5 243t56 291.5zM539 475l49 41q87 -90 205 -90q92 0 148 45t56 117q0 112 -147 121v79l227 195v8h-344v162h570v-84l-336 -283v-10q88 -17 140 -73t52 -134
q0 -117 -92 -194q-91 -76 -223 -76q-100 0 -177.5 47t-127.5 129z" />
    <glyph glyph-name="uni2463" unicode="&#x2463;" horiz-adv-x="1730" 
d="M178 625q-3 173 64 332.5t182 274.5t274.5 182.5t333.5 64.5q283 0 465 -183t182 -465q2 -139 -40 -270.5t-121.5 -237.5t-185 -185.5t-237.5 -122t-272 -40.5q-182 -3 -331 82.5t-232.5 236t-81.5 331.5zM1575 829q0 240 -154 395.5t-391 155.5q-154 3 -294.5 -56.5
t-240 -162t-157.5 -242.5t-55 -292q0 -242 151.5 -397.5t390.5 -155.5q153 -3 293.5 57.5t241 163t159.5 243t56 291.5zM989 324h-151l53 204h-399v84l622 553h86l-125 -499h166v-138h-201zM678 674v-8h246l71 280h-8z" />
    <glyph glyph-name="uni2464" unicode="&#x2464;" horiz-adv-x="1730" 
d="M176 625q-3 173 64 332.5t182 274.5t274.5 182.5t333.5 64.5q283 0 465 -183t182 -465q2 -139 -40 -270.5t-121.5 -237.5t-185 -185.5t-237.5 -122t-272 -40.5q-182 -3 -331 82.5t-232.5 236t-81.5 331.5zM1573 829q0 240 -154 395.5t-391 155.5q-154 3 -294.5 -56.5
t-240 -162t-157.5 -242.5t-55 -292q0 -242 151.5 -397.5t390.5 -155.5q153 -3 293.5 57.5t241 163t159.5 243t56 291.5zM518 465l49 41q92 -92 207 -92q98 0 160.5 48.5t62.5 123.5q0 61 -43.5 96t-117.5 35q-91 0 -179 -58h-10l193 484h434v-162h-416l-82 -207h8
q70 55 156 55q92 0 153.5 -66t61.5 -169q0 -128 -96.5 -216.5t-235.5 -88.5q-195 0 -305 176z" />
    <glyph glyph-name="uni2465" unicode="&#x2465;" horiz-adv-x="1730" 
d="M176 625q-3 173 64 332.5t182 274.5t274.5 182.5t333.5 64.5q283 0 465 -183t182 -465q2 -139 -40 -270.5t-121.5 -237.5t-185 -185.5t-237.5 -122t-272 -40.5q-182 -3 -331 82.5t-232.5 236t-81.5 331.5zM1573 829q0 240 -154 395.5t-391 155.5q-154 3 -294.5 -56.5
t-240 -162t-157.5 -242.5t-55 -292q0 -242 151.5 -397.5t390.5 -155.5q153 -3 293.5 57.5t241 163t159.5 243t56 291.5zM561 532q-8 36 -8 95q0 103 37 202t104 172q153 166 357 166q136 0 233 -71l-29 -58q-74 39 -170 39q-134 0 -225 -86.5t-117 -238.5h11q84 90 194 90
q95 0 163.5 -68.5t68.5 -167.5q0 -135 -98 -226t-236 -91q-111 0 -188 66.5t-97 176.5zM1014 590q0 67 -36.5 107t-92.5 40q-104 0 -162 -104l-6 -53q-2 -10 -2 -43q0 -76 31.5 -121t91.5 -45q78 0 127 63t49 156z" />
    <glyph glyph-name="uni2466" unicode="&#x2466;" horiz-adv-x="1730" 
d="M176 625q-3 173 64 332.5t182 274.5t274.5 182.5t333.5 64.5q283 0 465 -183t182 -465q2 -139 -40 -270.5t-121.5 -237.5t-185 -185.5t-237.5 -122t-272 -40.5q-182 -3 -331 82.5t-232.5 236t-81.5 331.5zM1573 829q0 240 -154 395.5t-391 155.5q-154 3 -294.5 -56.5
t-240 -162t-157.5 -242.5t-55 -292q0 -242 151.5 -397.5t390.5 -155.5q153 -3 293.5 57.5t241 163t159.5 243t56 291.5zM1321 1057l-530 -746h-240v8l610 652v6h-459v164h619v-84z" />
    <glyph glyph-name="uni2467" unicode="&#x2467;" horiz-adv-x="1730" 
d="M176 625q-3 173 64 332.5t182 274.5t274.5 182.5t333.5 64.5q283 0 465 -183t182 -465q2 -139 -40 -270.5t-121.5 -237.5t-185 -185.5t-237.5 -122t-272 -40.5q-182 -3 -331 82.5t-232.5 236t-81.5 331.5zM1573 829q0 240 -154 395.5t-391 155.5q-154 3 -294.5 -56.5
t-240 -162t-157.5 -242.5t-55 -292q0 -242 151.5 -397.5t390.5 -155.5q153 -3 293.5 57.5t241 163t159.5 243t56 291.5zM547 526q0 92 70.5 156t195.5 84v8q-63 20 -96 61t-33 97q0 104 90 169.5t230 65.5q120 0 197 -60t77 -149q0 -81 -59.5 -137t-163.5 -76v-8
q76 -19 120 -68.5t44 -117.5q0 -120 -102 -191t-265 -71q-139 0 -222 65.5t-83 171.5zM1112 975q0 50 -28.5 81t-77.5 31q-67 0 -112.5 -53t-45.5 -129q0 -49 29 -80.5t73 -31.5q69 0 115.5 52t46.5 130zM1053 582q0 61 -38.5 97t-101.5 36q-86 0 -144 -59t-58 -146
q0 -63 39 -102t102 -39q82 0 141.5 63t59.5 150z" />
    <glyph glyph-name="uni2468" unicode="&#x2468;" horiz-adv-x="1730" 
d="M176 625q-3 173 64 332.5t182 274.5t274.5 182.5t333.5 64.5q283 0 465 -183t182 -465q2 -139 -40 -270.5t-121.5 -237.5t-185 -185.5t-237.5 -122t-272 -40.5q-182 -3 -331 82.5t-232.5 236t-81.5 331.5zM1573 829q0 240 -154 395.5t-391 155.5q-154 3 -294.5 -56.5
t-240 -162t-157.5 -242.5t-55 -292q0 -242 151.5 -397.5t390.5 -155.5q153 -3 293.5 57.5t241 163t159.5 243t56 291.5zM1290 922q8 -36 8 -95q0 -103 -37 -202t-104 -172q-153 -166 -356 -166q-137 0 -234 71l29 58q74 -39 170 -39q134 0 225 86.5t117 238.5h-10
q-84 -90 -195 -90q-95 0 -163 68.5t-68 167.5q0 135 98 226t236 91q111 0 187 -66.5t97 -176.5zM838 864q0 -67 36.5 -107t92.5 -40q103 0 161 104l7 53q2 10 2 44q0 76 -31.5 120.5t-91.5 44.5q-78 0 -127 -63t-49 -156z" />
    <glyph glyph-name="uni24EA" unicode="&#x24ea;" horiz-adv-x="1730" 
d="M176 625q-3 173 64 332.5t182 274.5t274.5 182.5t333.5 64.5q283 0 465 -183t182 -465q2 -139 -40 -270.5t-121.5 -237.5t-185 -185.5t-237.5 -122t-272 -40.5q-182 -3 -331 82.5t-232.5 236t-81.5 331.5zM1573 829q0 240 -154 395.5t-391 155.5q-154 3 -294.5 -56.5
t-240 -162t-157.5 -242.5t-55 -292q0 -242 151.5 -397.5t390.5 -155.5q153 -3 293.5 57.5t241 163t159.5 243t56 291.5zM524 645q0 142 62.5 262t171.5 190t239 70q152 0 242 -100q94 -98 94 -252q0 -143 -62.5 -264t-171.5 -191.5t-239 -70.5q-150 0 -244 98
q-92 103 -92 258zM1157 842q0 109 -43 168t-121 59q-85 0 -154 -68.5t-104 -172t-35 -214.5q0 -108 43 -167.5t119 -59.5q86 0 155.5 70t104.5 173t35 212z" />
    <glyph glyph-name="uni24FF" unicode="&#x24ff;" horiz-adv-x="1730" 
d="M1679 844q3 -176 -65.5 -338.5t-186 -279.5t-280 -185.5t-340.5 -65.5q-183 0 -328 82t-226 227.5t-81 327.5q-4 175 64 336.5t185 278.5t280 186t341 66q185 0 330.5 -81t226 -226t80.5 -328zM522 645q0 -155 92 -258q94 -98 244 -98q130 0 239 70.5t171.5 191.5
t62.5 264q0 154 -94 252q-90 100 -242 100q-130 0 -239 -70t-171.5 -190t-62.5 -262zM1155 842q0 -109 -35 -212t-104.5 -173t-155.5 -70q-76 0 -119 59.5t-43 167.5q0 111 35 214.5t104 172t154 68.5q78 0 121 -59t43 -168z" />
    <glyph glyph-name="lozenge" unicode="&#x25ca;" horiz-adv-x="1193" 
d="M516 0h-100l-260 727l635 696h100l260 -731zM545 197h12l408 448l-203 576h-12l-408 -445z" />
    <glyph glyph-name="openbullet" unicode="&#x25e6;" horiz-adv-x="921" 
d="M178 516q0 139 105 240.5t245 101.5q109 0 180.5 -74t71.5 -180q0 -138 -106.5 -240t-247.5 -102q-107 0 -178 74q-70 73 -70 180zM684 600q0 70 -46 117t-118 47q-97 0 -172.5 -74t-75.5 -172q0 -70 45.5 -116t118.5 -46q97 0 172.5 74t75.5 170z" />
    <glyph glyph-name="uni2776" unicode="&#x2776;" horiz-adv-x="1675" 
d="M1653 844q2 -141 -41 -274.5t-124 -241t-189 -188.5t-242.5 -124t-276.5 -41q-183 0 -328 82t-226 227.5t-81 327.5q-4 175 64 336.5t185 278.5t280.5 186t341.5 66q185 0 330.5 -81t226 -226t80.5 -328zM885 821l-127 -510h164l208 842h-102q-51 -138 -136.5 -190
t-266.5 -64v-78h260z" />
    <glyph glyph-name="uni2777" unicode="&#x2777;" horiz-adv-x="1675" 
d="M1655 846q2 -141 -41 -274.5t-124 -241t-189 -188.5t-242.5 -124t-276.5 -41q-183 0 -328 82t-226 227.5t-81 327.5q-4 175 64 336.5t185 278.5t280.5 186t341.5 66q185 0 330.5 -81t226 -226t80.5 -328zM530 410v-84h598v161h-307v9l140 84q143 89 208.5 165.5
t65.5 178.5q0 105 -84 180.5t-199 75.5q-172 0 -293 -148l46 -51q81 66 178 66q76 0 125 -44t49 -118q0 -81 -57.5 -145.5t-188.5 -147.5z" />
    <glyph glyph-name="uni2778" unicode="&#x2778;" horiz-adv-x="1675" 
d="M1655 848q3 -176 -65.5 -338t-186 -279t-280.5 -185.5t-341 -65.5q-183 0 -328 81.5t-226 227t-81 327.5q-4 175 64 336.5t185 278.5t280.5 186t341.5 66q185 0 330.5 -81t226 -226t80.5 -328zM559 520l-49 -41q50 -82 127.5 -129t177.5 -47q132 0 223 76q92 77 92 194
q0 78 -52 134t-140 73v11l336 282v84h-569v-162h344v-8l-228 -194v-80q148 -9 148 -121q0 -72 -56.5 -117t-148.5 -45q-118 0 -205 90z" />
    <glyph glyph-name="uni2779" unicode="&#x2779;" horiz-adv-x="1675" 
d="M1655 848q3 -176 -65.5 -338t-186 -279t-280.5 -185.5t-341 -65.5q-183 0 -328 81.5t-226 227t-81 327.5q-4 175 64 336.5t185 278.5t280.5 186t341.5 66q185 0 330.5 -81t226 -226t80.5 -328zM809 328h152l51 204h200v138h-165l124 499h-86l-622 -553v-84h399zM649 670
v8l309 272h9l-72 -280h-246z" />
    <glyph glyph-name="uni277A" unicode="&#x277a;" horiz-adv-x="1675" 
d="M1655 848q3 -176 -65.5 -338t-186 -279t-280.5 -185.5t-341 -65.5q-183 0 -328 81.5t-226 227t-81 327.5q-4 175 64 336.5t185 278.5t280.5 186t341.5 66q185 0 330.5 -81t226 -226t80.5 -328zM539 510l-50 -41q110 -176 306 -176q138 0 234.5 88t96.5 217
q0 103 -61.5 169.5t-153.5 66.5q-84 0 -155 -56h-8l81 207h416v162h-434l-193 -483h11q86 57 178 57q74 0 118 -35t44 -96q0 -75 -63 -123.5t-161 -48.5q-114 0 -206 92z" />
    <glyph glyph-name="uni277B" unicode="&#x277b;" horiz-adv-x="1675" 
d="M1655 848q3 -176 -65.5 -338t-186 -279t-280.5 -185.5t-341 -65.5q-183 0 -328 81.5t-226 227t-81 327.5q-4 175 64 336.5t185 278.5t280.5 186t341.5 66q185 0 330.5 -81t226 -226t80.5 -328zM532 537q21 -110 97.5 -177t187.5 -67q138 0 236 91t98 226q0 99 -68 167.5
t-163 68.5q-111 0 -195 -90h-10q26 152 117 238.5t225 86.5q96 0 170 -39l28 58q-97 71 -233 71q-204 0 -356 -165q-67 -73 -104.5 -172.5t-37.5 -202.5q0 -58 8 -94zM985 594q0 -93 -49 -156t-127 -63q-60 0 -91.5 45t-31.5 121q0 33 2 43l6 53q58 104 162 104
q56 0 92.5 -40t36.5 -107z" />
    <glyph glyph-name="uni277C" unicode="&#x277c;" horiz-adv-x="1675" 
d="M1653 844q2 -141 -41 -274.5t-124 -241t-189 -188.5t-242.5 -124t-276.5 -41q-183 0 -328 82t-226 227.5t-81 327.5q-4 175 64 336.5t185 278.5t280.5 186t341.5 66q185 0 330.5 -81t226 -226t80.5 -328zM760 311l530 746v84h-618v-164h458v-6l-610 -652v-8h240z" />
    <glyph glyph-name="uni277D" unicode="&#x277d;" horiz-adv-x="1675" 
d="M1655 848q3 -176 -65.5 -338t-186 -279t-280.5 -185.5t-341 -65.5q-183 0 -328 81.5t-226 227t-81 327.5q-4 175 64 336.5t185 278.5t280.5 186t341.5 66q185 0 330.5 -81t226 -226t80.5 -328zM516 530q0 -106 83 -171.5t222 -65.5q163 0 265 71t102 191q0 68 -44 117.5
t-120 68.5v9q104 20 163.5 76t59.5 137q0 89 -77 148.5t-197 59.5q-140 0 -230 -65.5t-90 -169.5q0 -56 33 -97t96 -61v-8q-125 -20 -195.5 -84t-70.5 -156zM1081 979q0 -78 -46 -130t-115 -52q-45 0 -74 31.5t-29 80.5q0 76 45.5 129.5t112.5 53.5q49 0 77.5 -31.5
t28.5 -81.5zM1022 586q0 -87 -59.5 -150t-141.5 -63q-63 0 -102 39t-39 102q0 86 58.5 145.5t144.5 59.5q63 0 101 -36t38 -97z" />
    <glyph glyph-name="uni277E" unicode="&#x277e;" horiz-adv-x="1675" 
d="M1655 848q3 -176 -65.5 -338t-186 -279t-280.5 -185.5t-341 -65.5q-183 0 -328 81.5t-226 227t-81 327.5q-4 175 64 336.5t185 278.5t280.5 186t341.5 66q185 0 330.5 -81t226 -226t80.5 -328zM1264 926q-20 110 -97 176.5t-188 66.5q-138 0 -236 -91t-98 -226
q0 -99 68.5 -167.5t163.5 -68.5q109 0 194 91h10q-26 -152 -117.5 -239t-224.5 -87q-96 0 -170 39l-28 -58q97 -71 233 -71q203 0 356 166q67 73 104.5 172t37.5 202q0 59 -8 95zM811 868q0 93 49 156t127 63q60 0 91.5 -44.5t31.5 -120.5q0 -33 -2 -43l-6 -54
q-58 -104 -162 -104q-56 0 -92.5 40t-36.5 107z" />
    <glyph glyph-name="uni300A" unicode="&#x300a;" horiz-adv-x="1064" 
d="M401 -305l-84 -14l-229 991l707 946l75 -45l-579 -938zM807 -305l-84 -14l-223 966l704 971l74 -43l-578 -967z" />
    <glyph glyph-name="uni300B" unicode="&#x300b;" horiz-adv-x="1064" 
d="M344 1599l82 15l225 -967l-704 -971l-76 43l578 967zM750 1599l81 15l230 -991l-707 -947l-73 45l577 938z" />
    <glyph glyph-name="uni300C" unicode="&#x300c;" horiz-adv-x="712" 
d="M977 1593v-92h-393l-207 -825h-191l230 917h561z" />
    <glyph glyph-name="uni300D" unicode="&#x300d;" horiz-adv-x="464" 
d="M-424 -299v92h393l207 825h193l-232 -917h-561z" />
    <glyph glyph-name="uni300E" unicode="&#x300e;" horiz-adv-x="870" 
d="M588 676h-402l230 917h686l-62 -245h-284zM537 1524l-195 -779h123l168 670h285l26 109h-407z" />
    <glyph glyph-name="uni300F" unicode="&#x300f;" horiz-adv-x="761" 
d="M258 602h404l-230 -917h-686l59 245h287zM309 -246l195 778h-123l-168 -669h-285l-26 -109h407z" />
    <glyph glyph-name="uni3010" unicode="&#x3010;" horiz-adv-x="677" 
d="M2 -299l471 1892h485v-8q-308 -250 -481 -586q-170 -335 -170 -696q0 -331 180 -594v-8h-485z" />
    <glyph glyph-name="uni3011" unicode="&#x3011;" horiz-adv-x="675" 
d="M758 1593l-471 -1892h-486v8q314 255 482 586q172 334 172 696q0 330 -183 594v8h486z" />
    <glyph glyph-name="uni3014" unicode="&#x3014;" horiz-adv-x="624" 
d="M410 -258l-70 -64l-330 342l324 1301l487 299l49 -80l-342 -211l-340 -1358z" />
    <glyph glyph-name="uni3015" unicode="&#x3015;" horiz-adv-x="624" 
d="M297 1552l70 64l329 -342l-323 -1301l-488 -299l-49 80l342 211l340 1358z" />
    <glyph glyph-name="uniE000" unicode="&#xe000;" horiz-adv-x="1648" 
d="M1829 1409l-1049 -1434l-641 861l97 71l546 -735l953 1305z" />
    <glyph glyph-name="uniE001" unicode="&#xe001;" horiz-adv-x="2162" 
d="M1935 1280h-1585v113h1585v-113zM1935 672h-1585v110h1585v-110zM1935 61h-1585v113h1585v-113z" />
    <glyph glyph-name="uniE002" unicode="&#xe002;" horiz-adv-x="2103" 
d="M1839 0h-1454v1454h1454v-1454zM502 1346v-1237h1220v1237h-1220z" />
    <glyph glyph-name="uniE003" unicode="&#xe003;" horiz-adv-x="2041" 
d="M1722 113v559h117v-672h-1454v1454h909v-113h-792v-1228h1220zM1096 315l-416 592l98 64l324 -463l721 940l88 -66z" />
    <glyph glyph-name="uniE004" unicode="&#xe004;" horiz-adv-x="1374" 
d="M1087 711l-473 -598h557v-113h-1118v113h557l-475 598l60 51l348 -330h12v991h115v-991h12l348 330z" />
    <glyph glyph-name="uniE005" unicode="&#xe005;" horiz-adv-x="1376" 
d="M598 745v678h113v-678h14l348 330l57 -53l-475 -598h-2l-475 598l60 53l346 -330h14zM1214 0h-1118v113h1118v-113z" />
    <glyph glyph-name="uniF8FF" unicode="&#xf8ff;" horiz-adv-x="1832" 
d="M455 336q0 20 20 49q23 31 84 92q-99 -22 -133 -22q-115 0 -170 28q-63 34 -63 82q0 41 53 84q-66 39 -115 88q-64 70 -76 135q-8 44 -8 68q0 58 37 125q47 80 109 125q30 22 131 65q63 29 108 41q103 33 225 45l111 15l80 12q49 6 100 6q63 0 142 -8q105 -11 177.5 -27
t159.5 -49q98 -40 230 -139q86 -68 86 -188q0 -76 -43 -146q-28 -48 -65 -79.5t-107 -71.5q43 -49 53 -78q6 -18 6 -33q0 -62 -104 -88q-75 -16 -133 -16q-6 0 -16.5 0.5t-30.5 1.5t-35 2l-68 6q33 -44 41 -72q2 -4 2 -18q0 -31 -29 -37l-28 -4q-30 0 -74 30
q-38 -32 -70 -32q-29 0 -51 22q-47 -35 -69 -35q-21 0 -58 29q-39 -20 -55 -20q-18 0 -39 24q-42 -33 -80 -33q-41 0 -82 41q-20 -26 -40.5 -38.5t-51.5 -12.5q-49 0 -59 23q-2 2 -2 8zM791 1235q-113 -9 -166 -21q-79 -19 -88 -49q-2 -2 -2 -12q0 -15 8 -23q26 -33 73 -51
q40 -18 138 -28q82 -7 141 -7q67 0 102 3q172 9 217 90q13 28 5 41q-15 27 -78 36q-33 6 -56 11q-66 14 -96 14q-108 0 -198 -4zM1280 739q54 12 106 45q54 39 54 76q0 25 -4 45q-12 44 -50 68q-45 26 -90 26q-103 0 -157 -16q-117 -36 -140 -156l-2 -16q0 -28 12.5 -43
t43.5 -29q42 -22 88 -22q24 0 54.5 5t55.5 11t29 6zM649 711q55 13 93.5 56t33.5 85q-9 86 -78 113q-59 26 -147 26q-87 0 -174 -37q-101 -44 -101 -86q0 -88 78 -125q43 -19 95 -32q52 -15 114 -15q15 0 32.5 3t33.5 7zM795 485q10 0 25.5 22.5t23.5 47.5q15 50 12 78
q-3 15 -20 43q-6 6 -13 6q-5 0 -16 -8q-23 -14 -33 -41q-22 -51 -16 -86l6 -35l14 -23q16 -4 17 -4zM977 512l6 35q6 35 -16 86q-12 31 -35 41q-14 14 -27 2q-18 -28 -20 -43q-3 -28 12 -78q8 -25 23.5 -47.5t25.5 -22.5q1 0 17 4q1 1 14 23zM674 72q-13 8 -56 28
q-73 35 -106 64q-28 22 -43 43q-10 23 -4 31q9 18 33 18q34 0 90 -35q20 20 34 27.5t37 7.5q39 0 72 -23q44 23 70 23q32 0 69 -29q4 2 17.5 11t27.5 15.5t25 6.5q16 0 26 -6t29 -25l1 2q2 2 4.5 5t6 6t8.5 6.5t11 6t14.5 4t18.5 1.5q29 0 41.5 -9t27.5 -36q23 27 31 33
q30 24 55 24q2 0 5.5 -0.5t10 -1.5t11.5 -2q26 -7 47 -28q8 -8 8 -17q0 -10 -20 -43q-9 -15 -51 -51l-72 -59q-83 -62 -184 -62q-57 0 -111 4q-96 9 -184 60z" />
    <glyph glyph-name="AE.ss07" horiz-adv-x="1867" 
d="M1061 1423h915l-75 -307h-58q2 10 2 41q0 83 -60 120.5t-198 37.5h-291l-135 -541h129q218 0 264 150h58l-103 -408h-57q4 36 4 37q0 57 -43 85t-135 28h-143l-140 -557h351q136 0 220.5 58.5t127.5 190.5h57l-90 -358h-1026v53q93 22 129 60t61 143l47 190h-446
l-150 -190q-46 -59 -64.5 -91t-18.5 -56q0 -38 55 -56v-53h-377v53q78 26 139.5 74.5t136.5 142.5zM512 555h387l174 696h-12z" />
    <glyph glyph-name="AEacute.ss07" horiz-adv-x="1867" 
d="M1819 1833v-6l-324 -287h-92l158 293h258zM1061 1423h915l-75 -307h-58q2 10 2 41q0 83 -60 120.5t-198 37.5h-291l-135 -541h129q218 0 264 150h58l-103 -408h-57q4 36 4 37q0 57 -43 85t-135 28h-143l-140 -557h351q136 0 220.5 58.5t127.5 190.5h57l-90 -358h-1026v53
q93 22 129 60t61 143l47 190h-446l-150 -190q-46 -59 -64.5 -91t-18.5 -56q0 -38 55 -56v-53h-377v53q78 26 139.5 74.5t136.5 142.5zM512 555h387l174 696h-12z" />
    <glyph glyph-name="uni01E2.ss07" horiz-adv-x="1867" 
d="M1237 1716h608v-102h-608v102zM1061 1423h915l-75 -307h-58q2 10 2 41q0 83 -60 120.5t-198 37.5h-291l-135 -541h129q218 0 264 150h58l-103 -408h-57q4 36 4 37q0 57 -43 85t-135 28h-143l-140 -557h351q136 0 220.5 58.5t127.5 190.5h57l-90 -358h-1026v53
q93 22 129 60t61 143l47 190h-446l-150 -190q-46 -59 -64.5 -91t-18.5 -56q0 -38 55 -56v-53h-377v53q78 26 139.5 74.5t136.5 142.5zM512 555h387l174 696h-12z" />
    <glyph glyph-name="C.ss07" horiz-adv-x="1398" 
d="M150 614q-3 161 59 314t171 269t268.5 185.5t338.5 65.5q137 0 262.5 -33t208.5 -88l-72 -291h-57q-7 140 -101 219.5t-249 79.5q-125 3 -238.5 -54t-192 -152t-124 -220t-43.5 -254q0 -238 133.5 -375t339.5 -137q120 0 221 41.5t199 128.5l51 -49
q-117 -150 -251 -219.5t-298 -69.5q-123 -2 -238 44t-202 128t-138 204.5t-48 262.5z" />
    <glyph glyph-name="Cacute.ss07" horiz-adv-x="1398" 
d="M995 1540h-92l158 293h258v-6zM150 614q-3 161 59 314t171 269t268.5 185.5t338.5 65.5q137 0 262.5 -33t208.5 -88l-72 -291h-57q-7 140 -101 219.5t-249 79.5q-125 3 -238.5 -54t-192 -152t-124 -220t-43.5 -254q0 -238 133.5 -375t339.5 -137q120 0 221 41.5
t199 128.5l51 -49q-117 -150 -251 -219.5t-298 -69.5q-123 -2 -238 44t-202 128t-138 204.5t-48 262.5z" />
    <glyph glyph-name="Ccaron.ss07" horiz-adv-x="1398" 
d="M1266 1827h116l-329 -291h-105l-174 291h98l156 -135zM150 614q-3 161 59 314t171 269t268.5 185.5t338.5 65.5q137 0 262.5 -33t208.5 -88l-72 -291h-57q-7 140 -101 219.5t-249 79.5q-125 3 -238.5 -54t-192 -152t-124 -220t-43.5 -254q0 -238 133.5 -375t339.5 -137
q120 0 221 41.5t199 128.5l51 -49q-117 -150 -251 -219.5t-298 -69.5q-123 -2 -238 44t-202 128t-138 204.5t-48 262.5z" />
    </font>
</defs>
</svg>
