<?xml version="1.0" standalone="no"?>
<!DOCTYPE svg PUBLIC "-//W3C//DTD SVG 1.1//EN" "http://www.w3.org/Graphics/SVG/1.1/DTD/svg11.dtd" >
<svg xmlns="http://www.w3.org/2000/svg" xmlns:xlink="http://www.w3.org/1999/xlink" version="1.1">
<metadata>
Created by FontForge 20170731 at Mon Mar 14 16:57:57 2022
 By Aleksey,,,
Copyright 2021 Dinamo (Johannes Breyer, Fabian Harb). All rights reserved.
</metadata>
<defs>
<font id="ABCArizonaMix-Bold" horiz-adv-x="1228" >
  <font-face 
    font-family="ABC Arizona Mix"
    font-weight="700"
    font-stretch="normal"
    units-per-em="2048"
    panose-1="2 0 0 4 0 2 0 6 0 3"
    ascent="1735"
    descent="-313"
    x-height="969"
    cap-height="1423"
    bbox="-371 -545 2542 1913"
    underline-thickness="102"
    underline-position="-307"
    unicode-range="U+000D-FB02"
  />
<missing-glyph horiz-adv-x="1294" 
d="M1149 0h-993v1454h993v-1454zM324 1311v-1168h657v1168h-657z" />
    <glyph glyph-name="fi" unicode="fi" horiz-adv-x="1277" 
d="M219 1028q0 214 142 334.5t370 120.5q191 0 348 -60v-270h-57q-45 92 -121.5 143.5t-173.5 51.5q-105 0 -170 -65.5t-65 -176.5v-137h634v-797q0 -62 16 -84t64 -27v-61h-436v61q50 6 67 28t17 83v657h-362v-657q0 -61 21.5 -84t86.5 -27v-61h-469v61q51 5 69.5 27.5
t18.5 83.5v657h-196v140h196v59z" />
    <glyph glyph-name="fl" unicode="fl" horiz-adv-x="1292" 
d="M219 829h-196v140h196v57q0 88 26 163.5t70.5 128.5t104 91t126.5 56t138 18q135 0 252 -51l194 32h13v-1274q0 -76 15 -98t69 -31v-61h-441v61q52 6 68 30.5t16 98.5v1061q-27 44 -75.5 70.5t-104.5 26.5q-94 0 -146 -65t-52 -193v-121h253v-140h-253v-651
q0 -71 20.5 -91t87.5 -26v-61h-469v61q40 7 55.5 15t24 32t8.5 76v645z" />
    <glyph glyph-name="f_b" unicode="fb" horiz-adv-x="1929" 
d="M221 829h-196v140h196v57q0 88 26 163.5t70.5 128.5t104 91t126.5 56t138 18q135 0 252 -51l195 32h12v-630h16q102 163 289 163q176 0 295 -135t119 -354q0 -150 -61.5 -272t-175 -193.5t-257.5 -71.5q-82 0 -159 30.5t-130 76.5h-16l-80 -78h-113v1251
q-27 44 -75.5 70.5t-104.5 26.5q-94 0 -146 -65t-52 -193v-121h254v-140h-254v-651q0 -71 20.5 -91t87.5 -26v-61h-469v61q40 7 55.5 15t24 32t8.5 76v645zM1583 473q0 164 -60.5 255t-166.5 91q-70 0 -125 -41t-86 -106v-303q0 -127 51.5 -199t142.5 -72q114 0 179 105
t65 270z" />
    <glyph glyph-name="f_f" unicode="ff" horiz-adv-x="1464" 
d="M1516 1450v-236h-58q-14 59 -57 96.5t-107 37.5q-69 0 -110 -43.5t-41 -126.5v-209h254v-140h-254v-628q0 -49 2.5 -72t15.5 -38.5t31 -20t59 -9.5v-61h-469v61q41 7 56.5 16t23.5 36t8 88v628h-378v-641q0 -79 19 -100t89 -27v-61h-469v61q39 7 55 15.5t24.5 33.5
t8.5 78v641h-196v140h196v51q0 127 66 226.5t173 151.5t234 52q171 0 293 -82q124 115 318 115q125 0 213 -33zM870 1073q0 55 17 125q-74 117 -195 117q-92 0 -146 -63.5t-54 -180.5v-102h378v104z" />
    <glyph glyph-name="f_f_b" unicode="ffb" horiz-adv-x="2570" 
d="M2505 508q0 -150 -61.5 -272t-175 -193.5t-257.5 -71.5q-82 0 -159 30.5t-130 76.5h-16l-80 -78h-113v1251q-27 44 -75.5 70.5t-104.5 26.5q-94 0 -146 -65t-52 -193v-121h254v-140h-254v-651q0 -71 20.5 -91t87.5 -26v-61h-469v61q40 7 55.5 15t24 32t8.5 76v645h-370
v-641q0 -79 19 -100t89 -27v-61h-469v61q39 7 55 15.5t24.5 33.5t8.5 78v641h-196v140h196v51q0 127 66 226.5t173 151.5t234 52q174 0 305 -88q65 59 151.5 90t178.5 31q135 0 252 -51l195 32h12v-630h16q102 163 289 163q176 0 295 -135t119 -354zM862 1026q0 90 27 166
q-33 58 -84.5 90.5t-112.5 32.5q-92 0 -146 -63.5t-54 -180.5v-102h370v57zM2224 473q0 164 -60.5 255t-166.5 91q-70 0 -125 -41t-86 -106v-303q0 -127 51.5 -199t142.5 -72q114 0 179 105t65 270z" />
    <glyph glyph-name="f_f_h" unicode="ffh" horiz-adv-x="2527" 
d="M2376 186q0 -72 16.5 -95.5t67.5 -29.5v-61h-441v61q55 6 69.5 27t14.5 98v443q0 92 -35 141t-98 49q-58 0 -106 -41t-76 -106v-486q0 -77 14.5 -98t69.5 -27v-61h-440v61q51 6 67.5 28.5t16.5 96.5v1065q-27 43 -76 70t-105 27q-94 0 -146 -65t-52 -193v-121h254v-140
h-254v-651q0 -71 20.5 -91t87.5 -26v-61h-469v61q40 7 55.5 15t24 32t8.5 76v645h-372v-641q0 -79 19 -100t89 -27v-61h-469v61q39 7 55 15.5t24.5 33.5t8.5 78v641h-196v140h196v51q0 127 66 226.5t173 151.5t234 52q176 0 307 -90q65 60 151 91.5t179 31.5q135 0 252 -51
l195 32h12v-630h16q94 163 273 163q137 0 218 -96t81 -266v-449zM864 1026q0 91 25 164q-33 58 -84.5 91.5t-112.5 33.5q-92 0 -146 -63.5t-54 -180.5v-102h372v57z" />
    <glyph glyph-name="f_f_i" unicode="ffi" horiz-adv-x="1929" 
d="M1778 172q0 -62 16 -84t64 -27v-61h-437v61q50 6 67 28t17 83v657h-362v-657q0 -61 21.5 -84t86.5 -27v-61h-469v61q51 5 69.5 27.5t18.5 83.5v657h-378v-641q0 -79 19 -100t89 -27v-61h-469v61q39 7 55 15.5t24.5 33.5t8.5 78v641h-196v140h196v51q0 127 66 226.5
t173 151.5t234 52q183 0 314 -94q139 127 376 127q192 0 349 -60v-270h-58q-45 92 -121.5 143.5t-173.5 51.5q-105 0 -170 -65.5t-65 -176.5v-137h635v-797zM870 1028q0 76 23 156q-32 62 -85 96.5t-116 34.5q-92 0 -146 -63.5t-54 -180.5v-102h378v59z" />
    <glyph glyph-name="f_f_k" unicode="ffk" horiz-adv-x="2521" 
d="M2058 610l484 -598v-12h-342l-332 426l-82 -78v-141q0 -93 14 -116.5t70 -29.5v-61h-440v61q53 6 68 31.5t15 114.5v1044q-27 44 -75.5 70.5t-104.5 26.5q-94 0 -146 -65t-52 -193v-121h254v-140h-254v-651q0 -71 20.5 -91t87.5 -26v-61h-469v61q40 7 55.5 15t24 32
t8.5 76v645h-370v-641q0 -79 19 -100t89 -27v-61h-469v61q39 7 55 15.5t24.5 33.5t8.5 78v641h-196v140h196v51q0 127 66 226.5t173 151.5t234 52q174 0 305 -88q65 59 151.5 90t178.5 31q135 0 252 -51l195 32h12v-929h12l279 272q41 41 41 65q0 29 -52 35v62h418v-62
q-80 -7 -129.5 -34.5t-118.5 -92.5zM862 1026q0 90 27 166q-33 58 -84.5 90.5t-112.5 32.5q-92 0 -146 -63.5t-54 -180.5v-102h370v57z" />
    <glyph glyph-name="f_f_l" unicode="ffl" horiz-adv-x="1933" 
d="M1784 190q0 -76 15 -98t69 -31v-61h-441v61q52 6 68 30.5t16 98.5v1061q-27 44 -75.5 70.5t-104.5 26.5q-94 0 -146 -65t-52 -193v-121h253v-140h-253v-651q0 -71 20.5 -91t87.5 -26v-61h-469v61q40 7 55.5 15t24 32t8.5 76v645h-368v-641q0 -79 19 -100t89 -27v-61h-469
v61q39 7 55 15.5t24.5 33.5t8.5 78v641h-196v140h196v51q0 127 66 226.5t173 151.5t234 52q174 0 305 -88q133 121 328 121q135 0 252 -51l195 32h12v-1274zM860 1026q0 88 27 168q-32 57 -83.5 89t-111.5 32q-92 0 -146 -63.5t-54 -180.5v-102h368v57z" />
    <glyph glyph-name="f_h" unicode="fh" horiz-adv-x="1873" 
d="M221 829h-196v140h196v57q0 88 26 163.5t70.5 128.5t104 91t126.5 56t138 18q135 0 252 -51l195 32h12v-630h16q94 163 273 163q137 0 218 -96t81 -266v-449q0 -72 16.5 -95.5t67.5 -29.5v-61h-441v61q55 6 69.5 27t14.5 98v443q0 92 -35 141t-98 49q-58 0 -106 -41
t-76 -106v-486q0 -77 14.5 -98t69.5 -27v-61h-441v61q51 6 67.5 28.5t16.5 96.5v1065q-27 44 -75.5 70.5t-104.5 26.5q-94 0 -146 -65t-52 -193v-121h254v-140h-254v-651q0 -71 20.5 -91t87.5 -26v-61h-469v61q40 7 55.5 15t24 32t8.5 76v645z" />
    <glyph glyph-name="f_k" unicode="fk" horiz-adv-x="1878" 
d="M1415 610l483 -598v-12h-342l-331 426l-82 -78v-141q0 -93 14 -116.5t70 -29.5v-61h-441v61q54 6 69 31.5t15 114.5v1044q-27 44 -75.5 70.5t-104.5 26.5q-94 0 -146 -65t-52 -193v-121h253v-140h-253v-651q0 -71 20.5 -91t87.5 -26v-61h-469v61q40 7 55.5 15t24 32
t8.5 76v645h-196v140h196v57q0 88 26 163.5t70.5 128.5t104 91t126.5 56t138 18q135 0 252 -51l194 32h13v-929h12l279 272q41 41 41 65q0 29 -52 35v62h418v-62q-80 -7 -129.5 -34.5t-118.5 -92.5z" />
    <glyph glyph-name=".notdef" horiz-adv-x="1294" 
d="M1149 0h-993v1454h993v-1454zM324 1311v-1168h657v1168h-657z" />
    <glyph glyph-name=".null" horiz-adv-x="0" 
 />
    <glyph glyph-name="nonmarkingreturn" horiz-adv-x="682" 
 />
    <glyph glyph-name="NULL" horiz-adv-x="0" 
 />
    <glyph glyph-name="NULL" horiz-adv-x="0" 
 />
    <glyph glyph-name="CR" unicode="&#xd;" horiz-adv-x="0" 
 />
    <glyph glyph-name="space" unicode=" " horiz-adv-x="462" 
 />
    <glyph glyph-name="exclam" unicode="!" horiz-adv-x="552" 
d="M344 424h-135l-96 999h327zM109 141q0 72 49 120t121 48q71 0 120.5 -49.5t49.5 -118.5q0 -72 -49 -122t-121 -50t-121 50t-49 122z" />
    <glyph glyph-name="quotedbl" unicode="&#x22;" horiz-adv-x="827" 
d="M268 803h-108l-72 620h252zM670 803h-109l-72 620h252z" />
    <glyph glyph-name="numbersign" unicode="#" horiz-adv-x="1351" 
d="M1284 1012v-133h-268l-64 -349h244v-133h-268l-74 -397h-141l73 397h-333l-74 -397h-141l73 397h-243v133h268l63 349h-243v133h268l76 411h141l-76 -411h334l76 411h141l-76 -411h244zM477 530h334l63 349h-333z" />
    <glyph glyph-name="dollar" unicode="$" horiz-adv-x="1089" 
d="M627 -16v-168h-119v155h-14q-230 0 -422 131v334h65q55 -165 146.5 -248.5t210.5 -83.5h14v449l-133 63q-131 62 -200 155.5t-69 211.5q0 167 109 285q111 120 293 147v166h119v-158q92 -1 187 -25t165 -61v-329h-64q-35 133 -108.5 204.5t-179.5 77.5v-459l110 -53
q273 -129 273 -366q0 -159 -105 -275t-278 -153zM508 887v387q-65 -24 -102 -73.5t-37 -119.5q0 -120 139 -194zM627 131q57 27 89 73.5t32 108.5q0 112 -121 183v-365z" />
    <glyph glyph-name="percent" unicode="%" horiz-adv-x="1654" 
d="M57 1065q0 165 99 272t252 107t253.5 -107t100.5 -272t-100.5 -273t-253.5 -108q-152 0 -251.5 107.5t-99.5 273.5zM1395 1423h-162l-979 -1423h162zM537 1065q0 260 -129 260q-125 0 -125 -260q0 -262 125 -262q62 0 95.5 66.5t33.5 195.5zM895 365q0 165 98.5 271.5
t251.5 106.5t253.5 -106.5t100.5 -271.5t-100.5 -273t-253.5 -108q-152 0 -251 107.5t-99 273.5zM1374 365q0 260 -129 260q-125 0 -125 -260q0 -263 125 -263q62 0 95.5 67t33.5 196z" />
    <glyph glyph-name="ampersand" unicode="&#x26;" horiz-adv-x="1394" 
d="M1061 381l328 -371v-10h-332l-142 162h-14q-83 -97 -177 -144t-224 -47q-184 0 -311.5 110t-127.5 271q0 125 71.5 214.5t223.5 170.5l39 21l-4 4q-92 101 -130 178t-38 164q0 149 121 248.5t293 99.5q165 0 275 -84.5t110 -212.5q0 -106 -63.5 -185.5t-196.5 -150.5
l-62 -33l267 -301h16l86 324h283v-10zM473 1145q0 -64 28 -115.5t105 -136.5l8 -8h13l14 8q141 81 141 248q0 81 -39 127.5t-110 46.5q-69 0 -114.5 -48.5t-45.5 -121.5zM834 256l-355 406h-12q-125 -85 -125 -230q0 -116 74.5 -189t195.5 -73q133 0 222 86z" />
    <glyph glyph-name="quotesingle" unicode="'" horiz-adv-x="428" 
d="M268 803h-108l-72 620h252z" />
    <glyph glyph-name="parenleft" unicode="(" horiz-adv-x="677" 
d="M522 -322q-230 245 -341 476.5t-111 494.5q0 264 112 497.5t340 475.5l92 -59q-252 -419 -252 -914q0 -493 252 -911z" />
    <glyph glyph-name="parenright" unicode=")" horiz-adv-x="677" 
d="M156 1616q230 -245 341 -476.5t111 -494.5q0 -264 -112 -497.5t-340 -475.5l-93 60q252 418 252 913q0 493 -252 911z" />
    <glyph glyph-name="asterisk" unicode="*" horiz-adv-x="888" 
d="M442 993l-94 -278l-172 104l191 217l-2 4l-271 -57v209l273 -62l2 5l-193 223l174 96l94 -276h5l94 276l172 -96l-195 -223l2 -2l275 59v-209l-271 57l-2 -4l191 -217l-174 -104l-95 278h-4z" />
    <glyph glyph-name="plus" unicode="+" horiz-adv-x="1179" 
d="M664 555h411v-143h-411v-404h-148v404h-410v143h410v408h148v-408z" />
    <glyph glyph-name="comma" unicode="," horiz-adv-x="516" 
d="M432 117q0 -47 -16 -91t-54 -112l-147 -264h-123l184 321h-16q-78 0 -128 47t-50 121q0 73 49 121.5t119 48.5q81 0 131.5 -54.5t50.5 -137.5z" />
    <glyph glyph-name="hyphen" unicode="-" horiz-adv-x="802" 
d="M692 532h-579v156h579v-156z" />
    <glyph glyph-name="period" unicode="." horiz-adv-x="501" 
d="M82 141q0 72 49 120t121 48t121 -49.5t49 -118.5q0 -72 -49 -122t-121 -50t-121 50t-49 122z" />
    <glyph glyph-name="slash" unicode="/" horiz-adv-x="739" 
d="M551 1505h164l-525 -1585h-163z" />
    <glyph glyph-name="zero" unicode="0" horiz-adv-x="1261" 
d="M90 690q0 212 69 379t192 259.5t280 92.5t280 -92.5t191.5 -259.5t68.5 -379q0 -211 -68.5 -375t-191.5 -254t-280 -90t-280 90t-192 254t-69 375zM874 690q0 287 -62 435.5t-181 148.5q-118 0 -181 -149.5t-63 -434.5q0 -283 62.5 -427t181.5 -144q243 0 243 571z" />
    <glyph glyph-name="one" unicode="1" horiz-adv-x="829" 
d="M356 0v961h-290v118q184 11 277 82t116 232h184v-1393h-287z" />
    <glyph glyph-name="two" unicode="2" horiz-adv-x="1077" 
d="M983 0h-915v123l360 352q138 138 197 237t59 216q0 130 -80.5 209.5t-214.5 79.5q-160 0 -276 -113l-74 80q184 237 453 237q211 0 343 -120.5t132 -309.5t-160 -362q-69 -74 -203 -193l-192 -168v-16h571v-252z" />
    <glyph glyph-name="three" unicode="3" horiz-adv-x="1126" 
d="M43 231l72 76q59 -57 145 -93t174 -36q138 0 220.5 70t82.5 192q0 119 -90 175.5t-252 56.5v123l318 329v17h-596v252h917v-123l-444 -455v-16q205 -18 319.5 -125t114.5 -266q0 -132 -73 -233.5t-186.5 -152.5t-244.5 -51q-284 0 -477 260z" />
    <glyph glyph-name="four" unicode="4" horiz-adv-x="1288" 
d="M948 0h-256v336h-672v123l775 934h153v-824h295v-233h-295v-336zM676 1055l-387 -469v-17h403v486h-16z" />
    <glyph glyph-name="five" unicode="5" horiz-adv-x="1110" 
d="M37 231l69 76q139 -129 326 -129q136 0 216.5 72.5t80.5 191.5q0 110 -77.5 175t-211.5 65q-141 0 -278 -76h-12l108 787h746v-252h-652l-51 -365h16q105 90 275 90q82 0 158 -29.5t135.5 -82t95 -132t35.5 -171.5q0 -207 -140.5 -343.5t-367.5 -136.5q-284 0 -471 260z
" />
    <glyph glyph-name="six" unicode="6" horiz-adv-x="1220" 
d="M145 297q-57 134 -57 315q0 272 131 486q93 147 239 229t322 82q208 0 359 -111l-52 -106q-107 63 -249 63q-212 0 -332 -140.5t-139 -401.5h16q51 82 135.5 128t194.5 46q172 0 292.5 -119.5t120.5 -310.5q0 -138 -69 -249.5t-186.5 -174t-258.5 -62.5q-162 0 -283 87
t-184 239zM840 418q0 131 -64 211t-172 80q-79 0 -140.5 -46t-92.5 -118v-86q0 -165 59.5 -257.5t169.5 -92.5q106 0 173 85t67 224z" />
    <glyph glyph-name="seven" unicode="7" horiz-adv-x="1040" 
d="M813 1120v17h-756v256h963v-123l-582 -1270h-340v12z" />
    <glyph glyph-name="eight" unicode="8" horiz-adv-x="1245" 
d="M86 385q0 133 91 226t247 124v17q-131 31 -208 113t-77 194q0 163 133.5 262.5t350.5 99.5q219 0 351 -99.5t132 -262.5q0 -112 -78 -195t-209 -114v-17q157 -30 249.5 -123t92.5 -225q0 -188 -148.5 -301t-389.5 -113q-242 0 -389.5 113t-147.5 301zM821 1047
q0 106 -53 168.5t-145 62.5q-91 0 -144 -62.5t-53 -168.5q0 -107 53.5 -173.5t143.5 -66.5t144 66.5t54 173.5zM874 387q0 128 -68 204.5t-183 76.5q-113 0 -181.5 -77t-68.5 -204q0 -122 69.5 -197t180.5 -75q113 0 182 74.5t69 197.5z" />
    <glyph glyph-name="nine" unicode="9" horiz-adv-x="1210" 
d="M66 100l51 105q129 -66 260 -66q211 0 330.5 142.5t138.5 420.5h-17q-46 -76 -133 -124t-190 -48q-108 0 -200 50.5t-149 145.5t-57 214q0 137 67 248t180.5 172t248.5 61q150 0 264.5 -74t183.5 -210q80 -165 80 -363q0 -254 -118 -457q-92 -157 -242.5 -245t-333.5 -88
q-206 0 -364 116zM842 866v105q0 144 -58.5 229.5t-165.5 85.5q-101 0 -167 -80.5t-66 -206.5q0 -128 61.5 -208t161.5 -80q150 0 234 155z" />
    <glyph glyph-name="colon" unicode=":" horiz-adv-x="561" 
d="M113 141q0 72 49 120t121 48q71 0 120.5 -49.5t49.5 -118.5q0 -72 -49 -122t-121 -50t-121 50t-49 122zM113 838q0 72 49 120t121 48q71 0 120.5 -49t49.5 -119q0 -72 -49 -122t-121 -50t-121 50t-49 122z" />
    <glyph glyph-name="semicolon" unicode=";" horiz-adv-x="569" 
d="M113 838q0 72 49 120t121 48q71 0 120.5 -49t49.5 -119q0 -72 -49 -122t-121 -50t-121 50t-49 122zM463 117q0 -47 -16 -91t-54 -112l-147 -264h-123l184 321h-16q-78 0 -128 47t-50 121q0 73 49 121.5t119 48.5q81 0 131.5 -54.5t50.5 -137.5z" />
    <glyph glyph-name="less" unicode="&#x3c;" horiz-adv-x="1138" 
d="M1042 141v-155l-968 430v133l968 432v-158l-763 -336v-12z" />
    <glyph glyph-name="equal" unicode="=" horiz-adv-x="1196" 
d="M1083 596h-968v143h968v-143zM1083 231h-968v144h968v-144z" />
    <glyph glyph-name="greater" unicode="&#x3e;" horiz-adv-x="1138" 
d="M1065 416l-969 -430v155l764 334v12l-764 336v158l969 -432v-133z" />
    <glyph glyph-name="question" unicode="?" horiz-adv-x="1021" 
d="M391 682q147 60 216 138t69 186q0 107 -78.5 174t-206.5 67q-171 0 -299 -125l-69 76q82 121 201.5 187.5t269.5 66.5q193 0 325.5 -111.5t132.5 -279.5q0 -148 -109.5 -265t-297.5 -192v-180h-154v258zM297 141q0 72 49 120t121 48q71 0 120.5 -49.5t49.5 -118.5
q0 -72 -49 -122t-121 -50t-121 50t-49 122z" />
    <glyph glyph-name="at" unicode="@" horiz-adv-x="1581" 
d="M70 475q-3 159 57.5 304t163.5 248.5t245.5 164t297.5 57.5q197 3 356.5 -83.5t248 -240.5t85.5 -343q0 -209 -106 -344.5t-269 -135.5q-80 0 -143 31t-95 90h-16q-89 -121 -225 -121q-112 0 -189.5 84.5t-77.5 233.5q0 117 53 222t148 170t207 65q126 0 203 -80h16
l86 63h92l-102 -485q-4 -20 -4 -47q0 -46 21 -72.5t61 -26.5q83 0 140.5 95t57.5 251q0 239 -153.5 392t-394.5 153q-123 3 -238 -48t-198.5 -138t-133 -208t-47.5 -251q0 -178 79 -319t217.5 -219t309.5 -78q192 0 361 94l51 -103q-180 -120 -418 -120q-156 -2 -295 53.5
t-239 154t-157.5 238.5t-55.5 299zM864 311l56 271q8 31 8 67q0 59 -28.5 90t-78.5 31q-85 0 -143 -94q-57 -89 -57 -223q0 -92 37.5 -144.5t101.5 -52.5q58 0 104 55z" />
    <glyph glyph-name="A" unicode="A" horiz-adv-x="1454" 
d="M1292 252q41 -95 74 -137q37 -37 100 -54v-61h-579v61q59 10 83.5 29t24.5 51q0 28 -28 101l-66 161h-506l-59 -147q-29 -82 -29 -102q0 -38 31 -60.5t100 -32.5v-61h-448v61q70 12 102.5 47.5t69.5 129.5l477 1185h164zM637 1012l-184 -465h389l-189 465h-16z" />
    <glyph glyph-name="B" unicode="B" horiz-adv-x="1380" 
d="M86 61q79 15 101 47.5t22 143.5v928q0 104 -22.5 135.5t-100.5 46.5v61h651q236 0 371 -92.5t135 -249.5q0 -123 -89 -210.5t-247 -116.5v-17q193 -20 297.5 -110t104.5 -228q0 -172 -146 -285.5t-397 -113.5h-680v61zM662 813q128 0 199 60.5t71 179.5q0 116 -70 173.5
t-200 57.5h-150v-471h150zM512 674v-535h154q155 0 239 71t84 202q0 262 -323 262h-154z" />
    <glyph glyph-name="C" unicode="C" horiz-adv-x="1423" 
d="M76 702q-2 132 39 251.5t115.5 210t173.5 156.5t216.5 100t239.5 32q241 0 430 -100v-348h-65q-55 154 -141.5 227.5t-211.5 73.5q-137 0 -243 -73.5t-161.5 -197t-55.5 -276.5q0 -256 147 -410.5t377 -154.5t405 147l76 -78q-231 -291 -575 -291q-157 -2 -298 49.5
t-245.5 145.5t-164.5 233.5t-58 302.5z" />
    <glyph glyph-name="D" unicode="D" horiz-adv-x="1583" 
d="M213 1196q0 90 -24 122t-99 44v61h602q374 0 594.5 -192.5t220.5 -515.5q0 -325 -220.5 -520t-594.5 -195h-602v61q34 6 53.5 13.5t35 19t22 33t9.5 50.5t3 77v942zM639 139q258 0 395 143.5t137 432.5q0 286 -137 427.5t-395 141.5h-123v-1145h123z" />
    <glyph glyph-name="E" unicode="E" horiz-adv-x="1298" 
d="M1233 395v-395h-1145v61q32 8 47 12.5t31.5 14.5t22 19t11.5 31t7.5 45.5t3.5 66.5v944q0 94 -23 123.5t-100 44.5v61h1102v-342h-66q-14 74 -45.5 116.5t-92.5 62.5t-163 20h-309v-492h229q119 0 168.5 35t61.5 117h65v-442h-65q-8 81 -57.5 114t-172.5 33h-229v-502
h352q139 0 208 54.5t93 197.5h66z" />
    <glyph glyph-name="F" unicode="F" horiz-adv-x="1202" 
d="M88 61q76 12 99.5 44.5t23.5 132.5v952q0 97 -23.5 128.5t-99.5 43.5v61h1059v-342h-66q-24 110 -90.5 154.5t-218.5 44.5h-258v-508h213q127 0 177 32.5t61 119.5h65v-443h-65q-11 82 -62.5 115t-175.5 33h-213v-391q0 -100 27 -132.5t116 -44.5v-61h-569v61z" />
    <glyph glyph-name="G" unicode="G" horiz-adv-x="1521" 
d="M891 733h567v-61q-72 -15 -92 -48.5t-20 -142.5v-377q-242 -133 -500 -133q-222 0 -397.5 93t-274 261t-98.5 380q-4 208 107.5 380.5t308.5 271t436 95.5q273 0 469 -100v-340h-62q-52 148 -147.5 220.5t-247.5 72.5q-162 0 -283 -78t-183 -210.5t-62 -299.5
q0 -129 33 -239t95 -191t156.5 -126.5t210.5 -45.5q60 0 135 16v342q0 114 -28 149t-123 50v61z" />
    <glyph glyph-name="H" unicode="H" horiz-adv-x="1681" 
d="M1591 1362q-30 -7 -45 -11.5t-31.5 -13.5t-23.5 -19t-13.5 -28t-8 -41t-1.5 -59v-957q0 -36 1.5 -59t8 -41t13.5 -28t23.5 -19t31.5 -13.5t45 -11.5v-61h-549v61q30 7 45 11.5t31.5 13.5t23.5 19t13.5 28t8 41t1.5 59v416h-651v-416q0 -36 1.5 -59t8 -41t13.5 -28
t23.5 -19t31.5 -13.5t45 -11.5v-61h-549v61q30 7 45 11.5t31.5 13.5t23.5 19t13.5 28t8 41t1.5 59v957q0 36 -1.5 59t-8 41t-13.5 28t-23.5 19t-31.5 13.5t-45 11.5v61h549v-61q-30 -7 -45 -11.5t-31.5 -13.5t-23.5 -19t-13.5 -28t-8 -41t-1.5 -59v-397h651v397
q0 36 -1.5 59t-8 41t-13.5 28t-23.5 19t-31.5 13.5t-45 11.5v61h549v-61z" />
    <glyph glyph-name="I" unicode="I" horiz-adv-x="724" 
d="M88 61q30 7 45 11.5t31.5 13.5t23.5 19t13.5 28t8 41t1.5 59v957q0 36 -1.5 59t-8 41t-13.5 28t-23.5 19t-31.5 13.5t-45 11.5v61h549v-61q-30 -7 -45 -11.5t-31.5 -13.5t-23.5 -19t-13.5 -28t-8 -41t-1.5 -59v-957q0 -36 1.5 -59t8 -41t13.5 -28t23.5 -19t31.5 -13.5
t45 -11.5v-61h-549v61z" />
    <glyph glyph-name="J" unicode="J" horiz-adv-x="1024" 
d="M2 78l41 102q102 -45 209 -45q128 0 203 75t75 228v762q0 86 -23.5 117t-98.5 45v61h548v-61q-77 -15 -99.5 -45t-22.5 -117v-717q0 -258 -142 -385q-139 -127 -360 -127q-184 0 -330 107z" />
    <glyph glyph-name="K" unicode="K" horiz-adv-x="1488" 
d="M829 852l701 -844v-8h-400l-505 633l-111 -119v-281q0 -36 1.5 -59t8 -41t13.5 -28t23.5 -19t31.5 -13.5t45 -11.5v-61h-549v61q30 7 45 11.5t31.5 13.5t23.5 19t13.5 28t8 41t1.5 59v957q0 36 -1.5 59t-8 41t-13.5 28t-23.5 19t-31.5 13.5t-45 11.5v61h549v-61
q-30 -7 -45 -11.5t-31.5 -13.5t-23.5 -19t-13.5 -28t-8 -41t-1.5 -59v-447h14l428 465q66 69 66 103q0 33 -72 51v61h498v-61q-96 -8 -164 -51q-67 -42 -154 -135z" />
    <glyph glyph-name="L" unicode="L" horiz-adv-x="1196" 
d="M88 61q75 14 99 46t24 120v955q0 54 -3 80.5t-15.5 50t-36.5 33.5t-68 16v61h549v-61q-44 -6 -68 -16t-36.5 -33.5t-15.5 -50t-3 -80.5v-1039h270q69 0 115.5 12.5t84.5 44.5t62 88.5t41 145.5h66v-434h-1065v61z" />
    <glyph glyph-name="M" unicode="M" horiz-adv-x="1935" 
d="M827 0l-442 1108h-16v-840q0 -116 24 -157t99 -50v-61h-406v61q72 8 97.5 50t25.5 157v928q0 86 -24.5 120t-98.5 46v61h487l404 -1007h16l387 1007h469v-61q-78 -15 -100.5 -44.5t-22.5 -125.5v-946q2 -43 3 -66t8 -45t11.5 -30.5t22 -18t31 -13.5t47.5 -12v-61h-549v61
q37 9 54.5 15t34 17t22 30.5t9 47.5t3.5 75v848h-16l-416 -1094h-164z" />
    <glyph glyph-name="N" unicode="N" horiz-adv-x="1542" 
d="M92 61q71 6 97 49.5t26 145.5v1016l-104 139v12h430l624 -921h17v672q0 101 -26 141t-97 47v61h405v-61q-73 -7 -98 -47t-25 -141v-1174h-204l-746 1098h-16v-842q0 -105 25.5 -147t97.5 -48v-61h-406v61z" />
    <glyph glyph-name="O" unicode="O" horiz-adv-x="1646" 
d="M78 711q-2 126 33.5 241.5t103 206.5t159 158t207 102t242.5 33q211 3 384 -92.5t270.5 -267t93.5 -381.5q3 -158 -53.5 -296.5t-156.5 -236.5t-240 -153.5t-298 -53.5q-211 -3 -383 92.5t-268.5 266t-93.5 381.5zM1235 711q0 273 -109 430t-303 157q-191 0 -300 -157.5
t-109 -429.5q0 -273 107.5 -428.5t301.5 -155.5t303 155.5t109 428.5z" />
    <glyph glyph-name="P" unicode="P" horiz-adv-x="1261" 
d="M514 563v-319q0 -103 25.5 -137t113.5 -46v-61h-565v61q74 11 98.5 46.5t24.5 132.5v964q0 82 -25.5 115t-97.5 43v61h559q260 0 418 -110q160 -112 160 -316q0 -203 -159.5 -318.5t-418.5 -115.5h-133zM514 1284v-582h107q138 0 213 74.5t75 218.5q0 141 -75 215
t-213 74h-107z" />
    <glyph glyph-name="Q" unicode="Q" horiz-adv-x="1652" 
d="M1200 109h465v-259h-12l-621 148q-108 -27 -213 -27q-127 -2 -243 33.5t-206.5 103t-157 158.5t-101.5 205t-33 238q-2 155 53 293.5t152.5 238t237 156.5t298.5 55q213 3 385 -93.5t267 -264t92 -369.5q0 -206 -103 -371t-260 -229v-16zM819 127q191 0 299.5 154
t108.5 428q0 276 -109 432.5t-299 156.5q-189 0 -297 -156.5t-108 -432.5q0 -274 107.5 -428t297.5 -154z" />
    <glyph glyph-name="R" unicode="R" horiz-adv-x="1427" 
d="M1468 8v-8h-376l-504 666h-76v-420q2 -42 3.5 -65t7.5 -44.5t11.5 -30.5t22 -18.5t31.5 -14t47 -12.5v-61h-549v61q43 11 63 19t36 28t20 50.5t4 87.5v948q0 91 -22.5 122t-100.5 46v61h602q240 0 388.5 -100.5t148.5 -267.5q0 -121 -83.5 -212t-230.5 -134zM512 805h111
q135 0 210.5 64.5t75.5 181.5q0 113 -76 173t-204 60h-117v-479z" />
    <glyph glyph-name="S" unicode="S" horiz-adv-x="1112" 
d="M78 104v340h65q112 -325 365 -325q103 0 173.5 54.5t70.5 145.5q0 68 -41 118t-127 89l-205 97q-266 123 -266 381q0 196 145.5 322t374.5 126q96 0 196.5 -24.5t174.5 -63.5v-336h-66q-75 277 -315 277q-104 0 -169 -54.5t-65 -146.5q0 -66 40 -115t126 -90l211 -100
q268 -129 268 -379q0 -194 -150 -321.5t-376 -127.5q-232 0 -430 133z" />
    <glyph glyph-name="T" unicode="T" horiz-adv-x="1302" 
d="M356 61q36 6 54 9.5t37 12.5t26 19t14 31t9 45t4 66v1040h-88q-146 0 -219.5 -52.5t-92.5 -166.5h-65v358h1233v-358h-66q-19 114 -92 166.5t-219 52.5h-88v-1040q2 -50 6 -77t10.5 -47.5t25 -30.5t38.5 -15.5t63 -12.5v-61h-590v61z" />
    <glyph glyph-name="U" unicode="U" horiz-adv-x="1562" 
d="M193 602v582q0 70 -11.5 104.5t-35 48.5t-76.5 25v61h548v-61q-79 -15 -100.5 -45t-21.5 -133v-582q0 -195 91 -307.5t267 -112.5q168 0 262 109.5t94 312.5v574q0 101 -26.5 138.5t-96.5 45.5v61h406v-61q-70 -8 -96.5 -45.5t-26.5 -138.5v-574q0 -300 -151 -466.5
t-428 -166.5q-284 0 -441 165t-157 466z" />
    <glyph glyph-name="V" unicode="V" horiz-adv-x="1427" 
d="M805 0h-176l-463 1167q-38 95 -70 133.5t-98 61.5v61h582v-61q-61 -12 -87 -33t-26 -57q0 -42 33 -121l284 -729h17l286 739q33 79 33 119q0 31 -23 50t-77 32v61h420v-61q-75 -26 -113 -74q-34 -43 -74 -143z" />
    <glyph glyph-name="W" unicode="W" horiz-adv-x="2041" 
d="M172 1118q-43 132 -72 172q-36 49 -98 72v61h578v-61q-63 -19 -89 -45t-26 -70q0 -45 24 -125l195 -663h16l244 715l-90 249h338l305 -934h16l195 654q27 85 27 125q0 39 -24 60.5t-83 33.5v61h412v-61q-65 -20 -99 -66t-65 -153l-344 -1143h-182l-308 940h-16l-324 -940
h-184z" />
    <glyph glyph-name="X" unicode="X" horiz-adv-x="1445" 
d="M578 688l-369 526q-53 74 -93 105t-104 43v61h602v-61q-75 -9 -75 -59q0 -41 39 -97l178 -270h16l189 264q45 62 45 103q0 50 -80 59v61h438v-61q-72 -14 -113 -47q-32 -23 -108 -125l-291 -393l408 -561q66 -88 102 -119q40 -34 113 -56v-61h-611v61q76 15 76 66
q0 36 -43 100l-221 322h-17l-223 -299q-49 -70 -49 -113q0 -58 82 -76v-61h-463v61q78 27 129 68q47 39 121 135z" />
    <glyph glyph-name="Y" unicode="Y" horiz-adv-x="1435" 
d="M1012 1423h432v-61q-81 -26 -129 -66t-92 -118l-351 -598v-330q0 -40 1.5 -66t8 -46t13 -31t23.5 -20t32 -14t45 -12v-61h-549v61q34 8 47.5 12t31 13.5t22 18t11.5 30.5t8 45t3 66v315l-360 627q-43 75 -85 112t-114 62v61h596v-61q-86 -21 -86 -74q0 -27 41 -104
l230 -410h16l227 397q53 90 53 125q0 24 -17 39t-58 27v61z" />
    <glyph glyph-name="Z" unicode="Z" horiz-adv-x="1263" 
d="M63 0v123l750 1145v12h-340q-136 0 -204.5 -55.5t-94.5 -186.5h-65v385h1069v-123l-750 -1144v-13h358q146 0 218 56t108 213h66v-412h-1115z" />
    <glyph glyph-name="bracketleft" unicode="[" horiz-adv-x="731" 
d="M705 1593v-135h-256v-1622h256v-135h-533v1892h533z" />
    <glyph glyph-name="backslash" unicode="\" horiz-adv-x="741" 
d="M193 1505l522 -1585h-168l-522 1585h168z" />
    <glyph glyph-name="bracketright" unicode="]" horiz-adv-x="731" 
d="M27 -299v135h256v1622h-256v135h532v-1892h-532z" />
    <glyph glyph-name="asciicircum" unicode="^" horiz-adv-x="870" 
d="M219 793h-158l291 630h168l291 -630h-162l-209 483h-12z" />
    <glyph glyph-name="underscore" unicode="_" horiz-adv-x="1019" 
d="M971 -231h-922v143h922v-143z" />
    <glyph glyph-name="grave" unicode="`" horiz-adv-x="473" 
d="M330 1438l106 -324h-110l-289 313v11h293z" />
    <glyph glyph-name="a" unicode="a" horiz-adv-x="1034" 
d="M1016 59q-116 -84 -234 -84q-85 0 -137.5 45t-52.5 117v2h-17q-44 -82 -111 -125t-149 -43q-107 0 -178 67.5t-71 172.5q0 106 84 173.5t253 113.5l189 53v80q0 90 -56 139t-145 49q-121 0 -258 -90l-57 80q209 188 416 188q169 0 268.5 -92.5t99.5 -286.5v-440
q0 -67 51 -67q34 0 70 20zM592 279v165l-109 -38q-74 -26 -110.5 -61t-36.5 -87q0 -48 29 -78t71 -30q48 0 88.5 35t67.5 94z" />
    <glyph glyph-name="b" unicode="b" horiz-adv-x="1196" 
d="M346 78h-16l-80 -90h-113v1224q0 74 -19.5 99.5t-84.5 29.5v62l364 61h13v-630h16q102 163 289 163q176 0 294.5 -135t118.5 -354q0 -150 -61 -272t-174.5 -193.5t-257.5 -71.5q-82 0 -159 30.5t-130 76.5zM848 473q0 164 -60.5 255t-166.5 91q-70 0 -125 -41t-86 -106
v-303q0 -127 51.5 -199t142.5 -72q114 0 179 105t65 270z" />
    <glyph glyph-name="c" unicode="c" horiz-adv-x="978" 
d="M66 477q0 222 154.5 371t383.5 149q149 0 266 -57v-260h-61q-18 84 -70.5 135t-128.5 51q-119 0 -191.5 -89t-72.5 -238q0 -165 85 -261t228 -96q148 0 254 86l62 -61q-158 -236 -418 -236q-216 0 -353.5 142t-137.5 364z" />
    <glyph glyph-name="d" unicode="d" horiz-adv-x="1212" 
d="M72 463q0 146 60 267t173.5 194t259.5 73q129 0 207 -65h16v280q0 72 -20.5 98.5t-83.5 30.5v62l365 61h12v-1224q0 -66 17.5 -93t70.5 -28v-62l-346 -65h-12v147h-17q-54 -87 -126 -127.5t-171 -40.5q-169 0 -287 136t-118 356zM788 301v305q0 123 -51 193.5t-139 70.5
q-115 0 -180.5 -104.5t-65.5 -278.5q0 -151 59.5 -244t161.5 -93q146 0 215 151z" />
    <glyph glyph-name="e" unicode="e" horiz-adv-x="1013" 
d="M979 207q-157 -236 -416 -236q-216 0 -355.5 141.5t-139.5 374.5q0 213 138.5 361.5t336.5 148.5q179 0 284 -102.5t105 -284.5v-73h-604q7 -169 99.5 -262t238.5 -93q143 0 252 86zM332 649h342q-2 109 -42.5 168.5t-113.5 59.5t-123 -60t-63 -168z" />
    <glyph glyph-name="f" unicode="f" horiz-adv-x="813" 
d="M131 61q41 7 56.5 16t23.5 36t8 88v628h-196v140h196v104q0 192 122 301t310 109q125 0 213 -33v-236h-57q-14 59 -57 96.5t-107 37.5q-69 0 -110 -43.5t-41 -126.5v-209h253v-140h-253v-628q0 -49 2.5 -72t15.5 -38.5t31 -20t59 -9.5v-61h-469v61z" />
    <glyph glyph-name="g" unicode="g" horiz-adv-x="1101" 
d="M1063 850h-223v-10q39 -27 62.5 -73.5t23.5 -102.5q0 -145 -111 -238.5t-293 -93.5q-95 0 -172 24q-74 -39 -74 -98q0 -35 30 -54.5t85 -19.5h287q183 0 279 -66t96 -190q0 -152 -160 -259t-412 -107q-208 0 -332 65.5t-124 171.5q0 55 38 102t111 79v6q-45 27 -72.5 72
t-27.5 98q0 149 174 241v9q-69 44 -106.5 111.5t-37.5 148.5q0 151 113.5 241t300.5 90q85 0 164 -26l369 90h12v-211zM680 666q0 100 -43.5 159.5t-116.5 59.5t-116.5 -59.5t-43.5 -159.5q0 -103 43 -162.5t117 -59.5t117 59.5t43 162.5zM297 -47h-4q-55 -43 -55 -109
q0 -76 66 -119.5t188 -43.5q135 0 223 45.5t88 119.5q0 107 -162 107h-344z" />
    <glyph glyph-name="h" unicode="h" horiz-adv-x="1157" 
d="M156 1223q0 66 -22 89.5t-83 28.5v62l365 61h12v-630h16q94 163 271 163q137 0 219 -96t82 -266v-449q0 -72 16.5 -95.5t67.5 -29.5v-61h-441v61q55 6 69.5 27t14.5 98v443q0 93 -35.5 141.5t-99.5 48.5q-55 0 -104 -41.5t-76 -105.5v-486q0 -77 14.5 -98t69.5 -27v-61
h-440v61q51 6 67.5 28.5t16.5 96.5v1037z" />
    <glyph glyph-name="i" unicode="i" horiz-adv-x="585" 
d="M139 1286q0 67 49 115.5t117 48.5q66 0 115 -49t49 -115q0 -68 -48.5 -117t-115.5 -49q-69 0 -117.5 48.5t-48.5 117.5zM436 203q0 -42 2 -64t5 -38t14.5 -22.5t22 -10t36.5 -7.5v-61h-436v61q40 7 54.5 15t22 35.5t7.5 91.5v536q0 65 -23 88.5t-82 28.5v62l363 61h14
v-776z" />
    <glyph glyph-name="j" unicode="j" horiz-adv-x="563" 
d="M131 1286q0 67 49 115.5t117 48.5q66 0 115 -49t49 -115q0 -68 -48.5 -117t-115.5 -49q-69 0 -117.5 48.5t-48.5 117.5zM-166 -381l33 100q61 -22 110 -22q179 0 179 190v842q0 72 -22 99t-83 28v62l363 61h14v-1042q0 -198 -109 -287q-107 -88 -260 -88q-133 0 -225 57z
" />
    <glyph glyph-name="k" unicode="k" horiz-adv-x="1159" 
d="M696 610l484 -598v-12h-342l-332 426l-82 -78v-141q0 -93 14 -116.5t70 -29.5v-61h-440v61q54 6 69 31.5t15 114.5v999q0 78 -20 106t-85 29v62l365 61h12v-929h12l279 272q41 41 41 65q0 29 -51 35v62h417v-62q-86 -12 -135 -39q-45 -26 -117 -92z" />
    <glyph glyph-name="l" unicode="l" horiz-adv-x="575" 
d="M70 61q54 6 69 31.5t15 114.5v999q0 78 -20 106t-85 29v62l365 61h12v-1257q0 -93 14 -116.5t70 -29.5v-61h-440v61z" />
    <glyph glyph-name="m" unicode="m" horiz-adv-x="1724" 
d="M164 727q0 74 -22 101t-83 28v62l363 61h14v-145h17q91 163 272 163q91 0 157.5 -48t98.5 -140h16q102 188 293 188q134 0 213.5 -94.5t79.5 -255.5v-446q0 -62 7.5 -88.5t22.5 -35.5t54 -16v-61h-440v61q26 4 38 8t23.5 11t15 23t5.5 37t2 61v448q0 170 -123 170
q-60 0 -105.5 -38t-72.5 -103v-477v-16q3 -81 12 -96q8 -14 47 -23q3 0 11 -2q9 -2 14 -3v-61h-441v61q32 6 44.5 10t24 19t13.5 39t2 72v450q0 168 -121 168q-55 0 -102 -39t-78 -102v-477q0 -89 13.5 -110t70.5 -30v-61h-440v61q40 7 55 16t22 35.5t7 88.5v526z" />
    <glyph glyph-name="n" unicode="n" horiz-adv-x="1169" 
d="M166 737q0 66 -22 90t-83 29v62l365 61h12v-145h17q43 78 113 120.5t157 42.5q137 0 219 -96t82 -266v-449q0 -72 16.5 -95.5t67.5 -29.5v-61h-440v61q55 6 69.5 27t14.5 98v443q0 92 -36 141t-100 49q-55 0 -102 -40.5t-78 -106.5v-486q0 -77 14.5 -98t69.5 -27v-61
h-440v61q51 6 67.5 28.5t16.5 96.5v551z" />
    <glyph glyph-name="o" unicode="o" horiz-adv-x="1157" 
d="M68 485q0 225 144.5 368.5t367.5 143.5q221 0 366.5 -144t145.5 -368q0 -225 -145.5 -369.5t-366.5 -144.5q-223 0 -367.5 144.5t-144.5 369.5zM797 485q0 179 -56.5 274t-160.5 95t-161 -95t-57 -274t57 -274.5t161 -95.5q103 0 160 95.5t57 274.5z" />
    <glyph glyph-name="p" unicode="p" horiz-adv-x="1214" 
d="M158 729q0 71 -20.5 98.5t-84.5 28.5v62l365 61h12v-145h16q56 85 126.5 124t168.5 39q173 0 290.5 -136t117.5 -349q0 -122 -38.5 -224.5t-105.5 -171t-158 -107t-194 -38.5q-119 0 -207 58h-16v-234q0 -41 2.5 -63t6.5 -38t18 -23.5t27.5 -11t45.5 -7.5v-62h-456v62
q55 9 69.5 32t14.5 111v934zM868 475q0 160 -59.5 252t-167.5 92q-70 0 -124 -40t-87 -105v-307q0 -125 52.5 -197t144.5 -72q111 0 176 109t65 268z" />
    <glyph glyph-name="q" unicode="q" horiz-adv-x="1193" 
d="M793 139h-17q-55 -91 -128.5 -129.5t-176.5 -38.5q-78 0 -150 35t-127 97.5t-87.5 157t-32.5 204.5q0 147 63 268.5t176 192.5t254 71q175 0 281 -112h16l86 84h113v-1200q0 -66 16.5 -88.5t67.5 -28.5v-62h-457v62q47 7 65.5 15t28 30.5t9.5 73.5v368zM791 301v309
q0 122 -52 191t-141 69q-109 0 -176.5 -102.5t-67.5 -271.5q0 -156 59 -251t165 -95q70 0 125 40t88 111z" />
    <glyph glyph-name="r" unicode="r" horiz-adv-x="833" 
d="M166 731q0 69 -21.5 96.5t-83.5 28.5v62l363 61h14v-289h17q70 307 276 307q34 0 70 -8v-276q-43 18 -99 18q-188 0 -264 -239v-295q0 -86 17 -106.5t88 -29.5v-61h-461v61q39 7 54 15.5t22.5 34.5t7.5 86v534z" />
    <glyph glyph-name="s" unicode="s" horiz-adv-x="849" 
d="M80 55v244h61q43 -104 101 -151.5t143 -47.5q67 0 111.5 30t44.5 79q0 38 -22.5 63.5t-74.5 49.5l-155 71q-199 91 -199 275q0 142 110.5 235.5t280.5 93.5q145 0 269 -59v-248h-62q-40 178 -211 178q-74 0 -119 -29.5t-45 -82.5q0 -72 105 -119l162 -72q98 -43 146 -107
t48 -155q0 -145 -111.5 -238.5t-277.5 -93.5q-160 0 -305 84z" />
    <glyph glyph-name="t" unicode="t" horiz-adv-x="786" 
d="M201 279v550h-189v123q82 5 130.5 18t81.5 46t46.5 85t18.5 140h184v-272h285v-140h-285v-553q0 -141 125 -141q69 0 133 37l49 -72q-129 -129 -291 -129q-130 0 -209 79t-79 229z" />
    <glyph glyph-name="u" unicode="u" horiz-adv-x="1140" 
d="M139 330v442q0 76 -18.5 101t-73.5 34v62h365v-662q0 -155 118 -155q51 0 97.5 38.5t81.5 110.5v471q0 70 -18.5 95.5t-74.5 39.5v62h365v-733q0 -67 18.5 -89.5t69.5 -27.5v-62l-346 -65h-12v147h-17q-44 -78 -112 -123t-158 -45q-127 0 -206 95.5t-79 263.5z" />
    <glyph glyph-name="v" unicode="v" horiz-adv-x="1050" 
d="M131 760q-25 63 -53 94q-22 25 -80 53v62h479v-62q-74 -21 -74 -63q0 -24 21 -70l166 -401h16l160 385q25 61 25 82q0 26 -19.5 41.5t-66.5 25.5v62h354v-62q-62 -20 -92 -51t-60 -104l-311 -752h-133z" />
    <glyph glyph-name="w" unicode="w" horiz-adv-x="1548" 
d="M549 401l160 408l-56 160h293l187 -563h16l111 319q24 73 24 102q0 31 -19 50.5t-61 29.5v62h350v-62q-60 -18 -92.5 -58.5t-62.5 -127.5l-254 -721h-135l-215 629h-17l-252 -629h-135l-252 733q-27 76 -55 113.5t-78 60.5v62h467v-62q-72 -23 -72 -76q0 -29 21 -90
l110 -340h17z" />
    <glyph glyph-name="x" unicode="x" horiz-adv-x="1060" 
d="M399 457l-233 336q-38 53 -71 77.5t-85 36.5v62h475v-62q-39 -14 -39 -41q0 -29 37 -82l80 -127h17l98 131q35 47 35 70q0 34 -62 49v62h367v-62q-62 -12 -104 -41t-87 -90l-170 -223l232 -336q52 -72 89 -105.5t89 -50.5v-61h-475v61q39 12 39 45t-45 101l-94 141h-17
l-106 -145q-37 -52 -37 -84q0 -40 63 -58v-61h-379v61q62 17 107 53t102 111z" />
    <glyph glyph-name="y" unicode="y" horiz-adv-x="1071" 
d="M717 969h356v-62q-60 -18 -94 -55.5t-61 -108.5l-336 -868q-66 -170 -158 -241.5t-221 -71.5q-92 0 -160 39v225q84 -35 168 -35q195 0 260 170l-330 787q-31 70 -60.5 102t-86.5 57v62h479v-62q-65 -15 -65 -63q0 -19 22 -80l174 -422h14l160 410q21 52 21 79
q0 56 -82 76v62z" />
    <glyph glyph-name="z" unicode="z" horiz-adv-x="956" 
d="M391 145v-16h182q102 0 157.5 39t90.5 141h62v-309h-817v123l483 700v17h-166q-105 0 -154 -31t-73 -117h-62v277h780v-123z" />
    <glyph glyph-name="braceleft" unicode="{" horiz-adv-x="802" 
d="M203 80v313q0 94 -38.5 140t-127.5 53v125q90 6 128 51.5t38 140.5v314q0 101 32.5 179.5t89 126t127.5 71.5t152 24q110 0 195 -33l-19 -110q-41 14 -96 14q-105 0 -162 -55t-57 -168v-314q0 -256 -219 -299v-12q219 -49 219 -297v-319q0 -110 58 -165t163 -55
q42 0 94 15l19 -111q-82 -33 -195 -33q-81 0 -152 24t-127.5 72t-89 127t-32.5 181z" />
    <glyph glyph-name="bar" unicode="|" horiz-adv-x="501" 
d="M330 -299h-158v1892h158v-1892z" />
    <glyph glyph-name="braceright" unicode="}" horiz-adv-x="806" 
d="M602 1212v-313q0 -94 38 -139.5t128 -52.5v-125q-89 -6 -127.5 -52t-38.5 -141v-313q0 -101 -32.5 -180t-89 -126.5t-127.5 -71.5t-152 -24q-110 0 -195 33l19 111q43 -15 96 -15q105 0 162 55.5t57 168.5v313q0 256 219 299v12q-219 49 -219 297v320q0 110 -58 164.5
t-163 54.5q-45 0 -94 -14l-19 110q82 33 195 33q81 0 152 -24t127.5 -72t89 -127t32.5 -181z" />
    <glyph glyph-name="asciitilde" unicode="~" horiz-adv-x="1167" 
d="M111 346q-4 130 65 211.5t182 81.5q96 0 211 -59l72 -39q104 -56 158 -56q52 0 82 39t30 111h148q2 -131 -67.5 -212t-184.5 -81q-101 0 -217 64l-72 38q-91 52 -149 52q-54 0 -83 -38.5t-28 -111.5h-147z" />
    <glyph glyph-name="uni00A0" unicode="&#xa0;" horiz-adv-x="462" 
 />
    <glyph glyph-name="exclamdown" unicode="&#xa1;" horiz-adv-x="530" 
d="M434 827q0 -72 -49 -120t-121 -48t-121 49.5t-49 118.5q0 72 49 122t121 50t121 -50t49 -122zM199 545h135l96 -1000h-328z" />
    <glyph glyph-name="cent" unicode="&#xa2;" horiz-adv-x="1048" 
d="M1012 207q-134 -196 -334 -230v-161h-113v155q-204 9 -333.5 150.5t-129.5 355.5q0 203 130.5 347t332.5 169v162h113v-158q127 -9 229 -57v-260h-61q-14 74 -58.5 124t-109.5 60v-682h18q148 0 254 86zM565 207v647q-85 -29 -133.5 -111.5t-48.5 -203.5
q0 -122 47.5 -208.5t134.5 -123.5z" />
    <glyph glyph-name="sterling" unicode="&#xa3;" horiz-adv-x="1175" 
d="M385 246h709v-246h-1000v123q113 82 159 147.5t46 153.5q0 56 -18 127h-203v127h168l-37 131q-23 87 -23 160q0 203 143 327.5t363 124.5q186 0 344 -84v-305h-61q-62 246 -279 246q-113 0 -181.5 -65t-68.5 -189q0 -67 25 -162l51 -184h514v-127h-485l2 -31
q0 -88 -45 -154t-123 -104v-16z" />
    <glyph glyph-name="currency" unicode="&#xa4;" horiz-adv-x="1210" 
d="M961 444l151 -147l-80 -82l-149 147q-116 -96 -277 -96q-156 0 -278 96l-150 -147l-80 82l152 147q-82 119 -82 265q0 143 82 262l-152 147l80 82l150 -145q115 98 278 98q160 0 279 -98l147 145l80 -82l-151 -147q81 -118 81 -262q0 -147 -81 -265zM893 709
q0 134 -81.5 220.5t-205.5 86.5q-125 0 -207 -86.5t-82 -220.5t82 -220t207 -86q122 0 205 86q82 85 82 220z" />
    <glyph glyph-name="yen" unicode="&#xa5;" horiz-adv-x="1325" 
d="M897 1393h385v-62q-72 -17 -117.5 -58.5t-89.5 -125.5l-229 -424h278v-127h-329v-123h329v-127h-329v-67q0 -115 21.5 -155.5t92.5 -62.5v-61h-499v61q71 22 92.5 62.5t21.5 155.5v67h-327v127h327v98l-12 25h-315v127h249l-231 457q-38 74 -74 106.5t-96 44.5v62h512
v-62q-74 -3 -74 -53q0 -24 25 -76l207 -426h16l223 414q27 50 27 78q0 54 -84 63v62z" />
    <glyph glyph-name="brokenbar" unicode="&#xa6;" horiz-adv-x="501" 
d="M330 897h-158v696h158v-696zM330 -299h-158v698h158v-698z" />
    <glyph glyph-name="section" unicode="&#xa7;" horiz-adv-x="1058" 
d="M795 289q123 -89 123 -230q0 -156 -124.5 -254t-332.5 -98q-197 0 -340 82v254h61q76 -190 283 -190q99 0 156 36t57 99q0 44 -33 77t-113 70l-206 94q-132 59 -191 132.5t-59 173.5q0 90 51.5 165t138.5 117v14q-135 95 -135 248q0 142 130.5 242t334.5 100
q182 0 328 -73v-254h-62q-32 91 -95.5 136.5t-172.5 45.5q-102 0 -162.5 -37t-60.5 -98q0 -48 29 -79.5t106 -66.5l227 -104q134 -61 194 -132.5t60 -166.5q0 -90 -52.5 -167.5t-139.5 -121.5v-14zM686 350q78 66 78 137q0 54 -35.5 96t-112.5 79l-241 110q-78 -56 -78 -133
q0 -61 37 -105.5t121 -80.5z" />
    <glyph glyph-name="dieresis" unicode="&#xa8;" horiz-adv-x="776" 
d="M27 1286q0 62 44 107t107 45q62 0 107 -45t45 -107q0 -63 -45 -107t-107 -44q-63 0 -107 44t-44 107zM451 1286q0 62 44 107t107 45q62 0 107 -45t45 -107q0 -63 -45 -107t-107 -44q-63 0 -107 44t-44 107z" />
    <glyph glyph-name="copyright" unicode="&#xa9;" horiz-adv-x="1708" 
d="M100 727q-3 158 55.5 299.5t160 242.5t243 159.5t297.5 56.5q156 3 297 -56t241.5 -160.5t159 -243.5t56.5 -298q2 -156 -56 -297.5t-159 -243t-242 -160.5t-297 -57q-156 -2 -297.5 57t-243 160.5t-160 243t-55.5 297.5zM1479 729q3 178 -78.5 325.5t-226 231
t-318.5 80.5q-132 0 -248 -48.5t-199 -132.5t-130.5 -202t-47.5 -254q-3 -181 78.5 -329t226.5 -231.5t320 -80.5q174 -3 318.5 80.5t226 231.5t78.5 329zM485 725q0 175 117 290t297 115q121 0 217 -47v-209h-57q-11 62 -51 101t-99 39q-87 0 -144.5 -68t-57.5 -176
q0 -121 68 -194.5t177 -73.5q110 0 181 59l47 -61q-70 -89 -142 -131.5t-166 -42.5q-166 0 -276.5 113t-110.5 286z" />
    <glyph glyph-name="ordfeminine" unicode="&#xaa;" horiz-adv-x="923" 
d="M778 801q0 -56 15 -77.5t61 -25.5v-57l-307 -53h-8v131h-13q-80 -154 -229 -154q-95 0 -156 59t-61 156q0 94 70.5 149.5t226.5 100.5l162 47v58q0 73 -48.5 112t-128.5 39q-119 0 -229 -72l-47 74q83 76 178.5 120t190.5 44q148 0 235.5 -79.5t87.5 -242.5v-329z
M539 834v151l-93 -31q-65 -21 -96 -51t-31 -76q0 -44 24.5 -69t66.5 -25q38 0 74 28.5t55 72.5z" />
    <glyph glyph-name="guillemotleft" unicode="&#xab;" horiz-adv-x="1294" 
d="M674 47l-99 -74l-507 512l507 512l99 -73l-268 -437zM1198 47l-98 -74l-508 512l508 512l98 -73l-268 -437z" />
    <glyph glyph-name="logicalnot" unicode="&#xac;" horiz-adv-x="1144" 
d="M104 555h922v-555h-147v412h-775v143z" />
    <glyph glyph-name="uni00AD" unicode="&#xad;" horiz-adv-x="802" 
d="M692 532h-579v156h579v-156z" />
    <glyph glyph-name="registered" unicode="&#xae;" horiz-adv-x="1708" 
d="M1610 727q2 -156 -56 -297.5t-159 -243t-242 -160.5t-297 -57q-156 -2 -297.5 57t-243 160.5t-160 243t-55.5 297.5q-3 158 55.5 299.5t160 242.5t243 159.5t297.5 56.5q156 3 297 -56t241.5 -160.5t159 -243.5t56.5 -298zM1479 729q3 178 -78.5 325.5t-226 231
t-318.5 80.5q-132 0 -248 -48.5t-199 -132.5t-130.5 -202t-47.5 -254q-3 -181 78.5 -329t226.5 -231.5t320 -80.5q174 -3 318.5 80.5t226 231.5t78.5 329zM999 702l281 -352v-8h-231l-256 340h-27v-211q0 -37 13 -54t48 -24v-51h-313v51q33 8 47 25t14 53v516q0 41 -13 57
t-48 21v51h356q141 0 224.5 -58t83.5 -157q0 -69 -47 -121t-132 -78zM766 772h63q70 0 110 34t40 95q0 60 -40 90.5t-108 30.5h-65v-250z" />
    <glyph glyph-name="macron" unicode="&#xaf;" horiz-adv-x="712" 
d="M672 1196h-631v125h631v-125z" />
    <glyph glyph-name="degree" unicode="&#xb0;" horiz-adv-x="743" 
d="M66 1153q0 129 88 215t219 86t219 -86t88 -215t-88 -215t-219 -86t-219 86t-88 215zM551 1153q0 82 -50 134t-128 52t-128 -52t-50 -134t50 -134t128 -52t128 52t50 134z" />
    <glyph glyph-name="plusminus" unicode="&#xb1;" horiz-adv-x="1157" 
d="M653 969v-326h410v-143h-410v-281h-147v281h-412v143h412v326h147zM1063 -27h-969v144h969v-144z" />
    <glyph glyph-name="twosuperior" unicode="&#xb2;" horiz-adv-x="786" 
d="M57 821v107l203 174q113 94 159 153t46 123q0 78 -48 124t-128 46q-104 0 -191 -75l-63 65q62 83 155 133.5t195 50.5q133 0 221 -80t88 -196q0 -131 -121 -236q-48 -45 -143 -116l-70 -52v-12h345v-209h-648z" />
    <glyph glyph-name="threesuperior" unicode="&#xb3;" horiz-adv-x="782" 
d="M29 977l65 63q49 -46 96.5 -68t106.5 -22q86 0 142.5 39.5t56.5 104.5q0 117 -179 127v84l154 168v12h-383v207h629v-107l-240 -260v-14q109 -17 166 -77.5t57 -154.5q0 -128 -94 -207q-93 -81 -239 -81q-218 0 -338 186z" />
    <glyph glyph-name="acute" unicode="&#xb4;" horiz-adv-x="473" 
d="M152 1114h-107l111 324h288v-11z" />
    <glyph glyph-name="mu" unicode="&#xb5;" horiz-adv-x="1220" 
d="M182 758q0 85 -17.5 113.5t-74.5 35.5v62h365v-660q0 -157 118 -157q106 0 179 149v457q0 84 -16 109t-77 40v62h365v-729q0 -68 17.5 -94t70.5 -27v-62l-346 -65h-12v147h-17q-40 -76 -101 -122t-132 -46q-20 0 -41 6h-6v-192q0 -82 17 -103t91 -30v-62h-383v1168z" />
    <glyph glyph-name="paragraph" unicode="&#xb6;" horiz-adv-x="1271" 
d="M1161 1362q-79 -15 -101 -46t-22 -128v-1487h-127v1595h-249v-1595h-127v942h-13q-212 0 -342.5 106t-130.5 285q0 178 130 283.5t343 105.5h639v-61z" />
    <glyph glyph-name="periodcentered" unicode="&#xb7;" horiz-adv-x="522" 
d="M92 582q0 72 49 120t121 48t121 -49t49 -119q0 -72 -49 -122t-121 -50t-121 50t-49 122z" />
    <glyph glyph-name="cedilla" unicode="&#xb8;" horiz-adv-x="516" 
d="M25 -311l45 51q60 -51 133 -51q48 0 76 19t28 54q0 29 -21.5 45.5t-54.5 16.5q-26 0 -65 -17h-10l77 218l72 -25l-35 -96l2 -4q19 8 52 8q67 0 109 -39.5t42 -104.5q0 -84 -63 -137t-162 -53q-133 0 -225 115z" />
    <glyph glyph-name="onesuperior" unicode="&#xb9;" horiz-adv-x="739" 
d="M354 821v486h-325v108q92 5 153.5 19t110.5 46.5t77 88.5t40 141h151v-889h-207z" />
    <glyph glyph-name="ordmasculine" unicode="&#xba;" horiz-adv-x="997" 
d="M61 1010q0 193 123.5 317.5t313.5 124.5t313 -125t123 -319q0 -193 -123.5 -318t-312.5 -125q-190 0 -313.5 125.5t-123.5 319.5zM686 1008q0 147 -51.5 232t-136.5 85q-87 0 -138 -83.5t-51 -231.5q0 -147 52 -232.5t137 -85.5q87 0 137.5 84t50.5 232z" />
    <glyph glyph-name="guillemotright" unicode="&#xbb;" horiz-adv-x="1294" 
d="M94 926l99 73l507 -512l-507 -512l-99 74l268 436zM618 926l99 73l508 -512l-508 -512l-99 74l269 436z" />
    <glyph glyph-name="onequarter" unicode="&#xbc;" horiz-adv-x="2150" 
d="M360 594v463h-311v102q87 5 146 19t106 44.5t73.5 84t37.5 133.5h145v-846h-197zM1597 1423h-161l-979 -1423h161zM1913 0h-195v186h-422v93l514 565h103v-494h176v-164h-176v-186zM1507 362v-12h211v230h-12z" />
    <glyph glyph-name="onehalf" unicode="&#xbd;" horiz-adv-x="2052" 
d="M358 594v463h-311v102q87 5 146 19t106 44.5t73.5 84t37.5 133.5h145v-846h-197zM1595 1423h-161l-979 -1423h161zM1350 0v102l192 164q109 90 152 145.5t43 118.5q0 73 -46.5 117.5t-121.5 44.5q-97 0 -180 -71l-62 61q57 80 145.5 128t188.5 48q127 0 211 -76.5
t84 -187.5q0 -124 -115 -223q-56 -49 -137 -111l-66 -49v-12h328v-199h-616z" />
    <glyph glyph-name="threequarters" unicode="&#xbe;" horiz-adv-x="2136" 
d="M43 743l63 62q89 -86 193 -86q81 0 134.5 37.5t53.5 99.5q0 59 -42.5 87.5t-125.5 33.5v80l146 160v12h-365v196h598v-102l-227 -248v-12q104 -17 158.5 -75t54.5 -146q0 -121 -89.5 -198t-229.5 -77q-206 0 -322 176zM1591 1423h-161l-979 -1423h161zM1907 0h-195v186
h-422v93l514 565h103v-494h176v-164h-176v-186zM1501 362v-12h211v230h-12z" />
    <glyph glyph-name="questiondown" unicode="&#xbf;" horiz-adv-x="1005" 
d="M715 827q0 -72 -49 -120t-121 -48q-71 0 -120.5 49.5t-49.5 118.5q0 72 49 122t121 50t121 -50t49 -122zM621 287q-147 -60 -216 -138t-69 -186q0 -107 78.5 -174.5t206.5 -67.5q171 0 299 125l69 -75q-82 -121 -201.5 -187.5t-269.5 -66.5q-193 0 -326 111.5t-133 279.5
q0 148 109.5 265t298.5 192v180h154v-258z" />
    <glyph glyph-name="Agrave" unicode="&#xc0;" horiz-adv-x="1454" 
d="M735 1843l107 -323h-111l-289 313v10h293zM1292 252q41 -95 74 -137q37 -37 100 -54v-61h-579v61q59 10 83.5 29t24.5 51q0 28 -28 101l-66 161h-506l-59 -147q-29 -82 -29 -102q0 -38 31 -60.5t100 -32.5v-61h-448v61q70 12 102.5 47.5t69.5 129.5l477 1185h164z
M637 1012l-184 -465h389l-189 465h-16z" />
    <glyph glyph-name="Aacute" unicode="&#xc1;" horiz-adv-x="1454" 
d="M1012 1847v-10l-293 -313h-107l111 323h289zM1292 252q41 -95 74 -137q37 -37 100 -54v-61h-579v61q59 10 83.5 29t24.5 51q0 28 -28 101l-66 161h-506l-59 -147q-29 -82 -29 -102q0 -38 31 -60.5t100 -32.5v-61h-448v61q70 12 102.5 47.5t69.5 129.5l477 1185h164z
M637 1012l-184 -465h389l-189 465h-16z" />
    <glyph glyph-name="Acircumflex" unicode="&#xc2;" horiz-adv-x="1454" 
d="M930 1522l-207 137l-207 -137h-117l258 323h134l260 -323h-121zM1292 252q41 -95 74 -137q37 -37 100 -54v-61h-579v61q59 10 83.5 29t24.5 51q0 28 -28 101l-66 161h-506l-59 -147q-29 -82 -29 -102q0 -38 31 -60.5t100 -32.5v-61h-448v61q70 12 102.5 47.5t69.5 129.5
l477 1185h164zM637 1012l-184 -465h389l-189 465h-16z" />
    <glyph glyph-name="Atilde" unicode="&#xc3;" horiz-adv-x="1454" 
d="M485 1548h-106q4 130 61 205.5t148 75.5q36 0 66.5 -11.5t74.5 -39.5l53 -37q44 -33 76 -33q79 0 100 113h105q-4 -133 -60 -208t-149 -75q-66 0 -143 53l-49 35q-44 33 -78 33q-81 0 -99 -111zM1292 252q41 -95 74 -137q37 -37 100 -54v-61h-579v61q59 10 83.5 29
t24.5 51q0 28 -28 101l-66 161h-506l-59 -147q-29 -82 -29 -102q0 -38 31 -60.5t100 -32.5v-61h-448v61q70 12 102.5 47.5t69.5 129.5l477 1185h164zM637 1012l-184 -465h389l-189 465h-16z" />
    <glyph glyph-name="Adieresis" unicode="&#xc4;" horiz-adv-x="1454" 
d="M362 1700q0 62 44.5 106.5t107.5 44.5q62 0 107 -45t45 -106q0 -63 -45 -107.5t-107 -44.5q-63 0 -107.5 44.5t-44.5 107.5zM786 1700q0 62 44.5 106.5t107.5 44.5q62 0 107 -45t45 -106q0 -63 -45 -107.5t-107 -44.5q-63 0 -107.5 44.5t-44.5 107.5zM1292 252
q41 -95 74 -137q37 -37 100 -54v-61h-579v61q59 10 83.5 29t24.5 51q0 28 -28 101l-66 161h-506l-59 -147q-29 -82 -29 -102q0 -38 31 -60.5t100 -32.5v-61h-448v61q70 12 102.5 47.5t69.5 129.5l477 1185h164zM637 1012l-184 -465h389l-189 465h-16z" />
    <glyph glyph-name="Aring" unicode="&#xc5;" horiz-adv-x="1454" 
d="M508 1704q0 86 62.5 147.5t150.5 61.5t150.5 -61.5t62.5 -147.5t-62.5 -146.5t-150.5 -60.5t-150.5 60.5t-62.5 146.5zM627 1704q0 -43 26.5 -70.5t67.5 -27.5t66.5 27.5t25.5 70.5t-25.5 70.5t-66.5 27.5t-67.5 -27.5t-26.5 -70.5zM1292 252q41 -95 74 -137
q37 -37 100 -54v-61h-579v61q59 10 83.5 29t24.5 51q0 28 -28 101l-66 161h-506l-59 -147q-29 -82 -29 -102q0 -38 31 -60.5t100 -32.5v-61h-448v61q70 12 102.5 47.5t69.5 129.5l477 1185h164zM637 1012l-184 -465h389l-189 465h-16z" />
    <glyph glyph-name="AE" unicode="&#xc6;" horiz-adv-x="1853" 
d="M1786 395v-395h-1073v61q34 6 53.5 13.5t35 19t22 33t9.5 50.5t3 77v149h-422l-66 -127q-51 -96 -51 -143q0 -63 96 -72v-61h-434v61q77 15 123 70q47 56 111 178l585 1114h965v-342h-66q-20 110 -86.5 154.5t-214.5 44.5h-241v-492h174q107 0 158.5 34.5t58.5 117.5h65
v-442h-65q-7 83 -57.5 115t-159.5 32h-174v-502h282q140 0 210 55t93 197h66zM819 1182l-330 -635h347v635h-17z" />
    <glyph glyph-name="Ccedilla" unicode="&#xc7;" horiz-adv-x="1423" 
d="M807 -29l-25 -67l2 -4q19 8 52 8q67 0 109 -39.5t42 -104.5q0 -84 -63 -137t-162 -53q-133 0 -225 115l45 51q60 -51 133 -51q48 0 76 19t28 54q0 29 -21.5 45.5t-54.5 16.5q-26 0 -65 -17h-10l61 170q-140 17 -259.5 75t-207 150t-137 220.5t-49.5 279.5
q-2 132 39 251.5t115.5 210t173.5 156.5t216.5 100t239.5 32q241 0 430 -100v-348h-65q-55 154 -141.5 227.5t-211.5 73.5q-137 0 -243 -73.5t-161.5 -197t-55.5 -276.5q0 -256 147 -410.5t377 -154.5t405 147l76 -78q-231 -291 -575 -291h-35z" />
    <glyph glyph-name="Egrave" unicode="&#xc8;" horiz-adv-x="1298" 
d="M717 1843l106 -323h-110l-289 313v10h293zM1233 395v-395h-1145v61q32 8 47 12.5t31.5 14.5t22 19t11.5 31t7.5 45.5t3.5 66.5v944q0 94 -23 123.5t-100 44.5v61h1102v-342h-66q-14 74 -45.5 116.5t-92.5 62.5t-163 20h-309v-492h229q119 0 168.5 35t61.5 117h65v-442
h-65q-8 81 -57.5 114t-172.5 33h-229v-502h352q139 0 208 54.5t93 197.5h66z" />
    <glyph glyph-name="Eacute" unicode="&#xc9;" horiz-adv-x="1298" 
d="M700 1524h-106l111 323h288v-10zM1233 395v-395h-1145v61q32 8 47 12.5t31.5 14.5t22 19t11.5 31t7.5 45.5t3.5 66.5v944q0 94 -23 123.5t-100 44.5v61h1102v-342h-66q-14 74 -45.5 116.5t-92.5 62.5t-163 20h-309v-492h229q119 0 168.5 35t61.5 117h65v-442h-65
q-8 81 -57.5 114t-172.5 33h-229v-502h352q139 0 208 54.5t93 197.5h66z" />
    <glyph glyph-name="Ecircumflex" unicode="&#xca;" horiz-adv-x="1298" 
d="M498 1522h-117l258 323h133l260 -323h-121l-206 137zM1233 395v-395h-1145v61q32 8 47 12.5t31.5 14.5t22 19t11.5 31t7.5 45.5t3.5 66.5v944q0 94 -23 123.5t-100 44.5v61h1102v-342h-66q-14 74 -45.5 116.5t-92.5 62.5t-163 20h-309v-492h229q119 0 168.5 35t61.5 117
h65v-442h-65q-8 81 -57.5 114t-172.5 33h-229v-502h352q139 0 208 54.5t93 197.5h66z" />
    <glyph glyph-name="Edieresis" unicode="&#xcb;" horiz-adv-x="1298" 
d="M344 1700q0 62 44.5 106.5t107.5 44.5q62 0 106.5 -44.5t44.5 -106.5q0 -63 -44.5 -107.5t-106.5 -44.5q-63 0 -107.5 44.5t-44.5 107.5zM768 1700q0 62 44.5 106.5t107.5 44.5q62 0 106.5 -44.5t44.5 -106.5q0 -63 -44.5 -107.5t-106.5 -44.5q-63 0 -107.5 44.5
t-44.5 107.5zM1233 395v-395h-1145v61q32 8 47 12.5t31.5 14.5t22 19t11.5 31t7.5 45.5t3.5 66.5v944q0 94 -23 123.5t-100 44.5v61h1102v-342h-66q-14 74 -45.5 116.5t-92.5 62.5t-163 20h-309v-492h229q119 0 168.5 35t61.5 117h65v-442h-65q-8 81 -57.5 114t-172.5 33
h-229v-502h352q139 0 208 54.5t93 197.5h66z" />
    <glyph glyph-name="Igrave" unicode="&#xcc;" horiz-adv-x="724" 
d="M377 1843l106 -323h-110l-289 313v10h293zM88 61q30 7 45 11.5t31.5 13.5t23.5 19t13.5 28t8 41t1.5 59v957q0 36 -1.5 59t-8 41t-13.5 28t-23.5 19t-31.5 13.5t-45 11.5v61h549v-61q-30 -7 -45 -11.5t-31.5 -13.5t-23.5 -19t-13.5 -28t-8 -41t-1.5 -59v-957
q0 -36 1.5 -59t8 -41t13.5 -28t23.5 -19t31.5 -13.5t45 -11.5v-61h-549v61z" />
    <glyph glyph-name="Iacute" unicode="&#xcd;" horiz-adv-x="724" 
d="M360 1524h-106l111 323h288v-10zM88 61q30 7 45 11.5t31.5 13.5t23.5 19t13.5 28t8 41t1.5 59v957q0 36 -1.5 59t-8 41t-13.5 28t-23.5 19t-31.5 13.5t-45 11.5v61h549v-61q-30 -7 -45 -11.5t-31.5 -13.5t-23.5 -19t-13.5 -28t-8 -41t-1.5 -59v-957q0 -36 1.5 -59t8 -41
t13.5 -28t23.5 -19t31.5 -13.5t45 -11.5v-61h-549v61z" />
    <glyph glyph-name="Icircumflex" unicode="&#xce;" horiz-adv-x="724" 
d="M158 1522h-117l258 323h133l260 -323h-121l-206 137zM88 61q30 7 45 11.5t31.5 13.5t23.5 19t13.5 28t8 41t1.5 59v957q0 36 -1.5 59t-8 41t-13.5 28t-23.5 19t-31.5 13.5t-45 11.5v61h549v-61q-30 -7 -45 -11.5t-31.5 -13.5t-23.5 -19t-13.5 -28t-8 -41t-1.5 -59v-957
q0 -36 1.5 -59t8 -41t13.5 -28t23.5 -19t31.5 -13.5t45 -11.5v-61h-549v61z" />
    <glyph glyph-name="Idieresis" unicode="&#xcf;" horiz-adv-x="724" 
d="M4 1700q0 62 44.5 106.5t107.5 44.5q62 0 106.5 -44.5t44.5 -106.5q0 -63 -44.5 -107.5t-106.5 -44.5q-63 0 -107.5 44.5t-44.5 107.5zM428 1700q0 62 44.5 106.5t107.5 44.5q62 0 106.5 -44.5t44.5 -106.5q0 -63 -44.5 -107.5t-106.5 -44.5q-63 0 -107.5 44.5
t-44.5 107.5zM88 61q30 7 45 11.5t31.5 13.5t23.5 19t13.5 28t8 41t1.5 59v957q0 36 -1.5 59t-8 41t-13.5 28t-23.5 19t-31.5 13.5t-45 11.5v61h549v-61q-30 -7 -45 -11.5t-31.5 -13.5t-23.5 -19t-13.5 -28t-8 -41t-1.5 -59v-957q0 -36 1.5 -59t8 -41t13.5 -28t23.5 -19
t31.5 -13.5t45 -11.5v-61h-549v61z" />
    <glyph glyph-name="Eth" unicode="&#xd0;" horiz-adv-x="1599" 
d="M709 1423q374 0 594.5 -192.5t220.5 -515.5q0 -325 -220.5 -520t-594.5 -195h-603v61q34 6 53.5 13.5t35 19t22 33t9.5 50.5t3 77v420h-194v127h194v395q0 90 -24 122t-99 44v61h603zM655 139q258 0 395.5 143.5t137.5 432.5q0 285 -137.5 427t-395.5 142h-123v-483h302
v-127h-302v-535h123z" />
    <glyph glyph-name="Ntilde" unicode="&#xd1;" horiz-adv-x="1542" 
d="M780 1591l-49 35q-44 33 -78 33q-80 0 -98 -111h-106q4 130 60.5 205.5t147.5 75.5q62 0 142 -51l53 -37q44 -33 76 -33q79 0 100 113h105q-4 -133 -60 -208t-149 -75q-67 0 -144 53zM92 61q71 6 97 49.5t26 145.5v1016l-104 139v12h430l624 -921h17v672q0 101 -26 141
t-97 47v61h405v-61q-73 -7 -98 -47t-25 -141v-1174h-204l-746 1098h-16v-842q0 -105 25.5 -147t97.5 -48v-61h-406v61z" />
    <glyph glyph-name="Ograve" unicode="&#xd2;" horiz-adv-x="1646" 
d="M838 1843l106 -323h-110l-289 313v10h293zM78 711q-2 126 33.5 241.5t103 206.5t159 158t207 102t242.5 33q211 3 384 -92.5t270.5 -267t93.5 -381.5q3 -158 -53.5 -296.5t-156.5 -236.5t-240 -153.5t-298 -53.5q-211 -3 -383 92.5t-268.5 266t-93.5 381.5zM1235 711
q0 273 -109 430t-303 157q-191 0 -300 -157.5t-109 -429.5q0 -273 107.5 -428.5t301.5 -155.5t303 155.5t109 428.5z" />
    <glyph glyph-name="Oacute" unicode="&#xd3;" horiz-adv-x="1646" 
d="M821 1524h-106l110 323h289v-10zM78 711q-2 126 33.5 241.5t103 206.5t159 158t207 102t242.5 33q211 3 384 -92.5t270.5 -267t93.5 -381.5q3 -158 -53.5 -296.5t-156.5 -236.5t-240 -153.5t-298 -53.5q-211 -3 -383 92.5t-268.5 266t-93.5 381.5zM1235 711
q0 273 -109 430t-303 157q-191 0 -300 -157.5t-109 -429.5q0 -273 107.5 -428.5t301.5 -155.5t303 155.5t109 428.5z" />
    <glyph glyph-name="Ocircumflex" unicode="&#xd4;" horiz-adv-x="1646" 
d="M618 1522h-116l258 323h133l260 -323h-121l-207 137zM78 711q-2 126 33.5 241.5t103 206.5t159 158t207 102t242.5 33q211 3 384 -92.5t270.5 -267t93.5 -381.5q3 -158 -53.5 -296.5t-156.5 -236.5t-240 -153.5t-298 -53.5q-211 -3 -383 92.5t-268.5 266t-93.5 381.5z
M1235 711q0 273 -109 430t-303 157q-191 0 -300 -157.5t-109 -429.5q0 -273 107.5 -428.5t301.5 -155.5t303 155.5t109 428.5z" />
    <glyph glyph-name="Otilde" unicode="&#xd5;" horiz-adv-x="1646" 
d="M813 1591l-49 35q-44 33 -78 33q-80 0 -98 -111h-107q4 130 61 205.5t148 75.5q36 0 66.5 -11.5t74.5 -39.5l54 -37q44 -33 76 -33q79 0 100 113h104q-4 -133 -60 -208t-149 -75q-66 0 -143 53zM78 711q-2 126 33.5 241.5t103 206.5t159 158t207 102t242.5 33
q211 3 384 -92.5t270.5 -267t93.5 -381.5q3 -158 -53.5 -296.5t-156.5 -236.5t-240 -153.5t-298 -53.5q-211 -3 -383 92.5t-268.5 266t-93.5 381.5zM1235 711q0 273 -109 430t-303 157q-191 0 -300 -157.5t-109 -429.5q0 -273 107.5 -428.5t301.5 -155.5t303 155.5
t109 428.5z" />
    <glyph glyph-name="Odieresis" unicode="&#xd6;" horiz-adv-x="1646" 
d="M465 1700q0 62 44 106.5t107 44.5q62 0 107 -45t45 -106q0 -63 -45 -107.5t-107 -44.5q-63 0 -107 44.5t-44 107.5zM889 1700q0 62 44 106.5t107 44.5q62 0 107 -45t45 -106q0 -63 -45 -107.5t-107 -44.5q-63 0 -107 44.5t-44 107.5zM78 711q-2 126 33.5 241.5t103 206.5
t159 158t207 102t242.5 33q211 3 384 -92.5t270.5 -267t93.5 -381.5q3 -158 -53.5 -296.5t-156.5 -236.5t-240 -153.5t-298 -53.5q-211 -3 -383 92.5t-268.5 266t-93.5 381.5zM1235 711q0 273 -109 430t-303 157q-191 0 -300 -157.5t-109 -429.5q0 -273 107.5 -428.5
t301.5 -155.5t303 155.5t109 428.5z" />
    <glyph glyph-name="multiply" unicode="&#xd7;" horiz-adv-x="999" 
d="M827 913l101 -100l-328 -328l328 -327l-103 -101l-325 326l-326 -326l-102 99l327 327l-327 330l102 100l326 -327z" />
    <glyph glyph-name="Oslash" unicode="&#xd8;" horiz-adv-x="1648" 
d="M1346 1262q109 -100 168 -242t59 -309q3 -158 -53.5 -296.5t-156.5 -236.5t-240 -153.5t-298 -53.5q-240 0 -426 119l-157 -196l-99 73l160 199q-107 101 -165 241t-58 304q-2 126 33.5 241.5t103 206.5t159 158t207 102t242.5 33q241 0 422 -117l158 195l98 -74z
M473 377l637 788q-109 133 -285 133q-191 0 -300 -157.5t-109 -429.5q0 -200 57 -334zM1237 711q0 200 -59 342l-639 -791q108 -135 286 -135q194 0 303 155.5t109 428.5z" />
    <glyph glyph-name="Ugrave" unicode="&#xd9;" horiz-adv-x="1562" 
d="M836 1843l106 -323h-111l-288 313v10h293zM193 602v582q0 70 -11.5 104.5t-35 48.5t-76.5 25v61h548v-61q-79 -15 -100.5 -45t-21.5 -133v-582q0 -195 91 -307.5t267 -112.5q168 0 262 109.5t94 312.5v574q0 101 -26.5 138.5t-96.5 45.5v61h406v-61q-70 -8 -96.5 -45.5
t-26.5 -138.5v-574q0 -300 -151 -466.5t-428 -166.5q-284 0 -441 165t-157 466z" />
    <glyph glyph-name="Uacute" unicode="&#xda;" horiz-adv-x="1562" 
d="M819 1524h-106l110 323h289v-10zM193 602v582q0 70 -11.5 104.5t-35 48.5t-76.5 25v61h548v-61q-79 -15 -100.5 -45t-21.5 -133v-582q0 -195 91 -307.5t267 -112.5q168 0 262 109.5t94 312.5v574q0 101 -26.5 138.5t-96.5 45.5v61h406v-61q-70 -8 -96.5 -45.5
t-26.5 -138.5v-574q0 -300 -151 -466.5t-428 -166.5q-284 0 -441 165t-157 466z" />
    <glyph glyph-name="Ucircumflex" unicode="&#xdb;" horiz-adv-x="1562" 
d="M616 1522h-116l258 323h133l260 -323h-121l-207 137zM193 602v582q0 70 -11.5 104.5t-35 48.5t-76.5 25v61h548v-61q-79 -15 -100.5 -45t-21.5 -133v-582q0 -195 91 -307.5t267 -112.5q168 0 262 109.5t94 312.5v574q0 101 -26.5 138.5t-96.5 45.5v61h406v-61
q-70 -8 -96.5 -45.5t-26.5 -138.5v-574q0 -300 -151 -466.5t-428 -166.5q-284 0 -441 165t-157 466z" />
    <glyph glyph-name="Udieresis" unicode="&#xdc;" horiz-adv-x="1562" 
d="M463 1700q0 62 44 106.5t107 44.5q62 0 107 -45t45 -106q0 -63 -45 -107.5t-107 -44.5q-63 0 -107 44.5t-44 107.5zM887 1700q0 62 44 106.5t107 44.5q62 0 107 -45t45 -106q0 -63 -45 -107.5t-107 -44.5q-63 0 -107 44.5t-44 107.5zM193 602v582q0 70 -11.5 104.5
t-35 48.5t-76.5 25v61h548v-61q-79 -15 -100.5 -45t-21.5 -133v-582q0 -195 91 -307.5t267 -112.5q168 0 262 109.5t94 312.5v574q0 101 -26.5 138.5t-96.5 45.5v61h406v-61q-70 -8 -96.5 -45.5t-26.5 -138.5v-574q0 -300 -151 -466.5t-428 -166.5q-284 0 -441 165t-157 466
z" />
    <glyph glyph-name="Yacute" unicode="&#xdd;" horiz-adv-x="1435" 
d="M1038 1847v-10l-293 -313h-106l111 323h288zM1012 1423h432v-61q-81 -26 -129 -66t-92 -118l-351 -598v-330q0 -40 1.5 -66t8 -46t13 -31t23.5 -20t32 -14t45 -12v-61h-549v61q34 8 47.5 12t31 13.5t22 18t11.5 30.5t8 45t3 66v315l-360 627q-43 75 -85 112t-114 62v61
h596v-61q-86 -21 -86 -74q0 -27 41 -104l230 -410h16l227 397q53 90 53 125q0 24 -17 39t-58 27v61z" />
    <glyph glyph-name="Thorn" unicode="&#xde;" horiz-adv-x="1286" 
d="M647 1141q259 0 418 -111q160 -112 160 -311q0 -208 -162 -324q-159 -114 -416 -114h-133v-48q0 -36 1.5 -59t8 -41t13.5 -28t23.5 -19t31.5 -13.5t45 -11.5v-61h-549v61q30 7 45 11.5t31.5 13.5t23.5 19t13.5 28t8 41t1.5 59v957q0 36 -1.5 59t-8 41t-13.5 28t-23.5 19
t-31.5 13.5t-45 11.5v61h549v-61q-30 -7 -45 -11.5t-31.5 -13.5t-23.5 -19t-13.5 -28t-8 -41t-1.5 -59v-49h133zM621 420q136 0 212 76.5t76 216.5q0 141 -75 214.5t-213 73.5h-107v-581h107z" />
    <glyph glyph-name="germandbls" unicode="&#xdf;" horiz-adv-x="1173" 
d="M500 20l26 97q41 -13 78 -13q101 0 160 76.5t59 210.5q0 137 -77 219t-216 88v123q108 4 167 81.5t59 213.5q0 107 -42 171.5t-116 64.5q-176 0 -176 -244v-1108h-356v61q57 9 70.5 31.5t13.5 114.5v807q0 217 124 343t338 126q182 0 300 -98t118 -255q0 -134 -81 -227.5
t-228 -130.5v-16q182 -26 285.5 -129t103.5 -252q0 -178 -121 -291t-299 -113q-108 0 -190 49z" />
    <glyph glyph-name="agrave" unicode="&#xe0;" horiz-adv-x="1034" 
d="M494 1438l106 -324h-111l-288 313v11h293zM1016 59q-116 -84 -234 -84q-85 0 -137.5 45t-52.5 117v2h-17q-44 -82 -111 -125t-149 -43q-107 0 -178 67.5t-71 172.5q0 106 84 173.5t253 113.5l189 53v80q0 90 -56 139t-145 49q-121 0 -258 -90l-57 80q209 188 416 188
q169 0 268.5 -92.5t99.5 -286.5v-440q0 -67 51 -67q34 0 70 20zM592 279v165l-109 -38q-74 -26 -110.5 -61t-36.5 -87q0 -48 29 -78t71 -30q48 0 88.5 35t67.5 94z" />
    <glyph glyph-name="aacute" unicode="&#xe1;" horiz-adv-x="1034" 
d="M782 1438v-11l-293 -313h-106l111 324h288zM1016 59q-116 -84 -234 -84q-85 0 -137.5 45t-52.5 117v2h-17q-44 -82 -111 -125t-149 -43q-107 0 -178 67.5t-71 172.5q0 106 84 173.5t253 113.5l189 53v80q0 90 -56 139t-145 49q-121 0 -258 -90l-57 80q209 188 416 188
q169 0 268.5 -92.5t99.5 -286.5v-440q0 -67 51 -67q34 0 70 20zM592 279v165l-109 -38q-74 -26 -110.5 -61t-36.5 -87q0 -48 29 -78t71 -30q48 0 88.5 35t67.5 94z" />
    <glyph glyph-name="acircumflex" unicode="&#xe2;" horiz-adv-x="1034" 
d="M692 1114l-207 137l-206 -137h-117l258 324h133l260 -324h-121zM1016 59q-116 -84 -234 -84q-85 0 -137.5 45t-52.5 117v2h-17q-44 -82 -111 -125t-149 -43q-107 0 -178 67.5t-71 172.5q0 106 84 173.5t253 113.5l189 53v80q0 90 -56 139t-145 49q-121 0 -258 -90l-57 80
q209 188 416 188q169 0 268.5 -92.5t99.5 -286.5v-440q0 -67 51 -67q34 0 70 20zM592 279v165l-109 -38q-74 -26 -110.5 -61t-36.5 -87q0 -48 29 -78t71 -30q48 0 88.5 35t67.5 94z" />
    <glyph glyph-name="atilde" unicode="&#xe3;" horiz-adv-x="1034" 
d="M252 1133h-107q4 130 61 205t148 75q62 0 142 -51l53 -37q44 -33 76 -33q79 0 100 113h104q-4 -133 -59.5 -208t-148.5 -75q-65 0 -144 54l-49 34q-44 33 -78 33q-80 0 -98 -110zM1016 59q-116 -84 -234 -84q-85 0 -137.5 45t-52.5 117v2h-17q-44 -82 -111 -125t-149 -43
q-107 0 -178 67.5t-71 172.5q0 106 84 173.5t253 113.5l189 53v80q0 90 -56 139t-145 49q-121 0 -258 -90l-57 80q209 188 416 188q169 0 268.5 -92.5t99.5 -286.5v-440q0 -67 51 -67q34 0 70 20zM592 279v165l-109 -38q-74 -26 -110.5 -61t-36.5 -87q0 -48 29 -78t71 -30
q48 0 88.5 35t67.5 94z" />
    <glyph glyph-name="adieresis" unicode="&#xe4;" horiz-adv-x="1034" 
d="M125 1286q0 62 44 107t107 45q62 0 107 -45t45 -107q0 -63 -45 -107t-107 -44q-63 0 -107 44t-44 107zM549 1286q0 62 44 107t107 45q62 0 107 -45t45 -107q0 -63 -45 -107t-107 -44q-63 0 -107 44t-44 107zM1016 59q-116 -84 -234 -84q-85 0 -137.5 45t-52.5 117v2h-17
q-44 -82 -111 -125t-149 -43q-107 0 -178 67.5t-71 172.5q0 106 84 173.5t253 113.5l189 53v80q0 90 -56 139t-145 49q-121 0 -258 -90l-57 80q209 188 416 188q169 0 268.5 -92.5t99.5 -286.5v-440q0 -67 51 -67q34 0 70 20zM592 279v165l-109 -38q-74 -26 -110.5 -61
t-36.5 -87q0 -48 29 -78t71 -30q48 0 88.5 35t67.5 94z" />
    <glyph glyph-name="aring" unicode="&#xe5;" horiz-adv-x="1034" 
d="M274 1290q0 86 62.5 147.5t150.5 61.5t150.5 -61.5t62.5 -147.5t-62.5 -146.5t-150.5 -60.5t-150.5 60.5t-62.5 146.5zM393 1290q0 -43 26.5 -70.5t67.5 -27.5t67 27.5t26 70.5t-26 71t-67 28t-67.5 -28t-26.5 -71zM1016 59q-116 -84 -234 -84q-85 0 -137.5 45t-52.5 117
v2h-17q-44 -82 -111 -125t-149 -43q-107 0 -178 67.5t-71 172.5q0 106 84 173.5t253 113.5l189 53v80q0 90 -56 139t-145 49q-121 0 -258 -90l-57 80q209 188 416 188q169 0 268.5 -92.5t99.5 -286.5v-440q0 -67 51 -67q34 0 70 20zM592 279v165l-109 -38
q-74 -26 -110.5 -61t-36.5 -87q0 -48 29 -78t71 -30q48 0 88.5 35t67.5 94z" />
    <glyph glyph-name="ae" unicode="&#xe6;" horiz-adv-x="1552" 
d="M1516 207q-155 -236 -420 -236q-126 0 -232.5 57t-167.5 160h-16q-55 -99 -152.5 -158t-212.5 -59q-107 0 -178 66.5t-71 173.5q0 108 80.5 172.5t256.5 114.5l189 53v80q0 91 -57 139.5t-148 48.5q-114 0 -254 -90l-57 80q91 84 201.5 136t214.5 52q184 0 278 -110h16
q120 110 293 110q180 0 284.5 -102.5t104.5 -284.5v-73h-602q7 -172 97.5 -263.5t236.5 -91.5q151 0 254 86zM868 649h342q-2 111 -42 169.5t-117 58.5q-68 0 -119 -61t-64 -167zM592 276v168l-115 -41q-72 -27 -106.5 -61.5t-34.5 -83.5t28.5 -78.5t71.5 -29.5q47 0 88 34
t68 92z" />
    <glyph glyph-name="ccedilla" unicode="&#xe7;" horiz-adv-x="980" 
d="M977 207q-158 -236 -416 -236l-24 -67l2 -4q19 8 51 8q67 0 109 -39.5t42 -104.5q0 -84 -63 -137t-162 -53q-133 0 -225 115l45 51q60 -51 133 -51q48 0 76 19t28 54q0 29 -21 45.5t-54 16.5q-27 0 -66 -17h-10l61 168q-187 27 -301 162q-114 138 -114 340
q0 222 154.5 371t383.5 149q149 0 266 -57v-260h-61q-18 84 -70.5 135t-128.5 51q-119 0 -191.5 -89t-72.5 -238q0 -165 85.5 -261t228.5 -96q147 0 253 86z" />
    <glyph glyph-name="egrave" unicode="&#xe8;" horiz-adv-x="1013" 
d="M535 1438l106 -324h-111l-288 313v11h293zM979 207q-157 -236 -416 -236q-216 0 -355.5 141.5t-139.5 374.5q0 213 138.5 361.5t336.5 148.5q179 0 284 -102.5t105 -284.5v-73h-604q7 -169 99.5 -262t238.5 -93q143 0 252 86zM332 649h342q-2 109 -42.5 168.5
t-113.5 59.5t-123 -60t-63 -168z" />
    <glyph glyph-name="eacute" unicode="&#xe9;" horiz-adv-x="1013" 
d="M823 1438v-11l-293 -313h-106l111 324h288zM979 207q-157 -236 -416 -236q-216 0 -355.5 141.5t-139.5 374.5q0 213 138.5 361.5t336.5 148.5q179 0 284 -102.5t105 -284.5v-73h-604q7 -169 99.5 -262t238.5 -93q143 0 252 86zM332 649h342q-2 109 -42.5 168.5
t-113.5 59.5t-123 -60t-63 -168z" />
    <glyph glyph-name="ecircumflex" unicode="&#xea;" horiz-adv-x="1013" 
d="M733 1114l-207 137l-207 -137h-116l258 324h133l260 -324h-121zM979 207q-157 -236 -416 -236q-216 0 -355.5 141.5t-139.5 374.5q0 213 138.5 361.5t336.5 148.5q179 0 284 -102.5t105 -284.5v-73h-604q7 -169 99.5 -262t238.5 -93q143 0 252 86zM332 649h342
q-2 109 -42.5 168.5t-113.5 59.5t-123 -60t-63 -168z" />
    <glyph glyph-name="edieresis" unicode="&#xeb;" horiz-adv-x="1013" 
d="M166 1286q0 62 44 107t107 45q61 0 106.5 -45t45.5 -107q0 -63 -45 -107t-107 -44q-63 0 -107 44t-44 107zM590 1286q0 62 44 107t107 45q61 0 106.5 -45t45.5 -107q0 -63 -45 -107t-107 -44q-63 0 -107 44t-44 107zM979 207q-157 -236 -416 -236q-216 0 -355.5 141.5
t-139.5 374.5q0 213 138.5 361.5t336.5 148.5q179 0 284 -102.5t105 -284.5v-73h-604q7 -169 99.5 -262t238.5 -93q143 0 252 86zM332 649h342q-2 109 -42.5 168.5t-113.5 59.5t-123 -60t-63 -168z" />
    <glyph glyph-name="igrave" unicode="&#xec;" horiz-adv-x="585" 
d="M305 1438l107 -324h-111l-289 313v11h293zM436 203q0 -42 2 -64t5 -38t14.5 -22.5t22 -10t36.5 -7.5v-61h-436v61q40 7 54.5 15t22 35.5t7.5 91.5v536q0 65 -23 88.5t-82 28.5v62l363 61h14v-776z" />
    <glyph glyph-name="iacute" unicode="&#xed;" horiz-adv-x="587" 
d="M291 1114h-107l111 324h289v-11zM426 203q0 -42 2 -64t5 -38t14.5 -22.5t22 -10t36.5 -7.5v-61h-436v61q40 7 54.5 15t22 35.5t7.5 91.5v536q0 65 -23 88.5t-82 28.5v62l363 61h14v-776z" />
    <glyph glyph-name="icircumflex" unicode="&#xee;" horiz-adv-x="585" 
d="M90 1114h-117l258 324h134l260 -324h-121l-207 137zM436 203q0 -42 2 -64t5 -38t14.5 -22.5t22 -10t36.5 -7.5v-61h-436v61q40 7 54.5 15t22 35.5t7.5 91.5v536q0 65 -23 88.5t-82 28.5v62l363 61h14v-776z" />
    <glyph glyph-name="idieresis" unicode="&#xef;" horiz-adv-x="585" 
d="M-63 1286q0 62 44 107t107 45q62 0 107 -45t45 -107q0 -63 -45 -107t-107 -44q-63 0 -107 44t-44 107zM360 1286q0 62 44.5 107t107.5 45q62 0 107 -45t45 -107q0 -63 -45 -107t-107 -44q-63 0 -107.5 44t-44.5 107zM436 203q0 -42 2 -64t5 -38t14.5 -22.5t22 -10
t36.5 -7.5v-61h-436v61q40 7 54.5 15t22 35.5t7.5 91.5v536q0 65 -23 88.5t-82 28.5v62l363 61h14v-776z" />
    <glyph glyph-name="eth" unicode="&#xf0;" horiz-adv-x="1196" 
d="M854 1262q256 -229 256 -592q2 -134 -37 -261t-109.5 -225t-177.5 -156.5t-231 -56.5q-213 0 -350 147.5t-137 381.5q0 211 136.5 354t327.5 143q199 0 304 -188h16q-27 235 -160 383l-319 -141l-45 100l276 121q-92 72 -223 125l33 86q199 -45 342 -144l229 101l43 -101
zM819 629q-24 92 -82 146t-137 54q-116 0 -185 -101t-69 -269q0 -148 60 -256q62 -105 165 -105q115 0 181.5 120t66.5 323v88z" />
    <glyph glyph-name="ntilde" unicode="&#xf1;" horiz-adv-x="1169" 
d="M594 1176l-49 34q-44 33 -78 33q-80 0 -98 -110h-107q4 130 61 205t148 75q36 0 66.5 -11.5t74.5 -39.5l54 -37q44 -33 75 -33q38 0 64.5 28.5t36.5 84.5h104q-4 -133 -60 -208t-149 -75q-64 0 -143 54zM166 737q0 66 -22 90t-83 29v62l365 61h12v-145h17
q43 78 113 120.5t157 42.5q137 0 219 -96t82 -266v-449q0 -72 16.5 -95.5t67.5 -29.5v-61h-440v61q55 6 69.5 27t14.5 98v443q0 92 -36 141t-100 49q-55 0 -102 -40.5t-78 -106.5v-486q0 -77 14.5 -98t69.5 -27v-61h-440v61q51 6 67.5 28.5t16.5 96.5v551z" />
    <glyph glyph-name="ograve" unicode="&#xf2;" horiz-adv-x="1157" 
d="M586 1438l106 -324h-110l-289 313v11h293zM68 485q0 225 144.5 368.5t367.5 143.5q221 0 366.5 -144t145.5 -368q0 -225 -145.5 -369.5t-366.5 -144.5q-223 0 -367.5 144.5t-144.5 369.5zM797 485q0 179 -56.5 274t-160.5 95t-161 -95t-57 -274t57 -274.5t161 -95.5
q103 0 160 95.5t57 274.5z" />
    <glyph glyph-name="oacute" unicode="&#xf3;" horiz-adv-x="1157" 
d="M582 1114h-107l111 324h288v-11zM68 485q0 225 144.5 368.5t367.5 143.5q221 0 366.5 -144t145.5 -368q0 -225 -145.5 -369.5t-366.5 -144.5q-223 0 -367.5 144.5t-144.5 369.5zM797 485q0 179 -56.5 274t-160.5 95t-161 -95t-57 -274t57 -274.5t161 -95.5
q103 0 160 95.5t57 274.5z" />
    <glyph glyph-name="ocircumflex" unicode="&#xf4;" horiz-adv-x="1157" 
d="M371 1114h-117l258 324h133l260 -324h-121l-206 137zM68 485q0 225 144.5 368.5t367.5 143.5q221 0 366.5 -144t145.5 -368q0 -225 -145.5 -369.5t-366.5 -144.5q-223 0 -367.5 144.5t-144.5 369.5zM797 485q0 179 -56.5 274t-160.5 95t-161 -95t-57 -274t57 -274.5
t161 -95.5q103 0 160 95.5t57 274.5z" />
    <glyph glyph-name="otilde" unicode="&#xf5;" horiz-adv-x="1157" 
d="M569 1176l-49 34q-44 33 -78 33q-80 0 -98 -110h-106q4 130 60.5 205t147.5 75q62 0 142 -51l53 -37q44 -33 76 -33q79 0 100 113h105q-4 -133 -60 -208t-149 -75q-65 0 -144 54zM68 485q0 225 144.5 368.5t367.5 143.5q221 0 366.5 -144t145.5 -368
q0 -225 -145.5 -369.5t-366.5 -144.5q-223 0 -367.5 144.5t-144.5 369.5zM797 485q0 179 -56.5 274t-160.5 95t-161 -95t-57 -274t57 -274.5t161 -95.5q103 0 160 95.5t57 274.5z" />
    <glyph glyph-name="odieresis" unicode="&#xf6;" horiz-adv-x="1157" 
d="M217 1286q0 62 44.5 107t107.5 45q61 0 106 -45t45 -107q0 -63 -44.5 -107t-106.5 -44q-63 0 -107.5 44t-44.5 107zM641 1286q0 62 44.5 107t107.5 45q61 0 106 -45t45 -107q0 -63 -44.5 -107t-106.5 -44q-63 0 -107.5 44t-44.5 107zM68 485q0 225 144.5 368.5
t367.5 143.5q221 0 366.5 -144t145.5 -368q0 -225 -145.5 -369.5t-366.5 -144.5q-223 0 -367.5 144.5t-144.5 369.5zM797 485q0 179 -56.5 274t-160.5 95t-161 -95t-57 -274t57 -274.5t161 -95.5q103 0 160 95.5t57 274.5z" />
    <glyph glyph-name="divide" unicode="&#xf7;" horiz-adv-x="1157" 
d="M442 834q0 57 40.5 97t97.5 40t97 -40t40 -97t-40 -97.5t-97 -40.5t-97.5 40.5t-40.5 97.5zM1063 412h-969v143h969v-143zM442 137q0 59 40 98t98 39q57 0 97 -40t40 -97t-40 -97t-97 -40t-97.5 40t-40.5 97z" />
    <glyph glyph-name="oslash" unicode="&#xf8;" horiz-adv-x="1167" 
d="M958 848q140 -140 140 -363q0 -225 -145.5 -369.5t-366.5 -144.5q-158 0 -279 74l-121 -147l-94 73l121 150q-139 142 -139 364q0 225 144.5 368.5t367.5 143.5q155 0 280 -73l117 143l94 -74zM383 328l356 440q-56 86 -153 86q-104 0 -160.5 -95t-56.5 -274
q0 -97 14 -157zM803 485q0 89 -15 154l-356 -438q56 -86 154 -86q103 0 160 95.5t57 274.5z" />
    <glyph glyph-name="ugrave" unicode="&#xf9;" horiz-adv-x="1140" 
d="M567 1438l107 -324h-111l-289 313v11h293zM139 330v442q0 76 -18.5 101t-73.5 34v62h365v-662q0 -155 118 -155q51 0 97.5 38.5t81.5 110.5v471q0 70 -18.5 95.5t-74.5 39.5v62h365v-733q0 -67 18.5 -89.5t69.5 -27.5v-62l-346 -65h-12v147h-17q-44 -78 -112 -123
t-158 -45q-127 0 -206 95.5t-79 263.5z" />
    <glyph glyph-name="uacute" unicode="&#xfa;" horiz-adv-x="1140" 
d="M563 1114h-106l110 324h289v-11zM139 330v442q0 76 -18.5 101t-73.5 34v62h365v-662q0 -155 118 -155q51 0 97.5 38.5t81.5 110.5v471q0 70 -18.5 95.5t-74.5 39.5v62h365v-733q0 -67 18.5 -89.5t69.5 -27.5v-62l-346 -65h-12v147h-17q-44 -78 -112 -123t-158 -45
q-127 0 -206 95.5t-79 263.5z" />
    <glyph glyph-name="ucircumflex" unicode="&#xfb;" horiz-adv-x="1140" 
d="M352 1114h-116l258 324h133l260 -324h-121l-207 137zM139 330v442q0 76 -18.5 101t-73.5 34v62h365v-662q0 -155 118 -155q51 0 97.5 38.5t81.5 110.5v471q0 70 -18.5 95.5t-74.5 39.5v62h365v-733q0 -67 18.5 -89.5t69.5 -27.5v-62l-346 -65h-12v147h-17
q-44 -78 -112 -123t-158 -45q-127 0 -206 95.5t-79 263.5z" />
    <glyph glyph-name="udieresis" unicode="&#xfc;" horiz-adv-x="1140" 
d="M199 1286q0 62 44 107t107 45q62 0 107 -45t45 -107q0 -63 -45 -107t-107 -44q-63 0 -107 44t-44 107zM623 1286q0 62 44 107t107 45q62 0 107 -45t45 -107q0 -63 -45 -107t-107 -44q-63 0 -107 44t-44 107zM139 330v442q0 76 -18.5 101t-73.5 34v62h365v-662
q0 -155 118 -155q51 0 97.5 38.5t81.5 110.5v471q0 70 -18.5 95.5t-74.5 39.5v62h365v-733q0 -67 18.5 -89.5t69.5 -27.5v-62l-346 -65h-12v147h-17q-44 -78 -112 -123t-158 -45q-127 0 -206 95.5t-79 263.5z" />
    <glyph glyph-name="yacute" unicode="&#xfd;" horiz-adv-x="1071" 
d="M866 1438v-11l-293 -313h-106l111 324h288zM717 969h356v-62q-60 -18 -94 -55.5t-61 -108.5l-336 -868q-66 -170 -158 -241.5t-221 -71.5q-92 0 -160 39v225q84 -35 168 -35q195 0 260 170l-330 787q-31 70 -60.5 102t-86.5 57v62h479v-62q-65 -15 -65 -63q0 -19 22 -80
l174 -422h14l160 410q21 52 21 79q0 56 -82 76v62z" />
    <glyph glyph-name="thorn" unicode="&#xfe;" horiz-adv-x="1196" 
d="M158 1214q0 71 -20.5 98.5t-84.5 28.5v62l365 61h12v-630h16q105 163 295 163q173 0 290.5 -137t117.5 -352q0 -239 -143 -388t-353 -149q-122 0 -207 58h-16v-234q0 -41 2.5 -63t6.5 -38t18 -23.5t27.5 -11t45.5 -7.5v-62h-456v62q55 9 69.5 32t14.5 111v1419zM868 475
q0 160 -59.5 252t-167.5 92q-70 0 -124 -40t-87 -105v-307q0 -125 52.5 -197t144.5 -72q111 0 176 109t65 268z" />
    <glyph glyph-name="ydieresis" unicode="&#xff;" horiz-adv-x="1071" 
d="M209 1286q0 62 44 107t107 45q62 0 107 -45t45 -107q0 -63 -45 -107t-107 -44q-63 0 -107 44t-44 107zM633 1286q0 62 44 107t107 45q62 0 107 -45t45 -107q0 -63 -45 -107t-107 -44q-63 0 -107 44t-44 107zM717 969h356v-62q-60 -18 -94 -55.5t-61 -108.5l-336 -868
q-66 -170 -158 -241.5t-221 -71.5q-92 0 -160 39v225q84 -35 168 -35q195 0 260 170l-330 787q-31 70 -60.5 102t-86.5 57v62h479v-62q-65 -15 -65 -63q0 -19 22 -80l174 -422h14l160 410q21 52 21 79q0 56 -82 76v62z" />
    <glyph glyph-name="Amacron" unicode="&#x100;" horiz-adv-x="1454" 
d="M406 1733h630v-125h-630v125zM1292 252q41 -95 74 -137q37 -37 100 -54v-61h-579v61q59 10 83.5 29t24.5 51q0 28 -28 101l-66 161h-506l-59 -147q-29 -82 -29 -102q0 -38 31 -60.5t100 -32.5v-61h-448v61q70 12 102.5 47.5t69.5 129.5l477 1185h164zM637 1012l-184 -465
h389l-189 465h-16z" />
    <glyph glyph-name="amacron" unicode="&#x101;" horiz-adv-x="1034" 
d="M174 1321h631v-125h-631v125zM1016 59q-116 -84 -234 -84q-85 0 -137.5 45t-52.5 117v2h-17q-44 -82 -111 -125t-149 -43q-107 0 -178 67.5t-71 172.5q0 106 84 173.5t253 113.5l189 53v80q0 90 -56 139t-145 49q-121 0 -258 -90l-57 80q209 188 416 188
q169 0 268.5 -92.5t99.5 -286.5v-440q0 -67 51 -67q34 0 70 20zM592 279v165l-109 -38q-74 -26 -110.5 -61t-36.5 -87q0 -48 29 -78t71 -30q48 0 88.5 35t67.5 94z" />
    <glyph glyph-name="Abreve" unicode="&#x102;" horiz-adv-x="1454" 
d="M438 1845h111q6 -75 51 -117t125 -42q78 0 123 42t51 117h111q-1 -153 -77.5 -238t-207.5 -85q-132 0 -209 85.5t-78 237.5zM1292 252q41 -95 74 -137q37 -37 100 -54v-61h-579v61q59 10 83.5 29t24.5 51q0 28 -28 101l-66 161h-506l-59 -147q-29 -82 -29 -102
q0 -38 31 -60.5t100 -32.5v-61h-448v61q70 12 102.5 47.5t69.5 129.5l477 1185h164zM637 1012l-184 -465h389l-189 465h-16z" />
    <glyph glyph-name="abreve" unicode="&#x103;" horiz-adv-x="1034" 
d="M201 1438h110q6 -75 51 -117.5t125 -42.5q78 0 123.5 42.5t51.5 117.5h110q-1 -153 -77.5 -238.5t-207.5 -85.5t-208 85.5t-78 238.5zM1016 59q-116 -84 -234 -84q-85 0 -137.5 45t-52.5 117v2h-17q-44 -82 -111 -125t-149 -43q-107 0 -178 67.5t-71 172.5
q0 106 84 173.5t253 113.5l189 53v80q0 90 -56 139t-145 49q-121 0 -258 -90l-57 80q209 188 416 188q169 0 268.5 -92.5t99.5 -286.5v-440q0 -67 51 -67q34 0 70 20zM592 279v165l-109 -38q-74 -26 -110.5 -61t-36.5 -87q0 -48 29 -78t71 -30q48 0 88.5 35t67.5 94z" />
    <glyph glyph-name="Aogonek" unicode="&#x104;" horiz-adv-x="1454" 
d="M1331 0q-184 -94 -184 -205q0 -43 28.5 -68.5t73.5 -25.5q40 0 90 29l45 -54q-74 -100 -202 -100q-90 0 -146.5 51.5t-56.5 128.5q0 81 57.5 143t153.5 101h-303v61q59 10 83.5 29t24.5 51q0 28 -28 101l-66 161h-506l-59 -147q-29 -82 -29 -102q0 -38 31 -60.5
t100 -32.5v-61h-448v61q70 12 102.5 47.5t69.5 129.5l477 1185h164l489 -1171q41 -95 74 -137q37 -37 100 -54v-61h-135zM637 1012l-184 -465h389l-189 465h-16z" />
    <glyph glyph-name="aogonek" unicode="&#x105;" horiz-adv-x="1034" 
d="M944 -260l45 -53q-75 -101 -203 -101q-90 0 -146 52t-56 129q0 65 39.5 120t107.5 93q-64 14 -101.5 55t-37.5 102v2h-17q-44 -82 -111 -125t-149 -43q-107 0 -178 67.5t-71 172.5q0 106 84 173.5t253 113.5l189 53v80q0 90 -56 139t-145 49q-121 0 -258 -90l-57 80
q209 188 416 188q169 0 268.5 -92.5t99.5 -286.5v-440q0 -67 51 -67q34 0 70 20l35 -72q-45 -34 -80 -49q-184 -94 -184 -205q0 -43 28.5 -68.5t73.5 -25.5q40 0 90 29zM592 279v165l-109 -38q-74 -26 -110.5 -61t-36.5 -87q0 -48 29 -78t71 -30q48 0 88.5 35t67.5 94z" />
    <glyph glyph-name="Cacute" unicode="&#x106;" horiz-adv-x="1423" 
d="M834 1524h-107l111 323h288v-10zM76 702q-2 132 39 251.5t115.5 210t173.5 156.5t216.5 100t239.5 32q241 0 430 -100v-348h-65q-55 154 -141.5 227.5t-211.5 73.5q-137 0 -243 -73.5t-161.5 -197t-55.5 -276.5q0 -256 147 -410.5t377 -154.5t405 147l76 -78
q-231 -291 -575 -291q-157 -2 -298 49.5t-245.5 145.5t-164.5 233.5t-58 302.5z" />
    <glyph glyph-name="cacute" unicode="&#x107;" horiz-adv-x="978" 
d="M553 1114h-107l111 324h289v-11zM66 477q0 222 154.5 371t383.5 149q149 0 266 -57v-260h-61q-18 84 -70.5 135t-128.5 51q-119 0 -191.5 -89t-72.5 -238q0 -165 85 -261t228 -96q148 0 254 86l62 -61q-158 -236 -418 -236q-216 0 -353.5 142t-137.5 364z" />
    <glyph glyph-name="Ccircumflex" unicode="&#x108;" horiz-adv-x="1423" 
d="M631 1522h-117l258 323h133l260 -323h-121l-206 137zM76 702q-2 132 39 251.5t115.5 210t173.5 156.5t216.5 100t239.5 32q241 0 430 -100v-348h-65q-55 154 -141.5 227.5t-211.5 73.5q-137 0 -243 -73.5t-161.5 -197t-55.5 -276.5q0 -256 147 -410.5t377 -154.5t405 147
l76 -78q-231 -291 -575 -291q-157 -2 -298 49.5t-245.5 145.5t-164.5 233.5t-58 302.5z" />
    <glyph glyph-name="ccircumflex" unicode="&#x109;" horiz-adv-x="978" 
d="M342 1114h-117l258 324h133l261 -324h-121l-207 137zM66 477q0 222 154.5 371t383.5 149q149 0 266 -57v-260h-61q-18 84 -70.5 135t-128.5 51q-119 0 -191.5 -89t-72.5 -238q0 -165 85 -261t228 -96q148 0 254 86l62 -61q-158 -236 -418 -236q-216 0 -353.5 142
t-137.5 364z" />
    <glyph glyph-name="Cdotaccent" unicode="&#x10a;" horiz-adv-x="1423" 
d="M678 1694q0 67 49 115.5t117 48.5q66 0 115 -49t49 -115q0 -68 -48.5 -117t-115.5 -49q-69 0 -117.5 48.5t-48.5 117.5zM76 702q-2 132 39 251.5t115.5 210t173.5 156.5t216.5 100t239.5 32q241 0 430 -100v-348h-65q-55 154 -141.5 227.5t-211.5 73.5q-137 0 -243 -73.5
t-161.5 -197t-55.5 -276.5q0 -256 147 -410.5t377 -154.5t405 147l76 -78q-231 -291 -575 -291q-157 -2 -298 49.5t-245.5 145.5t-164.5 233.5t-58 302.5z" />
    <glyph glyph-name="cdotaccent" unicode="&#x10b;" horiz-adv-x="978" 
d="M391 1286q0 67 49 115.5t117 48.5q66 0 115 -49t49 -115q0 -68 -48.5 -117t-115.5 -49q-69 0 -117.5 48.5t-48.5 117.5zM66 477q0 222 154.5 371t383.5 149q149 0 266 -57v-260h-61q-18 84 -70.5 135t-128.5 51q-119 0 -191.5 -89t-72.5 -238q0 -165 85 -261t228 -96
q148 0 254 86l62 -61q-158 -236 -418 -236q-216 0 -353.5 142t-137.5 364z" />
    <glyph glyph-name="Ccaron" unicode="&#x10c;" horiz-adv-x="1423" 
d="M1038 1845h117l-258 -323h-133l-260 323h121l206 -137zM76 702q-2 132 39 251.5t115.5 210t173.5 156.5t216.5 100t239.5 32q241 0 430 -100v-348h-65q-55 154 -141.5 227.5t-211.5 73.5q-137 0 -243 -73.5t-161.5 -197t-55.5 -276.5q0 -256 147 -410.5t377 -154.5
t405 147l76 -78q-231 -291 -575 -291q-157 -2 -298 49.5t-245.5 145.5t-164.5 233.5t-58 302.5z" />
    <glyph glyph-name="ccaron" unicode="&#x10d;" horiz-adv-x="978" 
d="M756 1438h116l-258 -324h-133l-260 324h121l207 -138zM66 477q0 222 154.5 371t383.5 149q149 0 266 -57v-260h-61q-18 84 -70.5 135t-128.5 51q-119 0 -191.5 -89t-72.5 -238q0 -165 85 -261t228 -96q148 0 254 86l62 -61q-158 -236 -418 -236q-216 0 -353.5 142
t-137.5 364z" />
    <glyph glyph-name="Dcaron" unicode="&#x10e;" horiz-adv-x="1583" 
d="M975 1845h117l-258 -323h-134l-260 323h121l207 -137zM213 1196q0 90 -24 122t-99 44v61h602q374 0 594.5 -192.5t220.5 -515.5q0 -325 -220.5 -520t-594.5 -195h-602v61q34 6 53.5 13.5t35 19t22 33t9.5 50.5t3 77v942zM639 139q258 0 395 143.5t137 432.5
q0 286 -137 427.5t-395 141.5h-123v-1145h123z" />
    <glyph glyph-name="dcaron" unicode="&#x10f;" horiz-adv-x="1212" 
d="M1389 1343q0 -58 -48 -141l-90 -162h-96l117 197h-4q-55 0 -92 35t-37 86t36 86t87 35q57 0 92 -38t35 -98zM1061 240q0 -66 17.5 -93t70.5 -28v-62l-346 -65h-12v147h-17q-54 -87 -126 -127.5t-171 -40.5q-169 0 -287 136t-118 356q0 146 60 267t173.5 194t259.5 73
q129 0 207 -65h16v280q0 72 -20.5 98.5t-83.5 30.5v62l365 61h12v-1224zM788 606q0 123 -51 193.5t-139 70.5q-115 0 -180.5 -104.5t-65.5 -278.5q0 -151 59.5 -244t161.5 -93q146 0 215 151v305z" />
    <glyph glyph-name="Dcroat" unicode="&#x110;" horiz-adv-x="1599" 
d="M709 1423q374 0 594.5 -192.5t220.5 -515.5q0 -325 -220.5 -520t-594.5 -195h-603v61q34 6 53.5 13.5t35 19t22 33t9.5 50.5t3 77v420h-194v127h194v395q0 90 -24 122t-99 44v61h603zM655 139q258 0 395.5 143.5t137.5 432.5q0 285 -137.5 427t-395.5 142h-123v-483h302
v-127h-302v-535h123z" />
    <glyph glyph-name="dcroat" unicode="&#x111;" horiz-adv-x="1212" 
d="M1206 1098h-145v-858q0 -66 17.5 -93t70.5 -28v-62l-346 -65h-12v147h-17q-54 -87 -126 -127.5t-171 -40.5q-169 0 -287 136t-118 356q0 146 60 267t173.5 194t259.5 73q129 0 207 -65h16v166h-284v106h284v8q0 72 -20.5 98.5t-83.5 30.5v62l365 61h12v-260h145v-106z
M788 606q0 123 -51 193.5t-139 70.5q-115 0 -180.5 -104.5t-65.5 -278.5q0 -151 59.5 -244t161.5 -93q146 0 215 151v305z" />
    <glyph glyph-name="Emacron" unicode="&#x112;" horiz-adv-x="1298" 
d="M1018 1608h-631v125h631v-125zM1233 395v-395h-1145v61q32 8 47 12.5t31.5 14.5t22 19t11.5 31t7.5 45.5t3.5 66.5v944q0 94 -23 123.5t-100 44.5v61h1102v-342h-66q-14 74 -45.5 116.5t-92.5 62.5t-163 20h-309v-492h229q119 0 168.5 35t61.5 117h65v-442h-65
q-8 81 -57.5 114t-172.5 33h-229v-502h352q139 0 208 54.5t93 197.5h66z" />
    <glyph glyph-name="emacron" unicode="&#x113;" horiz-adv-x="1013" 
d="M215 1321h631v-125h-631v125zM979 207q-157 -236 -416 -236q-216 0 -355.5 141.5t-139.5 374.5q0 213 138.5 361.5t336.5 148.5q179 0 284 -102.5t105 -284.5v-73h-604q7 -169 99.5 -262t238.5 -93q143 0 252 86zM332 649h342q-2 109 -42.5 168.5t-113.5 59.5t-123 -60
t-63 -168z" />
    <glyph glyph-name="Ebreve" unicode="&#x114;" horiz-adv-x="1298" 
d="M420 1845h110q6 -75 51.5 -117t125.5 -42q78 0 123 42t51 117h110q-1 -153 -77 -238t-207 -85q-132 0 -209 85.5t-78 237.5zM1233 395v-395h-1145v61q32 8 47 12.5t31.5 14.5t22 19t11.5 31t7.5 45.5t3.5 66.5v944q0 94 -23 123.5t-100 44.5v61h1102v-342h-66
q-14 74 -45.5 116.5t-92.5 62.5t-163 20h-309v-492h229q119 0 168.5 35t61.5 117h65v-442h-65q-8 81 -57.5 114t-172.5 33h-229v-502h352q139 0 208 54.5t93 197.5h66z" />
    <glyph glyph-name="ebreve" unicode="&#x115;" horiz-adv-x="1013" 
d="M242 1438h110q6 -75 51 -117.5t125 -42.5q78 0 123 42.5t51 117.5h111q-1 -153 -77.5 -238.5t-207.5 -85.5t-208 85.5t-78 238.5zM979 207q-157 -236 -416 -236q-216 0 -355.5 141.5t-139.5 374.5q0 213 138.5 361.5t336.5 148.5q179 0 284 -102.5t105 -284.5v-73h-604
q7 -169 99.5 -262t238.5 -93q143 0 252 86zM332 649h342q-2 109 -42.5 168.5t-113.5 59.5t-123 -60t-63 -168z" />
    <glyph glyph-name="Edotaccent" unicode="&#x116;" horiz-adv-x="1298" 
d="M545 1694q0 67 49 115.5t117 48.5q66 0 114.5 -49t48.5 -115q0 -68 -48 -117t-115 -49q-69 0 -117.5 48.5t-48.5 117.5zM1233 395v-395h-1145v61q32 8 47 12.5t31.5 14.5t22 19t11.5 31t7.5 45.5t3.5 66.5v944q0 94 -23 123.5t-100 44.5v61h1102v-342h-66
q-14 74 -45.5 116.5t-92.5 62.5t-163 20h-309v-492h229q119 0 168.5 35t61.5 117h65v-442h-65q-8 81 -57.5 114t-172.5 33h-229v-502h352q139 0 208 54.5t93 197.5h66z" />
    <glyph glyph-name="edotaccent" unicode="&#x117;" horiz-adv-x="1013" 
d="M369 1286q0 67 49 115.5t117 48.5q66 0 114.5 -49t48.5 -115q0 -68 -48 -117t-115 -49q-69 0 -117.5 48.5t-48.5 117.5zM979 207q-157 -236 -416 -236q-216 0 -355.5 141.5t-139.5 374.5q0 213 138.5 361.5t336.5 148.5q179 0 284 -102.5t105 -284.5v-73h-604
q7 -169 99.5 -262t238.5 -93q143 0 252 86zM332 649h342q-2 109 -42.5 168.5t-113.5 59.5t-123 -60t-63 -168z" />
    <glyph glyph-name="Eogonek" unicode="&#x118;" horiz-adv-x="1298" 
d="M1286 -324q-74 -100 -203 -100q-90 0 -146 51.5t-56 128.5q0 81 57.5 143t153.5 101h-1004v61q32 8 47 12.5t31.5 14.5t22 19t11.5 31t7.5 45.5t3.5 66.5v944q0 94 -23 123.5t-100 44.5v61h1102v-342h-66q-14 74 -45.5 116.5t-92.5 62.5t-163 20h-309v-492h229
q119 0 168.5 35t61.5 117h65v-442h-65q-8 81 -57.5 114t-172.5 33h-229v-502h352q139 0 208 54.5t93 197.5h66v-395q-184 -94 -184 -205q0 -43 28.5 -68.5t73.5 -25.5q40 0 90 29z" />
    <glyph glyph-name="eogonek" unicode="&#x119;" horiz-adv-x="1013" 
d="M512 -203q0 -46 28 -71t76 -25q46 0 89 29l45 -54q-72 -100 -203 -100q-91 0 -147 51.5t-56 130.5q0 64 40.5 119.5t109.5 93.5v9q-197 26 -311.5 161.5t-114.5 345.5q0 213 139.5 361.5t337.5 148.5q176 0 281.5 -102.5t105.5 -284.5v-73h-602q7 -172 97.5 -263.5
t236.5 -91.5q148 0 254 86l61 -61q-59 -87 -122 -136t-152 -83q-95 -36 -144 -86t-49 -105zM332 649h342q-2 109 -42 168.5t-112 59.5q-73 0 -124 -60.5t-64 -167.5z" />
    <glyph glyph-name="Ecaron" unicode="&#x11a;" horiz-adv-x="1298" 
d="M905 1845h117l-258 -323h-133l-260 323h121l206 -137zM1233 395v-395h-1145v61q32 8 47 12.5t31.5 14.5t22 19t11.5 31t7.5 45.5t3.5 66.5v944q0 94 -23 123.5t-100 44.5v61h1102v-342h-66q-14 74 -45.5 116.5t-92.5 62.5t-163 20h-309v-492h229q119 0 168.5 35t61.5 117
h65v-442h-65q-8 81 -57.5 114t-172.5 33h-229v-502h352q139 0 208 54.5t93 197.5h66z" />
    <glyph glyph-name="ecaron" unicode="&#x11b;" horiz-adv-x="1013" 
d="M850 1438l-258 -324h-133l-260 324h120l207 -138l207 138h117zM979 207q-157 -236 -416 -236q-216 0 -355.5 141.5t-139.5 374.5q0 213 138.5 361.5t336.5 148.5q179 0 284 -102.5t105 -284.5v-73h-604q7 -169 99.5 -262t238.5 -93q143 0 252 86zM332 649h342
q-2 109 -42.5 168.5t-113.5 59.5t-123 -60t-63 -168z" />
    <glyph glyph-name="Gcircumflex" unicode="&#x11c;" horiz-adv-x="1521" 
d="M1071 1522l-207 137l-207 -137h-116l258 323h133l260 -323h-121zM891 733h567v-61q-72 -15 -92 -48.5t-20 -142.5v-377q-242 -133 -500 -133q-222 0 -397.5 93t-274 261t-98.5 380q-4 208 107.5 380.5t308.5 271t436 95.5q273 0 469 -100v-340h-62q-52 148 -147.5 220.5
t-247.5 72.5q-162 0 -283 -78t-183 -210.5t-62 -299.5q0 -129 33 -239t95 -191t156.5 -126.5t210.5 -45.5q60 0 135 16v342q0 114 -28 149t-123 50v61z" />
    <glyph glyph-name="gcircumflex" unicode="&#x11d;" horiz-adv-x="1101" 
d="M717 1114l-207 137l-207 -137h-117l258 324h134l260 -324h-121zM1063 850h-223v-10q39 -27 62.5 -73.5t23.5 -102.5q0 -145 -111 -238.5t-293 -93.5q-95 0 -172 24q-74 -39 -74 -98q0 -35 30 -54.5t85 -19.5h287q183 0 279 -66t96 -190q0 -152 -160 -259t-412 -107
q-208 0 -332 65.5t-124 171.5q0 55 38 102t111 79v6q-45 27 -72.5 72t-27.5 98q0 149 174 241v9q-69 44 -106.5 111.5t-37.5 148.5q0 151 113.5 241t300.5 90q85 0 164 -26l369 90h12v-211zM680 666q0 100 -43.5 159.5t-116.5 59.5t-116.5 -59.5t-43.5 -159.5
q0 -103 43 -162.5t117 -59.5t117 59.5t43 162.5zM297 -47h-4q-55 -43 -55 -109q0 -76 66 -119.5t188 -43.5q135 0 223 45.5t88 119.5q0 107 -162 107h-344z" />
    <glyph glyph-name="Gbreve" unicode="&#x11e;" horiz-adv-x="1521" 
d="M580 1845h110q6 -75 51 -117t125 -42q78 0 123 42t51 117h111q-1 -153 -77.5 -238t-207.5 -85q-132 0 -208.5 85t-77.5 238zM891 733h567v-61q-72 -15 -92 -48.5t-20 -142.5v-377q-242 -133 -500 -133q-222 0 -397.5 93t-274 261t-98.5 380q-4 208 107.5 380.5t308.5 271
t436 95.5q273 0 469 -100v-340h-62q-52 148 -147.5 220.5t-247.5 72.5q-162 0 -283 -78t-183 -210.5t-62 -299.5q0 -129 33 -239t95 -191t156.5 -126.5t210.5 -45.5q60 0 135 16v342q0 114 -28 149t-123 50v61z" />
    <glyph glyph-name="gbreve" unicode="&#x11f;" horiz-adv-x="1101" 
d="M238 1438h110q6 -75 51 -117.5t125 -42.5q78 0 123 42.5t51 117.5h111q-1 -153 -77.5 -238.5t-207.5 -85.5t-208 85.5t-78 238.5zM1063 850h-223v-10q39 -27 62.5 -73.5t23.5 -102.5q0 -145 -111 -238.5t-293 -93.5q-95 0 -172 24q-74 -39 -74 -98q0 -35 30 -54.5
t85 -19.5h287q183 0 279 -66t96 -190q0 -152 -160 -259t-412 -107q-208 0 -332 65.5t-124 171.5q0 55 38 102t111 79v6q-45 27 -72.5 72t-27.5 98q0 149 174 241v9q-69 44 -106.5 111.5t-37.5 148.5q0 151 113.5 241t300.5 90q85 0 164 -26l369 90h12v-211zM680 666
q0 100 -43.5 159.5t-116.5 59.5t-116.5 -59.5t-43.5 -159.5q0 -103 43 -162.5t117 -59.5t117 59.5t43 162.5zM297 -47h-4q-55 -43 -55 -109q0 -76 66 -119.5t188 -43.5q135 0 223 45.5t88 119.5q0 107 -162 107h-344z" />
    <glyph glyph-name="Gdotaccent" unicode="&#x120;" horiz-adv-x="1521" 
d="M705 1694q0 67 48.5 115.5t116.5 48.5q66 0 115 -49t49 -115q0 -68 -48.5 -117t-115.5 -49q-69 0 -117 48.5t-48 117.5zM891 733h567v-61q-72 -15 -92 -48.5t-20 -142.5v-377q-242 -133 -500 -133q-222 0 -397.5 93t-274 261t-98.5 380q-4 208 107.5 380.5t308.5 271
t436 95.5q273 0 469 -100v-340h-62q-52 148 -147.5 220.5t-247.5 72.5q-162 0 -283 -78t-183 -210.5t-62 -299.5q0 -129 33 -239t95 -191t156.5 -126.5t210.5 -45.5q60 0 135 16v342q0 114 -28 149t-123 50v61z" />
    <glyph glyph-name="gdotaccent" unicode="&#x121;" horiz-adv-x="1101" 
d="M365 1286q0 67 48.5 115.5t116.5 48.5q66 0 115 -49t49 -115q0 -68 -48.5 -117t-115.5 -49q-69 0 -117 48.5t-48 117.5zM1063 850h-223v-10q39 -27 62.5 -73.5t23.5 -102.5q0 -145 -111 -238.5t-293 -93.5q-95 0 -172 24q-74 -39 -74 -98q0 -35 30 -54.5t85 -19.5h287
q183 0 279 -66t96 -190q0 -152 -160 -259t-412 -107q-208 0 -332 65.5t-124 171.5q0 55 38 102t111 79v6q-45 27 -72.5 72t-27.5 98q0 149 174 241v9q-69 44 -106.5 111.5t-37.5 148.5q0 151 113.5 241t300.5 90q85 0 164 -26l369 90h12v-211zM680 666q0 100 -43.5 159.5
t-116.5 59.5t-116.5 -59.5t-43.5 -159.5q0 -103 43 -162.5t117 -59.5t117 59.5t43 162.5zM297 -47h-4q-55 -43 -55 -109q0 -76 66 -119.5t188 -43.5q135 0 223 45.5t88 119.5q0 107 -162 107h-344z" />
    <glyph glyph-name="uni0122" unicode="&#x122;" horiz-adv-x="1521" 
d="M891 733h567v-61q-72 -15 -92 -48.5t-20 -142.5v-377q-242 -133 -500 -133q-222 0 -397.5 93t-274 261t-98.5 380q-4 208 107.5 380.5t308.5 271t436 95.5q273 0 469 -100v-340h-62q-52 148 -147.5 220.5t-247.5 72.5q-162 0 -283 -78t-183 -210.5t-62 -299.5
q0 -129 33 -239t95 -191t156.5 -126.5t210.5 -45.5q60 0 135 16v342q0 114 -28 149t-123 50v61zM993 -227q0 -60 -49 -148l-96 -170h-100l122 207h-4q-60 0 -98.5 36.5t-38.5 90.5q0 55 37.5 91t93.5 36q60 0 96.5 -40t36.5 -103z" />
    <glyph glyph-name="uni0123" unicode="&#x123;" horiz-adv-x="1101" 
d="M395 1227q0 59 49 147l97 170h100l-123 -207h4q60 0 98.5 -36.5t38.5 -90.5q0 -55 -37.5 -91t-93.5 -36q-60 0 -96.5 40.5t-36.5 103.5zM1063 850h-223v-10q39 -27 62.5 -73.5t23.5 -102.5q0 -145 -111 -238.5t-293 -93.5q-95 0 -172 24q-74 -39 -74 -98q0 -35 30 -54.5
t85 -19.5h287q183 0 279 -66t96 -190q0 -152 -160 -259t-412 -107q-208 0 -332 65.5t-124 171.5q0 55 38 102t111 79v6q-45 27 -72.5 72t-27.5 98q0 149 174 241v9q-69 44 -106.5 111.5t-37.5 148.5q0 151 113.5 241t300.5 90q85 0 164 -26l369 90h12v-211zM680 666
q0 100 -43.5 159.5t-116.5 59.5t-116.5 -59.5t-43.5 -159.5q0 -103 43 -162.5t117 -59.5t117 59.5t43 162.5zM297 -47h-4q-55 -43 -55 -109q0 -76 66 -119.5t188 -43.5q135 0 223 45.5t88 119.5q0 107 -162 107h-344z" />
    <glyph glyph-name="Hcircumflex" unicode="&#x124;" horiz-adv-x="1681" 
d="M1051 1522l-207 137l-207 -137h-117l258 323h133l260 -323h-120zM1591 1362q-30 -7 -45 -11.5t-31.5 -13.5t-23.5 -19t-13.5 -28t-8 -41t-1.5 -59v-957q0 -36 1.5 -59t8 -41t13.5 -28t23.5 -19t31.5 -13.5t45 -11.5v-61h-549v61q30 7 45 11.5t31.5 13.5t23.5 19t13.5 28
t8 41t1.5 59v416h-651v-416q0 -36 1.5 -59t8 -41t13.5 -28t23.5 -19t31.5 -13.5t45 -11.5v-61h-549v61q30 7 45 11.5t31.5 13.5t23.5 19t13.5 28t8 41t1.5 59v957q0 36 -1.5 59t-8 41t-13.5 28t-23.5 19t-31.5 13.5t-45 11.5v61h549v-61q-30 -7 -45 -11.5t-31.5 -13.5
t-23.5 -19t-13.5 -28t-8 -41t-1.5 -59v-397h651v397q0 36 -1.5 59t-8 41t-13.5 28t-23.5 19t-31.5 13.5t-45 11.5v61h549v-61z" />
    <glyph glyph-name="hcircumflex" unicode="&#x125;" horiz-adv-x="1157" 
d="M403 1522h-116l258 323h133l260 -323h-121l-207 137zM156 1223q0 66 -22 89.5t-83 28.5v62l365 61h12v-630h16q94 163 271 163q137 0 219 -96t82 -266v-449q0 -72 16.5 -95.5t67.5 -29.5v-61h-441v61q55 6 69.5 27t14.5 98v443q0 93 -35.5 141.5t-99.5 48.5
q-55 0 -104 -41.5t-76 -105.5v-486q0 -77 14.5 -98t69.5 -27v-61h-440v61q51 6 67.5 28.5t16.5 96.5v1037z" />
    <glyph glyph-name="Hbar" unicode="&#x126;" horiz-adv-x="1732" 
d="M1675 1026h-182v-793q0 -36 1.5 -59t8 -41t13.5 -28t23.5 -19t31.5 -13.5t45 -11.5v-61h-549v61q30 7 45 11.5t31.5 13.5t23.5 19t13.5 28t8 41t1.5 59v416h-651v-416q0 -36 1.5 -59t8 -41t13.5 -28t23.5 -19t31.5 -13.5t45 -11.5v-61h-549v61q30 7 45 11.5t31.5 13.5
t23.5 19t13.5 28t8 41t1.5 59v793h-177v133h177v31q0 36 -1.5 59t-8 41t-13.5 28t-23.5 19t-31.5 13.5t-45 11.5v61h549v-61q-30 -7 -45 -11.5t-31.5 -13.5t-23.5 -19t-13.5 -28t-8 -41t-1.5 -59v-31h651v31q0 36 -1.5 59t-8 41t-13.5 28t-23.5 19t-31.5 13.5t-45 11.5v61
h549v-61q-30 -7 -45 -11.5t-31.5 -13.5t-23.5 -19t-13.5 -28t-8 -41t-1.5 -59v-31h182v-133zM539 793h651v233h-651v-233z" />
    <glyph glyph-name="hbar" unicode="&#x127;" horiz-adv-x="1157" 
d="M1016 186q0 -72 16.5 -95.5t67.5 -29.5v-61h-441v61q55 6 69.5 27t14.5 98v443q0 93 -35.5 141.5t-99.5 48.5q-55 0 -104 -41.5t-76 -105.5v-486q0 -77 14.5 -98t69.5 -27v-61h-440v61q51 6 67.5 28.5t16.5 96.5v912h-158v106h158v19q0 66 -22 89.5t-83 28.5v62l365 61
h12v-260h272v-106h-272v-264h16q94 163 271 163q137 0 219 -96t82 -266v-449z" />
    <glyph glyph-name="Itilde" unicode="&#x128;" horiz-adv-x="724" 
d="M352 1591l-49 35q-44 33 -78 33q-80 0 -98 -111h-107q4 130 61 205.5t148 75.5q62 0 142 -51l53 -37q44 -33 76 -33q79 0 100 113h105q-4 -133 -60 -208t-149 -75q-67 0 -144 53zM88 61q30 7 45 11.5t31.5 13.5t23.5 19t13.5 28t8 41t1.5 59v957q0 36 -1.5 59t-8 41
t-13.5 28t-23.5 19t-31.5 13.5t-45 11.5v61h549v-61q-30 -7 -45 -11.5t-31.5 -13.5t-23.5 -19t-13.5 -28t-8 -41t-1.5 -59v-957q0 -36 1.5 -59t8 -41t13.5 -28t23.5 -19t31.5 -13.5t45 -11.5v-61h-549v61z" />
    <glyph glyph-name="itilde" unicode="&#x129;" horiz-adv-x="585" 
d="M289 1176l-49 34q-44 33 -78 33q-81 0 -99 -110h-106q4 130 61 205t148 75q36 0 66.5 -11.5t74.5 -39.5l53 -37q44 -33 76 -33q38 0 64.5 28.5t36.5 84.5h104q-4 -133 -60 -208t-149 -75q-64 0 -143 54zM436 203q0 -42 2 -64t5 -38t14.5 -22.5t22 -10t36.5 -7.5v-61h-436
v61q40 7 54.5 15t22 35.5t7.5 91.5v536q0 65 -23 88.5t-82 28.5v62l363 61h14v-776z" />
    <glyph glyph-name="Imacron" unicode="&#x12a;" horiz-adv-x="724" 
d="M678 1608h-631v125h631v-125zM88 61q30 7 45 11.5t31.5 13.5t23.5 19t13.5 28t8 41t1.5 59v957q0 36 -1.5 59t-8 41t-13.5 28t-23.5 19t-31.5 13.5t-45 11.5v61h549v-61q-30 -7 -45 -11.5t-31.5 -13.5t-23.5 -19t-13.5 -28t-8 -41t-1.5 -59v-957q0 -36 1.5 -59t8 -41
t13.5 -28t23.5 -19t31.5 -13.5t45 -11.5v-61h-549v61z" />
    <glyph glyph-name="imacron" unicode="&#x12b;" horiz-adv-x="585" 
d="M616 1196h-630v125h630v-125zM436 203q0 -42 2 -64t5 -38t14.5 -22.5t22 -10t36.5 -7.5v-61h-436v61q40 7 54.5 15t22 35.5t7.5 91.5v536q0 65 -23 88.5t-82 28.5v62l363 61h14v-776z" />
    <glyph glyph-name="Ibreve" unicode="&#x12c;" horiz-adv-x="724" 
d="M80 1845h110q6 -75 51.5 -117t125.5 -42q78 0 123 42t51 117h110q-1 -153 -77 -238t-207 -85q-132 0 -209 85.5t-78 237.5zM88 61q30 7 45 11.5t31.5 13.5t23.5 19t13.5 28t8 41t1.5 59v957q0 36 -1.5 59t-8 41t-13.5 28t-23.5 19t-31.5 13.5t-45 11.5v61h549v-61
q-30 -7 -45 -11.5t-31.5 -13.5t-23.5 -19t-13.5 -28t-8 -41t-1.5 -59v-957q0 -36 1.5 -59t8 -41t13.5 -28t23.5 -19t31.5 -13.5t45 -11.5v-61h-549v61z" />
    <glyph glyph-name="ibreve" unicode="&#x12d;" horiz-adv-x="585" 
d="M12 1438h111q6 -75 51 -117.5t125 -42.5q78 0 123 42.5t51 117.5h111q-1 -153 -77.5 -238.5t-207.5 -85.5q-132 0 -209 85.5t-78 238.5zM436 203q0 -42 2 -64t5 -38t14.5 -22.5t22 -10t36.5 -7.5v-61h-436v61q40 7 54.5 15t22 35.5t7.5 91.5v536q0 65 -23 88.5t-82 28.5
v62l363 61h14v-776z" />
    <glyph glyph-name="Iogonek" unicode="&#x12e;" horiz-adv-x="724" 
d="M637 1362q-30 -7 -45 -11.5t-31.5 -13.5t-23.5 -19t-13.5 -28t-8 -41t-1.5 -59v-957q0 -36 1.5 -59t8 -41t13.5 -28t23.5 -19t31.5 -13.5t45 -11.5v-61h-133q-185 -95 -185 -205q0 -43 29 -68.5t74 -25.5q40 0 90 29l45 -54q-74 -100 -203 -100q-90 0 -146 51.5
t-56 128.5q0 81 57 143t153 101h-274v61q30 7 45 11.5t31.5 13.5t23.5 19t13.5 28t8 41t1.5 59v957q0 36 -1.5 59t-8 41t-13.5 28t-23.5 19t-31.5 13.5t-45 11.5v61h549v-61z" />
    <glyph glyph-name="iogonek" unicode="&#x12f;" horiz-adv-x="585" 
d="M139 1286q0 67 49 115.5t117 48.5q66 0 115 -49t49 -115q0 -68 -48.5 -117t-115.5 -49q-69 0 -117.5 48.5t-48.5 117.5zM430 0q-184 -94 -184 -205q0 -43 28.5 -68.5t73.5 -25.5q40 0 90 29l45 -54q-74 -100 -202 -100q-90 0 -146.5 51.5t-56.5 128.5q0 81 57.5 143
t153.5 101h-209v61q40 7 54.5 15t22 35.5t7.5 91.5v536q0 65 -23 88.5t-82 28.5v62l363 61h14v-776q0 -42 2 -64t5 -38t14.5 -22.5t22 -10t36.5 -7.5v-61h-86z" />
    <glyph glyph-name="Idotaccent" unicode="&#x130;" horiz-adv-x="724" 
d="M205 1694q0 67 49 115.5t117 48.5q66 0 115 -49t49 -115q0 -68 -48.5 -117t-115.5 -49q-69 0 -117.5 48.5t-48.5 117.5zM88 61q30 7 45 11.5t31.5 13.5t23.5 19t13.5 28t8 41t1.5 59v957q0 36 -1.5 59t-8 41t-13.5 28t-23.5 19t-31.5 13.5t-45 11.5v61h549v-61
q-30 -7 -45 -11.5t-31.5 -13.5t-23.5 -19t-13.5 -28t-8 -41t-1.5 -59v-957q0 -36 1.5 -59t8 -41t13.5 -28t23.5 -19t31.5 -13.5t45 -11.5v-61h-549v61z" />
    <glyph glyph-name="dotlessi" unicode="&#x131;" horiz-adv-x="585" 
d="M436 203q0 -42 2 -64t5 -38t14.5 -22.5t22 -10t36.5 -7.5v-61h-436v61q40 7 54.5 15t22 35.5t7.5 91.5v536q0 65 -23 88.5t-82 28.5v62l363 61h14v-776z" />
    <glyph glyph-name="IJ" unicode="&#x132;" horiz-adv-x="1748" 
d="M88 61q30 7 45 11.5t31.5 13.5t23.5 19t13.5 28t8 41t1.5 59v957q0 36 -1.5 59t-8 41t-13.5 28t-23.5 19t-31.5 13.5t-45 11.5v61h549v-61q-30 -7 -45 -11.5t-31.5 -13.5t-23.5 -19t-13.5 -28t-8 -41t-1.5 -59v-957q0 -36 1.5 -59t8 -41t13.5 -28t23.5 -19t31.5 -13.5
t45 -11.5v-61h-549v61zM727 78l41 102q102 -45 209 -45q128 0 203 75t75 228v762q0 86 -23.5 117t-98.5 45v61h548v-61q-77 -15 -99.5 -45t-22.5 -117v-717q0 -258 -142 -385q-139 -127 -360 -127q-184 0 -330 107z" />
    <glyph glyph-name="ij" unicode="&#x133;" horiz-adv-x="1148" 
d="M139 1286q0 67 49 115.5t117 48.5q66 0 115 -49t49 -115q0 -68 -48.5 -117t-115.5 -49q-69 0 -117.5 48.5t-48.5 117.5zM436 203q0 -42 2 -64t5 -38t14.5 -22.5t22 -10t36.5 -7.5v-61h-436v61q40 7 54.5 15t22 35.5t7.5 91.5v536q0 65 -23 88.5t-82 28.5v62l363 61h14
v-776zM717 1286q0 67 49 115.5t117 48.5q66 0 115 -49t49 -115q0 -68 -48.5 -117t-115.5 -49q-69 0 -117.5 48.5t-48.5 117.5zM420 -381l33 100q61 -22 110 -22q178 0 178 190v842q0 72 -21.5 99t-82.5 28v62l362 61h15v-1042q0 -198 -109 -287q-107 -88 -260 -88
q-133 0 -225 57z" />
    <glyph glyph-name="Jcircumflex" unicode="&#x134;" horiz-adv-x="1024" 
d="M475 1522h-117l258 323h134l260 -323h-121l-207 137zM2 78l41 102q102 -45 209 -45q128 0 203 75t75 228v762q0 86 -23.5 117t-98.5 45v61h548v-61q-77 -15 -99.5 -45t-22.5 -117v-717q0 -258 -142 -385q-139 -127 -360 -127q-184 0 -330 107z" />
    <glyph glyph-name="jcircumflex" unicode="&#x135;" horiz-adv-x="563" 
d="M82 1114h-117l258 324h133l260 -324h-120l-207 137zM-166 -381l33 100q61 -22 110 -22q179 0 179 190v842q0 72 -22 99t-83 28v62l363 61h14v-1042q0 -198 -109 -287q-107 -88 -260 -88q-133 0 -225 57z" />
    <glyph glyph-name="uni0136" unicode="&#x136;" horiz-adv-x="1488" 
d="M829 852l701 -844v-8h-400l-505 633l-111 -119v-281q0 -36 1.5 -59t8 -41t13.5 -28t23.5 -19t31.5 -13.5t45 -11.5v-61h-549v61q30 7 45 11.5t31.5 13.5t23.5 19t13.5 28t8 41t1.5 59v957q0 36 -1.5 59t-8 41t-13.5 28t-23.5 19t-31.5 13.5t-45 11.5v61h549v-61
q-30 -7 -45 -11.5t-31.5 -13.5t-23.5 -19t-13.5 -28t-8 -41t-1.5 -59v-447h14l428 465q66 69 66 103q0 33 -72 51v61h498v-61q-96 -8 -164 -51q-67 -42 -154 -135zM936 -227q0 -60 -49 -148l-96 -170h-101l123 207h-4q-60 0 -98.5 36.5t-38.5 90.5q0 55 37.5 91t93.5 36
q60 0 96.5 -40t36.5 -103z" />
    <glyph glyph-name="uni0137" unicode="&#x137;" horiz-adv-x="1159" 
d="M696 610l484 -598v-12h-342l-332 426l-82 -78v-141q0 -93 14 -116.5t70 -29.5v-61h-440v61q54 6 69 31.5t15 114.5v999q0 78 -20 106t-85 29v62l365 61h12v-929h12l279 272q41 41 41 65q0 29 -51 35v62h417v-62q-86 -12 -135 -39q-45 -26 -117 -92zM741 -227
q0 -60 -49 -148l-96 -170h-100l122 207h-4q-60 0 -98.5 36.5t-38.5 90.5q0 55 37.5 91t93.5 36q60 0 96.5 -40t36.5 -103z" />
    <glyph glyph-name="Lacute" unicode="&#x139;" horiz-adv-x="1196" 
d="M360 1524h-106l111 323h288v-10zM88 61q75 14 99 46t24 120v955q0 54 -3 80.5t-15.5 50t-36.5 33.5t-68 16v61h549v-61q-44 -6 -68 -16t-36.5 -33.5t-15.5 -50t-3 -80.5v-1039h270q69 0 115.5 12.5t84.5 44.5t62 88.5t41 145.5h66v-434h-1065v61z" />
    <glyph glyph-name="lacute" unicode="&#x13a;" horiz-adv-x="575" 
d="M287 1524h-107l111 323h289v-10zM70 61q54 6 69 31.5t15 114.5v999q0 78 -20 106t-85 29v62l365 61h12v-1257q0 -93 14 -116.5t70 -29.5v-61h-440v61z" />
    <glyph glyph-name="uni013B" unicode="&#x13b;" horiz-adv-x="1196" 
d="M1153 434v-434h-1065v61q75 14 99 46t24 120v955q0 54 -3 80.5t-15.5 50t-36.5 33.5t-68 16v61h549v-61q-44 -6 -68 -16t-36.5 -33.5t-15.5 -50t-3 -80.5v-1039h270q69 0 115.5 12.5t84.5 44.5t62 88.5t41 145.5h66zM801 -227q0 -60 -49 -148l-97 -170h-100l123 207h-4
q-60 0 -98.5 36.5t-38.5 90.5q0 55 37.5 91t93.5 36q60 0 96.5 -40t36.5 -103z" />
    <glyph glyph-name="uni013C" unicode="&#x13c;" horiz-adv-x="575" 
d="M426 207q0 -93 14 -116.5t70 -29.5v-61h-440v61q54 6 69 31.5t15 114.5v999q0 78 -20 106t-85 29v62l365 61h12v-1257zM418 -227q0 -60 -49 -148l-97 -170h-100l123 207h-4q-60 0 -98.5 36.5t-38.5 90.5q0 55 37.5 91t93.5 36q60 0 96.5 -40t36.5 -103z" />
    <glyph glyph-name="Lcaron" unicode="&#x13d;" horiz-adv-x="1196" 
d="M752 1325q0 51 35.5 86t86.5 35q57 0 92 -37.5t35 -97.5q0 -61 -47 -142l-90 -161h-96l117 196h-4q-55 0 -92 35t-37 86zM1153 434v-434h-1065v61q75 14 99 46t24 120v955q0 54 -3 80.5t-15.5 50t-36.5 33.5t-68 16v61h549v-61q-44 -6 -68 -16t-36.5 -33.5t-15.5 -50
t-3 -80.5v-1039h270q69 0 115.5 12.5t84.5 44.5t62 88.5t41 145.5h66z" />
    <glyph glyph-name="lcaron" unicode="&#x13e;" horiz-adv-x="575" 
d="M754 1341q0 -60 -47 -141l-91 -162h-96l117 197h-4q-55 0 -92 35t-37 86t36 86t87 35q57 0 92 -38t35 -98zM426 207q0 -93 14 -116.5t70 -29.5v-61h-440v61q54 6 69 31.5t15 114.5v999q0 78 -20 106t-85 29v62l365 61h12v-1257z" />
    <glyph glyph-name="Ldot" unicode="&#x13f;" horiz-adv-x="1196" 
d="M88 61q75 14 99 46t24 120v955q0 54 -3 80.5t-15.5 50t-36.5 33.5t-68 16v61h549v-61q-44 -6 -68 -16t-36.5 -33.5t-15.5 -50t-3 -80.5v-1039h270q69 0 115.5 12.5t84.5 44.5t62 88.5t41 145.5h66v-434h-1065v61zM635 618q0 72 49 120t121 48t121 -49.5t49 -118.5
q0 -72 -49 -122t-121 -50t-121 50t-49 122z" />
    <glyph glyph-name="ldot" unicode="&#x140;" horiz-adv-x="784" 
d="M70 61q54 6 69 31.5t15 114.5v999q0 78 -20 106t-85 29v62l365 61h12v-1257q0 -93 14 -116.5t70 -29.5v-61h-440v61zM512 752q0 72 49 120t121 48t121 -49t49 -119q0 -72 -49 -122t-121 -50t-121 50t-49 122z" />
    <glyph glyph-name="Lslash" unicode="&#x141;" horiz-adv-x="1247" 
d="M1204 434v-434h-1065v61q75 14 99 46t24 120v224l-186 -107v150l186 104v584q0 54 -3 80.5t-15.5 50t-36.5 33.5t-68 16v61h549v-61q-44 -6 -68 -16t-36.5 -33.5t-15.5 -50t-3 -80.5v-412l344 195v-148l-344 -194v-480h271q69 0 115.5 12.5t84.5 44.5t62 88.5t41 145.5
h65z" />
    <glyph glyph-name="lslash" unicode="&#x142;" horiz-adv-x="710" 
d="M674 844l-174 -99v-538q0 -93 14 -116.5t70 -29.5v-61h-441v61q54 6 69 31.5t15 114.5v383l-178 -101v140l178 100v477q0 78 -19.5 106t-84.5 29v62l364 61h13v-579l174 98v-139z" />
    <glyph glyph-name="Nacute" unicode="&#x143;" horiz-adv-x="1542" 
d="M788 1524h-106l111 323h288v-10zM92 61q71 6 97 49.5t26 145.5v1016l-104 139v12h430l624 -921h17v672q0 101 -26 141t-97 47v61h405v-61q-73 -7 -98 -47t-25 -141v-1174h-204l-746 1098h-16v-842q0 -105 25.5 -147t97.5 -48v-61h-406v61z" />
    <glyph glyph-name="nacute" unicode="&#x144;" horiz-adv-x="1169" 
d="M606 1114h-106l110 324h289v-11zM166 737q0 66 -22 90t-83 29v62l365 61h12v-145h17q43 78 113 120.5t157 42.5q137 0 219 -96t82 -266v-449q0 -72 16.5 -95.5t67.5 -29.5v-61h-440v61q55 6 69.5 27t14.5 98v443q0 92 -36 141t-100 49q-55 0 -102 -40.5t-78 -106.5v-486
q0 -77 14.5 -98t69.5 -27v-61h-440v61q51 6 67.5 28.5t16.5 96.5v551z" />
    <glyph glyph-name="uni0145" unicode="&#x145;" horiz-adv-x="1542" 
d="M1059 1423h405v-61q-73 -7 -98 -47t-25 -141v-1174h-204l-746 1098h-16v-842q0 -105 25.5 -147t97.5 -48v-61h-406v61q71 6 97 49.5t26 145.5v1016l-104 139v12h430l624 -921h17v672q0 101 -26 141t-97 47v61zM948 -227q0 -60 -49 -148l-96 -170h-101l123 207h-4
q-60 0 -98.5 36.5t-38.5 90.5q0 55 37.5 91t93.5 36q60 0 96.5 -40t36.5 -103z" />
    <glyph glyph-name="uni0146" unicode="&#x146;" horiz-adv-x="1169" 
d="M1026 186q0 -72 16.5 -95.5t67.5 -29.5v-61h-440v61q55 6 69.5 27t14.5 98v443q0 92 -36 141t-100 49q-55 0 -102 -40.5t-78 -106.5v-486q0 -77 14.5 -98t69.5 -27v-61h-440v61q51 6 67.5 28.5t16.5 96.5v551q0 66 -22 90t-83 29v62l365 61h12v-145h17q43 78 113 120.5
t157 42.5q137 0 219 -96t82 -266v-449zM733 -227q0 -60 -49 -148l-96 -170h-101l123 207h-4q-60 0 -98.5 36.5t-38.5 90.5q0 55 37.5 91t93.5 36q60 0 96.5 -40t36.5 -103z" />
    <glyph glyph-name="Ncaron" unicode="&#x147;" horiz-adv-x="1542" 
d="M993 1845h117l-258 -323h-133l-260 323h121l206 -137zM92 61q71 6 97 49.5t26 145.5v1016l-104 139v12h430l624 -921h17v672q0 101 -26 141t-97 47v61h405v-61q-73 -7 -98 -47t-25 -141v-1174h-204l-746 1098h-16v-842q0 -105 25.5 -147t97.5 -48v-61h-406v61z" />
    <glyph glyph-name="ncaron" unicode="&#x148;" horiz-adv-x="1169" 
d="M809 1438h117l-258 -324h-133l-261 324h121l207 -138zM166 737q0 66 -22 90t-83 29v62l365 61h12v-145h17q43 78 113 120.5t157 42.5q137 0 219 -96t82 -266v-449q0 -72 16.5 -95.5t67.5 -29.5v-61h-440v61q55 6 69.5 27t14.5 98v443q0 92 -36 141t-100 49
q-55 0 -102 -40.5t-78 -106.5v-486q0 -77 14.5 -98t69.5 -27v-61h-440v61q51 6 67.5 28.5t16.5 96.5v551z" />
    <glyph glyph-name="Eng" unicode="&#x14a;" horiz-adv-x="1544" 
d="M723 -381l33 100q68 -22 114 -22q77 0 125.5 45t48.5 137v211l-651 991h-16v-819q0 -107 26 -151t97 -50v-61h-406v61q72 6 97.5 49.5t25.5 151.5v1010l-104 139v12h430l624 -948h17v694q0 109 -24 146.5t-99 46.5v61h405v-61q-75 -9 -99 -46.5t-24 -146.5v-1243
q0 -93 -34.5 -165t-92 -114.5t-126.5 -63.5t-144 -21q-131 0 -223 57z" />
    <glyph glyph-name="eng" unicode="&#x14b;" horiz-adv-x="1153" 
d="M432 -381l33 100q61 -22 110 -22q179 0 179 190v742q0 92 -36 141t-100 49q-55 0 -102 -40.5t-78 -106.5v-486q0 -77 14.5 -98t69.5 -27v-61h-440v61q51 6 67.5 28.5t16.5 96.5v551q0 66 -22 90t-83 29v62l365 61h12v-145h17q43 78 113 120.5t157 42.5q137 0 219 -96
t82 -266v-698q0 -199 -108 -287q-107 -88 -261 -88q-133 0 -225 57z" />
    <glyph glyph-name="Omacron" unicode="&#x14c;" horiz-adv-x="1646" 
d="M1139 1608h-631v125h631v-125zM78 711q-2 126 33.5 241.5t103 206.5t159 158t207 102t242.5 33q211 3 384 -92.5t270.5 -267t93.5 -381.5q3 -158 -53.5 -296.5t-156.5 -236.5t-240 -153.5t-298 -53.5q-211 -3 -383 92.5t-268.5 266t-93.5 381.5zM1235 711q0 273 -109 430
t-303 157q-191 0 -300 -157.5t-109 -429.5q0 -273 107.5 -428.5t301.5 -155.5t303 155.5t109 428.5z" />
    <glyph glyph-name="omacron" unicode="&#x14d;" horiz-adv-x="1157" 
d="M897 1196h-631v125h631v-125zM68 485q0 225 144.5 368.5t367.5 143.5q221 0 366.5 -144t145.5 -368q0 -225 -145.5 -369.5t-366.5 -144.5q-223 0 -367.5 144.5t-144.5 369.5zM797 485q0 179 -56.5 274t-160.5 95t-161 -95t-57 -274t57 -274.5t161 -95.5q103 0 160 95.5
t57 274.5z" />
    <glyph glyph-name="Obreve" unicode="&#x14e;" horiz-adv-x="1646" 
d="M541 1845h110q6 -75 51 -117t125 -42q78 0 123 42t51 117h111q-1 -153 -77.5 -238t-207.5 -85q-132 0 -208.5 85t-77.5 238zM78 711q-2 126 33.5 241.5t103 206.5t159 158t207 102t242.5 33q211 3 384 -92.5t270.5 -267t93.5 -381.5q3 -158 -53.5 -296.5t-156.5 -236.5
t-240 -153.5t-298 -53.5q-211 -3 -383 92.5t-268.5 266t-93.5 381.5zM1235 711q0 273 -109 430t-303 157q-191 0 -300 -157.5t-109 -429.5q0 -273 107.5 -428.5t301.5 -155.5t303 155.5t109 428.5z" />
    <glyph glyph-name="obreve" unicode="&#x14f;" horiz-adv-x="1157" 
d="M293 1438h110q6 -75 51.5 -117.5t125.5 -42.5q78 0 123 42.5t51 117.5h110q-1 -153 -77 -238.5t-207 -85.5q-132 0 -209 85.5t-78 238.5zM68 485q0 225 144.5 368.5t367.5 143.5q221 0 366.5 -144t145.5 -368q0 -225 -145.5 -369.5t-366.5 -144.5q-223 0 -367.5 144.5
t-144.5 369.5zM797 485q0 179 -56.5 274t-160.5 95t-161 -95t-57 -274t57 -274.5t161 -95.5q103 0 160 95.5t57 274.5z" />
    <glyph glyph-name="Ohungarumlaut" unicode="&#x150;" horiz-adv-x="1646" 
d="M666 1522h-101l103 323h266v-10zM1026 1522h-100l102 323h266v-10zM78 711q-2 126 33.5 241.5t103 206.5t159 158t207 102t242.5 33q211 3 384 -92.5t270.5 -267t93.5 -381.5q3 -158 -53.5 -296.5t-156.5 -236.5t-240 -153.5t-298 -53.5q-211 -3 -383 92.5t-268.5 266
t-93.5 381.5zM1235 711q0 273 -109 430t-303 157q-191 0 -300 -157.5t-109 -429.5q0 -273 107.5 -428.5t301.5 -155.5t303 155.5t109 428.5z" />
    <glyph glyph-name="ohungarumlaut" unicode="&#x151;" horiz-adv-x="1157" 
d="M416 1114h-101l103 324h266v-11zM776 1114h-100l102 324h266v-11zM68 485q0 225 144.5 368.5t367.5 143.5q221 0 366.5 -144t145.5 -368q0 -225 -145.5 -369.5t-366.5 -144.5q-223 0 -367.5 144.5t-144.5 369.5zM797 485q0 179 -56.5 274t-160.5 95t-161 -95t-57 -274
t57 -274.5t161 -95.5q103 0 160 95.5t57 274.5z" />
    <glyph glyph-name="OE" unicode="&#x152;" horiz-adv-x="1972" 
d="M913 0q-249 0 -438.5 87.5t-293 249t-103.5 374.5q0 211 104.5 373t296 250.5t441.5 88.5h944v-342h-66q-20 111 -88.5 155t-220.5 44h-250v-492h182q116 0 166 33.5t60 118.5h65v-442h-65q-7 82 -58 114.5t-168 32.5h-182v-502h299q138 0 208.5 55t94.5 197h66v-395
h-994zM936 143v1137h-31q-222 0 -356.5 -153.5t-134.5 -415.5q0 -263 135 -415.5t360 -152.5h27z" />
    <glyph glyph-name="oe" unicode="&#x153;" horiz-adv-x="1769" 
d="M1735 207q-155 -236 -420 -236q-216 0 -352 148h-17q-145 -148 -366 -148q-223 0 -367.5 144.5t-144.5 369.5t144.5 368.5t367.5 143.5q225 0 368 -149h17q137 149 331 149q181 0 286.5 -102t105.5 -285v-73h-605q9 -181 103 -269q95 -86 229 -86q149 0 258 86zM1090 649
h340q0 106 -41 167t-113 61q-77 0 -125.5 -62.5t-60.5 -165.5zM797 485q0 179 -56.5 274t-160.5 95t-161 -95t-57 -274t57 -274.5t161 -95.5q103 0 160 95.5t57 274.5z" />
    <glyph glyph-name="Racute" unicode="&#x154;" horiz-adv-x="1427" 
d="M999 1847v-10l-292 -313h-107l111 323h288zM1468 8v-8h-376l-504 666h-76v-420q2 -42 3.5 -65t7.5 -44.5t11.5 -30.5t22 -18.5t31.5 -14t47 -12.5v-61h-549v61q43 11 63 19t36 28t20 50.5t4 87.5v948q0 91 -22.5 122t-100.5 46v61h602q240 0 388.5 -100.5t148.5 -267.5
q0 -121 -83.5 -212t-230.5 -134zM512 805h111q135 0 210.5 64.5t75.5 181.5q0 113 -76 173t-204 60h-117v-479z" />
    <glyph glyph-name="racute" unicode="&#x155;" horiz-adv-x="833" 
d="M477 1114h-106l110 324h289v-11zM166 731q0 69 -21.5 96.5t-83.5 28.5v62l363 61h14v-289h17q70 307 276 307q34 0 70 -8v-276q-43 18 -99 18q-188 0 -264 -239v-295q0 -86 17 -106.5t88 -29.5v-61h-461v61q39 7 54 15.5t22.5 34.5t7.5 86v534z" />
    <glyph glyph-name="uni0156" unicode="&#x156;" horiz-adv-x="1427" 
d="M1468 8v-8h-376l-504 666h-76v-420q2 -42 3.5 -65t7.5 -44.5t11.5 -30.5t22 -18.5t31.5 -14t47 -12.5v-61h-549v61q43 11 63 19t36 28t20 50.5t4 87.5v948q0 91 -22.5 122t-100.5 46v61h602q240 0 388.5 -100.5t148.5 -267.5q0 -121 -83.5 -212t-230.5 -134zM512 805h111
q135 0 210.5 64.5t75.5 181.5q0 113 -76 173t-204 60h-117v-479zM901 -227q0 -60 -49 -148l-96 -170h-101l123 207h-4q-60 0 -98.5 36.5t-38.5 90.5q0 55 37.5 91t93.5 36q60 0 96.5 -40t36.5 -103z" />
    <glyph glyph-name="uni0157" unicode="&#x157;" horiz-adv-x="833" 
d="M801 989v-276q-43 18 -99 18q-188 0 -264 -239v-295q0 -86 17 -106.5t88 -29.5v-61h-461v61q39 7 54 15.5t22.5 34.5t7.5 86v534q0 69 -21.5 96.5t-83.5 28.5v62l363 61h14v-289h17q70 307 276 307q34 0 70 -8zM428 -227q0 -60 -49 -148l-96 -170h-101l123 207h-4
q-60 0 -98.5 36.5t-38.5 90.5q0 55 37.5 91t93.5 36q60 0 96.5 -40t36.5 -103z" />
    <glyph glyph-name="Rcaron" unicode="&#x158;" horiz-adv-x="1427" 
d="M1028 1845l-258 -323h-133l-260 323h121l207 -137l206 137h117zM1468 8v-8h-376l-504 666h-76v-420q2 -42 3.5 -65t7.5 -44.5t11.5 -30.5t22 -18.5t31.5 -14t47 -12.5v-61h-549v61q43 11 63 19t36 28t20 50.5t4 87.5v948q0 91 -22.5 122t-100.5 46v61h602
q240 0 388.5 -100.5t148.5 -267.5q0 -121 -83.5 -212t-230.5 -134zM512 805h111q135 0 210.5 64.5t75.5 181.5q0 113 -76 173t-204 60h-117v-479z" />
    <glyph glyph-name="rcaron" unicode="&#x159;" horiz-adv-x="833" 
d="M680 1438h117l-258 -324h-133l-261 324h121l207 -138zM166 731q0 69 -21.5 96.5t-83.5 28.5v62l363 61h14v-289h17q70 307 276 307q34 0 70 -8v-276q-43 18 -99 18q-188 0 -264 -239v-295q0 -86 17 -106.5t88 -29.5v-61h-461v61q39 7 54 15.5t22.5 34.5t7.5 86v534z" />
    <glyph glyph-name="Sacute" unicode="&#x15a;" horiz-adv-x="1112" 
d="M567 1524h-106l110 323h289v-10zM78 104v340h65q112 -325 365 -325q103 0 173.5 54.5t70.5 145.5q0 68 -41 118t-127 89l-205 97q-266 123 -266 381q0 196 145.5 322t374.5 126q96 0 196.5 -24.5t174.5 -63.5v-336h-66q-75 277 -315 277q-104 0 -169 -54.5t-65 -146.5
q0 -66 40 -115t126 -90l211 -100q268 -129 268 -379q0 -194 -150 -321.5t-376 -127.5q-232 0 -430 133z" />
    <glyph glyph-name="sacute" unicode="&#x15b;" horiz-adv-x="849" 
d="M438 1114h-106l110 324h289v-11zM80 55v244h61q43 -104 101 -151.5t143 -47.5q67 0 111.5 30t44.5 79q0 38 -22.5 63.5t-74.5 49.5l-155 71q-199 91 -199 275q0 142 110.5 235.5t280.5 93.5q145 0 269 -59v-248h-62q-40 178 -211 178q-74 0 -119 -29.5t-45 -82.5
q0 -72 105 -119l162 -72q98 -43 146 -107t48 -155q0 -145 -111.5 -238.5t-277.5 -93.5q-160 0 -305 84z" />
    <glyph glyph-name="Scircumflex" unicode="&#x15c;" horiz-adv-x="1112" 
d="M365 1522h-117l258 323h133l260 -323h-121l-207 137zM78 104v340h65q112 -325 365 -325q103 0 173.5 54.5t70.5 145.5q0 68 -41 118t-127 89l-205 97q-266 123 -266 381q0 196 145.5 322t374.5 126q96 0 196.5 -24.5t174.5 -63.5v-336h-66q-75 277 -315 277
q-104 0 -169 -54.5t-65 -146.5q0 -66 40 -115t126 -90l211 -100q268 -129 268 -379q0 -194 -150 -321.5t-376 -127.5q-232 0 -430 133z" />
    <glyph glyph-name="scircumflex" unicode="&#x15d;" horiz-adv-x="866" 
d="M236 1114h-117l258 324h133l260 -324h-121l-207 137zM80 55v244h61q43 -104 101 -151.5t143 -47.5q67 0 111.5 30t44.5 79q0 38 -22.5 63.5t-74.5 49.5l-155 71q-199 91 -199 275q0 142 110.5 235.5t280.5 93.5q145 0 269 -59v-248h-62q-40 178 -211 178
q-74 0 -119 -29.5t-45 -82.5q0 -72 105 -119l162 -72q98 -43 146 -107t48 -155q0 -145 -111.5 -238.5t-277.5 -93.5q-160 0 -305 84z" />
    <glyph glyph-name="Scedilla" unicode="&#x15e;" horiz-adv-x="1112" 
d="M586 -25l-27 -71l2 -4q19 8 51 8q67 0 109.5 -39.5t42.5 -104.5q0 -84 -63 -137t-162 -53q-134 0 -226 115l45 51q60 -51 134 -51q48 0 76 19t28 54q0 29 -21.5 45.5t-54.5 16.5q-26 0 -65 -17h-11l60 164q-231 0 -426 133v340h65q112 -325 365 -325q103 0 173.5 54.5
t70.5 145.5q0 68 -41 118t-127 89l-205 97q-266 123 -266 381q0 196 145.5 322t374.5 126q96 0 196.5 -24.5t174.5 -63.5v-336h-66q-75 277 -315 277q-104 0 -169 -54.5t-65 -146.5q0 -66 40 -115t126 -90l211 -100q268 -129 268 -379q0 -178 -125.5 -300.5t-322.5 -144.5z
" />
    <glyph glyph-name="scedilla" unicode="&#x15f;" horiz-adv-x="849" 
d="M457 -25l-27 -71l2 -4q19 8 51 8q67 0 109.5 -39.5t42.5 -104.5q0 -84 -63 -137t-162 -53q-134 0 -226 115l45 51q60 -51 133 -51q48 0 76.5 19t28.5 54q0 29 -21.5 45.5t-54.5 16.5q-26 0 -65 -17h-11l60 164q-163 3 -295 84v244h61q43 -104 101 -151.5t143 -47.5
q67 0 111.5 30t44.5 79q0 38 -22.5 63.5t-74.5 49.5l-155 71q-199 91 -199 275q0 142 110.5 235.5t280.5 93.5q145 0 269 -59v-248h-62q-40 178 -211 178q-74 0 -119 -29.5t-45 -82.5q0 -72 105 -119l162 -72q98 -43 146 -107t48 -155q0 -128 -88 -218t-229 -110z" />
    <glyph glyph-name="Scaron" unicode="&#x160;" horiz-adv-x="1112" 
d="M772 1845h117l-258 -323h-133l-260 323h120l207 -137zM78 104v340h65q112 -325 365 -325q103 0 173.5 54.5t70.5 145.5q0 68 -41 118t-127 89l-205 97q-266 123 -266 381q0 196 145.5 322t374.5 126q96 0 196.5 -24.5t174.5 -63.5v-336h-66q-75 277 -315 277
q-104 0 -169 -54.5t-65 -146.5q0 -66 40 -115t126 -90l211 -100q268 -129 268 -379q0 -194 -150 -321.5t-376 -127.5q-232 0 -430 133z" />
    <glyph glyph-name="scaron" unicode="&#x161;" horiz-adv-x="866" 
d="M649 1438h117l-258 -324h-133l-260 324h121l206 -138zM80 55v244h61q43 -104 101 -151.5t143 -47.5q67 0 111.5 30t44.5 79q0 38 -22.5 63.5t-74.5 49.5l-155 71q-199 91 -199 275q0 142 110.5 235.5t280.5 93.5q145 0 269 -59v-248h-62q-40 178 -211 178
q-74 0 -119 -29.5t-45 -82.5q0 -72 105 -119l162 -72q98 -43 146 -107t48 -155q0 -145 -111.5 -238.5t-277.5 -93.5q-160 0 -305 84z" />
    <glyph glyph-name="uni0162" unicode="&#x162;" horiz-adv-x="1302" 
d="M35 1423h1233v-358h-66q-19 114 -92 166.5t-219 52.5h-88v-1040q2 -50 6 -77t10.5 -47.5t25 -30.5t38.5 -15.5t63 -12.5v-61h-258l-35 -96l2 -4q19 8 52 8q67 0 109 -39.5t42 -104.5q0 -84 -63 -137t-162 -53q-133 0 -225 115l45 51q60 -51 133 -51q48 0 76 19t28 54
q0 29 -21.5 45.5t-54.5 16.5q-26 0 -65 -17h-10l69 193h-252v61q36 6 54 9.5t37 12.5t26 19t14 31t9 45t4 66v1040h-88q-146 0 -219.5 -52.5t-92.5 -166.5h-65v358z" />
    <glyph glyph-name="uni0163" unicode="&#x163;" horiz-adv-x="786" 
d="M621 -236q0 -84 -63.5 -137t-162.5 -53q-133 0 -225 115l45 51q60 -51 133 -51q48 0 76.5 19t28.5 54q0 29 -21.5 45.5t-54.5 16.5q-27 0 -66 -17h-10l66 187q-77 30 -121.5 103t-44.5 182v550h-189v123q82 5 130.5 18t81.5 46t46.5 85t18.5 140h184v-272h285v-140h-285
v-553q0 -141 125 -141q69 0 133 37l49 -72q-129 -129 -291 -129q-39 0 -49 2l-24 -69l2 -4q19 8 51 8q67 0 109.5 -39.5t42.5 -104.5z" />
    <glyph glyph-name="Tcaron" unicode="&#x164;" horiz-adv-x="1302" 
d="M854 1845h117l-258 -323h-133l-261 323h121l207 -137zM356 61q36 6 54 9.5t37 12.5t26 19t14 31t9 45t4 66v1040h-88q-146 0 -219.5 -52.5t-92.5 -166.5h-65v358h1233v-358h-66q-19 114 -92 166.5t-219 52.5h-88v-1040q2 -50 6 -77t10.5 -47.5t25 -30.5t38.5 -15.5
t63 -12.5v-61h-590v61z" />
    <glyph glyph-name="tcaron" unicode="&#x165;" horiz-adv-x="786" 
d="M555 1356q0 51 36 86t87 35q57 0 92 -38t35 -98t-47 -141l-90 -162h-97l117 197h-4q-55 0 -92 35t-37 86zM731 172l49 -72q-129 -129 -291 -129q-130 0 -209 79t-79 229v550h-189v123q82 5 130.5 18t81.5 46t46.5 85t18.5 140h184v-272h285v-140h-285v-553
q0 -141 125 -141q69 0 133 37z" />
    <glyph glyph-name="Tbar" unicode="&#x166;" horiz-adv-x="1302" 
d="M35 1423h1233v-358h-66q-19 114 -92 166.5t-219 52.5h-88v-461h258v-116h-258v-463q2 -50 6 -77t10.5 -47.5t25 -30.5t38.5 -15.5t63 -12.5v-61h-590v61q36 6 54 9.5t37 12.5t26 19t14 31t9 45t4 66v463h-258v116h258v461h-88q-146 0 -219.5 -52.5t-92.5 -166.5h-65v358z
" />
    <glyph glyph-name="tbar" unicode="&#x167;" horiz-adv-x="800" 
d="M791 100q-129 -129 -291 -129q-130 0 -209.5 79t-79.5 229v198h-172v107h172v245h-188v123q109 6 163.5 31t80.5 83.5t32 174.5h184v-272h285v-140h-285v-245h258v-107h-258v-201q0 -141 125 -141q69 0 133 37z" />
    <glyph glyph-name="Utilde" unicode="&#x168;" horiz-adv-x="1562" 
d="M811 1591l-49 35q-44 33 -78 33q-80 0 -98 -111h-107q4 130 61 205.5t148 75.5q36 0 66.5 -11.5t74.5 -39.5l54 -37q44 -33 75 -33q38 0 64.5 28.5t36.5 84.5h104q-4 -133 -60 -208t-149 -75q-66 0 -143 53zM193 602v582q0 70 -11.5 104.5t-35 48.5t-76.5 25v61h548v-61
q-79 -15 -100.5 -45t-21.5 -133v-582q0 -195 91 -307.5t267 -112.5q168 0 262 109.5t94 312.5v574q0 101 -26.5 138.5t-96.5 45.5v61h406v-61q-70 -8 -96.5 -45.5t-26.5 -138.5v-574q0 -300 -151 -466.5t-428 -166.5q-284 0 -441 165t-157 466z" />
    <glyph glyph-name="utilde" unicode="&#x169;" horiz-adv-x="1140" 
d="M551 1176l-49 34q-44 33 -78 33q-80 0 -98 -110h-107q4 130 61 205t148 75q36 0 66.5 -11.5t74.5 -39.5l54 -37q44 -33 75 -33q38 0 64.5 28.5t36.5 84.5h104q-4 -133 -60 -208t-149 -75q-64 0 -143 54zM139 330v442q0 76 -18.5 101t-73.5 34v62h365v-662
q0 -155 118 -155q51 0 97.5 38.5t81.5 110.5v471q0 70 -18.5 95.5t-74.5 39.5v62h365v-733q0 -67 18.5 -89.5t69.5 -27.5v-62l-346 -65h-12v147h-17q-44 -78 -112 -123t-158 -45q-127 0 -206 95.5t-79 263.5z" />
    <glyph glyph-name="Umacron" unicode="&#x16a;" horiz-adv-x="1562" 
d="M1137 1608h-631v125h631v-125zM193 602v582q0 70 -11.5 104.5t-35 48.5t-76.5 25v61h548v-61q-79 -15 -100.5 -45t-21.5 -133v-582q0 -195 91 -307.5t267 -112.5q168 0 262 109.5t94 312.5v574q0 101 -26.5 138.5t-96.5 45.5v61h406v-61q-70 -8 -96.5 -45.5t-26.5 -138.5
v-574q0 -300 -151 -466.5t-428 -166.5q-284 0 -441 165t-157 466z" />
    <glyph glyph-name="umacron" unicode="&#x16b;" horiz-adv-x="1140" 
d="M879 1196h-631v125h631v-125zM139 330v442q0 76 -18.5 101t-73.5 34v62h365v-662q0 -155 118 -155q51 0 97.5 38.5t81.5 110.5v471q0 70 -18.5 95.5t-74.5 39.5v62h365v-733q0 -67 18.5 -89.5t69.5 -27.5v-62l-346 -65h-12v147h-17q-44 -78 -112 -123t-158 -45
q-127 0 -206 95.5t-79 263.5z" />
    <glyph glyph-name="Ubreve" unicode="&#x16c;" horiz-adv-x="1562" 
d="M539 1845h110q6 -75 51 -117t125 -42q78 0 123 42t51 117h111q-1 -153 -77.5 -238t-207.5 -85q-132 0 -208.5 85t-77.5 238zM193 602v582q0 70 -11.5 104.5t-35 48.5t-76.5 25v61h548v-61q-79 -15 -100.5 -45t-21.5 -133v-582q0 -195 91 -307.5t267 -112.5
q168 0 262 109.5t94 312.5v574q0 101 -26.5 138.5t-96.5 45.5v61h406v-61q-70 -8 -96.5 -45.5t-26.5 -138.5v-574q0 -300 -151 -466.5t-428 -166.5q-284 0 -441 165t-157 466z" />
    <glyph glyph-name="ubreve" unicode="&#x16d;" horiz-adv-x="1140" 
d="M274 1438h111q6 -75 51 -117.5t125 -42.5q78 0 123 42.5t51 117.5h111q-1 -153 -77.5 -238.5t-207.5 -85.5q-132 0 -209 85.5t-78 238.5zM139 330v442q0 76 -18.5 101t-73.5 34v62h365v-662q0 -155 118 -155q51 0 97.5 38.5t81.5 110.5v471q0 70 -18.5 95.5t-74.5 39.5
v62h365v-733q0 -67 18.5 -89.5t69.5 -27.5v-62l-346 -65h-12v147h-17q-44 -78 -112 -123t-158 -45q-127 0 -206 95.5t-79 263.5z" />
    <glyph glyph-name="Uring" unicode="&#x16e;" horiz-adv-x="1562" 
d="M608 1704q0 86 62.5 147.5t150.5 61.5t150.5 -61.5t62.5 -147.5t-62.5 -146.5t-150.5 -60.5t-150.5 60.5t-62.5 146.5zM913 1704q0 43 -25.5 70.5t-66.5 27.5t-67.5 -27.5t-26.5 -70.5t26.5 -70.5t67.5 -27.5t66.5 27.5t25.5 70.5zM193 602v582q0 70 -11.5 104.5
t-35 48.5t-76.5 25v61h548v-61q-79 -15 -100.5 -45t-21.5 -133v-582q0 -195 91 -307.5t267 -112.5q168 0 262 109.5t94 312.5v574q0 101 -26.5 138.5t-96.5 45.5v61h406v-61q-70 -8 -96.5 -45.5t-26.5 -138.5v-574q0 -300 -151 -466.5t-428 -166.5q-284 0 -441 165t-157 466
z" />
    <glyph glyph-name="uring" unicode="&#x16f;" horiz-adv-x="1140" 
d="M348 1290q0 86 62.5 147.5t150.5 61.5t150.5 -61.5t62.5 -147.5t-62.5 -146.5t-150.5 -60.5t-150.5 60.5t-62.5 146.5zM653 1290q0 43 -25.5 71t-66.5 28t-67.5 -28t-26.5 -71t26.5 -70.5t67.5 -27.5t66.5 27.5t25.5 70.5zM139 330v442q0 76 -18.5 101t-73.5 34v62h365
v-662q0 -155 118 -155q51 0 97.5 38.5t81.5 110.5v471q0 70 -18.5 95.5t-74.5 39.5v62h365v-733q0 -67 18.5 -89.5t69.5 -27.5v-62l-346 -65h-12v147h-17q-44 -78 -112 -123t-158 -45q-127 0 -206 95.5t-79 263.5z" />
    <glyph glyph-name="Uhungarumlaut" unicode="&#x170;" horiz-adv-x="1562" 
d="M664 1522h-101l103 323h266v-10zM1024 1522h-100l102 323h266v-10zM193 602v582q0 70 -11.5 104.5t-35 48.5t-76.5 25v61h548v-61q-79 -15 -100.5 -45t-21.5 -133v-582q0 -195 91 -307.5t267 -112.5q168 0 262 109.5t94 312.5v574q0 101 -26.5 138.5t-96.5 45.5v61h406
v-61q-70 -8 -96.5 -45.5t-26.5 -138.5v-574q0 -300 -151 -466.5t-428 -166.5q-284 0 -441 165t-157 466z" />
    <glyph glyph-name="uhungarumlaut" unicode="&#x171;" horiz-adv-x="1140" 
d="M397 1114h-100l102 324h267v-11zM758 1114h-101l103 324h266v-11zM139 330v442q0 76 -18.5 101t-73.5 34v62h365v-662q0 -155 118 -155q51 0 97.5 38.5t81.5 110.5v471q0 70 -18.5 95.5t-74.5 39.5v62h365v-733q0 -67 18.5 -89.5t69.5 -27.5v-62l-346 -65h-12v147h-17
q-44 -78 -112 -123t-158 -45q-127 0 -206 95.5t-79 263.5z" />
    <glyph glyph-name="Uogonek" unicode="&#x172;" horiz-adv-x="1562" 
d="M610 -242q0 119 140 209v8q-266 17 -411.5 180t-145.5 447v582q0 102 -21.5 132.5t-101.5 45.5v61h548v-61q-37 -9 -54.5 -16t-33 -16.5t-21 -30t-8.5 -44t-5 -71.5v-582q0 -195 91 -307.5t267 -112.5q168 0 262 109.5t94 312.5v580q0 97 -26.5 133.5t-96.5 44.5v61h406
v-61q-70 -8 -96.5 -44.5t-26.5 -133.5v-580q0 -488 -391 -612q-100 -31 -150.5 -84t-50.5 -111q0 -46 28.5 -71t74.5 -25q40 0 90 29l45 -54q-72 -100 -201 -100q-93 0 -149 51t-56 131z" />
    <glyph glyph-name="uogonek" unicode="&#x173;" horiz-adv-x="1140" 
d="M963 31q-116 -28 -176 -87.5t-60 -129.5q0 -50 28.5 -81.5t71.5 -31.5q46 0 93 29l45 -54q-75 -100 -201 -100q-95 0 -150 54t-55 141q0 66 42 122t112 95v151h-17q-44 -78 -112 -123t-158 -45q-127 0 -206 95.5t-79 263.5v442q0 76 -18.5 101t-73.5 34v62h365v-662
q0 -155 118 -155q50 0 96.5 39.5t82.5 109.5v471q0 70 -18.5 95.5t-74.5 39.5v62h365v-733q0 -67 18.5 -89.5t69.5 -27.5v-62z" />
    <glyph glyph-name="Wcircumflex" unicode="&#x174;" horiz-adv-x="2041" 
d="M844 1522h-117l258 323h133l260 -323h-121l-206 137zM172 1118q-43 132 -72 172q-36 49 -98 72v61h578v-61q-63 -19 -89 -45t-26 -70q0 -45 24 -125l195 -663h16l244 715l-90 249h338l305 -934h16l195 654q27 85 27 125q0 39 -24 60.5t-83 33.5v61h412v-61
q-65 -20 -99 -66t-65 -153l-344 -1143h-182l-308 940h-16l-324 -940h-184z" />
    <glyph glyph-name="wcircumflex" unicode="&#x175;" horiz-adv-x="1548" 
d="M590 1114h-117l258 324h133l260 -324h-120l-207 137zM549 401l160 408l-56 160h293l187 -563h16l111 319q24 73 24 102q0 31 -19 50.5t-61 29.5v62h350v-62q-60 -18 -92.5 -58.5t-62.5 -127.5l-254 -721h-135l-215 629h-17l-252 -629h-135l-252 733q-27 76 -55 113.5
t-78 60.5v62h467v-62q-72 -23 -72 -76q0 -29 21 -90l110 -340h17z" />
    <glyph glyph-name="Ycircumflex" unicode="&#x176;" horiz-adv-x="1435" 
d="M956 1522l-206 137l-207 -137h-117l258 323h133l260 -323h-121zM1012 1423h432v-61q-81 -26 -129 -66t-92 -118l-351 -598v-330q0 -40 1.5 -66t8 -46t13 -31t23.5 -20t32 -14t45 -12v-61h-549v61q34 8 47.5 12t31 13.5t22 18t11.5 30.5t8 45t3 66v315l-360 627
q-43 75 -85 112t-114 62v61h596v-61q-86 -21 -86 -74q0 -27 41 -104l230 -410h16l227 397q53 90 53 125q0 24 -17 39t-58 27v61z" />
    <glyph glyph-name="ycircumflex" unicode="&#x177;" horiz-adv-x="1071" 
d="M776 1114l-207 137l-207 -137h-116l258 324h133l260 -324h-121zM717 969h356v-62q-60 -18 -94 -55.5t-61 -108.5l-336 -868q-66 -170 -158 -241.5t-221 -71.5q-92 0 -160 39v225q84 -35 168 -35q195 0 260 170l-330 787q-31 70 -60.5 102t-86.5 57v62h479v-62
q-65 -15 -65 -63q0 -19 22 -80l174 -422h14l160 410q21 52 21 79q0 56 -82 76v62z" />
    <glyph glyph-name="Ydieresis" unicode="&#x178;" horiz-adv-x="1435" 
d="M389 1700q0 62 44.5 106.5t107.5 44.5q61 0 106 -44.5t45 -106.5q0 -63 -44.5 -107.5t-106.5 -44.5q-63 0 -107.5 44.5t-44.5 107.5zM813 1700q0 62 44.5 106.5t107.5 44.5q61 0 106 -44.5t45 -106.5q0 -63 -44.5 -107.5t-106.5 -44.5q-63 0 -107.5 44.5t-44.5 107.5z
M1012 1423h432v-61q-81 -26 -129 -66t-92 -118l-351 -598v-330q0 -40 1.5 -66t8 -46t13 -31t23.5 -20t32 -14t45 -12v-61h-549v61q34 8 47.5 12t31 13.5t22 18t11.5 30.5t8 45t3 66v315l-360 627q-43 75 -85 112t-114 62v61h596v-61q-86 -21 -86 -74q0 -27 41 -104l230 -410
h16l227 397q53 90 53 125q0 24 -17 39t-58 27v61z" />
    <glyph glyph-name="Zacute" unicode="&#x179;" horiz-adv-x="1263" 
d="M643 1524h-106l110 323h289v-10zM63 0v123l750 1145v12h-340q-136 0 -204.5 -55.5t-94.5 -186.5h-65v385h1069v-123l-750 -1144v-13h358q146 0 218 56t108 213h66v-412h-1115z" />
    <glyph glyph-name="zacute" unicode="&#x17a;" horiz-adv-x="956" 
d="M483 1114h-106l110 324h289v-11zM391 129v16l483 701v123h-780v-277h62q24 86 73 117t154 31h166v-17l-483 -700v-123h817v309h-62q-35 -102 -90.5 -141t-157.5 -39h-182z" />
    <glyph glyph-name="Zdotaccent" unicode="&#x17b;" horiz-adv-x="1263" 
d="M487 1694q0 67 49 115.5t117 48.5q66 0 115 -49t49 -115q0 -68 -48.5 -117t-115.5 -49q-69 0 -117.5 48.5t-48.5 117.5zM63 0v123l750 1145v12h-340q-136 0 -204.5 -55.5t-94.5 -186.5h-65v385h1069v-123l-750 -1144v-13h358q146 0 218 56t108 213h66v-412h-1115z" />
    <glyph glyph-name="zdotaccent" unicode="&#x17c;" horiz-adv-x="956" 
d="M322 1286q0 67 48.5 115.5t116.5 48.5q66 0 115 -49t49 -115q0 -68 -48.5 -117t-115.5 -49q-69 0 -117 48.5t-48 117.5zM391 129v16l483 701v123h-780v-277h62q24 86 73 117t154 31h166v-17l-483 -700v-123h817v309h-62q-35 -102 -90.5 -141t-157.5 -39h-182z" />
    <glyph glyph-name="Zcaron" unicode="&#x17d;" horiz-adv-x="1263" 
d="M848 1845h117l-258 -323h-134l-260 323h121l207 -137zM63 0v123l750 1145v12h-340q-136 0 -204.5 -55.5t-94.5 -186.5h-65v385h1069v-123l-750 -1144v-13h358q146 0 218 56t108 213h66v-412h-1115z" />
    <glyph glyph-name="zcaron" unicode="&#x17e;" horiz-adv-x="956" 
d="M686 1438h117l-258 -324h-133l-260 324h120l207 -138zM391 129v16l483 701v123h-780v-277h62q24 86 73 117t154 31h166v-17l-483 -700v-123h817v309h-62q-35 -102 -90.5 -141t-157.5 -39h-182z" />
    <glyph glyph-name="uni01E2" unicode="&#x1e2;" horiz-adv-x="1853" 
d="M948 1733h631v-125h-631v125zM1786 395v-395h-1073v61q34 6 53.5 13.5t35 19t22 33t9.5 50.5t3 77v149h-422l-66 -127q-51 -96 -51 -143q0 -63 96 -72v-61h-434v61q77 15 123 70q47 56 111 178l585 1114h965v-342h-66q-20 110 -86.5 154.5t-214.5 44.5h-241v-492h174
q107 0 158.5 34.5t58.5 117.5h65v-442h-65q-7 83 -57.5 115t-159.5 32h-174v-502h282q140 0 210 55t93 197h66zM819 1182l-330 -635h347v635h-17z" />
    <glyph glyph-name="uni01E3" unicode="&#x1e3;" horiz-adv-x="1552" 
d="M459 1321h631v-125h-631v125zM1516 207q-155 -236 -420 -236q-126 0 -232.5 57t-167.5 160h-16q-55 -99 -152.5 -158t-212.5 -59q-107 0 -178 66.5t-71 173.5q0 108 80.5 172.5t256.5 114.5l189 53v80q0 91 -57 139.5t-148 48.5q-114 0 -254 -90l-57 80q91 84 201.5 136
t214.5 52q184 0 278 -110h16q120 110 293 110q180 0 284.5 -102.5t104.5 -284.5v-73h-602q7 -172 97.5 -263.5t236.5 -91.5q151 0 254 86zM868 649h342q-2 111 -42 169.5t-117 58.5q-68 0 -119 -61t-64 -167zM592 276v168l-115 -41q-72 -27 -106.5 -61.5t-34.5 -83.5
t28.5 -78.5t71.5 -29.5q47 0 88 34t68 92z" />
    <glyph glyph-name="AEacute" unicode="&#x1fc;" horiz-adv-x="1853" 
d="M1554 1847v-10l-292 -313h-107l111 323h288zM1786 395v-395h-1073v61q34 6 53.5 13.5t35 19t22 33t9.5 50.5t3 77v149h-422l-66 -127q-51 -96 -51 -143q0 -63 96 -72v-61h-434v61q77 15 123 70q47 56 111 178l585 1114h965v-342h-66q-20 110 -86.5 154.5t-214.5 44.5
h-241v-492h174q107 0 158.5 34.5t58.5 117.5h65v-442h-65q-7 83 -57.5 115t-159.5 32h-174v-502h282q140 0 210 55t93 197h66zM819 1182l-330 -635h347v635h-17z" />
    <glyph glyph-name="aeacute" unicode="&#x1fd;" horiz-adv-x="1552" 
d="M1067 1438v-11l-293 -313h-106l110 324h289zM1516 207q-155 -236 -420 -236q-126 0 -232.5 57t-167.5 160h-16q-55 -99 -152.5 -158t-212.5 -59q-107 0 -178 66.5t-71 173.5q0 108 80.5 172.5t256.5 114.5l189 53v80q0 91 -57 139.5t-148 48.5q-114 0 -254 -90l-57 80
q91 84 201.5 136t214.5 52q184 0 278 -110h16q120 110 293 110q180 0 284.5 -102.5t104.5 -284.5v-73h-602q7 -172 97.5 -263.5t236.5 -91.5q151 0 254 86zM868 649h342q-2 111 -42 169.5t-117 58.5q-68 0 -119 -61t-64 -167zM592 276v168l-115 -41q-72 -27 -106.5 -61.5
t-34.5 -83.5t28.5 -78.5t71.5 -29.5q47 0 88 34t68 92z" />
    <glyph glyph-name="Oslashacute" unicode="&#x1fe;" horiz-adv-x="1648" 
d="M1116 1847v-10l-293 -313h-106l110 323h289zM1346 1262q109 -100 168 -242t59 -309q3 -158 -53.5 -296.5t-156.5 -236.5t-240 -153.5t-298 -53.5q-240 0 -426 119l-157 -196l-99 73l160 199q-107 101 -165 241t-58 304q-2 126 33.5 241.5t103 206.5t159 158t207 102
t242.5 33q241 0 422 -117l158 195l98 -74zM473 377l637 788q-109 133 -285 133q-191 0 -300 -157.5t-109 -429.5q0 -200 57 -334zM1237 711q0 200 -59 342l-639 -791q108 -135 286 -135q194 0 303 155.5t109 428.5z" />
    <glyph glyph-name="oslashacute" unicode="&#x1ff;" horiz-adv-x="1167" 
d="M868 1438v-11l-293 -313h-106l111 324h288zM958 848q140 -140 140 -363q0 -225 -145.5 -369.5t-366.5 -144.5q-158 0 -279 74l-121 -147l-94 73l121 150q-139 142 -139 364q0 225 144.5 368.5t367.5 143.5q155 0 280 -73l117 143l94 -74zM383 328l356 440q-56 86 -153 86
q-104 0 -160.5 -95t-56.5 -274q0 -97 14 -157zM803 485q0 89 -15 154l-356 -438q56 -86 154 -86q103 0 160 95.5t57 274.5z" />
    <glyph glyph-name="uni0218" unicode="&#x218;" horiz-adv-x="1112" 
d="M766 799q268 -129 268 -379q0 -194 -150 -321.5t-376 -127.5q-232 0 -430 133v340h65q112 -325 365 -325q103 0 173.5 54.5t70.5 145.5q0 68 -41 118t-127 89l-205 97q-266 123 -266 381q0 196 145.5 322t374.5 126q96 0 196.5 -24.5t174.5 -63.5v-336h-66
q-75 277 -315 277q-104 0 -169 -54.5t-65 -146.5q0 -66 40 -115t126 -90zM686 -227q0 -60 -49 -148l-96 -170h-101l123 207h-4q-60 0 -98.5 36.5t-38.5 90.5q0 55 37.5 91t93.5 36q60 0 96.5 -40t36.5 -103z" />
    <glyph glyph-name="uni0219" unicode="&#x219;" horiz-adv-x="849" 
d="M580 565q98 -43 146 -107t48 -155q0 -145 -111.5 -238.5t-277.5 -93.5q-160 0 -305 84v244h61q43 -104 101 -151.5t143 -47.5q67 0 111.5 30t44.5 79q0 38 -22.5 63.5t-74.5 49.5l-155 71q-199 91 -199 275q0 142 110.5 235.5t280.5 93.5q145 0 269 -59v-248h-62
q-40 178 -211 178q-74 0 -119 -29.5t-45 -82.5q0 -72 105 -119zM557 -227q0 -60 -49 -148l-96 -170h-101l123 207h-4q-60 0 -98.5 36.5t-38.5 90.5q0 55 37.5 91t93.5 36q60 0 96.5 -40t36.5 -103z" />
    <glyph glyph-name="uni021A" unicode="&#x21a;" horiz-adv-x="1302" 
d="M35 1423h1233v-358h-66q-19 114 -92 166.5t-219 52.5h-88v-1040q2 -50 6 -77t10.5 -47.5t25 -30.5t38.5 -15.5t63 -12.5v-61h-590v61q36 6 54 9.5t37 12.5t26 19t14 31t9 45t4 66v1040h-88q-146 0 -219.5 -52.5t-92.5 -166.5h-65v358zM780 -227q0 -60 -49 -148l-96 -170
h-100l122 207h-4q-60 0 -98.5 36.5t-38.5 90.5q0 55 37.5 91t93.5 36q60 0 96.5 -40t36.5 -103z" />
    <glyph glyph-name="uni021B" unicode="&#x21b;" horiz-adv-x="786" 
d="M201 279v550h-189v123q82 5 130.5 18t81.5 46t46.5 85t18.5 140h184v-272h285v-140h-285v-553q0 -141 125 -141q69 0 133 37l49 -72q-129 -129 -291 -129q-130 0 -209 79t-79 229zM543 -227q0 -60 -49 -148l-97 -170h-100l123 207h-4q-60 0 -98.5 36.5t-38.5 90.5
q0 55 37.5 91t93.5 36q60 0 96.5 -40t36.5 -103z" />
    <glyph glyph-name="uni0226" unicode="&#x226;" horiz-adv-x="1454" 
d="M563 1694q0 67 49 115.5t117 48.5q66 0 115 -49t49 -115q0 -68 -48.5 -117t-115.5 -49q-69 0 -117.5 48.5t-48.5 117.5zM1292 252q41 -95 74 -137q37 -37 100 -54v-61h-579v61q59 10 83.5 29t24.5 51q0 28 -28 101l-66 161h-506l-59 -147q-29 -82 -29 -102
q0 -38 31 -60.5t100 -32.5v-61h-448v61q70 12 102.5 47.5t69.5 129.5l477 1185h164zM637 1012l-184 -465h389l-189 465h-16z" />
    <glyph glyph-name="uni0227" unicode="&#x227;" horiz-adv-x="1034" 
d="M328 1286q0 67 49 115.5t117 48.5q66 0 114.5 -49t48.5 -115q0 -68 -48 -117t-115 -49q-69 0 -117.5 48.5t-48.5 117.5zM1016 59q-116 -84 -234 -84q-85 0 -137.5 45t-52.5 117v2h-17q-44 -82 -111 -125t-149 -43q-107 0 -178 67.5t-71 172.5q0 106 84 173.5t253 113.5
l189 53v80q0 90 -56 139t-145 49q-121 0 -258 -90l-57 80q209 188 416 188q169 0 268.5 -92.5t99.5 -286.5v-440q0 -67 51 -67q34 0 70 20zM592 279v165l-109 -38q-74 -26 -110.5 -61t-36.5 -87q0 -48 29 -78t71 -30q48 0 88.5 35t67.5 94z" />
    <glyph glyph-name="uni0232" unicode="&#x232;" horiz-adv-x="1435" 
d="M432 1733h631v-125h-631v125zM1012 1423h432v-61q-81 -26 -129 -66t-92 -118l-351 -598v-330q0 -40 1.5 -66t8 -46t13 -31t23.5 -20t32 -14t45 -12v-61h-549v61q34 8 47.5 12t31 13.5t22 18t11.5 30.5t8 45t3 66v315l-360 627q-43 75 -85 112t-114 62v61h596v-61
q-86 -21 -86 -74q0 -27 41 -104l230 -410h16l227 397q53 90 53 125q0 24 -17 39t-58 27v61z" />
    <glyph glyph-name="uni0233" unicode="&#x233;" horiz-adv-x="1071" 
d="M258 1321h631v-125h-631v125zM717 969h356v-62q-60 -18 -94 -55.5t-61 -108.5l-336 -868q-66 -170 -158 -241.5t-221 -71.5q-92 0 -160 39v225q84 -35 168 -35q195 0 260 170l-330 787q-31 70 -60.5 102t-86.5 57v62h479v-62q-65 -15 -65 -63q0 -19 22 -80l174 -422h14
l160 410q21 52 21 79q0 56 -82 76v62z" />
    <glyph glyph-name="uni0237" unicode="&#x237;" horiz-adv-x="563" 
d="M-166 -381l33 100q61 -22 110 -22q179 0 179 190v842q0 72 -22 99t-83 28v62l363 61h14v-1042q0 -198 -109 -287q-107 -88 -260 -88q-133 0 -225 57z" />
    <glyph glyph-name="circumflex" unicode="&#x2c6;" horiz-adv-x="745" 
d="M168 1114h-117l258 324h133l260 -324h-120l-207 137z" />
    <glyph glyph-name="caron" unicode="&#x2c7;" horiz-adv-x="745" 
d="M575 1438h117l-258 -324h-133l-260 324h121l207 -138z" />
    <glyph glyph-name="breve" unicode="&#x2d8;" horiz-adv-x="686" 
d="M59 1438h111q6 -75 51 -117.5t125 -42.5q78 0 123 42.5t51 117.5h111q-1 -153 -77.5 -238.5t-207.5 -85.5q-132 0 -209 85.5t-78 238.5z" />
    <glyph glyph-name="dotaccent" unicode="&#x2d9;" horiz-adv-x="374" 
d="M33 1286q0 67 49 115.5t117 48.5q66 0 114.5 -49t48.5 -115q0 -68 -48 -117t-115 -49q-69 0 -117.5 48.5t-48.5 117.5z" />
    <glyph glyph-name="ring" unicode="&#x2da;" horiz-adv-x="507" 
d="M41 1290q0 86 62.5 147.5t150.5 61.5t150.5 -61.5t62.5 -147.5t-62.5 -146.5t-150.5 -60.5t-150.5 60.5t-62.5 146.5zM346 1290q0 43 -25.5 71t-66.5 28t-67.5 -28t-26.5 -71t26.5 -70.5t67.5 -27.5t66.5 27.5t25.5 70.5z" />
    <glyph glyph-name="ogonek" unicode="&#x2db;" horiz-adv-x="604" 
d="M82 -244q0 98 84 170q87 71 194 97l74 -23q-184 -94 -184 -205q0 -43 28.5 -68.5t73.5 -25.5q40 0 90 29l45 -54q-74 -100 -202 -100q-90 0 -146.5 51.5t-56.5 128.5z" />
    <glyph glyph-name="tilde" unicode="&#x2dc;" horiz-adv-x="772" 
d="M379 1176l-49 34q-44 33 -78 33q-80 0 -98 -110h-107q4 130 61 205t148 75q36 0 66.5 -11.5t74.5 -39.5l54 -37q44 -33 75 -33q38 0 64.5 28.5t36.5 84.5h104q-4 -133 -60 -208t-149 -75q-64 0 -143 54z" />
    <glyph glyph-name="hungarumlaut" unicode="&#x2dd;" horiz-adv-x="841" 
d="M164 1114h-101l103 324h266v-11zM524 1114h-100l102 324h267v-11z" />
    <glyph glyph-name="uni0394" unicode="&#x394;" horiz-adv-x="1232" 
d="M1210 0h-1187v121l499 1302h174l514 -1302v-121zM201 156v-17h678v17l-334 854h-17z" />
    <glyph glyph-name="Pi" unicode="&#x3a0;" horiz-adv-x="1511" 
d="M1421 1362q-37 -9 -58 -17.5t-35 -19t-19.5 -33t-7.5 -44.5t-3 -68v-951q0 -91 22.5 -122t100.5 -46v-61h-549v61q78 15 100.5 46t22.5 122v1051h-479v-1051q0 -91 22.5 -122t100.5 -46v-61h-549v61q78 15 100.5 46t22.5 122v951q-1 46 -3 68t-7.5 44.5t-19.5 33t-35 19
t-58 17.5v61h1331v-61z" />
    <glyph glyph-name="uni03A9" unicode="&#x3a9;" horiz-adv-x="1554" 
d="M125 0v242h444v14q-227 53 -354 201q-129 150 -129 356q-3 170 87 318t251 236t354 85q143 2 273 -49.5t221.5 -138.5t144.5 -205.5t51 -245.5q0 -206 -129 -356q-127 -148 -354 -201v-14h447v-242h-570v297q127 50 203 190q78 147 78 324q0 218 -96 352
q-95 135 -269 135q-171 0 -270 -135q-96 -134 -96 -352q0 -179 77 -324q79 -141 205 -190v-297h-569z" />
    <glyph glyph-name="uni03BC" unicode="&#x3bc;" horiz-adv-x="1148" 
d="M150 758q0 84 -18 112.5t-75 36.5v62h365v-660q0 -157 119 -157q105 0 178 149v457q0 84 -15.5 109t-76.5 40v62h364v-729q0 -68 17.5 -94t70.5 -27v-62l-346 -65h-12v147h-16q-40 -76 -101.5 -122t-132.5 -46q-20 0 -41 6h-6v-192q0 -82 17 -103t91 -30v-62h-382v1168z
" />
    <glyph glyph-name="pi" unicode="&#x3c0;" horiz-adv-x="1263" 
d="M1245 100q-129 -129 -287 -129q-134 0 -213 80.5t-79 231.5v546h-211v-829h-273v829h-147v140h1122v-140h-219v-555q0 -139 127 -139q67 0 131 37z" />
    <glyph glyph-name="uni0E3F" unicode="&#xe3f;" horiz-adv-x="1325" 
d="M723 0v-184h-113v184h-501v61q73 12 93.5 44.5t20.5 140.5v903q0 105 -21 139t-93 43v62h501v188h113v-188q213 -7 332 -96.5t119 -237.5q0 -120 -81 -204t-227 -110v-16q183 -24 277 -109.5t94 -218.5q0 -175 -137 -288t-377 -113zM610 1266h-129v-478h129v478z
M723 1255v-456q77 21 120.5 81t43.5 152q0 180 -164 223zM481 670v-543h129v543h-129zM723 133q106 19 162.5 87.5t56.5 182.5q0 108 -57 174t-162 85v-529z" />
    <glyph glyph-name="Wgrave" unicode="&#x1e80;" horiz-adv-x="2041" 
d="M1063 1843l106 -323h-110l-289 313v10h293zM172 1118q-43 132 -72 172q-36 49 -98 72v61h578v-61q-63 -19 -89 -45t-26 -70q0 -45 24 -125l195 -663h16l244 715l-90 249h338l305 -934h16l195 654q27 85 27 125q0 39 -24 60.5t-83 33.5v61h412v-61q-65 -20 -99 -66
t-65 -153l-344 -1143h-182l-308 940h-16l-324 -940h-184z" />
    <glyph glyph-name="wgrave" unicode="&#x1e81;" horiz-adv-x="1548" 
d="M805 1438l106 -324h-110l-289 313v11h293zM549 401l160 408l-56 160h293l187 -563h16l111 319q24 73 24 102q0 31 -19 50.5t-61 29.5v62h350v-62q-60 -18 -92.5 -58.5t-62.5 -127.5l-254 -721h-135l-215 629h-17l-252 -629h-135l-252 733q-27 76 -55 113.5t-78 60.5v62
h467v-62q-72 -23 -72 -76q0 -29 21 -90l110 -340h17z" />
    <glyph glyph-name="Wacute" unicode="&#x1e82;" horiz-adv-x="2041" 
d="M1047 1524h-107l111 323h288v-10zM172 1118q-43 132 -72 172q-36 49 -98 72v61h578v-61q-63 -19 -89 -45t-26 -70q0 -45 24 -125l195 -663h16l244 715l-90 249h338l305 -934h16l195 654q27 85 27 125q0 39 -24 60.5t-83 33.5v61h412v-61q-65 -20 -99 -66t-65 -153
l-344 -1143h-182l-308 940h-16l-324 -940h-184z" />
    <glyph glyph-name="wacute" unicode="&#x1e83;" horiz-adv-x="1548" 
d="M801 1114h-107l111 324h289v-11zM549 401l160 408l-56 160h293l187 -563h16l111 319q24 73 24 102q0 31 -19 50.5t-61 29.5v62h350v-62q-60 -18 -92.5 -58.5t-62.5 -127.5l-254 -721h-135l-215 629h-17l-252 -629h-135l-252 733q-27 76 -55 113.5t-78 60.5v62h467v-62
q-72 -23 -72 -76q0 -29 21 -90l110 -340h17z" />
    <glyph glyph-name="Wdieresis" unicode="&#x1e84;" horiz-adv-x="2041" 
d="M690 1700q0 62 44.5 106.5t107.5 44.5q62 0 106.5 -44.5t44.5 -106.5q0 -63 -44.5 -107.5t-106.5 -44.5q-63 0 -107.5 44.5t-44.5 107.5zM1114 1700q0 62 44.5 106.5t107.5 44.5q62 0 106.5 -44.5t44.5 -106.5q0 -63 -44.5 -107.5t-106.5 -44.5q-63 0 -107.5 44.5
t-44.5 107.5zM172 1118q-43 132 -72 172q-36 49 -98 72v61h578v-61q-63 -19 -89 -45t-26 -70q0 -45 24 -125l195 -663h16l244 715l-90 249h338l305 -934h16l195 654q27 85 27 125q0 39 -24 60.5t-83 33.5v61h412v-61q-65 -20 -99 -66t-65 -153l-344 -1143h-182l-308 940h-16
l-324 -940h-184z" />
    <glyph glyph-name="wdieresis" unicode="&#x1e85;" horiz-adv-x="1548" 
d="M436 1286q0 62 44.5 107t107.5 45q61 0 106 -45t45 -107q0 -63 -44.5 -107t-106.5 -44q-63 0 -107.5 44t-44.5 107zM860 1286q0 62 44.5 107t107.5 45q61 0 106 -45t45 -107q0 -63 -44.5 -107t-106.5 -44q-63 0 -107.5 44t-44.5 107zM549 401l160 408l-56 160h293
l187 -563h16l111 319q24 73 24 102q0 31 -19 50.5t-61 29.5v62h350v-62q-60 -18 -92.5 -58.5t-62.5 -127.5l-254 -721h-135l-215 629h-17l-252 -629h-135l-252 733q-27 76 -55 113.5t-78 60.5v62h467v-62q-72 -23 -72 -76q0 -29 21 -90l110 -340h17z" />
    <glyph glyph-name="uni1E9E" unicode="&#x1e9e;" horiz-adv-x="1499" 
d="M1014 791q185 -30 296 -134t111 -260q0 -193 -141 -309.5t-346 -116.5q-173 0 -295 82l47 105q81 -37 158 -37q115 0 188.5 80t73.5 205q0 133 -84.5 202.5t-245.5 69.5h-37v123l328 467v16h-563v-1284h-426v61q79 15 101 47t22 138v1177h1171v-123z" />
    <glyph glyph-name="uni1ECA" unicode="&#x1eca;" horiz-adv-x="724" 
d="M88 61q30 7 45 11.5t31.5 13.5t23.5 19t13.5 28t8 41t1.5 59v957q0 36 -1.5 59t-8 41t-13.5 28t-23.5 19t-31.5 13.5t-45 11.5v61h549v-61q-30 -7 -45 -11.5t-31.5 -13.5t-23.5 -19t-13.5 -28t-8 -41t-1.5 -59v-957q0 -36 1.5 -59t8 -41t13.5 -28t23.5 -19t31.5 -13.5
t45 -11.5v-61h-549v61zM197 -258q0 66 49 115t116 49q66 0 115 -49t49 -115q0 -69 -48 -117.5t-116 -48.5q-69 0 -117 48.5t-48 117.5z" />
    <glyph glyph-name="uni1ECB" unicode="&#x1ecb;" horiz-adv-x="585" 
d="M139 1286q0 67 49 115.5t117 48.5q66 0 115 -49t49 -115q0 -68 -48.5 -117t-115.5 -49q-69 0 -117.5 48.5t-48.5 117.5zM436 203q0 -42 2 -64t5 -38t14.5 -22.5t22 -10t36.5 -7.5v-61h-436v61q40 7 54.5 15t22 35.5t7.5 91.5v536q0 65 -23 88.5t-82 28.5v62l363 61h14
v-776zM133 -258q0 66 49.5 115t116.5 49q66 0 115 -49t49 -115q0 -69 -48 -117.5t-116 -48.5q-69 0 -117.5 48.5t-48.5 117.5z" />
    <glyph glyph-name="uni1ECC" unicode="&#x1ecc;" horiz-adv-x="1646" 
d="M78 711q-2 126 33.5 241.5t103 206.5t159 158t207 102t242.5 33q211 3 384 -92.5t270.5 -267t93.5 -381.5q3 -158 -53.5 -296.5t-156.5 -236.5t-240 -153.5t-298 -53.5q-211 -3 -383 92.5t-268.5 266t-93.5 381.5zM1235 711q0 273 -109 430t-303 157q-191 0 -300 -157.5
t-109 -429.5q0 -273 107.5 -428.5t301.5 -155.5t303 155.5t109 428.5zM657 -258q0 66 49.5 115t116.5 49q66 0 115 -49t49 -115q0 -69 -48 -117.5t-116 -48.5q-69 0 -117.5 48.5t-48.5 117.5z" />
    <glyph glyph-name="uni1ECD" unicode="&#x1ecd;" horiz-adv-x="1157" 
d="M68 485q0 225 144.5 368.5t367.5 143.5q221 0 366.5 -144t145.5 -368q0 -225 -145.5 -369.5t-366.5 -144.5q-223 0 -367.5 144.5t-144.5 369.5zM797 485q0 179 -56.5 274t-160.5 95t-161 -95t-57 -274t57 -274.5t161 -95.5q103 0 160 95.5t57 274.5zM414 -258
q0 66 49.5 115t116.5 49q66 0 114.5 -49t48.5 -115q0 -69 -47.5 -117.5t-115.5 -48.5q-69 0 -117.5 48.5t-48.5 117.5z" />
    <glyph glyph-name="uni1EE4" unicode="&#x1ee4;" horiz-adv-x="1562" 
d="M193 602v582q0 70 -11.5 104.5t-35 48.5t-76.5 25v61h548v-61q-79 -15 -100.5 -45t-21.5 -133v-582q0 -195 91 -307.5t267 -112.5q168 0 262 109.5t94 312.5v574q0 101 -26.5 138.5t-96.5 45.5v61h406v-61q-70 -8 -96.5 -45.5t-26.5 -138.5v-574q0 -300 -151 -466.5
t-428 -166.5q-284 0 -441 165t-157 466zM635 -258q0 66 49.5 115t116.5 49q66 0 115 -49t49 -115q0 -69 -48 -117.5t-116 -48.5q-69 0 -117.5 48.5t-48.5 117.5z" />
    <glyph glyph-name="uni1EE5" unicode="&#x1ee5;" horiz-adv-x="1140" 
d="M139 330v442q0 76 -18.5 101t-73.5 34v62h365v-662q0 -155 118 -155q51 0 97.5 38.5t81.5 110.5v471q0 70 -18.5 95.5t-74.5 39.5v62h365v-733q0 -67 18.5 -89.5t69.5 -27.5v-62l-346 -65h-12v147h-17q-44 -78 -112 -123t-158 -45q-127 0 -206 95.5t-79 263.5zM410 -258
q0 66 49 115t116 49q66 0 115 -49t49 -115q0 -69 -48 -117.5t-116 -48.5q-69 0 -117 48.5t-48 117.5z" />
    <glyph glyph-name="Ygrave" unicode="&#x1ef2;" horiz-adv-x="1435" 
d="M762 1843l106 -323h-110l-289 313v10h293zM1012 1423h432v-61q-81 -26 -129 -66t-92 -118l-351 -598v-330q0 -40 1.5 -66t8 -46t13 -31t23.5 -20t32 -14t45 -12v-61h-549v61q34 8 47.5 12t31 13.5t22 18t11.5 30.5t8 45t3 66v315l-360 627q-43 75 -85 112t-114 62v61h596
v-61q-86 -21 -86 -74q0 -27 41 -104l230 -410h16l227 397q53 90 53 125q0 24 -17 39t-58 27v61z" />
    <glyph glyph-name="ygrave" unicode="&#x1ef3;" horiz-adv-x="1071" 
d="M578 1438l106 -324h-111l-288 313v11h293zM717 969h356v-62q-60 -18 -94 -55.5t-61 -108.5l-336 -868q-66 -170 -158 -241.5t-221 -71.5q-92 0 -160 39v225q84 -35 168 -35q195 0 260 170l-330 787q-31 70 -60.5 102t-86.5 57v62h479v-62q-65 -15 -65 -63q0 -19 22 -80
l174 -422h14l160 410q21 52 21 79q0 56 -82 76v62z" />
    <glyph glyph-name="uni2002" unicode="&#x2002;" horiz-adv-x="1024" 
 />
    <glyph glyph-name="uni2003" unicode="&#x2003;" horiz-adv-x="2048" 
 />
    <glyph glyph-name="uni2009" unicode="&#x2009;" horiz-adv-x="256" 
 />
    <glyph glyph-name="uni200A" unicode="&#x200a;" horiz-adv-x="86" 
 />
    <glyph glyph-name="endash" unicode="&#x2013;" horiz-adv-x="1103" 
d="M997 498h-891v143h891v-143z" />
    <glyph glyph-name="emdash" unicode="&#x2014;" horiz-adv-x="1652" 
d="M1546 498h-1440v143h1440v-143z" />
    <glyph glyph-name="quoteleft" unicode="&#x2018;" horiz-adv-x="491" 
d="M414 934q0 -73 -49 -121.5t-119 -48.5q-81 0 -132 54.5t-51 137.5q0 47 16 91t54 112l148 264h122l-184 -321h17q78 0 128 -47t50 -121z" />
    <glyph glyph-name="quoteright" unicode="&#x2019;" horiz-adv-x="493" 
d="M442 1264q0 -47 -16 -91.5t-53 -111.5l-148 -264h-123l185 321h-17q-78 0 -128 47t-50 121q0 73 49 121.5t119 48.5q81 0 131.5 -54.5t50.5 -137.5z" />
    <glyph glyph-name="quotesinglbase" unicode="&#x201a;" horiz-adv-x="516" 
d="M432 117q0 -47 -16 -91t-54 -112l-147 -264h-123l184 321h-16q-78 0 -128 47t-50 121q0 73 49 121.5t119 48.5q81 0 131.5 -54.5t50.5 -137.5z" />
    <glyph glyph-name="quotedblleft" unicode="&#x201c;" horiz-adv-x="935" 
d="M414 934q0 -73 -49 -121.5t-119 -48.5q-81 0 -132 54.5t-51 137.5q0 47 16 91t54 112l148 264h122l-184 -321h17q78 0 128 -47t50 -121zM856 934q0 -73 -49 -121.5t-119 -48.5q-81 0 -131.5 54.5t-50.5 137.5q0 47 16 91.5t53 111.5l148 264h123l-184 -321h16
q78 0 128 -47t50 -121z" />
    <glyph glyph-name="quotedblright" unicode="&#x201d;" horiz-adv-x="937" 
d="M442 1264q0 -47 -16 -91.5t-53 -111.5l-148 -264h-123l185 321h-17q-78 0 -128 47t-50 121q0 73 49 121.5t119 48.5q81 0 131.5 -54.5t50.5 -137.5zM885 1264q0 -47 -16 -91t-54 -112l-147 -264h-123l184 321h-16q-78 0 -128 47t-50 121q0 73 48.5 121.5t118.5 48.5
q81 0 132 -54.5t51 -137.5z" />
    <glyph glyph-name="quotedblbase" unicode="&#x201e;" horiz-adv-x="960" 
d="M434 117q0 -47 -16 -91.5t-53 -111.5l-148 -264h-123l185 321h-17q-78 0 -128 47t-50 121q0 73 49 121.5t119 48.5q81 0 131.5 -54.5t50.5 -137.5zM877 117q0 -47 -16 -91t-54 -112l-148 -264h-122l184 321h-16q-78 0 -128.5 47.5t-50.5 120.5t49 121.5t119 48.5
q81 0 132 -54.5t51 -137.5z" />
    <glyph glyph-name="dagger" unicode="&#x2020;" horiz-adv-x="1064" 
d="M700 -299h-333l92 1294l-406 -92v311l406 -92l-92 471h333l-94 -471l406 92v-311l-406 92z" />
    <glyph glyph-name="daggerdbl" unicode="&#x2021;" horiz-adv-x="1165" 
d="M750 -299h-334l92 473l-404 -92v311l404 -92l-80 346l80 348l-404 -92v311l404 -92l-92 471h334l-93 -471l406 92v-311l-406 92l80 -348l-80 -346l406 92v-311l-406 92z" />
    <glyph glyph-name="bullet" unicode="&#x2022;" horiz-adv-x="954" 
d="M139 567q0 141 98.5 238.5t241.5 97.5q141 0 240.5 -99t99.5 -237q0 -143 -99.5 -243.5t-240.5 -100.5q-142 0 -241 100.5t-99 243.5z" />
    <glyph glyph-name="ellipsis" unicode="&#x2026;" horiz-adv-x="1759" 
d="M1339 141q0 72 49 120t121 48q71 0 120.5 -49.5t49.5 -118.5q0 -72 -49 -122t-121 -50t-121 50t-49 122zM700 141q0 72 49 120t121 48t121 -49.5t49 -118.5q0 -72 -49 -122t-121 -50t-121 50t-49 122zM82 141q0 72 49 120t121 48t121 -49.5t49 -118.5q0 -72 -49 -122
t-121 -50t-121 50t-49 122z" />
    <glyph glyph-name="perthousand" unicode="&#x2030;" horiz-adv-x="2134" 
d="M408 684q-152 0 -251.5 107.5t-99.5 273.5q0 165 99 272t252 107t253.5 -107t100.5 -272t-100.5 -273t-253.5 -108zM254 0l979 1423h162l-979 -1423h-162zM408 803q62 0 95.5 66.5t33.5 195.5q0 260 -129 260q-125 0 -125 -260q0 -262 125 -262zM2081 365
q0 -165 -101 -273t-254 -108q-143 0 -239 96q-104 -96 -242 -96q-152 0 -251 107.5t-99 273.5q0 165 98.5 271.5t251.5 106.5q141 0 242 -94q100 94 239 94q153 0 254 -106.5t101 -271.5zM1374 365q0 260 -129 260q-125 0 -125 -260q0 -263 125 -263q62 0 95.5 67t33.5 196z
M1855 365q0 260 -129 260q-124 0 -124 -260q0 -263 124 -263q62 0 95.5 67t33.5 196z" />
    <glyph glyph-name="guilsinglleft" unicode="&#x2039;" horiz-adv-x="776" 
d="M676 47l-101 -74l-505 512l505 512l101 -73l-268 -437z" />
    <glyph glyph-name="guilsinglright" unicode="&#x203a;" horiz-adv-x="776" 
d="M100 915l101 74l506 -512l-506 -512l-101 74l269 436z" />
    <glyph glyph-name="uni203D" unicode="&#x203d;" horiz-adv-x="1021" 
d="M952 1061q0 -147 -107.5 -263.5t-293.5 -191.5l-14 -182h-136l-63 819q-137 -15 -246 -121l-69 76q82 121 201.5 187.5t269.5 66.5q193 0 325.5 -111.5t132.5 -279.5zM563 778q113 91 113 228q0 112 -82 176zM637 141q0 -72 -49 -122t-121 -50t-121 50t-49 122t49 120
t121 48q71 0 120.5 -49.5t49.5 -118.5z" />
    <glyph glyph-name="fraction" unicode="&#x2044;" horiz-adv-x="389" 
d="M608 1423h162l-979 -1423h-162z" />
    <glyph glyph-name="uni2070" unicode="&#x2070;" horiz-adv-x="993" 
d="M61 1260q0 203 122.5 332.5t312.5 129.5q189 0 312.5 -130t123.5 -332q0 -206 -123 -337.5t-313 -131.5q-189 0 -312 133t-123 336zM674 1260q0 157 -47.5 241t-130.5 84t-130 -84t-47 -241q0 -159 47 -245.5t130 -86.5t130.5 86.5t47.5 245.5z" />
    <glyph glyph-name="uni2074" unicode="&#x2074;" horiz-adv-x="899" 
d="M670 821h-205v197h-442v96l538 594h109v-518h184v-172h-184v-197zM244 1202v-12h221v240h-12z" />
    <glyph glyph-name="uni2075" unicode="&#x2075;" horiz-adv-x="763" 
d="M18 977l66 63q90 -90 201 -90q84 0 137 40.5t53 103.5q0 62 -42.5 97.5t-121.5 35.5q-53 0 -94.5 -13.5t-91.5 -44.5h-12l77 523h494v-207h-418l-28 -193h12q76 70 186 70q106 0 177 -74t71 -186q0 -133 -96 -222t-238 -89q-101 0 -188.5 48t-143.5 138z" />
    <glyph glyph-name="uni2076" unicode="&#x2076;" horiz-adv-x="835" 
d="M109 1004q-39 88 -39 206q0 91 27.5 179t78.5 153q143 180 365 180q68 0 134 -22.5t113 -63.5l-34 -71q-74 43 -170 43q-135 0 -215 -86.5t-88 -239.5h12q78 100 211 100q114 0 190 -73q78 -75 78 -189q0 -141 -102 -236.5t-244 -95.5q-227 0 -317 216zM549 1079
q0 75 -35 122.5t-92 47.5q-45 0 -80.5 -26.5t-56.5 -71.5v-49q0 -95 34.5 -151t96.5 -56q59 0 96 52.5t37 131.5z" />
    <glyph glyph-name="uni2077" unicode="&#x2077;" horiz-adv-x="747" 
d="M721 1585l-361 -764h-280v8l477 641v13h-504v209h668v-107z" />
    <glyph glyph-name="uni2078" unicode="&#x2078;" horiz-adv-x="860" 
d="M63 1065q0 82 58 139.5t162 77.5v12q-88 25 -136.5 74t-48.5 117q0 106 90 171.5t242 65.5t243 -66t91 -171q0 -67 -48 -116.5t-134 -74.5v-12q104 -20 161.5 -77.5t57.5 -139.5q0 -123 -101 -198.5t-270 -75.5t-268 75t-99 199zM545 1477q0 67 -30.5 104t-84.5 37
q-51 0 -82 -38t-31 -103q0 -68 30.5 -107t82.5 -39q54 0 84.5 38.5t30.5 107.5zM582 1063q0 79 -42 126.5t-110 47.5q-66 0 -106.5 -47.5t-40.5 -126.5q0 -77 40 -121.5t107 -44.5q68 0 110 44.5t42 121.5z" />
    <glyph glyph-name="uni2079" unicode="&#x2079;" horiz-adv-x="835" 
d="M729 1509q39 -88 39 -206q0 -196 -109 -332q-143 -180 -362 -180q-68 0 -134.5 22.5t-115.5 63.5l37 71q74 -43 170 -43q135 0 215 87t88 241h-12q-77 -103 -211 -103q-114 0 -191 74t-77 189q0 141 101.5 236t244.5 95q112 0 193 -55.5t124 -159.5zM289 1434
q0 -75 35 -122.5t92 -47.5q84 0 137 100v49q0 95 -34.5 151t-96.5 56q-59 0 -96 -52.5t-37 -133.5z" />
    <glyph glyph-name="uni2080" unicode="&#x2080;" horiz-adv-x="993" 
d="M61 213q0 203 122.5 333t312.5 130q189 0 312.5 -130.5t123.5 -332.5q0 -206 -123 -337.5t-313 -131.5q-189 0 -312 133t-123 336zM674 213q0 157 -47.5 241.5t-130.5 84.5t-130 -84t-47 -242q0 -159 47 -245.5t130 -86.5t130.5 86.5t47.5 245.5z" />
    <glyph glyph-name="uni2081" unicode="&#x2081;" horiz-adv-x="741" 
d="M356 -225v485h-325v109q92 5 153.5 19t110.5 46.5t77 88.5t40 141h151v-889h-207z" />
    <glyph glyph-name="uni2082" unicode="&#x2082;" horiz-adv-x="786" 
d="M55 -225v106l203 174q113 93 159 153t46 124q0 78 -48 124t-128 46q-103 0 -191 -76l-63 66q62 83 155 133.5t195 50.5q132 0 220.5 -80.5t88.5 -196.5q0 -130 -121 -235q-53 -50 -143 -117l-70 -51v-12h344v-209h-647z" />
    <glyph glyph-name="uni2083" unicode="&#x2083;" horiz-adv-x="782" 
d="M29 -70l65 64q49 -46 96.5 -68t106.5 -22q86 0 142.5 39t56.5 104q0 117 -179 127v84l154 168v12h-383v207h629v-106l-240 -260v-15q109 -17 166 -77.5t57 -153.5q0 -128 -94 -207q-94 -82 -239 -82q-218 0 -338 186z" />
    <glyph glyph-name="uni2084" unicode="&#x2084;" horiz-adv-x="899" 
d="M672 -225h-205v196h-442v97l538 594h109v-519h184v-172h-184v-196zM246 156v-13h221v240h-12z" />
    <glyph glyph-name="uni2085" unicode="&#x2085;" horiz-adv-x="761" 
d="M18 -70l66 64q90 -90 201 -90q85 0 137.5 40t52.5 103q0 62 -42.5 97.5t-121.5 35.5q-54 0 -95.5 -13.5t-90.5 -43.5h-12l77 522h494v-207h-418l-28 -192h12q75 69 186 69q106 0 177 -74t71 -186q0 -133 -96 -222t-238 -89q-101 0 -188.5 48t-143.5 138z" />
    <glyph glyph-name="uni2086" unicode="&#x2086;" horiz-adv-x="835" 
d="M109 -45q-39 88 -39 207q0 91 27.5 179t78.5 153q143 180 365 180q68 0 134 -22.5t113 -63.5l-34 -72q-74 43 -170 43q-135 0 -215 -86.5t-88 -239.5h12q79 101 211 101q113 0 190 -74q78 -75 78 -188q0 -141 -102 -236.5t-244 -95.5q-228 0 -317 215zM549 31
q0 75 -35 122.5t-92 47.5q-90 0 -137 -99v-49q0 -95 34.5 -151t96.5 -56q59 0 96 53t37 132z" />
    <glyph glyph-name="uni2087" unicode="&#x2087;" horiz-adv-x="745" 
d="M719 539l-361 -764h-280v8l477 641v12h-504v209h668v-106z" />
    <glyph glyph-name="uni2088" unicode="&#x2088;" horiz-adv-x="858" 
d="M61 16q0 82 58 139.5t162 77.5v13q-88 25 -136.5 73.5t-48.5 116.5q0 106 90 172t242 66t243 -66t91 -172q0 -67 -48 -116t-134 -74v-13q104 -20 161.5 -77.5t57.5 -139.5q0 -123 -101 -198.5t-270 -75.5t-268 75t-99 199zM543 428q0 67 -30.5 104t-84.5 37
q-51 0 -82 -38t-31 -103q0 -68 30.5 -106.5t82.5 -38.5q54 0 84.5 38t30.5 107zM580 14q0 79 -42 126.5t-110 47.5q-66 0 -106.5 -47.5t-40.5 -126.5q0 -77 40 -121.5t107 -44.5q68 0 110 44.5t42 121.5z" />
    <glyph glyph-name="uni2089" unicode="&#x2089;" horiz-adv-x="835" 
d="M729 461q39 -88 39 -207q0 -196 -109 -332q-143 -180 -362 -180q-68 0 -134.5 22.5t-115.5 63.5l37 72q74 -43 170 -43q135 0 215 86.5t88 240.5h-12q-77 -102 -211 -102q-114 0 -191 74t-77 188q0 141 101.5 236.5t244.5 95.5q112 0 193 -55.5t124 -159.5zM289 385
q0 -75 35 -122.5t92 -47.5q84 0 137 100v50q0 95 -34.5 150.5t-96.5 55.5q-59 0 -96 -52.5t-37 -133.5z" />
    <glyph glyph-name="uni20A6" unicode="&#x20a6;" horiz-adv-x="1312" 
d="M1247 803v-123h-184v-680h-170l-315 680h-181v-422q2 -46 3.5 -71t7.5 -48t11.5 -32.5t22 -20t31.5 -14.5t47 -11v-61h-385v61q56 11 79 26t33.5 52t10.5 119v422h-182v123h182v414l-90 167v9h334l270 -590h152v336q0 112 -22 146t-101 46v62h385v-62
q-76 -12 -99.5 -47.5t-23.5 -144.5v-336h184zM397 1036v-233h125l-108 233h-17zM907 510h17v170h-95z" />
    <glyph glyph-name="uni20A9" unicode="&#x20a9;" horiz-adv-x="2148" 
d="M2066 1331q-33 -7 -57 -20t-40.5 -28t-32.5 -48t-26.5 -62t-29.5 -88l-57 -182h194v-127h-235l-47 -149h282v-127h-321l-158 -500h-149l-297 979h-17l-297 -979h-157l-162 500h-334v127h291l-47 149h-244v127h203l-66 199q-38 119 -74.5 169t-97.5 60v62h547v-62
q-61 -6 -88 -31t-27 -73q0 -40 25 -123l215 -678h16l232 758l-72 209h309l283 -949h16l201 641q29 95 29 144q0 48 -24 72t-79 30v62h393v-62z" />
    <glyph glyph-name="uni20AA" unicode="&#x20aa;" horiz-adv-x="1497" 
d="M176 0v1393h305q254 0 390.5 -119.5t136.5 -355.5v-596h-205v596q0 186 -75.5 267t-248.5 81h-78v-1266h-225zM1022 0q-255 0 -391.5 119.5t-136.5 357.5v594h204v-594q0 -186 76.5 -268t249.5 -82h76v1266h225v-1393h-303z" />
    <glyph glyph-name="Euro" unicode="&#x20ac;" horiz-adv-x="1359" 
d="M1311 225q-202 -254 -469 -254q-217 0 -377 137.5t-209 378.5h-164v127h150q-2 12 -2 60q0 56 6 108h-154v127h176q61 233 232.5 372.5t392.5 139.5q177 0 319 -80v-309h-61q-59 244 -250 244q-132 0 -224 -97.5t-128 -269.5h579v-127h-596q-2 -14 -2 -61q0 -49 7 -107
h591v-127h-569q41 -151 138 -230t237 -79q170 0 309 121z" />
    <glyph glyph-name="uni20B4" unicode="&#x20b4;" horiz-adv-x="1277" 
d="M1182 920v-127h-1094v127h690q86 71 86 174q0 80 -64.5 131t-168.5 51q-117 0 -191.5 -61.5t-111.5 -188.5h-62v305q151 90 375 90q217 0 344 -108t127 -264q0 -71 -27 -129h97zM88 498v127h1094v-127h-647q-99 -76 -99 -185q0 -95 67 -145.5t177 -50.5q132 0 223.5 72.5
t151.5 226.5h61v-316q-194 -129 -438 -129q-218 0 -356 105t-138 276q0 81 35 146h-131z" />
    <glyph glyph-name="uni20B8" unicode="&#x20b8;" horiz-adv-x="1257" 
d="M1194 1266h-1131v127h1131v-127zM494 1040h-78q-132 0 -199.5 -49.5t-91.5 -156.5h-62v329h1131v-329h-61q-25 108 -92.5 157t-198.5 49h-78v-804q0 -93 26.5 -128t104.5 -47v-61h-533v61q79 12 105.5 47t26.5 128v804z" />
    <glyph glyph-name="uni20B9" unicode="&#x20b9;" horiz-adv-x="1161" 
d="M1096 1266h-383v-17q74 -24 123.5 -75.5t62.5 -122.5h197v-127h-195q-24 -128 -145 -218t-291 -114v-17l557 -567v-8h-356l-553 573v123h143q144 0 241 59.5t121 168.5h-505v127h505q-23 106 -119.5 160.5t-248.5 54.5h-137v127h983v-127z" />
    <glyph glyph-name="uni20BA" unicode="&#x20ba;" horiz-adv-x="1316" 
d="M1243 592q-17 -285 -194 -438.5t-500 -153.5h-361v61q69 11 92 45t23 127v285l-188 -53v129l188 53v162l-188 -53v129l188 53v205q0 111 -21 143.5t-94 44.5v62h502v-62q-76 -12 -95.5 -43.5t-19.5 -144.5v-127l472 133v-129l-472 -133v-162l472 135v-129l-472 -135v-463
q188 0 280.5 114.5t98.5 344.5h289z" />
    <glyph glyph-name="uni20BD" unicode="&#x20bd;" horiz-adv-x="1269" 
d="M537 586v-142h391v-127h-391v-81q0 -70 13.5 -105t38.5 -48t79 -22v-61h-512v61q71 12 92.5 43t21.5 127v86h-178v127h178v707q0 106 -22 138.5t-92 41.5v62h499q249 0 396 -105t147 -293q0 -194 -149 -301q-150 -108 -394 -108h-118zM537 1266v-553h94q135 0 211 73.5
t76 208.5q0 129 -76 200t-211 71h-94z" />
    <glyph glyph-name="uni20BF" unicode="&#x20bf;" horiz-adv-x="1337" 
d="M827 6v-190h-112v184h-129v-184h-113v184h-358v61q73 12 93.5 44.5t20.5 140.5v903q0 105 -21 139t-93 43v62h358v188h113v-188h108h21v188h112v-197q170 -26 261.5 -111t91.5 -214q0 -119 -82 -203t-230 -115v-8q187 -26 281 -112t94 -220q0 -156 -110.5 -263.5
t-305.5 -131.5zM637 1266h-150v-475h154q116 0 184 61.5t68 179.5q0 114 -68.5 174t-187.5 60zM645 127q143 0 223 70.5t80 205.5q0 129 -81 197t-226 68h-154v-541h158z" />
    <glyph glyph-name="uni2116" unicode="&#x2116;" horiz-adv-x="2461" 
d="M109 61q70 6 96 49.5t26 145.5v1016l-104 139v12h430l625 -921h16v672q0 101 -26 141t-97 47v61h406v-61q-73 -7 -98 -47t-25 -141v-1174h-205l-745 1098h-17v-842q0 -105 25.5 -147t97.5 -48v-61h-405v61zM1509 721q0 193 123.5 317.5t313.5 124.5t313 -125t123 -319
q0 -193 -123.5 -318t-312.5 -125q-190 0 -313.5 125.5t-123.5 319.5zM2134 719q0 147 -51.5 232t-136.5 85q-87 0 -138 -83.5t-51 -231.5q0 -147 52 -232.5t137 -85.5q87 0 137.5 84t50.5 232zM1589 0h717v139h-717v-139z" />
    <glyph glyph-name="uni2117" unicode="&#x2117;" horiz-adv-x="1708" 
d="M100 727q-3 158 55.5 299.5t160 242.5t243 159.5t297.5 56.5q156 3 297 -56t241.5 -160.5t159 -243.5t56.5 -298q2 -156 -56 -297.5t-159 -243t-242 -160.5t-297 -57q-156 -2 -297.5 57t-243 160.5t-160 243t-55.5 297.5zM1479 729q3 178 -78.5 325.5t-226 231
t-318.5 80.5q-132 0 -248 -48.5t-199 -132.5t-130.5 -202t-47.5 -254q-3 -181 78.5 -329t226.5 -231.5t320 -80.5q174 -3 318.5 80.5t226 231.5t78.5 329zM817 631v-156q0 -41 15 -57.5t57 -24.5v-51h-328v51q36 8 49 24.5t13 57.5v510q0 42 -13 58.5t-49 21.5v51h342
q148 0 238 -61t90 -176q0 -116 -90.5 -182t-233.5 -66h-90zM817 1022v-297h57q73 0 114.5 40t41.5 114q0 143 -156 143h-57z" />
    <glyph glyph-name="trademark" unicode="&#x2122;" horiz-adv-x="1853" 
d="M295 1331h-25q-62 0 -96 -28.5t-57 -100.5h-54v221h654v-221h-53q-12 68 -48 98.5t-100 30.5h-29v-493q0 -43 14.5 -61t53.5 -29v-52h-328v52q39 11 53.5 29t14.5 61v493zM836 1272q0 54 -12.5 74t-47.5 26v51h295l189 -450h12l188 450h287v-51q-33 -6 -46 -27.5
t-13 -74.5v-432q0 -44 13 -63t46 -27v-52h-305v52q33 8 46 27t13 63v374h-12l-213 -516h-92l-217 518h-13v-376q0 -43 13.5 -62.5t46.5 -27.5v-52h-238v52q33 8 46.5 27.5t13.5 62.5v434z" />
    <glyph glyph-name="Omega" unicode="&#x2126;" horiz-adv-x="1574" 
d="M135 0v242h445v14q-228 53 -355 201q-129 150 -129 356q-3 170 87 318t251 236t354 85q143 2 273 -49.5t222 -138.5t145 -205.5t51 -245.5q0 -206 -129 -356q-127 -148 -355 -201v-14h447v-242h-570v297q127 50 203 190q78 147 78 324q0 218 -96 352q-95 135 -269 135
q-171 0 -270 -135q-96 -134 -96 -352q0 -177 78 -324q79 -141 205 -190v-297h-570z" />
    <glyph glyph-name="onethird" unicode="&#x2153;" horiz-adv-x="2052" 
d="M358 594v463h-311v102q87 5 146 19t106 44.5t73.5 84t37.5 133.5h145v-846h-197zM1595 1423h-161l-979 -1423h161zM1309 147l63 62q89 -86 193 -86q81 0 134.5 37.5t53.5 99.5q0 59 -42.5 87.5t-125.5 33.5v80l146 160v12h-365v196h598v-102l-227 -248v-12
q104 -17 158.5 -75t54.5 -146q0 -121 -90 -198t-230 -77q-205 0 -321 176z" />
    <glyph glyph-name="twothirds" unicode="&#x2154;" horiz-adv-x="2023" 
d="M70 596v102l192 164q109 90 152 145.5t43 118.5q0 73 -46.5 117.5t-121.5 44.5q-97 0 -180 -71l-62 61q57 80 145.5 128t188.5 48q127 0 211 -76.5t84 -187.5q0 -124 -115 -223q-56 -49 -137 -111l-66 -49v-12h328v-199h-616zM1585 1423h-162l-979 -1423h162zM1298 147
l64 62q89 -86 192 -86q81 0 135 37.5t54 99.5q0 59 -42.5 87.5t-125.5 33.5v80l145 160v12h-364v196h598v-102l-228 -248v-12q104 -17 158.5 -75t54.5 -146q0 -121 -89.5 -198t-229.5 -77q-206 0 -322 176z" />
    <glyph glyph-name="uni2155" unicode="&#x2155;" horiz-adv-x="2050" 
d="M358 594v463h-311v102q87 5 146 19t106 44.5t73.5 84t37.5 133.5h145v-846h-197zM1595 1423h-161l-979 -1423h161zM1319 147l63 62q86 -86 191 -86q80 0 131 38t51 99q0 60 -41 93.5t-115 33.5q-50 0 -87 -12.5t-91 -42.5h-12l74 497h471v-196h-398l-28 -184h12
q74 65 178 65q100 0 168 -71t68 -177q0 -127 -92 -211t-226 -84q-98 0 -180 45t-137 131z" />
    <glyph glyph-name="uni2156" unicode="&#x2156;" horiz-adv-x="2017" 
d="M68 596v102l192 164q109 90 152 145.5t43 118.5q0 73 -46.5 117.5t-121.5 44.5q-98 0 -181 -71l-61 61q57 80 145.5 128t188.5 48q127 0 211 -76.5t84 -187.5q0 -124 -115 -223q-56 -49 -137 -111l-66 -49v-12h328v-199h-616zM1583 1423h-162l-979 -1423h162zM1305 147
l63 62q86 -86 191 -86q80 0 131 38t51 99q0 60 -41 93.5t-115 33.5q-50 0 -87 -12.5t-91 -42.5h-12l73 497h471v-196h-397l-29 -184h13q74 65 178 65q100 0 167.5 -71t67.5 -177q0 -127 -91.5 -211t-225.5 -84q-98 0 -180 45t-137 131z" />
    <glyph glyph-name="uni2157" unicode="&#x2157;" horiz-adv-x="2019" 
d="M33 743l63 62q89 -86 193 -86q81 0 134.5 37.5t53.5 99.5q0 59 -42.5 87.5t-125.5 33.5v80l146 160v12h-365v196h598v-102l-227 -248v-12q104 -17 158.5 -75t54.5 -146q0 -121 -90 -198t-230 -77q-205 0 -321 176zM1581 1423h-162l-979 -1423h162zM1303 147l63 62
q86 -86 190 -86q80 0 131.5 38t51.5 99q0 60 -41 93.5t-115 33.5q-50 0 -87 -12.5t-91 -42.5h-12l73 497h471v-196h-397l-29 -184h13q74 65 178 65q100 0 167.5 -71t67.5 -177q0 -127 -91.5 -211t-225.5 -84q-98 0 -180 45t-137 131z" />
    <glyph glyph-name="uni2158" unicode="&#x2158;" horiz-adv-x="2156" 
d="M672 594h-195v186h-422v92l514 566h103v-494h176v-164h-176v-186zM266 956v-12h211v230h-12zM1698 1423h-162l-979 -1423h162zM1419 147l64 62q86 -86 190 -86q80 0 131 38t51 99q0 60 -41 93.5t-114 33.5q-50 0 -87 -12.5t-91 -42.5h-13l74 497h471v-196h-397l-29 -184
h12q74 65 179 65q100 0 167.5 -71t67.5 -177q0 -127 -91.5 -211t-225.5 -84q-98 0 -180.5 45.5t-137.5 130.5z" />
    <glyph glyph-name="uni2159" unicode="&#x2159;" horiz-adv-x="2093" 
d="M358 594v463h-311v102q87 5 146 19t106 44.5t73.5 84t37.5 133.5h145v-846h-197zM1595 1423h-161l-979 -1423h161zM1374 174q-37 90 -37 197q0 184 103 315q135 172 346 172q66 0 129.5 -22t107.5 -60l-34 -67q-71 41 -162 41q-129 0 -205 -82.5t-84 -229.5h12
q79 97 201 97q109 0 182.5 -71t73.5 -179q0 -133 -97.5 -224.5t-232.5 -91.5q-217 0 -303 205zM1794 246q0 73 -33.5 117.5t-87.5 44.5q-86 0 -131 -95v-47q0 -92 32 -144t93 -52q56 0 91.5 50.5t35.5 125.5z" />
    <glyph glyph-name="uni215A" unicode="&#x215a;" horiz-adv-x="2062" 
d="M29 741l63 62q86 -86 191 -86q80 0 131 38t51 99q0 60 -41 93.5t-115 33.5q-50 0 -87 -12.5t-91 -42.5h-12l74 497h471v-196h-398l-28 -185h12q75 66 178 66q100 0 168 -71t68 -177q0 -127 -92 -211t-226 -84q-98 0 -180 45t-137 131zM1573 1423h-162l-979 -1423h162z
M1352 174q-37 90 -37 197q0 185 102 315q135 172 346 172q66 0 130 -22t108 -60l-35 -67q-71 41 -162 41q-129 0 -204.5 -82.5t-83.5 -229.5h12q79 97 201 97q109 0 182.5 -71t73.5 -179q0 -133 -97.5 -224.5t-232.5 -91.5q-217 0 -303 205zM1772 246q0 73 -33.5 117.5
t-87.5 44.5q-86 0 -131 -95v-47q0 -92 32 -144t93 -52q56 0 91.5 50.5t35.5 125.5z" />
    <glyph glyph-name="oneeighth" unicode="&#x215b;" horiz-adv-x="2111" 
d="M358 594v463h-311v102q87 5 146 19t106 44.5t73.5 84t37.5 133.5h145v-846h-197zM1595 1423h-161l-979 -1423h161zM1337 231q0 79 55 133.5t154 73.5v13q-82 24 -128 70.5t-46 111.5q0 100 86 162.5t230 62.5q146 0 231.5 -62.5t85.5 -162.5q0 -65 -46 -111.5t-128 -70.5
v-13q99 -19 154 -73.5t55 -133.5q0 -116 -96 -188t-256 -72t-255.5 72t-95.5 188zM1796 625q0 63 -29 98t-79 35t-78.5 -35t-28.5 -98q0 -66 28.5 -103t78.5 -37t79 37t29 103zM1831 229q0 75 -40 120.5t-103 45.5q-62 0 -102 -46t-40 -120q0 -71 39 -114t103 -43t103.5 43
t39.5 114z" />
    <glyph glyph-name="threeeighths" unicode="&#x215c;" horiz-adv-x="2093" 
d="M39 743l63 62q89 -86 193 -86q81 0 134.5 37.5t53.5 99.5q0 59 -42.5 87.5t-125.5 33.5v80l146 160v12h-365v196h598v-102l-227 -248v-12q104 -17 158.5 -75t54.5 -146q0 -121 -90 -198t-230 -77q-205 0 -321 176zM1585 1423h-162l-979 -1423h162zM1327 231
q0 79 55 133.5t154 73.5v13q-82 24 -128 70.5t-46 111.5q0 100 85.5 162.5t229.5 62.5q146 0 232 -62.5t86 -162.5q0 -65 -46 -111.5t-128 -70.5v-13q99 -19 154 -73.5t55 -133.5q0 -116 -96.5 -188t-256.5 -72t-255 71.5t-95 188.5zM1786 625q0 62 -29.5 97.5t-79.5 35.5
t-78 -35t-28 -98q0 -66 28 -103t78 -37t79.5 37.5t29.5 102.5zM1821 229q0 74 -40.5 120t-103.5 46q-62 0 -101.5 -46t-39.5 -120q0 -72 39 -114.5t102 -42.5q64 0 104 43t40 114z" />
    <glyph glyph-name="fiveeighths" unicode="&#x215d;" horiz-adv-x="2086" 
d="M33 741l63 62q86 -86 191 -86q80 0 131 38t51 99q0 60 -41 93.5t-115 33.5q-50 0 -87 -12.5t-91 -42.5h-12l74 497h471v-196h-398l-28 -185h12q75 66 178 66q100 0 168 -71t68 -177q0 -127 -92 -211t-226 -84q-98 0 -180 45t-137 131zM1577 1423h-162l-979 -1423h162z
M1319 231q0 79 55 133.5t154 73.5v13q-82 24 -128 70.5t-46 111.5q0 100 85.5 162.5t229.5 62.5q146 0 232 -62.5t86 -162.5q0 -64 -46.5 -111t-128.5 -71v-13q99 -19 154 -73.5t55 -133.5q0 -116 -96 -188t-256 -72t-255 71.5t-95 188.5zM1778 625q0 62 -29.5 97.5
t-79.5 35.5t-78 -35t-28 -98q0 -66 28 -103t78 -37t79.5 37.5t29.5 102.5zM1812 229q0 75 -40 120.5t-103 45.5q-62 0 -101.5 -46t-39.5 -120q0 -72 39 -114.5t102 -42.5q64 0 103.5 43t39.5 114z" />
    <glyph glyph-name="seveneighths" unicode="&#x215e;" horiz-adv-x="2058" 
d="M700 1321l-342 -727h-268v8l455 610v13h-479v198h634v-102zM1552 1423h-161l-979 -1423h161zM1294 231q0 79 55 133.5t154 73.5v13q-82 24 -128 70.5t-46 111.5q0 100 86 162.5t230 62.5q146 0 231.5 -62.5t85.5 -162.5q0 -65 -46 -111.5t-128 -70.5v-13
q99 -19 154 -73.5t55 -133.5q0 -116 -96 -188t-256 -72t-255.5 72t-95.5 188zM1753 625q0 63 -29 98t-79 35t-78.5 -35t-28.5 -98q0 -66 28.5 -103t78.5 -37t79 37t29 103zM1788 229q0 75 -40 120.5t-103 45.5q-62 0 -102 -46t-40 -120q0 -71 39 -114t103 -43t103.5 43
t39.5 114z" />
    <glyph glyph-name="uni215F" unicode="&#x215f;" horiz-adv-x="1427" 
d="M506 594v463h-311v102q87 5 145.5 19t106 44.5t73.5 84t37 133.5h145v-846h-196zM1743 1423h-162l-979 -1423h162z" />
    <glyph glyph-name="arrowleft" unicode="&#x2190;" horiz-adv-x="1419" 
d="M492 563h845v-143h-845v-17l290 -335l-84 -93l-622 508v13l622 510l84 -93l-290 -333v-17z" />
    <glyph glyph-name="arrowup" unicode="&#x2191;" horiz-adv-x="1101" 
d="M625 0h-148v1036h-16l-332 -291l-92 84l510 623h10l510 -623l-92 -84l-334 291h-16v-1036z" />
    <glyph glyph-name="arrowright" unicode="&#x2192;" horiz-adv-x="1419" 
d="M82 420v143h846v17l-291 333l84 93l622 -510v-13l-622 -508l-84 93l291 335v17h-846z" />
    <glyph glyph-name="arrowdown" unicode="&#x2193;" horiz-adv-x="1105" 
d="M479 387v1036h148v-1036h16l334 291l92 -84l-510 -623h-10l-510 623l92 84l332 -291h16z" />
    <glyph glyph-name="uni2196" unicode="&#x2196;" horiz-adv-x="1167" 
d="M438 735l668 -659l-98 -105l-668 664l-12 -10l-33 -445l-125 -6l-80 801l8 8l801 -80l-6 -125l-442 -30z" />
    <glyph glyph-name="uni2197" unicode="&#x2197;" horiz-adv-x="1167" 
d="M158 -29l-99 105l668 659l-12 13l-443 30l-6 125l801 80l8 -8l-80 -801l-125 6l-32 445l-13 10z" />
    <glyph glyph-name="uni2198" unicode="&#x2198;" horiz-adv-x="1167" 
d="M727 233l-668 660l99 104l667 -663l13 10l32 444l125 7l80 -801l-8 -8l-801 80l6 124l443 31z" />
    <glyph glyph-name="uni2199" unicode="&#x2199;" horiz-adv-x="1167" 
d="M1010 997l98 -104l-668 -660l13 -12l442 -31l6 -124l-801 -80l-8 8l80 801l125 -7l33 -444l12 -10z" />
    <glyph glyph-name="uni21A4" unicode="&#x21a4;" horiz-adv-x="1515" 
d="M1219 563v379h147v-903h-147v381h-699v-17l291 -335l-84 -93l-623 508v13l623 510l84 -93l-291 -333v-17h699z" />
    <glyph glyph-name="uni21A5" unicode="&#x21a5;" horiz-adv-x="1099" 
d="M639 1036h-16v-893h364v-143h-872v143h360v893h-16l-332 -291l-92 84l510 623h10l510 -623l-92 -84z" />
    <glyph glyph-name="uni21A6" unicode="&#x21a6;" horiz-adv-x="1513" 
d="M705 913l83 93l623 -508v-13l-623 -510l-83 93l290 333v17h-698v-379h-147v903h147v-381h698v17z" />
    <glyph glyph-name="uni21A7" unicode="&#x21a7;" horiz-adv-x="1101" 
d="M641 387l334 291l92 -84l-510 -623h-10l-510 623l92 84l332 -291h16v893h-360v143h872v-143h-364v-893h16z" />
    <glyph glyph-name="uni21B0" unicode="&#x21b0;" horiz-adv-x="1495" 
d="M508 1055h846v-1055h-148v911h-698v-16l291 -336l-84 -92l-623 508v12l623 510l84 -92l-291 -334v-16z" />
    <glyph glyph-name="uni21B1" unicode="&#x21b1;" horiz-adv-x="1495" 
d="M696 1405l84 92l623 -510v-12l-623 -508l-84 92l291 336v16h-698v-911h-148v1055h846v16z" />
    <glyph glyph-name="uni21B2" unicode="&#x21b2;" horiz-adv-x="1497" 
d="M1208 543v911h148v-1055h-846v-16l291 -334l-84 -92l-623 510v12l623 508l84 -92l-291 -336v-16h698z" />
    <glyph glyph-name="uni21B3" unicode="&#x21b3;" horiz-adv-x="1497" 
d="M696 895l84 92l623 -508v-12l-623 -510l-84 92l291 334v16h-846v1055h148v-911h698v16z" />
    <glyph glyph-name="partialdiff" unicode="&#x2202;" horiz-adv-x="1200" 
d="M33 430q0 195 130.5 330t328.5 135q116 0 203.5 -53t135.5 -146h13q6 56 6 105q0 257 -137 391t-400 133v127q243 10 425 -69t284 -245t102 -401q1 -118 -26.5 -232t-81.5 -211.5t-127 -171t-169.5 -114.5t-203.5 -39q-211 0 -347 131t-136 330zM807 563
q-25 67 -84 107.5t-133 40.5q-128 0 -205 -99q-78 -96 -78 -235q0 -123 57.5 -199t151.5 -76q122 0 198 120t93 341z" />
    <glyph glyph-name="emptyset" unicode="&#x2205;" horiz-adv-x="1206" 
d="M969 842q133 -146 133 -357q0 -219 -144.5 -367.5t-355.5 -148.5q-153 0 -274 80l-117 -143l-98 76l120 149q-131 143 -131 354q0 142 66 260.5t181 186t253 67.5q153 0 272 -79l125 153l95 -78zM324 242l462 569q-80 51 -184 51q-152 0 -255 -108t-103 -269
q0 -140 80 -243zM961 485q0 142 -82 246l-463 -573q82 -52 186 -52q152 0 255.5 109.5t103.5 269.5z" />
    <glyph glyph-name="Delta" unicode="&#x2206;" horiz-adv-x="1286" 
d="M1239 0h-1188v121l500 1302h174l514 -1302v-121zM229 156v-17h678v17l-334 854h-16z" />
    <glyph glyph-name="product" unicode="&#x220f;" horiz-adv-x="1538" 
d="M1436 1362q-37 -9 -58 -17.5t-35 -19t-19.5 -33t-7.5 -44.5t-3 -68v-951q0 -91 22.5 -122t100.5 -46v-61h-549v61q78 15 100.5 46t22.5 122v1051h-480v-1051q0 -91 22.5 -122t100.5 -46v-61h-549v61q78 15 100.5 46t22.5 122v951q-1 46 -3 68t-7.5 44.5t-19.5 33t-35 19
t-58 17.5v61h1332v-61z" />
    <glyph glyph-name="summation" unicode="&#x2211;" horiz-adv-x="1191" 
d="M356 240h752v-240h-1034v123l428 549l-434 628v123h1026v-336h-62q-20 104 -81 150.5t-181 46.5h-356v-12l305 -436v-123l-363 -461v-12z" />
    <glyph glyph-name="minus" unicode="&#x2212;" horiz-adv-x="1179" 
d="M1075 412h-969v143h969v-143z" />
    <glyph glyph-name="uni2215" unicode="&#x2215;" horiz-adv-x="1017" 
d="M922 1423h161l-979 -1423h-161z" />
    <glyph glyph-name="radical" unicode="&#x221a;" horiz-adv-x="1185" 
d="M760 1423h457v-143h-355l-393 -1280h-197l-264 811h154l203 -635h12z" />
    <glyph glyph-name="infinity" unicode="&#x221e;" horiz-adv-x="1488" 
d="M100 541q0 145 88 239t228 94q97 0 175.5 -50t147.5 -154h13q135 204 321 204q139 0 227 -94q91 -97 91 -239q0 -143 -91 -240q-88 -94 -227 -94q-185 0 -321 203h-13q-142 -203 -323 -203q-140 0 -228 94t-88 240zM682 541q-62 105 -122 152.5t-132 47.5
q-83 0 -135.5 -54.5t-52.5 -145.5t52.5 -146t135.5 -55q72 0 132 48t122 153zM1249 541q0 91 -52.5 145.5t-133.5 54.5q-72 0 -133 -48t-121 -152q60 -104 121 -152.5t133 -48.5q81 0 133.5 55t52.5 146z" />
    <glyph glyph-name="integral" unicode="&#x222b;" horiz-adv-x="765" 
d="M-29 -285v131q58 -22 121 -22q104 0 162.5 66t58.5 192v1135q0 186 90 287.5t246 101.5q84 0 150 -29v-131q-58 22 -121 22q-104 0 -162.5 -66t-58.5 -192v-1132q0 -187 -90 -289t-246 -102q-86 0 -150 28z" />
    <glyph glyph-name="approxequal" unicode="&#x2248;" horiz-adv-x="1169" 
d="M113 539q-4 130 65 211t182 81q96 0 211 -59l72 -39q102 -55 158 -55q52 0 82 38.5t30 110.5h148q2 -131 -67.5 -211.5t-184.5 -80.5q-103 0 -217 63l-72 39q-89 51 -149 51q-55 0 -83.5 -38t-27.5 -111h-147zM113 147q-4 130 65 211.5t182 81.5q96 0 211 -59l72 -39
q102 -55 158 -55q52 0 82 38.5t30 110.5h148q2 -131 -67.5 -212t-184.5 -81q-101 0 -217 64l-72 39q-89 51 -149 51q-54 0 -83 -38.5t-28 -111.5h-147z" />
    <glyph glyph-name="notequal" unicode="&#x2260;" horiz-adv-x="1196" 
d="M1081 739v-143h-374l-80 -221h454v-144h-506l-83 -231h-136l84 231h-327v144h379l79 221h-458v143h510l82 230h135l-82 -230h323z" />
    <glyph glyph-name="lessequal" unicode="&#x2264;" horiz-adv-x="1171" 
d="M1067 350v-149l-969 336v135l969 340v-152l-756 -250v-12zM1067 117v-144h-969v144h969z" />
    <glyph glyph-name="greaterequal" unicode="&#x2265;" horiz-adv-x="1171" 
d="M1073 537l-969 -336v149l756 248v12l-756 250v152l969 -340v-135zM1073 -27h-969v144h969v-144z" />
    <glyph glyph-name="angleleft" unicode="&#x2329;" horiz-adv-x="684" 
d="M641 -279l-127 -43l-502 973l502 971l127 -43l-303 -928z" />
    <glyph glyph-name="angleright" unicode="&#x232a;" horiz-adv-x="684" 
d="M43 1573l127 43l502 -973l-502 -971l-127 43l303 928z" />
    <glyph glyph-name="uni2460" unicode="&#x2460;" horiz-adv-x="1652" 
d="M72 727q-3 158 55.5 299.5t159.5 242.5t242.5 159.5t297.5 56.5q156 3 297 -56t241.5 -160.5t159 -243.5t56.5 -298q2 -156 -56 -297.5t-159 -243t-242 -160.5t-297 -57q-156 -2 -297.5 57t-242.5 160.5t-159.5 243t-55.5 297.5zM1450 729q3 178 -78.5 325.5t-226 231
t-318.5 80.5q-177 0 -319.5 -82t-223.5 -228t-81 -327q-3 -181 78.5 -329t226 -231.5t319.5 -80.5q174 -3 318.5 80.5t226 231.5t78.5 329zM780 311v463h-311v103q87 5 145.5 18.5t106 44.5t73.5 84t37 133h146v-846h-197z" />
    <glyph glyph-name="uni2461" unicode="&#x2461;" horiz-adv-x="1710" 
d="M100 727q-3 158 55.5 299.5t160 242.5t243 159.5t297.5 56.5q156 3 297 -56t241.5 -160.5t159 -243.5t56.5 -298q2 -156 -56 -297.5t-159 -243t-242 -160.5t-297 -57q-156 -2 -297.5 57t-243 160.5t-160 243t-55.5 297.5zM1479 729q3 178 -78.5 325.5t-226 231
t-318.5 80.5q-132 0 -248 -48.5t-199 -132.5t-130.5 -202t-47.5 -254q-3 -181 78.5 -329t226.5 -231.5t320 -80.5q174 -3 318.5 80.5t226 231.5t78.5 329zM555 324v102l193 164q109 90 151.5 145.5t42.5 118.5q0 73 -46.5 117.5t-121.5 44.5q-96 0 -180 -72l-62 62
q57 80 145.5 128t188.5 48q127 0 211 -76.5t84 -187.5q0 -126 -114 -224q-41 -36 -138 -110l-65 -49v-13h327v-198h-616z" />
    <glyph glyph-name="uni2462" unicode="&#x2462;" horiz-adv-x="1710" 
d="M100 727q-3 158 55.5 299.5t160 242.5t243 159.5t297.5 56.5q156 3 297 -56t241.5 -160.5t159 -243.5t56.5 -298q2 -156 -56 -297.5t-159 -243t-242 -160.5t-297 -57q-156 -2 -297.5 57t-243 160.5t-160 243t-55.5 297.5zM1479 729q3 178 -78.5 325.5t-226 231
t-318.5 80.5q-132 0 -248 -48.5t-199 -132.5t-130.5 -202t-47.5 -254q-3 -181 78.5 -329t226.5 -231.5t320 -80.5q174 -3 318.5 80.5t226 231.5t78.5 329zM514 471l64 61q89 -86 192 -86q81 0 134.5 38t53.5 100q0 59 -42 87.5t-125 33.5v79l145 160v12h-365v197h598v-102
l-227 -248v-12q104 -17 158.5 -75.5t54.5 -146.5q0 -121 -89.5 -197.5t-229.5 -76.5q-206 0 -322 176z" />
    <glyph glyph-name="uni2463" unicode="&#x2463;" horiz-adv-x="1710" 
d="M100 727q-3 158 55.5 299.5t160 242.5t243 159.5t297.5 56.5q156 3 297 -56t241.5 -160.5t159 -243.5t56.5 -298q2 -156 -56 -297.5t-159 -243t-242 -160.5t-297 -57q-156 -2 -297.5 57t-243 160.5t-160 243t-55.5 297.5zM1479 729q3 178 -78.5 325.5t-226 231
t-318.5 80.5q-132 0 -248 -48.5t-199 -132.5t-130.5 -202t-47.5 -254q-3 -181 78.5 -329t226.5 -231.5t320 -80.5q174 -3 318.5 80.5t226 231.5t78.5 329zM1034 324h-194v186h-422v92l514 565h102v-493h176v-164h-176v-186zM629 686v-12h211v229h-13z" />
    <glyph glyph-name="uni2464" unicode="&#x2464;" horiz-adv-x="1710" 
d="M100 727q-3 158 55.5 299.5t160 242.5t243 159.5t297.5 56.5q156 3 297 -56t241.5 -160.5t159 -243.5t56.5 -298q2 -156 -56 -297.5t-159 -243t-242 -160.5t-297 -57q-156 -2 -297.5 57t-243 160.5t-160 243t-55.5 297.5zM1479 729q3 178 -78.5 325.5t-226 231
t-318.5 80.5q-132 0 -248 -48.5t-199 -132.5t-130.5 -202t-47.5 -254q-3 -181 78.5 -329t226.5 -231.5t320 -80.5q174 -3 318.5 80.5t226 231.5t78.5 329zM492 461l63 61q86 -86 190 -86q80 0 131.5 38t51.5 99q0 60 -41 93.5t-115 33.5q-50 0 -87 -12.5t-91 -42.5h-12
l73 498h471v-197h-397l-29 -184h13q74 65 178 65q100 0 167.5 -70.5t67.5 -176.5q0 -127 -91.5 -211t-225.5 -84q-98 0 -180 45t-137 131z" />
    <glyph glyph-name="uni2465" unicode="&#x2465;" horiz-adv-x="1710" 
d="M100 727q-3 158 55.5 299.5t160 242.5t243 159.5t297.5 56.5q156 3 297 -56t241.5 -160.5t159 -243.5t56.5 -298q2 -156 -56 -297.5t-159 -243t-242 -160.5t-297 -57q-156 -2 -297.5 57t-243 160.5t-160 243t-55.5 297.5zM1479 729q3 178 -78.5 325.5t-226 231
t-318.5 80.5q-132 0 -248 -48.5t-199 -132.5t-130.5 -202t-47.5 -254q-3 -181 78.5 -329t226.5 -231.5t320 -80.5q174 -3 318.5 80.5t226 231.5t78.5 329zM520 487q-37 90 -37 197q0 184 103 315q135 172 346 172q66 0 129.5 -21.5t107.5 -59.5l-34 -68q-71 41 -162 41
q-129 0 -205 -82.5t-84 -228.5h12q78 96 201 96q109 0 182.5 -71t73.5 -179q0 -133 -97.5 -224t-232.5 -91q-217 0 -303 204zM940 559q0 73 -33.5 117.5t-87.5 44.5q-86 0 -131 -94v-47q0 -92 32 -144.5t93 -52.5q56 0 91.5 50.5t35.5 125.5z" />
    <glyph glyph-name="uni2466" unicode="&#x2466;" horiz-adv-x="1710" 
d="M100 727q-3 158 55.5 299.5t160 242.5t243 159.5t297.5 56.5q156 3 297 -56t241.5 -160.5t159 -243.5t56.5 -298q2 -156 -56 -297.5t-159 -243t-242 -160.5t-297 -57q-156 -2 -297.5 57t-243 160.5t-160 243t-55.5 297.5zM1479 729q3 178 -78.5 325.5t-226 231
t-318.5 80.5q-132 0 -248 -48.5t-199 -132.5t-130.5 -202t-47.5 -254q-3 -181 78.5 -329t226.5 -231.5t320 -80.5q174 -3 318.5 80.5t226 231.5t78.5 329zM1194 1038l-342 -727h-268v8l454 611v12h-479v199h635v-103z" />
    <glyph glyph-name="uni2467" unicode="&#x2467;" horiz-adv-x="1710" 
d="M100 727q-3 158 55.5 299.5t160 242.5t243 159.5t297.5 56.5q156 3 297 -56t241.5 -160.5t159 -243.5t56.5 -298q2 -156 -56 -297.5t-159 -243t-242 -160.5t-297 -57q-156 -2 -297.5 57t-243 160.5t-160 243t-55.5 297.5zM1479 729q3 178 -78.5 325.5t-226 231
t-318.5 80.5q-132 0 -248 -48.5t-199 -132.5t-130.5 -202t-47.5 -254q-3 -181 78.5 -329t226.5 -231.5t320 -80.5q174 -3 318.5 80.5t226 231.5t78.5 329zM506 545q0 79 55 133.5t154 73.5v12q-82 24 -128 70.5t-46 111.5q0 100 85.5 162.5t229.5 62.5q146 0 232 -62.5
t86 -162.5q0 -64 -46.5 -111t-128.5 -71v-12q99 -19 154 -73.5t55 -133.5q0 -116 -96 -188t-256 -72t-255 71.5t-95 188.5zM965 938q0 62 -29.5 97.5t-79.5 35.5t-78 -35t-28 -98q0 -66 28 -102.5t78 -36.5t79.5 37t29.5 102zM999 543q0 75 -40 120.5t-103 45.5
q-62 0 -101.5 -46t-39.5 -120q0 -72 39 -115t102 -43q64 0 103.5 43.5t39.5 114.5z" />
    <glyph glyph-name="uni2468" unicode="&#x2468;" horiz-adv-x="1710" 
d="M100 727q-3 158 55.5 299.5t160 242.5t243 159.5t297.5 56.5q156 3 297 -56t241.5 -160.5t159 -243.5t56.5 -298q2 -156 -56 -297.5t-159 -243t-242 -160.5t-297 -57q-156 -2 -297.5 57t-243 160.5t-160 243t-55.5 297.5zM1479 729q3 178 -78.5 325.5t-226 231
t-318.5 80.5q-132 0 -248 -48.5t-199 -132.5t-130.5 -202t-47.5 -254q-3 -181 78.5 -329t226.5 -231.5t320 -80.5q174 -3 318.5 80.5t226 231.5t78.5 329zM1165 967q37 -90 37 -197q0 -185 -102 -315q-135 -172 -346 -172q-66 0 -130 22t-108 60l35 67q71 -41 162 -41
q129 0 204.5 82t83.5 229h-12q-78 -96 -201 -96q-109 0 -182.5 71t-73.5 179q0 133 97.5 224t232.5 91q217 0 303 -204zM745 895q0 -73 33.5 -117.5t87.5 -44.5q86 0 131 94v47q0 92 -32 144.5t-93 52.5q-56 0 -91.5 -50.5t-35.5 -125.5z" />
    <glyph glyph-name="uni24EA" unicode="&#x24ea;" horiz-adv-x="1710" 
d="M100 727q-3 158 55.5 299.5t160 242.5t243 159.5t297.5 56.5q156 3 297 -56t241.5 -160.5t159 -243.5t56.5 -298q2 -156 -56 -297.5t-159 -243t-242 -160.5t-297 -57q-156 -2 -297.5 57t-243 160.5t-160 243t-55.5 297.5zM1479 729q3 178 -78.5 325.5t-226 231
t-318.5 80.5q-132 0 -248 -48.5t-199 -132.5t-130.5 -202t-47.5 -254q-3 -181 78.5 -329t226.5 -231.5t320 -80.5q174 -3 318.5 80.5t226 231.5t78.5 329zM440 731q0 192 117 316t297 124t298 -124t118 -316q0 -197 -117.5 -321.5t-298.5 -124.5q-180 0 -297 126t-117 320z
M1024 731q0 152 -44.5 230.5t-125.5 78.5q-79 0 -123.5 -79.5t-44.5 -229.5q0 -152 44.5 -233.5t123.5 -81.5t124.5 81.5t45.5 233.5z" />
    <glyph glyph-name="uni24FF" unicode="&#x24ff;" horiz-adv-x="1710" 
d="M1612 727q4 -211 -95.5 -386.5t-274.5 -275t-386 -96.5q-158 -2 -299 56t-241.5 159t-158 242.5t-55.5 300.5q-2 159 55.5 300.5t158 242.5t241.5 159t299 56q211 3 386 -96.5t274.5 -275t95.5 -386.5zM440 731q0 -194 117 -320t297 -126q181 0 298.5 124.5t117.5 321.5
q0 192 -118 316t-298 124t-297 -124t-117 -316zM1024 731q0 -152 -45.5 -233.5t-124.5 -81.5t-123.5 81.5t-44.5 233.5q0 150 44.5 229.5t123.5 79.5q81 0 125.5 -78.5t44.5 -230.5z" />
    <glyph glyph-name="lozenge" unicode="&#x25ca;" horiz-adv-x="1214" 
d="M651 0h-127l-444 707l481 716h127l447 -712zM664 297h16l201 297l-332 534h-17l-200 -305z" />
    <glyph glyph-name="openbullet" unicode="&#x25e6;" horiz-adv-x="1009" 
d="M141 557q0 149 107.5 255t259.5 106q150 0 255 -104t105 -253t-106.5 -254.5t-257.5 -105.5t-257 103.5t-106 252.5zM733 561q0 100 -65 168t-162 68t-164 -70q-66 -69 -66 -168q0 -100 65.5 -168.5t162.5 -68.5q99 0 162 69q67 70 67 170z" />
    <glyph glyph-name="uni2776" unicode="&#x2776;" horiz-adv-x="1654" 
d="M1583 727q4 -211 -95.5 -386.5t-274.5 -275t-386 -96.5q-158 -2 -298.5 56t-241 159t-158 242.5t-55.5 300.5q-2 159 55.5 300.5t158 242.5t241 159t298.5 56q211 3 386 -96.5t274.5 -275t95.5 -386.5zM780 774v-463h197v846h-146q-11 -80 -37 -133t-73.5 -84t-106 -44.5
t-145.5 -18.5v-103h311z" />
    <glyph glyph-name="uni2777" unicode="&#x2777;" horiz-adv-x="1654" 
d="M1583 727q4 -211 -95.5 -386.5t-274.5 -275t-386 -96.5q-158 -2 -298.5 56t-241 159t-158 242.5t-55.5 300.5q-2 159 55.5 300.5t158 242.5t241 159t298.5 56q211 3 386 -96.5t274.5 -275t95.5 -386.5zM526 426v-102h617v198h-328v13l66 49q90 68 137 110q115 99 115 224
q0 111 -84 187.5t-211 76.5q-100 0 -188.5 -48t-145.5 -128l61 -62q84 72 180 72q75 0 121.5 -44.5t46.5 -117.5q0 -63 -42.5 -118.5t-151.5 -145.5z" />
    <glyph glyph-name="uni2778" unicode="&#x2778;" horiz-adv-x="1654" 
d="M1583 731q4 -211 -95.5 -386.5t-274.5 -275t-386 -96.5q-158 -2 -298.5 56t-241 159t-158 242.5t-55.5 300.5q-2 159 55.5 300.5t158 242.5t241 159t298.5 56q211 3 386 -96.5t274.5 -275t95.5 -386.5zM549 537l-64 -62q116 -176 322 -176q140 0 229.5 76.5t89.5 197.5
q0 88 -54.5 146.5t-158.5 75.5v12l228 248v102h-598v-196h364v-13l-145 -160v-79q83 -5 125.5 -33.5t42.5 -87.5q0 -62 -54 -99.5t-135 -37.5q-103 0 -192 86z" />
    <glyph glyph-name="uni2779" unicode="&#x2779;" horiz-adv-x="1654" 
d="M1583 731q4 -211 -95.5 -386.5t-274.5 -275t-386 -96.5q-158 -2 -298.5 56t-241 159t-158 242.5t-55.5 300.5q-2 159 55.5 300.5t158 242.5t241 159t298.5 56q211 3 386 -96.5t274.5 -275t95.5 -386.5zM813 328h195v186h176v164h-176v493h-103l-514 -565v-92h422v-186z
M602 678v12l199 217h12v-229h-211z" />
    <glyph glyph-name="uni277A" unicode="&#x277a;" horiz-adv-x="1654" 
d="M1583 731q4 -211 -95.5 -386.5t-274.5 -275t-386 -96.5q-158 -2 -298.5 56t-241 159t-158 242.5t-55.5 300.5q-2 159 55.5 300.5t158 242.5t241 159t298.5 56q211 3 386 -96.5t274.5 -275t95.5 -386.5zM526 526l-63 -61q55 -86 137 -131t180 -45q134 0 226 84t92 211
q0 105 -68 176t-168 71q-104 0 -178 -65h-12l28 184h398v197h-471l-74 -498h12q55 30 91.5 43t86.5 13q74 0 115 -33.5t41 -93.5q0 -61 -51 -99.5t-131 -38.5q-105 0 -191 86z" />
    <glyph glyph-name="uni277B" unicode="&#x277b;" horiz-adv-x="1654" 
d="M1583 731q4 -211 -95.5 -386.5t-274.5 -275t-386 -96.5q-158 -2 -298.5 56t-241 159t-158 242.5t-55.5 300.5q-2 159 55.5 300.5t158 242.5t241 159t298.5 56q211 3 386 -96.5t274.5 -275t95.5 -386.5zM494 492q86 -205 303 -205q135 0 232 91t97 224q0 108 -73.5 179
t-182.5 71q-122 0 -200 -96h-13q8 146 84 228.5t205 82.5q91 0 162 -41l35 68q-44 38 -108 60t-130 22q-211 0 -346 -172q-102 -130 -102 -316q0 -106 37 -196zM913 563q0 -75 -35.5 -125.5t-91.5 -50.5q-60 0 -92 52.5t-32 144.5v47q45 94 131 94q54 0 87 -44.5t33 -117.5z
" />
    <glyph glyph-name="uni277C" unicode="&#x277c;" horiz-adv-x="1654" 
d="M1583 727q4 -211 -95.5 -386.5t-274.5 -275t-386 -96.5q-158 -2 -298.5 56t-241 159t-158 242.5t-55.5 300.5q-2 159 55.5 300.5t158 242.5t241 159t298.5 56q211 3 386 -96.5t274.5 -275t95.5 -386.5zM825 311l342 727v103h-635v-199h480v-12l-455 -611v-8h268z" />
    <glyph glyph-name="uni277D" unicode="&#x277d;" horiz-adv-x="1654" 
d="M1583 731q4 -211 -95.5 -386.5t-274.5 -275t-386 -96.5q-158 -2 -298.5 56t-241 159t-158 242.5t-55.5 300.5q-2 159 55.5 300.5t158 242.5t241 159t298.5 56q211 3 386 -96.5t274.5 -275t95.5 -386.5zM477 549q0 -117 95 -188.5t255 -71.5t256.5 72t96.5 188
q0 79 -55 133.5t-154 73.5v12q82 24 128 70.5t46 111.5q0 100 -86 163t-232 63q-144 0 -229.5 -63t-85.5 -163q0 -65 46 -111.5t128 -70.5v-12q-99 -19 -154 -73.5t-55 -133.5zM936 942q0 -65 -29.5 -102t-79.5 -37t-78 36.5t-28 102.5q0 63 28 98t78 35t79.5 -35.5
t29.5 -97.5zM971 547q0 -71 -40 -114.5t-104 -43.5q-63 0 -102 43t-39 115q0 74 39.5 120t101.5 46q63 0 103.5 -46t40.5 -120z" />
    <glyph glyph-name="uni277E" unicode="&#x277e;" horiz-adv-x="1654" 
d="M1583 731q4 -211 -95.5 -386.5t-274.5 -275t-386 -96.5q-158 -2 -298.5 56t-241 159t-158 242.5t-55.5 300.5q-2 159 55.5 300.5t158 242.5t241 159t298.5 56q211 3 386 -96.5t274.5 -275t95.5 -386.5zM1139 971q-86 205 -303 205q-135 0 -232.5 -91.5t-97.5 -224.5
q0 -108 73.5 -179t182.5 -71q122 0 201 97h12q-8 -147 -84 -229.5t-205 -82.5q-91 0 -162 41l-35 -67q44 -38 108 -60t130 -22q211 0 346 172q103 131 103 315q0 107 -37 197zM719 899q0 75 35.5 125.5t91.5 50.5q61 0 93 -52t32 -144v-48q-45 -94 -131 -94
q-54 0 -87.5 44.5t-33.5 117.5z" />
    <glyph glyph-name="uni300A" unicode="&#x300a;" horiz-adv-x="1165" 
d="M637 -279l-127 -43l-496 971l496 973l127 -43l-324 -924zM1128 -279l-127 -43l-493 971l493 973l127 -43l-323 -924z" />
    <glyph glyph-name="uni300B" unicode="&#x300b;" horiz-adv-x="1165" 
d="M37 1573l127 43l493 -971l-493 -973l-127 43l323 924zM528 1573l127 43l496 -971l-496 -973l-127 43l324 924z" />
    <glyph glyph-name="uni300C" unicode="&#x300c;" horiz-adv-x="753" 
d="M756 1593v-135h-357v-792h-276v927h633z" />
    <glyph glyph-name="uni300D" unicode="&#x300d;" horiz-adv-x="512" 
d="M-236 -299v135h357v793h276v-928h-633z" />
    <glyph glyph-name="uni300E" unicode="&#x300e;" horiz-adv-x="907" 
d="M604 666h-481v927h749v-274h-268v-653zM315 1503v-747h97v653h268v94h-365z" />
    <glyph glyph-name="uni300F" unicode="&#x300f;" horiz-adv-x="800" 
d="M205 612h481v-927h-749v274h268v653zM494 -225v747h-97v-653h-268v-94h365z" />
    <glyph glyph-name="uni3010" unicode="&#x3010;" horiz-adv-x="698" 
d="M172 -299v1892h549v-12q-404 -386 -404 -932q0 -547 404 -936v-12h-549z" />
    <glyph glyph-name="uni3011" unicode="&#x3011;" horiz-adv-x="698" 
d="M526 1593v-1892h-549v12q404 386 404 932q0 547 -404 936v12h549z" />
    <glyph glyph-name="uni3014" unicode="&#x3014;" horiz-adv-x="661" 
d="M649 -217l-84 -107l-459 340v1262l453 344l84 -100l-262 -201v-1339z" />
    <glyph glyph-name="uni3015" unicode="&#x3015;" horiz-adv-x="661" 
d="M12 1511l84 107l459 -340v-1262l-453 -344l-84 101l263 200v1340z" />
    <glyph glyph-name="uniE000" unicode="&#xe000;" horiz-adv-x="1812" 
d="M1761 1401l-1052 -1430l-658 854l117 90l541 -702l936 1270z" />
    <glyph glyph-name="uniE001" unicode="&#xe001;" horiz-adv-x="1830" 
d="M1708 1249h-1585v144h1585v-144zM1708 655h-1585v144h1585v-144zM1708 61h-1585v144h1585v-144z" />
    <glyph glyph-name="uniE002" unicode="&#xe002;" horiz-adv-x="1740" 
d="M1597 0h-1454v1454h1454v-1454zM291 1311v-1168h1159v1168h-1159z" />
    <glyph glyph-name="uniE003" unicode="&#xe003;" horiz-adv-x="1767" 
d="M1450 143v529h147v-672h-1454v1454h910v-143h-762v-1168h1159zM856 299l-426 598l125 80l311 -432l707 907l113 -88z" />
    <glyph glyph-name="uniE004" unicode="&#xe004;" horiz-adv-x="1327" 
d="M1180 766l-510 -623h575v-143h-1163v143h577l-509 623l92 84l331 -291h17v864h147v-864h17l333 291z" />
    <glyph glyph-name="uniE005" unicode="&#xe005;" horiz-adv-x="1419" 
d="M590 846v577h147v-577h17l333 291l93 -84l-510 -623h-11l-509 623l92 84l331 -291h17zM1245 0h-1163v143h1163v-143z" />
    <glyph glyph-name="uniF8FF" unicode="&#xf8ff;" horiz-adv-x="1826" 
d="M455 336q0 20 20 49q23 31 84 92q-99 -22 -133 -22q-115 0 -170 28q-63 34 -63 82q0 41 53 84q-66 39 -115 88q-64 70 -76 135q-8 44 -8 68q0 58 37 125q47 80 109 125q30 22 131 65q63 29 108 41q103 33 225 45l111 15l80 12q49 6 100 6q63 0 142 -8q105 -11 177.5 -27
t159.5 -49q98 -40 230 -139q86 -68 86 -188q0 -76 -43 -146q-28 -48 -65 -79.5t-107 -71.5q43 -49 53 -78q6 -18 6 -33q0 -62 -104 -88q-75 -16 -133 -16q-6 0 -16.5 0.5t-30.5 1.5t-35 2l-68 6q33 -44 41 -72q2 -4 2 -18q0 -31 -29 -37l-28 -4q-30 0 -74 30
q-38 -32 -70 -32q-29 0 -51 22q-47 -35 -69 -35q-21 0 -58 29q-39 -20 -55 -20q-18 0 -39 24q-42 -33 -80 -33q-41 0 -82 41q-20 -26 -40.5 -38.5t-51.5 -12.5q-49 0 -59 23q-2 2 -2 8zM791 1235q-113 -9 -166 -21q-79 -19 -88 -49q-2 -2 -2 -12q0 -15 8 -23q26 -33 73 -51
q40 -18 138 -28q82 -7 141 -7q67 0 102 3q172 9 217 90q13 28 5 41q-15 27 -78 36q-33 6 -56 11q-66 14 -96 14q-108 0 -198 -4zM1280 739q54 12 106 45q54 39 54 76q0 25 -4 45q-12 44 -50 68q-45 26 -90 26q-103 0 -157 -16q-117 -36 -140 -156l-2 -16q0 -28 12.5 -43
t43.5 -29q42 -22 88 -22q24 0 54.5 5t55.5 11t29 6zM649 711q55 13 93.5 56t33.5 85q-9 86 -78 113q-59 26 -147 26q-87 0 -174 -37q-101 -44 -101 -86q0 -88 78 -125q43 -19 95 -32q52 -15 114 -15q15 0 32.5 3t33.5 7zM795 485q10 0 25.5 22.5t23.5 47.5q15 50 12 78
q-3 15 -20 43q-6 6 -13 6q-5 0 -16 -8q-23 -14 -33 -41q-22 -51 -16 -86l6 -35l14 -23q16 -4 17 -4zM977 512l6 35q6 35 -16 86q-12 31 -35 41q-14 14 -27 2q-18 -28 -20 -43q-3 -28 12 -78q8 -25 23.5 -47.5t25.5 -22.5q1 0 17 4q1 1 14 23zM674 72q-13 8 -56 28
q-73 35 -106 64q-28 22 -43 43q-10 23 -4 31q9 18 33 18q34 0 90 -35q20 20 34 27.5t37 7.5q39 0 72 -23q44 23 70 23q32 0 69 -29q4 2 17.5 11t27.5 15.5t25 6.5q16 0 26 -6t29 -25l1 2q2 2 4.5 5t6 6t8.5 6.5t11 6t14.5 4t18.5 1.5q29 0 41.5 -9t27.5 -36q23 27 31 33
q30 24 55 24q2 0 5.5 -0.5t10 -1.5t11.5 -2q26 -7 47 -28q8 -8 8 -17q0 -10 -20 -43q-9 -15 -51 -51l-72 -59q-83 -62 -184 -62q-57 0 -111 4q-96 9 -184 60z" />
    <glyph glyph-name="uni0122.ss06" horiz-adv-x="1521" 
d="M891 733h567v-61q-72 -15 -92 -48.5t-20 -142.5v-377q-242 -133 -500 -133q-222 0 -397.5 93t-274 261t-98.5 380q-4 208 107.5 380.5t308.5 271t436 95.5q273 0 469 -100v-340h-62q-52 148 -147.5 220.5t-247.5 72.5q-162 0 -283 -78t-183 -210.5t-62 -299.5
q0 -129 33 -239t95 -191t156.5 -126.5t210.5 -45.5q60 0 135 16v342q0 114 -28 149t-123 50v61zM764 -545h-78l72 430h225v-8z" />
    <glyph glyph-name="uni0136.ss06" horiz-adv-x="1488" 
d="M829 852l701 -844v-8h-400l-505 633l-111 -119v-281q0 -36 1.5 -59t8 -41t13.5 -28t23.5 -19t31.5 -13.5t45 -11.5v-61h-549v61q30 7 45 11.5t31.5 13.5t23.5 19t13.5 28t8 41t1.5 59v957q0 36 -1.5 59t-8 41t-13.5 28t-23.5 19t-31.5 13.5t-45 11.5v61h549v-61
q-30 -7 -45 -11.5t-31.5 -13.5t-23.5 -19t-13.5 -28t-8 -41t-1.5 -59v-447h14l428 465q66 69 66 103q0 33 -72 51v61h498v-61q-96 -8 -164 -51q-67 -42 -154 -135zM707 -545h-78l71 430h226v-8z" />
    <glyph glyph-name="Lcaron.ss06" horiz-adv-x="1200" 
d="M88 61q75 14 99 46t24 120v955q0 54 -3 80.5t-15.5 50t-36.5 33.5t-68 16v61h549v-61q-44 -6 -68 -16t-36.5 -33.5t-15.5 -50t-3 -80.5v-1039h270q69 0 115.5 12.5t84.5 44.5t62 88.5t41 145.5h66v-434h-1065v61zM840 1014h-76l70 409h213v-8z" />
    <glyph glyph-name="uni013B.ss06" horiz-adv-x="1196" 
d="M88 61q75 14 99 46t24 120v955q0 54 -3 80.5t-15.5 50t-36.5 33.5t-68 16v61h549v-61q-44 -6 -68 -16t-36.5 -33.5t-15.5 -50t-3 -80.5v-1039h270q69 0 115.5 12.5t84.5 44.5t62 88.5t41 145.5h66v-434h-1065v61zM571 -545h-77l71 430h226v-8z" />
    <glyph glyph-name="uni0145.ss06" horiz-adv-x="1542" 
d="M92 61q71 6 97 49.5t26 145.5v1016l-104 139v12h430l624 -921h17v672q0 101 -26 141t-97 47v61h405v-61q-73 -7 -98 -47t-25 -141v-1174h-204l-746 1098h-16v-842q0 -105 25.5 -147t97.5 -48v-61h-406v61zM719 -545h-78l72 430h225v-8z" />
    <glyph glyph-name="Q.ss04" horiz-adv-x="1646" 
d="M1591 -23v-159l-372 252q-175 -99 -396 -99q-211 -3 -383 92.5t-268.5 266t-93.5 381.5q-2 126 33.5 241.5t103 206.5t159 158t207 102t242.5 33q211 3 384 -92.5t270.5 -267t93.5 -381.5q0 -170 -62 -313t-176 -244zM1038 193l-233 157v162l325 -221q105 156 105 420
q0 273 -109 430t-303 157q-191 0 -300 -157.5t-109 -429.5q0 -273 107.5 -428.5t301.5 -155.5q124 0 215 66z" />
    <glyph glyph-name="uni0156.ss06" horiz-adv-x="1427" 
d="M1468 8v-8h-376l-504 666h-76v-420q2 -42 3.5 -65t7.5 -44.5t11.5 -30.5t22 -18.5t31.5 -14t47 -12.5v-61h-549v61q43 11 63 19t36 28t20 50.5t4 87.5v948q0 91 -22.5 122t-100.5 46v61h602q240 0 388.5 -100.5t148.5 -267.5q0 -121 -83.5 -212t-230.5 -134zM512 805h111
q135 0 210.5 64.5t75.5 181.5q0 113 -76 173t-204 60h-117v-479zM672 -545h-78l72 430h225v-8z" />
    <glyph glyph-name="uni0218.ss06" horiz-adv-x="1112" 
d="M78 104v340h65q112 -325 365 -325q103 0 173.5 54.5t70.5 145.5q0 68 -41 118t-127 89l-205 97q-266 123 -266 381q0 196 145.5 322t374.5 126q96 0 196.5 -24.5t174.5 -63.5v-336h-66q-75 277 -315 277q-104 0 -169 -54.5t-65 -146.5q0 -66 40 -115t126 -90l211 -100
q268 -129 268 -379q0 -194 -150 -321.5t-376 -127.5q-232 0 -430 133zM457 -545h-78l72 430h225v-8z" />
    <glyph glyph-name="uni021A.ss06" horiz-adv-x="1302" 
d="M356 61q36 6 54 9.5t37 12.5t26 19t14 31t9 45t4 66v1040h-88q-146 0 -219.5 -52.5t-92.5 -166.5h-65v358h1233v-358h-66q-19 114 -92 166.5t-219 52.5h-88v-1040q2 -50 6 -77t10.5 -47.5t25 -30.5t38.5 -15.5t63 -12.5v-61h-590v61zM551 -545h-78l72 430h225v-8z" />
    <glyph glyph-name="a.salt" horiz-adv-x="1204" 
d="M70 465q0 144 58.5 264.5t171 194t255.5 73.5q175 0 281 -112h16l86 84h113v-719q0 -76 16.5 -101.5t71.5 -29.5v-62l-348 -65h-11v147h-16q-101 -168 -291 -168q-78 0 -150.5 35t-128.5 97t-90 156.5t-34 205.5zM778 301v309q0 121 -52 190.5t-140 69.5
q-108 0 -172 -102q-64 -101 -64 -260q0 -165 59.5 -261.5t163.5 -96.5q64 0 119.5 42.5t85.5 108.5z" />
    <glyph glyph-name="a.ss02" horiz-adv-x="1005" 
d="M860 236q0 -65 17.5 -90.5t70.5 -26.5v-62l-344 -65h-12v147h-17q-42 -81 -110 -124.5t-150 -43.5q-107 0 -178 67.5t-71 172.5q0 107 83 174t254 113l189 53v80q0 90 -56 139t-145 49q-121 0 -258 -90l-57 80q209 188 416 188q169 0 268.5 -92.5t99.5 -286.5v-382z
M592 279v165l-109 -38q-74 -26 -110.5 -61t-36.5 -87q0 -48 29 -78t71 -30q48 0 88.5 35t67.5 94z" />
    <glyph glyph-name="aacute.salt" horiz-adv-x="1204" 
d="M604 1114h-106l110 324h289v-11zM70 465q0 144 58.5 264.5t171 194t255.5 73.5q175 0 281 -112h16l86 84h113v-719q0 -76 16.5 -101.5t71.5 -29.5v-62l-348 -65h-11v147h-16q-101 -168 -291 -168q-78 0 -150.5 35t-128.5 97t-90 156.5t-34 205.5zM778 301v309
q0 121 -52 190.5t-140 69.5q-108 0 -172 -102q-64 -101 -64 -260q0 -165 59.5 -261.5t163.5 -96.5q64 0 119.5 42.5t85.5 108.5z" />
    <glyph glyph-name="aacute.ss02" horiz-adv-x="1005" 
d="M782 1438v-11l-293 -313h-106l111 324h288zM860 236q0 -65 17.5 -90.5t70.5 -26.5v-62l-344 -65h-12v147h-17q-42 -81 -110 -124.5t-150 -43.5q-107 0 -178 67.5t-71 172.5q0 107 83 174t254 113l189 53v80q0 90 -56 139t-145 49q-121 0 -258 -90l-57 80q209 188 416 188
q169 0 268.5 -92.5t99.5 -286.5v-382zM592 279v165l-109 -38q-74 -26 -110.5 -61t-36.5 -87q0 -48 29 -78t71 -30q48 0 88.5 35t67.5 94z" />
    <glyph glyph-name="abreve.salt" horiz-adv-x="1204" 
d="M315 1438h111q6 -75 51 -117.5t125 -42.5q78 0 123 42.5t51 117.5h111q-1 -153 -77.5 -238.5t-207.5 -85.5q-132 0 -209 85.5t-78 238.5zM70 465q0 144 58.5 264.5t171 194t255.5 73.5q175 0 281 -112h16l86 84h113v-719q0 -76 16.5 -101.5t71.5 -29.5v-62l-348 -65h-11
v147h-16q-101 -168 -291 -168q-78 0 -150.5 35t-128.5 97t-90 156.5t-34 205.5zM778 301v309q0 121 -52 190.5t-140 69.5q-108 0 -172 -102q-64 -101 -64 -260q0 -165 59.5 -261.5t163.5 -96.5q64 0 119.5 42.5t85.5 108.5z" />
    <glyph glyph-name="abreve.ss02" horiz-adv-x="1005" 
d="M201 1438h110q6 -75 51 -117.5t125 -42.5q78 0 123.5 42.5t51.5 117.5h110q-1 -153 -77.5 -238.5t-207.5 -85.5t-208 85.5t-78 238.5zM860 236q0 -65 17.5 -90.5t70.5 -26.5v-62l-344 -65h-12v147h-17q-42 -81 -110 -124.5t-150 -43.5q-107 0 -178 67.5t-71 172.5
q0 107 83 174t254 113l189 53v80q0 90 -56 139t-145 49q-121 0 -258 -90l-57 80q209 188 416 188q169 0 268.5 -92.5t99.5 -286.5v-382zM592 279v165l-109 -38q-74 -26 -110.5 -61t-36.5 -87q0 -48 29 -78t71 -30q48 0 88.5 35t67.5 94z" />
    <glyph glyph-name="_154" horiz-adv-x="1204" 
d="M807 1438h117l-258 -324h-134l-260 324h121l207 -138zM70 465q0 144 58.5 264.5t171 194t255.5 73.5q175 0 281 -112h16l86 84h113v-719q0 -76 16.5 -101.5t71.5 -29.5v-62l-348 -65h-11v147h-16q-101 -168 -291 -168q-78 0 -150.5 35t-128.5 97t-90 156.5t-34 205.5z
M778 301v309q0 121 -52 190.5t-140 69.5q-108 0 -172 -102q-64 -101 -64 -260q0 -165 59.5 -261.5t163.5 -96.5q64 0 119.5 42.5t85.5 108.5z" />
    <glyph glyph-name="acircumflex.salt" horiz-adv-x="1204" 
d="M393 1114h-117l259 324h133l260 -324h-121l-207 137zM70 465q0 144 58.5 264.5t171 194t255.5 73.5q175 0 281 -112h16l86 84h113v-719q0 -76 16.5 -101.5t71.5 -29.5v-62l-348 -65h-11v147h-16q-101 -168 -291 -168q-78 0 -150.5 35t-128.5 97t-90 156.5t-34 205.5z
M778 301v309q0 121 -52 190.5t-140 69.5q-108 0 -172 -102q-64 -101 -64 -260q0 -165 59.5 -261.5t163.5 -96.5q64 0 119.5 42.5t85.5 108.5z" />
    <glyph glyph-name="acircumflex.ss02" horiz-adv-x="1005" 
d="M692 1114l-207 137l-206 -137h-117l258 324h133l260 -324h-121zM860 236q0 -65 17.5 -90.5t70.5 -26.5v-62l-344 -65h-12v147h-17q-42 -81 -110 -124.5t-150 -43.5q-107 0 -178 67.5t-71 172.5q0 107 83 174t254 113l189 53v80q0 90 -56 139t-145 49q-121 0 -258 -90
l-57 80q209 188 416 188q169 0 268.5 -92.5t99.5 -286.5v-382zM592 279v165l-109 -38q-74 -26 -110.5 -61t-36.5 -87q0 -48 29 -78t71 -30q48 0 88.5 35t67.5 94z" />
    <glyph glyph-name="adieresis.salt" horiz-adv-x="1204" 
d="M240 1286q0 62 44 107t107 45q61 0 106.5 -45t45.5 -107q0 -63 -45 -107t-107 -44q-63 0 -107 44t-44 107zM664 1286q0 62 44 107t107 45q61 0 106.5 -45t45.5 -107q0 -63 -45 -107t-107 -44q-63 0 -107 44t-44 107zM70 465q0 144 58.5 264.5t171 194t255.5 73.5
q175 0 281 -112h16l86 84h113v-719q0 -76 16.5 -101.5t71.5 -29.5v-62l-348 -65h-11v147h-16q-101 -168 -291 -168q-78 0 -150.5 35t-128.5 97t-90 156.5t-34 205.5zM778 301v309q0 121 -52 190.5t-140 69.5q-108 0 -172 -102q-64 -101 -64 -260q0 -165 59.5 -261.5
t163.5 -96.5q64 0 119.5 42.5t85.5 108.5z" />
    <glyph glyph-name="adieresis.ss02" horiz-adv-x="1005" 
d="M125 1286q0 62 44 107t107 45q62 0 107 -45t45 -107q0 -63 -45 -107t-107 -44q-63 0 -107 44t-44 107zM549 1286q0 62 44 107t107 45q62 0 107 -45t45 -107q0 -63 -45 -107t-107 -44q-63 0 -107 44t-44 107zM860 236q0 -65 17.5 -90.5t70.5 -26.5v-62l-344 -65h-12v147
h-17q-42 -81 -110 -124.5t-150 -43.5q-107 0 -178 67.5t-71 172.5q0 107 83 174t254 113l189 53v80q0 90 -56 139t-145 49q-121 0 -258 -90l-57 80q209 188 416 188q169 0 268.5 -92.5t99.5 -286.5v-382zM592 279v165l-109 -38q-74 -26 -110.5 -61t-36.5 -87q0 -48 29 -78
t71 -30q48 0 88.5 35t67.5 94z" />
    <glyph glyph-name="uni0227.salt" horiz-adv-x="1204" 
d="M442 1286q0 67 49 115.5t117 48.5q66 0 115 -49t49 -115q0 -68 -48.5 -117t-115.5 -49q-69 0 -117.5 48.5t-48.5 117.5zM70 465q0 144 58.5 264.5t171 194t255.5 73.5q175 0 281 -112h16l86 84h113v-719q0 -76 16.5 -101.5t71.5 -29.5v-62l-348 -65h-11v147h-16
q-101 -168 -291 -168q-78 0 -150.5 35t-128.5 97t-90 156.5t-34 205.5zM778 301v309q0 121 -52 190.5t-140 69.5q-108 0 -172 -102q-64 -101 -64 -260q0 -165 59.5 -261.5t163.5 -96.5q64 0 119.5 42.5t85.5 108.5z" />
    <glyph glyph-name="uni0227.ss02" horiz-adv-x="1005" 
d="M328 1286q0 67 49 115.5t117 48.5q66 0 114.5 -49t48.5 -115q0 -68 -48 -117t-115 -49q-69 0 -117.5 48.5t-48.5 117.5zM860 236q0 -65 17.5 -90.5t70.5 -26.5v-62l-344 -65h-12v147h-17q-42 -81 -110 -124.5t-150 -43.5q-107 0 -178 67.5t-71 172.5q0 107 83 174
t254 113l189 53v80q0 90 -56 139t-145 49q-121 0 -258 -90l-57 80q209 188 416 188q169 0 268.5 -92.5t99.5 -286.5v-382zM592 279v165l-109 -38q-74 -26 -110.5 -61t-36.5 -87q0 -48 29 -78t71 -30q48 0 88.5 35t67.5 94z" />
    <glyph glyph-name="agrave.salt" horiz-adv-x="1204" 
d="M608 1438l107 -324h-111l-289 313v11h293zM70 465q0 144 58.5 264.5t171 194t255.5 73.5q175 0 281 -112h16l86 84h113v-719q0 -76 16.5 -101.5t71.5 -29.5v-62l-348 -65h-11v147h-16q-101 -168 -291 -168q-78 0 -150.5 35t-128.5 97t-90 156.5t-34 205.5zM778 301v309
q0 121 -52 190.5t-140 69.5q-108 0 -172 -102q-64 -101 -64 -260q0 -165 59.5 -261.5t163.5 -96.5q64 0 119.5 42.5t85.5 108.5z" />
    <glyph glyph-name="agrave.ss02" horiz-adv-x="1005" 
d="M494 1438l106 -324h-111l-288 313v11h293zM860 236q0 -65 17.5 -90.5t70.5 -26.5v-62l-344 -65h-12v147h-17q-42 -81 -110 -124.5t-150 -43.5q-107 0 -178 67.5t-71 172.5q0 107 83 174t254 113l189 53v80q0 90 -56 139t-145 49q-121 0 -258 -90l-57 80q209 188 416 188
q169 0 268.5 -92.5t99.5 -286.5v-382zM592 279v165l-109 -38q-74 -26 -110.5 -61t-36.5 -87q0 -48 29 -78t71 -30q48 0 88.5 35t67.5 94z" />
    </font>
</defs>
</svg>
