<?xml version="1.0" standalone="no"?>
<!DOCTYPE svg PUBLIC "-//W3C//DTD SVG 1.1//EN" "http://www.w3.org/Graphics/SVG/1.1/DTD/svg11.dtd" >
<svg xmlns="http://www.w3.org/2000/svg" xmlns:xlink="http://www.w3.org/1999/xlink" version="1.1">
<metadata>
Created by FontForge 20170731 at Tue Mar  8 16:59:57 2022
 By Aleksey,,,
Copyright 2021 Dinamo (Johannes Breyer, Fabian Harb). All rights reserved.
</metadata>
<defs>
<font id="ABCArizonaMix-RegularItalic" horiz-adv-x="1564" >
  <font-face 
    font-family="ABC Arizona Mix Trial"
    font-weight="400"
    font-style="italic"
    font-stretch="normal"
    units-per-em="2048"
    panose-1="2 0 0 4 0 2 0 6 0 3"
    ascent="1610"
    descent="-438"
    x-height="969"
    cap-height="1423"
    bbox="-336 -526 2222 1894"
    underline-thickness="102"
    underline-position="-307"
    slope="-14"
    unicode-range="U+0020-F8FF"
  />
<missing-glyph horiz-adv-x="1302" 
d="M1001 0h-946l365 1454h946zM510 1341l-307 -1228h706l310 1228h-709z" />
    <glyph glyph-name=".notdef" horiz-adv-x="1302" 
d="M1001 0h-946l365 1454h946zM510 1341l-307 -1228h706l310 1228h-709z" />
    <glyph glyph-name=".null" horiz-adv-x="0" 
 />
    <glyph glyph-name="nonmarkingreturn" horiz-adv-x="682" 
 />
    <glyph glyph-name="space" unicode=" " horiz-adv-x="507" 
 />
    <glyph glyph-name="exclam" unicode="!" horiz-adv-x="555" 
d="M305 395h-100l196 1028h224zM180 -25q-56 0 -90.5 35t-34.5 92q0 64 44.5 108t109.5 44q57 0 92 -35.5t35 -91.5q0 -65 -45.5 -108.5t-110.5 -43.5z" />
    <glyph glyph-name="quotedbl" unicode="&#x22;" horiz-adv-x="745" 
d="M328 852h-78l84 571h201zM668 852h-78l84 571h200z" />
    <glyph glyph-name="quotesingle" unicode="'" horiz-adv-x="405" 
d="M328 852h-78l84 571h201z" />
    <glyph glyph-name="parenleft" unicode="(" horiz-adv-x="651" 
d="M422 -285l-64 -34q-125 166 -191.5 339.5t-66.5 374.5q0 684 721 1223l53 -49q-268 -248 -423.5 -581t-155.5 -671q0 -345 127 -602z" />
    <glyph glyph-name="parenright" unicode=")" horiz-adv-x="651" 
d="M313 1579l64 35q258 -342 258 -715q0 -685 -723 -1223l-51 50q267 249 423 581.5t156 669.5q0 345 -127 602z" />
    <glyph glyph-name="plus" unicode="+" horiz-adv-x="1167" 
d="M643 541h408v-111h-408v-420h-115v420h-409v111h409v417h115v-417z" />
    <glyph glyph-name="comma" unicode="," horiz-adv-x="497" 
d="M186 254q60 0 99 -39t39 -98q0 -46 -21.5 -84.5t-71.5 -100.5l-211 -262h-102l252 305h-6q-58 0 -93.5 35t-35.5 92q0 60 43.5 106t107.5 46z" />
    <glyph glyph-name="hyphen" unicode="-" horiz-adv-x="819" 
d="M164 551h551v119h-551v-119z" />
    <glyph glyph-name="period" unicode="." horiz-adv-x="479" 
d="M156 -25q-57 0 -91 35t-34 92q0 64 44 108t107 44q57 0 92 -35.5t35 -91.5q0 -65 -44.5 -108.5t-108.5 -43.5z" />
    <glyph glyph-name="zero" unicode="0" horiz-adv-x="1236" 
d="M549 -25q-185 0 -295.5 140.5t-110.5 380.5q0 129 29 260.5t86 249.5t134.5 210t182 146.5t220.5 54.5q184 0 294.5 -142t110.5 -384q0 -130 -29 -261t-86.5 -248.5t-134.5 -208.5t-181.5 -144.5t-219.5 -53.5zM549 88q80 0 152 61.5t122.5 159t88 217t55.5 238t18 219.5
q0 322 -192 322q-79 0 -151 -62t-122.5 -160.5t-88.5 -218.5t-56.5 -238.5t-18.5 -219.5q0 -157 49 -237.5t144 -80.5z" />
    <glyph glyph-name="one" unicode="1" horiz-adv-x="755" 
d="M412 0h-197l258 1028h-270v86q175 12 277 76t155 203h125z" />
    <glyph glyph-name="two" unicode="2" horiz-adv-x="1077" 
d="M881 188v-188h-887v96l473 363q75 58 123 98t105 96.5t89.5 104.5t55 107.5t22.5 119.5q0 124 -80.5 200.5t-214.5 76.5q-152 0 -280 -109l-47 53q74 96 177.5 153.5t231.5 57.5q182 0 301 -109t119 -284q0 -68 -21 -132.5t-55.5 -118.5t-93 -113.5t-119 -109.5
t-147.5 -114l-322 -235v-13h570z" />
    <glyph glyph-name="three" unicode="3" horiz-adv-x="1097" 
d="M465 -25q-278 0 -453 248l58 49q137 -141 329 -141q150 0 253.5 86.5t103.5 218.5q0 245 -312 254v98l467 404v12h-606v189h883v-97l-584 -497v-13q172 -26 264.5 -126.5t92.5 -245.5q0 -128 -69 -229.5t-182 -155.5t-245 -54z" />
    <glyph glyph-name="four" unicode="4" horiz-adv-x="1253" 
d="M770 0h-188l94 373h-651v96l993 924h100l-211 -842h297v-178h-342zM848 1104l-582 -541v-12h455l139 553h-12z" />
    <glyph glyph-name="five" unicode="5" horiz-adv-x="1103" 
d="M446 -25q-278 0 -450 248l55 49q138 -141 336 -141q169 0 278 91.5t109 236.5q0 118 -74 185t-200 67q-140 0 -293 -90h-10l299 772h680v-189h-650l-166 -432h15q102 76 235 76q97 0 180 -44t136 -131.5t53 -201.5q0 -138 -70 -252t-192.5 -179t-270.5 -65z" />
    <glyph glyph-name="six" unicode="6" horiz-adv-x="1212" 
d="M592 -25q-176 0 -290.5 106t-149.5 281q-40 210 26.5 428t218.5 373q113 114 254.5 178t302.5 64q198 0 338 -100l-43 -74q-107 55 -256 55q-244 0 -402 -157.5t-214 -428.5h12q129 168 328 168q162 0 272.5 -108.5t110.5 -276.5q0 -135 -63 -250.5t-180.5 -186.5
t-264.5 -71zM582 82q93 0 164.5 56t106 138t34.5 173q0 131 -67 208.5t-175 77.5q-91 0 -169 -59t-122 -146l-8 -75q-13 -100 9.5 -184t81.5 -136.5t145 -52.5z" />
    <glyph glyph-name="seven" unicode="7" horiz-adv-x="1013" 
d="M995 1204v-14l-1007 -1182v-8h274l920 1296v97h-920v-189h733z" />
    <glyph glyph-name="eight" unicode="8" horiz-adv-x="1232" 
d="M539 -25q-209 0 -336 101.5t-127 267.5q0 159 124.5 270t319.5 138v14q-100 29 -159.5 97t-59.5 167q0 170 142.5 278.5t357.5 108.5q189 0 305.5 -93.5t116.5 -231.5t-101.5 -233t-277.5 -126v-14q124 -29 194 -108.5t70 -190.5q0 -133 -77 -235.5t-206 -156t-286 -53.5
zM719 793q134 0 215.5 91t81.5 222q0 94 -58 148.5t-157 54.5q-131 0 -213 -87t-82 -216q0 -97 57.5 -155t155.5 -58zM535 84q160 0 263 105.5t103 254.5q0 109 -70.5 175.5t-185.5 66.5q-157 0 -259.5 -109t-102.5 -258q0 -108 68.5 -171.5t183.5 -63.5z" />
    <glyph glyph-name="nine" unicode="9" horiz-adv-x="1212" 
d="M387 -12q-98 0 -193.5 27.5t-162.5 76.5l41 76q121 -62 262 -62q130 0 238.5 47.5t184.5 131.5t125 197t68 247h-12q-54 -74 -145 -123t-201 -49q-157 0 -262 111.5t-105 277.5q0 127 57.5 233.5t168.5 172t254 65.5q171 0 291 -103.5t159 -277.5q47 -206 -15 -430
t-216 -383q-232 -235 -537 -235zM672 690q99 0 174.5 60t118.5 145l4 68q11 143 -59.5 245.5t-194.5 102.5q-135 0 -208 -95t-73 -235q0 -126 65 -208.5t173 -82.5z" />
    <glyph glyph-name="colon" unicode=":" horiz-adv-x="544" 
d="M342 672q-57 0 -91 35t-34 92q0 64 44.5 107.5t107.5 43.5q57 0 93 -35.5t36 -91.5q0 -65 -45.5 -108t-110.5 -43zM172 -25q-57 0 -91 35t-34 92q0 64 44.5 108t107.5 44q57 0 92 -35.5t35 -91.5q0 -65 -45 -108.5t-109 -43.5z" />
    <glyph glyph-name="question" unicode="?" horiz-adv-x="1015" 
d="M393 395l68 277q191 57 295 152.5t104 226.5q0 111 -79.5 176t-207.5 65q-99 0 -178 -37.5t-129 -91.5l-55 56q183 229 444 229q177 0 291.5 -103t114.5 -255q0 -93 -39.5 -173t-111.5 -139t-159.5 -103t-195.5 -77l-51 -203h-111zM387 -25q-57 0 -91 35t-34 92
q0 64 44.5 108t107.5 44q57 0 92 -35.5t35 -91.5q0 -65 -45 -108.5t-109 -43.5z" />
    <glyph glyph-name="A" unicode="A" horiz-adv-x="1402" 
d="M987 1423l184 -1165q16 -94 37 -134.5t76 -70.5v-53h-469v53q75 20 111 46t43.5 62.5t-0.5 88.5l-31 196h-555l-121 -190q-30 -49 -43 -76.5t-14.5 -54t17 -42.5t59.5 -30v-53h-385v53q83 28 133 73.5t108 137.5l731 1159h119zM821 1141l-370 -586h471l-88 586h-13z" />
    <glyph glyph-name="B" unicode="B" horiz-adv-x="1353" 
d="M-4 0v53q90 20 126.5 59t61.5 140l228 907q28 109 12.5 155.5t-82.5 55.5v53h549q208 0 323 -86t115 -223q0 -146 -112.5 -242t-292.5 -127v-12q145 -19 235 -101t90 -202q0 -128 -83.5 -227.5t-221.5 -151t-305 -51.5h-643zM528 801h201q174 0 277.5 82.5t103.5 224.5
q0 99 -71 153t-201 54h-181zM702 692h-200l-148 -583h232q198 0 320 95t122 255q0 233 -326 233z" />
    <glyph glyph-name="C" unicode="C" horiz-adv-x="1394" 
d="M776 -25q-126 0 -239 45t-199 125.5t-137 203.5t-51 269q0 161 61 311t167 265t261.5 184.5t333.5 69.5q244 0 424 -109v-303h-58q-41 142 -138.5 220.5t-231.5 78.5q-166 0 -302.5 -97t-211 -251.5t-74.5 -327.5q0 -243 133.5 -379.5t341.5 -136.5q230 0 418 170l51 -49
q-119 -151 -253.5 -220t-295.5 -69z" />
    <glyph glyph-name="D" unicode="D" horiz-adv-x="1566" 
d="M186 270l224 889q28 109 13.5 154t-83.5 57v53h518q298 0 487 -167.5t189 -432.5q0 -180 -68.5 -333t-189.5 -260.5t-293.5 -168.5t-374.5 -61h-614v53q96 23 130 62.5t62 154.5zM655 1315l-303 -1206h203q175 0 318 56.5t236.5 156t144.5 234.5t51 292
q0 224 -128.5 345.5t-349.5 121.5h-172z" />
    <glyph glyph-name="E" unicode="E" horiz-adv-x="1314" 
d="M1087 358h58v-358h-1153v53q99 22 133 63.5t63 157.5l222 885q29 113 13.5 156.5t-83.5 54.5v53h1036v-307h-57q-11 108 -78.5 153.5t-220.5 45.5h-365l-135 -541h189q120 0 173.5 35t59.5 115h55v-408h-55q-6 80 -58 115t-173 35h-219l-140 -557h441q138 0 209.5 56
t84.5 193z" />
    <glyph glyph-name="F" unicode="F" horiz-adv-x="1200" 
d="M-4 0v53q93 21 127.5 60t60.5 141l226 897q31 108 19 157t-87 62v53h971v-307h-58q-9 107 -78.5 153t-220.5 46h-299l-139 -557h221q123 0 176 35.5t58 113.5h57v-407h-57q-5 79 -60 114t-178 35h-246l-98 -391q-26 -105 -10 -144.5t98 -60.5v-53h-483z" />
    <glyph glyph-name="G" unicode="G" horiz-adv-x="1523" 
d="M1053 1335q-127 0 -236.5 -39.5t-188.5 -108t-136 -159.5t-85 -195.5t-28 -214.5q0 -245 121.5 -388.5t341.5 -143.5q90 0 192 29l92 377q22 91 -2.5 132t-109.5 50v53h497v-53q-81 -15 -119.5 -56.5t-60.5 -130.5l-98 -393q-107 -60 -208 -89.5t-220 -29.5
q-136 0 -256 47t-208.5 131t-139.5 207t-51 267q0 163 66 312.5t182.5 262t287.5 179.5t369 67q275 0 471 -109v-295h-56q-50 138 -161.5 214.5t-255.5 76.5z" />
    <glyph glyph-name="H" unicode="H" horiz-adv-x="1656" 
d="M1309 1370v53h460v-53q-82 -14 -117.5 -52t-60.5 -140l-231 -930q-25 -98 -9.5 -138t87.5 -57v-53h-463v53q81 13 116 52.5t62 142.5l104 420h-763l-105 -420q-25 -98 -9.5 -138t87.5 -57v-53h-463v53q81 13 117 53t61 142l232 928q26 96 11 137.5t-87 56.5v53h461v-53
q-81 -14 -117.5 -52.5t-60.5 -139.5l-99 -396h764l98 394q25 96 10 137.5t-85 56.5z" />
    <glyph glyph-name="I" unicode="I" horiz-adv-x="686" 
d="M4 0v53q82 14 117.5 52.5t62.5 150.5l226 907q28 110 14 150t-86 57v53h461v-53q-84 -14 -119.5 -53.5t-63.5 -151.5l-225 -909q-25 -113 -9 -150t85 -53v-53h-463z" />
    <glyph glyph-name="J" unicode="J" horiz-adv-x="962" 
d="M240 -25q-187 0 -324 115l43 74q112 -68 219 -68q258 0 328 279l199 784q28 108 14 151t-86 60v53h461v-53q-83 -18 -119.5 -57t-63.5 -146l-192 -772q-53 -214 -172.5 -317t-306.5 -103z" />
    <glyph glyph-name="K" unicode="K" horiz-adv-x="1411" 
d="M1595 1423v-53q-63 -9 -114.5 -26t-101 -48t-81 -55t-88.5 -72l-424 -362l531 -797v-10h-248l-436 676l-176 -152l-66 -264q-22 -71 -19.5 -113t23 -61t70.5 -33v-53h-461v53q83 17 117.5 56.5t62.5 148.5l230 918q25 93 11 135t-87 59v53h461v-53q-84 -17 -120 -56.5
t-61 -137.5l-116 -469h10l580 501q153 130 78 159q-3 2 -7 3v53h432z" />
    <glyph glyph-name="L" unicode="L" horiz-adv-x="1196" 
d="M-8 0v53q95 23 129.5 61t62.5 148l226 903q28 106 13 150.5t-85 54.5v53h465v-53q-87 -9 -122 -48t-63 -153l-266 -1060h369q72 0 118 11t84 42t60.5 89t34.5 150h55v-401h-1081z" />
    <glyph glyph-name="M" unicode="M" horiz-adv-x="1931" 
d="M872 0h-120l-207 1186h-15l-229 -934q-26 -106 -13 -142t81 -57v-53h-377v53q89 19 125.5 56.5t62.5 142.5l228 909q27 104 14.5 146.5t-78.5 62.5v53h361l200 -1161h15l759 1161h373v-53q-84 -9 -121.5 -53t-66.5 -158l-228 -905q-26 -106 -13 -145t79 -56v-53h-461v53
q87 19 125 58t64 143l235 938h-16z" />
    <glyph glyph-name="N" unicode="N" horiz-adv-x="1560" 
d="M-10 0v53q90 19 126 57.5t64 145.5l256 1034l-59 125v8h266l514 -1116h12l217 869q26 96 13.5 135t-80.5 59v53h373v-53q-87 -19 -125.5 -59.5t-63.5 -139.5l-291 -1171h-133l-544 1163h-13l-225 -909q-17 -72 -17.5 -108.5t18.5 -57.5t67 -35v-53h-375z" />
    <glyph glyph-name="O" unicode="O" horiz-adv-x="1617" 
d="M766 -25q-276 0 -447.5 171t-171.5 442q0 168 62 324.5t169 275t262 189.5t331 71q274 0 446 -171.5t172 -440.5q0 -169 -62 -325.5t-169 -275t-262 -189.5t-330 -71zM772 90q105 0 199.5 46.5t163.5 124t120.5 177t77 208t25.5 214.5q0 219 -105 346t-288 127
q-105 0 -199.5 -46.5t-163.5 -124.5t-120.5 -177.5t-77 -208t-25.5 -213.5q0 -222 105.5 -347.5t287.5 -125.5z" />
    <glyph glyph-name="P" unicode="P" horiz-adv-x="1212" 
d="M678 594h-205l-84 -334q-26 -107 -10.5 -146t92.5 -61v-53h-479v53q90 20 128 62t64 151l224 893q31 110 17.5 154t-87.5 57v53h479q213 0 345 -101.5t132 -268.5q0 -145 -84 -250.5t-221.5 -157t-310.5 -51.5zM784 1315h-131l-153 -615h147q198 0 312 98t114 267
q0 122 -76.5 186t-212.5 64z" />
    <glyph glyph-name="Q" unicode="Q" horiz-adv-x="1615" 
d="M1120 117v-15h465v-194h-12l-565 110q-125 -43 -252 -43q-179 0 -318.5 77.5t-217 217t-77.5 318.5q0 168 61.5 324.5t167.5 275t260.5 189.5t330.5 71q180 0 319.5 -78t216 -217.5t76.5 -316.5q0 -249 -127.5 -440.5t-327.5 -278.5zM375 563q0 -221 104.5 -347
t282.5 -126q131 0 243.5 71t184.5 184t112.5 247.5t40.5 267.5q0 220 -104.5 346.5t-280.5 126.5q-104 0 -198 -46.5t-163 -124.5t-120 -177.5t-76.5 -208t-25.5 -213.5z" />
    <glyph glyph-name="R" unicode="R" horiz-adv-x="1359" 
d="M1319 1087q0 -158 -133 -261.5t-355 -123.5l451 -692v-10h-238l-434 692h-106l-113 -446q-27 -95 -12.5 -137t90.5 -56v-53h-467v53q88 13 123 51.5t59 139.5l228 917q32 105 20 152t-90 57v53h502q210 0 342.5 -94.5t132.5 -241.5zM657 1315l-129 -516h166
q187 0 298.5 80t111.5 219q0 106 -77.5 161.5t-217.5 55.5h-152z" />
    <glyph glyph-name="S" unicode="S" horiz-adv-x="1099" 
d="M487 -25q-247 0 -436 144v293h55q122 -326 392 -326q117 0 200.5 67.5t83.5 182.5q0 70 -39 123.5t-122 109.5l-142 99q-205 139 -205 356q0 188 140 306t352 118q103 0 201.5 -27t171.5 -73v-287h-56q-85 276 -327 276q-123 0 -205 -69.5t-82 -182.5q0 -70 33.5 -124
t107.5 -105l150 -104q110 -76 164.5 -157t54.5 -194q0 -129 -69 -227.5t-180 -148.5t-243 -50z" />
    <glyph glyph-name="T" unicode="T" horiz-adv-x="1275" 
d="M281 0v53q94 15 132 57t68 158l262 1051h-131q-157 0 -231.5 -50.5t-83.5 -162.5h-55v317h1183v-317h-55q-12 111 -93 162t-233 51h-94l-264 -1051q-28 -112 -9.5 -157t101.5 -58v-53h-497z" />
    <glyph glyph-name="U" unicode="U" 
d="M717 -25q-132 0 -237 44t-168.5 125t-84.5 196t15 256l143 575q20 67 18 107.5t-22.5 59.5t-71.5 32v53h465v-53q-81 -15 -118.5 -54.5t-63.5 -141.5l-148 -592q-53 -212 34 -331.5t276 -119.5q183 0 311.5 114t183.5 330l148 592q18 76 18.5 112.5t-17.5 56.5t-65 34v53
h375v-53q-89 -18 -127.5 -57.5t-64.5 -145.5l-152 -606q-70 -283 -232.5 -434.5t-414.5 -151.5z" />
    <glyph glyph-name="V" unicode="V" horiz-adv-x="1404" 
d="M1376 1147l-735 -1147h-121l-155 1161q-13 94 -37 138t-86 71v53h460v-53q-74 -16 -105.5 -39.5t-36 -65.5t6.5 -108l113 -870h12l557 870q37 58 53.5 89t20 56.5t-11 39.5t-47.5 28v53h370v-53q-89 -26 -140 -70.5t-118 -152.5z" />
    <glyph glyph-name="W" unicode="W" horiz-adv-x="2011" 
d="M420 0l-60 1165q-6 93 -26.5 133.5t-81.5 71.5v53h465v-53q-101 -18 -133 -65.5t-27 -137.5l45 -843h12l521 884l-13 215h213l58 -1089h12l455 821q26 47 38 71t21 51.5t3.5 42t-21 27.5t-46.5 23v53h367v-53q-87 -26 -132.5 -70t-100.5 -143l-641 -1157h-131l-56 1016
h-12l-598 -1016h-131z" />
    <glyph glyph-name="X" unicode="X" horiz-adv-x="1400" 
d="M201 250l467 473l-217 455q-46 93 -80 131.5t-99 60.5v53h480v-53q-92 -24 -107.5 -69.5t25.5 -120.5l139 -301h12l326 331q120 122 31 160v53h378v-53q-87 -20 -139.5 -55t-134.5 -117l-420 -428l250 -524q40 -82 78 -124.5t106 -68.5v-53h-483v53q90 27 106 69t-22 111
l-178 377h-12l-363 -364q-80 -84 -90 -124.5t43 -68.5v-53h-387v53q87 31 145 71.5t146 125.5z" />
    <glyph glyph-name="Y" unicode="Y" horiz-adv-x="1406" 
d="M1237 1370v53h383v-53q-86 -17 -143.5 -60t-122.5 -120l-520 -604l-91 -359q-21 -94 -4 -128t82 -46v-53h-465v53q84 10 121 46t60 128l94 373l-215 576q-33 88 -67.5 134t-98.5 60v53h477v-53q-41 -7 -66 -20t-37.5 -29.5t-13 -42.5t6 -53t20.5 -66l158 -434h12l395 461
q73 85 81.5 129t-46.5 55z" />
    <glyph glyph-name="Z" unicode="Z" horiz-adv-x="1234" 
d="M1061 0h-1081v96l1103 1211v8h-448q-128 0 -196.5 -55t-86.5 -179h-55v342h1069v-96l-1104 -1210v-8h438q142 0 213 57t93 207h55v-373z" />
    <glyph glyph-name="grave" unicode="`" horiz-adv-x="434" 
d="M496 1419l47 -293h-82l-193 285v8h228z" />
    <glyph glyph-name="a" unicode="a" horiz-adv-x="1155" 
d="M395 -25q-141 0 -231 111t-90 287q0 114 42 225.5t113.5 199t176.5 141.5t223 54q84 0 156.5 -31.5t119.5 -89.5h13l120 97h62l-187 -750q-19 -70 -10.5 -91.5t60.5 -27.5v-53l-287 -57h-12l36 149h-12q-120 -164 -293 -164zM461 119q48 0 92 17.5t80.5 49.5t61 60
t50.5 65l74 301q31 122 -17.5 201.5t-156.5 79.5q-110 0 -199 -73t-135.5 -184.5t-46.5 -234.5q0 -131 52.5 -206.5t144.5 -75.5z" />
    <glyph glyph-name="b" unicode="b" horiz-adv-x="1150" 
d="M512 -25q-86 0 -158 33t-116 88h-13l-125 -106h-61l307 1231q17 70 4.5 96.5t-69.5 36.5v53l307 57h10l-160 -635h15q120 164 295 164q141 0 235 -110.5t94 -282.5q0 -120 -43.5 -234t-117 -200t-180 -138.5t-224.5 -52.5zM496 76q109 0 199.5 71t140 184t49.5 240
q0 131 -55 205t-154 74q-46 0 -90.5 -19t-81 -51t-62 -61.5t-47.5 -61.5l-73 -290q-32 -136 19.5 -213.5t154.5 -77.5z" />
    <glyph glyph-name="c" unicode="c" horiz-adv-x="968" 
d="M489 -25q-179 0 -293 125.5t-114 317.5q0 112 41 216t112.5 183.5t178.5 127.5t231 48q146 0 273 -65v-219h-56q-24 88 -82 134t-137 46q-155 0 -263 -126.5t-108 -301.5q0 -156 77.5 -242t213.5 -86q151 0 271 96l45 -47q-74 -101 -176.5 -154t-213.5 -53z" />
    <glyph glyph-name="d" unicode="d" horiz-adv-x="1163" 
d="M401 -25q-139 0 -233 111t-94 283q0 116 42 228.5t114.5 200t179 141.5t225.5 54q154 0 254 -100h12l84 338q16 65 1.5 89.5t-68.5 33.5v53l307 57h10l-315 -1259q-16 -58 -7 -78.5t60 -26.5v-53l-287 -57h-12l37 149h-13q-123 -164 -297 -164zM471 119q148 0 285 192
l71 293q34 137 -17 213t-157 76q-107 0 -197 -69.5t-141 -183t-51 -241.5q0 -130 54.5 -205t152.5 -75z" />
    <glyph glyph-name="e" unicode="e" horiz-adv-x="1007" 
d="M598 993q178 0 270.5 -117t59.5 -286l-8 -43h-644q-6 -40 -6 -78q0 -162 82 -249t221 -87q153 0 269 96l47 -47q-74 -99 -175.5 -153t-215.5 -54q-176 0 -295 120.5t-119 318.5q0 111 37 215t102 185t163 130t212 49zM582 891q-101 0 -175 -69.5t-110 -178.5h453
q21 110 -24.5 179t-143.5 69z" />
    <glyph glyph-name="f" unicode="f" horiz-adv-x="761" 
d="M31 0v53q65 8 87 32t44 112l164 657h-191v115h221l47 188q37 152 145.5 237t268.5 85q99 0 187 -31v-201h-50q-14 50 -56.5 87.5t-106.5 37.5q-146 0 -185 -162l-61 -241h254v-115h-281l-164 -657q-22 -88 -11.5 -111.5t73.5 -32.5v-53h-385z" />
    <glyph glyph-name="g" unicode="g" horiz-adv-x="1048" 
d="M1104 1047v-179h-254v-10q31 -23 51.5 -65t20.5 -95q0 -156 -123.5 -256t-304.5 -100q-75 0 -146 23q-62 -19 -99.5 -50.5t-37.5 -68.5q0 -66 108 -78l275 -31q307 -33 307 -231q0 -105 -77.5 -184.5t-199 -119.5t-264.5 -40q-194 0 -314 69.5t-120 184.5q0 69 52 127
t149 98v6q-78 51 -78 137q0 69 54 129.5t149 98.5v6q-98 79 -98 211q0 161 124.5 262.5t305.5 101.5q60 0 137 -22l373 76h10zM500 434q102 0 169.5 88t67.5 205q0 80 -41 128t-114 48q-104 0 -173 -87.5t-69 -203.5q0 -83 42.5 -130.5t117.5 -47.5zM551 -27l-305 35
q-73 -28 -114.5 -74.5t-41.5 -101.5q0 -83 76 -127.5t201 -44.5q146 0 248 50t102 140q0 57 -40.5 85.5t-125.5 37.5z" />
    <glyph glyph-name="h" unicode="h" horiz-adv-x="1144" 
d="M104 182l258 1035q19 72 7 100t-70 37v53l305 57h12l-159 -635h12q135 164 299 164q134 0 210 -109t34 -282l-105 -422q-19 -72 -10 -95t59 -32v-53h-370v53q62 10 87 33.5t44 101.5l108 433q26 108 -15 169.5t-120 61.5q-78 0 -148 -51t-124 -129l-125 -498
q-14 -46 -8.5 -72t18.5 -34.5t43 -14.5v-53h-366v53q60 8 82 29.5t42 99.5z" />
    <glyph glyph-name="i" unicode="i" horiz-adv-x="559" 
d="M463 1149q-51 0 -84 33.5t-33 85.5q0 63 43.5 105t106.5 42q51 0 83.5 -32.5t32.5 -84.5q0 -64 -43.5 -106.5t-105.5 -42.5zM508 979l-197 -786q-19 -87 -9.5 -108.5t58.5 -31.5v-53h-366v53q64 9 84.5 32t42.5 110l135 540q18 72 6 98t-69 35v54l305 57h10z" />
    <glyph glyph-name="j" unicode="j" horiz-adv-x="530" 
d="M455 1149q-53 0 -86 33.5t-33 85.5q0 62 43.5 104.5t105.5 42.5q51 0 84 -32.5t33 -84.5q0 -64 -42.5 -106.5t-104.5 -42.5zM-154 -438q-101 0 -182 51l33 70q56 -21 117 -21q81 0 132.5 46t78.5 153l217 872q18 74 5.5 100.5t-67.5 34.5v54l303 57h13l-277 -1104
q-79 -313 -373 -313z" />
    <glyph glyph-name="k" unicode="k" horiz-adv-x="1089" 
d="M1167 969v-54q-81 -10 -147 -42t-154 -99l-266 -203l377 -561v-10h-225l-297 461l-113 -84l-45 -184q-19 -78 -10 -104.5t59 -35.5v-53h-366v53q62 9 82.5 29t41.5 100l265 1055q14 59 -1 84.5t-67 32.5v53l305 57h10l-233 -932h14l369 285q97 76 50 95q-5 2 -11 3v54
h362z" />
    <glyph glyph-name="l" unicode="l" horiz-adv-x="546" 
d="M-23 0v53q64 9 85 32t44 110l256 1026q19 72 7 98t-68 35v53l303 57h10l-319 -1271q-19 -87 -9.5 -108.5t58.5 -31.5v-53h-367z" />
    <glyph glyph-name="m" unicode="m" horiz-adv-x="1716" 
d="M119 188l137 551q15 72 2 96.5t-65 32.5v54l303 57h10l-37 -150h12q64 78 135 121t164 43q98 0 160 -57t70 -148h12q65 95 150.5 150t185.5 55q127 0 199 -103.5t30 -268.5l-104 -426q-22 -79 -13 -107t60 -35v-53h-371v53q32 5 49 10.5t34 20.5t27.5 41t22.5 72l111 446
q24 98 -11.5 153.5t-113.5 55.5q-138 0 -262 -188l-117 -469q-16 -60 -15 -87.5t14 -37t48 -17.5v-53h-366v53q64 9 85.5 33t43.5 111l110 450q23 95 -9 150t-110 55q-75 0 -145 -52t-125 -128l-119 -475q-21 -86 -12.5 -110.5t59.5 -33.5v-53h-366v53q63 7 84 30t43 105z
" />
    <glyph glyph-name="n" unicode="n" horiz-adv-x="1157" 
d="M117 182l137 549q19 72 7 100t-71 37v54l306 57h10l-37 -150h12q135 164 299 164q63 0 117 -27.5t89.5 -78t47 -123t-9.5 -162.5l-106 -426q-18 -71 -8.5 -92.5t59.5 -30.5v-53h-371v53q61 9 86 33.5t45 101.5l109 433q26 108 -15.5 169.5t-117.5 61.5q-148 0 -277 -180
l-123 -498q-14 -46 -8.5 -72t18.5 -34.5t43 -14.5v-53h-366v53q60 8 82.5 30t42.5 99z" />
    <glyph glyph-name="o" unicode="o" horiz-adv-x="1140" 
d="M492 -25q-186 0 -300 114.5t-114 295.5q0 165 74.5 304.5t207 221.5t293.5 82q185 0 299.5 -114t114.5 -295q0 -123 -44 -235t-120 -194.5t-183.5 -131t-227.5 -48.5zM498 86q82 0 152 48.5t114.5 126t69 170.5t24.5 185q0 126 -55.5 196.5t-155.5 70.5
q-84 0 -154.5 -48.5t-114.5 -126.5t-68.5 -170.5t-24.5 -185.5q0 -127 56 -196.5t157 -69.5z" />
    <glyph glyph-name="p" unicode="p" horiz-adv-x="1169" 
d="M10 -213l238 948q19 69 8 95.5t-68 35.5v54l301 59h11l-37 -150h12q124 164 295 164q138 0 234 -107.5t96 -289.5q0 -113 -42 -224.5t-114.5 -199.5t-179 -142.5t-225.5 -54.5q-150 0 -254 97h-13l-71 -285q-21 -88 -11.5 -111t66.5 -32v-54h-375v54q63 8 84.5 31
t44.5 112zM518 76q84 0 158.5 43.5t124 113.5t78 158.5t28.5 177.5q0 132 -54 206.5t-151 74.5q-147 0 -284 -193l-74 -290q-33 -136 17.5 -213.5t156.5 -77.5z" />
    <glyph glyph-name="q" unicode="q" horiz-adv-x="1146" 
d="M625 -211l86 350h-13q-62 -82 -133 -123t-162 -41q-141 0 -235 111t-94 281q0 117 42 230t114.5 200.5t179 141.5t227.5 54q83 0 156 -31t122 -90h13l121 97h61l-297 -1184q-20 -87 -12 -108.5t57 -32.5v-54h-373v54q68 6 93 32t47 113zM473 119q151 0 283 192l71 293
q34 136 -17 212.5t-157 76.5t-196 -70.5t-140.5 -185t-50.5 -242.5t54.5 -202t152.5 -74z" />
    <glyph glyph-name="r" unicode="r" horiz-adv-x="784" 
d="M117 184l135 549q19 72 6.5 99t-68.5 36v54l302 57h14l-68 -260h15q73 144 143 209t176 65q34 0 68 -12v-195q-47 15 -95 15q-104 0 -193.5 -74.5t-158.5 -200.5l-86 -344q-17 -78 -6 -99.5t68 -29.5v-53h-379v53q61 8 83.5 30.5t43.5 100.5z" />
    <glyph glyph-name="s" unicode="s" horiz-adv-x="839" 
d="M334 -25q-174 0 -314 105v201h56q37 -98 104 -149.5t160 -51.5q81 0 132.5 36t51.5 105q0 44 -23.5 76t-76.5 68l-111 75q-143 98 -143 246q0 131 102 219t258 88q147 0 275 -71v-203h-55q-25 81 -84.5 124.5t-149.5 43.5q-79 0 -134.5 -38t-55.5 -101q0 -45 24 -78
t84 -74l111 -72q76 -49 113.5 -106.5t37.5 -136.5q0 -132 -104 -219t-258 -87z" />
    <glyph glyph-name="t" unicode="t" horiz-adv-x="714" 
d="M358 -25q-121 0 -179 81.5t-25 215.5l145 582h-178v88q57 3 98.5 10t74 24t54 35.5t40.5 53t32 67t31 87.5h131l-62 -250h258v-115h-286l-154 -612q-19 -73 10 -108.5t88 -35.5q69 0 133 31l31 -57q-113 -97 -242 -97z" />
    <glyph glyph-name="u" unicode="u" horiz-adv-x="1120" 
d="M360 -25q-81 0 -142.5 47.5t-86 131t1.5 198.5l94 377q20 66 8.5 96t-69.5 39v54l303 57h10l-160 -643q-24 -101 7.5 -158t109.5 -57q134 0 269 194l104 416q20 66 7.5 97t-71.5 40v54l308 57h10l-189 -752q-20 -73 -12.5 -94.5t60.5 -28.5v-53l-287 -57h-12l36 149h-12
q-121 -164 -287 -164z" />
    <glyph glyph-name="v" unicode="v" horiz-adv-x="1038" 
d="M354 0l-112 743q-9 67 -34.5 94t-94.5 37v52l288 57l2 -31q19 -133 33 -217l62 -467h12l326 500q21 32 30 51.5t12.5 40t-9.5 33.5t-42 22v54h310v-54q-65 -12 -100 -43t-79 -98l-507 -774h-97z" />
    <glyph glyph-name="w" unicode="w" horiz-adv-x="1533" 
d="M461 289h12l326 524l-13 156h185l61 -684h15l282 473q44 78 43 109t-47 48v54h299v-54q-65 -18 -101 -52t-83 -111l-451 -752h-98l-60 670h-12l-418 -670h-96l-69 756q-5 55 -31 82t-92 36v52l290 57l5 -49l18 -240z" />
    <glyph glyph-name="x" unicode="x" horiz-adv-x="1017" 
d="M156 207l268 274l-145 305q-28 60 -60.5 87.5t-85.5 41.5v54h408v-54q-36 -9 -55.5 -21.5t-24 -29t-0.5 -34t16 -42.5l76 -170h14l168 175q53 54 57 82.5t-36 39.5v54h323v-54q-73 -13 -123.5 -44t-107.5 -93l-244 -252l160 -329q27 -58 56 -89.5t87 -54.5v-53h-407v53
q67 15 82.5 42.5t-9.5 82.5l-96 215h-14l-187 -194q-69 -69 -76 -98.5t44 -47.5v-53h-334v53q73 18 124.5 51t121.5 103z" />
    <glyph glyph-name="y" unicode="y" horiz-adv-x="1030" 
d="M823 915v54h307v-54q-68 -21 -103.5 -51.5t-76.5 -97.5l-544 -909q-102 -168 -188 -231.5t-193 -63.5q-79 0 -142 37v168q69 -29 154 -29q91 0 165.5 43t141.5 158l37 61l-137 743q-10 66 -38.5 93t-96.5 38v52l282 57l4 -20l37 -220l84 -491h14l308 518q28 45 36 71.5
t-3.5 44.5t-47.5 29z" />
    <glyph glyph-name="z" unicode="z" horiz-adv-x="946" 
d="M485 102h-247v13l714 766v88h-759v-248h53q26 84 73.5 114.5t145.5 30.5h217v-12l-713 -766v-88h807v281h-53q-36 -103 -88 -141t-150 -38z" />
    <glyph glyph-name="uni00A0" unicode="&#xa0;" horiz-adv-x="507" 
 />
    <glyph glyph-name="exclamdown" unicode="&#xa1;" horiz-adv-x="520" 
d="M358 993q57 0 91 -35t34 -92q0 -64 -44 -107.5t-107 -43.5q-57 0 -93 35.5t-36 91.5q0 65 45 108t110 43zM236 573h98l-195 -1028h-223z" />
    <glyph glyph-name="dieresis" unicode="&#xa8;" horiz-adv-x="702" 
d="M332 1151q-50 0 -81.5 32t-31.5 83q0 60 41 100.5t102 40.5q48 0 79.5 -31t31.5 -80q0 -62 -41 -103.5t-100 -41.5zM715 1151q-50 0 -81.5 32t-31.5 83q0 60 41.5 100.5t101.5 40.5q50 0 81.5 -31t31.5 -80q0 -62 -41 -103.5t-102 -41.5z" />
    <glyph glyph-name="macron" unicode="&#xaf;" horiz-adv-x="694" 
d="M231 1194h609v102h-609v-102z" />
    <glyph glyph-name="acute" unicode="&#xb4;" horiz-adv-x="434" 
d="M299 1126h-92l158 293h258v-8z" />
    <glyph glyph-name="cedilla" unicode="&#xb8;" horiz-adv-x="501" 
d="M47 -418q-129 0 -209 107l37 41q63 -60 143 -60q55 0 92 26t37 68q0 32 -23.5 50t-62.5 18q-31 0 -63 -16l-8 6l125 207l53 -29l-64 -104l2 -2q21 6 41 6q52 0 88.5 -37.5t36.5 -93.5q0 -80 -63.5 -133.5t-161.5 -53.5z" />
    <glyph glyph-name="questiondown" unicode="&#xbf;" horiz-adv-x="995" 
d="M618 993q57 0 91 -35t34 -92q0 -64 -44 -107.5t-107 -43.5q-57 0 -92 35.5t-35 91.5q0 65 44.5 108t108.5 43zM612 573l-67 -276q-191 -57 -295.5 -152.5t-104.5 -226.5q0 -111 79.5 -176.5t207.5 -65.5q99 0 178 37.5t129 91.5l56 -55q-183 -229 -445 -229
q-177 0 -291 103t-114 255q0 93 39.5 173t111.5 139t159.5 103t195.5 77l51 202h110z" />
    <glyph glyph-name="Agrave" unicode="&#xc0;" horiz-adv-x="1402" 
d="M983 1833l47 -293h-80l-192 287v6h225zM987 1423l184 -1165q16 -94 37 -134.5t76 -70.5v-53h-469v53q75 20 111 46t43.5 62.5t-0.5 88.5l-31 196h-555l-121 -190q-30 -49 -43 -76.5t-14.5 -54t17 -42.5t59.5 -30v-53h-385v53q83 28 133 73.5t108 137.5l731 1159h119z
M821 1141l-370 -586h471l-88 586h-13z" />
    <glyph glyph-name="Aacute" unicode="&#xc1;" horiz-adv-x="1402" 
d="M1268 1833v-6l-324 -287h-92l158 293h258zM987 1423l184 -1165q16 -94 37 -134.5t76 -70.5v-53h-469v53q75 20 111 46t43.5 62.5t-0.5 88.5l-31 196h-555l-121 -190q-30 -49 -43 -76.5t-14.5 -54t17 -42.5t59.5 -30v-53h-385v53q83 28 133 73.5t108 137.5l731 1159h119z
M821 1141l-370 -586h471l-88 586h-13z" />
    <glyph glyph-name="Acircumflex" unicode="&#xc2;" horiz-adv-x="1402" 
d="M1151 1540l-156 137l-239 -137h-117l330 293h104l174 -293h-96zM987 1423l184 -1165q16 -94 37 -134.5t76 -70.5v-53h-469v53q75 20 111 46t43.5 62.5t-0.5 88.5l-31 196h-555l-121 -190q-30 -49 -43 -76.5t-14.5 -54t17 -42.5t59.5 -30v-53h-385v53q83 28 133 73.5
t108 137.5l731 1159h119zM821 1141l-370 -586h471l-88 586h-13z" />
    <glyph glyph-name="Atilde" unicode="&#xc3;" horiz-adv-x="1402" 
d="M844 1675q-86 0 -123 -116h-82q25 123 84 184t137 61q77 0 154 -61l30 -27q40 -35 86 -35q44 0 73 28.5t48 88.5h84q-25 -124 -84.5 -186t-138.5 -62q-83 0 -154 64l-26 24q-42 37 -88 37zM987 1423l184 -1165q16 -94 37 -134.5t76 -70.5v-53h-469v53q75 20 111 46
t43.5 62.5t-0.5 88.5l-31 196h-555l-121 -190q-30 -49 -43 -76.5t-14.5 -54t17 -42.5t59.5 -30v-53h-385v53q83 28 133 73.5t108 137.5l731 1159h119zM821 1141l-370 -586h471l-88 586h-13z" />
    <glyph glyph-name="Adieresis" unicode="&#xc4;" horiz-adv-x="1402" 
d="M780 1563q-51 0 -82.5 32t-31.5 82q0 60 42 102t103 42q48 0 79.5 -32t31.5 -81q0 -62 -41.5 -103.5t-100.5 -41.5zM1163 1563q-49 0 -80.5 32t-31.5 82q0 60 41.5 102t101.5 42q48 0 80.5 -32t32.5 -81q0 -62 -42.5 -103.5t-101.5 -41.5zM987 1423l184 -1165
q16 -94 37 -134.5t76 -70.5v-53h-469v53q75 20 111 46t43.5 62.5t-0.5 88.5l-31 196h-555l-121 -190q-30 -49 -43 -76.5t-14.5 -54t17 -42.5t59.5 -30v-53h-385v53q83 28 133 73.5t108 137.5l731 1159h119zM821 1141l-370 -586h471l-88 586h-13z" />
    <glyph glyph-name="Aring" unicode="&#xc5;" horiz-adv-x="1402" 
d="M987 1505q-83 0 -139.5 56.5t-56.5 138.5q0 80 56.5 137t139.5 57t142 -57t59 -137q0 -82 -59 -138.5t-142 -56.5zM987 1808q-45 0 -74.5 -30.5t-29.5 -77.5q0 -49 29.5 -80t74.5 -31q46 0 76.5 31t30.5 80q0 47 -30.5 77.5t-76.5 30.5zM987 1423l184 -1165
q16 -94 37 -134.5t76 -70.5v-53h-469v53q75 20 111 46t43.5 62.5t-0.5 88.5l-31 196h-555l-121 -190q-30 -49 -43 -76.5t-14.5 -54t17 -42.5t59.5 -30v-53h-385v53q83 28 133 73.5t108 137.5l731 1159h119zM821 1141l-370 -586h471l-88 586h-13z" />
    <glyph glyph-name="AE" unicode="&#xc6;" horiz-adv-x="1875" 
d="M147 270l914 1153h876v-307h-55q-15 108 -80.5 153.5t-218.5 45.5h-287l-135 -541h119q109 0 164 36t59 114h58v-408h-58q-4 80 -59.5 115t-165.5 35h-143l-140 -557h365q133 0 206.5 55.5t84.5 193.5h55v-358h-1071v53q91 22 128.5 60.5t61.5 142.5l47 190h-446
l-150 -190q-38 -47 -57 -76.5t-25.5 -56t7 -42.5t47.5 -28v-53h-377v53q82 27 143 76t133 141zM512 555h387l174 696h-12z" />
    <glyph glyph-name="Ccedilla" unicode="&#xc7;" horiz-adv-x="1394" 
d="M973 1448q244 0 424 -109v-303h-58q-41 142 -138.5 220.5t-231.5 78.5q-166 0 -302.5 -97t-211 -251.5t-74.5 -327.5q0 -243 133.5 -379.5t341.5 -136.5q230 0 418 170l51 -49q-119 -151 -253.5 -220t-295.5 -69h-28l-52 -79l2 -2q21 6 43 6q52 0 88.5 -37.5t36.5 -93.5
q0 -80 -64.5 -133.5t-160.5 -53.5q-131 0 -211 107l39 41q60 -60 141 -60q55 0 93 26t38 68q0 32 -24.5 50t-63.5 18q-31 0 -63 -16l-8 6l96 160q-110 16 -205.5 67t-167.5 130.5t-113.5 193t-41.5 245.5q0 161 61 311t167 265t261.5 184.5t333.5 69.5z" />
    <glyph glyph-name="Egrave" unicode="&#xc8;" horiz-adv-x="1314" 
d="M961 1833l47 -293h-80l-193 287v6h226zM1087 358h58v-358h-1153v53q99 22 133 63.5t63 157.5l222 885q29 113 13.5 156.5t-83.5 54.5v53h1036v-307h-57q-11 108 -78.5 153.5t-220.5 45.5h-365l-135 -541h189q120 0 173.5 35t59.5 115h55v-408h-55q-6 80 -58 115t-173 35
h-219l-140 -557h441q138 0 209.5 56t84.5 193z" />
    <glyph glyph-name="Eacute" unicode="&#xc9;" horiz-adv-x="1314" 
d="M922 1540h-93l158 293h258v-6zM1087 358h58v-358h-1153v53q99 22 133 63.5t63 157.5l222 885q29 113 13.5 156.5t-83.5 54.5v53h1036v-307h-57q-11 108 -78.5 153.5t-220.5 45.5h-365l-135 -541h189q120 0 173.5 35t59.5 115h55v-408h-55q-6 80 -58 115t-173 35h-219
l-140 -557h441q138 0 209.5 56t84.5 193z" />
    <glyph glyph-name="Ecircumflex" unicode="&#xca;" horiz-adv-x="1314" 
d="M733 1540h-117l330 293h105l174 -293h-97l-155 137zM1087 358h58v-358h-1153v53q99 22 133 63.5t63 157.5l222 885q29 113 13.5 156.5t-83.5 54.5v53h1036v-307h-57q-11 108 -78.5 153.5t-220.5 45.5h-365l-135 -541h189q120 0 173.5 35t59.5 115h55v-408h-55
q-6 80 -58 115t-173 35h-219l-140 -557h441q138 0 209.5 56t84.5 193z" />
    <glyph glyph-name="Edieresis" unicode="&#xcb;" horiz-adv-x="1314" 
d="M758 1563q-51 0 -83 32t-32 82q0 60 42 102t103 42q48 0 79.5 -32t31.5 -81q0 -62 -41 -103.5t-100 -41.5zM1141 1563q-49 0 -81 32t-32 82q0 60 41.5 102t101.5 42q48 0 80.5 -32t32.5 -81q0 -62 -42 -103.5t-101 -41.5zM1087 358h58v-358h-1153v53q99 22 133 63.5
t63 157.5l222 885q29 113 13.5 156.5t-83.5 54.5v53h1036v-307h-57q-11 108 -78.5 153.5t-220.5 45.5h-365l-135 -541h189q120 0 173.5 35t59.5 115h55v-408h-55q-6 80 -58 115t-173 35h-219l-140 -557h441q138 0 209.5 56t84.5 193z" />
    <glyph glyph-name="Igrave" unicode="&#xcc;" horiz-adv-x="686" 
d="M637 1833l47 -293h-80l-192 287v6h225zM4 0v53q82 14 117.5 52.5t62.5 150.5l226 907q28 110 14 150t-86 57v53h461v-53q-84 -14 -119.5 -53.5t-63.5 -151.5l-225 -909q-25 -113 -9 -150t85 -53v-53h-463z" />
    <glyph glyph-name="Iacute" unicode="&#xcd;" horiz-adv-x="686" 
d="M598 1540h-92l158 293h258v-6zM4 0v53q82 14 117.5 52.5t62.5 150.5l226 907q28 110 14 150t-86 57v53h461v-53q-84 -14 -119.5 -53.5t-63.5 -151.5l-225 -909q-25 -113 -9 -150t85 -53v-53h-463z" />
    <glyph glyph-name="Icircumflex" unicode="&#xce;" horiz-adv-x="686" 
d="M408 1540h-117l330 293h104l174 -293h-96l-156 137zM4 0v53q82 14 117.5 52.5t62.5 150.5l226 907q28 110 14 150t-86 57v53h461v-53q-84 -14 -119.5 -53.5t-63.5 -151.5l-225 -909q-25 -113 -9 -150t85 -53v-53h-463z" />
    <glyph glyph-name="Idieresis" unicode="&#xcf;" horiz-adv-x="686" 
d="M432 1563q-51 0 -83 32t-32 82q0 60 42.5 102t103.5 42q47 0 78.5 -32t31.5 -81q0 -62 -41 -103.5t-100 -41.5zM815 1563q-49 0 -81 32t-32 82q0 60 42 102t102 42q48 0 80 -32t32 -81q0 -62 -42 -103.5t-101 -41.5zM4 0v53q82 14 117.5 52.5t62.5 150.5l226 907
q28 110 14 150t-86 57v53h461v-53q-84 -14 -119.5 -53.5t-63.5 -151.5l-225 -909q-25 -113 -9 -150t85 -53v-53h-463z" />
    <glyph glyph-name="Eth" unicode="&#xd0;" horiz-adv-x="1576" 
d="M350 1423h518q196 0 350.5 -75.5t241 -212.5t86.5 -312q0 -240 -117.5 -427.5t-328.5 -291.5t-479 -104h-617v53q97 23 132 63t63 154l104 416h-184v102h211l92 371q28 109 12.5 154t-84.5 57v53zM365 109h200q175 0 318 56.5t236.5 156t144.5 234.5t51 292
q0 224 -128 345.5t-349 121.5h-172l-131 -527h268v-102h-295z" />
    <glyph glyph-name="Ntilde" unicode="&#xd1;" horiz-adv-x="1560" 
d="M1184 1550q-83 0 -154 64l-26 24q-42 37 -89 37q-85 0 -122 -116h-82q25 123 84 184t137 61q76 0 153 -61l31 -27q40 -35 86 -35q44 0 73 28.5t48 88.5h84q-25 -124 -84.5 -186t-138.5 -62zM-10 0v53q90 19 126 57.5t64 145.5l256 1034l-59 125v8h266l514 -1116h12
l217 869q26 96 13.5 135t-80.5 59v53h373v-53q-87 -19 -125.5 -59.5t-63.5 -139.5l-291 -1171h-133l-544 1163h-13l-225 -909q-17 -72 -17.5 -108.5t18.5 -57.5t67 -35v-53h-375z" />
    <glyph glyph-name="Ograve" unicode="&#xd2;" horiz-adv-x="1617" 
d="M1042 1833l48 -293h-80l-193 287v6h225zM766 -25q-276 0 -447.5 171t-171.5 442q0 168 62 324.5t169 275t262 189.5t331 71q274 0 446 -171.5t172 -440.5q0 -169 -62 -325.5t-169 -275t-262 -189.5t-330 -71zM772 90q105 0 199.5 46.5t163.5 124t120.5 177t77 208
t25.5 214.5q0 219 -105 346t-288 127q-105 0 -199.5 -46.5t-163.5 -124.5t-120.5 -177.5t-77 -208t-25.5 -213.5q0 -222 105.5 -347.5t287.5 -125.5z" />
    <glyph glyph-name="Oacute" unicode="&#xd3;" horiz-adv-x="1617" 
d="M1001 1540h-92l158 293h258v-6zM766 -25q-276 0 -447.5 171t-171.5 442q0 168 62 324.5t169 275t262 189.5t331 71q274 0 446 -171.5t172 -440.5q0 -169 -62 -325.5t-169 -275t-262 -189.5t-330 -71zM772 90q105 0 199.5 46.5t163.5 124t120.5 177t77 208t25.5 214.5
q0 219 -105 346t-288 127q-105 0 -199.5 -46.5t-163.5 -124.5t-120.5 -177.5t-77 -208t-25.5 -213.5q0 -222 105.5 -347.5t287.5 -125.5z" />
    <glyph glyph-name="Ocircumflex" unicode="&#xd4;" horiz-adv-x="1617" 
d="M813 1540h-117l330 293h104l175 -293h-97l-155 137zM766 -25q-276 0 -447.5 171t-171.5 442q0 168 62 324.5t169 275t262 189.5t331 71q274 0 446 -171.5t172 -440.5q0 -169 -62 -325.5t-169 -275t-262 -189.5t-330 -71zM772 90q105 0 199.5 46.5t163.5 124t120.5 177
t77 208t25.5 214.5q0 219 -105 346t-288 127q-105 0 -199.5 -46.5t-163.5 -124.5t-120.5 -177.5t-77 -208t-25.5 -213.5q0 -222 105.5 -347.5t287.5 -125.5z" />
    <glyph glyph-name="Otilde" unicode="&#xd5;" horiz-adv-x="1617" 
d="M1169 1550q-82 0 -153 64l-27 24q-42 37 -88 37q-86 0 -123 -116h-82q25 123 84.5 184t137.5 61q76 0 153 -61l31 -27q40 -35 86 -35q44 0 73 28.5t48 88.5h84q-25 -124 -85 -186t-139 -62zM766 -25q-276 0 -447.5 171t-171.5 442q0 168 62 324.5t169 275t262 189.5
t331 71q274 0 446 -171.5t172 -440.5q0 -169 -62 -325.5t-169 -275t-262 -189.5t-330 -71zM772 90q105 0 199.5 46.5t163.5 124t120.5 177t77 208t25.5 214.5q0 219 -105 346t-288 127q-105 0 -199.5 -46.5t-163.5 -124.5t-120.5 -177.5t-77 -208t-25.5 -213.5
q0 -222 105.5 -347.5t287.5 -125.5z" />
    <glyph glyph-name="Odieresis" unicode="&#xd6;" horiz-adv-x="1617" 
d="M838 1563q-51 0 -83 32t-32 82q0 60 42 102t103 42q48 0 79.5 -32t31.5 -81q0 -62 -41 -103.5t-100 -41.5zM1221 1563q-49 0 -81 32t-32 82q0 60 41.5 102t101.5 42q48 0 80.5 -32t32.5 -81q0 -62 -42 -103.5t-101 -41.5zM766 -25q-276 0 -447.5 171t-171.5 442
q0 168 62 324.5t169 275t262 189.5t331 71q274 0 446 -171.5t172 -440.5q0 -169 -62 -325.5t-169 -275t-262 -189.5t-330 -71zM772 90q105 0 199.5 46.5t163.5 124t120.5 177t77 208t25.5 214.5q0 219 -105 346t-288 127q-105 0 -199.5 -46.5t-163.5 -124.5t-120.5 -177.5
t-77 -208t-25.5 -213.5q0 -222 105.5 -347.5t287.5 -125.5z" />
    <glyph glyph-name="Oslash" unicode="&#xd8;" horiz-adv-x="1619" 
d="M1612 1493l67 -70l-211 -202q121 -158 121 -385q0 -169 -61.5 -325.5t-168.5 -275t-261.5 -189.5t-329.5 -71q-258 0 -432 156l-207 -199l-68 68l211 203q-122 156 -122 385q0 112 28 220.5t78.5 203t125 175.5t164 138.5t199.5 90t228 32.5q256 0 430 -156zM379 563
q0 -127 35 -223l866 834q-106 159 -313 159q-105 0 -199.5 -46.5t-164 -124.5t-121 -177.5t-77.5 -208t-26 -213.5zM1360 860q0 125 -35 221l-866 -831q107 -160 313 -160q105 0 199.5 46.5t164 124t121 177t77.5 208.5t26 214z" />
    <glyph glyph-name="Ugrave" unicode="&#xd9;" 
d="M1092 1833l47 -293h-80l-193 287v6h226zM717 -25q-132 0 -237 44t-168.5 125t-84.5 196t15 256l143 575q20 67 18 107.5t-22.5 59.5t-71.5 32v53h465v-53q-81 -15 -118.5 -54.5t-63.5 -141.5l-148 -592q-53 -212 34 -331.5t276 -119.5q183 0 311.5 114t183.5 330l148 592
q18 76 18.5 112.5t-17.5 56.5t-65 34v53h375v-53q-89 -18 -127.5 -57.5t-64.5 -145.5l-152 -606q-70 -283 -232.5 -434.5t-414.5 -151.5z" />
    <glyph glyph-name="Uacute" unicode="&#xda;" 
d="M1053 1540h-92l157 293h258v-6zM717 -25q-132 0 -237 44t-168.5 125t-84.5 196t15 256l143 575q20 67 18 107.5t-22.5 59.5t-71.5 32v53h465v-53q-81 -15 -118.5 -54.5t-63.5 -141.5l-148 -592q-53 -212 34 -331.5t276 -119.5q183 0 311.5 114t183.5 330l148 592
q18 76 18.5 112.5t-17.5 56.5t-65 34v53h375v-53q-89 -18 -127.5 -57.5t-64.5 -145.5l-152 -606q-70 -283 -232.5 -434.5t-414.5 -151.5z" />
    <glyph glyph-name="Ucircumflex" unicode="&#xdb;" 
d="M862 1540h-117l330 293h105l174 -293h-97l-155 137zM717 -25q-132 0 -237 44t-168.5 125t-84.5 196t15 256l143 575q20 67 18 107.5t-22.5 59.5t-71.5 32v53h465v-53q-81 -15 -118.5 -54.5t-63.5 -141.5l-148 -592q-53 -212 34 -331.5t276 -119.5q183 0 311.5 114
t183.5 330l148 592q18 76 18.5 112.5t-17.5 56.5t-65 34v53h375v-53q-89 -18 -127.5 -57.5t-64.5 -145.5l-152 -606q-70 -283 -232.5 -434.5t-414.5 -151.5z" />
    <glyph glyph-name="Udieresis" unicode="&#xdc;" 
d="M887 1563q-51 0 -83 32t-32 82q0 60 42.5 102t103.5 42q47 0 78.5 -32t31.5 -81q0 -62 -41 -103.5t-100 -41.5zM1270 1563q-49 0 -81 32t-32 82q0 60 41.5 102t101.5 42q48 0 80.5 -32t32.5 -81q0 -62 -42 -103.5t-101 -41.5zM717 -25q-132 0 -237 44t-168.5 125
t-84.5 196t15 256l143 575q20 67 18 107.5t-22.5 59.5t-71.5 32v53h465v-53q-81 -15 -118.5 -54.5t-63.5 -141.5l-148 -592q-53 -212 34 -331.5t276 -119.5q183 0 311.5 114t183.5 330l148 592q18 76 18.5 112.5t-17.5 56.5t-65 34v53h375v-53q-89 -18 -127.5 -57.5
t-64.5 -145.5l-152 -606q-70 -283 -232.5 -434.5t-414.5 -151.5z" />
    <glyph glyph-name="Yacute" unicode="&#xdd;" horiz-adv-x="1406" 
d="M1278 1833v-6l-324 -287h-92l158 293h258zM1237 1370v53h383v-53q-86 -17 -143.5 -60t-122.5 -120l-520 -604l-91 -359q-21 -94 -4 -128t82 -46v-53h-465v53q84 10 121 46t60 128l94 373l-215 576q-33 88 -67.5 134t-98.5 60v53h477v-53q-41 -7 -66 -20t-37.5 -29.5
t-13 -42.5t6 -53t20.5 -66l158 -434h12l395 461q73 85 81.5 129t-46.5 55z" />
    <glyph glyph-name="Thorn" unicode="&#xde;" horiz-adv-x="1234" 
d="M606 1126h135q214 0 347 -99.5t133 -262.5q0 -147 -84 -254.5t-223 -160t-316 -52.5h-199l-10 -41q-14 -55 -16.5 -90t8 -58t30 -34.5t54.5 -20.5v-53h-461v53q83 18 119 56t61 147l226 909q27 110 13 149t-85 56v53h461v-53q-86 -21 -121 -58.5t-62 -146.5zM426 403h141
q201 0 316.5 99.5t115.5 269.5q0 122 -76.5 185t-213.5 63h-129z" />
    <glyph glyph-name="germandbls" unicode="&#xdf;" horiz-adv-x="1146" 
d="M565 -23q-118 0 -205 52l31 75q65 -26 127 -26q144 0 230 106.5t86 255.5q0 131 -70.5 201t-194.5 78v96q181 7 280 105.5t99 255.5q0 94 -45.5 147t-126.5 53q-183 0 -239 -225l-289 -1151h-271v53q64 9 85 31.5t44 112.5l226 901q44 178 154 279.5t294 101.5
q163 0 264 -87.5t101 -232.5t-111.5 -250t-288.5 -143v-12q126 -29 210.5 -120.5t84.5 -223.5q0 -187 -136.5 -310t-338.5 -123z" />
    <glyph glyph-name="agrave" unicode="&#xe0;" horiz-adv-x="1155" 
d="M727 1419l47 -293h-80l-192 285v8h225zM395 -25q-141 0 -231 111t-90 287q0 114 42 225.5t113.5 199t176.5 141.5t223 54q84 0 156.5 -31.5t119.5 -89.5h13l120 97h62l-187 -750q-19 -70 -10.5 -91.5t60.5 -27.5v-53l-287 -57h-12l36 149h-12q-120 -164 -293 -164z
M461 119q48 0 92 17.5t80.5 49.5t61 60t50.5 65l74 301q31 122 -17.5 201.5t-156.5 79.5q-110 0 -199 -73t-135.5 -184.5t-46.5 -234.5q0 -131 52.5 -206.5t144.5 -75.5z" />
    <glyph glyph-name="aacute" unicode="&#xe1;" horiz-adv-x="1155" 
d="M678 1126h-94l159 293h258v-8zM395 -25q-141 0 -231 111t-90 287q0 114 42 225.5t113.5 199t176.5 141.5t223 54q84 0 156.5 -31.5t119.5 -89.5h13l120 97h62l-187 -750q-19 -70 -10.5 -91.5t60.5 -27.5v-53l-287 -57h-12l36 149h-12q-120 -164 -293 -164zM461 119
q48 0 92 17.5t80.5 49.5t61 60t50.5 65l74 301q31 122 -17.5 201.5t-156.5 79.5q-110 0 -199 -73t-135.5 -184.5t-46.5 -234.5q0 -131 52.5 -206.5t144.5 -75.5z" />
    <glyph glyph-name="acircumflex" unicode="&#xe2;" horiz-adv-x="1155" 
d="M492 1126h-117l330 293h104l174 -293h-96l-156 136zM395 -25q-141 0 -231 111t-90 287q0 114 42 225.5t113.5 199t176.5 141.5t223 54q84 0 156.5 -31.5t119.5 -89.5h13l120 97h62l-187 -750q-19 -70 -10.5 -91.5t60.5 -27.5v-53l-287 -57h-12l36 149h-12
q-120 -164 -293 -164zM461 119q48 0 92 17.5t80.5 49.5t61 60t50.5 65l74 301q31 122 -17.5 201.5t-156.5 79.5q-110 0 -199 -73t-135.5 -184.5t-46.5 -234.5q0 -131 52.5 -206.5t144.5 -75.5z" />
    <glyph glyph-name="atilde" unicode="&#xe3;" horiz-adv-x="1155" 
d="M852 1135q-85 0 -154 63l-26 25q-42 37 -88 37q-44 0 -73 -28.5t-50 -88.5h-82q25 124 84 185t137 61q75 0 154 -62l30 -27q39 -34 86 -34q44 0 73.5 28t49.5 88h82q-25 -124 -84.5 -185.5t-138.5 -61.5zM395 -25q-141 0 -231 111t-90 287q0 114 42 225.5t113.5 199
t176.5 141.5t223 54q84 0 156.5 -31.5t119.5 -89.5h13l120 97h62l-187 -750q-19 -70 -10.5 -91.5t60.5 -27.5v-53l-287 -57h-12l36 149h-12q-120 -164 -293 -164zM461 119q48 0 92 17.5t80.5 49.5t61 60t50.5 65l74 301q31 122 -17.5 201.5t-156.5 79.5q-110 0 -199 -73
t-135.5 -184.5t-46.5 -234.5q0 -131 52.5 -206.5t144.5 -75.5z" />
    <glyph glyph-name="adieresis" unicode="&#xe4;" horiz-adv-x="1155" 
d="M520 1151q-50 0 -81 32t-31 83q0 60 41.5 100.5t101.5 40.5q50 0 81.5 -31t31.5 -80q0 -62 -41.5 -103.5t-102.5 -41.5zM905 1151q-50 0 -81 32t-31 83q0 60 41 100.5t102 40.5q48 0 79.5 -31t31.5 -80q0 -62 -41.5 -103.5t-100.5 -41.5zM395 -25q-141 0 -231 111
t-90 287q0 114 42 225.5t113.5 199t176.5 141.5t223 54q84 0 156.5 -31.5t119.5 -89.5h13l120 97h62l-187 -750q-19 -70 -10.5 -91.5t60.5 -27.5v-53l-287 -57h-12l36 149h-12q-120 -164 -293 -164zM461 119q48 0 92 17.5t80.5 49.5t61 60t50.5 65l74 301
q31 122 -17.5 201.5t-156.5 79.5q-110 0 -199 -73t-135.5 -184.5t-46.5 -234.5q0 -131 52.5 -206.5t144.5 -75.5z" />
    <glyph glyph-name="aring" unicode="&#xe5;" horiz-adv-x="1155" 
d="M723 1085q-84 0 -141.5 56.5t-57.5 138.5q0 80 57.5 137.5t141.5 57.5q82 0 140.5 -57.5t58.5 -137.5q0 -81 -58.5 -138t-140.5 -57zM723 1171q45 0 75.5 30t30.5 79q0 47 -30.5 78t-75.5 31q-46 0 -76.5 -31t-30.5 -78q0 -49 30.5 -79t76.5 -30zM395 -25
q-141 0 -231 111t-90 287q0 114 42 225.5t113.5 199t176.5 141.5t223 54q84 0 156.5 -31.5t119.5 -89.5h13l120 97h62l-187 -750q-19 -70 -10.5 -91.5t60.5 -27.5v-53l-287 -57h-12l36 149h-12q-120 -164 -293 -164zM461 119q48 0 92 17.5t80.5 49.5t61 60t50.5 65l74 301
q31 122 -17.5 201.5t-156.5 79.5q-110 0 -199 -73t-135.5 -184.5t-46.5 -234.5q0 -131 52.5 -206.5t144.5 -75.5z" />
    <glyph glyph-name="ae" unicode="&#xe6;" horiz-adv-x="1562" 
d="M1155 993q177 0 270 -117t60 -284l-10 -45h-644q-6 -37 -6 -78q0 -161 82.5 -248.5t218.5 -87.5q153 0 271 96l47 -47q-73 -99 -175.5 -153t-215.5 -54q-127 0 -229.5 66.5t-147.5 183.5h-12q-181 -250 -406 -250q-101 0 -164 62.5t-63 159.5q0 116 89 182.5t253 103.5
l260 58l20 86q27 107 -22 167t-154 60q-146 0 -287 -96l-36 59q199 176 395 176q87 0 154 -36t104 -103h12q139 139 336 139zM852 643h455q20 112 -24.5 180t-143.5 68q-101 0 -176.5 -69t-110.5 -179zM561 248l49 201l-159 -46q-117 -33 -174.5 -69.5t-57.5 -104.5
q0 -54 29.5 -85t81.5 -31q122 0 231 135z" />
    <glyph glyph-name="ccedilla" unicode="&#xe7;" horiz-adv-x="968" 
d="M643 889q-155 0 -263 -126.5t-108 -301.5q0 -156 77.5 -242t213.5 -86q151 0 271 96l45 -47q-74 -101 -176.5 -154t-213.5 -53h-18l-51 -79l2 -2q21 6 43 6q52 0 88.5 -37.5t36.5 -93.5q0 -80 -64.5 -133.5t-160.5 -53.5q-131 0 -211 107l39 41q60 -60 141 -60
q55 0 93 26t38 68q0 32 -24.5 50t-63.5 18q-32 0 -64 -16l-8 6l98 162q-145 31 -233 149.5t-88 284.5q0 112 41 216t112.5 183.5t178.5 127.5t231 48q146 0 273 -65v-219h-56q-24 88 -82 134t-137 46z" />
    <glyph glyph-name="egrave" unicode="&#xe8;" horiz-adv-x="1007" 
d="M674 1419l47 -293h-80l-192 285v8h225zM598 993q178 0 270.5 -117t59.5 -286l-8 -43h-644q-6 -40 -6 -78q0 -162 82 -249t221 -87q153 0 269 96l47 -47q-74 -99 -175.5 -153t-215.5 -54q-176 0 -295 120.5t-119 318.5q0 111 37 215t102 185t163 130t212 49zM582 891
q-101 0 -175 -69.5t-110 -178.5h453q21 110 -24.5 179t-143.5 69z" />
    <glyph glyph-name="eacute" unicode="&#xe9;" horiz-adv-x="1007" 
d="M530 1126l160 293h258v-8l-323 -285h-95zM598 993q178 0 270.5 -117t59.5 -286l-8 -43h-644q-6 -40 -6 -78q0 -162 82 -249t221 -87q153 0 269 96l47 -47q-74 -99 -175.5 -153t-215.5 -54q-176 0 -295 120.5t-119 318.5q0 111 37 215t102 185t163 130t212 49zM582 891
q-101 0 -175 -69.5t-110 -178.5h453q21 110 -24.5 179t-143.5 69z" />
    <glyph glyph-name="ecircumflex" unicode="&#xea;" horiz-adv-x="1007" 
d="M834 1126l-156 136l-240 -136h-116l329 293h105l174 -293h-96zM598 993q178 0 270.5 -117t59.5 -286l-8 -43h-644q-6 -40 -6 -78q0 -162 82 -249t221 -87q153 0 269 96l47 -47q-74 -99 -175.5 -153t-215.5 -54q-176 0 -295 120.5t-119 318.5q0 111 37 215t102 185
t163 130t212 49zM582 891q-101 0 -175 -69.5t-110 -178.5h453q21 110 -24.5 179t-143.5 69z" />
    <glyph glyph-name="edieresis" unicode="&#xeb;" horiz-adv-x="1007" 
d="M467 1151q-50 0 -81.5 32t-31.5 83q0 60 42 100.5t102 40.5q50 0 81 -31t31 -80q0 -62 -41 -103.5t-102 -41.5zM883 1407q48 0 79 -31t31 -80q0 -62 -41 -103.5t-100 -41.5q-50 0 -81.5 32t-31.5 83q0 60 41.5 100.5t102.5 40.5zM598 993q178 0 270.5 -117t59.5 -286
l-8 -43h-644q-6 -40 -6 -78q0 -162 82 -249t221 -87q153 0 269 96l47 -47q-74 -99 -175.5 -153t-215.5 -54q-176 0 -295 120.5t-119 318.5q0 111 37 215t102 185t163 130t212 49zM582 891q-101 0 -175 -69.5t-110 -178.5h453q21 110 -24.5 179t-143.5 69z" />
    <glyph glyph-name="igrave" unicode="&#xec;" horiz-adv-x="559" 
d="M473 1419l47 -293h-80l-192 285v8h225zM508 979l-197 -786q-19 -87 -9.5 -108.5t58.5 -31.5v-53h-366v53q64 9 84.5 32t42.5 110l135 540q18 72 6 98t-69 35v54l305 57h10z" />
    <glyph glyph-name="iacute" unicode="&#xed;" horiz-adv-x="559" 
d="M424 1126h-94l159 293h259v-8zM508 979l-197 -786q-19 -87 -9.5 -108.5t58.5 -31.5v-53h-366v53q64 9 84.5 32t42.5 110l135 540q18 72 6 98t-69 35v54l305 57h10z" />
    <glyph glyph-name="icircumflex" unicode="&#xee;" horiz-adv-x="559" 
d="M238 1126h-117l330 293h104l174 -293h-96l-156 136zM508 979l-197 -786q-19 -87 -9.5 -108.5t58.5 -31.5v-53h-366v53q64 9 84.5 32t42.5 110l135 540q18 72 6 98t-69 35v54l305 57h10z" />
    <glyph glyph-name="idieresis" unicode="&#xef;" horiz-adv-x="559" 
d="M266 1151q-50 0 -81 32t-31 83q0 60 41.5 100.5t101.5 40.5q50 0 81.5 -31t31.5 -80q0 -62 -41.5 -103.5t-102.5 -41.5zM651 1151q-50 0 -81 32t-31 83q0 60 41 100.5t102 40.5q48 0 79.5 -31t31.5 -80q0 -62 -41.5 -103.5t-100.5 -41.5zM508 979l-197 -786
q-19 -87 -9.5 -108.5t58.5 -31.5v-53h-366v53q64 9 84.5 32t42.5 110l135 540q18 72 6 98t-69 35v54l305 57h10z" />
    <glyph glyph-name="eth" unicode="&#xf0;" horiz-adv-x="1177" 
d="M1092 1417l34 -80l-180 -77q170 -192 170 -469q0 -112 -27 -227t-81 -220.5t-127.5 -188t-174 -131.5t-212.5 -49q-181 0 -295.5 126.5t-114.5 318.5q0 155 66.5 286.5t183.5 209t258 77.5q122 0 210.5 -65.5t129.5 -159.5h12q32 259 -110 442l-326 -141l-35 78l299 131
q-82 79 -205 139l35 62q160 -54 277 -154zM883 547l20 98q-20 98 -91.5 157.5t-170.5 59.5q-109 0 -194.5 -69.5t-129 -177t-43.5 -230.5q0 -138 59.5 -225.5t162.5 -87.5q145 0 244.5 129t142.5 346z" />
    <glyph glyph-name="ntilde" unicode="&#xf1;" horiz-adv-x="1157" 
d="M905 1135q-84 0 -153 63l-27 25q-42 37 -88 37q-83 0 -123 -117h-82q25 124 84 185t137 61q75 0 154 -62l31 -27q39 -34 86 -34q44 0 73.5 28t49.5 88h81q-25 -124 -84.5 -185.5t-138.5 -61.5zM117 182l137 549q19 72 7 100t-71 37v54l306 57h10l-37 -150h12
q135 164 299 164q63 0 117 -27.5t89.5 -78t47 -123t-9.5 -162.5l-106 -426q-18 -71 -8.5 -92.5t59.5 -30.5v-53h-371v53q61 9 86 33.5t45 101.5l109 433q26 108 -15.5 169.5t-117.5 61.5q-148 0 -277 -180l-123 -498q-14 -46 -8.5 -72t18.5 -34.5t43 -14.5v-53h-366v53
q60 8 82.5 30t42.5 99z" />
    <glyph glyph-name="ograve" unicode="&#xf2;" horiz-adv-x="1140" 
d="M743 1419l48 -293h-80l-193 285v8h225zM492 -25q-186 0 -300 114.5t-114 295.5q0 165 74.5 304.5t207 221.5t293.5 82q185 0 299.5 -114t114.5 -295q0 -123 -44 -235t-120 -194.5t-183.5 -131t-227.5 -48.5zM498 86q82 0 152 48.5t114.5 126t69 170.5t24.5 185
q0 126 -55.5 196.5t-155.5 70.5q-84 0 -154.5 -48.5t-114.5 -126.5t-68.5 -170.5t-24.5 -185.5q0 -127 56 -196.5t157 -69.5z" />
    <glyph glyph-name="oacute" unicode="&#xf3;" horiz-adv-x="1140" 
d="M694 1126h-94l160 293h258v-8zM492 -25q-186 0 -300 114.5t-114 295.5q0 165 74.5 304.5t207 221.5t293.5 82q185 0 299.5 -114t114.5 -295q0 -123 -44 -235t-120 -194.5t-183.5 -131t-227.5 -48.5zM498 86q82 0 152 48.5t114.5 126t69 170.5t24.5 185q0 126 -55.5 196.5
t-155.5 70.5q-84 0 -154.5 -48.5t-114.5 -126.5t-68.5 -170.5t-24.5 -185.5q0 -127 56 -196.5t157 -69.5z" />
    <glyph glyph-name="ocircumflex" unicode="&#xf4;" horiz-adv-x="1140" 
d="M508 1126h-117l330 293h104l174 -293h-96l-155 136zM492 -25q-186 0 -300 114.5t-114 295.5q0 165 74.5 304.5t207 221.5t293.5 82q185 0 299.5 -114t114.5 -295q0 -123 -44 -235t-120 -194.5t-183.5 -131t-227.5 -48.5zM498 86q82 0 152 48.5t114.5 126t69 170.5
t24.5 185q0 126 -55.5 196.5t-155.5 70.5q-84 0 -154.5 -48.5t-114.5 -126.5t-68.5 -170.5t-24.5 -185.5q0 -127 56 -196.5t157 -69.5z" />
    <glyph glyph-name="otilde" unicode="&#xf5;" horiz-adv-x="1140" 
d="M866 1135q-84 0 -153 63l-27 25q-42 37 -88 37q-43 0 -72.5 -28.5t-50.5 -88.5h-82q25 124 84 185t137 61q75 0 154 -62l31 -27q39 -34 86 -34q44 0 73.5 28t49.5 88h82q-25 -124 -85 -185.5t-139 -61.5zM492 -25q-186 0 -300 114.5t-114 295.5q0 165 74.5 304.5
t207 221.5t293.5 82q185 0 299.5 -114t114.5 -295q0 -123 -44 -235t-120 -194.5t-183.5 -131t-227.5 -48.5zM498 86q82 0 152 48.5t114.5 126t69 170.5t24.5 185q0 126 -55.5 196.5t-155.5 70.5q-84 0 -154.5 -48.5t-114.5 -126.5t-68.5 -170.5t-24.5 -185.5
q0 -127 56 -196.5t157 -69.5z" />
    <glyph glyph-name="odieresis" unicode="&#xf6;" horiz-adv-x="1140" 
d="M535 1151q-50 0 -81.5 32t-31.5 83q0 60 41.5 100.5t101.5 40.5q50 0 81.5 -31t31.5 -80q0 -62 -41 -103.5t-102 -41.5zM920 1151q-50 0 -81.5 32t-31.5 83q0 60 41 100.5t102 40.5q48 0 79.5 -31t31.5 -80q0 -62 -41 -103.5t-100 -41.5zM492 -25q-186 0 -300 114.5
t-114 295.5q0 165 74.5 304.5t207 221.5t293.5 82q185 0 299.5 -114t114.5 -295q0 -123 -44 -235t-120 -194.5t-183.5 -131t-227.5 -48.5zM498 86q82 0 152 48.5t114.5 126t69 170.5t24.5 185q0 126 -55.5 196.5t-155.5 70.5q-84 0 -154.5 -48.5t-114.5 -126.5t-68.5 -170.5
t-24.5 -185.5q0 -127 56 -196.5t157 -69.5z" />
    <glyph glyph-name="oslash" unicode="&#xf8;" horiz-adv-x="1142" 
d="M1016 1028l63 -59l-104 -113q92 -112 92 -272q0 -123 -44 -235t-119 -194.5t-182.5 -131t-227.5 -48.5q-154 0 -261 80l-110 -118l-62 59l111 119q-92 109 -92 270q0 165 74.5 304.5t207 221.5t293.5 82q148 0 256 -78zM287 352q0 -52 10 -100l512 553q-54 78 -160 78
q-84 0 -154.5 -48.5t-114.5 -126.5t-68.5 -170.5t-24.5 -185.5zM860 616q0 56 -12 103l-512 -553q53 -80 162 -80q83 0 153.5 48.5t115 126t69 170.5t24.5 185z" />
    <glyph glyph-name="ugrave" unicode="&#xf9;" horiz-adv-x="1120" 
d="M733 1419l47 -293h-80l-192 285v8h225zM360 -25q-81 0 -142.5 47.5t-86 131t1.5 198.5l94 377q20 66 8.5 96t-69.5 39v54l303 57h10l-160 -643q-24 -101 7.5 -158t109.5 -57q134 0 269 194l104 416q20 66 7.5 97t-71.5 40v54l308 57h10l-189 -752q-20 -73 -12.5 -94.5
t60.5 -28.5v-53l-287 -57h-12l36 149h-12q-121 -164 -287 -164z" />
    <glyph glyph-name="uacute" unicode="&#xfa;" horiz-adv-x="1120" 
d="M684 1126h-94l160 293h258v-8zM360 -25q-81 0 -142.5 47.5t-86 131t1.5 198.5l94 377q20 66 8.5 96t-69.5 39v54l303 57h10l-160 -643q-24 -101 7.5 -158t109.5 -57q134 0 269 194l104 416q20 66 7.5 97t-71.5 40v54l308 57h10l-189 -752q-20 -73 -12.5 -94.5t60.5 -28.5
v-53l-287 -57h-12l36 149h-12q-121 -164 -287 -164z" />
    <glyph glyph-name="ucircumflex" unicode="&#xfb;" horiz-adv-x="1120" 
d="M498 1126h-117l330 293h104l174 -293h-96l-156 136zM360 -25q-81 0 -142.5 47.5t-86 131t1.5 198.5l94 377q20 66 8.5 96t-69.5 39v54l303 57h10l-160 -643q-24 -101 7.5 -158t109.5 -57q134 0 269 194l104 416q20 66 7.5 97t-71.5 40v54l308 57h10l-189 -752
q-20 -73 -12.5 -94.5t60.5 -28.5v-53l-287 -57h-12l36 149h-12q-121 -164 -287 -164z" />
    <glyph glyph-name="udieresis" unicode="&#xfc;" horiz-adv-x="1120" 
d="M526 1151q-50 0 -81 32t-31 83q0 60 41.5 100.5t101.5 40.5q50 0 81.5 -31t31.5 -80q0 -62 -41.5 -103.5t-102.5 -41.5zM911 1151q-50 0 -81 32t-31 83q0 60 41 100.5t102 40.5q48 0 79.5 -31t31.5 -80q0 -62 -41.5 -103.5t-100.5 -41.5zM360 -25q-81 0 -142.5 47.5
t-86 131t1.5 198.5l94 377q20 66 8.5 96t-69.5 39v54l303 57h10l-160 -643q-24 -101 7.5 -158t109.5 -57q134 0 269 194l104 416q20 66 7.5 97t-71.5 40v54l308 57h10l-189 -752q-20 -73 -12.5 -94.5t60.5 -28.5v-53l-287 -57h-12l36 149h-12q-121 -164 -287 -164z" />
    <glyph glyph-name="yacute" unicode="&#xfd;" horiz-adv-x="1030" 
d="M971 1419v-8l-324 -285h-94l160 293h258zM823 915v54h307v-54q-68 -21 -103.5 -51.5t-76.5 -97.5l-544 -909q-102 -168 -188 -231.5t-193 -63.5q-79 0 -142 37v168q69 -29 154 -29q91 0 165.5 43t141.5 158l37 61l-137 743q-10 66 -38.5 93t-96.5 38v52l282 57l4 -20
l37 -220l84 -491h14l308 518q28 45 36 71.5t-3.5 44.5t-47.5 29z" />
    <glyph glyph-name="thorn" unicode="&#xfe;" horiz-adv-x="1150" 
d="M10 -213l357 1432q19 70 7.5 97.5t-69.5 37.5v53l305 57h11l-160 -635h14q125 164 295 164q138 0 234 -107.5t96 -289.5q0 -113 -42 -224.5t-114.5 -199.5t-179 -142.5t-225.5 -54.5q-154 0 -254 97h-13l-71 -285q-21 -88 -11.5 -111t66.5 -32v-54h-375v54q45 5 65 15.5
t34.5 38t29.5 89.5zM518 76q113 0 204 75t138 188t47 234q0 129 -54.5 203t-150.5 74q-147 0 -284 -193l-74 -290q-33 -136 17.5 -213.5t156.5 -77.5z" />
    <glyph glyph-name="ydieresis" unicode="&#xff;" horiz-adv-x="1030" 
d="M489 1151q-50 0 -81 32t-31 83q0 60 41.5 100.5t101.5 40.5q50 0 81.5 -31t31.5 -80q0 -62 -41.5 -103.5t-102.5 -41.5zM874 1151q-50 0 -81 32t-31 83q0 60 41 100.5t102 40.5q48 0 79.5 -31t31.5 -80q0 -62 -41.5 -103.5t-100.5 -41.5zM823 915v54h307v-54
q-68 -21 -103.5 -51.5t-76.5 -97.5l-544 -909q-102 -168 -188 -231.5t-193 -63.5q-79 0 -142 37v168q69 -29 154 -29q91 0 165.5 43t141.5 158l37 61l-137 743q-10 66 -38.5 93t-96.5 38v52l282 57l4 -20l37 -220l84 -491h14l308 518q28 45 36 71.5t-3.5 44.5t-47.5 29z" />
    <glyph glyph-name="Amacron" unicode="&#x100;" horiz-adv-x="1402" 
d="M688 1614v102h608v-102h-608zM987 1423l184 -1165q16 -94 37 -134.5t76 -70.5v-53h-469v53q75 20 111 46t43.5 62.5t-0.5 88.5l-31 196h-555l-121 -190q-30 -49 -43 -76.5t-14.5 -54t17 -42.5t59.5 -30v-53h-385v53q83 28 133 73.5t108 137.5l731 1159h119zM821 1141
l-370 -586h471l-88 586h-13z" />
    <glyph glyph-name="amacron" unicode="&#x101;" horiz-adv-x="1155" 
d="M424 1194h606v102h-606v-102zM395 -25q-141 0 -231 111t-90 287q0 114 42 225.5t113.5 199t176.5 141.5t223 54q84 0 156.5 -31.5t119.5 -89.5h13l120 97h62l-187 -750q-19 -70 -10.5 -91.5t60.5 -27.5v-53l-287 -57h-12l36 149h-12q-120 -164 -293 -164zM461 119
q48 0 92 17.5t80.5 49.5t61 60t50.5 65l74 301q31 122 -17.5 201.5t-156.5 79.5q-110 0 -199 -73t-135.5 -184.5t-46.5 -234.5q0 -131 52.5 -206.5t144.5 -75.5z" />
    <glyph glyph-name="Abreve" unicode="&#x102;" horiz-adv-x="1402" 
d="M967 1540q-111 0 -167.5 81t-33.5 212h84q-14 -71 22.5 -114.5t108.5 -43.5q76 0 128.5 42.5t80.5 115.5h84q-28 -135 -109.5 -214t-197.5 -79zM987 1423l184 -1165q16 -94 37 -134.5t76 -70.5v-53h-469v53q75 20 111 46t43.5 62.5t-0.5 88.5l-31 196h-555l-121 -190
q-30 -49 -43 -76.5t-14.5 -54t17 -42.5t59.5 -30v-53h-385v53q83 28 133 73.5t108 137.5l731 1159h119zM821 1141l-370 -586h471l-88 586h-13z" />
    <glyph glyph-name="abreve" unicode="&#x103;" horiz-adv-x="1155" 
d="M705 1126q-111 0 -167.5 81t-33.5 212h84q-14 -71 22.5 -115t108.5 -44q76 0 128.5 43t80.5 116h84q-28 -136 -109.5 -214.5t-197.5 -78.5zM395 -25q-141 0 -231 111t-90 287q0 114 42 225.5t113.5 199t176.5 141.5t223 54q84 0 156.5 -31.5t119.5 -89.5h13l120 97h62
l-187 -750q-19 -70 -10.5 -91.5t60.5 -27.5v-53l-287 -57h-12l36 149h-12q-120 -164 -293 -164zM461 119q48 0 92 17.5t80.5 49.5t61 60t50.5 65l74 301q31 122 -17.5 201.5t-156.5 79.5q-110 0 -199 -73t-135.5 -184.5t-46.5 -234.5q0 -131 52.5 -206.5t144.5 -75.5z" />
    <glyph glyph-name="Aogonek" unicode="&#x104;" horiz-adv-x="1402" 
d="M987 1423l184 -1165q16 -94 37 -134.5t76 -70.5v-53h-82q-137 -55 -198.5 -108t-61.5 -115q0 -44 27 -71.5t73 -27.5q58 0 105 35l33 -43q-74 -86 -183 -86q-78 0 -127 47.5t-49 122.5q0 158 244 246h-250v53q75 20 111 46t43.5 62.5t-0.5 88.5l-31 196h-555l-121 -190
q-30 -49 -43 -76.5t-14.5 -54t17 -42.5t59.5 -30v-53h-385v53q83 28 133 73.5t108 137.5l731 1159h119zM821 1141l-370 -586h471l-88 586h-13z" />
    <glyph glyph-name="aogonek" unicode="&#x105;" horiz-adv-x="1155" 
d="M1100 969l-187 -750q-19 -70 -10.5 -91.5t60.5 -27.5v-53l-193 -39l21 -8q-137 -55 -199 -108t-62 -115q0 -44 27.5 -71.5t73.5 -27.5q57 0 104 35l33 -43q-74 -86 -182 -86q-78 0 -127 47.5t-49 122.5q0 85 69.5 148t188.5 102l32 135h-12q-120 -164 -293 -164
q-141 0 -231 111t-90 287q0 114 42 225.5t113.5 199t176.5 141.5t223 54q84 0 156.5 -31.5t119.5 -89.5h13l120 97h62zM745 311l74 301q31 122 -17.5 201.5t-156.5 79.5q-110 0 -199 -73t-135.5 -184.5t-46.5 -234.5q0 -131 52.5 -206.5t144.5 -75.5q48 0 92 17.5t80.5 49.5
t61 60t50.5 65z" />
    <glyph glyph-name="Cacute" unicode="&#x106;" horiz-adv-x="1394" 
d="M987 1540h-92l158 293h258v-6zM776 -25q-126 0 -239 45t-199 125.5t-137 203.5t-51 269q0 161 61 311t167 265t261.5 184.5t333.5 69.5q244 0 424 -109v-303h-58q-41 142 -138.5 220.5t-231.5 78.5q-166 0 -302.5 -97t-211 -251.5t-74.5 -327.5q0 -243 133.5 -379.5
t341.5 -136.5q230 0 418 170l51 -49q-119 -151 -253.5 -220t-295.5 -69z" />
    <glyph glyph-name="cacute" unicode="&#x107;" horiz-adv-x="968" 
d="M649 1126h-94l160 293h258v-8zM489 -25q-179 0 -293 125.5t-114 317.5q0 112 41 216t112.5 183.5t178.5 127.5t231 48q146 0 273 -65v-219h-56q-24 88 -82 134t-137 46q-155 0 -263 -126.5t-108 -301.5q0 -156 77.5 -242t213.5 -86q151 0 271 96l45 -47
q-74 -101 -176.5 -154t-213.5 -53z" />
    <glyph glyph-name="Ccircumflex" unicode="&#x108;" horiz-adv-x="1394" 
d="M797 1540h-117l330 293h104l174 -293h-96l-156 137zM776 -25q-126 0 -239 45t-199 125.5t-137 203.5t-51 269q0 161 61 311t167 265t261.5 184.5t333.5 69.5q244 0 424 -109v-303h-58q-41 142 -138.5 220.5t-231.5 78.5q-166 0 -302.5 -97t-211 -251.5t-74.5 -327.5
q0 -243 133.5 -379.5t341.5 -136.5q230 0 418 170l51 -49q-119 -151 -253.5 -220t-295.5 -69z" />
    <glyph glyph-name="ccircumflex" unicode="&#x109;" horiz-adv-x="968" 
d="M463 1126h-117l330 293h104l174 -293h-96l-156 136zM489 -25q-179 0 -293 125.5t-114 317.5q0 112 41 216t112.5 183.5t178.5 127.5t231 48q146 0 273 -65v-219h-56q-24 88 -82 134t-137 46q-155 0 -263 -126.5t-108 -301.5q0 -156 77.5 -242t213.5 -86q151 0 271 96
l45 -47q-74 -101 -176.5 -154t-213.5 -53z" />
    <glyph glyph-name="Cdotaccent" unicode="&#x10a;" horiz-adv-x="1394" 
d="M1012 1561q-51 0 -84 33t-33 85q0 63 42.5 105.5t104.5 42.5q51 0 84 -32.5t33 -84.5q0 -64 -42.5 -106.5t-104.5 -42.5zM776 -25q-126 0 -239 45t-199 125.5t-137 203.5t-51 269q0 161 61 311t167 265t261.5 184.5t333.5 69.5q244 0 424 -109v-303h-58
q-41 142 -138.5 220.5t-231.5 78.5q-166 0 -302.5 -97t-211 -251.5t-74.5 -327.5q0 -243 133.5 -379.5t341.5 -136.5q230 0 418 170l51 -49q-119 -151 -253.5 -220t-295.5 -69z" />
    <glyph glyph-name="cdotaccent" unicode="&#x10b;" horiz-adv-x="968" 
d="M690 1149q-52 0 -85.5 33.5t-33.5 85.5q0 62 44 104.5t106 42.5q51 0 84 -32.5t33 -84.5q0 -64 -43 -106.5t-105 -42.5zM489 -25q-179 0 -293 125.5t-114 317.5q0 112 41 216t112.5 183.5t178.5 127.5t231 48q146 0 273 -65v-219h-56q-24 88 -82 134t-137 46
q-155 0 -263 -126.5t-108 -301.5q0 -156 77.5 -242t213.5 -86q151 0 271 96l45 -47q-74 -101 -176.5 -154t-213.5 -53z" />
    <glyph glyph-name="Ccaron" unicode="&#x10c;" horiz-adv-x="1394" 
d="M1257 1827h117l-330 -291h-104l-174 291h98l156 -135zM776 -25q-126 0 -239 45t-199 125.5t-137 203.5t-51 269q0 161 61 311t167 265t261.5 184.5t333.5 69.5q244 0 424 -109v-303h-58q-41 142 -138.5 220.5t-231.5 78.5q-166 0 -302.5 -97t-211 -251.5t-74.5 -327.5
q0 -243 133.5 -379.5t341.5 -136.5q230 0 418 170l51 -49q-119 -151 -253.5 -220t-295.5 -69z" />
    <glyph glyph-name="ccaron" unicode="&#x10d;" horiz-adv-x="968" 
d="M926 1413h116l-329 -293h-105l-174 293h98l154 -135zM489 -25q-179 0 -293 125.5t-114 317.5q0 112 41 216t112.5 183.5t178.5 127.5t231 48q146 0 273 -65v-219h-56q-24 88 -82 134t-137 46q-155 0 -263 -126.5t-108 -301.5q0 -156 77.5 -242t213.5 -86q151 0 271 96
l45 -47q-74 -101 -176.5 -154t-213.5 -53z" />
    <glyph glyph-name="Dcaron" unicode="&#x10e;" horiz-adv-x="1566" 
d="M1229 1827h117l-330 -291h-105l-174 291h99l155 -135zM186 270l224 889q28 109 13.5 154t-83.5 57v53h518q298 0 487 -167.5t189 -432.5q0 -180 -68.5 -333t-189.5 -260.5t-293.5 -168.5t-374.5 -61h-614v53q96 23 130 62.5t62 154.5zM655 1315l-303 -1206h203
q175 0 318 56.5t236.5 156t144.5 234.5t51 292q0 224 -128.5 345.5t-349.5 121.5h-172z" />
    <glyph glyph-name="dcaron" unicode="&#x10f;" horiz-adv-x="1163" 
d="M1425 1475q43 0 73 -31t30 -74q0 -24 -10.5 -50t-20.5 -41t-33 -46l-135 -172h-88l166 203q-40 2 -66 29.5t-26 68.5q0 46 30.5 79.5t79.5 33.5zM1225 1464h10l-315 -1259q-16 -58 -7 -78.5t60 -26.5v-53l-287 -57h-12l37 149h-13q-123 -164 -297 -164q-139 0 -233 111
t-94 283q0 116 42 228.5t114.5 200t179 141.5t225.5 54q154 0 254 -100h12l84 338q16 65 1.5 89.5t-68.5 33.5v53zM756 311l71 293q34 137 -17 213t-157 76q-107 0 -197 -69.5t-141 -183t-51 -241.5q0 -130 54.5 -205t152.5 -75q148 0 285 192z" />
    <glyph glyph-name="Dcroat" unicode="&#x110;" horiz-adv-x="1576" 
d="M350 1423h518q196 0 350.5 -75.5t241 -212.5t86.5 -312q0 -240 -117.5 -427.5t-328.5 -291.5t-479 -104h-617v53q97 23 132 63t63 154l104 416h-184v102h211l92 371q28 109 12.5 154t-84.5 57v53zM365 109h200q175 0 318 56.5t236.5 156t144.5 234.5t51 292
q0 224 -128 345.5t-349 121.5h-172l-131 -527h268v-102h-295z" />
    <glyph glyph-name="dcroat" unicode="&#x111;" horiz-adv-x="1163" 
d="M1309 1102h-164l-225 -897q-16 -58 -7 -78.5t60 -26.5v-53l-287 -57h-12l37 149h-13q-123 -164 -297 -164q-139 0 -233 111t-94 283q0 116 42 228.5t114.5 200t179 141.5t225.5 54q154 0 254 -100h12l51 209h-264v94h289l8 35q16 65 1.5 89.5t-68.5 33.5v53l307 57h10
l-68 -268h142v-94zM756 311l71 293q34 137 -17 213t-157 76q-107 0 -197 -69.5t-141 -183t-51 -241.5q0 -130 54.5 -205t152.5 -75q148 0 285 192z" />
    <glyph glyph-name="Emacron" unicode="&#x112;" horiz-adv-x="1314" 
d="M666 1614h608v102h-608v-102zM1087 358h58v-358h-1153v53q99 22 133 63.5t63 157.5l222 885q29 113 13.5 156.5t-83.5 54.5v53h1036v-307h-57q-11 108 -78.5 153.5t-220.5 45.5h-365l-135 -541h189q120 0 173.5 35t59.5 115h55v-408h-55q-6 80 -58 115t-173 35h-219
l-140 -557h441q138 0 209.5 56t84.5 193z" />
    <glyph glyph-name="emacron" unicode="&#x113;" horiz-adv-x="1007" 
d="M369 1194v102h606v-102h-606zM598 993q178 0 270.5 -117t59.5 -286l-8 -43h-644q-6 -40 -6 -78q0 -162 82 -249t221 -87q153 0 269 96l47 -47q-74 -99 -175.5 -153t-215.5 -54q-176 0 -295 120.5t-119 318.5q0 111 37 215t102 185t163 130t212 49zM582 891
q-101 0 -175 -69.5t-110 -178.5h453q21 110 -24.5 179t-143.5 69z" />
    <glyph glyph-name="Ebreve" unicode="&#x114;" horiz-adv-x="1314" 
d="M944 1540q-111 0 -167.5 81t-33.5 212h84q-14 -71 22.5 -114.5t108.5 -43.5q76 0 128.5 42.5t80.5 115.5h84q-28 -135 -109.5 -214t-197.5 -79zM1087 358h58v-358h-1153v53q99 22 133 63.5t63 157.5l222 885q29 113 13.5 156.5t-83.5 54.5v53h1036v-307h-57
q-11 108 -78.5 153.5t-220.5 45.5h-365l-135 -541h189q120 0 173.5 35t59.5 115h55v-408h-55q-6 80 -58 115t-173 35h-219l-140 -557h441q138 0 209.5 56t84.5 193z" />
    <glyph glyph-name="ebreve" unicode="&#x115;" horiz-adv-x="1007" 
d="M649 1126q-111 0 -167 81t-33 212h83q-13 -70 23.5 -114.5t108.5 -44.5q76 0 128 43t80 116h84q-28 -136 -109.5 -214.5t-197.5 -78.5zM598 993q178 0 270.5 -117t59.5 -286l-8 -43h-644q-6 -40 -6 -78q0 -162 82 -249t221 -87q153 0 269 96l47 -47q-74 -99 -175.5 -153
t-215.5 -54q-176 0 -295 120.5t-119 318.5q0 111 37 215t102 185t163 130t212 49zM582 891q-101 0 -175 -69.5t-110 -178.5h453q21 110 -24.5 179t-143.5 69z" />
    <glyph glyph-name="Edotaccent" unicode="&#x116;" horiz-adv-x="1314" 
d="M946 1561q-51 0 -84 33t-33 85q0 63 43 105.5t105 42.5q51 0 84 -32.5t33 -84.5q0 -64 -43 -106.5t-105 -42.5zM1087 358h58v-358h-1153v53q99 22 133 63.5t63 157.5l222 885q29 113 13.5 156.5t-83.5 54.5v53h1036v-307h-57q-11 108 -78.5 153.5t-220.5 45.5h-365
l-135 -541h189q120 0 173.5 35t59.5 115h55v-408h-55q-6 80 -58 115t-173 35h-219l-140 -557h441q138 0 209.5 56t84.5 193z" />
    <glyph glyph-name="edotaccent" unicode="&#x117;" horiz-adv-x="1007" 
d="M664 1149q-52 0 -85.5 33.5t-33.5 85.5q0 62 43.5 104.5t105.5 42.5q51 0 84 -32.5t33 -84.5q0 -64 -42.5 -106.5t-104.5 -42.5zM598 993q178 0 270.5 -117t59.5 -286l-8 -43h-644q-6 -40 -6 -78q0 -162 82 -249t221 -87q153 0 269 96l47 -47q-74 -99 -175.5 -153
t-215.5 -54q-176 0 -295 120.5t-119 318.5q0 111 37 215t102 185t163 130t212 49zM582 891q-101 0 -175 -69.5t-110 -178.5h453q21 110 -24.5 179t-143.5 69z" />
    <glyph glyph-name="Eogonek" unicode="&#x118;" horiz-adv-x="1314" 
d="M340 1370v53h1036v-307h-57q-11 108 -78.5 153.5t-220.5 45.5h-365l-135 -541h189q120 0 173.5 35t59.5 115h55v-408h-55q-6 80 -58 115t-173 35h-219l-140 -557h441q138 0 209.5 56t84.5 193h58v-358q-137 -55 -198.5 -108t-61.5 -115q0 -44 27 -71.5t73 -27.5
q58 0 105 35l32 -43q-74 -86 -182 -86q-78 0 -127 47.5t-49 122.5q0 158 244 246h-1016v53q99 22 133 63.5t63 157.5l222 885q29 113 13.5 156.5t-83.5 54.5z" />
    <glyph glyph-name="eogonek" unicode="&#x119;" horiz-adv-x="1007" 
d="M600 993q177 0 269 -117t59 -286l-8 -43h-644q-6 -40 -6 -78q0 -161 82 -248.5t217 -87.5q156 0 273 96l47 -47q-68 -86 -131.5 -126t-161.5 -72q-119 -38 -180.5 -91t-61.5 -114q0 -44 26.5 -72.5t74.5 -28.5q53 0 102 35l35 -43q-75 -86 -184 -86q-78 0 -127.5 48.5
t-49.5 119.5q0 72 51.5 129.5t135.5 95.5v7q-146 24 -240 140.5t-94 289.5q0 111 37 215t103 185t164 130t212 49zM297 643h453q23 110 -24 179t-144 69q-101 0 -175 -69.5t-110 -178.5z" />
    <glyph glyph-name="Ecaron" unicode="&#x11a;" horiz-adv-x="1314" 
d="M1192 1827h117l-330 -291h-105l-174 291h99l155 -135zM1087 358h58v-358h-1153v53q99 22 133 63.5t63 157.5l222 885q29 113 13.5 156.5t-83.5 54.5v53h1036v-307h-57q-11 108 -78.5 153.5t-220.5 45.5h-365l-135 -541h189q120 0 173.5 35t59.5 115h55v-408h-55
q-6 80 -58 115t-173 35h-219l-140 -557h441q138 0 209.5 56t84.5 193z" />
    <glyph glyph-name="ecaron" unicode="&#x11b;" horiz-adv-x="1007" 
d="M1018 1413l-330 -293h-104l-174 293h98l154 -135l239 135h117zM598 993q178 0 270.5 -117t59.5 -286l-8 -43h-644q-6 -40 -6 -78q0 -162 82 -249t221 -87q153 0 269 96l47 -47q-74 -99 -175.5 -153t-215.5 -54q-176 0 -295 120.5t-119 318.5q0 111 37 215t102 185
t163 130t212 49zM582 891q-101 0 -175 -69.5t-110 -178.5h453q21 110 -24.5 179t-143.5 69z" />
    <glyph glyph-name="Gcircumflex" unicode="&#x11c;" horiz-adv-x="1523" 
d="M1221 1540l-156 137l-240 -137h-116l329 293h105l174 -293h-96zM1053 1335q-127 0 -236.5 -39.5t-188.5 -108t-136 -159.5t-85 -195.5t-28 -214.5q0 -245 121.5 -388.5t341.5 -143.5q90 0 192 29l92 377q22 91 -2.5 132t-109.5 50v53h497v-53q-81 -15 -119.5 -56.5
t-60.5 -130.5l-98 -393q-107 -60 -208 -89.5t-220 -29.5q-136 0 -256 47t-208.5 131t-139.5 207t-51 267q0 163 66 312.5t182.5 262t287.5 179.5t369 67q275 0 471 -109v-295h-56q-50 138 -161.5 214.5t-255.5 76.5z" />
    <glyph glyph-name="gcircumflex" unicode="&#x11d;" horiz-adv-x="1048" 
d="M825 1126l-155 136l-240 -136h-117l332 293h103l176 -293h-99zM1104 1047v-179h-254v-10q31 -23 51.5 -65t20.5 -95q0 -156 -123.5 -256t-304.5 -100q-75 0 -146 23q-62 -19 -99.5 -50.5t-37.5 -68.5q0 -66 108 -78l275 -31q307 -33 307 -231q0 -105 -77.5 -184.5
t-199 -119.5t-264.5 -40q-194 0 -314 69.5t-120 184.5q0 69 52 127t149 98v6q-78 51 -78 137q0 69 54 129.5t149 98.5v6q-98 79 -98 211q0 161 124.5 262.5t305.5 101.5q60 0 137 -22l373 76h10zM500 434q102 0 169.5 88t67.5 205q0 80 -41 128t-114 48q-104 0 -173 -87.5
t-69 -203.5q0 -83 42.5 -130.5t117.5 -47.5zM551 -27l-305 35q-73 -28 -114.5 -74.5t-41.5 -101.5q0 -83 76 -127.5t201 -44.5q146 0 248 50t102 140q0 57 -40.5 85.5t-125.5 37.5z" />
    <glyph glyph-name="Gbreve" unicode="&#x11e;" horiz-adv-x="1523" 
d="M1038 1540q-111 0 -167 81t-33 212h84q-14 -71 22.5 -114.5t108.5 -43.5q76 0 128.5 42.5t80.5 115.5h84q-28 -135 -110 -214t-198 -79zM1053 1335q-127 0 -236.5 -39.5t-188.5 -108t-136 -159.5t-85 -195.5t-28 -214.5q0 -245 121.5 -388.5t341.5 -143.5q90 0 192 29
l92 377q22 91 -2.5 132t-109.5 50v53h497v-53q-81 -15 -119.5 -56.5t-60.5 -130.5l-98 -393q-107 -60 -208 -89.5t-220 -29.5q-136 0 -256 47t-208.5 131t-139.5 207t-51 267q0 163 66 312.5t182.5 262t287.5 179.5t369 67q275 0 471 -109v-295h-56q-50 138 -161.5 214.5
t-255.5 76.5z" />
    <glyph glyph-name="gbreve" unicode="&#x11f;" horiz-adv-x="1048" 
d="M645 1126q-111 0 -167.5 81t-33.5 212h84q-14 -71 22.5 -115t108.5 -44q76 0 128.5 43t80.5 116h84q-28 -136 -109.5 -214.5t-197.5 -78.5zM1104 1047v-179h-254v-10q31 -23 51.5 -65t20.5 -95q0 -156 -123.5 -256t-304.5 -100q-75 0 -146 23q-62 -19 -99.5 -50.5
t-37.5 -68.5q0 -66 108 -78l275 -31q307 -33 307 -231q0 -105 -77.5 -184.5t-199 -119.5t-264.5 -40q-194 0 -314 69.5t-120 184.5q0 69 52 127t149 98v6q-78 51 -78 137q0 69 54 129.5t149 98.5v6q-98 79 -98 211q0 161 124.5 262.5t305.5 101.5q60 0 137 -22l373 76h10z
M500 434q102 0 169.5 88t67.5 205q0 80 -41 128t-114 48q-104 0 -173 -87.5t-69 -203.5q0 -83 42.5 -130.5t117.5 -47.5zM551 -27l-305 35q-73 -28 -114.5 -74.5t-41.5 -101.5q0 -83 76 -127.5t201 -44.5q146 0 248 50t102 140q0 57 -40.5 85.5t-125.5 37.5z" />
    <glyph glyph-name="Gdotaccent" unicode="&#x120;" horiz-adv-x="1523" 
d="M1040 1561q-51 0 -83.5 33t-32.5 85q0 63 42.5 105.5t104.5 42.5q51 0 84 -32.5t33 -84.5q0 -64 -43 -106.5t-105 -42.5zM1053 1335q-127 0 -236.5 -39.5t-188.5 -108t-136 -159.5t-85 -195.5t-28 -214.5q0 -245 121.5 -388.5t341.5 -143.5q90 0 192 29l92 377
q22 91 -2.5 132t-109.5 50v53h497v-53q-81 -15 -119.5 -56.5t-60.5 -130.5l-98 -393q-107 -60 -208 -89.5t-220 -29.5q-136 0 -256 47t-208.5 131t-139.5 207t-51 267q0 163 66 312.5t182.5 262t287.5 179.5t369 67q275 0 471 -109v-295h-56q-50 138 -161.5 214.5
t-255.5 76.5z" />
    <glyph glyph-name="gdotaccent" unicode="&#x121;" horiz-adv-x="1048" 
d="M659 1149q-52 0 -85 33t-33 86q0 62 43.5 104.5t105.5 42.5q51 0 84 -32.5t33 -84.5q0 -64 -43 -106.5t-105 -42.5zM1104 1047v-179h-254v-10q31 -23 51.5 -65t20.5 -95q0 -156 -123.5 -256t-304.5 -100q-75 0 -146 23q-62 -19 -99.5 -50.5t-37.5 -68.5q0 -66 108 -78
l275 -31q307 -33 307 -231q0 -105 -77.5 -184.5t-199 -119.5t-264.5 -40q-194 0 -314 69.5t-120 184.5q0 69 52 127t149 98v6q-78 51 -78 137q0 69 54 129.5t149 98.5v6q-98 79 -98 211q0 161 124.5 262.5t305.5 101.5q60 0 137 -22l373 76h10zM500 434q102 0 169.5 88
t67.5 205q0 80 -41 128t-114 48q-104 0 -173 -87.5t-69 -203.5q0 -83 42.5 -130.5t117.5 -47.5zM551 -27l-305 35q-73 -28 -114.5 -74.5t-41.5 -101.5q0 -83 76 -127.5t201 -44.5q146 0 248 50t102 140q0 57 -40.5 85.5t-125.5 37.5z" />
    <glyph glyph-name="uni0122" unicode="&#x122;" horiz-adv-x="1523" 
d="M1053 1335q-127 0 -236.5 -39.5t-188.5 -108t-136 -159.5t-85 -195.5t-28 -214.5q0 -245 121.5 -388.5t341.5 -143.5q90 0 192 29l92 377q22 91 -2.5 132t-109.5 50v53h497v-53q-81 -15 -119.5 -56.5t-60.5 -130.5l-98 -393q-107 -60 -208 -89.5t-220 -29.5
q-136 0 -256 47t-208.5 131t-139.5 207t-51 267q0 163 66 312.5t182.5 262t287.5 179.5t369 67q275 0 471 -109v-295h-56q-50 138 -161.5 214.5t-255.5 76.5zM768 -90q45 0 75.5 -32.5t30.5 -78.5q0 -36 -16 -67.5t-49 -75.5l-143 -182h-91l177 215q-43 2 -72 30t-29 72
q0 49 33 84t84 35z" />
    <glyph glyph-name="uni0123" unicode="&#x123;" horiz-adv-x="1048" 
d="M631 1079q-46 0 -77.5 32.5t-31.5 78.5q0 36 17 68t51 75l141 180h92l-174 -213q41 -2 68.5 -30.5t27.5 -71.5q0 -49 -31.5 -84t-82.5 -35zM1104 1047v-179h-254v-10q31 -23 51.5 -65t20.5 -95q0 -156 -123.5 -256t-304.5 -100q-75 0 -146 23q-62 -19 -99.5 -50.5
t-37.5 -68.5q0 -66 108 -78l275 -31q307 -33 307 -231q0 -105 -77.5 -184.5t-199 -119.5t-264.5 -40q-194 0 -314 69.5t-120 184.5q0 69 52 127t149 98v6q-78 51 -78 137q0 69 54 129.5t149 98.5v6q-98 79 -98 211q0 161 124.5 262.5t305.5 101.5q60 0 137 -22l373 76h10z
M500 434q102 0 169.5 88t67.5 205q0 80 -41 128t-114 48q-104 0 -173 -87.5t-69 -203.5q0 -83 42.5 -130.5t117.5 -47.5zM551 -27l-305 35q-73 -28 -114.5 -74.5t-41.5 -101.5q0 -83 76 -127.5t201 -44.5q146 0 248 50t102 140q0 57 -40.5 85.5t-125.5 37.5z" />
    <glyph glyph-name="Hcircumflex" unicode="&#x124;" horiz-adv-x="1656" 
d="M1288 1540l-155 137l-240 -137h-117l330 293h104l174 -293h-96zM1309 1370v53h460v-53q-82 -14 -117.5 -52t-60.5 -140l-231 -930q-25 -98 -9.5 -138t87.5 -57v-53h-463v53q81 13 116 52.5t62 142.5l104 420h-763l-105 -420q-25 -98 -9.5 -138t87.5 -57v-53h-463v53
q81 13 117 53t61 142l232 928q26 96 11 137.5t-87 56.5v53h461v-53q-81 -14 -117.5 -52.5t-60.5 -139.5l-99 -396h764l98 394q25 96 10 137.5t-85 56.5z" />
    <glyph glyph-name="hcircumflex" unicode="&#x125;" horiz-adv-x="1144" 
d="M670 1540h-117l330 293h104l174 -293h-96l-156 137zM104 182l258 1035q19 72 7 100t-70 37v53l305 57h12l-159 -635h12q135 164 299 164q134 0 210 -109t34 -282l-105 -422q-19 -72 -10 -95t59 -32v-53h-370v53q62 10 87 33.5t44 101.5l108 433q26 108 -15 169.5
t-120 61.5q-78 0 -148 -51t-124 -129l-125 -498q-14 -46 -8.5 -72t18.5 -34.5t43 -14.5v-53h-366v53q60 8 82 29.5t42 99.5z" />
    <glyph glyph-name="Hbar" unicode="&#x126;" horiz-adv-x="1687" 
d="M1786 1423v-53q-82 -14 -118 -52t-62 -140l-9 -37h172v-103h-198l-195 -790q-25 -98 -9.5 -138t85.5 -57v-53h-463v53q82 13 117.5 52.5t62.5 142.5l105 420h-764l-104 -420q-25 -98 -10 -138t85 -57v-53h-463v53q82 13 118 52.5t63 142.5l194 790h-174v103h201l8 35
q26 96 11.5 137.5t-85.5 56.5v53h461v-53q-82 -14 -118 -52t-62 -140l-8 -37h764l8 35q26 96 11.5 137.5t-85.5 56.5v53h461zM537 782h766l61 256h-764z" />
    <glyph glyph-name="hbar" unicode="&#x127;" horiz-adv-x="1144" 
d="M1012 602l-105 -422q-19 -72 -10 -95t59 -32v-53h-370v53q62 10 87 33.5t44 101.5l108 433q26 108 -15 169.5t-120 61.5q-78 0 -148 -51t-124 -129l-125 -498q-14 -46 -8.5 -72t18.5 -34.5t43 -14.5v-53h-366v53q60 8 82 29.5t42 99.5l230 920h-144v94h168l4 21
q19 72 7 100t-70 37v53l305 57h12l-67 -268h262v-94h-287l-67 -273h12q135 164 299 164q134 0 210 -109t34 -282z" />
    <glyph glyph-name="Itilde" unicode="&#x128;" horiz-adv-x="686" 
d="M764 1550q-83 0 -154 64l-26 24q-42 37 -88 37q-86 0 -123 -116h-82q25 123 84 184t137 61q77 0 154 -61l30 -27q40 -35 86 -35q44 0 73 28.5t48 88.5h84q-25 -124 -84.5 -186t-138.5 -62zM4 0v53q82 14 117.5 52.5t62.5 150.5l226 907q28 110 14 150t-86 57v53h461v-53
q-84 -14 -119.5 -53.5t-63.5 -151.5l-225 -909q-25 -113 -9 -150t85 -53v-53h-463z" />
    <glyph glyph-name="itilde" unicode="&#x129;" horiz-adv-x="559" 
d="M598 1135q-85 0 -154 63l-26 25q-42 37 -88 37q-44 0 -73 -28.5t-50 -88.5h-82q25 124 84 185t137 61q75 0 154 -62l30 -27q39 -34 86 -34q44 0 73.5 28t49.5 88h82q-25 -124 -84.5 -185.5t-138.5 -61.5zM508 979l-197 -786q-19 -87 -9.5 -108.5t58.5 -31.5v-53h-366v53
q64 9 84.5 32t42.5 110l135 540q18 72 6 98t-69 35v54l305 57h10z" />
    <glyph glyph-name="Imacron" unicode="&#x12a;" horiz-adv-x="686" 
d="M340 1614h608v102h-608v-102zM4 0v53q82 14 117.5 52.5t62.5 150.5l226 907q28 110 14 150t-86 57v53h461v-53q-84 -14 -119.5 -53.5t-63.5 -151.5l-225 -909q-25 -113 -9 -150t85 -53v-53h-463z" />
    <glyph glyph-name="imacron" unicode="&#x12b;" horiz-adv-x="559" 
d="M170 1194h606v102h-606v-102zM508 979l-197 -786q-19 -87 -9.5 -108.5t58.5 -31.5v-53h-366v53q64 9 84.5 32t42.5 110l135 540q18 72 6 98t-69 35v54l305 57h10z" />
    <glyph glyph-name="Ibreve" unicode="&#x12c;" horiz-adv-x="686" 
d="M621 1540q-111 0 -167.5 81t-33.5 212h84q-14 -71 22.5 -114.5t108.5 -43.5q76 0 128.5 42.5t80.5 115.5h84q-28 -135 -109.5 -214t-197.5 -79zM4 0v53q82 14 117.5 52.5t62.5 150.5l226 907q28 110 14 150t-86 57v53h461v-53q-84 -14 -119.5 -53.5t-63.5 -151.5
l-225 -909q-25 -113 -9 -150t85 -53v-53h-463z" />
    <glyph glyph-name="ibreve" unicode="&#x12d;" horiz-adv-x="559" 
d="M451 1126q-111 0 -167.5 81t-33.5 212h84q-14 -71 22.5 -115t108.5 -44q76 0 128.5 43t80.5 116h84q-28 -136 -109.5 -214.5t-197.5 -78.5zM508 979l-197 -786q-19 -87 -9.5 -108.5t58.5 -31.5v-53h-366v53q64 9 84.5 32t42.5 110l135 540q18 72 6 98t-69 35v54l305 57
h10z" />
    <glyph glyph-name="Iogonek" unicode="&#x12e;" horiz-adv-x="686" 
d="M338 1370v53h461v-53q-84 -14 -119.5 -53.5t-63.5 -151.5l-225 -909q-25 -113 -9 -150t85 -53v-53h-133q-137 -55 -198.5 -108t-61.5 -115q0 -44 27 -71.5t73 -27.5q58 0 105 35l32 -43q-74 -86 -182 -86q-78 0 -127 47.5t-49 122.5q0 158 244 246h-193v53
q82 14 117.5 52.5t62.5 150.5l226 907q28 110 14 150t-86 57z" />
    <glyph glyph-name="iogonek" unicode="&#x12f;" horiz-adv-x="559" 
d="M496 1415q51 0 83.5 -32.5t32.5 -84.5q0 -64 -42.5 -106.5t-104.5 -42.5q-53 0 -86 33.5t-33 85.5q0 62 44 104.5t106 42.5zM498 979h10l-197 -786q-19 -87 -9.5 -108.5t58.5 -31.5v-53h-81q-137 -55 -199 -108t-62 -115q0 -44 27.5 -71.5t73.5 -27.5q57 0 104 35l33 -43
q-74 -86 -182 -86q-78 0 -127 47.5t-49 122.5q0 158 243 246h-147v53q64 9 84.5 32t42.5 110l135 540q18 72 6 98t-69 35v54z" />
    <glyph glyph-name="Idotaccent" unicode="&#x130;" horiz-adv-x="686" 
d="M623 1561q-51 0 -84 33t-33 85q0 63 42.5 105.5t104.5 42.5q51 0 84 -32.5t33 -84.5q0 -64 -42.5 -106.5t-104.5 -42.5zM4 0v53q82 14 117.5 52.5t62.5 150.5l226 907q28 110 14 150t-86 57v53h461v-53q-84 -14 -119.5 -53.5t-63.5 -151.5l-225 -909q-25 -113 -9 -150
t85 -53v-53h-463z" />
    <glyph glyph-name="dotlessi" unicode="&#x131;" horiz-adv-x="559" 
d="M508 979l-197 -786q-19 -87 -9.5 -108.5t58.5 -31.5v-53h-366v53q64 9 84.5 32t42.5 110l135 540q18 72 6 98t-69 35v54l305 57h10z" />
    <glyph glyph-name="IJ" unicode="&#x132;" horiz-adv-x="1648" 
d="M4 0v53q82 14 117.5 52.5t62.5 150.5l226 907q28 110 14 150t-86 57v53h461v-53q-84 -14 -119.5 -53.5t-63.5 -151.5l-225 -909q-25 -113 -9 -150t85 -53v-53h-463zM926 -25q-187 0 -324 115l43 74q112 -68 219 -68q258 0 328 279l199 784q28 108 14 151t-86 60v53h461
v-53q-83 -18 -119.5 -57t-63.5 -146l-192 -772q-53 -214 -172.5 -317t-306.5 -103z" />
    <glyph glyph-name="ij" unicode="&#x133;" horiz-adv-x="1087" 
d="M463 1149q-51 0 -84 33.5t-33 85.5q0 63 43.5 105t106.5 42q51 0 83.5 -32.5t32.5 -84.5q0 -64 -43.5 -106.5t-105.5 -42.5zM1012 1149q-51 0 -84 33.5t-33 85.5q0 63 43 105t106 42q51 0 84 -32.5t33 -84.5q0 -64 -43.5 -106.5t-105.5 -42.5zM508 979l-197 -786
q-19 -87 -9.5 -108.5t58.5 -31.5v-53h-366v53q64 9 84.5 32t42.5 110l135 540q18 72 6 98t-69 35v54l305 57h10zM406 -438q-102 0 -183 51l33 70q56 -21 117 -21q81 0 132.5 46t78.5 153l217 872q18 74 5.5 100.5t-67.5 34.5v54l303 57h13l-277 -1104q-79 -313 -372 -313z
" />
    <glyph glyph-name="Jcircumflex" unicode="&#x134;" horiz-adv-x="962" 
d="M698 1540h-116l329 293h105l174 -293h-96l-156 137zM240 -25q-187 0 -324 115l43 74q112 -68 219 -68q258 0 328 279l199 784q28 108 14 151t-86 60v53h461v-53q-83 -18 -119.5 -57t-63.5 -146l-192 -772q-53 -214 -172.5 -317t-306.5 -103z" />
    <glyph glyph-name="jcircumflex" unicode="&#x135;" horiz-adv-x="530" 
d="M227 1126h-116l329 293h105l174 -293h-96l-156 136zM-154 -438q-101 0 -182 51l33 70q56 -21 117 -21q81 0 132.5 46t78.5 153l217 872q18 74 5.5 100.5t-67.5 34.5v54l303 57h13l-277 -1104q-79 -313 -373 -313z" />
    <glyph glyph-name="uni0136" unicode="&#x136;" horiz-adv-x="1411" 
d="M1595 1423v-53q-63 -9 -114.5 -26t-101 -48t-81 -55t-88.5 -72l-424 -362l531 -797v-10h-248l-436 676l-176 -152l-66 -264q-22 -71 -19.5 -113t23 -61t70.5 -33v-53h-461v53q83 17 117.5 56.5t62.5 148.5l230 918q25 93 11 135t-87 59v53h461v-53q-84 -17 -120 -56.5
t-61 -137.5l-116 -469h10l580 501q153 130 78 159q-3 2 -7 3v53h432zM676 -90q45 0 75.5 -32.5t30.5 -78.5q0 -36 -16 -67.5t-49 -75.5l-144 -182h-90l176 215q-43 2 -71.5 30t-28.5 72q0 49 33 84t84 35z" />
    <glyph glyph-name="uni0137" unicode="&#x137;" horiz-adv-x="1089" 
d="M1167 969v-54q-81 -10 -147 -42t-154 -99l-266 -203l377 -561v-10h-225l-297 461l-113 -84l-45 -184q-19 -78 -10 -104.5t59 -35.5v-53h-366v53q62 9 82.5 29t41.5 100l265 1055q14 59 -1 84.5t-67 32.5v53l305 57h10l-233 -932h14l369 285q97 76 50 95q-5 2 -11 3v54
h362zM465 -90q45 0 75.5 -32.5t30.5 -78.5q0 -36 -16 -67.5t-49 -75.5l-144 -182h-90l177 215q-43 2 -72 30t-29 72q0 49 33 84t84 35z" />
    <glyph glyph-name="Lacute" unicode="&#x139;" horiz-adv-x="1196" 
d="M598 1540h-92l158 293h258v-6zM-8 0v53q95 23 129.5 61t62.5 148l226 903q28 106 13 150.5t-85 54.5v53h465v-53q-87 -9 -122 -48t-63 -153l-266 -1060h369q72 0 118 11t84 42t60.5 89t34.5 150h55v-401h-1081z" />
    <glyph glyph-name="lacute" unicode="&#x13a;" horiz-adv-x="546" 
d="M528 1540h-92l158 293h258v-6zM-23 0v53q64 9 85 32t44 110l256 1026q19 72 7 98t-68 35v53l303 57h10l-319 -1271q-19 -87 -9.5 -108.5t58.5 -31.5v-53h-367z" />
    <glyph glyph-name="uni013B" unicode="&#x13b;" horiz-adv-x="1196" 
d="M1018 401h55v-401h-1081v53q95 23 129.5 61t62.5 148l226 903q28 106 13 150.5t-85 54.5v53h465v-53q-87 -9 -122 -48t-63 -153l-266 -1060h369q72 0 118 11t84 42t60.5 89t34.5 150zM522 -90q45 0 76 -32.5t31 -78.5q0 -36 -16.5 -67t-49.5 -76l-143 -182h-90l176 215
q-43 2 -71.5 30t-28.5 72q0 49 32.5 84t83.5 35z" />
    <glyph glyph-name="uni013C" unicode="&#x13c;" horiz-adv-x="546" 
d="M614 1464l-319 -1271q-19 -87 -9.5 -108.5t58.5 -31.5v-53h-367v53q64 9 85 32t44 110l256 1026q19 72 7 98t-68 35v53l303 57h10zM102 -90q46 0 77.5 -32.5t31.5 -78.5q0 -36 -17 -68t-51 -75l-141 -182h-92l176 215q-43 2 -70.5 30t-27.5 72q0 49 31.5 84t82.5 35z" />
    <glyph glyph-name="Lcaron" unicode="&#x13d;" horiz-adv-x="1196" 
d="M1061 1444q42 0 72 -31t30 -74q0 -24 -10 -49.5t-20.5 -42t-32.5 -45.5l-135 -172h-88l165 203q-40 2 -66 29.5t-26 68.5q0 46 31 79.5t80 33.5zM352 109h369q72 0 118 11t84 42t60.5 89t34.5 150h55v-401h-1081v53q95 23 129.5 61t62.5 148l226 903q28 106 13 150.5
t-85 54.5v53h465v-53q-87 -9 -122 -48t-63 -153z" />
    <glyph glyph-name="lcaron" unicode="&#x13e;" horiz-adv-x="546" 
d="M805 1475q42 0 72 -31t30 -74q0 -24 -10 -49.5t-20.5 -42t-32.5 -45.5l-135 -172h-88l165 203q-40 2 -66 29.5t-26 68.5q0 46 31 79.5t80 33.5zM604 1464h10l-319 -1271q-19 -87 -9.5 -108.5t58.5 -31.5v-53h-367v53q64 9 85 32t44 110l256 1026q19 72 7 98t-68 35v53z
" />
    <glyph glyph-name="Ldot" unicode="&#x13f;" horiz-adv-x="1196" 
d="M-8 0v53q95 23 129.5 61t62.5 148l226 903q28 106 13 150.5t-85 54.5v53h465v-53q-87 -9 -122 -48t-63 -153l-266 -1060h369q72 0 118 11t84 42t60.5 89t34.5 150h55v-401h-1081zM778 465q-56 0 -90.5 35.5t-34.5 91.5q0 64 44.5 108.5t109.5 44.5q55 0 91 -35.5
t36 -91.5q0 -67 -45 -110t-111 -43z" />
    <glyph glyph-name="ldot" unicode="&#x140;" horiz-adv-x="673" 
d="M-23 0v53q64 9 85 32t44 110l256 1026q19 72 7 98t-68 35v53l303 57h10l-319 -1271q-19 -87 -9.5 -108.5t58.5 -31.5v-53h-367zM664 602q-56 0 -90.5 35.5t-34.5 91.5q0 64 44 109t107 45q57 0 93 -35.5t36 -91.5q0 -67 -45 -110.5t-110 -43.5z" />
    <glyph glyph-name="Lslash" unicode="&#x141;" horiz-adv-x="1239" 
d="M1061 401h57v-401h-1083v53q95 23 129.5 61t62.5 148l56 217l-203 -100v115l235 116l140 555q27 106 11.5 150.5t-85.5 54.5v53h467v-53q-87 -9 -121.5 -47.5t-64.5 -153.5l-111 -442l420 207v-115l-453 -223l-123 -487h371q71 0 116.5 11t83.5 42t60.5 89t34.5 150z" />
    <glyph glyph-name="lslash" unicode="&#x142;" horiz-adv-x="661" 
d="M709 836l-213 -105l-136 -538q-9 -35 -11.5 -58t-1 -37.5t10.5 -23.5t20 -13t32 -8v-53h-367v53q64 9 84.5 32t42.5 110l109 430l-191 -95v107l221 108l119 476q17 72 5 98t-68 35v53l305 57h10l-154 -612l183 90v-106z" />
    <glyph glyph-name="Nacute" unicode="&#x143;" horiz-adv-x="1560" 
d="M1016 1540h-92l157 293h258v-6zM-10 0v53q90 19 126 57.5t64 145.5l256 1034l-59 125v8h266l514 -1116h12l217 869q26 96 13.5 135t-80.5 59v53h373v-53q-87 -19 -125.5 -59.5t-63.5 -139.5l-291 -1171h-133l-544 1163h-13l-225 -909q-17 -72 -17.5 -108.5t18.5 -57.5
t67 -35v-53h-375z" />
    <glyph glyph-name="nacute" unicode="&#x144;" horiz-adv-x="1157" 
d="M731 1126h-94l160 293h258v-8zM117 182l137 549q19 72 7 100t-71 37v54l306 57h10l-37 -150h12q135 164 299 164q63 0 117 -27.5t89.5 -78t47 -123t-9.5 -162.5l-106 -426q-18 -71 -8.5 -92.5t59.5 -30.5v-53h-371v53q61 9 86 33.5t45 101.5l109 433q26 108 -15.5 169.5
t-117.5 61.5q-148 0 -277 -180l-123 -498q-14 -46 -8.5 -72t18.5 -34.5t43 -14.5v-53h-366v53q60 8 82.5 30t42.5 99z" />
    <glyph glyph-name="uni0145" unicode="&#x145;" horiz-adv-x="1560" 
d="M1319 1370v53h373v-53q-87 -19 -125.5 -59.5t-63.5 -139.5l-291 -1171h-133l-544 1163h-13l-225 -909q-17 -72 -17.5 -108.5t18.5 -57.5t67 -35v-53h-375v53q90 19 126 57.5t64 145.5l256 1034l-59 125v8h266l514 -1116h12l217 869q26 96 13.5 135t-80.5 59zM682 -90
q45 0 75.5 -32.5t30.5 -78.5q0 -36 -16 -67.5t-49 -75.5l-143 -182h-91l177 215q-43 2 -72 30t-29 72q0 49 33 84t84 35z" />
    <glyph glyph-name="uni0146" unicode="&#x146;" horiz-adv-x="1157" 
d="M1024 602l-106 -426q-18 -71 -8.5 -92.5t59.5 -30.5v-53h-371v53q61 9 86 33.5t45 101.5l109 433q26 108 -15.5 169.5t-117.5 61.5q-148 0 -277 -180l-123 -498q-14 -46 -8.5 -72t18.5 -34.5t43 -14.5v-53h-366v53q60 8 82.5 30t42.5 99l137 549q19 72 7 100t-71 37v54
l306 57h10l-37 -150h12q135 164 299 164q63 0 117 -27.5t89.5 -78t47 -123t-9.5 -162.5zM453 -90q45 0 75.5 -32.5t30.5 -78.5q0 -36 -16 -67.5t-49 -75.5l-144 -182h-90l176 215q-43 2 -71.5 30t-28.5 72q0 49 33 84t84 35z" />
    <glyph glyph-name="Ncaron" unicode="&#x147;" horiz-adv-x="1560" 
d="M1286 1827h117l-330 -291h-104l-174 291h98l156 -135zM-10 0v53q90 19 126 57.5t64 145.5l256 1034l-59 125v8h266l514 -1116h12l217 869q26 96 13.5 135t-80.5 59v53h373v-53q-87 -19 -125.5 -59.5t-63.5 -139.5l-291 -1171h-133l-544 1163h-13l-225 -909
q-17 -72 -17.5 -108.5t18.5 -57.5t67 -35v-53h-375z" />
    <glyph glyph-name="ncaron" unicode="&#x148;" horiz-adv-x="1157" 
d="M1008 1413h116l-329 -293h-105l-174 293h98l154 -135zM117 182l137 549q19 72 7 100t-71 37v54l306 57h10l-37 -150h12q135 164 299 164q63 0 117 -27.5t89.5 -78t47 -123t-9.5 -162.5l-106 -426q-18 -71 -8.5 -92.5t59.5 -30.5v-53h-371v53q61 9 86 33.5t45 101.5
l109 433q26 108 -15.5 169.5t-117.5 61.5q-148 0 -277 -180l-123 -498q-14 -46 -8.5 -72t18.5 -34.5t43 -14.5v-53h-366v53q60 8 82.5 30t42.5 99z" />
    <glyph glyph-name="Eng" unicode="&#x14a;" horiz-adv-x="1560" 
d="M803 -438q-112 0 -197 51l35 70q54 -21 115 -21q164 0 211 184l53 213l-485 1102h-13l-225 -903q-26 -110 -13.5 -147.5t81.5 -57.5v-53h-375v53q91 19 126.5 57.5t63.5 147.5l256 1030l-59 127v8h274l500 -1140h12l221 888q26 98 13.5 139.5t-78.5 59.5v53h373v-53
q-87 -19 -126 -58t-63 -138l-323 -1305q-39 -160 -138 -233.5t-239 -73.5z" />
    <glyph glyph-name="eng" unicode="&#x14b;" horiz-adv-x="1136" 
d="M469 -438q-101 0 -182 51l35 70q52 -21 114 -21q81 0 132.5 46t78.5 153l191 760q26 107 -14.5 169t-114.5 62q-84 0 -156 -51.5t-125 -130.5l-123 -496q-14 -46 -8.5 -72t18.5 -34.5t43 -14.5v-53h-366v53q60 8 82.5 30t42.5 99l137 549q19 72 7 100t-71 37v54l306 57
h10l-37 -150h12q136 164 295 164q136 0 213 -108.5t35 -282.5l-182 -727q-79 -313 -373 -313z" />
    <glyph glyph-name="Omacron" unicode="&#x14c;" horiz-adv-x="1617" 
d="M745 1614h609v102h-609v-102zM766 -25q-276 0 -447.5 171t-171.5 442q0 168 62 324.5t169 275t262 189.5t331 71q274 0 446 -171.5t172 -440.5q0 -169 -62 -325.5t-169 -275t-262 -189.5t-330 -71zM772 90q105 0 199.5 46.5t163.5 124t120.5 177t77 208t25.5 214.5
q0 219 -105 346t-288 127q-105 0 -199.5 -46.5t-163.5 -124.5t-120.5 -177.5t-77 -208t-25.5 -213.5q0 -222 105.5 -347.5t287.5 -125.5z" />
    <glyph glyph-name="omacron" unicode="&#x14d;" horiz-adv-x="1140" 
d="M438 1194h606v102h-606v-102zM492 -25q-186 0 -300 114.5t-114 295.5q0 165 74.5 304.5t207 221.5t293.5 82q185 0 299.5 -114t114.5 -295q0 -123 -44 -235t-120 -194.5t-183.5 -131t-227.5 -48.5zM498 86q82 0 152 48.5t114.5 126t69 170.5t24.5 185q0 126 -55.5 196.5
t-155.5 70.5q-84 0 -154.5 -48.5t-114.5 -126.5t-68.5 -170.5t-24.5 -185.5q0 -127 56 -196.5t157 -69.5z" />
    <glyph glyph-name="Obreve" unicode="&#x14e;" horiz-adv-x="1617" 
d="M1026 1540q-111 0 -167.5 81t-33.5 212h84q-14 -71 22.5 -114.5t108.5 -43.5q76 0 128.5 42.5t80.5 115.5h84q-28 -135 -109.5 -214t-197.5 -79zM766 -25q-276 0 -447.5 171t-171.5 442q0 168 62 324.5t169 275t262 189.5t331 71q274 0 446 -171.5t172 -440.5
q0 -169 -62 -325.5t-169 -275t-262 -189.5t-330 -71zM772 90q105 0 199.5 46.5t163.5 124t120.5 177t77 208t25.5 214.5q0 219 -105 346t-288 127q-105 0 -199.5 -46.5t-163.5 -124.5t-120.5 -177.5t-77 -208t-25.5 -213.5q0 -222 105.5 -347.5t287.5 -125.5z" />
    <glyph glyph-name="obreve" unicode="&#x14f;" horiz-adv-x="1140" 
d="M719 1126q-111 0 -167.5 81t-33.5 212h84q-14 -71 22.5 -115t108.5 -44q76 0 128.5 43t80.5 116h84q-28 -136 -109.5 -214.5t-197.5 -78.5zM492 -25q-186 0 -300 114.5t-114 295.5q0 165 74.5 304.5t207 221.5t293.5 82q185 0 299.5 -114t114.5 -295q0 -123 -44 -235
t-120 -194.5t-183.5 -131t-227.5 -48.5zM498 86q82 0 152 48.5t114.5 126t69 170.5t24.5 185q0 126 -55.5 196.5t-155.5 70.5q-84 0 -154.5 -48.5t-114.5 -126.5t-68.5 -170.5t-24.5 -185.5q0 -127 56 -196.5t157 -69.5z" />
    <glyph glyph-name="Ohungarumlaut" unicode="&#x150;" horiz-adv-x="1617" 
d="M864 1540h-78l144 293h217v-6zM1169 1540h-79l145 293h219v-6zM766 -25q-276 0 -447.5 171t-171.5 442q0 168 62 324.5t169 275t262 189.5t331 71q274 0 446 -171.5t172 -440.5q0 -169 -62 -325.5t-169 -275t-262 -189.5t-330 -71zM772 90q105 0 199.5 46.5t163.5 124
t120.5 177t77 208t25.5 214.5q0 219 -105 346t-288 127q-105 0 -199.5 -46.5t-163.5 -124.5t-120.5 -177.5t-77 -208t-25.5 -213.5q0 -222 105.5 -347.5t287.5 -125.5z" />
    <glyph glyph-name="ohungarumlaut" unicode="&#x151;" horiz-adv-x="1140" 
d="M557 1126h-78l146 293h217v-8zM862 1126h-80l146 293h219v-8zM492 -25q-186 0 -300 114.5t-114 295.5q0 165 74.5 304.5t207 221.5t293.5 82q185 0 299.5 -114t114.5 -295q0 -123 -44 -235t-120 -194.5t-183.5 -131t-227.5 -48.5zM498 86q82 0 152 48.5t114.5 126
t69 170.5t24.5 185q0 126 -55.5 196.5t-155.5 70.5q-84 0 -154.5 -48.5t-114.5 -126.5t-68.5 -170.5t-24.5 -185.5q0 -127 56 -196.5t157 -69.5z" />
    <glyph glyph-name="OE" unicode="&#x152;" horiz-adv-x="1894" 
d="M1726 0h-929q-192 0 -339 73t-229 211.5t-82 323.5q0 161 65.5 309t180.5 260t284 179t363 67h918v-307h-55q-12 106 -76.5 152.5t-218.5 46.5h-291l-135 -541h125q109 0 161.5 37t55.5 113h57v-408h-57q-3 77 -54 113.5t-159 36.5h-156l-139 -557h364q133 0 205.5 55.5
t85.5 193.5h55v-358zM784 109h21l303 1206h-72q-151 0 -278 -63t-208 -165.5t-126 -230t-45 -260.5q0 -230 110.5 -358.5t294.5 -128.5z" />
    <glyph glyph-name="oe" unicode="&#x153;" horiz-adv-x="1798" 
d="M1391 993q118 0 201 -55t115 -146.5t11 -199.5l-8 -45h-645q-4 -50 -4 -78q0 -161 82.5 -248.5t216.5 -87.5q155 0 272 96l47 -47q-74 -100 -177.5 -153.5t-217.5 -53.5q-112 0 -203.5 53t-148.5 150h-12q-172 -203 -428 -203q-186 0 -300 114.5t-114 295.5
q0 165 74.5 304.5t207 221.5t293.5 82q114 0 204 -46t147 -132h12q154 178 375 178zM1087 643h453q22 108 -24 178t-142 70q-101 0 -176.5 -69t-110.5 -179zM494 86q84 0 154.5 48t115.5 125.5t69.5 170t24.5 184.5q0 127 -55 198t-154 71q-84 0 -154.5 -48.5t-115.5 -125.5
t-69.5 -170t-24.5 -185q0 -127 55 -197.5t154 -70.5z" />
    <glyph glyph-name="Racute" unicode="&#x154;" horiz-adv-x="1359" 
d="M1198 1833v-6l-324 -287h-92l158 293h258zM1319 1087q0 -158 -133 -261.5t-355 -123.5l451 -692v-10h-238l-434 692h-106l-113 -446q-27 -95 -12.5 -137t90.5 -56v-53h-467v53q88 13 123 51.5t59 139.5l228 917q32 105 20 152t-90 57v53h502q210 0 342.5 -94.5
t132.5 -241.5zM657 1315l-129 -516h166q187 0 298.5 80t111.5 219q0 106 -77.5 161.5t-217.5 55.5h-152z" />
    <glyph glyph-name="racute" unicode="&#x155;" horiz-adv-x="784" 
d="M586 1126h-94l159 293h258v-8zM117 184l135 549q19 72 6.5 99t-68.5 36v54l302 57h14l-68 -260h15q73 144 143 209t176 65q34 0 68 -12v-195q-47 15 -95 15q-104 0 -193.5 -74.5t-158.5 -200.5l-86 -344q-17 -78 -6 -99.5t68 -29.5v-53h-379v53q61 8 83.5 30.5
t43.5 100.5z" />
    <glyph glyph-name="uni0156" unicode="&#x156;" horiz-adv-x="1359" 
d="M1319 1087q0 -158 -133 -261.5t-355 -123.5l451 -692v-10h-238l-434 692h-106l-113 -446q-27 -95 -12.5 -137t90.5 -56v-53h-467v53q88 13 123 51.5t59 139.5l228 917q32 105 20 152t-90 57v53h502q210 0 342.5 -94.5t132.5 -241.5zM657 1315l-129 -516h166
q187 0 298.5 80t111.5 219q0 106 -77.5 161.5t-217.5 55.5h-152zM647 -90q45 0 76 -32.5t31 -78.5q0 -36 -16.5 -67t-49.5 -76l-143 -182h-90l176 215q-43 2 -72 30t-29 72q0 49 33 84t84 35z" />
    <glyph glyph-name="uni0157" unicode="&#x157;" horiz-adv-x="784" 
d="M772 993q34 0 68 -12v-195q-47 15 -95 15q-104 0 -193.5 -74.5t-158.5 -200.5l-86 -344q-17 -78 -6 -99.5t68 -29.5v-53h-379v53q61 8 83.5 30.5t43.5 100.5l135 549q19 72 6.5 99t-68.5 36v54l302 57h14l-68 -260h15q73 144 143 209t176 65zM123 -90q45 0 75.5 -32.5
t30.5 -78.5q0 -36 -16 -67.5t-49 -75.5l-144 -182h-90l176 215q-43 2 -71.5 30t-28.5 72q0 49 33 84t84 35z" />
    <glyph glyph-name="Rcaron" unicode="&#x158;" horiz-adv-x="1359" 
d="M1262 1827l-330 -291h-105l-174 291h99l155 -135l238 135h117zM1319 1087q0 -158 -133 -261.5t-355 -123.5l451 -692v-10h-238l-434 692h-106l-113 -446q-27 -95 -12.5 -137t90.5 -56v-53h-467v53q88 13 123 51.5t59 139.5l228 917q32 105 20 152t-90 57v53h502
q210 0 342.5 -94.5t132.5 -241.5zM657 1315l-129 -516h166q187 0 298.5 80t111.5 219q0 106 -77.5 161.5t-217.5 55.5h-152z" />
    <glyph glyph-name="rcaron" unicode="&#x159;" horiz-adv-x="784" 
d="M862 1413h117l-330 -293h-104l-174 293h98l154 -135zM117 184l135 549q19 72 6.5 99t-68.5 36v54l302 57h14l-68 -260h15q73 144 143 209t176 65q34 0 68 -12v-195q-47 15 -95 15q-104 0 -193.5 -74.5t-158.5 -200.5l-86 -344q-17 -78 -6 -99.5t68 -29.5v-53h-379v53
q61 8 83.5 30.5t43.5 100.5z" />
    <glyph glyph-name="Sacute" unicode="&#x15a;" horiz-adv-x="1099" 
d="M768 1540h-92l158 293h258v-6zM487 -25q-247 0 -436 144v293h55q122 -326 392 -326q117 0 200.5 67.5t83.5 182.5q0 70 -39 123.5t-122 109.5l-142 99q-205 139 -205 356q0 188 140 306t352 118q103 0 201.5 -27t171.5 -73v-287h-56q-85 276 -327 276q-123 0 -205 -69.5
t-82 -182.5q0 -70 33.5 -124t107.5 -105l150 -104q110 -76 164.5 -157t54.5 -194q0 -129 -69 -227.5t-180 -148.5t-243 -50z" />
    <glyph glyph-name="sacute" unicode="&#x15b;" horiz-adv-x="839" 
d="M530 1126h-94l160 293h258v-8zM334 -25q-174 0 -314 105v201h56q37 -98 104 -149.5t160 -51.5q81 0 132.5 36t51.5 105q0 44 -23.5 76t-76.5 68l-111 75q-143 98 -143 246q0 131 102 219t258 88q147 0 275 -71v-203h-55q-25 81 -84.5 124.5t-149.5 43.5q-79 0 -134.5 -38
t-55.5 -101q0 -45 24 -78t84 -74l111 -72q76 -49 113.5 -106.5t37.5 -136.5q0 -132 -104 -219t-258 -87z" />
    <glyph glyph-name="Scircumflex" unicode="&#x15c;" horiz-adv-x="1099" 
d="M580 1540h-117l330 293h104l174 -293h-96l-156 137zM487 -25q-247 0 -436 144v293h55q122 -326 392 -326q117 0 200.5 67.5t83.5 182.5q0 70 -39 123.5t-122 109.5l-142 99q-205 139 -205 356q0 188 140 306t352 118q103 0 201.5 -27t171.5 -73v-287h-56
q-85 276 -327 276q-123 0 -205 -69.5t-82 -182.5q0 -70 33.5 -124t107.5 -105l150 -104q110 -76 164.5 -157t54.5 -194q0 -129 -69 -227.5t-180 -148.5t-243 -50z" />
    <glyph glyph-name="scircumflex" unicode="&#x15d;" horiz-adv-x="839" 
d="M344 1126h-117l330 293h105l174 -293h-97l-155 136zM334 -25q-174 0 -314 105v201h56q37 -98 104 -149.5t160 -51.5q81 0 132.5 36t51.5 105q0 44 -23.5 76t-76.5 68l-111 75q-143 98 -143 246q0 131 102 219t258 88q147 0 275 -71v-203h-55q-25 81 -84.5 124.5
t-149.5 43.5q-79 0 -134.5 -38t-55.5 -101q0 -45 24 -78t84 -74l111 -72q76 -49 113.5 -106.5t37.5 -136.5q0 -132 -104 -219t-258 -87z" />
    <glyph glyph-name="Scedilla" unicode="&#x15e;" horiz-adv-x="1099" 
d="M766 1448q103 0 201.5 -27t171.5 -73v-287h-56q-85 276 -327 276q-123 0 -205 -69.5t-82 -182.5q0 -70 33.5 -124t107.5 -105l150 -104q110 -76 164.5 -157t54.5 -194q0 -184 -130.5 -298.5t-322.5 -125.5l-51 -81l2 -2q21 6 43 6q52 0 88.5 -37.5t36.5 -93.5
q0 -80 -64.5 -133.5t-160.5 -53.5q-131 0 -211 107l39 41q60 -60 141 -60q55 0 93 26t38 68q0 32 -24.5 50t-63.5 18q-31 0 -63 -16l-9 6l93 153q-224 9 -402 144v293h55q122 -326 392 -326q117 0 200.5 67.5t83.5 182.5q0 70 -39 123.5t-122 109.5l-142 99
q-205 139 -205 356q0 188 140 306t352 118z" />
    <glyph glyph-name="scedilla" unicode="&#x15f;" horiz-adv-x="839" 
d="M530 993q147 0 275 -71v-203h-55q-25 81 -84.5 124.5t-149.5 43.5q-79 0 -134.5 -38t-55.5 -101q0 -45 24 -78t84 -74l111 -72q76 -49 113.5 -106.5t37.5 -136.5q0 -125 -94.5 -211t-236.5 -95l-52 -79l2 -2q21 6 43 6q52 0 88.5 -37.5t36.5 -93.5q0 -80 -64.5 -133.5
t-160.5 -53.5q-131 0 -211 107l39 41q60 -60 141 -60q55 0 93 26t38 68q0 32 -24.5 50t-63.5 18q-31 0 -63 -16l-8 6l94 155q-148 12 -273 103v201h56q37 -98 104 -149.5t160 -51.5q81 0 132.5 36t51.5 105q0 44 -23.5 76t-76.5 68l-111 75q-143 98 -143 246q0 131 102 219
t258 88z" />
    <glyph glyph-name="Scaron" unicode="&#x160;" horiz-adv-x="1099" 
d="M1038 1827h117l-330 -291h-104l-174 291h98l156 -135zM487 -25q-247 0 -436 144v293h55q122 -326 392 -326q117 0 200.5 67.5t83.5 182.5q0 70 -39 123.5t-122 109.5l-142 99q-205 139 -205 356q0 188 140 306t352 118q103 0 201.5 -27t171.5 -73v-287h-56
q-85 276 -327 276q-123 0 -205 -69.5t-82 -182.5q0 -70 33.5 -124t107.5 -105l150 -104q110 -76 164.5 -157t54.5 -194q0 -129 -69 -227.5t-180 -148.5t-243 -50z" />
    <glyph glyph-name="scaron" unicode="&#x161;" horiz-adv-x="843" 
d="M809 1413h117l-330 -293h-104l-175 293h97l155 -135zM334 -25q-174 0 -314 105v201h56q37 -98 104 -149.5t160 -51.5q81 0 132.5 36t51.5 105q0 44 -23.5 76t-76.5 68l-111 75q-143 98 -143 246q0 131 102 219t258 88q147 0 275 -71v-203h-55q-25 81 -84.5 124.5
t-149.5 43.5q-79 0 -134.5 -38t-55.5 -101q0 -45 24 -78t84 -74l111 -72q76 -49 113.5 -106.5t37.5 -136.5q0 -132 -104 -219t-258 -87z" />
    <glyph glyph-name="uni0162" unicode="&#x162;" horiz-adv-x="1275" 
d="M242 1106v317h1183v-317h-55q-12 111 -93 162t-233 51h-94l-264 -1051q-28 -112 -9.5 -157t101.5 -58v-53h-229l-66 -104l2 -2q21 6 43 6q52 0 88.5 -37.5t36.5 -93.5q0 -80 -64.5 -133.5t-160.5 -53.5q-131 0 -211 107l39 41q60 -60 141 -60q55 0 93 26t38 68
q0 32 -24.5 50t-63.5 18q-31 0 -63 -16l-8 6l108 178h-196v53q94 15 132 57t68 158l262 1051h-131q-157 0 -231.5 -50.5t-83.5 -162.5h-55z" />
    <glyph glyph-name="uni0163" unicode="&#x163;" horiz-adv-x="714" 
d="M778 854h-286l-154 -612q-19 -73 10 -108.5t88 -35.5q69 0 133 31l31 -57q-113 -97 -242 -97q-35 0 -65 9l-55 -88l2 -2q21 6 43 6q52 0 88.5 -37.5t36.5 -93.5q0 -80 -64.5 -133.5t-161.5 -53.5q-131 0 -211 107l39 41q60 -60 142 -60q55 0 93 26t38 68q0 32 -24.5 50
t-63.5 18q-32 0 -64 -16l-8 6l110 184q-58 35 -79.5 102.5t0.5 163.5l145 582h-178v88q57 3 98.5 10t74 24t54 35.5t40.5 53t32 67t31 87.5h131l-62 -250h258v-115z" />
    <glyph glyph-name="Tcaron" unicode="&#x164;" horiz-adv-x="1275" 
d="M1159 1827h117l-330 -291h-104l-174 291h98l156 -135zM281 0v53q94 15 132 57t68 158l262 1051h-131q-157 0 -231.5 -50.5t-83.5 -162.5h-55v317h1183v-317h-55q-12 111 -93 162t-233 51h-94l-264 -1051q-28 -112 -9.5 -157t101.5 -58v-53h-497z" />
    <glyph glyph-name="tcaron" unicode="&#x165;" horiz-adv-x="714" 
d="M836 1475q42 0 72 -31t30 -74q0 -24 -10.5 -50t-20.5 -41t-33 -46l-135 -172h-88l166 203q-40 2 -66 29.5t-26 68.5q0 46 31 79.5t80 33.5zM451 1219h131l-62 -250h258v-115h-286l-154 -612q-19 -73 10 -108.5t88 -35.5q69 0 133 31l31 -57q-113 -97 -242 -97
q-121 0 -179 81.5t-25 215.5l145 582h-178v88q57 3 98.5 10t74 24t54 35.5t40.5 53t32 67t31 87.5z" />
    <glyph glyph-name="Tbar" unicode="&#x166;" horiz-adv-x="1275" 
d="M242 1106v317h1183v-317h-55q-12 111 -93 162t-233 51h-94l-127 -508h260v-92h-284l-113 -451q-28 -112 -9.5 -157t101.5 -58v-53h-497v53q94 15 132 57t68 158l113 451h-264v92h286l127 508h-131q-157 0 -231.5 -50.5t-83.5 -162.5h-55z" />
    <glyph glyph-name="tbar" unicode="&#x167;" horiz-adv-x="733" 
d="M788 969v-115h-286l-70 -279h250v-94h-274l-60 -239q-19 -73 10 -108.5t88 -35.5q70 0 134 31l30 -57q-113 -97 -241 -97q-121 0 -179.5 81.5t-25.5 215.5l53 209h-158v94h181l69 279h-178v88q57 3 98.5 10t74 24t54 35.5t40.5 53t32 67t31 87.5h131l-62 -250h258z" />
    <glyph glyph-name="Utilde" unicode="&#x168;" 
d="M1219 1550q-83 0 -154 64l-27 24q-42 37 -88 37q-86 0 -123 -116h-82q25 123 84.5 184t137.5 61q76 0 153 -61l31 -27q40 -35 86 -35q44 0 73 28.5t48 88.5h84q-25 -124 -84.5 -186t-138.5 -62zM717 -25q-132 0 -237 44t-168.5 125t-84.5 196t15 256l143 575
q20 67 18 107.5t-22.5 59.5t-71.5 32v53h465v-53q-81 -15 -118.5 -54.5t-63.5 -141.5l-148 -592q-53 -212 34 -331.5t276 -119.5q183 0 311.5 114t183.5 330l148 592q18 76 18.5 112.5t-17.5 56.5t-65 34v53h375v-53q-89 -18 -127.5 -57.5t-64.5 -145.5l-152 -606
q-70 -283 -232.5 -434.5t-414.5 -151.5z" />
    <glyph glyph-name="utilde" unicode="&#x169;" horiz-adv-x="1120" 
d="M858 1135q-84 0 -153 63l-27 25q-42 37 -88 37q-44 0 -73 -28.5t-50 -88.5h-82q25 124 84 185t137 61q75 0 154 -62l31 -27q39 -34 86 -34q44 0 73 27.5t49 88.5h82q-25 -124 -84.5 -185.5t-138.5 -61.5zM360 -25q-81 0 -142.5 47.5t-86 131t1.5 198.5l94 377
q20 66 8.5 96t-69.5 39v54l303 57h10l-160 -643q-24 -101 7.5 -158t109.5 -57q134 0 269 194l104 416q20 66 7.5 97t-71.5 40v54l308 57h10l-189 -752q-20 -73 -12.5 -94.5t60.5 -28.5v-53l-287 -57h-12l36 149h-12q-121 -164 -287 -164z" />
    <glyph glyph-name="Umacron" unicode="&#x16a;" 
d="M795 1614h608v102h-608v-102zM717 -25q-132 0 -237 44t-168.5 125t-84.5 196t15 256l143 575q20 67 18 107.5t-22.5 59.5t-71.5 32v53h465v-53q-81 -15 -118.5 -54.5t-63.5 -141.5l-148 -592q-53 -212 34 -331.5t276 -119.5q183 0 311.5 114t183.5 330l148 592
q18 76 18.5 112.5t-17.5 56.5t-65 34v53h375v-53q-89 -18 -127.5 -57.5t-64.5 -145.5l-152 -606q-70 -283 -232.5 -434.5t-414.5 -151.5z" />
    <glyph glyph-name="umacron" unicode="&#x16b;" horiz-adv-x="1120" 
d="M430 1194h606v102h-606v-102zM360 -25q-81 0 -142.5 47.5t-86 131t1.5 198.5l94 377q20 66 8.5 96t-69.5 39v54l303 57h10l-160 -643q-24 -101 7.5 -158t109.5 -57q134 0 269 194l104 416q20 66 7.5 97t-71.5 40v54l308 57h10l-189 -752q-20 -73 -12.5 -94.5t60.5 -28.5
v-53l-287 -57h-12l36 149h-12q-121 -164 -287 -164z" />
    <glyph glyph-name="Ubreve" unicode="&#x16c;" 
d="M1075 1540q-111 0 -167.5 81t-33.5 212h84q-13 -70 23.5 -114t108.5 -44q148 0 208 158h84q-28 -135 -109.5 -214t-197.5 -79zM717 -25q-132 0 -237 44t-168.5 125t-84.5 196t15 256l143 575q20 67 18 107.5t-22.5 59.5t-71.5 32v53h465v-53q-81 -15 -118.5 -54.5
t-63.5 -141.5l-148 -592q-53 -212 34 -331.5t276 -119.5q183 0 311.5 114t183.5 330l148 592q18 76 18.5 112.5t-17.5 56.5t-65 34v53h375v-53q-89 -18 -127.5 -57.5t-64.5 -145.5l-152 -606q-70 -283 -232.5 -434.5t-414.5 -151.5z" />
    <glyph glyph-name="ubreve" unicode="&#x16d;" horiz-adv-x="1120" 
d="M709 1126q-111 0 -167.5 81t-33.5 212h84q-14 -71 22.5 -115t108.5 -44q76 0 128.5 43t80.5 116h84q-28 -136 -109.5 -214.5t-197.5 -78.5zM360 -25q-81 0 -142.5 47.5t-86 131t1.5 198.5l94 377q20 66 8.5 96t-69.5 39v54l303 57h10l-160 -643q-24 -101 7.5 -158
t109.5 -57q134 0 269 194l104 416q20 66 7.5 97t-71.5 40v54l308 57h10l-189 -752q-20 -73 -12.5 -94.5t60.5 -28.5v-53l-287 -57h-12l36 149h-12q-121 -164 -287 -164z" />
    <glyph glyph-name="Uring" unicode="&#x16e;" 
d="M1096 1505q-83 0 -140 56.5t-57 138.5q0 80 57 137t140 57t141.5 -57t58.5 -137q0 -82 -58.5 -138.5t-141.5 -56.5zM1096 1589q46 0 76 31t30 80q0 47 -30 77.5t-76 30.5q-45 0 -75 -30.5t-30 -77.5q0 -49 30 -80t75 -31zM717 -25q-132 0 -237 44t-168.5 125t-84.5 196
t15 256l143 575q20 67 18 107.5t-22.5 59.5t-71.5 32v53h465v-53q-81 -15 -118.5 -54.5t-63.5 -141.5l-148 -592q-53 -212 34 -331.5t276 -119.5q183 0 311.5 114t183.5 330l148 592q18 76 18.5 112.5t-17.5 56.5t-65 34v53h375v-53q-89 -18 -127.5 -57.5t-64.5 -145.5
l-152 -606q-70 -283 -232.5 -434.5t-414.5 -151.5z" />
    <glyph glyph-name="uring" unicode="&#x16f;" horiz-adv-x="1120" 
d="M729 1085q-84 0 -141.5 56.5t-57.5 138.5q0 80 57.5 137.5t141.5 57.5q82 0 140.5 -57.5t58.5 -137.5q0 -81 -58.5 -138t-140.5 -57zM729 1171q45 0 76 30.5t31 78.5q0 47 -31 78t-76 31q-46 0 -76 -31t-30 -78q0 -49 30 -79t76 -30zM360 -25q-81 0 -142.5 47.5t-86 131
t1.5 198.5l94 377q20 66 8.5 96t-69.5 39v54l303 57h10l-160 -643q-24 -101 7.5 -158t109.5 -57q134 0 269 194l104 416q20 66 7.5 97t-71.5 40v54l308 57h10l-189 -752q-20 -73 -12.5 -94.5t60.5 -28.5v-53l-287 -57h-12l36 149h-12q-121 -164 -287 -164z" />
    <glyph glyph-name="Uhungarumlaut" unicode="&#x170;" 
d="M913 1540h-77l143 293h217v-6zM1219 1540h-80l145 293h219v-6zM717 -25q-132 0 -237 44t-168.5 125t-84.5 196t15 256l143 575q20 67 18 107.5t-22.5 59.5t-71.5 32v53h465v-53q-81 -15 -118.5 -54.5t-63.5 -141.5l-148 -592q-53 -212 34 -331.5t276 -119.5
q183 0 311.5 114t183.5 330l148 592q18 76 18.5 112.5t-17.5 56.5t-65 34v53h375v-53q-89 -18 -127.5 -57.5t-64.5 -145.5l-152 -606q-70 -283 -232.5 -434.5t-414.5 -151.5z" />
    <glyph glyph-name="uhungarumlaut" unicode="&#x171;" horiz-adv-x="1120" 
d="M547 1126h-78l145 293h217v-8zM852 1126h-80l146 293h219v-8zM360 -25q-81 0 -142.5 47.5t-86 131t1.5 198.5l94 377q20 66 8.5 96t-69.5 39v54l303 57h10l-160 -643q-24 -101 7.5 -158t109.5 -57q134 0 269 194l104 416q20 66 7.5 97t-71.5 40v54l308 57h10l-189 -752
q-20 -73 -12.5 -94.5t60.5 -28.5v-53l-287 -57h-12l36 149h-12q-121 -164 -287 -164z" />
    <glyph glyph-name="Uogonek" unicode="&#x172;" 
d="M637 -416q-79 0 -127.5 48t-48.5 122q0 132 178 221v7q-154 17 -259 96.5t-142.5 210.5t4.5 307l141 569q29 102 16.5 144t-90.5 61v53h465v-53q-87 -17 -123.5 -60t-60.5 -145l-146 -581q-53 -213 34 -333t276 -120q183 0 311.5 114t183.5 330l148 592q28 102 16 143.5
t-80 59.5v53h375v-53q-90 -17 -127.5 -58.5t-64.5 -146.5l-152 -604q-59 -236 -181.5 -380.5t-303.5 -188.5q-297 -71 -297 -215q0 -44 27 -71.5t73 -27.5q53 0 104 35l33 -43q-74 -86 -182 -86z" />
    <glyph glyph-name="uogonek" unicode="&#x173;" horiz-adv-x="1120" 
d="M1063 975l-189 -752q-20 -73 -12 -94.5t62 -28.5v-53l-121 -33q-144 -37 -216.5 -102t-72.5 -133q0 -44 27 -72.5t73 -28.5q56 0 105 35l33 -43q-72 -86 -183 -86q-81 0 -128.5 48.5t-47.5 121.5q0 83 64.5 148t169.5 106l32 131h-12q-63 -87 -133 -125.5t-154 -38.5
q-80 0 -141.5 47.5t-86.5 131t1 198.5l94 377q20 66 8.5 96t-69.5 39v54l303 57h10l-160 -643q-24 -101 7.5 -158t109.5 -57q133 0 271 194l102 416q20 66 7.5 97t-71.5 40v54l310 57h8z" />
    <glyph glyph-name="Wcircumflex" unicode="&#x174;" horiz-adv-x="2011" 
d="M1057 1540h-117l330 293h104l174 -293h-96l-156 137zM420 0l-60 1165q-6 93 -26.5 133.5t-81.5 71.5v53h465v-53q-101 -18 -133 -65.5t-27 -137.5l45 -843h12l521 884l-13 215h213l58 -1089h12l455 821q26 47 38 71t21 51.5t3.5 42t-21 27.5t-46.5 23v53h367v-53
q-87 -26 -132.5 -70t-100.5 -143l-641 -1157h-131l-56 1016h-12l-598 -1016h-131z" />
    <glyph glyph-name="wcircumflex" unicode="&#x175;" horiz-adv-x="1533" 
d="M719 1126h-117l330 293h104l174 -293h-96l-156 136zM461 289h12l326 524l-13 156h185l61 -684h15l282 473q44 78 43 109t-47 48v54h299v-54q-65 -18 -101 -52t-83 -111l-451 -752h-98l-60 670h-12l-418 -670h-96l-69 756q-5 55 -31 82t-92 36v52l290 57l5 -49l18 -240z
" />
    <glyph glyph-name="Ycircumflex" unicode="&#x176;" horiz-adv-x="1406" 
d="M1159 1540l-155 137l-240 -137h-117l330 293h104l174 -293h-96zM1237 1370v53h383v-53q-86 -17 -143.5 -60t-122.5 -120l-520 -604l-91 -359q-21 -94 -4 -128t82 -46v-53h-465v53q84 10 121 46t60 128l94 373l-215 576q-33 88 -67.5 134t-98.5 60v53h477v-53
q-41 -7 -66 -20t-37.5 -29.5t-13 -42.5t6 -53t20.5 -66l158 -434h12l395 461q73 85 81.5 129t-46.5 55z" />
    <glyph glyph-name="ycircumflex" unicode="&#x177;" horiz-adv-x="1030" 
d="M856 1126l-156 136l-239 -136h-117l330 293h104l174 -293h-96zM823 915v54h307v-54q-68 -21 -103.5 -51.5t-76.5 -97.5l-544 -909q-102 -168 -188 -231.5t-193 -63.5q-79 0 -142 37v168q69 -29 154 -29q91 0 165.5 43t141.5 158l37 61l-137 743q-10 66 -38.5 93t-96.5 38
v52l282 57l4 -20l37 -220l84 -491h14l308 518q28 45 36 71.5t-3.5 44.5t-47.5 29z" />
    <glyph glyph-name="Ydieresis" unicode="&#x178;" horiz-adv-x="1406" 
d="M788 1563q-51 0 -82.5 32t-31.5 82q0 60 42 102t103 42q48 0 79.5 -32t31.5 -81q0 -62 -41.5 -103.5t-100.5 -41.5zM1171 1563q-49 0 -80.5 32t-31.5 82q0 60 41.5 102t101.5 42q48 0 80.5 -32t32.5 -81q0 -62 -42.5 -103.5t-101.5 -41.5zM1237 1370v53h383v-53
q-86 -17 -143.5 -60t-122.5 -120l-520 -604l-91 -359q-21 -94 -4 -128t82 -46v-53h-465v53q84 10 121 46t60 128l94 373l-215 576q-33 88 -67.5 134t-98.5 60v53h477v-53q-41 -7 -66 -20t-37.5 -29.5t-13 -42.5t6 -53t20.5 -66l158 -434h12l395 461q73 85 81.5 129t-46.5 55
z" />
    <glyph glyph-name="Zacute" unicode="&#x179;" horiz-adv-x="1234" 
d="M846 1540h-92l157 293h258v-6zM1061 0h-1081v96l1103 1211v8h-448q-128 0 -196.5 -55t-86.5 -179h-55v342h1069v-96l-1104 -1210v-8h438q142 0 213 57t93 207h55v-373z" />
    <glyph glyph-name="zacute" unicode="&#x17a;" horiz-adv-x="946" 
d="M590 1126h-94l159 293h258v-8zM485 102h-247v13l714 766v88h-759v-248h53q26 84 73.5 114.5t145.5 30.5h217v-12l-713 -766v-88h807v281h-53q-36 -103 -88 -141t-150 -38z" />
    <glyph glyph-name="Zdotaccent" unicode="&#x17b;" horiz-adv-x="1234" 
d="M870 1561q-51 0 -83.5 33t-32.5 85q0 63 42.5 105.5t104.5 42.5q51 0 84 -32.5t33 -84.5q0 -64 -43 -106.5t-105 -42.5zM1061 0h-1081v96l1103 1211v8h-448q-128 0 -196.5 -55t-86.5 -179h-55v342h1069v-96l-1104 -1210v-8h438q142 0 213 57t93 207h55v-373z" />
    <glyph glyph-name="zdotaccent" unicode="&#x17c;" horiz-adv-x="946" 
d="M631 1149q-53 0 -86 33.5t-33 85.5q0 62 44 104.5t106 42.5q51 0 83.5 -32.5t32.5 -84.5q0 -64 -42.5 -106.5t-104.5 -42.5zM485 102h-247v13l714 766v88h-759v-248h53q26 84 73.5 114.5t145.5 30.5h217v-12l-713 -766v-88h807v281h-53q-36 -103 -88 -141t-150 -38z" />
    <glyph glyph-name="Zcaron" unicode="&#x17d;" horiz-adv-x="1234" 
d="M1114 1827h117l-330 -291h-104l-174 291h98l156 -135zM1061 0h-1081v96l1103 1211v8h-448q-128 0 -196.5 -55t-86.5 -179h-55v342h1069v-96l-1104 -1210v-8h438q142 0 213 57t93 207h55v-373z" />
    <glyph glyph-name="zcaron" unicode="&#x17e;" horiz-adv-x="946" 
d="M866 1413h117l-330 -293h-104l-174 293h98l154 -135zM485 102h-247v13l714 766v88h-759v-248h53q26 84 73.5 114.5t145.5 30.5h217v-12l-713 -766v-88h807v281h-53q-36 -103 -88 -141t-150 -38z" />
    <glyph glyph-name="uni01E2" unicode="&#x1e2;" horiz-adv-x="1875" 
d="M1239 1716h608v-102h-608v102zM147 270l914 1153h876v-307h-55q-15 108 -80.5 153.5t-218.5 45.5h-287l-135 -541h119q109 0 164 36t59 114h58v-408h-58q-4 80 -59.5 115t-165.5 35h-143l-140 -557h365q133 0 206.5 55.5t84.5 193.5h55v-358h-1071v53q91 22 128.5 60.5
t61.5 142.5l47 190h-446l-150 -190q-38 -47 -57 -76.5t-25.5 -56t7 -42.5t47.5 -28v-53h-377v53q82 27 143 76t133 141zM512 555h387l174 696h-12z" />
    <glyph glyph-name="uni01E3" unicode="&#x1e3;" horiz-adv-x="1562" 
d="M604 1296h606v-102h-606v102zM1155 993q177 0 270 -117t60 -284l-10 -45h-644q-6 -37 -6 -78q0 -161 82.5 -248.5t218.5 -87.5q153 0 271 96l47 -47q-73 -99 -175.5 -153t-215.5 -54q-127 0 -229.5 66.5t-147.5 183.5h-12q-181 -250 -406 -250q-101 0 -164 62.5
t-63 159.5q0 116 89 182.5t253 103.5l260 58l20 86q27 107 -22 167t-154 60q-146 0 -287 -96l-36 59q199 176 395 176q87 0 154 -36t104 -103h12q139 139 336 139zM852 643h455q20 112 -24.5 180t-143.5 68q-101 0 -176.5 -69t-110.5 -179zM561 248l49 201l-159 -46
q-117 -33 -174.5 -69.5t-57.5 -104.5q0 -54 29.5 -85t81.5 -31q122 0 231 135z" />
    <glyph glyph-name="AEacute" unicode="&#x1fc;" horiz-adv-x="1875" 
d="M1821 1833v-6l-324 -287h-92l158 293h258zM147 270l914 1153h876v-307h-55q-15 108 -80.5 153.5t-218.5 45.5h-287l-135 -541h119q109 0 164 36t59 114h58v-408h-58q-4 80 -59.5 115t-165.5 35h-143l-140 -557h365q133 0 206.5 55.5t84.5 193.5h55v-358h-1071v53
q91 22 128.5 60.5t61.5 142.5l47 190h-446l-150 -190q-38 -47 -57 -76.5t-25.5 -56t7 -42.5t47.5 -28v-53h-377v53q82 27 143 76t133 141zM512 555h387l174 696h-12z" />
    <glyph glyph-name="aeacute" unicode="&#x1fd;" horiz-adv-x="1562" 
d="M1184 1419v-8l-324 -285h-94l160 293h258zM1155 993q177 0 270 -117t60 -284l-10 -45h-644q-6 -37 -6 -78q0 -161 82.5 -248.5t218.5 -87.5q153 0 271 96l47 -47q-73 -99 -175.5 -153t-215.5 -54q-127 0 -229.5 66.5t-147.5 183.5h-12q-181 -250 -406 -250
q-101 0 -164 62.5t-63 159.5q0 116 89 182.5t253 103.5l260 58l20 86q27 107 -22 167t-154 60q-146 0 -287 -96l-36 59q199 176 395 176q87 0 154 -36t104 -103h12q139 139 336 139zM852 643h455q20 112 -24.5 180t-143.5 68q-101 0 -176.5 -69t-110.5 -179zM561 248l49 201
l-159 -46q-117 -33 -174.5 -69.5t-57.5 -104.5q0 -54 29.5 -85t81.5 -31q122 0 231 135z" />
    <glyph glyph-name="Oslashacute" unicode="&#x1fe;" horiz-adv-x="1619" 
d="M1327 1833v-6l-323 -287h-93l158 293h258zM1612 1493l67 -70l-211 -202q121 -158 121 -385q0 -169 -61.5 -325.5t-168.5 -275t-261.5 -189.5t-329.5 -71q-258 0 -432 156l-207 -199l-68 68l211 203q-122 156 -122 385q0 112 28 220.5t78.5 203t125 175.5t164 138.5
t199.5 90t228 32.5q256 0 430 -156zM379 563q0 -127 35 -223l866 834q-106 159 -313 159q-105 0 -199.5 -46.5t-164 -124.5t-121 -177.5t-77.5 -208t-26 -213.5zM1360 860q0 125 -35 221l-866 -831q107 -160 313 -160q105 0 199.5 46.5t164 124t121 177t77.5 208.5t26 214z
" />
    <glyph glyph-name="oslashacute" unicode="&#x1ff;" horiz-adv-x="1142" 
d="M1018 1419v-8l-324 -285h-94l160 293h258zM1016 1028l63 -59l-104 -113q92 -112 92 -272q0 -123 -44 -235t-119 -194.5t-182.5 -131t-227.5 -48.5q-154 0 -261 80l-110 -118l-62 59l111 119q-92 109 -92 270q0 165 74.5 304.5t207 221.5t293.5 82q148 0 256 -78zM287 352
q0 -52 10 -100l512 553q-54 78 -160 78q-84 0 -154.5 -48.5t-114.5 -126.5t-68.5 -170.5t-24.5 -185.5zM860 616q0 56 -12 103l-512 -553q53 -80 162 -80q83 0 153.5 48.5t115 126t69 170.5t24.5 185z" />
    <glyph glyph-name="uni0218" unicode="&#x218;" horiz-adv-x="1099" 
d="M766 1448q103 0 201.5 -27t171.5 -73v-287h-56q-85 276 -327 276q-123 0 -205 -69.5t-82 -182.5q0 -70 33.5 -124t107.5 -105l150 -104q110 -76 164.5 -157t54.5 -194q0 -129 -69 -227.5t-180 -148.5t-243 -50q-247 0 -436 144v293h55q122 -326 392 -326
q117 0 200.5 67.5t83.5 182.5q0 70 -39 123.5t-122 109.5l-142 99q-205 139 -205 356q0 188 140 306t352 118zM459 -90q45 0 75.5 -32.5t30.5 -78.5q0 -36 -16 -67.5t-49 -75.5l-144 -182h-90l176 215q-43 2 -71.5 30t-28.5 72q0 49 33 84t84 35z" />
    <glyph glyph-name="uni0219" unicode="&#x219;" horiz-adv-x="839" 
d="M530 993q147 0 275 -71v-203h-55q-25 81 -84.5 124.5t-149.5 43.5q-79 0 -134.5 -38t-55.5 -101q0 -45 24 -78t84 -74l111 -72q76 -49 113.5 -106.5t37.5 -136.5q0 -132 -104 -219t-258 -87q-174 0 -314 105v201h56q37 -98 104 -149.5t160 -51.5q81 0 132.5 36t51.5 105
q0 44 -23.5 76t-76.5 68l-111 75q-143 98 -143 246q0 131 102 219t258 88zM299 -90q45 0 76 -32.5t31 -78.5q0 -36 -16.5 -67t-49.5 -76l-143 -182h-91l177 215q-43 2 -72 30t-29 72q0 49 33 84t84 35z" />
    <glyph glyph-name="uni021A" unicode="&#x21a;" horiz-adv-x="1275" 
d="M242 1106v317h1183v-317h-55q-12 111 -93 162t-233 51h-94l-264 -1051q-28 -112 -9.5 -157t101.5 -58v-53h-497v53q94 15 132 57t68 158l262 1051h-131q-157 0 -231.5 -50.5t-83.5 -162.5h-55zM469 -90q45 0 75.5 -32.5t30.5 -78.5q0 -36 -16 -67.5t-49 -75.5l-143 -182
h-91l177 215q-43 2 -72 30t-29 72q0 49 33 84t84 35z" />
    <glyph glyph-name="uni021B" unicode="&#x21b;" horiz-adv-x="714" 
d="M778 854h-286l-154 -612q-19 -73 10 -108.5t88 -35.5q69 0 133 31l31 -57q-113 -97 -242 -97q-121 0 -179 81.5t-25 215.5l145 582h-178v88q57 3 98.5 10t74 24t54 35.5t40.5 53t32 67t31 87.5h131l-62 -250h258v-115zM221 -90q45 0 76 -32.5t31 -78.5q0 -36 -16.5 -67
t-49.5 -76l-143 -182h-90l176 215q-43 2 -72 30t-29 72q0 49 33 84t84 35z" />
    <glyph glyph-name="uni0226" unicode="&#x226;" horiz-adv-x="1402" 
d="M969 1561q-51 0 -84 33t-33 85q0 63 42.5 105.5t104.5 42.5q51 0 84 -32.5t33 -84.5q0 -64 -42.5 -106.5t-104.5 -42.5zM987 1423l184 -1165q16 -94 37 -134.5t76 -70.5v-53h-469v53q75 20 111 46t43.5 62.5t-0.5 88.5l-31 196h-555l-121 -190q-30 -49 -43 -76.5
t-14.5 -54t17 -42.5t59.5 -30v-53h-385v53q83 28 133 73.5t108 137.5l731 1159h119zM821 1141l-370 -586h471l-88 586h-13z" />
    <glyph glyph-name="uni0227" unicode="&#x227;" horiz-adv-x="1155" 
d="M719 1149q-53 0 -86 33.5t-33 85.5q0 62 44 104.5t106 42.5q51 0 83.5 -32.5t32.5 -84.5q0 -64 -42.5 -106.5t-104.5 -42.5zM395 -25q-141 0 -231 111t-90 287q0 114 42 225.5t113.5 199t176.5 141.5t223 54q84 0 156.5 -31.5t119.5 -89.5h13l120 97h62l-187 -750
q-19 -70 -10.5 -91.5t60.5 -27.5v-53l-287 -57h-12l36 149h-12q-120 -164 -293 -164zM461 119q48 0 92 17.5t80.5 49.5t61 60t50.5 65l74 301q31 122 -17.5 201.5t-156.5 79.5q-110 0 -199 -73t-135.5 -184.5t-46.5 -234.5q0 -131 52.5 -206.5t144.5 -75.5z" />
    <glyph glyph-name="uni0232" unicode="&#x232;" horiz-adv-x="1406" 
d="M696 1716h609v-102h-609v102zM1237 1370v53h383v-53q-86 -17 -143.5 -60t-122.5 -120l-520 -604l-91 -359q-21 -94 -4 -128t82 -46v-53h-465v53q84 10 121 46t60 128l94 373l-215 576q-33 88 -67.5 134t-98.5 60v53h477v-53q-41 -7 -66 -20t-37.5 -29.5t-13 -42.5t6 -53
t20.5 -66l158 -434h12l395 461q73 85 81.5 129t-46.5 55z" />
    <glyph glyph-name="uni0233" unicode="&#x233;" horiz-adv-x="1030" 
d="M391 1296h606v-102h-606v102zM823 915v54h307v-54q-68 -21 -103.5 -51.5t-76.5 -97.5l-544 -909q-102 -168 -188 -231.5t-193 -63.5q-79 0 -142 37v168q69 -29 154 -29q91 0 165.5 43t141.5 158l37 61l-137 743q-10 66 -38.5 93t-96.5 38v52l282 57l4 -20l37 -220
l84 -491h14l308 518q28 45 36 71.5t-3.5 44.5t-47.5 29z" />
    <glyph glyph-name="uni0237" unicode="&#x237;" horiz-adv-x="530" 
d="M-154 -438q-101 0 -182 51l33 70q56 -21 117 -21q81 0 132.5 46t78.5 153l217 872q18 74 5.5 100.5t-67.5 34.5v54l303 57h13l-277 -1104q-79 -313 -373 -313z" />
    <glyph glyph-name="circumflex" unicode="&#x2c6;" horiz-adv-x="718" 
d="M330 1126h-117l330 293h104l174 -293h-96l-156 136z" />
    <glyph glyph-name="caron" unicode="&#x2c7;" horiz-adv-x="718" 
d="M770 1419h117l-330 -293h-104l-174 293h98l155 -137z" />
    <glyph glyph-name="breve" unicode="&#x2d8;" horiz-adv-x="630" 
d="M485 1126q-110 0 -165.5 81t-32.5 212h82q-12 -71 23.5 -115t107.5 -44q78 0 130.5 43t78.5 116h86q-28 -136 -110 -214.5t-200 -78.5z" />
    <glyph glyph-name="dotaccent" unicode="&#x2d9;" horiz-adv-x="337" 
d="M348 1149q-51 0 -84 33.5t-33 85.5q0 63 43.5 105t106.5 42q50 0 82.5 -32.5t32.5 -84.5q0 -64 -43 -106.5t-105 -42.5z" />
    <glyph glyph-name="ring" unicode="&#x2da;" horiz-adv-x="499" 
d="M440 1085q-83 0 -139.5 56.5t-56.5 138.5q0 80 57 137.5t139 57.5q83 0 142 -57.5t59 -137.5q0 -82 -59 -138.5t-142 -56.5zM440 1171q46 0 76.5 30t30.5 79q0 47 -30.5 78t-76.5 31q-44 0 -74 -31t-30 -78q0 -49 29.5 -79t74.5 -30z" />
    <glyph glyph-name="ogonek" unicode="&#x2db;" horiz-adv-x="579" 
d="M104 -416q-77 0 -125.5 47.5t-48.5 122.5q0 97 89 165t237 106l55 -25q-137 -55 -198.5 -108t-61.5 -115q0 -44 27.5 -71.5t73.5 -27.5q55 0 102 35l35 -43q-74 -86 -185 -86z" />
    <glyph glyph-name="tilde" unicode="&#x2dc;" horiz-adv-x="712" 
d="M678 1135q-85 0 -154 63l-26 25q-42 37 -88 37q-86 0 -123 -117h-82q25 124 84 185t137 61q75 0 154 -62l30 -27q39 -34 86 -34q44 0 73 28t48 88h84q-25 -124 -84.5 -185.5t-138.5 -61.5z" />
    <glyph glyph-name="hungarumlaut" unicode="&#x2dd;" horiz-adv-x="716" 
d="M297 1126h-78l143 293h218v-8zM602 1126h-80l146 293h219v-8z" />
    <glyph glyph-name="Wgrave" unicode="&#x1e80;" horiz-adv-x="2011" 
d="M1284 1833l47 -293h-80l-192 287v6h225zM420 0l-60 1165q-6 93 -26.5 133.5t-81.5 71.5v53h465v-53q-101 -18 -133 -65.5t-27 -137.5l45 -843h12l521 884l-13 215h213l58 -1089h12l455 821q26 47 38 71t21 51.5t3.5 42t-21 27.5t-46.5 23v53h367v-53q-87 -26 -132.5 -70
t-100.5 -143l-641 -1157h-131l-56 1016h-12l-598 -1016h-131z" />
    <glyph glyph-name="wgrave" unicode="&#x1e81;" horiz-adv-x="1533" 
d="M954 1419l47 -293h-79l-193 285v8h225zM461 289h12l326 524l-13 156h185l61 -684h15l282 473q44 78 43 109t-47 48v54h299v-54q-65 -18 -101 -52t-83 -111l-451 -752h-98l-60 670h-12l-418 -670h-96l-69 756q-5 55 -31 82t-92 36v52l290 57l5 -49l18 -240z" />
    <glyph glyph-name="Wacute" unicode="&#x1e82;" horiz-adv-x="2011" 
d="M1245 1540h-92l158 293h258v-6zM420 0l-60 1165q-6 93 -26.5 133.5t-81.5 71.5v53h465v-53q-101 -18 -133 -65.5t-27 -137.5l45 -843h12l521 884l-13 215h213l58 -1089h12l455 821q26 47 38 71t21 51.5t3.5 42t-21 27.5t-46.5 23v53h367v-53q-87 -26 -132.5 -70
t-100.5 -143l-641 -1157h-131l-56 1016h-12l-598 -1016h-131z" />
    <glyph glyph-name="wacute" unicode="&#x1e83;" horiz-adv-x="1533" 
d="M905 1126h-94l160 293h258v-8zM461 289h12l326 524l-13 156h185l61 -684h15l282 473q44 78 43 109t-47 48v54h299v-54q-65 -18 -101 -52t-83 -111l-451 -752h-98l-60 670h-12l-418 -670h-96l-69 756q-5 55 -31 82t-92 36v52l290 57l5 -49l18 -240z" />
    <glyph glyph-name="Wdieresis" unicode="&#x1e84;" horiz-adv-x="2011" 
d="M1079 1563q-51 0 -82.5 32t-31.5 82q0 60 42 102t103 42q48 0 79.5 -32t31.5 -81q0 -62 -41.5 -103.5t-100.5 -41.5zM1462 1563q-49 0 -80.5 32t-31.5 82q0 60 41.5 102t101.5 42q48 0 80.5 -32t32.5 -81q0 -62 -42.5 -103.5t-101.5 -41.5zM420 0l-60 1165
q-6 93 -26.5 133.5t-81.5 71.5v53h465v-53q-101 -18 -133 -65.5t-27 -137.5l45 -843h12l521 884l-13 215h213l58 -1089h12l455 821q26 47 38 71t21 51.5t3.5 42t-21 27.5t-46.5 23v53h367v-53q-87 -26 -132.5 -70t-100.5 -143l-641 -1157h-131l-56 1016h-12l-598 -1016h-131
z" />
    <glyph glyph-name="wdieresis" unicode="&#x1e85;" horiz-adv-x="1533" 
d="M748 1151q-50 0 -81.5 32t-31.5 83q0 60 41.5 100.5t101.5 40.5q50 0 81.5 -31t31.5 -80q0 -62 -41.5 -103.5t-101.5 -41.5zM1133 1151q-50 0 -81.5 32t-31.5 83q0 60 41 100.5t102 40.5q48 0 79.5 -31t31.5 -80q0 -62 -41 -103.5t-100 -41.5zM461 289h12l326 524
l-13 156h185l61 -684h15l282 473q44 78 43 109t-47 48v54h299v-54q-65 -18 -101 -52t-83 -111l-451 -752h-98l-60 670h-12l-418 -670h-96l-69 756q-5 55 -31 82t-92 36v52l290 57l5 -49l18 -240z" />
    <glyph glyph-name="uni1E9E" unicode="&#x1e9e;" horiz-adv-x="1470" 
d="M467 1423h1063v-90l-539 -555q103 -15 184 -59t131 -121.5t50 -177.5q0 -130 -72.5 -232.5t-194.5 -157.5t-270 -55q-176 0 -303 84l41 82q38 -22 94.5 -36.5t112.5 -14.5q165 0 268 94.5t103 247.5q0 130 -82.5 198t-237.5 68h-59v93l497 512v12h-606l-330 -1315h-331
v53q90 21 126.5 59t63.5 146z" />
    <glyph glyph-name="uni1ECA" unicode="&#x1eca;" horiz-adv-x="686" 
d="M4 0v53q82 14 117.5 52.5t62.5 150.5l226 907q28 110 14 150t-86 57v53h461v-53q-84 -14 -119.5 -53.5t-63.5 -151.5l-225 -909q-25 -113 -9 -150t85 -53v-53h-463zM145 -414q-51 0 -83.5 33.5t-32.5 85.5q0 63 42.5 105.5t104.5 42.5q51 0 84 -32t33 -83
q0 -65 -43 -108.5t-105 -43.5z" />
    <glyph glyph-name="uni1ECB" unicode="&#x1ecb;" horiz-adv-x="559" 
d="M463 1149q-51 0 -84 33.5t-33 85.5q0 63 43.5 105t106.5 42q51 0 83.5 -32.5t32.5 -84.5q0 -64 -43.5 -106.5t-105.5 -42.5zM508 979l-197 -786q-19 -87 -9.5 -108.5t58.5 -31.5v-53h-366v53q64 9 84.5 32t42.5 110l135 540q18 72 6 98t-69 35v54l305 57h10zM86 -414
q-51 0 -84 33.5t-33 85.5q0 63 43 105.5t105 42.5q51 0 83.5 -32t32.5 -83q0 -65 -42.5 -108.5t-104.5 -43.5z" />
    <glyph glyph-name="uni1ECC" unicode="&#x1ecc;" horiz-adv-x="1617" 
d="M766 -25q-276 0 -447.5 171t-171.5 442q0 168 62 324.5t169 275t262 189.5t331 71q274 0 446 -171.5t172 -440.5q0 -169 -62 -325.5t-169 -275t-262 -189.5t-330 -71zM772 90q105 0 199.5 46.5t163.5 124t120.5 177t77 208t25.5 214.5q0 219 -105 346t-288 127
q-105 0 -199.5 -46.5t-163.5 -124.5t-120.5 -177.5t-77 -208t-25.5 -213.5q0 -222 105.5 -347.5t287.5 -125.5zM674 -414q-51 0 -84 33.5t-33 85.5q0 63 43 105.5t105 42.5q51 0 83.5 -32t32.5 -83q0 -65 -42.5 -108.5t-104.5 -43.5z" />
    <glyph glyph-name="uni1ECD" unicode="&#x1ecd;" horiz-adv-x="1140" 
d="M492 -25q-186 0 -300 114.5t-114 295.5q0 165 74.5 304.5t207 221.5t293.5 82q185 0 299.5 -114t114.5 -295q0 -123 -44 -235t-120 -194.5t-183.5 -131t-227.5 -48.5zM498 86q82 0 152 48.5t114.5 126t69 170.5t24.5 185q0 126 -55.5 196.5t-155.5 70.5
q-84 0 -154.5 -48.5t-114.5 -126.5t-68.5 -170.5t-24.5 -185.5q0 -127 56 -196.5t157 -69.5zM395 -414q-51 0 -83.5 33.5t-32.5 85.5q0 63 42.5 105.5t104.5 42.5q51 0 84 -32t33 -83q0 -65 -43 -108.5t-105 -43.5z" />
    <glyph glyph-name="uni1EE4" unicode="&#x1ee4;" 
d="M717 -25q-132 0 -237 44t-168.5 125t-84.5 196t15 256l143 575q20 67 18 107.5t-22.5 59.5t-71.5 32v53h465v-53q-81 -15 -118.5 -54.5t-63.5 -141.5l-148 -592q-53 -212 34 -331.5t276 -119.5q183 0 311.5 114t183.5 330l148 592q18 76 18.5 112.5t-17.5 56.5t-65 34v53
h375v-53q-89 -18 -127.5 -57.5t-64.5 -145.5l-152 -606q-70 -283 -232.5 -434.5t-414.5 -151.5zM621 -414q-51 0 -84 33.5t-33 85.5q0 63 42.5 105.5t104.5 42.5q51 0 84 -32t33 -83q0 -65 -42.5 -108.5t-104.5 -43.5z" />
    <glyph glyph-name="uni1EE5" unicode="&#x1ee5;" horiz-adv-x="1120" 
d="M360 -25q-81 0 -142.5 47.5t-86 131t1.5 198.5l94 377q20 66 8.5 96t-69.5 39v54l303 57h10l-160 -643q-24 -101 7.5 -158t109.5 -57q134 0 269 194l104 416q20 66 7.5 97t-71.5 40v54l308 57h10l-189 -752q-20 -73 -12.5 -94.5t60.5 -28.5v-53l-287 -57h-12l36 149h-12
q-121 -164 -287 -164zM385 -414q-51 0 -84 33.5t-33 85.5q0 63 43 105.5t105 42.5q51 0 83.5 -32t32.5 -83q0 -65 -42.5 -108.5t-104.5 -43.5z" />
    <glyph glyph-name="Ygrave" unicode="&#x1ef2;" horiz-adv-x="1406" 
d="M993 1833l47 -293h-79l-193 287v6h225zM1237 1370v53h383v-53q-86 -17 -143.5 -60t-122.5 -120l-520 -604l-91 -359q-21 -94 -4 -128t82 -46v-53h-465v53q84 10 121 46t60 128l94 373l-215 576q-33 88 -67.5 134t-98.5 60v53h477v-53q-41 -7 -66 -20t-37.5 -29.5
t-13 -42.5t6 -53t20.5 -66l158 -434h12l395 461q73 85 81.5 129t-46.5 55z" />
    <glyph glyph-name="ygrave" unicode="&#x1ef3;" horiz-adv-x="1030" 
d="M696 1419l47 -293h-79l-193 285v8h225zM823 915v54h307v-54q-68 -21 -103.5 -51.5t-76.5 -97.5l-544 -909q-102 -168 -188 -231.5t-193 -63.5q-79 0 -142 37v168q69 -29 154 -29q91 0 165.5 43t141.5 158l37 61l-137 743q-10 66 -38.5 93t-96.5 38v52l282 57l4 -20
l37 -220l84 -491h14l308 518q28 45 36 71.5t-3.5 44.5t-47.5 29z" />
    <glyph glyph-name="arrowleft" unicode="&#x2190;" horiz-adv-x="1415" 
d="M412 545h903v-109h-903v-14l331 -348l-53 -60l-598 475v3l598 475l53 -60l-331 -350v-12z" />
    <glyph glyph-name="arrowup" unicode="&#x2191;" horiz-adv-x="1083" 
d="M688 0h-115v1128h-12l-348 -329l-59 51l475 598h4l473 -598l-57 -51l-349 329h-12v-1128z" />
    <glyph glyph-name="arrowright" unicode="&#x2192;" horiz-adv-x="1415" 
d="M104 436v109h906v12l-332 350l51 60l598 -475v-3l-598 -475l-51 60l332 348v14h-906z" />
    <glyph glyph-name="arrowdown" unicode="&#x2193;" horiz-adv-x="1085" 
d="M526 295v1128h115v-1128h12l348 330l60 -52l-475 -598h-4l-476 598l60 52l348 -330h12z" />
    <glyph glyph-name="uniF8FF" unicode="&#xf8ff;" horiz-adv-x="1832" 
d="M457 328q-8 21 18 57q31 39 84 92q-95 -22 -133 -22q-115 0 -170 28q-54 26 -63 74q-9 45 53 92q-79 47 -115 88q-63 71 -76 135q-11 65 -4 106.5t33 86.5q45 79 109 125q38 27 131 65q59 26 108 41q105 33 225 45q34 3 98 13t93 14q97 13 242 -2q185 -20 337 -76
q94 -36 230 -139q86 -68 86 -188q0 -75 -43 -146q-29 -49 -66.5 -80.5t-105.5 -70.5q41 -44 53 -78q32 -88 -98 -121q-85 -21 -215 -12l-68 6q30 -40 41 -72q14 -46 -27 -55q-32 -6 -51.5 -0.5t-50.5 26.5q-68 -61 -121 -10q-42 -33 -68 -34.5t-59 28.5q-41 -22 -56.5 -21.5
t-37.5 25.5q-90 -70 -162 8q-37 -47 -80 -51q-19 -2 -42.5 3t-28.5 20zM989 1239q-130 0 -198 -4q-110 -7 -166 -21q-77 -18 -88 -49q-9 -17 6 -35q29 -33 73 -51q48 -20 138 -28q107 -10 243 -4q174 8 217 90q13 27 5 41q-16 27 -78 36q-13 2 -67 13.5t-85 11.5zM1151 717
q43 2 129 22q64 16 106 45q54 36 54 76q0 31 -4 45q-12 45 -50 68q-45 26 -90 26q-104 0 -157 -16q-117 -36 -140 -156q-3 -17 0 -34q4 -18 17 -30t37 -24q48 -25 98 -22zM563 696q14 0 27.5 2t33 7t25.5 6q55 13 93.5 57t33.5 84q-10 84 -78 113q-78 32 -184 24
q-66 -5 -137 -35q-101 -44 -101 -86q0 -44 17 -74t61 -51q37 -17 95 -32q55 -15 114 -15zM778 489q12 -4 17 -4q9 0 25.5 23t23.5 47q15 50 12 78q-3 20 -20 43q-12 12 -29 -2q-23 -14 -33 -41q-21 -50 -16 -86l6 -35q9 -18 14 -23zM963 489q5 5 14 23l6 35q5 36 -16 86
q-11 29 -35 41q-14 14 -27 2q-17 -23 -20 -43q-3 -28 12 -78q8 -25 23.5 -47.5t25.5 -22.5q5 0 17 4zM858 12q-92 8 -184 60q-23 12 -56.5 29.5t-45.5 24t-28.5 17t-31.5 21.5q-27 20 -43 43q-10 21 -4 31q8 13 19.5 17t37.5 -3.5t66 -30.5q14 14 23 21t25 11.5t36 2.5
q34 -4 59 -23q26 15 46 20.5t44.5 0t48.5 -26.5q39 31 66 33q26 2 59 -31l4.5 4.5t5.5 6t6 6t8.5 5.5t10.5 4.5t13.5 3.5t15.5 1q21 0 35 -7t19.5 -14t14.5 -24q18 23 31 33q23 18 39 22.5t43 -2.5q26 -7 47 -28q10 -8 8 -21t-20 -39q-21 -33 -123 -110q-83 -62 -184 -62
q-72 0 -111 4z" />
    <glyph glyph-name="AE.ss07" horiz-adv-x="1867" 
d="M147 270l914 1153h915l-75 -307h-58q14 105 -43.5 152t-212.5 47h-291l-135 -541h129q215 0 264 150h58l-103 -408h-57q14 78 -27.5 114t-146.5 36h-143l-140 -557h351q132 0 217.5 56.5t130.5 192.5h57l-90 -358h-1026v53q91 22 128.5 60.5t61.5 142.5l47 190h-446
l-150 -190q-29 -38 -46 -62t-28.5 -49t-10 -40.5t15 -29t41.5 -22.5v-53h-377v53q81 27 142 76.5t134 140.5zM512 555h387l174 696h-12z" />
    <glyph glyph-name="AEacute.ss07" horiz-adv-x="1867" 
d="M1819 1833v-6l-324 -287h-92l158 293h258zM147 270l914 1153h915l-75 -307h-58q14 105 -43.5 152t-212.5 47h-291l-135 -541h129q215 0 264 150h58l-103 -408h-57q14 78 -27.5 114t-146.5 36h-143l-140 -557h351q132 0 217.5 56.5t130.5 192.5h57l-90 -358h-1026v53
q91 22 128.5 60.5t61.5 142.5l47 190h-446l-150 -190q-29 -38 -46 -62t-28.5 -49t-10 -40.5t15 -29t41.5 -22.5v-53h-377v53q81 27 142 76.5t134 140.5zM512 555h387l174 696h-12z" />
    <glyph glyph-name="uni01E2.ss07" horiz-adv-x="1867" 
d="M1237 1716h608v-102h-608v102zM147 270l914 1153h915l-75 -307h-58q14 105 -43.5 152t-212.5 47h-291l-135 -541h129q215 0 264 150h58l-103 -408h-57q14 78 -27.5 114t-146.5 36h-143l-140 -557h351q132 0 217.5 56.5t130.5 192.5h57l-90 -358h-1026v53
q91 22 128.5 60.5t61.5 142.5l47 190h-446l-150 -190q-29 -38 -46 -62t-28.5 -49t-10 -40.5t15 -29t41.5 -22.5v-53h-377v53q81 27 142 76.5t134 140.5zM512 555h387l174 696h-12z" />
    <glyph glyph-name="C.ss07" horiz-adv-x="1398" 
d="M776 -25q-124 0 -237 44.5t-199.5 125t-138 202.5t-51.5 267q0 163 60 314t167 266.5t266 184.5t344 69q139 0 264 -34t207 -87l-72 -291h-57q-7 142 -101.5 220.5t-248.5 78.5q-172 0 -311 -97.5t-213 -252t-74 -330.5q0 -121 37 -219.5t101.5 -161.5t150 -97t184.5 -34
q232 0 420 170l51 -49q-119 -151 -253.5 -220t-295.5 -69z" />
    <glyph glyph-name="Cacute.ss07" horiz-adv-x="1398" 
d="M995 1540h-92l158 293h258v-6zM776 -25q-124 0 -237 44.5t-199.5 125t-138 202.5t-51.5 267q0 163 60 314t167 266.5t266 184.5t344 69q139 0 264 -34t207 -87l-72 -291h-57q-7 142 -101.5 220.5t-248.5 78.5q-172 0 -311 -97.5t-213 -252t-74 -330.5q0 -121 37 -219.5
t101.5 -161.5t150 -97t184.5 -34q232 0 420 170l51 -49q-119 -151 -253.5 -220t-295.5 -69z" />
    <glyph glyph-name="Ccaron.ss07" horiz-adv-x="1398" 
d="M1266 1827h116l-329 -291h-105l-174 291h98l156 -135zM776 -25q-124 0 -237 44.5t-199.5 125t-138 202.5t-51.5 267q0 163 60 314t167 266.5t266 184.5t344 69q139 0 264 -34t207 -87l-72 -291h-57q-7 142 -101.5 220.5t-248.5 78.5q-172 0 -311 -97.5t-213 -252
t-74 -330.5q0 -121 37 -219.5t101.5 -161.5t150 -97t184.5 -34q232 0 420 170l51 -49q-119 -151 -253.5 -220t-295.5 -69z" />
    <glyph glyph-name="Ccedilla.ss07" horiz-adv-x="1398" 
d="M987 1448q139 0 264 -34t207 -87l-72 -291h-57q-7 142 -101.5 220.5t-248.5 78.5q-172 0 -311 -97.5t-213 -252t-74 -330.5q0 -121 37 -219.5t101.5 -161.5t150 -97t184.5 -34q232 0 420 170l51 -49q-119 -151 -253.5 -220t-295.5 -69h-28l-52 -79l2 -2q21 6 43 6
q52 0 88.5 -37.5t36.5 -93.5q0 -80 -64.5 -133.5t-160.5 -53.5q-131 0 -211 107l39 41q60 -60 141 -60q55 0 93 26t38 68q0 32 -24.5 50t-63.5 18q-31 0 -63 -16l-8 6l96 160q-108 16 -203.5 67t-168 130t-114.5 191.5t-42 243.5q0 163 60 314t167 266.5t266 184.5t344 69z
" />
    <glyph glyph-name="Ccircumflex.ss07" horiz-adv-x="1398" 
d="M807 1540h-117l330 293h104l174 -293h-96l-155 137zM776 -25q-124 0 -237 44.5t-199.5 125t-138 202.5t-51.5 267q0 163 60 314t167 266.5t266 184.5t344 69q139 0 264 -34t207 -87l-72 -291h-57q-7 142 -101.5 220.5t-248.5 78.5q-172 0 -311 -97.5t-213 -252
t-74 -330.5q0 -121 37 -219.5t101.5 -161.5t150 -97t184.5 -34q232 0 420 170l51 -49q-119 -151 -253.5 -220t-295.5 -69z" />
    <glyph glyph-name="Cdotaccent.ss07" horiz-adv-x="1398" 
d="M1020 1561q-51 0 -84 33t-33 85q0 63 43 105.5t105 42.5q51 0 83.5 -32.5t32.5 -84.5q0 -64 -42.5 -106.5t-104.5 -42.5zM776 -25q-124 0 -237 44.5t-199.5 125t-138 202.5t-51.5 267q0 163 60 314t167 266.5t266 184.5t344 69q139 0 264 -34t207 -87l-72 -291h-57
q-7 142 -101.5 220.5t-248.5 78.5q-172 0 -311 -97.5t-213 -252t-74 -330.5q0 -121 37 -219.5t101.5 -161.5t150 -97t184.5 -34q232 0 420 170l51 -49q-119 -151 -253.5 -220t-295.5 -69z" />
    <glyph glyph-name="E.ss07" horiz-adv-x="1296" 
d="M1124 358h56l-88 -358h-1100v53q99 22 133 63.5t63 157.5l222 885q29 110 13.5 155t-83.5 56v53h1067l-78 -307h-57q17 107 -43 153t-213 46h-361l-135 -541h180q127 0 190.5 34t94.5 116h55l-100 -408h-57q11 80 -28 115t-157 35h-206l-140 -557h418q138 0 223 56.5
t131 192.5z" />
    <glyph glyph-name="Eacute.ss07" horiz-adv-x="1296" 
d="M922 1540h-93l158 293h258v-6zM1124 358h56l-88 -358h-1100v53q99 22 133 63.5t63 157.5l222 885q29 110 13.5 155t-83.5 56v53h1067l-78 -307h-57q17 107 -43 153t-213 46h-361l-135 -541h180q127 0 190.5 34t94.5 116h55l-100 -408h-57q11 80 -28 115t-157 35h-206
l-140 -557h418q138 0 223 56.5t131 192.5z" />
    <glyph glyph-name="Ebreve.ss07" horiz-adv-x="1296" 
d="M944 1540q-111 0 -167.5 81t-33.5 212h84q-14 -71 22.5 -114.5t108.5 -43.5q76 0 128.5 42.5t80.5 115.5h84q-28 -135 -109.5 -214t-197.5 -79zM1124 358h56l-88 -358h-1100v53q99 22 133 63.5t63 157.5l222 885q29 110 13.5 155t-83.5 56v53h1067l-78 -307h-57
q17 107 -43 153t-213 46h-361l-135 -541h180q127 0 190.5 34t94.5 116h55l-100 -408h-57q11 80 -28 115t-157 35h-206l-140 -557h418q138 0 223 56.5t131 192.5z" />
    <glyph glyph-name="Ecaron.ss07" horiz-adv-x="1296" 
d="M1192 1827h117l-330 -291h-105l-174 291h99l155 -135zM1124 358h56l-88 -358h-1100v53q99 22 133 63.5t63 157.5l222 885q29 110 13.5 155t-83.5 56v53h1067l-78 -307h-57q17 107 -43 153t-213 46h-361l-135 -541h180q127 0 190.5 34t94.5 116h55l-100 -408h-57
q11 80 -28 115t-157 35h-206l-140 -557h418q138 0 223 56.5t131 192.5z" />
    <glyph glyph-name="Ecircumflex.ss07" horiz-adv-x="1296" 
d="M733 1540h-117l330 293h105l174 -293h-97l-155 137zM1124 358h56l-88 -358h-1100v53q99 22 133 63.5t63 157.5l222 885q29 110 13.5 155t-83.5 56v53h1067l-78 -307h-57q17 107 -43 153t-213 46h-361l-135 -541h180q127 0 190.5 34t94.5 116h55l-100 -408h-57
q11 80 -28 115t-157 35h-206l-140 -557h418q138 0 223 56.5t131 192.5z" />
    <glyph glyph-name="Edieresis.ss07" horiz-adv-x="1296" 
d="M758 1563q-51 0 -83 32t-32 82q0 60 42 102t103 42q48 0 79.5 -32t31.5 -81q0 -62 -41 -103.5t-100 -41.5zM1141 1563q-49 0 -81 32t-32 82q0 60 41.5 102t101.5 42q48 0 80.5 -32t32.5 -81q0 -62 -42 -103.5t-101 -41.5zM1124 358h56l-88 -358h-1100v53q99 22 133 63.5
t63 157.5l222 885q29 110 13.5 155t-83.5 56v53h1067l-78 -307h-57q17 107 -43 153t-213 46h-361l-135 -541h180q127 0 190.5 34t94.5 116h55l-100 -408h-57q11 80 -28 115t-157 35h-206l-140 -557h418q138 0 223 56.5t131 192.5z" />
    <glyph glyph-name="Edotaccent.ss07" horiz-adv-x="1296" 
d="M946 1561q-51 0 -84 33t-33 85q0 63 43 105.5t105 42.5q51 0 84 -32.5t33 -84.5q0 -64 -43 -106.5t-105 -42.5zM1124 358h56l-88 -358h-1100v53q99 22 133 63.5t63 157.5l222 885q29 110 13.5 155t-83.5 56v53h1067l-78 -307h-57q17 107 -43 153t-213 46h-361l-135 -541
h180q127 0 190.5 34t94.5 116h55l-100 -408h-57q11 80 -28 115t-157 35h-206l-140 -557h418q138 0 223 56.5t131 192.5z" />
    <glyph glyph-name="Egrave.ss07" horiz-adv-x="1296" 
d="M961 1833l47 -293h-80l-193 287v6h226zM1124 358h56l-88 -358h-1100v53q99 22 133 63.5t63 157.5l222 885q29 110 13.5 155t-83.5 56v53h1067l-78 -307h-57q17 107 -43 153t-213 46h-361l-135 -541h180q127 0 190.5 34t94.5 116h55l-100 -408h-57q11 80 -28 115t-157 35
h-206l-140 -557h418q138 0 223 56.5t131 192.5z" />
    <glyph glyph-name="Emacron.ss07" horiz-adv-x="1296" 
d="M666 1614h608v102h-608v-102zM1124 358h56l-88 -358h-1100v53q99 22 133 63.5t63 157.5l222 885q29 110 13.5 155t-83.5 56v53h1067l-78 -307h-57q17 107 -43 153t-213 46h-361l-135 -541h180q127 0 190.5 34t94.5 116h55l-100 -408h-57q11 80 -28 115t-157 35h-206
l-140 -557h418q138 0 223 56.5t131 192.5z" />
    <glyph glyph-name="Eogonek.ss07" horiz-adv-x="1296" 
d="M340 1370v53h1067l-78 -307h-57q17 107 -43 153t-213 46h-361l-135 -541h180q127 0 190.5 34t94.5 116h55l-100 -408h-57q11 80 -28 115t-157 35h-206l-140 -557h418q138 0 223 56.5t131 192.5h56l-88 -358q-137 -55 -199 -108t-62 -115q0 -44 27.5 -71.5t73.5 -27.5
q57 0 104 35l33 -43q-74 -86 -182 -86q-78 0 -127 47.5t-49 122.5q0 158 243 246h-962v53q99 22 133 63.5t63 157.5l222 885q29 110 13.5 155t-83.5 56z" />
    <glyph glyph-name="F.ss07" horiz-adv-x="1179" 
d="M-4 0v53q92 20 127.5 60t62.5 149l224 889q32 107 20.5 156.5t-88.5 62.5v53h999l-77 -307h-58q14 109 -40 154t-201 45h-308l-139 -557h223q129 0 191 34t90 115h55l-100 -407h-57q8 82 -32.5 115.5t-156.5 33.5h-242l-98 -391q-26 -105 -10 -144.5t98 -60.5v-53h-483z
" />
    <glyph glyph-name="G.ss07" horiz-adv-x="1529" 
d="M1014 674v53h497v-53q-79 -13 -118.5 -55.5t-61.5 -131.5l-98 -393q-107 -60 -207.5 -89.5t-218.5 -29.5q-183 0 -332.5 80t-237 229.5t-87.5 340.5q0 165 66.5 315t183.5 262.5t288 179t369 66.5q300 0 520 -123l-72 -281h-55q-22 145 -123.5 218t-275.5 73
q-155 0 -284.5 -60.5t-213 -161.5t-129 -229t-45.5 -266q0 -245 122.5 -388.5t344.5 -143.5q86 0 188 29l92 377q22 91 -2.5 132t-109.5 50z" />
    <glyph glyph-name="Gbreve.ss07" horiz-adv-x="1529" 
d="M1038 1540q-111 0 -167 81t-33 212h84q-14 -71 22.5 -114.5t108.5 -43.5q76 0 128.5 42.5t80.5 115.5h84q-28 -135 -110 -214t-198 -79zM1014 674v53h497v-53q-79 -13 -118.5 -55.5t-61.5 -131.5l-98 -393q-107 -60 -207.5 -89.5t-218.5 -29.5q-183 0 -332.5 80
t-237 229.5t-87.5 340.5q0 165 66.5 315t183.5 262.5t288 179t369 66.5q300 0 520 -123l-72 -281h-55q-22 145 -123.5 218t-275.5 73q-155 0 -284.5 -60.5t-213 -161.5t-129 -229t-45.5 -266q0 -245 122.5 -388.5t344.5 -143.5q86 0 188 29l92 377q22 91 -2.5 132t-109.5 50
z" />
    <glyph glyph-name="Gcircumflex.ss07" horiz-adv-x="1529" 
d="M1221 1540l-156 137l-240 -137h-116l329 293h105l174 -293h-96zM1014 674v53h497v-53q-79 -13 -118.5 -55.5t-61.5 -131.5l-98 -393q-107 -60 -207.5 -89.5t-218.5 -29.5q-183 0 -332.5 80t-237 229.5t-87.5 340.5q0 165 66.5 315t183.5 262.5t288 179t369 66.5
q300 0 520 -123l-72 -281h-55q-22 145 -123.5 218t-275.5 73q-155 0 -284.5 -60.5t-213 -161.5t-129 -229t-45.5 -266q0 -245 122.5 -388.5t344.5 -143.5q86 0 188 29l92 377q22 91 -2.5 132t-109.5 50z" />
    <glyph glyph-name="uni0122.ss06" horiz-adv-x="1523" 
d="M1053 1335q-127 0 -236.5 -39.5t-188.5 -108t-136 -159.5t-85 -195.5t-28 -214.5q0 -245 121.5 -388.5t341.5 -143.5q90 0 192 29l92 377q22 91 -2.5 132t-109.5 50v53h497v-53q-81 -15 -119.5 -56.5t-60.5 -130.5l-98 -393q-107 -60 -208 -89.5t-220 -29.5
q-136 0 -256 47t-208.5 131t-139.5 207t-51 267q0 163 66 312.5t182.5 262t287.5 179.5t369 67q275 0 471 -109v-295h-56q-50 138 -161.5 214.5t-255.5 76.5zM602 -526h-59l170 411h200v-6z" />
    <glyph glyph-name="uni0122.ss06.ss07" horiz-adv-x="1529" 
d="M1014 674v53h497v-53q-79 -13 -118.5 -55.5t-61.5 -131.5l-98 -393q-107 -60 -207.5 -89.5t-218.5 -29.5q-183 0 -332.5 80t-237 229.5t-87.5 340.5q0 165 66.5 315t183.5 262.5t288 179t369 66.5q300 0 520 -123l-72 -281h-55q-22 145 -123.5 218t-275.5 73
q-155 0 -284.5 -60.5t-213 -161.5t-129 -229t-45.5 -266q0 -245 122.5 -388.5t344.5 -143.5q86 0 188 29l92 377q22 91 -2.5 132t-109.5 50zM598 -526h-59l170 411h200v-6z" />
    <glyph glyph-name="uni0122.ss07" horiz-adv-x="1529" 
d="M1014 674v53h497v-53q-79 -13 -118.5 -55.5t-61.5 -131.5l-98 -393q-107 -60 -207.5 -89.5t-218.5 -29.5q-183 0 -332.5 80t-237 229.5t-87.5 340.5q0 165 66.5 315t183.5 262.5t288 179t369 66.5q300 0 520 -123l-72 -281h-55q-22 145 -123.5 218t-275.5 73
q-155 0 -284.5 -60.5t-213 -161.5t-129 -229t-45.5 -266q0 -245 122.5 -388.5t344.5 -143.5q86 0 188 29l92 377q22 91 -2.5 132t-109.5 50zM762 -90q45 0 75.5 -32.5t30.5 -78.5q0 -36 -16 -67.5t-49 -75.5l-144 -182h-90l176 215q-43 2 -71.5 30t-28.5 72q0 49 33 84
t84 35z" />
    <glyph glyph-name="Gdotaccent.ss07" horiz-adv-x="1529" 
d="M1040 1561q-51 0 -83.5 33t-32.5 85q0 63 42.5 105.5t104.5 42.5q51 0 84 -32.5t33 -84.5q0 -64 -43 -106.5t-105 -42.5zM1014 674v53h497v-53q-79 -13 -118.5 -55.5t-61.5 -131.5l-98 -393q-107 -60 -207.5 -89.5t-218.5 -29.5q-183 0 -332.5 80t-237 229.5t-87.5 340.5
q0 165 66.5 315t183.5 262.5t288 179t369 66.5q300 0 520 -123l-72 -281h-55q-22 145 -123.5 218t-275.5 73q-155 0 -284.5 -60.5t-213 -161.5t-129 -229t-45.5 -266q0 -245 122.5 -388.5t344.5 -143.5q86 0 188 29l92 377q22 91 -2.5 132t-109.5 50z" />
    <glyph glyph-name="uni0136.ss06" horiz-adv-x="1411" 
d="M1595 1423v-53q-63 -9 -114.5 -26t-101 -48t-81 -55t-88.5 -72l-424 -362l531 -797v-10h-248l-436 676l-176 -152l-66 -264q-22 -71 -19.5 -113t23 -61t70.5 -33v-53h-461v53q83 17 117.5 56.5t62.5 148.5l230 918q25 93 11 135t-87 59v53h461v-53q-84 -17 -120 -56.5
t-61 -137.5l-116 -469h10l580 501q153 130 78 159q-3 2 -7 3v53h432zM510 -526h-59l170 411h200v-6z" />
    <glyph glyph-name="L.ss07" horiz-adv-x="1181" 
d="M-8 0v53q95 23 129.5 61t62.5 148l226 903q28 106 13 150.5t-85 54.5v53h465v-53q-84 -9 -120.5 -48t-64.5 -151l-266 -1062h338q71 0 120 11t95 42t83 89t71 150h57l-100 -401h-1024z" />
    <glyph glyph-name="Lacute.ss07" horiz-adv-x="1181" 
d="M598 1540h-92l158 293h258v-6zM-8 0v53q95 23 129.5 61t62.5 148l226 903q28 106 13 150.5t-85 54.5v53h465v-53q-84 -9 -120.5 -48t-64.5 -151l-266 -1062h338q71 0 120 11t95 42t83 89t71 150h57l-100 -401h-1024z" />
    <glyph glyph-name="Lcaron.ss06" horiz-adv-x="1200" 
d="M-8 0v53q95 23 129.5 61t62.5 148l226 903q28 106 13 150.5t-85 54.5v53h465v-53q-87 -9 -122 -48t-63 -153l-266 -1060h369q72 0 118 11t84 42t60.5 89t34.5 150h55v-401h-1081zM922 1032h-58l162 391h193v-6z" />
    <glyph glyph-name="Lcaron.ss06.ss07" horiz-adv-x="1185" 
d="M-8 0v53q95 23 129.5 61t62.5 148l226 903q28 106 13 150.5t-85 54.5v53h465v-53q-84 -9 -120.5 -48t-64.5 -151l-266 -1062h338q71 0 120 11t95 42t83 89t71 150h57l-100 -401h-1024zM922 1032h-58l162 391h193v-6z" />
    <glyph glyph-name="Lcaron.ss07" horiz-adv-x="1181" 
d="M1100 1202l-135 -172h-88l165 203q-40 2 -66 29.5t-26 68.5q0 46 31 79.5t80 33.5q42 0 72 -31t30 -74q0 -24 -10 -49.5t-20.5 -42t-32.5 -45.5zM352 109h338q71 0 120 11t95 42t83 89t71 150h57l-100 -401h-1024v53q95 23 129.5 61t62.5 148l226 903q28 106 13 150.5
t-85 54.5v53h465v-53q-84 -9 -120.5 -48t-64.5 -151z" />
    <glyph glyph-name="uni013B.ss06" horiz-adv-x="1196" 
d="M-8 0v53q95 23 129.5 61t62.5 148l226 903q28 106 13 150.5t-85 54.5v53h465v-53q-87 -9 -122 -48t-63 -153l-266 -1060h369q72 0 118 11t84 42t60.5 89t34.5 150h55v-401h-1081zM358 -526h-59l170 411h201v-6z" />
    <glyph glyph-name="uni013B.ss06.ss07" horiz-adv-x="1181" 
d="M-8 0v53q95 23 129.5 61t62.5 148l226 903q28 106 13 150.5t-85 54.5v53h465v-53q-84 -9 -120.5 -48t-64.5 -151l-266 -1062h338q71 0 120 11t95 42t83 89t71 150h57l-100 -401h-1024zM358 -526h-59l170 411h201v-6z" />
    <glyph glyph-name="uni013B.ss07" horiz-adv-x="1181" 
d="M1059 401h57l-100 -401h-1024v53q95 23 129.5 61t62.5 148l226 903q28 106 13 150.5t-85 54.5v53h465v-53q-84 -9 -120.5 -48t-64.5 -151l-266 -1062h338q71 0 120 11t95 42t83 89t71 150zM522 -90q45 0 76 -32.5t31 -78.5q0 -36 -16.5 -67t-49.5 -76l-143 -182h-90
l176 215q-43 2 -71.5 30t-28.5 72q0 49 32.5 84t83.5 35z" />
    <glyph glyph-name="Ldot.ss07" horiz-adv-x="1181" 
d="M-8 0v53q95 23 129.5 61t62.5 148l226 903q28 106 13 150.5t-85 54.5v53h465v-53q-84 -9 -120.5 -48t-64.5 -151l-266 -1062h338q71 0 120 11t95 42t83 89t71 150h57l-100 -401h-1024zM778 465q-56 0 -90.5 35.5t-34.5 91.5q0 64 44.5 108.5t109.5 44.5q55 0 91 -35.5
t36 -91.5q0 -67 -45 -110t-111 -43z" />
    <glyph glyph-name="Lslash.ss07" horiz-adv-x="1228" 
d="M1108 401h55l-98 -401h-1026v53q95 23 129.5 61t62.5 148l56 217l-203 -100v115l235 116l140 555q27 106 11.5 150.5t-85.5 54.5v53h467v-53q-85 -9 -121 -47.5t-65 -151.5l-111 -444l418 207v-115l-451 -223l-123 -487h338q71 0 120 11t95.5 42t83.5 89t72 150z" />
    <glyph glyph-name="uni0145.ss06" horiz-adv-x="1560" 
d="M-10 0v53q90 19 126 57.5t64 145.5l256 1034l-59 125v8h266l514 -1116h12l217 869q26 96 13.5 135t-80.5 59v53h373v-53q-87 -19 -125.5 -59.5t-63.5 -139.5l-291 -1171h-133l-544 1163h-13l-225 -909q-17 -72 -17.5 -108.5t18.5 -57.5t67 -35v-53h-375zM516 -526h-59
l170 411h200v-6z" />
    <glyph glyph-name="OE.ss07" horiz-adv-x="1886" 
d="M1681 0h-884q-192 0 -339 73t-229 211.5t-82 323.5q0 161 65.5 309t180.5 260t284 179t363 67h957l-78 -307h-57q15 106 -42.5 152.5t-209.5 46.5h-293l-135 -541h125q109 0 175 36t93 114h55l-100 -408h-57q14 78 -26 114t-144 36h-148l-139 -557h344q135 0 222 55
t132 194h58zM784 109h21l303 1206h-72q-151 0 -278 -63t-208 -165.5t-126 -230t-45 -260.5q0 -230 110.5 -358.5t294.5 -128.5z" />
    <glyph glyph-name="Q.ss04" horiz-adv-x="1626" 
d="M1589 836q0 -204 -87.5 -387.5t-241.5 -303.5l229 -186v-131l-318 258q-186 -111 -405 -111q-276 0 -447.5 171t-171.5 442q0 168 62 324.5t169 275t262 189.5t331 71q274 0 446 -171.5t172 -440.5zM772 90q152 0 279 94l-199 160v131l274 -223q108 113 170 279t62 329
q0 219 -105 346t-288 127q-105 0 -199.5 -46.5t-163.5 -124.5t-120.5 -177.5t-77 -208t-25.5 -213.5q0 -222 105.5 -347.5t287.5 -125.5z" />
    <glyph glyph-name="Q.ss07" horiz-adv-x="1615" 
d="M1120 117v-15h488l-45 -186h-13l-540 102q-125 -43 -254 -43q-179 0 -318.5 77.5t-217 217t-77.5 318.5q0 168 61.5 324.5t167.5 275t260.5 189.5t330.5 71q180 0 319.5 -78t216 -217.5t76.5 -316.5q0 -250 -126 -439.5t-329 -279.5zM375 563q0 -221 104.5 -347
t282.5 -126q131 0 243.5 71t184.5 184t112.5 247.5t40.5 267.5q0 220 -104.5 346.5t-280.5 126.5q-104 0 -198 -46.5t-163 -124.5t-120 -177.5t-76.5 -208t-25.5 -213.5z" />
    <glyph glyph-name="uni0156.ss06" horiz-adv-x="1359" 
d="M1319 1087q0 -158 -133 -261.5t-355 -123.5l451 -692v-10h-238l-434 692h-106l-113 -446q-27 -95 -12.5 -137t90.5 -56v-53h-467v53q88 13 123 51.5t59 139.5l228 917q32 105 20 152t-90 57v53h502q210 0 342.5 -94.5t132.5 -241.5zM657 1315l-129 -516h166
q187 0 298.5 80t111.5 219q0 106 -77.5 161.5t-217.5 55.5h-152zM483 -526h-59l170 411h201v-6z" />
    <glyph glyph-name="S.ss07" horiz-adv-x="1101" 
d="M483 -25q-139 0 -264 48.5t-203 123.5l66 265h55q22 -167 118 -246.5t234 -79.5q127 0 210 68t83 180q0 72 -39 126t-122 111l-142 97q-205 140 -205 356q0 184 138 304t362 120q117 0 223 -34t185 -85l-68 -268h-55q-9 136 -89.5 206t-207.5 70q-133 0 -213 -70.5
t-80 -183.5q0 -68 34 -123t113 -108l144 -100q111 -76 165 -157.5t54 -191.5q0 -129 -68 -228t-180 -149.5t-248 -50.5z" />
    <glyph glyph-name="Sacute.ss07" horiz-adv-x="1101" 
d="M778 1540h-92l158 293h258v-6zM483 -25q-139 0 -264 48.5t-203 123.5l66 265h55q22 -167 118 -246.5t234 -79.5q127 0 210 68t83 180q0 72 -39 126t-122 111l-142 97q-205 140 -205 356q0 184 138 304t362 120q117 0 223 -34t185 -85l-68 -268h-55q-9 136 -89.5 206
t-207.5 70q-133 0 -213 -70.5t-80 -183.5q0 -68 34 -123t113 -108l144 -100q111 -76 165 -157.5t54 -191.5q0 -129 -68 -228t-180 -149.5t-248 -50.5z" />
    <glyph glyph-name="Scaron.ss07" horiz-adv-x="1101" 
d="M1049 1827h116l-329 -291h-105l-174 291h98l156 -135zM483 -25q-139 0 -264 48.5t-203 123.5l66 265h55q22 -167 118 -246.5t234 -79.5q127 0 210 68t83 180q0 72 -39 126t-122 111l-142 97q-205 140 -205 356q0 184 138 304t362 120q117 0 223 -34t185 -85l-68 -268h-55
q-9 136 -89.5 206t-207.5 70q-133 0 -213 -70.5t-80 -183.5q0 -68 34 -123t113 -108l144 -100q111 -76 165 -157.5t54 -191.5q0 -129 -68 -228t-180 -149.5t-248 -50.5z" />
    <glyph glyph-name="Scedilla.ss07" horiz-adv-x="1101" 
d="M774 1448q117 0 223 -34t185 -85l-68 -268h-55q-9 136 -89.5 206t-207.5 70q-133 0 -213 -70.5t-80 -183.5q0 -68 34 -123t113 -108l144 -100q111 -76 165 -157.5t54 -191.5q0 -185 -131 -301t-328 -127l-51 -79l2 -2q21 6 43 6q52 0 88.5 -37.5t36.5 -93.5
q0 -80 -64.5 -133.5t-160.5 -53.5q-131 0 -211 107l39 41q60 -60 141 -60q55 0 93 26t38 68q0 32 -24.5 50t-63.5 18q-32 0 -64 -16l-8 6l95 153q-130 7 -245.5 55t-187.5 117l66 265h55q22 -167 118 -246.5t234 -79.5q127 0 210 68t83 180q0 72 -39 126t-122 111l-142 97
q-205 140 -205 356q0 184 138 304t362 120z" />
    <glyph glyph-name="Scircumflex.ss07" horiz-adv-x="1101" 
d="M590 1540h-117l330 293h104l174 -293h-96l-156 137zM483 -25q-139 0 -264 48.5t-203 123.5l66 265h55q22 -167 118 -246.5t234 -79.5q127 0 210 68t83 180q0 72 -39 126t-122 111l-142 97q-205 140 -205 356q0 184 138 304t362 120q117 0 223 -34t185 -85l-68 -268h-55
q-9 136 -89.5 206t-207.5 70q-133 0 -213 -70.5t-80 -183.5q0 -68 34 -123t113 -108l144 -100q111 -76 165 -157.5t54 -191.5q0 -129 -68 -228t-180 -149.5t-248 -50.5z" />
    <glyph glyph-name="uni0218.ss06" horiz-adv-x="1099" 
d="M487 -25q-247 0 -436 144v293h55q122 -326 392 -326q117 0 200.5 67.5t83.5 182.5q0 70 -39 123.5t-122 109.5l-142 99q-205 139 -205 356q0 188 140 306t352 118q103 0 201.5 -27t171.5 -73v-287h-56q-85 276 -327 276q-123 0 -205 -69.5t-82 -182.5q0 -70 33.5 -124
t107.5 -105l150 -104q110 -76 164.5 -157t54.5 -194q0 -129 -69 -227.5t-180 -148.5t-243 -50zM295 -526h-59l170 411h200v-6z" />
    <glyph glyph-name="uni0218.ss06.ss07" horiz-adv-x="1101" 
d="M483 -25q-139 0 -264 48.5t-203 123.5l66 265h55q22 -167 118 -246.5t234 -79.5q127 0 210 68t83 180q0 72 -39 126t-122 111l-142 97q-205 140 -205 356q0 184 138 304t362 120q117 0 223 -34t185 -85l-68 -268h-55q-9 136 -89.5 206t-207.5 70q-133 0 -213 -70.5
t-80 -183.5q0 -68 34 -123t113 -108l144 -100q111 -76 165 -157.5t54 -191.5q0 -129 -68 -228t-180 -149.5t-248 -50.5zM289 -526h-60l170 411h201v-6z" />
    <glyph glyph-name="uni0218.ss07" horiz-adv-x="1101" 
d="M774 1448q117 0 223 -34t185 -85l-68 -268h-55q-9 136 -89.5 206t-207.5 70q-133 0 -213 -70.5t-80 -183.5q0 -68 34 -123t113 -108l144 -100q111 -76 165 -157.5t54 -191.5q0 -129 -68 -228t-180 -149.5t-248 -50.5q-139 0 -264 48.5t-203 123.5l66 265h55
q22 -167 118 -246.5t234 -79.5q127 0 210 68t83 180q0 72 -39 126t-122 111l-142 97q-205 140 -205 356q0 184 138 304t362 120zM455 -90q45 0 75.5 -32.5t30.5 -78.5q0 -36 -16 -67.5t-49 -75.5l-144 -182h-90l176 215q-43 2 -71.5 30t-28.5 72q0 49 33 84t84 35z" />
    <glyph glyph-name="T.ss07" horiz-adv-x="1271" 
d="M281 0v53q94 15 132 57t68 158l262 1051h-137q-150 0 -231 -50.5t-121 -162.5h-57l79 317h1188l-80 -317h-57q18 111 -50.5 162t-223.5 51h-103l-264 -1051q-28 -112 -9.5 -157t101.5 -58v-53h-497z" />
    <glyph glyph-name="Tbar.ss07" horiz-adv-x="1271" 
d="M197 1106l79 317h1188l-80 -317h-57q18 111 -50.5 162t-223.5 51h-103l-127 -508h260v-92h-284l-113 -451q-28 -112 -9.5 -157t101.5 -58v-53h-497v53q94 15 132 57t68 158l113 451h-264v92h286l127 508h-137q-150 0 -231 -50.5t-121 -162.5h-57z" />
    <glyph glyph-name="Tcaron.ss07" horiz-adv-x="1271" 
d="M1159 1827h117l-330 -291h-104l-174 291h98l156 -135zM281 0v53q94 15 132 57t68 158l262 1051h-137q-150 0 -231 -50.5t-121 -162.5h-57l79 317h1188l-80 -317h-57q18 111 -50.5 162t-223.5 51h-103l-264 -1051q-28 -112 -9.5 -157t101.5 -58v-53h-497z" />
    <glyph glyph-name="uni0162.ss07" horiz-adv-x="1271" 
d="M197 1106l79 317h1188l-80 -317h-57q18 111 -50.5 162t-223.5 51h-103l-264 -1051q-28 -112 -9.5 -157t101.5 -58v-53h-229l-66 -104l2 -2q21 6 43 6q52 0 88.5 -37.5t36.5 -93.5q0 -80 -64.5 -133.5t-160.5 -53.5q-131 0 -211 107l39 41q60 -60 141 -60q55 0 93 26
t38 68q0 32 -24.5 50t-63.5 18q-31 0 -63 -16l-8 6l108 178h-196v53q94 15 132 57t68 158l262 1051h-137q-150 0 -231 -50.5t-121 -162.5h-57z" />
    <glyph glyph-name="uni021A.ss06" horiz-adv-x="1275" 
d="M281 0v53q94 15 132 57t68 158l262 1051h-131q-157 0 -231.5 -50.5t-83.5 -162.5h-55v317h1183v-317h-55q-12 111 -93 162t-233 51h-94l-264 -1051q-28 -112 -9.5 -157t101.5 -58v-53h-497zM303 -526h-59l170 411h200v-6z" />
    <glyph glyph-name="uni021A.ss06.ss07" horiz-adv-x="1271" 
d="M281 0v53q94 15 132 57t68 158l262 1051h-137q-150 0 -231 -50.5t-121 -162.5h-57l79 317h1188l-80 -317h-57q18 111 -50.5 162t-223.5 51h-103l-264 -1051q-28 -112 -9.5 -157t101.5 -58v-53h-497zM303 -526h-59l170 411h200v-6z" />
    <glyph glyph-name="uni021A.ss07" horiz-adv-x="1271" 
d="M197 1106l79 317h1188l-80 -317h-57q18 111 -50.5 162t-223.5 51h-103l-264 -1051q-28 -112 -9.5 -157t101.5 -58v-53h-497v53q94 15 132 57t68 158l262 1051h-137q-150 0 -231 -50.5t-121 -162.5h-57zM469 -90q45 0 75.5 -32.5t30.5 -78.5q0 -36 -16 -67.5t-49 -75.5
l-143 -182h-91l177 215q-43 2 -72 30t-29 72q0 49 33 84t84 35z" />
    <glyph glyph-name="Z.ss07" horiz-adv-x="1239" 
d="M1030 0h-1050v96l1103 1211v8h-436q-131 0 -214 -55t-132 -179h-55l86 342h1034v-96l-1104 -1210v-8h422q146 0 235 57t150 207h53z" />
    <glyph glyph-name="Zacute.ss07" horiz-adv-x="1239" 
d="M846 1540h-92l157 293h258v-6zM1030 0h-1050v96l1103 1211v8h-436q-131 0 -214 -55t-132 -179h-55l86 342h1034v-96l-1104 -1210v-8h422q146 0 235 57t150 207h53z" />
    <glyph glyph-name="Zcaron.ss07" horiz-adv-x="1239" 
d="M1114 1827h117l-330 -291h-104l-174 291h98l156 -135zM1030 0h-1050v96l1103 1211v8h-436q-131 0 -214 -55t-132 -179h-55l86 342h1034v-96l-1104 -1210v-8h422q146 0 235 57t150 207h53z" />
    <glyph glyph-name="Zdotaccent.ss07" horiz-adv-x="1239" 
d="M870 1561q-51 0 -83.5 33t-32.5 85q0 63 42.5 105.5t104.5 42.5q51 0 84 -32.5t33 -84.5q0 -64 -43 -106.5t-105 -42.5zM1030 0h-1050v96l1103 1211v8h-436q-131 0 -214 -55t-132 -179h-55l86 342h1034v-96l-1104 -1210v-8h422q146 0 235 57t150 207h53z" />
    <glyph glyph-name="a.ss01" horiz-adv-x="999" 
d="M848 104l22 -55q-96 -69 -204 -69q-65 0 -103 40t-28 109h-13q-126 -154 -274 -154q-92 0 -154.5 62t-62.5 160q0 62 26 110.5t75.5 82t109.5 56.5t141 41l250 54l20 84q27 109 -22 169t-152 60q-146 0 -289 -96l-36 59q199 176 401 176q155 0 240 -113t43 -282
l-107 -430q-22 -82 45 -82q36 0 72 18zM563 266l45 180l-162 -45q-114 -31 -170.5 -67.5t-56.5 -104.5q0 -55 31 -85.5t80 -30.5q107 0 233 153z" />
    <glyph glyph-name="a.ss02" horiz-adv-x="970" 
d="M838 598l-95 -379q-19 -66 -11 -89t61 -30v-53l-285 -57h-12l34 139h-12q-119 -154 -272 -154q-91 0 -153 62t-62 160q0 61 26.5 110t75.5 82t105.5 55t130.5 39l264 58l20 84q27 109 -22 169t-150 60q-148 0 -291 -96l-36 59q199 176 401 176q100 0 174.5 -49.5
t105.5 -141t3 -204.5zM330 113q107 0 233 153l45 180l-162 -45q-114 -31 -170.5 -67.5t-56.5 -104.5q0 -55 31 -85.5t80 -30.5z" />
    <glyph glyph-name="aacute.ss01" horiz-adv-x="999" 
d="M487 1126l160 293h258v-8l-323 -285h-95zM776 86q36 0 72 18l22 -55q-96 -69 -204 -69q-65 0 -103 40t-28 109h-13q-126 -154 -274 -154q-92 0 -154.5 62t-62.5 160q0 62 26 110.5t75.5 82t109.5 56.5t141 41l250 54l20 84q27 109 -22 169t-152 60q-146 0 -289 -96
l-36 59q199 176 401 176q155 0 240 -113t43 -282l-107 -430q-22 -82 45 -82zM563 266l45 180l-162 -45q-114 -31 -170.5 -67.5t-56.5 -104.5q0 -55 31 -85.5t80 -30.5q107 0 233 153z" />
    <glyph glyph-name="aacute.ss02" horiz-adv-x="970" 
d="M487 1126l160 293h258v-8l-323 -285h-95zM555 993q100 0 174.5 -49.5t105.5 -141t3 -204.5l-95 -379q-19 -66 -11 -89t61 -30v-53l-285 -57h-12l34 139h-12q-119 -154 -272 -154q-91 0 -153 62t-62 160q0 61 26.5 110t75.5 82t105.5 55t130.5 39l264 58l20 84
q27 109 -22 169t-150 60q-148 0 -291 -96l-36 59q199 176 401 176zM330 113q107 0 233 153l45 180l-162 -45q-114 -31 -170.5 -67.5t-56.5 -104.5q0 -55 31 -85.5t80 -30.5z" />
    <glyph glyph-name="abreve.ss01" horiz-adv-x="999" 
d="M606 1126q-111 0 -167 81t-33 212h83q-13 -70 23.5 -114.5t108.5 -44.5q76 0 128 43t80 116h84q-28 -136 -109.5 -214.5t-197.5 -78.5zM776 86q36 0 72 18l22 -55q-96 -69 -204 -69q-65 0 -103 40t-28 109h-13q-126 -154 -274 -154q-92 0 -154.5 62t-62.5 160
q0 62 26 110.5t75.5 82t109.5 56.5t141 41l250 54l20 84q27 109 -22 169t-152 60q-146 0 -289 -96l-36 59q199 176 401 176q155 0 240 -113t43 -282l-107 -430q-22 -82 45 -82zM563 266l45 180l-162 -45q-114 -31 -170.5 -67.5t-56.5 -104.5q0 -55 31 -85.5t80 -30.5
q107 0 233 153z" />
    <glyph glyph-name="abreve.ss02" horiz-adv-x="970" 
d="M606 1126q-111 0 -167 81t-33 212h83q-13 -70 23.5 -114.5t108.5 -44.5q76 0 128 43t80 116h84q-28 -136 -109.5 -214.5t-197.5 -78.5zM555 993q100 0 174.5 -49.5t105.5 -141t3 -204.5l-95 -379q-19 -66 -11 -89t61 -30v-53l-285 -57h-12l34 139h-12
q-119 -154 -272 -154q-91 0 -153 62t-62 160q0 61 26.5 110t75.5 82t105.5 55t130.5 39l264 58l20 84q27 109 -22 169t-150 60q-148 0 -291 -96l-36 59q199 176 401 176zM330 113q107 0 233 153l45 180l-162 -45q-114 -31 -170.5 -67.5t-56.5 -104.5q0 -55 31 -85.5
t80 -30.5z" />
    <glyph glyph-name="acircumflex.ss01" horiz-adv-x="999" 
d="M791 1126l-156 136l-240 -136h-116l329 293h105l174 -293h-96zM776 86q36 0 72 18l22 -55q-96 -69 -204 -69q-65 0 -103 40t-28 109h-13q-126 -154 -274 -154q-92 0 -154.5 62t-62.5 160q0 62 26 110.5t75.5 82t109.5 56.5t141 41l250 54l20 84q27 109 -22 169t-152 60
q-146 0 -289 -96l-36 59q199 176 401 176q155 0 240 -113t43 -282l-107 -430q-22 -82 45 -82zM563 266l45 180l-162 -45q-114 -31 -170.5 -67.5t-56.5 -104.5q0 -55 31 -85.5t80 -30.5q107 0 233 153z" />
    <glyph glyph-name="acircumflex.ss02" horiz-adv-x="970" 
d="M791 1126l-156 136l-240 -136h-116l329 293h105l174 -293h-96zM555 993q100 0 174.5 -49.5t105.5 -141t3 -204.5l-95 -379q-19 -66 -11 -89t61 -30v-53l-285 -57h-12l34 139h-12q-119 -154 -272 -154q-91 0 -153 62t-62 160q0 61 26.5 110t75.5 82t105.5 55t130.5 39
l264 58l20 84q27 109 -22 169t-150 60q-148 0 -291 -96l-36 59q199 176 401 176zM330 113q107 0 233 153l45 180l-162 -45q-114 -31 -170.5 -67.5t-56.5 -104.5q0 -55 31 -85.5t80 -30.5z" />
    <glyph glyph-name="adieresis.ss01" horiz-adv-x="999" 
d="M424 1151q-50 0 -81.5 32t-31.5 83q0 60 42 100.5t102 40.5q50 0 81 -31t31 -80q0 -62 -41.5 -103.5t-101.5 -41.5zM840 1407q48 0 79 -31t31 -80q0 -62 -41 -103.5t-100 -41.5q-50 0 -81.5 32t-31.5 83q0 60 41.5 100.5t102.5 40.5zM776 86q36 0 72 18l22 -55
q-96 -69 -204 -69q-65 0 -103 40t-28 109h-13q-126 -154 -274 -154q-92 0 -154.5 62t-62.5 160q0 62 26 110.5t75.5 82t109.5 56.5t141 41l250 54l20 84q27 109 -22 169t-152 60q-146 0 -289 -96l-36 59q199 176 401 176q155 0 240 -113t43 -282l-107 -430q-22 -82 45 -82z
M563 266l45 180l-162 -45q-114 -31 -170.5 -67.5t-56.5 -104.5q0 -55 31 -85.5t80 -30.5q107 0 233 153z" />
    <glyph glyph-name="adieresis.ss02" horiz-adv-x="970" 
d="M424 1151q-50 0 -81.5 32t-31.5 83q0 60 42 100.5t102 40.5q50 0 81 -31t31 -80q0 -62 -41.5 -103.5t-101.5 -41.5zM840 1407q48 0 79 -31t31 -80q0 -62 -41 -103.5t-100 -41.5q-50 0 -81.5 32t-31.5 83q0 60 41.5 100.5t102.5 40.5zM555 993q100 0 174.5 -49.5
t105.5 -141t3 -204.5l-95 -379q-19 -66 -11 -89t61 -30v-53l-285 -57h-12l34 139h-12q-119 -154 -272 -154q-91 0 -153 62t-62 160q0 61 26.5 110t75.5 82t105.5 55t130.5 39l264 58l20 84q27 109 -22 169t-150 60q-148 0 -291 -96l-36 59q199 176 401 176zM330 113
q107 0 233 153l45 180l-162 -45q-114 -31 -170.5 -67.5t-56.5 -104.5q0 -55 31 -85.5t80 -30.5z" />
    <glyph glyph-name="uni0227.ss01" horiz-adv-x="999" 
d="M621 1149q-53 0 -86 33.5t-33 85.5q0 62 43.5 104.5t105.5 42.5q51 0 84 -32.5t33 -84.5q0 -64 -42.5 -106.5t-104.5 -42.5zM848 104l22 -55q-96 -69 -204 -69q-65 0 -103 40t-28 109h-13q-126 -154 -274 -154q-92 0 -154.5 62t-62.5 160q0 62 26 110.5t75.5 82
t109.5 56.5t141 41l250 54l20 84q27 109 -22 169t-152 60q-146 0 -289 -96l-36 59q199 176 401 176q155 0 240 -113t43 -282l-107 -430q-22 -82 45 -82q36 0 72 18zM563 266l45 180l-162 -45q-114 -31 -170.5 -67.5t-56.5 -104.5q0 -55 31 -85.5t80 -30.5q107 0 233 153z
" />
    <glyph glyph-name="uni0227.ss02" horiz-adv-x="970" 
d="M621 1149q-53 0 -86 33.5t-33 85.5q0 62 43.5 104.5t105.5 42.5q51 0 84 -32.5t33 -84.5q0 -64 -42.5 -106.5t-104.5 -42.5zM838 598l-95 -379q-19 -66 -11 -89t61 -30v-53l-285 -57h-12l34 139h-12q-119 -154 -272 -154q-91 0 -153 62t-62 160q0 61 26.5 110t75.5 82
t105.5 55t130.5 39l264 58l20 84q27 109 -22 169t-150 60q-148 0 -291 -96l-36 59q199 176 401 176q100 0 174.5 -49.5t105.5 -141t3 -204.5zM330 113q107 0 233 153l45 180l-162 -45q-114 -31 -170.5 -67.5t-56.5 -104.5q0 -55 31 -85.5t80 -30.5z" />
    <glyph glyph-name="agrave.ss01" horiz-adv-x="999" 
d="M631 1419l47 -293h-80l-192 285v8h225zM848 104l22 -55q-96 -69 -204 -69q-65 0 -103 40t-28 109h-13q-126 -154 -274 -154q-92 0 -154.5 62t-62.5 160q0 62 26 110.5t75.5 82t109.5 56.5t141 41l250 54l20 84q27 109 -22 169t-152 60q-146 0 -289 -96l-36 59
q199 176 401 176q155 0 240 -113t43 -282l-107 -430q-22 -82 45 -82q36 0 72 18zM563 266l45 180l-162 -45q-114 -31 -170.5 -67.5t-56.5 -104.5q0 -55 31 -85.5t80 -30.5q107 0 233 153z" />
    <glyph glyph-name="agrave.ss02" horiz-adv-x="970" 
d="M631 1419l47 -293h-80l-192 285v8h225zM838 598l-95 -379q-19 -66 -11 -89t61 -30v-53l-285 -57h-12l34 139h-12q-119 -154 -272 -154q-91 0 -153 62t-62 160q0 61 26.5 110t75.5 82t105.5 55t130.5 39l264 58l20 84q27 109 -22 169t-150 60q-148 0 -291 -96l-36 59
q199 176 401 176q100 0 174.5 -49.5t105.5 -141t3 -204.5zM330 113q107 0 233 153l45 180l-162 -45q-114 -31 -170.5 -67.5t-56.5 -104.5q0 -55 31 -85.5t80 -30.5z" />
    <glyph glyph-name="amacron.ss01" horiz-adv-x="999" 
d="M326 1194v102h606v-102h-606zM776 86q36 0 72 18l22 -55q-96 -69 -204 -69q-65 0 -103 40t-28 109h-13q-126 -154 -274 -154q-92 0 -154.5 62t-62.5 160q0 62 26 110.5t75.5 82t109.5 56.5t141 41l250 54l20 84q27 109 -22 169t-152 60q-146 0 -289 -96l-36 59
q199 176 401 176q155 0 240 -113t43 -282l-107 -430q-22 -82 45 -82zM563 266l45 180l-162 -45q-114 -31 -170.5 -67.5t-56.5 -104.5q0 -55 31 -85.5t80 -30.5q107 0 233 153z" />
    <glyph glyph-name="amacron.ss02" horiz-adv-x="970" 
d="M326 1194v102h606v-102h-606zM555 993q100 0 174.5 -49.5t105.5 -141t3 -204.5l-95 -379q-19 -66 -11 -89t61 -30v-53l-285 -57h-12l34 139h-12q-119 -154 -272 -154q-91 0 -153 62t-62 160q0 61 26.5 110t75.5 82t105.5 55t130.5 39l264 58l20 84q27 109 -22 169
t-150 60q-148 0 -291 -96l-36 59q199 176 401 176zM330 113q107 0 233 153l45 180l-162 -45q-114 -31 -170.5 -67.5t-56.5 -104.5q0 -55 31 -85.5t80 -30.5z" />
    <glyph glyph-name="aogonek.ss01" horiz-adv-x="1155" 
d="M1102 969l-189 -752q-18 -70 -9 -90.5t61 -26.5v-53l-125 -33q-142 -37 -214.5 -102t-72.5 -131q0 -45 27 -74t73 -29q56 0 105 35l33 -43q-72 -86 -185 -86q-80 0 -127 49t-47 117q0 88 65 153.5t175 106.5l30 129h-12q-119 -164 -295 -164q-140 0 -229.5 111t-89.5 287
q0 114 41.5 225.5t113 199t176 141.5t222.5 54q87 0 159 -32t117 -89h15l120 97h62zM748 311l73 301q31 125 -18.5 203t-155.5 78q-110 0 -199 -73t-135.5 -184.5t-46.5 -234.5q0 -131 52 -206.5t145 -75.5q61 0 119 32.5t92.5 69.5t73.5 90z" />
    <glyph glyph-name="aogonek.ss02" horiz-adv-x="970" 
d="M838 598l-95 -375q-20 -70 -11.5 -93t61.5 -30v-53l-123 -33q-140 -38 -212.5 -101.5t-72.5 -131.5q0 -46 26 -74.5t72 -28.5q59 0 105 35l35 -43q-72 -86 -185 -86q-79 0 -126.5 48.5t-47.5 119.5q0 86 65 151.5t173 106.5l28 119h-12q-53 -71 -123 -112.5t-147 -41.5
q-94 0 -155.5 62t-61.5 162q0 61 26.5 109t76.5 81t107.5 55t131.5 39l260 58l20 86q27 107 -22 167t-154 60q-148 0 -287 -96l-36 59q199 176 395 176q158 0 244.5 -113t44.5 -282zM328 113q108 0 235 153l45 183l-162 -48q-57 -16 -93.5 -29.5t-69.5 -33.5t-48.5 -46.5
t-15.5 -62.5q0 -56 31 -86t78 -30z" />
    <glyph glyph-name="aring.ss01" horiz-adv-x="999" 
d="M625 1085q-84 0 -141.5 56.5t-57.5 138.5q0 80 57.5 137.5t141.5 57.5q82 0 140 -57.5t58 -137.5q0 -81 -58 -138t-140 -57zM625 1389q-46 0 -76.5 -31t-30.5 -78q0 -49 30.5 -79t76.5 -30q45 0 75.5 30t30.5 79q0 47 -30.5 78t-75.5 31zM848 104l22 -55
q-96 -69 -204 -69q-65 0 -103 40t-28 109h-13q-126 -154 -274 -154q-92 0 -154.5 62t-62.5 160q0 62 26 110.5t75.5 82t109.5 56.5t141 41l250 54l20 84q27 109 -22 169t-152 60q-146 0 -289 -96l-36 59q199 176 401 176q155 0 240 -113t43 -282l-107 -430q-22 -82 45 -82
q36 0 72 18zM563 266l45 180l-162 -45q-114 -31 -170.5 -67.5t-56.5 -104.5q0 -55 31 -85.5t80 -30.5q107 0 233 153z" />
    <glyph glyph-name="aring.ss02" horiz-adv-x="970" 
d="M625 1085q-84 0 -141.5 56.5t-57.5 138.5q0 80 57.5 137.5t141.5 57.5q82 0 140 -57.5t58 -137.5q0 -81 -58 -138t-140 -57zM625 1389q-46 0 -76.5 -31t-30.5 -78q0 -49 30.5 -79t76.5 -30q45 0 75.5 30t30.5 79q0 47 -30.5 78t-75.5 31zM838 598l-95 -379
q-19 -66 -11 -89t61 -30v-53l-285 -57h-12l34 139h-12q-119 -154 -272 -154q-91 0 -153 62t-62 160q0 61 26.5 110t75.5 82t105.5 55t130.5 39l264 58l20 84q27 109 -22 169t-150 60q-148 0 -291 -96l-36 59q199 176 401 176q100 0 174.5 -49.5t105.5 -141t3 -204.5z
M330 113q107 0 233 153l45 180l-162 -45q-114 -31 -170.5 -67.5t-56.5 -104.5q0 -55 31 -85.5t80 -30.5z" />
    <glyph glyph-name="atilde.ss01" horiz-adv-x="999" 
d="M895 1382h82q-25 -124 -84.5 -185.5t-138.5 -61.5q-85 0 -154 63l-27 25q-42 37 -88 37q-83 0 -123 -117h-81q25 124 84 185t137 61q74 0 153 -62l31 -27q39 -34 86 -34q44 0 73.5 28t49.5 88zM776 86q36 0 72 18l22 -55q-96 -69 -204 -69q-65 0 -103 40t-28 109h-13
q-126 -154 -274 -154q-92 0 -154.5 62t-62.5 160q0 62 26 110.5t75.5 82t109.5 56.5t141 41l250 54l20 84q27 109 -22 169t-152 60q-146 0 -289 -96l-36 59q199 176 401 176q155 0 240 -113t43 -282l-107 -430q-22 -82 45 -82zM563 266l45 180l-162 -45
q-114 -31 -170.5 -67.5t-56.5 -104.5q0 -55 31 -85.5t80 -30.5q107 0 233 153z" />
    <glyph glyph-name="atilde.ss02" horiz-adv-x="970" 
d="M895 1382h82q-25 -124 -84.5 -185.5t-138.5 -61.5q-85 0 -154 63l-27 25q-42 37 -88 37q-83 0 -123 -117h-81q25 124 84 185t137 61q74 0 153 -62l31 -27q39 -34 86 -34q44 0 73.5 28t49.5 88zM555 993q100 0 174.5 -49.5t105.5 -141t3 -204.5l-95 -379q-19 -66 -11 -89
t61 -30v-53l-285 -57h-12l34 139h-12q-119 -154 -272 -154q-91 0 -153 62t-62 160q0 61 26.5 110t75.5 82t105.5 55t130.5 39l264 58l20 84q27 109 -22 169t-150 60q-148 0 -291 -96l-36 59q199 176 401 176zM330 113q107 0 233 153l45 180l-162 -45q-114 -31 -170.5 -67.5
t-56.5 -104.5q0 -55 31 -85.5t80 -30.5z" />
    <glyph glyph-name="c.ss07" horiz-adv-x="966" 
d="M485 -25q-175 0 -289 125.5t-114 309.5q0 154 69 286t201 214.5t299 82.5q168 0 303 -75l-53 -209h-55q-1 87 -53.5 133.5t-143.5 46.5q-105 0 -192 -58t-136 -156.5t-49 -213.5q0 -156 78 -242t215 -86q151 0 269 96l45 -47q-73 -101 -177 -154t-217 -53z" />
    <glyph glyph-name="cacute.ss07" horiz-adv-x="966" 
d="M649 1126h-94l160 293h258v-8zM485 -25q-175 0 -289 125.5t-114 309.5q0 154 69 286t201 214.5t299 82.5q168 0 303 -75l-53 -209h-55q-1 87 -53.5 133.5t-143.5 46.5q-105 0 -192 -58t-136 -156.5t-49 -213.5q0 -156 78 -242t215 -86q151 0 269 96l45 -47
q-73 -101 -177 -154t-217 -53z" />
    <glyph glyph-name="ccaron.ss07" horiz-adv-x="966" 
d="M926 1413h116l-329 -293h-105l-174 293h98l154 -135zM485 -25q-175 0 -289 125.5t-114 309.5q0 154 69 286t201 214.5t299 82.5q168 0 303 -75l-53 -209h-55q-1 87 -53.5 133.5t-143.5 46.5q-105 0 -192 -58t-136 -156.5t-49 -213.5q0 -156 78 -242t215 -86q151 0 269 96
l45 -47q-73 -101 -177 -154t-217 -53z" />
    <glyph glyph-name="ccedilla.ss07" horiz-adv-x="966" 
d="M649 889q-105 0 -192 -58t-136 -156.5t-49 -213.5q0 -156 78 -242t215 -86q151 0 269 96l45 -47q-73 -101 -177 -154t-217 -53h-14l-51 -79l2 -2q21 6 43 6q52 0 88.5 -37.5t36.5 -93.5q0 -80 -64.5 -133.5t-160.5 -53.5q-131 0 -211 107l39 41q60 -60 141 -60
q55 0 93 26t38 68q0 32 -24.5 50t-63.5 18q-32 0 -64 -16l-8 6l98 162q-144 29 -232.5 147.5t-88.5 278.5q0 154 69 286t201 214.5t299 82.5q168 0 303 -75l-53 -209h-55q-1 87 -53.5 133.5t-143.5 46.5z" />
    <glyph glyph-name="ccircumflex.ss07" horiz-adv-x="966" 
d="M463 1126h-117l330 293h104l174 -293h-96l-156 136zM485 -25q-175 0 -289 125.5t-114 309.5q0 154 69 286t201 214.5t299 82.5q168 0 303 -75l-53 -209h-55q-1 87 -53.5 133.5t-143.5 46.5q-105 0 -192 -58t-136 -156.5t-49 -213.5q0 -156 78 -242t215 -86q151 0 269 96
l45 -47q-73 -101 -177 -154t-217 -53z" />
    <glyph glyph-name="cdotaccent.ss07" horiz-adv-x="966" 
d="M690 1149q-52 0 -85.5 33.5t-33.5 85.5q0 62 44 104.5t106 42.5q51 0 84 -32.5t33 -84.5q0 -64 -43 -106.5t-105 -42.5zM485 -25q-175 0 -289 125.5t-114 309.5q0 154 69 286t201 214.5t299 82.5q168 0 303 -75l-53 -209h-55q-1 87 -53.5 133.5t-143.5 46.5
q-105 0 -192 -58t-136 -156.5t-49 -213.5q0 -156 78 -242t215 -86q151 0 269 96l45 -47q-73 -101 -177 -154t-217 -53z" />
    <glyph glyph-name="dcaron.ss06" horiz-adv-x="1163" 
d="M401 -25q-139 0 -233 111t-94 283q0 116 42 228.5t114.5 200t179 141.5t225.5 54q154 0 254 -100h12l84 338q16 65 1.5 89.5t-68.5 33.5v53l307 57h10l-315 -1259q-16 -58 -7 -78.5t60 -26.5v-53l-287 -57h-12l37 149h-13q-123 -164 -297 -164zM1286 1063h-59l162 391
h192v-6zM471 119q148 0 285 192l71 293q34 137 -17 213t-157 76q-107 0 -197 -69.5t-141 -183t-51 -241.5q0 -130 54.5 -205t152.5 -75z" />
    <glyph glyph-name="f.ss07" horiz-adv-x="739" 
d="M29 0v53q65 8 87 32t44 112l164 657h-189v115h219l45 182q40 158 146 243t262 85q123 0 219 -47l-47 -185h-51q-3 50 -41 87.5t-103 37.5q-137 0 -180 -160l-59 -243h252v-115h-281l-164 -657q-21 -88 -10 -111.5t72 -32.5v-53h-385z" />
    <glyph glyph-name="g.ss03" horiz-adv-x="1144" 
d="M360 -422q-126 0 -234.5 51t-186.5 135l47 58q140 -107 307 -107q159 0 254.5 78t136.5 240l39 153h-14q-61 -83 -134.5 -123t-171.5 -40q-144 0 -232.5 104.5t-88.5 263.5q0 113 43.5 222.5t116 193t175.5 135t214 51.5q186 0 282 -121h13l121 97h63l-242 -959
q-53 -214 -187 -323t-321 -109zM477 166q155 0 289 192l63 252q32 127 -19 205t-155 78q-80 0 -151.5 -40.5t-121.5 -107t-79 -152.5t-29 -175q0 -119 52.5 -185.5t150.5 -66.5z" />
    <glyph glyph-name="g.ss04" horiz-adv-x="1048" 
d="M1104 969v-115h-250v-10q68 -54 68 -148q0 -102 -57 -183.5t-154.5 -126t-214.5 -44.5q-74 0 -148 23q-61 -18 -99 -50t-38 -69q0 -66 108 -78l273 -31q150 -18 229.5 -73t79.5 -158q0 -105 -77.5 -184.5t-199 -119.5t-264.5 -40q-193 0 -313.5 69.5t-120.5 184.5
q0 69 52 127t149 98v6q-76 53 -76 137q0 69 53 129.5t148 98.5v6q-98 79 -98 211q0 161 124.5 262.5t305.5 101.5q76 0 149 -24h371zM500 434q103 0 171 88t68 205q0 80 -42 128t-115 48q-104 0 -173 -87.5t-69 -203.5q0 -83 42.5 -130.5t117.5 -47.5zM553 -27l-307 35
q-72 -28 -113 -74.5t-41 -101.5q0 -83 75 -127.5t200 -44.5q146 0 248 50t102 140q0 57 -40.5 85.5t-123.5 37.5z" />
    <glyph glyph-name="g.ss07" horiz-adv-x="1044" 
d="M1122 1047l-43 -179h-229v-10q72 -54 72 -160q0 -157 -122.5 -256.5t-305.5 -99.5q-75 0 -146 23q-61 -20 -99 -51t-38 -68q0 -66 108 -78l273 -31q150 -18 229.5 -73t79.5 -158q0 -105 -77.5 -184.5t-199 -119.5t-264.5 -40q-194 0 -314 69.5t-120 184.5q0 69 52 127
t149 98v6q-78 51 -78 137q0 69 54 129.5t149 98.5v6q-98 79 -98 211q0 106 58.5 190t156 129t213.5 45q70 0 143 -24l387 78h10zM500 434q104 0 170.5 88t66.5 205q0 80 -41 128t-114 48q-105 0 -173.5 -87t-68.5 -204q0 -83 42.5 -130.5t117.5 -47.5zM551 -27l-305 35
q-73 -28 -114.5 -74.5t-41.5 -101.5q0 -83 76 -127.5t201 -44.5q146 0 248 50t102 140q0 57 -40.5 85.5t-125.5 37.5z" />
    <glyph glyph-name="gbreve.ss03" horiz-adv-x="1144" 
d="M709 1126q-111 0 -167.5 81t-33.5 212h84q-14 -71 22.5 -115t108.5 -44q76 0 128.5 43t80.5 116h84q-28 -136 -109.5 -214.5t-197.5 -78.5zM360 -422q-126 0 -234.5 51t-186.5 135l47 58q140 -107 307 -107q159 0 254.5 78t136.5 240l39 153h-14q-61 -83 -134.5 -123
t-171.5 -40q-144 0 -232.5 104.5t-88.5 263.5q0 113 43.5 222.5t116 193t175.5 135t214 51.5q186 0 282 -121h13l121 97h63l-242 -959q-53 -214 -187 -323t-321 -109zM477 166q155 0 289 192l63 252q32 127 -19 205t-155 78q-80 0 -151.5 -40.5t-121.5 -107t-79 -152.5
t-29 -175q0 -119 52.5 -185.5t150.5 -66.5z" />
    <glyph glyph-name="gbreve.ss04" horiz-adv-x="1048" 
d="M645 1126q-111 0 -167.5 81t-33.5 212h84q-14 -71 22.5 -115t108.5 -44q76 0 128.5 43t80.5 116h84q-28 -136 -109.5 -214.5t-197.5 -78.5zM1104 969v-115h-250v-10q68 -54 68 -148q0 -102 -57 -183.5t-154.5 -126t-214.5 -44.5q-74 0 -148 23q-61 -18 -99 -50t-38 -69
q0 -66 108 -78l273 -31q150 -18 229.5 -73t79.5 -158q0 -105 -77.5 -184.5t-199 -119.5t-264.5 -40q-193 0 -313.5 69.5t-120.5 184.5q0 69 52 127t149 98v6q-76 53 -76 137q0 69 53 129.5t148 98.5v6q-98 79 -98 211q0 161 124.5 262.5t305.5 101.5q76 0 149 -24h371z
M500 434q103 0 171 88t68 205q0 80 -42 128t-115 48q-104 0 -173 -87.5t-69 -203.5q0 -83 42.5 -130.5t117.5 -47.5zM553 -27l-307 35q-72 -28 -113 -74.5t-41 -101.5q0 -83 75 -127.5t200 -44.5q146 0 248 50t102 140q0 57 -40.5 85.5t-123.5 37.5z" />
    <glyph glyph-name="gbreve.ss07" horiz-adv-x="1044" 
d="M645 1126q-111 0 -167.5 81t-33.5 212h84q-14 -71 22.5 -115t108.5 -44q76 0 128.5 43t80.5 116h84q-28 -136 -109.5 -214.5t-197.5 -78.5zM1122 1047l-43 -179h-229v-10q72 -54 72 -160q0 -157 -122.5 -256.5t-305.5 -99.5q-75 0 -146 23q-61 -20 -99 -51t-38 -68
q0 -66 108 -78l273 -31q150 -18 229.5 -73t79.5 -158q0 -105 -77.5 -184.5t-199 -119.5t-264.5 -40q-194 0 -314 69.5t-120 184.5q0 69 52 127t149 98v6q-78 51 -78 137q0 69 54 129.5t149 98.5v6q-98 79 -98 211q0 106 58.5 190t156 129t213.5 45q70 0 143 -24l387 78h10z
M500 434q104 0 170.5 88t66.5 205q0 80 -41 128t-114 48q-105 0 -173.5 -87t-68.5 -204q0 -83 42.5 -130.5t117.5 -47.5zM551 -27l-305 35q-73 -28 -114.5 -74.5t-41.5 -101.5q0 -83 76 -127.5t201 -44.5q146 0 248 50t102 140q0 57 -40.5 85.5t-125.5 37.5z" />
    <glyph glyph-name="gcircumflex.ss03" horiz-adv-x="1144" 
d="M496 1126h-117l330 293h104l174 -293h-96l-156 136zM360 -422q-126 0 -234.5 51t-186.5 135l47 58q140 -107 307 -107q159 0 254.5 78t136.5 240l39 153h-14q-61 -83 -134.5 -123t-171.5 -40q-144 0 -232.5 104.5t-88.5 263.5q0 113 43.5 222.5t116 193t175.5 135
t214 51.5q186 0 282 -121h13l121 97h63l-242 -959q-53 -214 -187 -323t-321 -109zM477 166q155 0 289 192l63 252q32 127 -19 205t-155 78q-80 0 -151.5 -40.5t-121.5 -107t-79 -152.5t-29 -175q0 -119 52.5 -185.5t150.5 -66.5z" />
    <glyph glyph-name="gcircumflex.ss04" horiz-adv-x="1048" 
d="M829 1126l-155 136l-240 -136h-117l330 293h105l174 -293h-97zM1104 969v-115h-250v-10q68 -54 68 -148q0 -102 -57 -183.5t-154.5 -126t-214.5 -44.5q-74 0 -148 23q-61 -18 -99 -50t-38 -69q0 -66 108 -78l273 -31q150 -18 229.5 -73t79.5 -158q0 -105 -77.5 -184.5
t-199 -119.5t-264.5 -40q-193 0 -313.5 69.5t-120.5 184.5q0 69 52 127t149 98v6q-76 53 -76 137q0 69 53 129.5t148 98.5v6q-98 79 -98 211q0 161 124.5 262.5t305.5 101.5q76 0 149 -24h371zM500 434q103 0 171 88t68 205q0 80 -42 128t-115 48q-104 0 -173 -87.5
t-69 -203.5q0 -83 42.5 -130.5t117.5 -47.5zM553 -27l-307 35q-72 -28 -113 -74.5t-41 -101.5q0 -83 75 -127.5t200 -44.5q146 0 248 50t102 140q0 57 -40.5 85.5t-123.5 37.5z" />
    <glyph glyph-name="gcircumflex.ss07" horiz-adv-x="1044" 
d="M825 1126l-155 136l-240 -136h-117l332 293h103l174 -293h-97zM1122 1047l-43 -179h-229v-10q72 -54 72 -160q0 -157 -122.5 -256.5t-305.5 -99.5q-75 0 -146 23q-61 -20 -99 -51t-38 -68q0 -66 108 -78l273 -31q150 -18 229.5 -73t79.5 -158q0 -105 -77.5 -184.5
t-199 -119.5t-264.5 -40q-194 0 -314 69.5t-120 184.5q0 69 52 127t149 98v6q-78 51 -78 137q0 69 54 129.5t149 98.5v6q-98 79 -98 211q0 106 58.5 190t156 129t213.5 45q70 0 143 -24l387 78h10zM500 434q104 0 170.5 88t66.5 205q0 80 -41 128t-114 48q-105 0 -173.5 -87
t-68.5 -204q0 -83 42.5 -130.5t117.5 -47.5zM551 -27l-305 35q-73 -28 -114.5 -74.5t-41.5 -101.5q0 -83 76 -127.5t201 -44.5q146 0 248 50t102 140q0 57 -40.5 85.5t-125.5 37.5z" />
    <glyph glyph-name="uni0123.ss03" horiz-adv-x="1144" 
d="M692 1079q-45 0 -76.5 32.5t-31.5 78.5q0 36 17 68.5t50 74.5l142 180h92l-174 -213q41 -2 68.5 -30.5t27.5 -71.5q0 -49 -32 -84t-83 -35zM926 872l121 97h63l-242 -959q-53 -214 -187 -323t-321 -109q-126 0 -234.5 51t-186.5 135l47 58q140 -107 307 -107
q159 0 254.5 78t136.5 240l39 153h-14q-61 -83 -134.5 -123t-171.5 -40q-144 0 -232.5 104.5t-88.5 263.5q0 113 43.5 222.5t116 193t175.5 135t214 51.5q186 0 282 -121h13zM766 358l63 252q32 127 -19 205t-155 78q-80 0 -151.5 -40.5t-121.5 -107t-79 -152.5t-29 -175
q0 -119 52.5 -185.5t150.5 -66.5q155 0 289 192z" />
    <glyph glyph-name="uni0123.ss03.ss06" horiz-adv-x="1144" 
d="M901 1526h62l-170 -412h-203v6zM360 -422q-126 0 -234.5 51t-186.5 135l47 58q140 -107 307 -107q159 0 254.5 78t136.5 240l39 153h-14q-61 -83 -134.5 -123t-171.5 -40q-144 0 -232.5 104.5t-88.5 263.5q0 113 43.5 222.5t116 193t175.5 135t214 51.5q186 0 282 -121
h13l121 97h63l-242 -959q-53 -214 -187 -323t-321 -109zM477 166q155 0 289 192l63 252q32 127 -19 205t-155 78q-80 0 -151.5 -40.5t-121.5 -107t-79 -152.5t-29 -175q0 -119 52.5 -185.5t150.5 -66.5z" />
    <glyph glyph-name="uni0123.ss04" horiz-adv-x="1048" 
d="M631 1079q-46 0 -77.5 32.5t-31.5 78.5q0 36 17 68t51 75l141 180h92l-174 -213q41 -2 68.5 -30.5t27.5 -71.5q0 -49 -31.5 -84t-82.5 -35zM1104 969v-115h-250v-10q68 -54 68 -148q0 -102 -57 -183.5t-154.5 -126t-214.5 -44.5q-74 0 -148 23q-61 -18 -99 -50t-38 -69
q0 -66 108 -78l273 -31q150 -18 229.5 -73t79.5 -158q0 -105 -77.5 -184.5t-199 -119.5t-264.5 -40q-193 0 -313.5 69.5t-120.5 184.5q0 69 52 127t149 98v6q-76 53 -76 137q0 69 53 129.5t148 98.5v6q-98 79 -98 211q0 161 124.5 262.5t305.5 101.5q76 0 149 -24h371z
M500 434q103 0 171 88t68 205q0 80 -42 128t-115 48q-104 0 -173 -87.5t-69 -203.5q0 -83 42.5 -130.5t117.5 -47.5zM553 -27l-307 35q-72 -28 -113 -74.5t-41 -101.5q0 -83 75 -127.5t200 -44.5q146 0 248 50t102 140q0 57 -40.5 85.5t-123.5 37.5z" />
    <glyph glyph-name="uni0123.ss06" horiz-adv-x="1048" 
d="M840 1526h61l-170 -412h-203v6zM1104 1047v-179h-254v-10q31 -23 51.5 -65t20.5 -95q0 -156 -123.5 -256t-304.5 -100q-75 0 -146 23q-62 -19 -99.5 -50.5t-37.5 -68.5q0 -66 108 -78l275 -31q307 -33 307 -231q0 -105 -77.5 -184.5t-199 -119.5t-264.5 -40
q-194 0 -314 69.5t-120 184.5q0 69 52 127t149 98v6q-78 51 -78 137q0 69 54 129.5t149 98.5v6q-98 79 -98 211q0 161 124.5 262.5t305.5 101.5q60 0 137 -22l373 76h10zM500 434q102 0 169.5 88t67.5 205q0 80 -41 128t-114 48q-104 0 -173 -87.5t-69 -203.5
q0 -83 42.5 -130.5t117.5 -47.5zM551 -27l-305 35q-73 -28 -114.5 -74.5t-41.5 -101.5q0 -83 76 -127.5t201 -44.5q146 0 248 50t102 140q0 57 -40.5 85.5t-125.5 37.5z" />
    <glyph glyph-name="uni0123.ss06.ss07" horiz-adv-x="1044" 
d="M840 1526h61l-170 -412h-203v6zM1122 1047l-43 -179h-229v-10q72 -54 72 -160q0 -157 -122.5 -256.5t-305.5 -99.5q-75 0 -146 23q-61 -20 -99 -51t-38 -68q0 -66 108 -78l273 -31q150 -18 229.5 -73t79.5 -158q0 -105 -77.5 -184.5t-199 -119.5t-264.5 -40
q-194 0 -314 69.5t-120 184.5q0 69 52 127t149 98v6q-78 51 -78 137q0 69 54 129.5t149 98.5v6q-98 79 -98 211q0 106 58.5 190t156 129t213.5 45q70 0 143 -24l387 78h10zM500 434q104 0 170.5 88t66.5 205q0 80 -41 128t-114 48q-105 0 -173.5 -87t-68.5 -204
q0 -83 42.5 -130.5t117.5 -47.5zM551 -27l-305 35q-73 -28 -114.5 -74.5t-41.5 -101.5q0 -83 76 -127.5t201 -44.5q146 0 248 50t102 140q0 57 -40.5 85.5t-125.5 37.5z" />
    <glyph glyph-name="uni0123.ss07" horiz-adv-x="1044" 
d="M631 1079q-46 0 -77.5 32.5t-31.5 78.5q0 36 17 68t51 75l141 180h92l-174 -213q41 -2 68.5 -30.5t27.5 -71.5q0 -49 -31.5 -84t-82.5 -35zM1122 1047l-43 -179h-229v-10q72 -54 72 -160q0 -157 -122.5 -256.5t-305.5 -99.5q-75 0 -146 23q-61 -20 -99 -51t-38 -68
q0 -66 108 -78l273 -31q150 -18 229.5 -73t79.5 -158q0 -105 -77.5 -184.5t-199 -119.5t-264.5 -40q-194 0 -314 69.5t-120 184.5q0 69 52 127t149 98v6q-78 51 -78 137q0 69 54 129.5t149 98.5v6q-98 79 -98 211q0 106 58.5 190t156 129t213.5 45q70 0 143 -24l387 78h10z
M500 434q104 0 170.5 88t66.5 205q0 80 -41 128t-114 48q-105 0 -173.5 -87t-68.5 -204q0 -83 42.5 -130.5t117.5 -47.5zM551 -27l-305 35q-73 -28 -114.5 -74.5t-41.5 -101.5q0 -83 76 -127.5t201 -44.5q146 0 248 50t102 140q0 57 -40.5 85.5t-125.5 37.5z" />
    <glyph glyph-name="gdotaccent.ss03" horiz-adv-x="1144" 
d="M723 1149q-53 0 -86 33.5t-33 85.5q0 62 44 104.5t106 42.5q51 0 83.5 -32.5t32.5 -84.5q0 -64 -42.5 -106.5t-104.5 -42.5zM360 -422q-126 0 -234.5 51t-186.5 135l47 58q140 -107 307 -107q159 0 254.5 78t136.5 240l39 153h-14q-61 -83 -134.5 -123t-171.5 -40
q-144 0 -232.5 104.5t-88.5 263.5q0 113 43.5 222.5t116 193t175.5 135t214 51.5q186 0 282 -121h13l121 97h63l-242 -959q-53 -214 -187 -323t-321 -109zM477 166q155 0 289 192l63 252q32 127 -19 205t-155 78q-80 0 -151.5 -40.5t-121.5 -107t-79 -152.5t-29 -175
q0 -119 52.5 -185.5t150.5 -66.5z" />
    <glyph glyph-name="gdotaccent.ss04" horiz-adv-x="1048" 
d="M659 1149q-52 0 -85 33t-33 86q0 62 43.5 104.5t105.5 42.5q51 0 84 -32.5t33 -84.5q0 -64 -43 -106.5t-105 -42.5zM1104 969v-115h-250v-10q68 -54 68 -148q0 -102 -57 -183.5t-154.5 -126t-214.5 -44.5q-74 0 -148 23q-61 -18 -99 -50t-38 -69q0 -66 108 -78l273 -31
q150 -18 229.5 -73t79.5 -158q0 -105 -77.5 -184.5t-199 -119.5t-264.5 -40q-193 0 -313.5 69.5t-120.5 184.5q0 69 52 127t149 98v6q-76 53 -76 137q0 69 53 129.5t148 98.5v6q-98 79 -98 211q0 161 124.5 262.5t305.5 101.5q76 0 149 -24h371zM500 434q103 0 171 88
t68 205q0 80 -42 128t-115 48q-104 0 -173 -87.5t-69 -203.5q0 -83 42.5 -130.5t117.5 -47.5zM553 -27l-307 35q-72 -28 -113 -74.5t-41 -101.5q0 -83 75 -127.5t200 -44.5q146 0 248 50t102 140q0 57 -40.5 85.5t-123.5 37.5z" />
    <glyph glyph-name="gdotaccent.ss07" horiz-adv-x="1044" 
d="M659 1149q-52 0 -85 33t-33 86q0 62 43.5 104.5t105.5 42.5q51 0 84 -32.5t33 -84.5q0 -64 -43 -106.5t-105 -42.5zM1122 1047l-43 -179h-229v-10q72 -54 72 -160q0 -157 -122.5 -256.5t-305.5 -99.5q-75 0 -146 23q-61 -20 -99 -51t-38 -68q0 -66 108 -78l273 -31
q150 -18 229.5 -73t79.5 -158q0 -105 -77.5 -184.5t-199 -119.5t-264.5 -40q-194 0 -314 69.5t-120 184.5q0 69 52 127t149 98v6q-78 51 -78 137q0 69 54 129.5t149 98.5v6q-98 79 -98 211q0 106 58.5 190t156 129t213.5 45q70 0 143 -24l387 78h10zM500 434q104 0 170.5 88
t66.5 205q0 80 -41 128t-114 48q-105 0 -173.5 -87t-68.5 -204q0 -83 42.5 -130.5t117.5 -47.5zM551 -27l-305 35q-73 -28 -114.5 -74.5t-41.5 -101.5q0 -83 76 -127.5t201 -44.5q146 0 248 50t102 140q0 57 -40.5 85.5t-125.5 37.5z" />
    <glyph glyph-name="i.loclTRK" horiz-adv-x="559" 
d="M465 1149q-53 0 -86 33.5t-33 85.5q0 62 44 104.5t106 42.5q51 0 83.5 -32.5t32.5 -84.5q0 -64 -42.5 -106.5t-104.5 -42.5zM508 979l-197 -786q-19 -87 -9.5 -108.5t58.5 -31.5v-53h-366v53q64 9 84.5 32t42.5 110l135 540q18 72 6 98t-69 35v54l305 57h10z" />
    <glyph glyph-name="uni0137.ss06" horiz-adv-x="1089" 
d="M1167 969v-54q-81 -10 -147 -42t-154 -99l-266 -203l377 -561v-10h-225l-297 461l-113 -84l-45 -184q-19 -78 -10 -104.5t59 -35.5v-53h-366v53q62 9 82.5 29t41.5 100l265 1055q14 59 -1 84.5t-67 32.5v53l305 57h10l-233 -932h14l369 285q97 76 50 95q-5 2 -11 3v54
h362zM299 -526h-59l170 411h200v-6z" />
    <glyph glyph-name="lcaron.ss06" horiz-adv-x="546" 
d="M-23 0v53q64 9 85 32t44 110l256 1026q19 72 7 98t-68 35v53l303 57h10l-319 -1271q-19 -87 -9.5 -108.5t58.5 -31.5v-53h-367zM666 1063h-58l160 391h193v-6z" />
    <glyph glyph-name="uni013C.ss06" horiz-adv-x="546" 
d="M-23 0v53q64 9 85 32t44 110l256 1026q19 72 7 98t-68 35v53l303 57h10l-319 -1271q-19 -87 -9.5 -108.5t58.5 -31.5v-53h-367zM-61 -526h-62l170 411h203v-6z" />
    <glyph glyph-name="uni0146.ss06" horiz-adv-x="1157" 
d="M117 182l137 549q19 72 7 100t-71 37v54l306 57h10l-37 -150h12q135 164 299 164q63 0 117 -27.5t89.5 -78t47 -123t-9.5 -162.5l-106 -426q-18 -71 -8.5 -92.5t59.5 -30.5v-53h-371v53q61 9 86 33.5t45 101.5l109 433q26 108 -15.5 169.5t-117.5 61.5q-148 0 -277 -180
l-123 -498q-14 -46 -8.5 -72t18.5 -34.5t43 -14.5v-53h-366v53q60 8 82.5 30t42.5 99zM287 -526h-60l170 411h201v-6z" />
    <glyph glyph-name="r.ss07" horiz-adv-x="776" 
d="M117 184l135 549q19 72 6.5 99t-68.5 36v54l302 57h14l-68 -260h15q74 148 147 211t174 63q48 0 88 -14l-49 -193q-37 15 -84 15q-95 0 -184.5 -76t-151.5 -199l-86 -346q-17 -77 -6 -98t68 -29v-53h-379v53q61 8 83.5 30.5t43.5 100.5z" />
    <glyph glyph-name="racute.ss07" horiz-adv-x="776" 
d="M586 1126h-94l159 293h258v-8zM117 184l135 549q19 72 6.5 99t-68.5 36v54l302 57h14l-68 -260h15q74 148 147 211t174 63q48 0 88 -14l-49 -193q-37 15 -84 15q-95 0 -184.5 -76t-151.5 -199l-86 -346q-17 -77 -6 -98t68 -29v-53h-379v53q61 8 83.5 30.5t43.5 100.5z
" />
    <glyph glyph-name="rcaron.ss07" horiz-adv-x="776" 
d="M862 1413h117l-330 -293h-104l-174 293h98l154 -135zM117 184l135 549q19 72 6.5 99t-68.5 36v54l302 57h14l-68 -260h15q74 148 147 211t174 63q48 0 88 -14l-49 -193q-37 15 -84 15q-95 0 -184.5 -76t-151.5 -199l-86 -346q-17 -77 -6 -98t68 -29v-53h-379v53
q61 8 83.5 30.5t43.5 100.5z" />
    <glyph glyph-name="uni0157.ss06" horiz-adv-x="784" 
d="M117 184l135 549q19 72 6.5 99t-68.5 36v54l302 57h14l-68 -260h15q73 144 143 209t176 65q34 0 68 -12v-195q-47 15 -95 15q-104 0 -193.5 -74.5t-158.5 -200.5l-86 -344q-17 -78 -6 -99.5t68 -29.5v-53h-379v53q61 8 83.5 30.5t43.5 100.5zM-43 -526h-59l170 411h200
v-6z" />
    <glyph glyph-name="uni0157.ss06.ss07" horiz-adv-x="776" 
d="M117 184l135 549q19 72 6.5 99t-68.5 36v54l302 57h14l-68 -260h15q74 148 147 211t174 63q48 0 88 -14l-49 -193q-37 15 -84 15q-95 0 -184.5 -76t-151.5 -199l-86 -346q-17 -77 -6 -98t68 -29v-53h-379v53q61 8 83.5 30.5t43.5 100.5zM-43 -526h-59l170 411h200v-6z
" />
    <glyph glyph-name="uni0157.ss07" horiz-adv-x="776" 
d="M774 993q48 0 88 -14l-49 -193q-37 15 -84 15q-95 0 -184.5 -76t-151.5 -199l-86 -346q-17 -77 -6 -98t68 -29v-53h-379v53q61 8 83.5 30.5t43.5 100.5l135 549q19 72 6.5 99t-68.5 36v54l302 57h14l-68 -260h15q74 148 147 211t174 63zM123 -90q45 0 75.5 -32.5
t30.5 -78.5q0 -36 -16 -67.5t-49 -75.5l-144 -182h-90l176 215q-43 2 -71.5 30t-28.5 72q0 49 33 84t84 35z" />
    <glyph glyph-name="s.ss07" horiz-adv-x="839" 
d="M326 -25q-95 0 -181 33.5t-145 83.5l47 189h55q15 -96 76.5 -148.5t155.5 -52.5q85 0 137.5 35.5t52.5 103.5q0 47 -24.5 79.5t-79.5 68.5l-105 71q-147 100 -147 248q0 129 101.5 218t260.5 89q165 0 297 -82l-47 -192h-53q-6 79 -60.5 123.5t-148.5 44.5
q-84 0 -138 -39.5t-54 -104.5q0 -43 24 -74.5t84 -70.5l109 -72q77 -51 115 -109.5t38 -135.5q0 -131 -105 -218.5t-265 -87.5z" />
    <glyph glyph-name="sacute.ss07" horiz-adv-x="839" 
d="M530 1126h-94l160 293h258v-8zM326 -25q-95 0 -181 33.5t-145 83.5l47 189h55q15 -96 76.5 -148.5t155.5 -52.5q85 0 137.5 35.5t52.5 103.5q0 47 -24.5 79.5t-79.5 68.5l-105 71q-147 100 -147 248q0 129 101.5 218t260.5 89q165 0 297 -82l-47 -192h-53
q-6 79 -60.5 123.5t-148.5 44.5q-84 0 -138 -39.5t-54 -104.5q0 -43 24 -74.5t84 -70.5l109 -72q77 -51 115 -109.5t38 -135.5q0 -131 -105 -218.5t-265 -87.5z" />
    <glyph glyph-name="scaron.ss07" horiz-adv-x="843" 
d="M811 1413h117l-330 -293h-104l-175 293h97l155 -135zM326 -25q-95 0 -181 33.5t-145 83.5l47 189h55q15 -96 76.5 -148.5t155.5 -52.5q85 0 137.5 35.5t52.5 103.5q0 47 -24.5 79.5t-79.5 68.5l-105 71q-147 100 -147 248q0 129 101.5 218t260.5 89q165 0 297 -82
l-47 -192h-53q-6 79 -60.5 123.5t-148.5 44.5q-84 0 -138 -39.5t-54 -104.5q0 -43 24 -74.5t84 -70.5l109 -72q77 -51 115 -109.5t38 -135.5q0 -131 -105 -218.5t-265 -87.5z" />
    <glyph glyph-name="scedilla.ss07" horiz-adv-x="839" 
d="M530 993q165 0 297 -82l-47 -192h-53q-6 79 -60.5 123.5t-148.5 44.5q-84 0 -138 -39.5t-54 -104.5q0 -43 24 -74.5t84 -70.5l109 -72q77 -51 115 -109.5t38 -135.5q0 -123 -92.5 -208.5t-238.5 -95.5l-52 -81l2 -2q21 6 43 6q52 0 88.5 -37.5t36.5 -93.5
q0 -80 -64.5 -133.5t-160.5 -53.5q-131 0 -211 107l39 41q60 -60 141 -60q55 0 93 26t38 68q0 32 -24.5 50t-63.5 18q-31 0 -63 -16l-8 6l94 155q-168 11 -293 115l47 189h55q15 -96 76.5 -148.5t155.5 -52.5q85 0 137.5 35.5t52.5 103.5q0 47 -24.5 79.5t-79.5 68.5
l-105 71q-147 100 -147 248q0 129 101.5 218t260.5 89z" />
    <glyph glyph-name="scircumflex.ss07" horiz-adv-x="839" 
d="M344 1126h-117l330 293h105l174 -293h-97l-155 136zM326 -25q-95 0 -181 33.5t-145 83.5l47 189h55q15 -96 76.5 -148.5t155.5 -52.5q85 0 137.5 35.5t52.5 103.5q0 47 -24.5 79.5t-79.5 68.5l-105 71q-147 100 -147 248q0 129 101.5 218t260.5 89q165 0 297 -82
l-47 -192h-53q-6 79 -60.5 123.5t-148.5 44.5q-84 0 -138 -39.5t-54 -104.5q0 -43 24 -74.5t84 -70.5l109 -72q77 -51 115 -109.5t38 -135.5q0 -131 -105 -218.5t-265 -87.5z" />
    <glyph glyph-name="uni0219.ss06" horiz-adv-x="839" 
d="M334 -25q-174 0 -314 105v201h56q37 -98 104 -149.5t160 -51.5q81 0 132.5 36t51.5 105q0 44 -23.5 76t-76.5 68l-111 75q-143 98 -143 246q0 131 102 219t258 88q147 0 275 -71v-203h-55q-25 81 -84.5 124.5t-149.5 43.5q-79 0 -134.5 -38t-55.5 -101q0 -45 24 -78
t84 -74l111 -72q76 -49 113.5 -106.5t37.5 -136.5q0 -132 -104 -219t-258 -87zM133 -526h-59l170 411h200v-6z" />
    <glyph glyph-name="uni0219.ss06.ss07" horiz-adv-x="839" 
d="M326 -25q-95 0 -181 33.5t-145 83.5l47 189h55q15 -96 76.5 -148.5t155.5 -52.5q85 0 137.5 35.5t52.5 103.5q0 47 -24.5 79.5t-79.5 68.5l-105 71q-147 100 -147 248q0 129 101.5 218t260.5 89q165 0 297 -82l-47 -192h-53q-6 79 -60.5 123.5t-148.5 44.5
q-84 0 -138 -39.5t-54 -104.5q0 -43 24 -74.5t84 -70.5l109 -72q77 -51 115 -109.5t38 -135.5q0 -131 -105 -218.5t-265 -87.5zM133 -526h-59l170 411h200v-6z" />
    <glyph glyph-name="uni0219.ss07" horiz-adv-x="839" 
d="M530 993q165 0 297 -82l-47 -192h-53q-6 79 -60.5 123.5t-148.5 44.5q-84 0 -138 -39.5t-54 -104.5q0 -43 24 -74.5t84 -70.5l109 -72q77 -51 115 -109.5t38 -135.5q0 -131 -105 -218.5t-265 -87.5q-95 0 -181 33.5t-145 83.5l47 189h55q15 -96 76.5 -148.5t155.5 -52.5
q85 0 137.5 35.5t52.5 103.5q0 47 -24.5 79.5t-79.5 68.5l-105 71q-147 100 -147 248q0 129 101.5 218t260.5 89zM299 -90q45 0 76 -32.5t31 -78.5q0 -36 -16.5 -67t-49.5 -76l-143 -182h-91l177 215q-43 2 -72 30t-29 72q0 49 33 84t84 35z" />
    <glyph glyph-name="tcaron.ss06" horiz-adv-x="714" 
d="M696 1083h-57l160 371h192v-6zM358 -25q-121 0 -179 81.5t-25 215.5l145 582h-178v88q57 3 98.5 10t74 24t54 35.5t40.5 53t32 67t31 87.5h131l-62 -250h258v-115h-286l-154 -612q-19 -73 10 -108.5t88 -35.5q69 0 133 31l31 -57q-113 -97 -242 -97z" />
    <glyph glyph-name="uni021B.ss06" horiz-adv-x="714" 
d="M358 -25q-121 0 -179 81.5t-25 215.5l145 582h-178v88q57 3 98.5 10t74 24t54 35.5t40.5 53t32 67t31 87.5h131l-62 -250h258v-115h-286l-154 -612q-19 -73 10 -108.5t88 -35.5q69 0 133 31l31 -57q-113 -97 -242 -97zM57 -526h-59l170 411h201v-6z" />
    <glyph glyph-name="y.ss07" horiz-adv-x="1030" 
d="M823 915v54h307v-54q-68 -21 -103.5 -51.5t-76.5 -97.5l-544 -909q-103 -169 -190 -232t-204 -63q-81 0 -149 37l43 168q66 -29 141 -29q179 0 297 201l37 61l-137 743q-11 65 -39.5 93t-95.5 38v52l282 57l4 -20l37 -220l82 -493h14l310 520q28 45 36 71.5t-3.5 44.5
t-47.5 29z" />
    <glyph glyph-name="yacute.ss07" horiz-adv-x="1030" 
d="M971 1419v-8l-324 -285h-94l160 293h258zM823 915v54h307v-54q-68 -21 -103.5 -51.5t-76.5 -97.5l-544 -909q-103 -169 -190 -232t-204 -63q-81 0 -149 37l43 168q66 -29 141 -29q179 0 297 201l37 61l-137 743q-11 65 -39.5 93t-95.5 38v52l282 57l4 -20l37 -220
l82 -493h14l310 520q28 45 36 71.5t-3.5 44.5t-47.5 29z" />
    <glyph glyph-name="ycircumflex.ss07" horiz-adv-x="1030" 
d="M856 1126l-156 136l-239 -136h-117l330 293h104l174 -293h-96zM823 915v54h307v-54q-68 -21 -103.5 -51.5t-76.5 -97.5l-544 -909q-103 -169 -190 -232t-204 -63q-81 0 -149 37l43 168q66 -29 141 -29q179 0 297 201l37 61l-137 743q-11 65 -39.5 93t-95.5 38v52l282 57
l4 -20l37 -220l82 -493h14l310 520q28 45 36 71.5t-3.5 44.5t-47.5 29z" />
    <glyph glyph-name="ydieresis.ss07" horiz-adv-x="1030" 
d="M489 1151q-50 0 -81 32t-31 83q0 60 41.5 100.5t101.5 40.5q50 0 81.5 -31t31.5 -80q0 -62 -41.5 -103.5t-102.5 -41.5zM874 1151q-50 0 -81 32t-31 83q0 60 41 100.5t102 40.5q48 0 79.5 -31t31.5 -80q0 -62 -41.5 -103.5t-100.5 -41.5zM823 915v54h307v-54
q-68 -21 -103.5 -51.5t-76.5 -97.5l-544 -909q-103 -169 -190 -232t-204 -63q-81 0 -149 37l43 168q66 -29 141 -29q179 0 297 201l37 61l-137 743q-11 65 -39.5 93t-95.5 38v52l282 57l4 -20l37 -220l82 -493h14l310 520q28 45 36 71.5t-3.5 44.5t-47.5 29z" />
    <glyph glyph-name="ygrave.ss07" horiz-adv-x="1030" 
d="M696 1419l47 -293h-79l-193 285v8h225zM823 915v54h307v-54q-68 -21 -103.5 -51.5t-76.5 -97.5l-544 -909q-103 -169 -190 -232t-204 -63q-81 0 -149 37l43 168q66 -29 141 -29q179 0 297 201l37 61l-137 743q-11 65 -39.5 93t-95.5 38v52l282 57l4 -20l37 -220l82 -493
h14l310 520q28 45 36 71.5t-3.5 44.5t-47.5 29z" />
    <glyph glyph-name="uni0233.ss07" horiz-adv-x="1030" 
d="M391 1296h606v-102h-606v102zM823 915v54h307v-54q-68 -21 -103.5 -51.5t-76.5 -97.5l-544 -909q-103 -169 -190 -232t-204 -63q-81 0 -149 37l43 168q66 -29 141 -29q179 0 297 201l37 61l-137 743q-11 65 -39.5 93t-95.5 38v52l282 57l4 -20l37 -220l82 -493h14
l310 520q28 45 36 71.5t-3.5 44.5t-47.5 29z" />
    <glyph glyph-name="z.ss07" horiz-adv-x="933" 
d="M461 102h-223v13l714 766v88h-745l-62 -248h54q38 83 100 114t164 31h219v-12l-713 -766v-88h766l72 281h-55q-53 -100 -121.5 -139.5t-169.5 -39.5z" />
    <glyph glyph-name="zacute.ss07" horiz-adv-x="933" 
d="M590 1126h-94l159 293h258v-8zM461 102h-223v13l714 766v88h-745l-62 -248h54q38 83 100 114t164 31h219v-12l-713 -766v-88h766l72 281h-55q-53 -100 -121.5 -139.5t-169.5 -39.5z" />
    <glyph glyph-name="zcaron.ss07" horiz-adv-x="933" 
d="M866 1413h117l-330 -293h-104l-174 293h98l154 -135zM461 102h-223v13l714 766v88h-745l-62 -248h54q38 83 100 114t164 31h219v-12l-713 -766v-88h766l72 281h-55q-53 -100 -121.5 -139.5t-169.5 -39.5z" />
    <glyph glyph-name="zdotaccent.ss07" horiz-adv-x="933" 
d="M631 1149q-53 0 -86 33.5t-33 85.5q0 62 44 104.5t106 42.5q51 0 83.5 -32.5t32.5 -84.5q0 -64 -42.5 -106.5t-104.5 -42.5zM461 102h-223v13l714 766v88h-745l-62 -248h54q38 83 100 114t164 31h219v-12l-713 -766v-88h766l72 281h-55q-53 -100 -121.5 -139.5
t-169.5 -39.5z" />
    <glyph glyph-name="one.ss05" horiz-adv-x="778" 
d="M266 176l213 852h-268v86q175 12 276 75t154 204h127l-303 -1215q-18 -75 -7.5 -95.5t70.5 -29.5v-53h-417v53q76 8 106.5 30t48.5 93z" />
    <glyph glyph-name="four.ss05" horiz-adv-x="1251" 
d="M625 170l51 203h-651v96l993 924h100l-211 -842h297v-178h-342l-49 -197q-11 -41 -13.5 -62t7 -34.5t23.5 -17.5t49 -9v-53h-402v53q75 8 102.5 27t45.5 90zM848 1104l-582 -543v-10h455l139 553h-12z" />
    <glyph glyph-name="comma.ss06" horiz-adv-x="503" 
d="M-53 -340h-97l261 567h225v-8z" />
    </font>
</defs>
</svg>
