<?xml version="1.0" standalone="no"?>
<!DOCTYPE svg PUBLIC "-//W3C//DTD SVG 1.1//EN" "http://www.w3.org/Graphics/SVG/1.1/DTD/svg11.dtd" >
<svg xmlns="http://www.w3.org/2000/svg" xmlns:xlink="http://www.w3.org/1999/xlink" version="1.1">
<metadata>
Created by FontForge 20170731 at Mon Mar 14 16:57:58 2022
 By Aleksey,,,
Copyright 2021 Dinamo (Johannes Breyer, Fabian Harb). All rights reserved.
</metadata>
<defs>
<font id="ABCArizonaMix-BoldItalic" horiz-adv-x="1228" >
  <font-face 
    font-family="ABC Arizona Mix"
    font-weight="700"
    font-style="italic"
    font-stretch="normal"
    units-per-em="2048"
    panose-1="2 0 0 4 0 2 0 6 0 3"
    ascent="1735"
    descent="-313"
    x-height="969"
    cap-height="1423"
    bbox="-487 -545 2583 1923"
    underline-thickness="102"
    underline-position="-307"
    slope="-14"
    unicode-range="U+000D-FB02"
  />
<missing-glyph horiz-adv-x="1351" 
d="M1061 0h-995l364 1454h995zM563 1311l-293 -1168h658l293 1168h-658z" />
    <glyph glyph-name="fi" unicode="fi" horiz-adv-x="1280" 
d="M365 1067q53 207 195.5 311.5t359.5 104.5q182 0 337 -76v-254h-57q-38 88 -117.5 141.5t-171.5 53.5q-98 0 -164 -54.5t-92 -158.5l-41 -166h633l-194 -783q-13 -54 -13 -73q0 -25 12 -35.5t46 -16.5v-61h-441v61q35 5 49.5 9t31 17t24.5 35t18 64l160 643h-362
l-156 -622q-14 -52 -14 -88q0 -30 16.5 -41.5t64.5 -16.5v-61h-469v61q61 6 83.5 29t46.5 115l155 624h-176v140h211z" />
    <glyph glyph-name="fl" unicode="fl" horiz-adv-x="1294" 
d="M303 829h-176v140h211l29 114q48 193 190 296.5t338 103.5q150 0 266 -53l213 34h10l-315 -1261q-14 -55 -14 -88q0 -26 12 -37t43 -17v-61h-440v61q64 9 83.5 30t43.5 112l262 1046q-24 43 -70.5 71t-101.5 28q-181 0 -240 -232l-37 -147h236v-140h-271l-161 -649
q-8 -31 -8 -59q0 -31 17.5 -43t63.5 -17v-61h-469v61q61 6 82.5 27t40.5 92z" />
    <glyph glyph-name="f_b" unicode="fb" horiz-adv-x="1918" 
d="M303 829h-176v140h211l29 114q48 193 191 296.5t339 103.5q145 0 264 -53l211 34h14l-153 -616h16q59 76 126 112.5t157 36.5q139 0 234.5 -110.5t95.5 -284.5q2 -127 -44.5 -245t-124.5 -203t-183.5 -135t-217.5 -48q-179 0 -291 125h-16l-125 -96h-112l311 1249
q-21 42 -68.5 70.5t-101.5 28.5q-183 0 -242 -232l-37 -147h236v-140h-271l-161 -647q-8 -31 -8 -61q0 -31 17.5 -43t63.5 -17v-61h-469v61q63 6 83 26t42 99zM1589 567q0 118 -48 185t-130 67q-107 0 -219 -129l-80 -313q-12 -50 -12 -92q0 -86 46 -136.5t122 -50.5
q88 0 163 68t116.5 175.5t41.5 225.5z" />
    <glyph glyph-name="f_f" unicode="ff" horiz-adv-x="1482" 
d="M1716 1448v-234h-57q-19 60 -60.5 97t-103.5 37q-141 0 -178 -156l-55 -223h235v-140h-270l-156 -626q-14 -52 -14 -86q0 -30 16.5 -40.5t65.5 -15.5v-61h-469v61q61 6 83 29.5t46 112.5l155 626h-376l-156 -628q-14 -52 -14 -84q0 -30 16 -40.5t65 -15.5v-61h-469v61
q62 6 84 28t43 108l158 632h-176v140h211l22 90q49 193 189 293q137 98 311 98q167 0 312 -80q125 113 325 113q117 0 217 -35zM1022 1100q14 57 37 108q-76 107 -185 107q-86 0 -144.5 -55t-84.5 -160l-33 -131h377z" />
    <glyph glyph-name="f_f_b" unicode="ffb" horiz-adv-x="2560" 
d="M2503 602q2 -127 -44.5 -245t-124.5 -203t-183.5 -135t-217.5 -48q-179 0 -291 125h-16l-125 -96h-112l311 1249q-21 42 -68.5 70.5t-101.5 28.5q-183 0 -242 -232l-37 -147h236v-140h-270l-162 -647q-8 -31 -8 -61q0 -31 17.5 -43t63.5 -17v-61h-469v61q63 6 83 26
t42 99l160 643h-366l-156 -628q-14 -52 -14 -84q0 -30 16 -40.5t65 -15.5v-61h-469v61q62 6 84 28t43 108l158 632h-176v140h211l22 90q49 193 189 293q137 98 311 98q176 0 320 -84q140 117 356 117q145 0 264 -53l211 34h15l-154 -616h16q59 76 126 112.5t157 36.5
q139 0 234.5 -110.5t95.5 -284.5zM1008 1083q17 67 49 129q-77 103 -183 103q-86 0 -144.5 -55t-84.5 -160l-33 -131h367zM2230 567q0 118 -48 185t-130 67q-107 0 -219 -129l-80 -313q-12 -49 -12 -92q0 -86 46 -136.5t122 -50.5q88 0 163 68t116.5 175.5t41.5 225.5z" />
    <glyph glyph-name="f_f_h" unicode="ffh" horiz-adv-x="2525" 
d="M2310 203q-16 -75 -16 -92q0 -24 12 -34t45 -16v-61h-440v61q65 9 84 29.5t43 110.5l108 436q8 27 8 63q0 55 -27.5 87t-72.5 32q-114 0 -223 -145l-119 -479q-14 -60 -14 -82q0 -25 12 -35.5t45 -16.5v-61h-440v61q36 5 50 9t30.5 18t25 37.5t19.5 69.5l262 1054
q-21 42 -69 70.5t-103 28.5q-183 0 -242 -232l-37 -147h236v-140h-270l-162 -647q-8 -31 -8 -61q0 -31 17.5 -43t63.5 -17v-61h-469v61q63 6 83 26t42 99l160 643h-366l-156 -628q-14 -52 -14 -84q0 -30 16 -40.5t65 -15.5v-61h-469v61q62 6 84 28t43 108l158 632h-176v140
h211l22 90q49 193 189 293q137 98 311 98q176 0 320 -84q140 117 356 117q145 0 264 -53l213 34h13l-154 -616h16q70 78 133.5 113.5t147.5 35.5q112 0 181 -74.5t69 -205.5q0 -62 -19 -146zM1008 1083q17 67 49 129q-77 103 -183 103q-86 0 -144.5 -55t-84.5 -160l-33 -131
h367z" />
    <glyph glyph-name="f_f_i" unicode="ffi" horiz-adv-x="1918" 
d="M1294 1135l-41 -166h633l-194 -783q-13 -54 -13 -73q0 -25 12 -35.5t46 -16.5v-61h-441v61q35 5 49.5 9t31 17t24.5 35t18 64l160 643h-362l-156 -622q-14 -52 -14 -88q0 -30 16.5 -41.5t64.5 -16.5v-61h-469v61q61 6 83 29t46 115l156 624h-366l-156 -628
q-14 -52 -14 -84q0 -30 16 -40.5t65 -15.5v-61h-469v61q62 6 84 28t43 108l158 632h-176v140h211l22 90q49 193 189 293q137 98 311 98q175 0 320 -84q144 117 377 117q182 0 337 -76v-254h-57q-38 88 -117.5 141.5t-171.5 53.5q-98 0 -164 -54.5t-92 -158.5zM1004 1067
q22 81 53 145q-77 103 -183 103q-86 0 -144.5 -55t-84.5 -160l-33 -131h367z" />
    <glyph glyph-name="f_f_k" unicode="ffk" horiz-adv-x="2504" 
d="M2583 907q-82 -13 -141 -41.5t-130 -83.5l-239 -186l340 -592v-4h-310l-239 434l-119 -92l-41 -168q-10 -52 -10 -61q0 -24 13 -35.5t44 -16.5v-61h-440v61q56 6 79 28t42 89l268 1071q-21 42 -68.5 70.5t-101.5 28.5q-183 0 -242 -232l-37 -147h236v-140h-270l-162 -647
q-8 -31 -8 -61q0 -31 17.5 -43t63.5 -17v-61h-469v61q63 6 83 26t42 99l160 643h-366l-156 -628q-14 -52 -14 -84q0 -30 16 -40.5t65 -15.5v-61h-469v61q62 6 84 28t43 108l158 632h-176v140h211l22 90q49 193 189 293q137 98 311 98q176 0 320 -84q140 117 356 117
q145 0 264 -53l211 34h12l-229 -917h16l351 276q43 34 43 56t-39 28v62h416v-62zM1008 1083q17 67 49 129q-77 103 -183 103q-86 0 -144.5 -55t-84.5 -160l-33 -131h367z" />
    <glyph glyph-name="f_f_l" unicode="ffl" horiz-adv-x="1933" 
d="M1710 203q-14 -55 -14 -88q0 -26 12 -37t43 -17v-61h-440v61q64 9 83.5 30t43.5 112l262 1046q-24 43 -70.5 71t-101.5 28q-181 0 -240 -232l-37 -147h236v-140h-270l-162 -649q-8 -31 -8 -59q0 -31 17.5 -43t63.5 -17v-61h-469v61q61 6 82.5 27t40.5 92l162 649h-366
l-156 -628q-14 -52 -14 -84q0 -30 16 -40.5t65 -15.5v-61h-469v61q62 6 84 28t43 108l158 632h-176v140h211l22 90q49 193 189 293q137 98 311 98q176 0 320 -84q144 117 354 117q150 0 266 -53l213 34h10zM1008 1083q17 67 49 129q-77 103 -183 103q-86 0 -144.5 -55
t-84.5 -160l-33 -131h367z" />
    <glyph glyph-name="f_h" unicode="fh" horiz-adv-x="1875" 
d="M305 829h-176v140h211l29 114q48 193 191 296.5t339 103.5q145 0 264 -53l213 34h13l-154 -616h16q70 78 133.5 113.5t147.5 35.5q112 0 181 -74.5t69 -205.5q0 -62 -19 -146l-92 -368q-16 -75 -16 -92q0 -24 12 -34t45 -16v-61h-440v61q65 9 84 29.5t43 110.5l108 436
q9 30 9 63q0 55 -28 87t-73 32q-114 0 -223 -145l-119 -479q-14 -60 -14 -82q0 -25 12 -35.5t45 -16.5v-61h-440v61q36 5 50 9t30.5 18t25 37.5t19.5 69.5l262 1054q-21 42 -69 70.5t-103 28.5q-183 0 -242 -232l-37 -147h236v-140h-270l-162 -647q-8 -31 -8 -61
q0 -31 17.5 -43t63.5 -17v-61h-469v61q63 6 83 26t42 99z" />
    <glyph glyph-name="f_k" unicode="fk" horiz-adv-x="1865" 
d="M1942 907q-82 -13 -141 -41.5t-130 -83.5l-239 -186l340 -592v-4h-310l-239 434l-119 -92l-41 -168q-10 -52 -10 -61q0 -24 13 -35.5t44 -16.5v-61h-440v61q56 6 79 28t42 89l268 1071q-21 42 -68.5 70.5t-101.5 28.5q-183 0 -242 -232l-37 -147h236v-140h-271l-161 -647
q-8 -31 -8 -61q0 -31 17.5 -43t63.5 -17v-61h-469v61q63 6 83 26t42 99l160 643h-176v140h211l29 114q48 193 191 296.5t339 103.5q145 0 264 -53l211 34h12l-229 -917h16l351 276q43 34 43 56t-39 28v62h416v-62z" />
    <glyph glyph-name=".notdef" horiz-adv-x="1351" 
d="M1061 0h-995l364 1454h995zM563 1311l-293 -1168h658l293 1168h-658z" />
    <glyph glyph-name=".null" horiz-adv-x="0" 
 />
    <glyph glyph-name="nonmarkingreturn" horiz-adv-x="682" 
 />
    <glyph glyph-name="NULL" horiz-adv-x="0" 
 />
    <glyph glyph-name="NULL" horiz-adv-x="0" 
 />
    <glyph glyph-name="CR" unicode="&#xd;" horiz-adv-x="0" 
 />
    <glyph glyph-name="space" unicode=" " horiz-adv-x="475" 
 />
    <glyph glyph-name="exclam" unicode="!" horiz-adv-x="555" 
d="M328 424h-131l153 999h322zM35 121q0 81 53 134.5t131 53.5q71 0 112.5 -43t41.5 -110q0 -79 -53.5 -132t-133.5 -53q-68 0 -109.5 43t-41.5 107z" />
    <glyph glyph-name="quotedbl" unicode="&#x22;" horiz-adv-x="823" 
d="M340 803h-109l86 620h248zM741 803h-108l86 620h248z" />
    <glyph glyph-name="numbersign" unicode="#" horiz-adv-x="1370" 
d="M1413 1012v-133h-285l-153 -349h229v-133h-286l-175 -397h-147l174 397h-330l-174 -397h-147l174 397h-223v133h280l154 349h-225v133h282l180 411h148l-180 -411h329l181 411h147l-180 -411h227zM498 530h329l154 349h-330z" />
    <glyph glyph-name="dollar" unicode="$" horiz-adv-x="1114" 
d="M874 1417q152 -18 273 -80v-329h-64q-58 235 -243 276l-117 -475l51 -39q121 -88 176.5 -171t55.5 -189q0 -122 -68.5 -220.5t-180 -153.5t-243.5 -63l-39 -157h-119l39 159q-192 18 -350 127v334h66q102 -303 317 -330l117 465l-72 52q-110 81 -163.5 166t-53.5 190
q0 193 140.5 315.5t359.5 128.5l39 154h118zM623 883l100 403q-91 -14 -149 -70t-58 -133q0 -65 25 -110.5t82 -89.5zM645 496l-96 -383q89 19 141.5 75.5t52.5 135.5q0 48 -23.5 88t-74.5 84z" />
    <glyph glyph-name="percent" unicode="%" horiz-adv-x="1740" 
d="M201 1006q0 112 50.5 212t144.5 163t208 63q132 0 217 -88q88 -88 88 -234q0 -112 -50.5 -212t-144.5 -163t-208 -63q-131 0 -219 88q-86 89 -86 234zM1669 1423h-176l-1313 -1423h176zM698 1165q0 77 -26.5 118.5t-71.5 41.5q-56 0 -100.5 -57.5t-66 -138t-21.5 -162.5
q0 -77 26.5 -120.5t71.5 -43.5q56 0 100.5 58.5t66 140t21.5 163.5zM948 305q0 112 51 212t145 163t208 63q132 0 217 -88q88 -88 88 -233q0 -112 -51 -212t-145 -163t-208 -63q-131 0 -219 88q-86 89 -86 233zM1446 465q0 77 -26.5 118.5t-71.5 41.5q-56 0 -101 -57.5
t-66.5 -138.5t-21.5 -163q0 -77 26.5 -120.5t71.5 -43.5q56 0 101 58.5t66.5 140.5t21.5 164z" />
    <glyph glyph-name="ampersand" unicode="&#x26;" horiz-adv-x="1341" 
d="M1386 809v-10l-374 -447l225 -340v-12h-289l-98 150h-14q-170 -179 -394 -179q-172 0 -287.5 107t-115.5 262q0 144 88 246t256 172l53 22q-100 165 -100 279q0 166 120.5 279.5t307.5 113.5q156 0 258 -84t102 -211q0 -115 -75.5 -198t-227.5 -146l-90 -37l199 -301h16
l152 334h288zM582 1106q0 -105 80 -227h16l33 16q184 94 184 256q0 75 -37 119.5t-102 44.5q-79 0 -126.5 -60t-47.5 -149zM782 254l-276 422h-14q-181 -91 -181 -262q0 -109 69 -176.5t181 -67.5q134 0 221 84z" />
    <glyph glyph-name="quotesingle" unicode="'" horiz-adv-x="421" 
d="M340 803h-109l86 620h248z" />
    <glyph glyph-name="parenleft" unicode="(" horiz-adv-x="684" 
d="M360 -319q-274 367 -274 737q0 327 176 624t526 580l86 -72q-245 -268 -378.5 -593t-133.5 -672q0 -315 95 -559z" />
    <glyph glyph-name="parenright" unicode=")" horiz-adv-x="684" 
d="M408 1614q274 -367 274 -737q0 -327 -176 -624.5t-526 -580.5l-86 72q245 268 378.5 593.5t133.5 672.5q0 315 -95 559z" />
    <glyph glyph-name="asterisk" unicode="*" horiz-adv-x="913" 
d="M596 1004l-166 -285l-154 104l244 221v3l-264 -54v199l279 -62l2 3l-140 245l191 76l28 -283l2 3l164 280l152 -102l-244 -222v-2l266 60v-199l-278 58l-2 -3l137 -245l-188 -80l-27 285h-2z" />
    <glyph glyph-name="plus" unicode="+" horiz-adv-x="1187" 
d="M672 555h409v-143h-409v-404h-148v404h-411v143h411v408h148v-408z" />
    <glyph glyph-name="comma" unicode="," horiz-adv-x="516" 
d="M367 141q0 -51 -22.5 -97t-76.5 -116l-223 -278h-133l262 321h-4q-68 0 -111 43.5t-43 110.5q0 74 55 129t130 55q74 0 120 -47.5t46 -120.5z" />
    <glyph glyph-name="hyphen" unicode="-" horiz-adv-x="817" 
d="M729 532h-579v156h579v-156z" />
    <glyph glyph-name="period" unicode="." horiz-adv-x="495" 
d="M14 121q0 81 53 134.5t132 53.5q71 0 112 -43t41 -110q0 -79 -53 -132t-133 -53q-68 0 -110 43t-42 107z" />
    <glyph glyph-name="slash" unicode="/" horiz-adv-x="759" 
d="M813 1505h174l-919 -1585h-177z" />
    <glyph glyph-name="zero" unicode="0" horiz-adv-x="1271" 
d="M125 510q0 215 84 430q87 215 242 346q156 135 356 135q198 0 321 -148t123 -394q0 -220 -86 -433t-241 -344t-355 -131q-199 0 -321.5 147t-122.5 392zM967 1010q0 264 -162 264q-117 0 -207 -152q-87 -147 -137 -362q-49 -209 -49 -381q0 -260 159 -260q118 0 207 147
q92 155 140 359q49 209 49 385z" />
    <glyph glyph-name="one" unicode="1" horiz-adv-x="858" 
d="M193 0l239 961h-272v118q193 12 307 84t176 230h184l-348 -1393h-286z" />
    <glyph glyph-name="two" unicode="2" horiz-adv-x="1089" 
d="M903 0h-932v123l465 334q198 141 290.5 257t92.5 242q0 120 -76 190.5t-196 70.5q-149 0 -264 -107l-72 84q193 227 451 227q190 0 311 -111.5t121 -281.5q0 -171 -111 -309q-116 -141 -344 -293l-236 -158v-16h500v-252z" />
    <glyph glyph-name="three" unicode="3" horiz-adv-x="1114" 
d="M-12 246l80 67q129 -135 325 -135q135 0 228.5 77.5t93.5 193.5q0 104 -73.5 161t-203.5 62v123l406 329v17h-551v252h926v-123l-580 -467v-17q169 -30 261.5 -129t92.5 -243q0 -125 -72 -228t-188.5 -159t-249.5 -56q-320 0 -495 275z" />
    <glyph glyph-name="four" unicode="4" horiz-adv-x="1286" 
d="M817 0h-256l84 336h-643v123l1010 934h153l-204 -824h274v-233h-334zM805 1034l-483 -448v-17h383l116 465h-16z" />
    <glyph glyph-name="five" unicode="5" horiz-adv-x="1118" 
d="M-23 246l80 67q135 -135 324 -135q149 0 250 78q100 78 100 207q0 103 -70.5 161t-189.5 58q-128 0 -283 -76h-12l303 787h715v-252h-680l-137 -359h16q107 84 248 84q94 0 177 -44.5t137.5 -134.5t54.5 -206q2 -104 -39.5 -199t-114 -164t-174 -109t-213.5 -38
q-164 0 -289 73.5t-203 201.5z" />
    <glyph glyph-name="six" unicode="6" horiz-adv-x="1230" 
d="M145 342q-22 86 -22 193q0 171 64.5 335t181.5 287q118 123 267.5 187.5t315.5 64.5q107 0 206.5 -31t172.5 -86l-61 -100q-107 63 -258 63q-222 0 -372 -134.5t-214 -379.5h16q125 146 306 146q161 0 274 -111.5t113 -275.5q0 -228 -149 -378.5t-374 -150.5
q-176 0 -300.5 102.5t-166.5 268.5zM856 455q0 116 -60 185t-159 69q-69 0 -130 -38t-101 -98l-13 -84q-6 -46 -6 -90q0 -131 56 -210.5t153 -79.5q80 0 141 51t90 128.5t29 166.5z" />
    <glyph glyph-name="seven" unicode="7" horiz-adv-x="1044" 
d="M952 1120v17h-704v256h954v-123l-858 -1270h-362v12z" />
    <glyph glyph-name="eight" unicode="8" horiz-adv-x="1249" 
d="M66 362q0 159 119 264.5t327 131.5v16q-111 31 -170 98.5t-59 163.5q0 168 149 276.5t371 108.5q195 0 321.5 -95t126.5 -243q0 -134 -101 -227.5t-276 -126.5v-16q120 -30 192.5 -109.5t72.5 -187.5q0 -135 -77 -237t-210.5 -155t-302.5 -53q-218 0 -350.5 106.5
t-132.5 284.5zM973 1112q0 75 -45.5 120.5t-120.5 45.5q-107 0 -178 -86q-68 -86 -68 -207q0 -80 44.5 -129t119.5 -49q109 0 178.5 91t69.5 214zM860 455q0 96 -57.5 154.5t-151.5 58.5q-129 0 -218 -102.5t-89 -237.5q0 -98 56.5 -155.5t150.5 -57.5q132 0 220.5 103
t88.5 237z" />
    <glyph glyph-name="nine" unicode="9" horiz-adv-x="1239" 
d="M10 106l56 103q125 -70 272 -70q239 0 389 143.5t197 415.5h-17q-110 -168 -323 -168q-157 0 -264 112.5t-107 287.5q0 208 144 349.5t360 141.5q176 0 298.5 -96.5t170.5 -265.5q28 -109 28 -215q0 -167 -60 -327t-169 -281q-234 -252 -590 -252q-109 0 -212.5 33.5
t-172.5 88.5zM938 874l8 54q6 47 6 86q0 123 -56 197.5t-153 74.5q-119 0 -186 -94q-65 -92 -65 -217q0 -121 58 -192.5t152 -71.5q137 0 236 163z" />
    <glyph glyph-name="colon" unicode=":" horiz-adv-x="559" 
d="M29 121q0 81 53 134.5t131 53.5q71 0 112.5 -43t41.5 -110q0 -79 -53.5 -132t-133.5 -53q-68 0 -109.5 43t-41.5 107zM203 817q0 81 53 135t131 54q71 0 112.5 -43.5t41.5 -110.5q0 -79 -53.5 -131.5t-133.5 -52.5q-68 0 -109.5 42.5t-41.5 106.5z" />
    <glyph glyph-name="semicolon" unicode=";" horiz-adv-x="569" 
d="M188 817q0 81 53.5 135t131.5 54q71 0 112 -43t41 -111q0 -79 -53 -131.5t-133 -52.5q-68 0 -110 42.5t-42 106.5zM391 141q0 -52 -22 -97.5t-76 -115.5l-223 -278h-133l262 321h-4q-67 0 -110.5 43.5t-43.5 110.5q0 74 54.5 129t129.5 55q74 0 120 -47.5t46 -120.5z" />
    <glyph glyph-name="less" unicode="&#x3c;" horiz-adv-x="1218" 
d="M1051 141v-155l-969 430v133l969 432v-158l-764 -336v-12z" />
    <glyph glyph-name="equal" unicode="=" horiz-adv-x="1294" 
d="M1135 596h-969v143h969v-143zM1135 231h-969v144h969v-144z" />
    <glyph glyph-name="greater" unicode="&#x3e;" horiz-adv-x="1216" 
d="M1137 416l-969 -430v155l764 334v12l-764 336v158l969 -432v-133z" />
    <glyph glyph-name="question" unicode="?" horiz-adv-x="1044" 
d="M467 688q179 57 270.5 139t91.5 197q0 100 -74 161.5t-196 61.5q-171 0 -291 -117l-69 82q89 114 207.5 177t257.5 63q188 0 311 -103t123 -259q0 -173 -132 -296.5t-368 -195.5l-43 -174h-154zM256 121q0 81 53 134.5t131 53.5q71 0 112.5 -43t41.5 -110q0 -79 -53 -132
t-133 -53q-68 0 -110 43t-42 107z" />
    <glyph glyph-name="at" unicode="@" horiz-adv-x="1597" 
d="M70 383q-2 139 39.5 271t121 240t185.5 189t239.5 124.5t276.5 41.5q179 0 324.5 -77t229 -214t83.5 -305q0 -153 -53 -278.5t-152.5 -199t-226.5 -73.5q-87 0 -152 34.5t-94 94.5h-17q-99 -129 -237 -129q-101 0 -168.5 77t-67.5 198q-2 126 60 242.5t170.5 188.5
t230.5 69q60 0 117 -22.5t96 -59.5h17l88 65h112l-194 -485q-15 -40 -15 -62q0 -39 23 -61.5t65 -22.5q72 0 133 63t94.5 158.5t33.5 196.5q0 209 -142 341t-360 132q-147 3 -282 -57.5t-230.5 -162t-151 -237.5t-53.5 -278q0 -234 147 -380t379 -146q187 0 359 96l49 -102
q-199 -123 -412 -123q-183 -3 -337 82.5t-242.5 237t-85.5 333.5zM842 322l108 278q17 49 17 74q0 44 -27 70t-74 26q-68 4 -128.5 -55t-93.5 -143t-32 -160q0 -68 34 -112t89 -44q56 0 107 66z" />
    <glyph glyph-name="A" unicode="A" horiz-adv-x="1439" 
d="M1227 254q13 -86 36.5 -124.5t75.5 -68.5v-61h-567v61q88 20 124 50t36 84q0 4 -0.5 10t-1.5 17.5t-2 21.5l-27 159h-506l-92 -147q-53 -83 -53 -123q0 -52 94 -72v-61h-461v61q94 35 144 74q50 42 112 141l719 1147h164zM780 1018l-295 -471h392l-80 471h-17z" />
    <glyph glyph-name="B" unicode="B" horiz-adv-x="1386" 
d="M-23 61q27 6 44 9.5t34 11t25.5 11.5t19.5 18.5t16 22.5t13.5 33t13 41.5t15.5 55.5l231 926q17 66 17 92q0 35 -21 53.5t-68 26.5v61h586q227 0 353 -88t126 -233t-114.5 -241t-309.5 -126v-16q159 -23 248.5 -100t89.5 -195q0 -127 -81.5 -224.5t-219.5 -148.5
t-309 -51h-709v61zM766 813q143 0 228 72t85 196q0 97 -63.5 150t-173.5 53h-125l-117 -471h166zM563 674l-133 -535h197q161 0 259.5 84t98.5 230q0 105 -74.5 163t-208.5 58h-139z" />
    <glyph glyph-name="C" unicode="C" horiz-adv-x="1396" 
d="M133 621q-4 166 63 321.5t180.5 268t268 179t318.5 62.5q236 0 434 -109v-339h-66q-50 143 -144 222t-218 79q-140 4 -259 -83.5t-185 -231t-64 -304.5q0 -228 126 -360.5t328 -132.5q191 0 361 126l67 -83q-239 -265 -557 -265q-181 -3 -332 82.5t-237.5 236.5
t-83.5 331z" />
    <glyph glyph-name="D" unicode="D" horiz-adv-x="1603" 
d="M389 1190q17 80 17 90q0 71 -89 82v61h553q207 0 370.5 -75.5t256 -214t92.5 -316.5q3 -168 -66.5 -320t-191.5 -262.5t-296.5 -174t-372.5 -60.5h-685v61q91 15 121 47.5t58 147.5zM612 139q120 -2 226 37.5t182.5 109t132.5 161t83 195t26 208.5q0 208 -109 321
t-303 113h-133l-287 -1145h182z" />
    <glyph glyph-name="E" unicode="E" horiz-adv-x="1329" 
d="M1178 395v-395h-1205v61q84 12 118.5 48t58.5 127l239 954q14 60 14 88q0 37 -20.5 57t-69.5 27v61h1071v-342h-65q-17 109 -86.5 154t-222.5 45h-295l-123 -492h147q127 0 175 34t61 118h65v-442h-65q-12 85 -59.5 116t-178.5 31h-180l-125 -502h371q147 0 214.5 52.5
t94.5 199.5h66z" />
    <glyph glyph-name="F" unicode="F" horiz-adv-x="1234" 
d="M-23 61q35 7 56 12t39.5 17t27.5 20.5t20 32.5t16.5 43t17.5 62l233 934q19 78 19 100q0 35 -21 53.5t-68 26.5v61h1035v-342h-66q-24 110 -90.5 154.5t-216.5 44.5h-264l-127 -508h207q124 0 175 33t62 119h66v-443h-66q-11 81 -61.5 114.5t-167.5 33.5h-250l-94 -375
q-19 -81 -19 -102q0 -41 25 -62t82 -29v-61h-570v61z" />
    <glyph glyph-name="G" unicode="G" horiz-adv-x="1511" 
d="M459 606q0 -231 102 -361t297 -130q34 0 92 10l92 371q15 62 15 84q0 41 -24.5 61t-86.5 31v61h567v-61q-89 -22 -115.5 -50t-51.5 -128l-101 -400q-221 -123 -446 -123q-141 -2 -266.5 49t-214 139t-139 210t-48.5 258q-3 167 68.5 320t194.5 265t297 177.5t366 62.5
q276 0 477 -109v-331h-57q-55 140 -163 216.5t-265 76.5q-129 3 -242 -56t-188.5 -157t-118 -225.5t-41.5 -260.5z" />
    <glyph glyph-name="H" unicode="H" horiz-adv-x="1687" 
d="M1274 1423h549v-61q-89 -12 -120 -44.5t-56 -131.5l-236 -948q-16 -69 -16 -97q0 -38 19 -55t69 -25v-61h-549v61q87 12 118 44t56 133l102 411h-653l-102 -411q-17 -73 -17 -97q0 -38 19 -55t69 -25v-61h-549v61q87 12 118.5 44t56.5 133l235 948q16 75 16 100
q0 36 -18.5 52.5t-67.5 23.5v61h549v-61q-89 -12 -120 -44.5t-56 -131.5l-98 -393h653l98 393q17 80 17 100q0 36 -18.5 52.5t-67.5 23.5v61z" />
    <glyph glyph-name="I" unicode="I" horiz-adv-x="729" 
d="M-23 61q87 12 118.5 44t56.5 133l235 948q16 75 16 100q0 36 -18.5 52.5t-67.5 23.5v61h549v-61q-89 -12 -120 -44.5t-56 -131.5l-235 -948q-17 -73 -17 -97q0 -38 19 -55t69 -25v-61h-549v61z" />
    <glyph glyph-name="J" unicode="J" horiz-adv-x="1032" 
d="M-86 98l57 99q112 -62 222 -62q127 0 208.5 66.5t118.5 218.5l191 766q16 75 16 98q0 36 -19 53t-67 25v61h549v-61q-84 -7 -118 -42.5t-58 -133.5l-189 -760q-116 -455 -549 -455q-211 0 -362 127z" />
    <glyph glyph-name="K" unicode="K" horiz-adv-x="1484" 
d="M1673 1362q-119 -24 -192 -70q-68 -40 -172 -127l-408 -350l518 -807v-8h-356l-383 625l-170 -148l-59 -239q-17 -73 -17 -97q0 -38 19 -55t69 -25v-61h-549v61q87 12 118 44t56 133l236 948q16 75 16 100q0 36 -18.5 52.5t-67.5 23.5v61h549v-61q-89 -12 -120 -44.5
t-56 -131.5l-113 -451h17l526 457q109 89 109 127q0 28 -51 43v61h499v-61z" />
    <glyph glyph-name="L" unicode="L" horiz-adv-x="1200" 
d="M-25 61q95 18 123 49.5t58 143.5l233 932q17 70 17 94q0 36 -21 55.5t-70 26.5v61h553v-61q-86 -9 -117.5 -43.5t-56.5 -130.5l-260 -1045h293q142 0 201 58t86 233h65v-434h-1104v61z" />
    <glyph glyph-name="M" unicode="M" horiz-adv-x="1945" 
d="M709 0l-168 1120h-17l-217 -866q-18 -71 -18 -109t20.5 -57t65.5 -27v-61h-406v61q82 9 116 46t62 147l240 956q12 44 12 74q0 35 -20.5 53.5t-67.5 24.5v61h473l152 -1024h16l647 1024h482v-61q-46 -5 -74 -15t-47 -33t-29.5 -50t-23.5 -78l-242 -971q-12 -43 -12 -74
q0 -37 20.5 -56.5t67.5 -23.5v-61h-549v61q78 7 113.5 40t54.5 110l225 893h-16l-697 -1104h-163z" />
    <glyph glyph-name="N" unicode="N" horiz-adv-x="1546" 
d="M-23 61q79 6 116 46t61 137l260 1036l-68 131v12h393l420 -970h17l184 731q14 49 14 94q0 38 -20 58t-64 26v61h406v-61q-79 -8 -115.5 -44.5t-60.5 -137.5l-297 -1180h-189l-485 1114h-17l-219 -872q-16 -66 -16 -97q0 -72 86 -84v-61h-406v61z" />
    <glyph glyph-name="O" unicode="O" horiz-adv-x="1648" 
d="M131 590q-3 172 63 332t179 277.5t271.5 186.5t332.5 66q186 2 338 -81.5t236 -226.5t81 -313q2 -139 -39 -270.5t-119.5 -238.5t-182.5 -187t-235 -123t-270 -41q-139 -2 -262.5 46t-210 131.5t-135.5 198.5t-47 243zM1305 885q0 191 -88 302t-246 111q-110 4 -209 -66
t-164.5 -182.5t-103 -248.5t-35.5 -264q0 -189 87 -299.5t245 -110.5q110 -4 209.5 65.5t165.5 181.5t103.5 247.5t35.5 263.5z" />
    <glyph glyph-name="P" unicode="P" horiz-adv-x="1271" 
d="M537 563l-80 -323q-13 -57 -13 -86q0 -42 23 -64t78 -29v-61h-565v61q83 12 114 42.5t56 121.5l239 961q17 70 17 98q0 33 -20.5 52t-66.5 26v61h512q236 0 383.5 -105.5t147.5 -283.5q0 -146 -83.5 -254t-227.5 -162.5t-330 -54.5h-184zM717 1284l-146 -582h131
q166 0 259.5 91t93.5 245q0 120 -65.5 183t-182.5 63h-90z" />
    <glyph glyph-name="Q" unicode="Q" horiz-adv-x="1656" 
d="M1151 109h479v-259h-12l-621 148q-120 -27 -215 -27q-186 0 -335.5 81.5t-232.5 223t-83 314.5q-3 172 62.5 332t178.5 277.5t271.5 187t331.5 65.5q138 2 260 -47t207.5 -133.5t134 -200t47.5 -242.5q0 -242 -133.5 -439t-339.5 -265v-16zM784 127q91 -3 174 42.5
t143.5 123t105.5 177t67.5 207.5t21.5 210q0 191 -85.5 301t-241.5 110q-153 0 -269 -116t-180 -297q-61 -177 -61 -353q0 -187 85.5 -296t239.5 -109z" />
    <glyph glyph-name="R" unicode="R" horiz-adv-x="1427" 
d="M946 692l422 -684v-8h-342l-391 666h-74l-106 -426q-17 -70 -17 -101q0 -36 19 -54t67 -24v-61h-549v61q46 6 75 17t48.5 34t30 51t23.5 79l229 925q20 73 20 115q0 36 -19.5 54.5t-66.5 25.5v61h559q216 0 355 -99.5t139 -252.5q0 -149 -111.5 -246t-310.5 -133z
M594 805h121q157 0 251.5 74.5t94.5 193.5q0 103 -66 157t-186 54h-96z" />
    <glyph glyph-name="S" unicode="S" horiz-adv-x="1116" 
d="M37 111v333h65q61 -166 159.5 -245.5t221.5 -79.5q112 0 184 58t72 153q0 60 -33.5 105t-115.5 104l-123 88q-108 80 -159.5 168.5t-51.5 203.5q0 201 149.5 327t380.5 126q98 0 198.5 -25.5t176.5 -68.5v-330h-65q-24 127 -111.5 202t-204.5 75q-111 0 -179.5 -58.5
t-68.5 -154.5q0 -119 142 -218l117 -81q119 -82 172 -170t53 -203q0 -132 -75.5 -236t-197 -158.5t-262.5 -54.5q-245 0 -444 140z" />
    <glyph glyph-name="T" unicode="T" horiz-adv-x="1308" 
d="M250 61q57 7 88 16.5t53 34.5t32.5 53.5t27.5 90.5l254 1028h-84q-157 0 -230 -49.5t-96 -169.5h-66v358h1233v-358h-65q-19 116 -94 167.5t-224 51.5h-71l-254 -1028q-21 -77 -21 -113q0 -37 24 -56t83 -26v-61h-590v61z" />
    <glyph glyph-name="U" unicode="U" horiz-adv-x="1560" 
d="M201 444q0 99 26 197l142 563q12 46 12 80q0 36 -20 55t-66 23v61h551v-61q-77 -7 -116 -43.5t-58 -112.5l-154 -622q-18 -70 -18 -131q0 -127 75 -199t218 -72q336 0 442 416l147 598q13 54 13 82q0 38 -20 58t-64 26v61h403v-61q-75 -4 -113 -43.5t-59 -124.5
l-151 -614q-75 -302 -242.5 -455.5t-439.5 -153.5q-230 0 -369 127t-139 346z" />
    <glyph glyph-name="V" unicode="V" horiz-adv-x="1431" 
d="M688 0h-182l-166 1174q-12 91 -34.5 128t-82.5 60v61h584v-61q-98 -17 -134 -47t-36 -92q0 -29 6 -70l100 -756h17l487 768q68 107 68 140q0 20 -16.5 33t-53.5 24v61h424v-61q-84 -18 -133 -64q-53 -49 -115 -149z" />
    <glyph glyph-name="W" unicode="W" horiz-adv-x="2033" 
d="M342 1143q-4 82 -13 120.5t-28.5 60t-62.5 38.5v61h577v-61q-108 -17 -145.5 -64t-32.5 -153l35 -686h16l430 731l-16 233h307l59 -948h17l354 658q39 72 53.5 105.5t14.5 57.5q0 45 -70 66v61h418v-61q-79 -20 -129 -70t-109 -159l-620 -1133h-185l-57 930h-16
l-551 -930h-187z" />
    <glyph glyph-name="X" unicode="X" horiz-adv-x="1437" 
d="M629 707l-219 477q-40 85 -72 121.5t-90 56.5v61h598v-61q-74 -13 -106.5 -38t-32.5 -64q0 -32 18 -72l115 -270h16l260 274q78 84 78 121q0 31 -43 49v61h442v-61q-87 -18 -143 -57q-58 -39 -139 -123l-379 -391l248 -543q33 -71 73 -115t101 -72v-61h-609v61
q134 38 134 119q0 22 -13 51l-147 342h-17l-315 -331q-76 -79 -76 -121q0 -36 47 -60v-61h-467v61q97 32 165 75.5t141 119.5z" />
    <glyph glyph-name="Y" unicode="Y" horiz-adv-x="1427" 
d="M1219 1423h436v-61q-91 -18 -142 -55q-42 -28 -114 -113l-506 -614l-84 -334q-18 -70 -18 -107t19 -53.5t69 -24.5v-61h-551v61q80 8 116 45t62 140l82 334l-205 616q-25 74 -54.5 107.5t-92.5 58.5v61h595v-61q-77 -13 -111 -38.5t-34 -68.5q0 -27 12 -65l136 -428h16
l346 430q74 89 74 123q0 32 -51 47v61z" />
    <glyph glyph-name="Z" unicode="Z" horiz-adv-x="1275" 
d="M-27 0v123l1018 1145v12h-350q-131 0 -192.5 -55t-88.5 -187h-65v385h1098v-123l-1018 -1144v-13h362q152 0 218 56.5t94 212.5h65v-412h-1141z" />
    <glyph glyph-name="bracketleft" unicode="[" horiz-adv-x="735" 
d="M969 1593v-135h-273l-405 -1622h239v-135h-550l475 1892h514z" />
    <glyph glyph-name="backslash" unicode="\" horiz-adv-x="737" 
d="M444 1505l119 -1585h-155l-119 1585h155z" />
    <glyph glyph-name="bracketright" unicode="]" horiz-adv-x="733" 
d="M-152 -299v135h273l405 1622h-239v135h551l-476 -1892h-514z" />
    <glyph glyph-name="asciicircum" unicode="^" horiz-adv-x="901" 
d="M332 793h-158l291 630h168l291 -630h-162l-209 483h-12z" />
    <glyph glyph-name="underscore" unicode="_" horiz-adv-x="1011" 
d="M813 -227h-924v133h924v-133z" />
    <glyph glyph-name="grave" unicode="`" horiz-adv-x="489" 
d="M553 1438l51 -324h-102l-230 313v11h281z" />
    <glyph glyph-name="a" unicode="a" horiz-adv-x="1191" 
d="M59 371q-3 160 71.5 306t203.5 235t276 85q188 0 301 -125h17l125 97h112l-182 -727q-12 -53 -12 -68q0 -44 63 -53v-62l-375 -67h-12l33 129h-16q-105 -150 -283 -150q-139 0 -230.5 113.5t-91.5 286.5zM719 276l80 318q12 50 12 90q0 85 -45 135.5t-115 50.5
q-90 3 -165.5 -69.5t-115 -179.5t-38.5 -213q0 -114 48.5 -186t129.5 -72q101 0 209 126z" />
    <glyph glyph-name="b" unicode="b" horiz-adv-x="1189" 
d="M274 96h-16l-127 -108h-113l304 1214q12 46 12 76q0 31 -18 44.5t-62 18.5v62l393 61h12l-153 -616h16q57 76 123.5 112.5t157.5 36.5q141 0 236.5 -110t95.5 -285q3 -128 -43.5 -246.5t-124.5 -203t-183.5 -134t-216.5 -47.5q-181 0 -293 125zM862 567q0 116 -48.5 184
t-127.5 68q-113 0 -219 -127l-80 -317q-12 -50 -12 -92q0 -85 46 -135t122 -50q86 0 160.5 68t116.5 176t42 225z" />
    <glyph glyph-name="c" unicode="c" horiz-adv-x="974" 
d="M63 416q-3 161 75.5 295.5t217.5 211.5t306 74q153 0 276 -63v-254h-61q-20 87 -79 136.5t-139 49.5q-143 0 -232 -111.5t-89 -281.5q0 -139 73.5 -215t198.5 -76q144 0 254 84l56 -65q-84 -114 -195 -172t-233 -58q-189 0 -309 128.5t-120 316.5z" />
    <glyph glyph-name="d" unicode="d" horiz-adv-x="1202" 
d="M59 371q-3 162 73.5 308t209 234t283.5 84q155 0 239 -106h17l84 336q8 36 8 51q0 30 -18 44t-58 19v62l387 61h12l-305 -1220q-12 -46 -12 -70q0 -26 13.5 -37t49.5 -16v-62l-374 -67h-13l33 129h-16q-54 -73 -119.5 -111.5t-157.5 -38.5q-147 0 -241.5 110.5
t-94.5 289.5zM727 276l80 318q12 50 12 90q0 85 -45.5 135.5t-118.5 50.5q-69 2 -131.5 -40.5t-103.5 -110t-65 -150t-23 -161.5q0 -119 47 -188.5t133 -69.5q111 0 215 126z" />
    <glyph glyph-name="e" unicode="e" horiz-adv-x="1007" 
d="M952 684q0 -30 -10 -88l-12 -59h-600q-2 -10 -2 -45q0 -147 75.5 -228.5t204.5 -81.5q143 0 256 84l56 -65q-173 -230 -433 -230q-180 0 -299.5 124.5t-119.5 320.5q-3 148 66.5 283.5t194 218.5t269.5 79q163 0 258.5 -85.5t95.5 -227.5zM350 649h350q9 35 9 76
q0 71 -32.5 111.5t-94.5 40.5q-79 0 -139.5 -62.5t-92.5 -165.5z" />
    <glyph glyph-name="f" unicode="f" horiz-adv-x="833" 
d="M20 61q61 6 83.5 29.5t46.5 112.5l155 626h-176v140h211l33 131q47 188 170 285.5t307 97.5q117 0 217 -35v-234h-57q-19 60 -60.5 97t-103.5 37q-140 0 -178 -156l-56 -223h236v-140h-270l-156 -626q-14 -52 -14 -86q0 -30 16 -40.5t65 -15.5v-61h-469v61z" />
    <glyph glyph-name="g" unicode="g" horiz-adv-x="1060" 
d="M1120 850h-233v-10q57 -60 57 -142q0 -160 -127 -263t-319 -103q-88 0 -156 24q-109 -37 -109 -96q0 -30 22.5 -45t70.5 -20l288 -33q149 -18 229.5 -78t80.5 -162q0 -108 -82 -192t-210 -126t-276 -42q-208 0 -328 65t-120 180q0 64 46.5 118.5t135.5 90.5v11
q-72 54 -72 139q0 75 54.5 137t158.5 103v12q-104 87 -104 215q0 162 129.5 263t321.5 101q81 0 163 -26l367 90h12v-211zM707 725q0 74 -34.5 117t-94.5 43q-88 0 -148 -84q-55 -82 -55 -195q0 -75 35 -118.5t96 -43.5q89 0 145 86t56 195zM227 -25q-2 0 -22 5
q-96 -62 -96 -148q0 -70 68 -110.5t188 -40.5q136 0 224.5 42t88.5 117q0 85 -133 99z" />
    <glyph glyph-name="h" unicode="h" horiz-adv-x="1159" 
d="M336 1206q0 2 6 29.5t6 38.5q0 29 -17.5 44t-58.5 23v62l387 61h13l-154 -616h17q64 75 130 112t148 37q114 0 183 -74.5t69 -205.5q0 -67 -18 -146l-93 -368q-16 -75 -16 -92q0 -24 12 -34t45 -16v-61h-440v61q65 9 84 29.5t43 110.5l109 436q8 27 8 61q0 56 -29 88.5
t-74 32.5q-119 0 -221 -145l-119 -479q-14 -60 -14 -82q0 -25 12 -35.5t45 -16.5v-61h-440v61q36 5 50 9t30.5 18t25 37.5t19.5 69.5z" />
    <glyph glyph-name="i" unicode="i" horiz-adv-x="589" 
d="M334 1268q0 78 53 130t131 52q66 0 108 -40.5t42 -106.5q0 -78 -54.5 -130.5t-132.5 -52.5q-63 0 -105 42.5t-42 105.5zM362 174q-10 -52 -10 -61q0 -24 13.5 -35.5t44.5 -16.5v-61h-441v61q58 6 81 28t40 89l139 559q9 41 9 51q0 30 -17.5 46t-58.5 22v62l387 61h12z
" />
    <glyph glyph-name="j" unicode="j" horiz-adv-x="563" 
d="M324 1268q0 78 53 130t131 52q66 0 107.5 -40.5t41.5 -106.5q0 -78 -54 -130.5t-132 -52.5q-63 0 -105 42.5t-42 105.5zM-375 -369l41 95q56 -29 123 -29q170 0 217 182l211 846q10 45 10 61q0 32 -17 48t-58 22v62l387 61h12l-264 -1067q-46 -185 -151 -267.5
t-269 -82.5q-65 0 -131 19t-111 50z" />
    <glyph glyph-name="k" unicode="k" horiz-adv-x="1150" 
d="M1227 907q-78 -11 -139 -41t-140 -90l-231 -180l340 -592v-4h-309l-240 434l-119 -92l-41 -168q-10 -52 -10 -61q0 -24 13 -35.5t44 -16.5v-61h-440v61q56 6 79 28t42 89l262 1045q8 36 8 51q0 30 -17.5 45.5t-58.5 21.5v62l387 61h13l-230 -917h17l350 276q41 35 41 56
q0 22 -37 28v62h416v-62z" />
    <glyph glyph-name="l" unicode="l" horiz-adv-x="577" 
d="M-45 61q56 6 79 28t42 89l262 1045q8 36 8 51q0 30 -17.5 45.5t-58.5 21.5v62l387 61h13l-322 -1290q-10 -52 -10 -61q0 -24 13 -35.5t44 -16.5v-61h-440v61z" />
    <glyph glyph-name="m" unicode="m" horiz-adv-x="1722" 
d="M225 721q11 46 11 67q0 31 -16.5 45.5t-57.5 22.5v62l387 61h12l-33 -131h17q118 149 276 149q86 0 143.5 -55t75.5 -149h17q58 95 141.5 149.5t185.5 54.5q105 0 175.5 -75t70.5 -197q0 -60 -14 -115l-103 -407q-16 -69 -16 -90q0 -24 13 -35t46 -17v-61h-440v61
q35 5 50 9.5t31 19t24.5 39t19.5 72.5l113 448q8 27 8 64q0 50 -25.5 78t-68.5 28q-103 0 -209 -145l-117 -469q-16 -75 -16 -92q0 -25 12.5 -35.5t44.5 -16.5v-61h-440v61q64 9 83 27.5t40 99.5l116 471q6 27 6 52q0 49 -25.5 78.5t-68.5 29.5q-53 0 -108 -39.5
t-101 -105.5l-125 -506q-8 -24 -8 -53q0 -51 58 -54v-61h-441v61q56 4 80.5 27.5t38.5 81.5z" />
    <glyph glyph-name="n" unicode="n" horiz-adv-x="1169" 
d="M223 721q0 3 6.5 29.5t6.5 37.5q0 29 -17.5 45t-58.5 23v62l387 61h12l-33 -131h17q65 76 131 112.5t149 36.5q112 0 181 -74.5t69 -205.5q0 -67 -18 -146l-92 -368q-17 -80 -17 -92q0 -24 12 -34t46 -16v-61h-441v61q65 9 84 29.5t43 110.5l109 436q8 27 8 61
q0 56 -28.5 88.5t-76.5 32.5q-59 0 -115.5 -39.5t-103.5 -105.5l-118 -479q-15 -65 -15 -82q0 -25 12 -35.5t46 -16.5v-61h-441v61q36 5 50 9t30.5 18t25 37.5t19.5 69.5z" />
    <glyph glyph-name="o" unicode="o" horiz-adv-x="1161" 
d="M66 399q-3 163 74 301.5t213 219t298 77.5q200 0 323.5 -119t123.5 -309q2 -122 -43 -233.5t-123.5 -192t-188.5 -127.5t-231 -45q-197 0 -321.5 120t-124.5 308zM811 623q0 112 -42 171.5t-122 59.5q-86 4 -156.5 -78.5t-105.5 -199.5t-33 -230q0 -112 42 -171.5
t122 -59.5q64 -3 121.5 45t94.5 124t58.5 166t20.5 173z" />
    <glyph glyph-name="p" unicode="p" horiz-adv-x="1206" 
d="M213 721q12 53 12 76q0 24 -13 34.5t-46 16.5v61l373 68h12l-33 -129h17q110 149 276 149q147 0 241.5 -109.5t94.5 -285.5q3 -128 -44.5 -247.5t-126 -203.5t-182.5 -133.5t-210 -46.5q-147 0 -248 84h-17l-63 -254q-18 -83 -18 -96q0 -28 15.5 -38t61.5 -15v-62h-460
v62q63 6 82.5 28t44.5 115zM874 567q0 118 -48 185t-130 67q-108 0 -217 -127l-80 -319q-12 -49 -12 -90q0 -85 46 -135t120 -50q67 -3 128 38.5t103 109t66.5 153t23.5 168.5z" />
    <glyph glyph-name="q" unicode="q" horiz-adv-x="1187" 
d="M690 121h-16q-57 -76 -124 -113t-157 -37q-143 0 -237.5 113t-94.5 285q-3 163 73.5 309.5t209 234.5t283.5 84q182 0 295 -125h16l125 97h113l-295 -1178q-17 -73 -17 -88q0 -24 12.5 -34.5t45.5 -16.5v-62h-461v62q79 6 101.5 28.5t47.5 116.5zM729 276l80 318
q12 50 12 90q0 86 -45 136t-119 50q-68 2 -129.5 -39.5t-103.5 -109t-66.5 -151.5t-23.5 -167q0 -115 47.5 -184t132.5 -69q104 0 215 126z" />
    <glyph glyph-name="r" unicode="r" horiz-adv-x="841" 
d="M229 735q9 27 9 53q0 31 -17.5 46.5t-58.5 21.5v62l385 61h14l-67 -270h16q68 153 138 220.5t171 67.5q41 0 76 -12v-274q-44 20 -123 20q-99 0 -184 -55.5t-142 -157.5l-75 -307q-17 -80 -17 -94q0 -30 17 -40.5t63 -15.5v-61h-465v61q64 6 84 29.5t45 118.5z" />
    <glyph glyph-name="s" unicode="s" horiz-adv-x="845" 
d="M12 72v227h62q33 -92 99 -145.5t151 -53.5q71 0 115 31.5t44 87.5q0 66 -73 115l-115 78q-143 98 -143 245q0 149 116 244.5t281 95.5q161 0 276 -69v-238h-61q-20 85 -78 131.5t-141 46.5q-75 0 -123.5 -33.5t-48.5 -91.5q0 -35 22 -63t82 -66l92 -61q80 -54 115 -110.5
t35 -131.5q0 -149 -116.5 -244.5t-283.5 -95.5q-170 0 -307 101z" />
    <glyph glyph-name="t" unicode="t" horiz-adv-x="770" 
d="M143 225q0 55 15 111l123 493h-170v123q216 8 286 129q35 59 72 160h188l-67 -272h254v-140h-291l-139 -559q-6 -24 -6 -45q0 -90 108 -90q57 0 127 31l39 -72q-132 -123 -283 -123q-116 0 -186 68t-70 186z" />
    <glyph glyph-name="u" unicode="u" horiz-adv-x="1146" 
d="M98 238q0 56 17 129l88 354q10 52 10 67q0 56 -74 68v62l389 61h11l-166 -670q-8 -36 -8 -55q0 -50 28 -76t76 -26q49 0 101.5 33t97.5 91l110 445q10 52 10 67q0 30 -16 45.5t-57 22.5v62l389 61h10l-180 -729q-12 -49 -12 -76q0 -24 14 -36t47 -17v-62l-377 -67h-10
l33 129h-17q-114 -150 -278 -150q-105 0 -170.5 72t-65.5 195z" />
    <glyph glyph-name="v" unicode="v" horiz-adv-x="1079" 
d="M229 748q-7 61 -30 82t-84 26v62l354 69l2 -18q7 -70 33 -250l51 -354h16l258 401q48 76 48 100q0 32 -54 41v62h357v-62q-72 -12 -111 -41t-90 -106l-498 -760h-131z" />
    <glyph glyph-name="w" unicode="w" horiz-adv-x="1581" 
d="M524 389l269 410l-15 170h262l58 -580h16l223 363q47 75 47 102q0 32 -53 53v62h350v-62q-66 -13 -106 -47.5t-90 -114.5l-461 -745h-135l-51 610h-17l-399 -610h-133l-78 731q-6 71 -28.5 97.5t-84.5 27.5v62l355 69l4 -55q5 -71 20 -219l31 -324h16z" />
    <glyph glyph-name="x" unicode="x" horiz-adv-x="1044" 
d="M399 469l-147 322q-23 54 -50.5 78t-78.5 38v62h473v-62q-47 -11 -66.5 -24.5t-19.5 -36.5q0 -11 12 -45l62 -152h16l135 139q53 53 53 84q0 23 -28 35v62h368v-62q-82 -13 -128 -40t-109 -93l-234 -242l150 -329q32 -72 57.5 -100.5t73.5 -41.5v-61h-475v61q94 15 94 68
q0 13 -12 47l-74 174h-16l-160 -164q-51 -51 -51 -84q0 -26 35 -41v-61h-379v61q72 17 123 48t114 94z" />
    <glyph glyph-name="y" unicode="y" horiz-adv-x="1048" 
d="M813 969h356v-62q-75 -20 -116 -53t-84 -106l-533 -877q-103 -169 -197 -239t-212 -70q-94 0 -158 43v221q78 -35 174 -35q199 0 307 178l6 11l-143 772q-11 58 -33.5 80.5t-81.5 23.5v62l351 69l2 -14l36 -240l66 -397h16l250 416q45 71 45 106q0 34 -51 49v62z" />
    <glyph glyph-name="z" unicode="z" horiz-adv-x="964" 
d="M324 145v-16h178q103 0 157.5 40.5t85.5 139.5h62v-309h-844v123l660 700v17h-166q-100 0 -147.5 -31.5t-73.5 -116.5h-62v277h809v-123z" />
    <glyph glyph-name="braceleft" unicode="{" horiz-adv-x="798" 
d="M94 -10q0 59 19 137l75 301q15 62 15 90q0 53 -27.5 79.5t-85.5 31.5v125q101 7 152 52t75 140l78 314q43 176 163.5 267t289.5 91q99 0 209 -35l-37 -106q-50 12 -98 12q-207 0 -263 -219l-75 -301q-32 -128 -101 -196t-182 -85v-12q145 -47 145 -207q0 -56 -14 -111
l-84 -338q-8 -31 -8 -69q0 -73 46 -109.5t132 -36.5q42 0 84 11l-8 -113q-64 -27 -166 -27q-149 0 -241.5 84t-92.5 230z" />
    <glyph glyph-name="bar" unicode="|" horiz-adv-x="507" 
d="M139 -299h-159l473 1892h157z" />
    <glyph glyph-name="braceright" unicode="}" horiz-adv-x="798" 
d="M788 1303q0 -65 -18 -138l-76 -301q-14 -57 -14 -90q0 -53 27.5 -79t85.5 -31v-125q-100 -7 -152 -52.5t-76 -140.5l-78 -313q-43 -176 -163 -267.5t-289 -91.5q-99 0 -209 35l37 107q54 -13 98 -13q206 0 262 220l76 301q32 128 101 195.5t182 84.5v12q-146 47 -146 207
q0 53 15 111l84 338q8 31 8 69q0 73 -46 109.5t-132 36.5q-46 0 -84 -10l8 112q65 27 166 27q149 0 241 -83.5t92 -229.5z" />
    <glyph glyph-name="asciitilde" unicode="~" horiz-adv-x="1134" 
d="M96 346q-4 130 65.5 211.5t182.5 81.5q96 0 211 -59l72 -39q59 -32 92.5 -44t64.5 -12q52 0 82.5 39t30.5 111h147q2 -131 -67 -212t-184 -81q-102 0 -218 64l-71 38q-91 52 -150 52q-54 0 -82.5 -38.5t-27.5 -111.5h-148z" />
    <glyph glyph-name="uni00A0" unicode="&#xa0;" horiz-adv-x="475" 
 />
    <glyph glyph-name="exclamdown" unicode="&#xa1;" horiz-adv-x="528" 
d="M510 848q0 -81 -53 -135t-131 -54q-71 0 -112.5 43.5t-41.5 110.5q0 79 53 131.5t133 52.5q68 0 110 -42.5t42 -106.5zM217 545h131l-153 -1000h-322z" />
    <glyph glyph-name="cent" unicode="&#xa2;" horiz-adv-x="1052" 
d="M913 680q-36 143 -159 178l-166 -672q50 -4 59 -4q144 0 254 84l55 -65q-83 -113 -191.5 -170.5t-229.5 -59.5l-39 -155h-115l41 168q-151 35 -236 151q-86 121 -86 281q-3 156 72 288.5t208.5 211t293.5 81.5l39 158h114l-41 -164q104 -16 189 -57v-254h-62zM483 229
l156 633q-121 -23 -192.5 -129.5t-71.5 -259.5q0 -169 108 -244z" />
    <glyph glyph-name="sterling" unicode="&#xa3;" horiz-adv-x="1175" 
d="M1202 1337v-305h-61q-59 246 -283 246q-144 0 -225.5 -93.5t-75.5 -271.5l8 -233h506v-129h-504q-6 -106 -55.5 -175.5t-153.5 -113.5v-16h646v-246h-1014v123q181 97 251.5 188t67.5 240h-196v129h192l-6 190q-4 156 63 281t196.5 197.5t299.5 72.5q190 0 344 -84z" />
    <glyph glyph-name="currency" unicode="&#xa4;" horiz-adv-x="1212" 
d="M1047 973q57 -89 57 -205q0 -189 -119 -330l115 -145l-88 -68l-107 137q-131 -96 -293 -96q-150 0 -260 94l-184 -143l-68 84l183 143q-60 91 -60 207q0 189 115 326l-115 149l88 66l109 -137q131 98 295 98q152 0 262 -96l182 143l68 -84zM961 764q0 110 -70.5 181
t-179.5 71q-146 0 -245 -105t-99 -254q0 -111 69.5 -182.5t179.5 -71.5q145 0 245 105.5t100 255.5z" />
    <glyph glyph-name="yen" unicode="&#xa5;" horiz-adv-x="1325" 
d="M1116 1393h385v-62q-89 -21 -143 -63q-52 -40 -129 -140l-326 -405h260v-127h-342l-30 -123h307v-127h-340l-27 -106q-16 -66 -16 -95q0 -33 16 -52t57 -32v-61h-499v61q82 23 117 59t55 120l26 106h-307v127h340l29 117l-2 6h-303v127h270l-117 444q-21 77 -49 112
t-88 52v62h510v-62q-62 -7 -87.5 -27t-25.5 -59q0 -14 11 -71l100 -404h16l320 399q65 83 65 115t-53 47v62z" />
    <glyph glyph-name="brokenbar" unicode="&#xa6;" horiz-adv-x="507" 
d="M436 897h-157l174 696h157zM137 -299h-157l174 698h157z" />
    <glyph glyph-name="section" unicode="&#xa7;" horiz-adv-x="1032" 
d="M1081 1346v-252h-61q-26 85 -94.5 133.5t-177.5 48.5q-105 0 -168.5 -42t-63.5 -110q0 -49 24.5 -84t86.5 -73l151 -93q108 -67 156.5 -133t48.5 -151q0 -103 -72.5 -189t-191.5 -131v-14q69 -75 69 -174q0 -160 -128.5 -267.5t-331.5 -107.5q-198 0 -355 92v244h62
q30 -86 107.5 -138t179.5 -52q105 0 165 38.5t60 110.5q0 44 -25.5 79t-85.5 73l-145 92q-99 64 -147 134t-48 155q0 104 70 186.5t188 126.5v14q-80 89 -80 197q0 151 135.5 256.5t342.5 105.5q191 0 329 -75zM467 770l-21 14q-131 -70 -131 -163q0 -49 28.5 -88t98.5 -82
l156 -99l29 -18q137 70 137 168q0 45 -29.5 82t-103.5 84z" />
    <glyph glyph-name="dieresis" unicode="&#xa8;" horiz-adv-x="780" 
d="M209 1270q0 72 49 120t121 48q60 0 97.5 -37.5t37.5 -97.5q0 -72 -49 -120t-121 -48q-57 0 -96 39t-39 96zM635 1270q0 72 49 120t121 48q60 0 97.5 -37.5t37.5 -97.5q0 -72 -49 -120t-121 -48q-57 0 -96 39t-39 96z" />
    <glyph glyph-name="copyright" unicode="&#xa9;" horiz-adv-x="1761" 
d="M188 727q-2 156 56.5 298t159 243.5t241.5 160.5t297 56q156 2 297.5 -56.5t243 -159.5t160 -242.5t55.5 -299.5q3 -156 -55.5 -297.5t-160 -243t-243 -160.5t-297.5 -57q-156 -2 -297 57t-242 160.5t-159 243t-56 297.5zM1567 729q0 136 -47.5 254t-130.5 202
t-199 132.5t-248 48.5q-174 3 -318.5 -80.5t-226 -231t-78.5 -325.5q-3 -181 78.5 -329t226 -231.5t318.5 -80.5q175 -3 320 80.5t226.5 231.5t78.5 329zM573 725q0 175 117 290t297 115q121 0 217 -47v-209h-57q-11 62 -51 101t-99 39q-87 0 -144.5 -68t-57.5 -176
q0 -121 68 -194.5t177 -73.5q110 0 181 59l47 -61q-70 -90 -141.5 -132t-165.5 -42q-166 0 -277 113t-111 286z" />
    <glyph glyph-name="ordfeminine" unicode="&#xaa;" horiz-adv-x="901" 
d="M848 815q-10 -52 -10 -63q0 -25 13 -37t42 -17v-55l-330 -55h-12l29 112h-13q-102 -135 -221 -135q-85 0 -140.5 57.5t-55.5 147.5q0 97 75.5 155t233.5 95l213 49l14 55q6 24 6 43q0 56 -40 87.5t-105 31.5q-127 0 -236 -74l-43 80q77 74 174 117t193 43
q133 0 213 -74.5t80 -197.5q0 -41 -13 -95zM610 819l39 156l-102 -29q-86 -25 -119 -50t-33 -77q0 -38 22.5 -62t57.5 -24q36 0 72 24t63 62z" />
    <glyph glyph-name="guillemotleft" unicode="&#xab;" horiz-adv-x="1316" 
d="M567 25l-102 -54l-383 545l610 481l86 -86l-364 -415zM1057 25l-103 -54l-358 500l664 526l86 -86l-426 -493z" />
    <glyph glyph-name="logicalnot" unicode="&#xac;" horiz-adv-x="1202" 
d="M106 555h922v-555h-147v412h-775v143z" />
    <glyph glyph-name="uni00AD" unicode="&#xad;" horiz-adv-x="817" 
d="M729 532h-579v156h579v-156z" />
    <glyph glyph-name="registered" unicode="&#xae;" horiz-adv-x="1761" 
d="M1698 727q3 -156 -55.5 -297.5t-160 -243t-243 -160.5t-297.5 -57q-156 -2 -297 57t-242 160.5t-159 243t-56 297.5q-2 156 56.5 298t159 243.5t241.5 160.5t297 56q156 2 297.5 -56.5t243 -159.5t160 -242.5t55.5 -299.5zM1567 729q0 136 -47.5 254t-130.5 202
t-199 132.5t-248 48.5q-174 3 -318.5 -80.5t-226 -231t-78.5 -325.5q-3 -181 78.5 -329t226 -231.5t318.5 -80.5q175 -3 320 80.5t226.5 231.5t78.5 329zM1087 702l281 -352v-8h-231l-256 340h-27v-211q0 -37 13 -54t48 -24v-51h-313v51q33 8 47.5 25t14.5 53v516
q0 41 -13 57t-49 21v51h356q141 0 224.5 -58t83.5 -157q0 -69 -47 -121t-132 -78zM854 772h64q69 0 109 34t40 95q0 60 -39.5 90.5t-107.5 30.5h-66v-250z" />
    <glyph glyph-name="macron" unicode="&#xaf;" horiz-adv-x="712" 
d="M862 1196h-631v125h631v-125z" />
    <glyph glyph-name="degree" unicode="&#xb0;" horiz-adv-x="749" 
d="M229 1153q0 129 88.5 215t217.5 86q131 0 219 -86t88 -215t-88 -215t-219 -86q-129 0 -217.5 86t-88.5 215zM713 1153q0 82 -50 134t-128 52t-127.5 -52t-49.5 -134t49.5 -134t127.5 -52t128 52t50 134z" />
    <glyph glyph-name="plusminus" unicode="&#xb1;" horiz-adv-x="1245" 
d="M664 969v-326h409v-143h-409v-281h-148v281h-412v143h412v326h148zM1073 -27h-969v144h969v-144z" />
    <glyph glyph-name="twosuperior" unicode="&#xb2;" horiz-adv-x="786" 
d="M176 821v107l287 194q120 81 175.5 145.5t55.5 131.5q0 68 -46.5 108.5t-121.5 40.5q-105 0 -188 -71l-59 67q64 83 152 130.5t190 47.5q122 0 211.5 -77.5t89.5 -186.5q0 -103 -69 -183.5t-214 -168.5l-102 -64v-12h284v-209h-645z" />
    <glyph glyph-name="threesuperior" unicode="&#xb3;" horiz-adv-x="772" 
d="M166 989l67 58q45 -50 92.5 -73.5t112.5 -23.5q87 0 144 41t57 111q0 108 -158 117v88l209 163v15h-330v207h637v-107l-346 -272v-13q187 -60 187 -221q0 -127 -99 -207.5t-239 -80.5q-111 0 -196.5 53t-137.5 145z" />
    <glyph glyph-name="acute" unicode="&#xb4;" horiz-adv-x="485" 
d="M319 1114h-118l182 324h305v-11z" />
    <glyph glyph-name="mu" unicode="&#xb5;" horiz-adv-x="1234" 
d="M250 729q8 31 8 59q0 31 -16.5 46.5t-57.5 21.5v62l387 61h13l-166 -672q-6 -27 -6 -51q0 -50 26 -77t70 -27q57 0 105.5 31.5t99.5 92.5l112 453q11 46 11 59q0 29 -17.5 45t-58.5 23v62l387 61h12l-178 -719q-14 -49 -14 -86q0 -24 14 -36t47 -17v-62l-375 -67h-12
l33 129h-17q-117 -150 -270 -150q-24 0 -45 6h-6l-39 -155q-21 -86 -21 -113q0 -30 17 -41t65 -16v-62h-391z" />
    <glyph glyph-name="paragraph" unicode="&#xb6;" horiz-adv-x="1275" 
d="M1389 1362q-82 -11 -117 -43.5t-55 -118.5l-375 -1499h-127l399 1595h-248l-399 -1595h-127l235 944q-181 10 -284 106t-103 246q0 203 150 314q147 112 395 112h656v-61z" />
    <glyph glyph-name="periodcentered" unicode="&#xb7;" horiz-adv-x="518" 
d="M115 561q0 81 53 135t131 54q71 0 112.5 -43.5t41.5 -110.5q0 -79 -53.5 -131.5t-133.5 -52.5q-68 0 -109.5 42.5t-41.5 106.5z" />
    <glyph glyph-name="cedilla" unicode="&#xb8;" horiz-adv-x="520" 
d="M-164 -317l45 59q62 -53 144 -53q50 0 81 21.5t31 56.5q0 26 -20.5 41.5t-55.5 15.5q-29 0 -65 -19h-12l137 232l65 -37l-57 -92l2 -4q20 4 31 4q59 0 98 -38t39 -103q0 -84 -66.5 -138.5t-166.5 -54.5q-141 0 -230 109z" />
    <glyph glyph-name="onesuperior" unicode="&#xb9;" horiz-adv-x="731" 
d="M428 821l121 486h-311v108q98 5 165 19t126 47t100.5 88.5t75.5 140.5h153l-219 -889h-211z" />
    <glyph glyph-name="ordmasculine" unicode="&#xba;" horiz-adv-x="1001" 
d="M182 934q-3 136 65.5 256.5t189.5 192.5t261 69q166 0 270.5 -104.5t104.5 -268.5q0 -139 -67.5 -257t-186 -187.5t-260.5 -69.5q-165 0 -271 103t-106 266zM831 1130q0 90 -37 142.5t-100 52.5q-74 4 -138.5 -68.5t-98.5 -175t-33 -196.5q0 -91 35.5 -142t101.5 -51
q73 -4 137.5 68t99 174t33.5 196z" />
    <glyph glyph-name="guillemotright" unicode="&#xbb;" horiz-adv-x="1320" 
d="M264 948l103 53l358 -499l-664 -527l-86 86l426 494zM754 948l102 53l383 -544l-610 -482l-86 86l364 416z" />
    <glyph glyph-name="onequarter" unicode="&#xbc;" horiz-adv-x="2152" 
d="M385 594l115 463h-297v102q74 4 128.5 13t104.5 28.5t87 50.5t68.5 77.5t55.5 111.5h148l-209 -846h-201zM1829 1423h-176l-1313 -1423h176zM1784 0h-193l47 186h-397v93l651 565h103l-123 -494h164v-164h-205zM1485 362v-12h192l56 217h-13z" />
    <glyph glyph-name="onehalf" unicode="&#xbd;" horiz-adv-x="2017" 
d="M383 594l115 463h-297v102q74 4 128.5 13t104.5 28.5t87 50.5t68.5 77.5t55.5 111.5h148l-209 -846h-201zM1827 1423h-176l-1313 -1423h176zM1221 0v102l272 185q115 77 168 138t53 126t-45 103t-115 38q-101 0 -180 -67l-57 63q136 170 325 170q118 0 202.5 -73.5
t84.5 -178.5q0 -99 -65 -176t-203 -160l-98 -59v-12h272v-199h-614z" />
    <glyph glyph-name="threequarters" unicode="&#xbe;" horiz-adv-x="2103" 
d="M131 756l64 55q86 -92 196 -92q82 0 136.5 38.5t54.5 104.5q0 104 -150 113v84l199 155v15h-316v196h609v-102l-330 -258v-12q176 -54 176 -211q0 -121 -94 -198t-227 -77q-105 0 -185.5 50.5t-132.5 138.5zM1786 1423h-176l-1313 -1423h176zM1741 0h-193l47 186h-397v93
l651 565h103l-123 -494h164v-164h-205zM1442 362v-12h192l56 217h-13z" />
    <glyph glyph-name="questiondown" unicode="&#xbf;" horiz-adv-x="1024" 
d="M774 848q0 -81 -53 -135t-131 -54q-71 0 -112.5 43.5t-41.5 110.5q0 79 53.5 131.5t133.5 52.5q68 0 109.5 -42.5t41.5 -106.5zM563 281q-179 -57 -270.5 -139t-91.5 -197q0 -100 74 -162t196 -62q171 0 291 117l69 -82q-89 -113 -207 -176t-257 -63q-188 0 -311.5 103
t-123.5 259q0 173 132 296.5t368 195.5l43 174h154z" />
    <glyph glyph-name="Agrave" unicode="&#xc0;" horiz-adv-x="1439" 
d="M1001 1845l52 -323h-103l-229 313v10h280zM1227 254q13 -86 36.5 -124.5t75.5 -68.5v-61h-567v61q88 20 124 50t36 84q0 4 -0.5 10t-1.5 17.5t-2 21.5l-27 159h-506l-92 -147q-53 -83 -53 -123q0 -52 94 -72v-61h-461v61q94 35 144 74q50 42 112 141l719 1147h164z
M780 1018l-295 -471h392l-80 471h-17z" />
    <glyph glyph-name="Aacute" unicode="&#xc1;" horiz-adv-x="1439" 
d="M1335 1845v-10l-368 -313h-119l182 323h305zM1227 254q13 -86 36.5 -124.5t75.5 -68.5v-61h-567v61q88 20 124 50t36 84q0 4 -0.5 10t-1.5 17.5t-2 21.5l-27 159h-506l-92 -147q-53 -83 -53 -123q0 -52 94 -72v-61h-461v61q94 35 144 74q50 42 112 141l719 1147h164z
M780 1018l-295 -471h392l-80 471h-17z" />
    <glyph glyph-name="Acircumflex" unicode="&#xc2;" horiz-adv-x="1439" 
d="M1178 1522l-166 137l-250 -137h-141l372 323h111l190 -323h-116zM1227 254q13 -86 36.5 -124.5t75.5 -68.5v-61h-567v61q88 20 124 50t36 84q0 4 -0.5 10t-1.5 17.5t-2 21.5l-27 159h-506l-92 -147q-53 -83 -53 -123q0 -52 94 -72v-61h-461v61q94 35 144 74
q50 42 112 141l719 1147h164zM780 1018l-295 -471h392l-80 471h-17z" />
    <glyph glyph-name="Atilde" unicode="&#xc3;" horiz-adv-x="1439" 
d="M748 1548h-113q23 134 86 207.5t156 73.5q70 0 139 -55l45 -33q44 -33 82 -33q74 0 108 113h113q-23 -136 -86.5 -209.5t-159.5 -73.5q-68 0 -137 55l-43 33q-42 33 -80 33q-80 0 -110 -111zM1227 254q13 -86 36.5 -124.5t75.5 -68.5v-61h-567v61q88 20 124 50t36 84
q0 4 -0.5 10t-1.5 17.5t-2 21.5l-27 159h-506l-92 -147q-53 -83 -53 -123q0 -52 94 -72v-61h-461v61q94 35 144 74q50 42 112 141l719 1147h164zM780 1018l-295 -471h392l-80 471h-17z" />
    <glyph glyph-name="Adieresis" unicode="&#xc4;" horiz-adv-x="1439" 
d="M625 1688q0 72 49 119.5t121 47.5q60 0 97.5 -37.5t37.5 -97.5q0 -72 -49 -120t-121 -48q-57 0 -96 39.5t-39 96.5zM1051 1688q0 72 49 119.5t121 47.5q60 0 97.5 -37.5t37.5 -97.5q0 -72 -49 -120t-121 -48q-57 0 -96 39.5t-39 96.5zM1227 254q13 -86 36.5 -124.5
t75.5 -68.5v-61h-567v61q88 20 124 50t36 84q0 4 -0.5 10t-1.5 17.5t-2 21.5l-27 159h-506l-92 -147q-53 -83 -53 -123q0 -52 94 -72v-61h-461v61q94 35 144 74q50 42 112 141l719 1147h164zM780 1018l-295 -471h392l-80 471h-17z" />
    <glyph glyph-name="Aring" unicode="&#xc5;" horiz-adv-x="1439" 
d="M799 1714q0 86 62.5 147.5t150.5 61.5t151.5 -61.5t63.5 -147.5q0 -87 -62.5 -147t-152.5 -60q-88 0 -150.5 60.5t-62.5 146.5zM920 1714q0 -43 25.5 -70.5t66.5 -27.5t67.5 27.5t26.5 70.5t-26.5 70.5t-67.5 27.5t-66.5 -27.5t-25.5 -70.5zM1227 254q13 -86 36.5 -124.5
t75.5 -68.5v-61h-567v61q88 20 124 50t36 84q0 4 -0.5 10t-1.5 17.5t-2 21.5l-27 159h-506l-92 -147q-53 -83 -53 -123q0 -52 94 -72v-61h-461v61q94 35 144 74q50 42 112 141l719 1147h164zM780 1018l-295 -471h392l-80 471h-17z" />
    <glyph glyph-name="AE" unicode="&#xc6;" horiz-adv-x="1892" 
d="M1008 1423h946v-342h-66q-17 109 -87.5 154t-223.5 45h-227l-123 -492h108q195 0 209 152h66v-442h-66q-7 78 -56 112.5t-145 34.5h-151l-125 -502h315q135 0 203 54t96 198h66v-395h-1135v61q86 9 121 50t62 143l36 149h-413l-101 -133q-86 -117 -86 -155q0 -39 72 -54
v-61h-434v61q83 28 145 81.5t150 168.5zM1012 1196l-488 -649h342l162 649h-16z" />
    <glyph glyph-name="Ccedilla" unicode="&#xc7;" horiz-adv-x="1396" 
d="M461 686q0 -228 126 -360.5t328 -132.5q191 0 361 126l67 -83q-239 -265 -557 -265h-34l-41 -63l2 -4q20 4 30 4q59 0 98.5 -38t39.5 -103q0 -84 -67 -138.5t-167 -54.5q-140 0 -229 109l45 59q62 -53 143 -53q50 0 81.5 21.5t31.5 56.5q0 26 -20.5 41.5t-55.5 15.5
q-29 0 -65 -19h-13l105 177q-236 37 -386.5 215.5t-150.5 423.5q-4 166 63 321.5t180.5 268t268 179t318.5 62.5q236 0 434 -109v-339h-66q-50 143 -144 222t-218 79q-140 4 -259 -83.5t-185 -231t-64 -304.5z" />
    <glyph glyph-name="Egrave" unicode="&#xc8;" horiz-adv-x="1329" 
d="M954 1845l52 -323h-103l-229 313v10h280zM1178 395v-395h-1205v61q84 12 118.5 48t58.5 127l239 954q14 60 14 88q0 37 -20.5 57t-69.5 27v61h1071v-342h-65q-17 109 -86.5 154t-222.5 45h-295l-123 -492h147q127 0 175 34t61 118h65v-442h-65q-12 85 -59.5 116
t-178.5 31h-180l-125 -502h371q147 0 214.5 52.5t94.5 199.5h66z" />
    <glyph glyph-name="Eacute" unicode="&#xc9;" horiz-adv-x="1329" 
d="M920 1522h-119l182 323h305v-10zM1178 395v-395h-1205v61q84 12 118.5 48t58.5 127l239 954q14 60 14 88q0 37 -20.5 57t-69.5 27v61h1071v-342h-65q-17 109 -86.5 154t-222.5 45h-295l-123 -492h147q127 0 175 34t61 118h65v-442h-65q-12 85 -59.5 116t-178.5 31h-180
l-125 -502h371q147 0 214.5 52.5t94.5 199.5h66z" />
    <glyph glyph-name="Ecircumflex" unicode="&#xca;" horiz-adv-x="1329" 
d="M715 1522h-142l373 323h111l190 -323h-117l-165 137zM1178 395v-395h-1205v61q84 12 118.5 48t58.5 127l239 954q14 60 14 88q0 37 -20.5 57t-69.5 27v61h1071v-342h-65q-17 109 -86.5 154t-222.5 45h-295l-123 -492h147q127 0 175 34t61 118h65v-442h-65
q-12 85 -59.5 116t-178.5 31h-180l-125 -502h371q147 0 214.5 52.5t94.5 199.5h66z" />
    <glyph glyph-name="Edieresis" unicode="&#xcb;" horiz-adv-x="1329" 
d="M578 1688q0 72 49 119.5t121 47.5q60 0 97.5 -37.5t37.5 -97.5q0 -72 -49 -120t-121 -48q-57 0 -96 39.5t-39 96.5zM1004 1688q0 72 49 119.5t121 47.5q60 0 97.5 -37.5t37.5 -97.5q0 -72 -49 -120t-121 -48q-57 0 -96 39.5t-39 96.5zM1178 395v-395h-1205v61
q84 12 118.5 48t58.5 127l239 954q14 60 14 88q0 37 -20.5 57t-69.5 27v61h1071v-342h-65q-17 109 -86.5 154t-222.5 45h-295l-123 -492h147q127 0 175 34t61 118h65v-442h-65q-12 85 -59.5 116t-178.5 31h-180l-125 -502h371q147 0 214.5 52.5t94.5 199.5h66z" />
    <glyph glyph-name="Igrave" unicode="&#xcc;" horiz-adv-x="729" 
d="M659 1845l52 -323h-103l-229 313v10h280zM-23 61q87 12 118.5 44t56.5 133l235 948q16 75 16 100q0 36 -18.5 52.5t-67.5 23.5v61h549v-61q-89 -12 -120 -44.5t-56 -131.5l-235 -948q-17 -73 -17 -97q0 -38 19 -55t69 -25v-61h-549v61z" />
    <glyph glyph-name="Iacute" unicode="&#xcd;" horiz-adv-x="729" 
d="M625 1522h-119l182 323h305v-10zM-23 61q87 12 118.5 44t56.5 133l235 948q16 75 16 100q0 36 -18.5 52.5t-67.5 23.5v61h549v-61q-89 -12 -120 -44.5t-56 -131.5l-235 -948q-17 -73 -17 -97q0 -38 19 -55t69 -25v-61h-549v61z" />
    <glyph glyph-name="Icircumflex" unicode="&#xce;" horiz-adv-x="729" 
d="M420 1522h-141l372 323h111l190 -323h-116l-166 137zM-23 61q87 12 118.5 44t56.5 133l235 948q16 75 16 100q0 36 -18.5 52.5t-67.5 23.5v61h549v-61q-89 -12 -120 -44.5t-56 -131.5l-235 -948q-17 -73 -17 -97q0 -38 19 -55t69 -25v-61h-549v61z" />
    <glyph glyph-name="Idieresis" unicode="&#xcf;" horiz-adv-x="729" 
d="M283 1688q0 72 49 119.5t121 47.5q60 0 97.5 -37.5t37.5 -97.5q0 -72 -49 -120t-121 -48q-57 0 -96 39.5t-39 96.5zM709 1688q0 72 49 119.5t121 47.5q60 0 97.5 -37.5t37.5 -97.5q0 -72 -49 -120t-121 -48q-57 0 -96 39.5t-39 96.5zM-23 61q87 12 118.5 44t56.5 133
l235 948q16 75 16 100q0 36 -18.5 52.5t-67.5 23.5v61h549v-61q-89 -12 -120 -44.5t-56 -131.5l-235 -948q-17 -73 -17 -97q0 -38 19 -55t69 -25v-61h-549v61z" />
    <glyph glyph-name="Eth" unicode="&#xd0;" horiz-adv-x="1617" 
d="M885 1423q207 0 370.5 -75.5t256 -214t92.5 -316.5q3 -168 -66.5 -320t-191.5 -262.5t-297 -174t-373 -60.5h-684v61q91 15 120.5 47.5t57.5 147.5l102 412h-176v127h209l98 395q17 80 17 90q0 71 -88 82v61h553zM627 139q120 -2 225.5 37.5t182.5 109t132.5 161
t82.5 195t26 208.5q0 208 -109 321t-303 113h-133l-123 -489h287v-127h-317l-134 -529h183z" />
    <glyph glyph-name="Ntilde" unicode="&#xd1;" horiz-adv-x="1546" 
d="M1028 1593l-43 33q-42 33 -80 33q-80 0 -110 -111h-113q23 134 86 207.5t156 73.5q70 0 139 -55l45 -33q44 -33 82 -33q74 0 108 113h113q-23 -136 -86.5 -209.5t-159.5 -73.5q-68 0 -137 55zM-23 61q79 6 116 46t61 137l260 1036l-68 131v12h393l420 -970h17l184 731
q14 49 14 94q0 38 -20 58t-64 26v61h406v-61q-79 -8 -115.5 -44.5t-60.5 -137.5l-297 -1180h-189l-485 1114h-17l-219 -872q-16 -66 -16 -97q0 -72 86 -84v-61h-406v61z" />
    <glyph glyph-name="Ograve" unicode="&#xd2;" horiz-adv-x="1648" 
d="M1075 1845l51 -323h-102l-229 313v10h280zM131 590q-3 172 63 332t179 277.5t271.5 186.5t332.5 66q186 2 338 -81.5t236 -226.5t81 -313q2 -139 -39 -270.5t-119.5 -238.5t-182.5 -187t-235 -123t-270 -41q-139 -2 -262.5 46t-210 131.5t-135.5 198.5t-47 243zM1305 885
q0 191 -88 302t-246 111q-110 4 -209 -66t-164.5 -182.5t-103 -248.5t-35.5 -264q0 -189 87 -299.5t245 -110.5q110 -4 209.5 65.5t165.5 181.5t103.5 247.5t35.5 263.5z" />
    <glyph glyph-name="Oacute" unicode="&#xd3;" horiz-adv-x="1648" 
d="M1040 1522h-118l182 323h305v-10zM131 590q-3 172 63 332t179 277.5t271.5 186.5t332.5 66q186 2 338 -81.5t236 -226.5t81 -313q2 -139 -39 -270.5t-119.5 -238.5t-182.5 -187t-235 -123t-270 -41q-139 -2 -262.5 46t-210 131.5t-135.5 198.5t-47 243zM1305 885
q0 191 -88 302t-246 111q-110 4 -209 -66t-164.5 -182.5t-103 -248.5t-35.5 -264q0 -189 87 -299.5t245 -110.5q110 -4 209.5 65.5t165.5 181.5t103.5 247.5t35.5 263.5z" />
    <glyph glyph-name="Ocircumflex" unicode="&#xd4;" horiz-adv-x="1648" 
d="M836 1522h-142l373 323h111l190 -323h-117l-166 137zM131 590q-3 172 63 332t179 277.5t271.5 186.5t332.5 66q186 2 338 -81.5t236 -226.5t81 -313q2 -139 -39 -270.5t-119.5 -238.5t-182.5 -187t-235 -123t-270 -41q-139 -2 -262.5 46t-210 131.5t-135.5 198.5t-47 243
zM1305 885q0 191 -88 302t-246 111q-110 4 -209 -66t-164.5 -182.5t-103 -248.5t-35.5 -264q0 -189 87 -299.5t245 -110.5q110 -4 209.5 65.5t165.5 181.5t103.5 247.5t35.5 263.5z" />
    <glyph glyph-name="Otilde" unicode="&#xd5;" horiz-adv-x="1648" 
d="M1055 1593l-43 33q-42 33 -80 33q-81 0 -111 -111h-112q23 134 85.5 207.5t155.5 73.5q71 0 140 -55l45 -33q44 -33 82 -33q74 0 108 113h113q-23 -136 -86.5 -209.5t-159.5 -73.5q-68 0 -137 55zM131 590q-3 172 63 332t179 277.5t271.5 186.5t332.5 66q186 2 338 -81.5
t236 -226.5t81 -313q2 -139 -39 -270.5t-119.5 -238.5t-182.5 -187t-235 -123t-270 -41q-139 -2 -262.5 46t-210 131.5t-135.5 198.5t-47 243zM1305 885q0 191 -88 302t-246 111q-110 4 -209 -66t-164.5 -182.5t-103 -248.5t-35.5 -264q0 -189 87 -299.5t245 -110.5
q110 -4 209.5 65.5t165.5 181.5t103.5 247.5t35.5 263.5z" />
    <glyph glyph-name="Odieresis" unicode="&#xd6;" horiz-adv-x="1648" 
d="M698 1688q0 72 49 119.5t121 47.5q60 0 98 -37.5t38 -97.5q0 -72 -49 -120t-121 -48q-57 0 -96.5 39.5t-39.5 96.5zM1124 1688q0 72 49 119.5t121 47.5q60 0 98 -37.5t38 -97.5q0 -72 -49 -120t-121 -48q-57 0 -96.5 39.5t-39.5 96.5zM131 590q-3 172 63 332t179 277.5
t271.5 186.5t332.5 66q186 2 338 -81.5t236 -226.5t81 -313q2 -139 -39 -270.5t-119.5 -238.5t-182.5 -187t-235 -123t-270 -41q-139 -2 -262.5 46t-210 131.5t-135.5 198.5t-47 243zM1305 885q0 191 -88 302t-246 111q-110 4 -209 -66t-164.5 -182.5t-103 -248.5
t-35.5 -264q0 -189 87 -299.5t245 -110.5q110 -4 209.5 65.5t165.5 181.5t103.5 247.5t35.5 263.5z" />
    <glyph glyph-name="multiply" unicode="&#xd7;" horiz-adv-x="1116" 
d="M887 913l100 -100l-328 -328l328 -327l-102 -101l-326 326l-326 -326l-102 99l328 327l-328 330l102 100l326 -327z" />
    <glyph glyph-name="Oslash" unicode="&#xd8;" horiz-adv-x="1648" 
d="M1702 1452l-217 -217q147 -162 147 -404q2 -139 -39 -270.5t-119.5 -238.5t-182.5 -187t-235 -123t-270 -41q-249 0 -426 138l-213 -213l-86 79l213 215q-143 169 -143 400q-3 172 63 332t179 277.5t271.5 186.5t332.5 66q248 0 424 -135l215 215zM475 389l764 766
q-88 143 -268 143q-110 4 -209 -66t-164.5 -182.5t-103 -248.5t-35.5 -264q0 -73 16 -148zM1286 1036l-764 -766q88 -143 269 -143q110 -4 209.5 65.5t165.5 181.5t103.5 247.5t35.5 263.5q0 80 -19 151z" />
    <glyph glyph-name="Ugrave" unicode="&#xd9;" horiz-adv-x="1560" 
d="M1104 1845l51 -323h-102l-230 313v10h281zM201 444q0 99 26 197l142 563q12 46 12 80q0 36 -20 55t-66 23v61h551v-61q-77 -7 -116 -43.5t-58 -112.5l-154 -622q-18 -70 -18 -131q0 -127 75 -199t218 -72q336 0 442 416l147 598q13 54 13 82q0 38 -20 58t-64 26v61h403
v-61q-75 -4 -113 -43.5t-59 -124.5l-151 -614q-75 -302 -242.5 -455.5t-439.5 -153.5q-230 0 -369 127t-139 346z" />
    <glyph glyph-name="Uacute" unicode="&#xda;" horiz-adv-x="1560" 
d="M1069 1522h-119l183 323h305v-10zM201 444q0 99 26 197l142 563q12 46 12 80q0 36 -20 55t-66 23v61h551v-61q-77 -7 -116 -43.5t-58 -112.5l-154 -622q-18 -70 -18 -131q0 -127 75 -199t218 -72q336 0 442 416l147 598q13 54 13 82q0 38 -20 58t-64 26v61h403v-61
q-75 -4 -113 -43.5t-59 -124.5l-151 -614q-75 -302 -242.5 -455.5t-439.5 -153.5q-230 0 -369 127t-139 346z" />
    <glyph glyph-name="Ucircumflex" unicode="&#xdb;" horiz-adv-x="1560" 
d="M864 1522h-141l373 323h110l191 -323h-117l-166 137zM201 444q0 99 26 197l142 563q12 46 12 80q0 36 -20 55t-66 23v61h551v-61q-77 -7 -116 -43.5t-58 -112.5l-154 -622q-18 -70 -18 -131q0 -127 75 -199t218 -72q336 0 442 416l147 598q13 54 13 82q0 38 -20 58
t-64 26v61h403v-61q-75 -4 -113 -43.5t-59 -124.5l-151 -614q-75 -302 -242.5 -455.5t-439.5 -153.5q-230 0 -369 127t-139 346z" />
    <glyph glyph-name="Udieresis" unicode="&#xdc;" horiz-adv-x="1560" 
d="M727 1688q0 72 49 119.5t121 47.5q60 0 97.5 -37.5t37.5 -97.5q0 -72 -49 -120t-121 -48q-57 0 -96 39.5t-39 96.5zM1153 1688q0 72 49 119.5t121 47.5q60 0 97.5 -37.5t37.5 -97.5q0 -72 -49 -120t-121 -48q-57 0 -96 39.5t-39 96.5zM201 444q0 99 26 197l142 563
q12 46 12 80q0 36 -20 55t-66 23v61h551v-61q-77 -7 -116 -43.5t-58 -112.5l-154 -622q-18 -70 -18 -131q0 -127 75 -199t218 -72q336 0 442 416l147 598q13 54 13 82q0 38 -20 58t-64 26v61h403v-61q-75 -4 -113 -43.5t-59 -124.5l-151 -614q-75 -302 -242.5 -455.5
t-439.5 -153.5q-230 0 -369 127t-139 346z" />
    <glyph glyph-name="Yacute" unicode="&#xdd;" horiz-adv-x="1427" 
d="M1350 1845v-10l-369 -313h-119l182 323h306zM1219 1423h436v-61q-91 -18 -142 -55q-42 -28 -114 -113l-506 -614l-84 -334q-18 -70 -18 -107t19 -53.5t69 -24.5v-61h-551v61q80 8 116 45t62 140l82 334l-205 616q-25 74 -54.5 107.5t-92.5 58.5v61h595v-61
q-77 -13 -111 -38.5t-34 -68.5q0 -27 12 -65l136 -428h16l346 430q74 89 74 123q0 32 -51 47v61z" />
    <glyph glyph-name="Thorn" unicode="&#xde;" horiz-adv-x="1292" 
d="M756 1141q238 0 385 -101.5t147 -275.5q0 -148 -83.5 -258.5t-228 -167.5t-329.5 -57h-182l-10 -43q-17 -73 -17 -97q0 -38 19 -55t69 -25v-61h-549v61q87 12 118.5 44t56.5 133l235 948q16 75 16 100q0 36 -18.5 52.5t-67.5 23.5v61h549v-61q-89 -12 -120 -44.5
t-56 -131.5l-10 -45h76zM627 420q165 0 259.5 94t94.5 250q0 117 -65.5 177t-184.5 60h-86l-145 -581h127z" />
    <glyph glyph-name="germandbls" unicode="&#xdf;" horiz-adv-x="1177" 
d="M399 27l41 96q43 -19 88 -19q121 0 198 102t77 245q0 111 -54 176t-149 71v123q149 9 238 111q90 104 90 250q0 80 -37.5 125t-106.5 45q-143 0 -196 -209l-285 -1143h-348v61q37 6 51.5 9.5t30 20.5t22.5 38t23 74l215 868q102 412 502 412q172 0 283.5 -95.5
t111.5 -234.5q0 -156 -110.5 -258.5t-295.5 -134.5v-17q133 -33 213 -124.5t80 -219.5q0 -187 -137 -307.5t-334 -120.5q-122 0 -211 56z" />
    <glyph glyph-name="agrave" unicode="&#xe0;" horiz-adv-x="1191" 
d="M760 1438l51 -324h-102l-230 313v11h281zM59 371q-3 160 71.5 306t203.5 235t276 85q188 0 301 -125h17l125 97h112l-182 -727q-12 -53 -12 -68q0 -44 63 -53v-62l-375 -67h-12l33 129h-16q-105 -150 -283 -150q-139 0 -230.5 113.5t-91.5 286.5zM719 276l80 318
q12 50 12 90q0 85 -45 135.5t-115 50.5q-90 3 -165.5 -69.5t-115 -179.5t-38.5 -213q0 -114 48.5 -186t129.5 -72q101 0 209 126z" />
    <glyph glyph-name="aacute" unicode="&#xe1;" horiz-adv-x="1191" 
d="M713 1114h-119l182 324h305v-11zM59 371q-3 160 71.5 306t203.5 235t276 85q188 0 301 -125h17l125 97h112l-182 -727q-12 -53 -12 -68q0 -44 63 -53v-62l-375 -67h-12l33 129h-16q-105 -150 -283 -150q-139 0 -230.5 113.5t-91.5 286.5zM719 276l80 318q12 50 12 90
q0 85 -45 135.5t-115 50.5q-90 3 -165.5 -69.5t-115 -179.5t-38.5 -213q0 -114 48.5 -186t129.5 -72q101 0 209 126z" />
    <glyph glyph-name="acircumflex" unicode="&#xe2;" horiz-adv-x="1191" 
d="M494 1114h-142l373 324h111l190 -324h-117l-166 137zM59 371q-3 160 71.5 306t203.5 235t276 85q188 0 301 -125h17l125 97h112l-182 -727q-12 -53 -12 -68q0 -44 63 -53v-62l-375 -67h-12l33 129h-16q-105 -150 -283 -150q-139 0 -230.5 113.5t-91.5 286.5zM719 276
l80 318q12 50 12 90q0 85 -45 135.5t-115 50.5q-90 3 -165.5 -69.5t-115 -179.5t-38.5 -213q0 -114 48.5 -186t129.5 -72q101 0 209 126z" />
    <glyph glyph-name="atilde" unicode="&#xe3;" horiz-adv-x="1191" 
d="M715 1178l-43 32q-42 33 -80 33q-81 0 -111 -110h-112q23 134 85.5 207t155.5 73q71 0 140 -55l45 -33q44 -33 82 -33q74 0 108 113h113q-23 -136 -86.5 -209.5t-159.5 -73.5q-67 0 -137 56zM59 371q-3 160 71.5 306t203.5 235t276 85q188 0 301 -125h17l125 97h112
l-182 -727q-12 -53 -12 -68q0 -44 63 -53v-62l-375 -67h-12l33 129h-16q-105 -150 -283 -150q-139 0 -230.5 113.5t-91.5 286.5zM719 276l80 318q12 50 12 90q0 85 -45 135.5t-115 50.5q-90 3 -165.5 -69.5t-115 -179.5t-38.5 -213q0 -114 48.5 -186t129.5 -72
q101 0 209 126z" />
    <glyph glyph-name="adieresis" unicode="&#xe4;" horiz-adv-x="1191" 
d="M383 1270q0 72 49 120t121 48q60 0 97.5 -37.5t37.5 -97.5q0 -72 -49 -120t-121 -48q-57 0 -96 39t-39 96zM809 1270q0 72 49 120t121 48q60 0 97.5 -37.5t37.5 -97.5q0 -72 -49 -120t-121 -48q-57 0 -96 39t-39 96zM59 371q-3 160 71.5 306t203.5 235t276 85
q188 0 301 -125h17l125 97h112l-182 -727q-12 -53 -12 -68q0 -44 63 -53v-62l-375 -67h-12l33 129h-16q-105 -150 -283 -150q-139 0 -230.5 113.5t-91.5 286.5zM719 276l80 318q12 50 12 90q0 85 -45 135.5t-115 50.5q-90 3 -165.5 -69.5t-115 -179.5t-38.5 -213
q0 -114 48.5 -186t129.5 -72q101 0 209 126z" />
    <glyph glyph-name="aring" unicode="&#xe5;" horiz-adv-x="1191" 
d="M526 1290q0 86 62.5 147.5t150.5 61.5t151.5 -61.5t63.5 -147.5q0 -87 -62.5 -147t-152.5 -60q-88 0 -150.5 60.5t-62.5 146.5zM834 1290q0 43 -27 71t-68 28t-66.5 -28t-25.5 -71t25.5 -70.5t66.5 -27.5t68 27.5t27 70.5zM59 371q-3 160 71.5 306t203.5 235t276 85
q188 0 301 -125h17l125 97h112l-182 -727q-12 -53 -12 -68q0 -44 63 -53v-62l-375 -67h-12l33 129h-16q-105 -150 -283 -150q-139 0 -230.5 113.5t-91.5 286.5zM719 276l80 318q12 50 12 90q0 85 -45 135.5t-115 50.5q-90 3 -165.5 -69.5t-115 -179.5t-38.5 -213
q0 -114 48.5 -186t129.5 -72q101 0 209 126z" />
    <glyph glyph-name="ae" unicode="&#xe6;" horiz-adv-x="1556" 
d="M1503 686q0 -49 -8 -80l-14 -69h-600q-2 -10 -2 -45q0 -148 75 -229t205 -81q146 0 256 84l55 -65q-169 -230 -436 -230q-123 0 -222 63t-148 173h-17q-76 -109 -173.5 -172.5t-207.5 -63.5q-112 0 -183 65t-71 165q0 114 87 183.5t272 111.5l231 53l19 72q8 24 8 59
q0 67 -45.5 103t-124.5 36q-127 0 -275 -88l-47 84q95 82 207.5 132t218.5 50q173 0 258 -116h17q137 116 315 116q157 0 253.5 -87t96.5 -224zM1251 649q9 35 9 74q0 71 -32.5 112.5t-94.5 41.5q-77 0 -138.5 -62.5t-93.5 -165.5h350zM575 440l-131 -39
q-83 -26 -126.5 -60.5t-43.5 -90.5q0 -46 26 -73t65 -27q79 0 165 108z" />
    <glyph glyph-name="ccedilla" unicode="&#xe7;" horiz-adv-x="974" 
d="M338 473q0 -139 73.5 -215t198.5 -76q144 0 254 84l56 -65q-84 -114 -195 -172t-233 -58h-25l-39 -63l2 -4q20 4 31 4q59 0 98 -38t39 -103q0 -84 -66.5 -138.5t-166.5 -54.5q-141 0 -230 109l45 59q62 -53 144 -53q50 0 81 21.5t31 56.5q0 26 -20.5 41.5t-55.5 15.5
q-29 0 -65 -19h-12l104 179q-150 35 -235 151q-89 121 -89 281q-3 161 75.5 295.5t217.5 211.5t306 74q153 0 276 -63v-254h-61q-20 87 -79 136.5t-139 49.5q-143 0 -232 -111.5t-89 -281.5z" />
    <glyph glyph-name="egrave" unicode="&#xe8;" horiz-adv-x="1007" 
d="M698 1438l52 -324h-103l-229 313v11h280zM952 684q0 -30 -10 -88l-12 -59h-600q-2 -10 -2 -45q0 -147 75.5 -228.5t204.5 -81.5q143 0 256 84l56 -65q-173 -230 -433 -230q-180 0 -299.5 124.5t-119.5 320.5q-3 148 66.5 283.5t194 218.5t269.5 79q163 0 258.5 -85.5
t95.5 -227.5zM350 649h350q9 35 9 76q0 71 -32.5 111.5t-94.5 40.5q-79 0 -139.5 -62.5t-92.5 -165.5z" />
    <glyph glyph-name="eacute" unicode="&#xe9;" horiz-adv-x="1007" 
d="M532 1114l183 324h305v-11l-369 -313h-119zM952 684q0 -30 -10 -88l-12 -59h-600q-2 -10 -2 -45q0 -147 75.5 -228.5t204.5 -81.5q143 0 256 84l56 -65q-173 -230 -433 -230q-180 0 -299.5 124.5t-119.5 320.5q-3 148 66.5 283.5t194 218.5t269.5 79q163 0 258.5 -85.5
t95.5 -227.5zM350 649h350q9 35 9 76q0 71 -32.5 111.5t-94.5 40.5q-79 0 -139.5 -62.5t-92.5 -165.5z" />
    <glyph glyph-name="ecircumflex" unicode="&#xea;" horiz-adv-x="1007" 
d="M848 1114l-166 137l-250 -137h-141l373 324h110l191 -324h-117zM952 684q0 -30 -10 -88l-12 -59h-600q-2 -10 -2 -45q0 -147 75.5 -228.5t204.5 -81.5q143 0 256 84l56 -65q-173 -230 -433 -230q-180 0 -299.5 124.5t-119.5 320.5q-3 148 66.5 283.5t194 218.5t269.5 79
q163 0 258.5 -85.5t95.5 -227.5zM350 649h350q9 35 9 76q0 71 -32.5 111.5t-94.5 40.5q-79 0 -139.5 -62.5t-92.5 -165.5z" />
    <glyph glyph-name="edieresis" unicode="&#xeb;" horiz-adv-x="1007" 
d="M322 1270q0 72 49 120t121 48q60 0 97.5 -37.5t37.5 -97.5q0 -72 -49 -120t-121 -48q-57 0 -96 39t-39 96zM1053 1303q0 -72 -49 -120t-121 -48q-57 0 -96 39t-39 96q0 72 49 120t121 48q60 0 97.5 -37.5t37.5 -97.5zM952 684q0 -30 -10 -88l-12 -59h-600q-2 -10 -2 -45
q0 -147 75.5 -228.5t204.5 -81.5q143 0 256 84l56 -65q-173 -230 -433 -230q-180 0 -299.5 124.5t-119.5 320.5q-3 148 66.5 283.5t194 218.5t269.5 79q163 0 258.5 -85.5t95.5 -227.5zM350 649h350q9 35 9 76q0 71 -32.5 111.5t-94.5 40.5q-79 0 -139.5 -62.5t-92.5 -165.5
z" />
    <glyph glyph-name="igrave" unicode="&#xec;" horiz-adv-x="589" 
d="M506 1438l51 -324h-102l-230 313v11h281zM362 174q-10 -52 -10 -61q0 -24 13.5 -35.5t44.5 -16.5v-61h-441v61q58 6 81 28t40 89l139 559q9 41 9 51q0 30 -17.5 46t-58.5 22v62l387 61h12z" />
    <glyph glyph-name="iacute" unicode="&#xed;" horiz-adv-x="589" 
d="M459 1114h-119l182 324h305v-11zM362 174q-10 -52 -10 -61q0 -24 13.5 -35.5t44.5 -16.5v-61h-441v61q58 6 81 28t40 89l139 559q9 41 9 51q0 30 -17.5 46t-58.5 22v62l387 61h12z" />
    <glyph glyph-name="icircumflex" unicode="&#xee;" horiz-adv-x="589" 
d="M240 1114h-142l373 324h111l190 -324h-117l-166 137zM362 174q-10 -52 -10 -61q0 -24 13.5 -35.5t44.5 -16.5v-61h-441v61q58 6 81 28t40 89l139 559q9 41 9 51q0 30 -17.5 46t-58.5 22v62l387 61h12z" />
    <glyph glyph-name="idieresis" unicode="&#xef;" horiz-adv-x="589" 
d="M129 1270q0 72 49 120t121 48q60 0 97.5 -37.5t37.5 -97.5q0 -72 -49 -120t-121 -48q-57 0 -96 39t-39 96zM555 1270q0 72 49 120t121 48q60 0 97.5 -37.5t37.5 -97.5q0 -72 -49 -120t-121 -48q-57 0 -96 39t-39 96zM362 174q-10 -52 -10 -61q0 -24 13.5 -35.5
t44.5 -16.5v-61h-441v61q58 6 81 28t40 89l139 559q9 41 9 51q0 30 -17.5 46t-58.5 22v62l387 61h12z" />
    <glyph glyph-name="eth" unicode="&#xf0;" horiz-adv-x="1204" 
d="M975 1262q184 -200 184 -482q3 -200 -81 -388.5t-233.5 -307t-320.5 -113.5q-192 0 -320 134.5t-128 332.5q-3 147 63 277.5t180.5 207.5t245.5 74q230 0 338 -221h17q6 53 6 101q0 182 -97 321l-331 -145l-45 94l305 133q-72 69 -176 121l41 82q153 -51 268 -144l219 97
l45 -95zM862 657q-27 79 -83.5 125.5t-129.5 46.5q-90 0 -163 -64.5t-112.5 -170t-39.5 -227.5q0 -119 51.5 -194t136.5 -75q124 0 207 126t119 347z" />
    <glyph glyph-name="ntilde" unicode="&#xf1;" horiz-adv-x="1169" 
d="M756 1178l-43 32q-42 33 -80 33q-81 0 -111 -110h-112q23 134 85.5 207t155.5 73q71 0 140 -55l45 -33q44 -33 82 -33q74 0 108 113h113q-23 -136 -86.5 -209.5t-159.5 -73.5q-67 0 -137 56zM223 721q0 3 6.5 29.5t6.5 37.5q0 29 -17.5 45t-58.5 23v62l387 61h12
l-33 -131h17q65 76 131 112.5t149 36.5q112 0 181 -74.5t69 -205.5q0 -67 -18 -146l-92 -368q-17 -80 -17 -92q0 -24 12 -34t46 -16v-61h-441v61q65 9 84 29.5t43 110.5l109 436q8 27 8 61q0 56 -28.5 88.5t-76.5 32.5q-59 0 -115.5 -39.5t-103.5 -105.5l-118 -479
q-15 -65 -15 -82q0 -25 12 -35.5t46 -16.5v-61h-441v61q36 5 50 9t30.5 18t25 37.5t19.5 69.5z" />
    <glyph glyph-name="ograve" unicode="&#xf2;" horiz-adv-x="1161" 
d="M754 1438l51 -324h-103l-229 313v11h281zM66 399q-3 163 74 301.5t213 219t298 77.5q200 0 323.5 -119t123.5 -309q2 -122 -43 -233.5t-123.5 -192t-188.5 -127.5t-231 -45q-197 0 -321.5 120t-124.5 308zM811 623q0 112 -42 171.5t-122 59.5q-86 4 -156.5 -78.5
t-105.5 -199.5t-33 -230q0 -112 42 -171.5t122 -59.5q64 -3 121.5 45t94.5 124t58.5 166t20.5 173z" />
    <glyph glyph-name="oacute" unicode="&#xf3;" horiz-adv-x="1161" 
d="M707 1114h-119l182 324h305v-11zM66 399q-3 163 74 301.5t213 219t298 77.5q200 0 323.5 -119t123.5 -309q2 -122 -43 -233.5t-123.5 -192t-188.5 -127.5t-231 -45q-197 0 -321.5 120t-124.5 308zM811 623q0 112 -42 171.5t-122 59.5q-86 4 -156.5 -78.5t-105.5 -199.5
t-33 -230q0 -112 42 -171.5t122 -59.5q64 -3 121.5 45t94.5 124t58.5 166t20.5 173z" />
    <glyph glyph-name="ocircumflex" unicode="&#xf4;" horiz-adv-x="1161" 
d="M487 1114h-141l373 324h110l191 -324h-117l-166 137zM66 399q-3 163 74 301.5t213 219t298 77.5q200 0 323.5 -119t123.5 -309q2 -122 -43 -233.5t-123.5 -192t-188.5 -127.5t-231 -45q-197 0 -321.5 120t-124.5 308zM811 623q0 112 -42 171.5t-122 59.5
q-86 4 -156.5 -78.5t-105.5 -199.5t-33 -230q0 -112 42 -171.5t122 -59.5q64 -3 121.5 45t94.5 124t58.5 166t20.5 173z" />
    <glyph glyph-name="otilde" unicode="&#xf5;" horiz-adv-x="1161" 
d="M709 1178l-43 32q-42 33 -80 33q-81 0 -111 -110h-113q23 134 86 207t156 73q70 0 139 -55l45 -33q44 -33 82 -33q75 0 109 113h113q-23 -136 -86.5 -209.5t-159.5 -73.5q-67 0 -137 56zM66 399q-3 163 74 301.5t213 219t298 77.5q200 0 323.5 -119t123.5 -309
q2 -122 -43 -233.5t-123.5 -192t-188.5 -127.5t-231 -45q-197 0 -321.5 120t-124.5 308zM811 623q0 112 -42 171.5t-122 59.5q-86 4 -156.5 -78.5t-105.5 -199.5t-33 -230q0 -112 42 -171.5t122 -59.5q64 -3 121.5 45t94.5 124t58.5 166t20.5 173z" />
    <glyph glyph-name="odieresis" unicode="&#xf6;" horiz-adv-x="1161" 
d="M377 1270q0 72 49 120t121 48q60 0 97.5 -37.5t37.5 -97.5q0 -72 -49 -120t-121 -48q-57 0 -96 39t-39 96zM803 1270q0 72 49 120t121 48q60 0 97.5 -37.5t37.5 -97.5q0 -72 -49 -120t-121 -48q-57 0 -96 39t-39 96zM66 399q-3 163 74 301.5t213 219t298 77.5
q200 0 323.5 -119t123.5 -309q2 -122 -43 -233.5t-123.5 -192t-188.5 -127.5t-231 -45q-197 0 -321.5 120t-124.5 308zM811 623q0 112 -42 171.5t-122 59.5q-86 4 -156.5 -78.5t-105.5 -199.5t-33 -230q0 -112 42 -171.5t122 -59.5q64 -3 121.5 45t94.5 124t58.5 166
t20.5 173z" />
    <glyph glyph-name="divide" unicode="&#xf7;" horiz-adv-x="1179" 
d="M449 834q0 57 40 97t97 40t97 -40t40 -97q0 -58 -39 -98t-98 -40q-57 0 -97 40.5t-40 97.5zM1077 412h-968v143h968v-143zM449 137q0 57 40 97t97 40q60 0 98.5 -38.5t38.5 -98.5q0 -57 -40 -97t-97 -40t-97 40t-40 97z" />
    <glyph glyph-name="oslash" unicode="&#xf8;" horiz-adv-x="1161" 
d="M1120 971l-116 -125q94 -113 94 -277q2 -122 -43 -233.5t-123.5 -192t-188.5 -127.5t-231 -45q-146 0 -262 72l-121 -129l-84 82l117 125q-96 116 -96 278q-3 163 74 301.5t213 219t298 77.5q154 0 267 -73l118 127zM352 324l428 454q-46 76 -133 76q-86 4 -156.5 -78.5
t-105.5 -199.5t-33 -230v-22zM811 641l-426 -453q43 -73 131 -73q64 -3 121.5 45t94.5 124t58.5 166t20.5 173v18z" />
    <glyph glyph-name="ugrave" unicode="&#xf9;" horiz-adv-x="1146" 
d="M764 1438l51 -324h-102l-230 313v11h281zM98 238q0 56 17 129l88 354q10 52 10 67q0 56 -74 68v62l389 61h11l-166 -670q-8 -36 -8 -55q0 -50 28 -76t76 -26q49 0 101.5 33t97.5 91l110 445q10 52 10 67q0 30 -16 45.5t-57 22.5v62l389 61h10l-180 -729q-12 -49 -12 -76
q0 -24 14 -36t47 -17v-62l-377 -67h-10l33 129h-17q-114 -150 -278 -150q-105 0 -170.5 72t-65.5 195z" />
    <glyph glyph-name="uacute" unicode="&#xfa;" horiz-adv-x="1146" 
d="M717 1114h-119l182 324h305v-11zM98 238q0 56 17 129l88 354q10 52 10 67q0 56 -74 68v62l389 61h11l-166 -670q-8 -36 -8 -55q0 -50 28 -76t76 -26q49 0 101.5 33t97.5 91l110 445q10 52 10 67q0 30 -16 45.5t-57 22.5v62l389 61h10l-180 -729q-12 -49 -12 -76
q0 -24 14 -36t47 -17v-62l-377 -67h-10l33 129h-17q-114 -150 -278 -150q-105 0 -170.5 72t-65.5 195z" />
    <glyph glyph-name="ucircumflex" unicode="&#xfb;" horiz-adv-x="1146" 
d="M498 1114h-142l373 324h111l190 -324h-117l-165 137zM98 238q0 56 17 129l88 354q10 52 10 67q0 56 -74 68v62l389 61h11l-166 -670q-8 -36 -8 -55q0 -50 28 -76t76 -26q49 0 101.5 33t97.5 91l110 445q10 52 10 67q0 30 -16 45.5t-57 22.5v62l389 61h10l-180 -729
q-12 -49 -12 -76q0 -24 14 -36t47 -17v-62l-377 -67h-10l33 129h-17q-114 -150 -278 -150q-105 0 -170.5 72t-65.5 195z" />
    <glyph glyph-name="udieresis" unicode="&#xfc;" horiz-adv-x="1146" 
d="M387 1270q0 72 49 120t121 48q60 0 97.5 -37.5t37.5 -97.5q0 -72 -49 -120t-121 -48q-57 0 -96 39t-39 96zM813 1270q0 72 49 120t121 48q60 0 97.5 -37.5t37.5 -97.5q0 -72 -49 -120t-121 -48q-57 0 -96 39t-39 96zM98 238q0 56 17 129l88 354q10 52 10 67q0 56 -74 68
v62l389 61h11l-166 -670q-8 -36 -8 -55q0 -50 28 -76t76 -26q49 0 101.5 33t97.5 91l110 445q10 52 10 67q0 30 -16 45.5t-57 22.5v62l389 61h10l-180 -729q-12 -49 -12 -76q0 -24 14 -36t47 -17v-62l-377 -67h-10l33 129h-17q-114 -150 -278 -150q-105 0 -170.5 72
t-65.5 195z" />
    <glyph glyph-name="yacute" unicode="&#xfd;" horiz-adv-x="1048" 
d="M1044 1438v-11l-368 -313h-119l182 324h305zM813 969h356v-62q-75 -20 -116 -53t-84 -106l-533 -877q-103 -169 -197 -239t-212 -70q-94 0 -158 43v221q78 -35 174 -35q199 0 307 178l6 11l-143 772q-11 58 -33.5 80.5t-81.5 23.5v62l351 69l2 -14l36 -240l66 -397h16
l250 416q45 71 45 106q0 34 -51 49v62z" />
    <glyph glyph-name="thorn" unicode="&#xfe;" horiz-adv-x="1189" 
d="M334 1208q12 44 12 70q0 28 -15.5 40t-60.5 23v62l387 61h13l-154 -616h16q112 149 281 149q144 0 239 -110t95 -285q2 -128 -45.5 -246.5t-125.5 -203t-180.5 -134t-207.5 -47.5q-151 0 -252 84h-17l-63 -254q-18 -83 -18 -96q0 -28 15.5 -38t61.5 -15v-62h-460v62
q63 6 82.5 28t44.5 115zM874 567q0 118 -48.5 185t-133.5 67q-105 0 -213 -127l-80 -319q-12 -49 -12 -90q0 -85 46 -135t120 -50q88 0 163 68t116.5 175.5t41.5 225.5z" />
    <glyph glyph-name="ydieresis" unicode="&#xff;" horiz-adv-x="1048" 
d="M346 1270q0 72 49 120t121 48q60 0 97.5 -37.5t37.5 -97.5q0 -72 -49 -120t-121 -48q-57 0 -96 39t-39 96zM772 1270q0 72 49 120t121 48q60 0 97.5 -37.5t37.5 -97.5q0 -72 -49 -120t-121 -48q-57 0 -96 39t-39 96zM813 969h356v-62q-75 -20 -116 -53t-84 -106
l-533 -877q-103 -169 -197 -239t-212 -70q-94 0 -158 43v221q78 -35 174 -35q199 0 307 178l6 11l-143 772q-11 58 -33.5 80.5t-81.5 23.5v62l351 69l2 -14l36 -240l66 -397h16l250 416q45 71 45 106q0 34 -51 49v62z" />
    <glyph glyph-name="Amacron" unicode="&#x100;" horiz-adv-x="1439" 
d="M696 1733h631v-125h-631v125zM1227 254q13 -86 36.5 -124.5t75.5 -68.5v-61h-567v61q88 20 124 50t36 84q0 4 -0.5 10t-1.5 17.5t-2 21.5l-27 159h-506l-92 -147q-53 -83 -53 -123q0 -52 94 -72v-61h-461v61q94 35 144 74q50 42 112 141l719 1147h164zM780 1018
l-295 -471h392l-80 471h-17z" />
    <glyph glyph-name="amacron" unicode="&#x101;" horiz-adv-x="1191" 
d="M1059 1196h-631v125h631v-125zM59 371q-3 160 71.5 306t203.5 235t276 85q188 0 301 -125h17l125 97h112l-182 -727q-12 -53 -12 -68q0 -44 63 -53v-62l-375 -67h-12l33 129h-16q-105 -150 -283 -150q-139 0 -230.5 113.5t-91.5 286.5zM719 276l80 318q12 50 12 90
q0 85 -45 135.5t-115 50.5q-90 3 -165.5 -69.5t-115 -179.5t-38.5 -213q0 -114 48.5 -186t129.5 -72q101 0 209 126z" />
    <glyph glyph-name="Abreve" unicode="&#x102;" horiz-adv-x="1439" 
d="M743 1749q0 39 13 96h106q-4 -20 -4 -43q0 -55 35 -85.5t100 -30.5q153 0 221 159h115q-37 -156 -127 -239.5t-223 -83.5q-108 0 -172 60t-64 167zM1227 254q13 -86 36.5 -124.5t75.5 -68.5v-61h-567v61q88 20 124 50t36 84q0 4 -0.5 10t-1.5 17.5t-2 21.5l-27 159h-506
l-92 -147q-53 -83 -53 -123q0 -52 94 -72v-61h-461v61q94 35 144 74q50 42 112 141l719 1147h164zM780 1018l-295 -471h392l-80 471h-17z" />
    <glyph glyph-name="abreve" unicode="&#x103;" horiz-adv-x="1191" 
d="M481 1341q0 40 13 97h106q-4 -20 -4 -43q0 -55 35 -86t100 -31q153 0 221 160h115q-37 -156 -127 -240t-223 -84q-108 0 -172 60t-64 167zM59 371q-3 160 71.5 306t203.5 235t276 85q188 0 301 -125h17l125 97h112l-182 -727q-12 -53 -12 -68q0 -44 63 -53v-62l-375 -67
h-12l33 129h-16q-105 -150 -283 -150q-139 0 -230.5 113.5t-91.5 286.5zM719 276l80 318q12 50 12 90q0 85 -45 135.5t-115 50.5q-90 3 -165.5 -69.5t-115 -179.5t-38.5 -213q0 -114 48.5 -186t129.5 -72q101 0 209 126z" />
    <glyph glyph-name="Aogonek" unicode="&#x104;" horiz-adv-x="1439" 
d="M1227 254q13 -86 36.5 -124.5t75.5 -68.5v-61h-112q-248 -99 -248 -215q0 -38 27 -61t71 -23q53 0 101 31l39 -60q-84 -96 -213 -96q-81 0 -133 51.5t-52 126.5q0 163 238 246h-285v61q88 20 124 50t36 84q0 4 -0.5 10t-1.5 17.5t-2 21.5l-27 159h-506l-92 -147
q-53 -83 -53 -123q0 -52 94 -72v-61h-461v61q94 35 144 74q50 42 112 141l719 1147h164zM780 1018l-295 -471h392l-80 471h-17z" />
    <glyph glyph-name="aogonek" unicode="&#x105;" horiz-adv-x="1191" 
d="M983 242q-12 -53 -12 -68q0 -44 63 -53v-62l-270 -49l33 -10q-248 -99 -248 -215q0 -38 27 -61t71 -23q53 0 101 31l38 -60q-84 -96 -213 -96q-80 0 -132 51.5t-52 126.5q0 171 262 254l29 113h-16q-105 -150 -283 -150q-139 0 -230.5 113.5t-91.5 286.5q-3 160 71.5 306
t203.5 235t276 85q188 0 301 -125h17l125 97h112zM799 594q12 50 12 90q0 85 -45 135.5t-115 50.5q-90 3 -165.5 -69.5t-115 -179.5t-38.5 -213q0 -114 48.5 -186t129.5 -72q101 0 209 126z" />
    <glyph glyph-name="Cacute" unicode="&#x106;" horiz-adv-x="1396" 
d="M993 1522h-119l183 323h305v-10zM133 621q-4 166 63 321.5t180.5 268t268 179t318.5 62.5q236 0 434 -109v-339h-66q-50 143 -144 222t-218 79q-140 4 -259 -83.5t-185 -231t-64 -304.5q0 -228 126 -360.5t328 -132.5q191 0 361 126l67 -83q-239 -265 -557 -265
q-181 -3 -332 82.5t-237.5 236.5t-83.5 331z" />
    <glyph glyph-name="cacute" unicode="&#x107;" horiz-adv-x="974" 
d="M684 1114h-119l183 324h305v-11zM63 416q-3 161 75.5 295.5t217.5 211.5t306 74q153 0 276 -63v-254h-61q-20 87 -79 136.5t-139 49.5q-143 0 -232 -111.5t-89 -281.5q0 -139 73.5 -215t198.5 -76q144 0 254 84l56 -65q-84 -114 -195 -172t-233 -58q-189 0 -309 128.5
t-120 316.5z" />
    <glyph glyph-name="Ccircumflex" unicode="&#x108;" horiz-adv-x="1396" 
d="M788 1522h-141l373 323h110l191 -323h-117l-166 137zM133 621q-4 166 63 321.5t180.5 268t268 179t318.5 62.5q236 0 434 -109v-339h-66q-50 143 -144 222t-218 79q-140 4 -259 -83.5t-185 -231t-64 -304.5q0 -228 126 -360.5t328 -132.5q191 0 361 126l67 -83
q-239 -265 -557 -265q-181 -3 -332 82.5t-237.5 236.5t-83.5 331z" />
    <glyph glyph-name="ccircumflex" unicode="&#x109;" horiz-adv-x="974" 
d="M465 1114h-141l372 324h111l190 -324h-116l-166 137zM63 416q-3 161 75.5 295.5t217.5 211.5t306 74q153 0 276 -63v-254h-61q-20 87 -79 136.5t-139 49.5q-143 0 -232 -111.5t-89 -281.5q0 -139 73.5 -215t198.5 -76q144 0 254 84l56 -65q-84 -114 -195 -172t-233 -58
q-189 0 -309 128.5t-120 316.5z" />
    <glyph glyph-name="Cdotaccent" unicode="&#x10a;" horiz-adv-x="1396" 
d="M866 1679q0 78 53.5 130.5t131.5 52.5q66 0 107.5 -41t41.5 -107q0 -78 -54 -130t-132 -52q-63 0 -105.5 42t-42.5 105zM133 621q-4 166 63 321.5t180.5 268t268 179t318.5 62.5q236 0 434 -109v-339h-66q-50 143 -144 222t-218 79q-140 4 -259 -83.5t-185 -231
t-64 -304.5q0 -228 126 -360.5t328 -132.5q191 0 361 126l67 -83q-239 -265 -557 -265q-181 -3 -332 82.5t-237.5 236.5t-83.5 331z" />
    <glyph glyph-name="cdotaccent" unicode="&#x10b;" horiz-adv-x="974" 
d="M559 1268q0 78 53 130t131 52q66 0 108 -40.5t42 -106.5q0 -78 -54 -130.5t-132 -52.5q-63 0 -105.5 42.5t-42.5 105.5zM63 416q-3 161 75.5 295.5t217.5 211.5t306 74q153 0 276 -63v-254h-61q-20 87 -79 136.5t-139 49.5q-143 0 -232 -111.5t-89 -281.5
q0 -139 73.5 -215t198.5 -76q144 0 254 84l56 -65q-84 -114 -195 -172t-233 -58q-189 0 -309 128.5t-120 316.5z" />
    <glyph glyph-name="Ccaron" unicode="&#x10c;" horiz-adv-x="1396" 
d="M1272 1845h141l-373 -323h-110l-191 323h117l166 -137zM133 621q-4 166 63 321.5t180.5 268t268 179t318.5 62.5q236 0 434 -109v-339h-66q-50 143 -144 222t-218 79q-140 4 -259 -83.5t-185 -231t-64 -304.5q0 -228 126 -360.5t328 -132.5q191 0 361 126l67 -83
q-239 -265 -557 -265q-181 -3 -332 82.5t-237.5 236.5t-83.5 331z" />
    <glyph glyph-name="ccaron" unicode="&#x10d;" horiz-adv-x="974" 
d="M956 1438h142l-373 -324h-111l-190 324h117l166 -138zM63 416q-3 161 75.5 295.5t217.5 211.5t306 74q153 0 276 -63v-254h-61q-20 87 -79 136.5t-139 49.5q-143 0 -232 -111.5t-89 -281.5q0 -139 73.5 -215t198.5 -76q144 0 254 84l56 -65q-84 -114 -195 -172t-233 -58
q-189 0 -309 128.5t-120 316.5z" />
    <glyph glyph-name="Dcaron" unicode="&#x10e;" horiz-adv-x="1603" 
d="M1276 1845h141l-373 -323h-110l-191 323h117l166 -137zM389 1190q17 80 17 90q0 71 -89 82v61h553q207 0 370.5 -75.5t256 -214t92.5 -316.5q3 -168 -66.5 -320t-191.5 -262.5t-296.5 -174t-372.5 -60.5h-685v61q91 15 121 47.5t58 147.5zM612 139q120 -2 226 37.5
t182.5 109t132.5 161t83 195t26 208.5q0 208 -109 321t-303 113h-133l-287 -1145h182z" />
    <glyph glyph-name="dcaron" unicode="&#x10f;" horiz-adv-x="1202" 
d="M1608 1354q0 -59 -72 -156l-127 -160h-102l159 197q-47 4 -76.5 37t-29.5 76q0 57 34 93t91 36q53 0 88 -35.5t35 -87.5zM1296 1464l-305 -1220q-12 -46 -12 -70q0 -26 13.5 -37t49.5 -16v-62l-374 -67h-13l33 129h-16q-54 -73 -119.5 -111.5t-157.5 -38.5
q-147 0 -241.5 110.5t-94.5 289.5q-3 162 73.5 308t209 234t283.5 84q155 0 239 -106h17l84 336q8 36 8 51q0 30 -18 44t-58 19v62l387 61h12zM807 594q12 50 12 90q0 85 -45.5 135.5t-118.5 50.5q-69 2 -131.5 -40.5t-103.5 -110t-65 -150t-23 -161.5q0 -119 47 -188.5
t133 -69.5q111 0 215 126z" />
    <glyph glyph-name="Dcroat" unicode="&#x110;" horiz-adv-x="1617" 
d="M885 1423q207 0 370.5 -75.5t256 -214t92.5 -316.5q3 -168 -66.5 -320t-191.5 -262.5t-297 -174t-373 -60.5h-684v61q91 15 120.5 47.5t57.5 147.5l102 412h-176v127h209l98 395q17 80 17 90q0 71 -88 82v61h553zM627 139q120 -2 225.5 37.5t182.5 109t132.5 161
t82.5 195t26 208.5q0 208 -109 321t-303 113h-133l-123 -489h287v-127h-317l-134 -529h183z" />
    <glyph glyph-name="dcroat" unicode="&#x111;" horiz-adv-x="1202" 
d="M1204 1098l-213 -854q-12 -46 -12 -70q0 -26 13.5 -37t49.5 -16v-62l-374 -67h-13l33 129h-16q-54 -73 -119.5 -111.5t-157.5 -38.5q-147 0 -241.5 110.5t-94.5 289.5q-3 162 73.5 308t209 234t283.5 84q155 0 239 -106h17l51 207h-268v106h294l7 23q8 36 8 51
q0 30 -18 44t-58 19v62l387 61h12l-65 -260h135v-106h-162zM807 594q12 50 12 90q0 85 -45.5 135.5t-118.5 50.5q-69 2 -131.5 -40.5t-103.5 -110t-65 -150t-23 -161.5q0 -119 47 -188.5t133 -69.5q111 0 215 126z" />
    <glyph glyph-name="Emacron" unicode="&#x112;" horiz-adv-x="1329" 
d="M1280 1608h-631v125h631v-125zM1178 395v-395h-1205v61q84 12 118.5 48t58.5 127l239 954q14 60 14 88q0 37 -20.5 57t-69.5 27v61h1071v-342h-65q-17 109 -86.5 154t-222.5 45h-295l-123 -492h147q127 0 175 34t61 118h65v-442h-65q-12 85 -59.5 116t-178.5 31h-180
l-125 -502h371q147 0 214.5 52.5t94.5 199.5h66z" />
    <glyph glyph-name="emacron" unicode="&#x113;" horiz-adv-x="1007" 
d="M367 1196v125h630v-125h-630zM952 684q0 -30 -10 -88l-12 -59h-600q-2 -10 -2 -45q0 -147 75.5 -228.5t204.5 -81.5q143 0 256 84l56 -65q-173 -230 -433 -230q-180 0 -299.5 124.5t-119.5 320.5q-3 148 66.5 283.5t194 218.5t269.5 79q163 0 258.5 -85.5t95.5 -227.5z
M350 649h350q9 35 9 76q0 71 -32.5 111.5t-94.5 40.5q-79 0 -139.5 -62.5t-92.5 -165.5z" />
    <glyph glyph-name="Ebreve" unicode="&#x114;" horiz-adv-x="1329" 
d="M696 1749q0 39 13 96h106q-4 -20 -4 -43q0 -55 35 -85.5t100 -30.5q154 0 221 159h115q-37 -156 -127 -239.5t-223 -83.5q-108 0 -172 60t-64 167zM1178 395v-395h-1205v61q84 12 118.5 48t58.5 127l239 954q14 60 14 88q0 37 -20.5 57t-69.5 27v61h1071v-342h-65
q-17 109 -86.5 154t-222.5 45h-295l-123 -492h147q127 0 175 34t61 118h65v-442h-65q-12 85 -59.5 116t-178.5 31h-180l-125 -502h371q147 0 214.5 52.5t94.5 199.5h66z" />
    <glyph glyph-name="ebreve" unicode="&#x115;" horiz-adv-x="1007" 
d="M420 1341q0 45 12 97h107q-4 -20 -4 -43q0 -55 35 -86t100 -31q153 0 221 160h115q-37 -156 -127.5 -240t-223.5 -84q-107 0 -171 60t-64 167zM952 684q0 -30 -10 -88l-12 -59h-600q-2 -10 -2 -45q0 -147 75.5 -228.5t204.5 -81.5q143 0 256 84l56 -65
q-173 -230 -433 -230q-180 0 -299.5 124.5t-119.5 320.5q-3 148 66.5 283.5t194 218.5t269.5 79q163 0 258.5 -85.5t95.5 -227.5zM350 649h350q9 35 9 76q0 71 -32.5 111.5t-94.5 40.5q-79 0 -139.5 -62.5t-92.5 -165.5z" />
    <glyph glyph-name="Edotaccent" unicode="&#x116;" horiz-adv-x="1329" 
d="M793 1679q0 78 53 130.5t131 52.5q66 0 107.5 -41t41.5 -107q0 -78 -54 -130t-132 -52q-63 0 -105 42t-42 105zM1178 395v-395h-1205v61q84 12 118.5 48t58.5 127l239 954q14 60 14 88q0 37 -20.5 57t-69.5 27v61h1071v-342h-65q-17 109 -86.5 154t-222.5 45h-295
l-123 -492h147q127 0 175 34t61 118h65v-442h-65q-12 85 -59.5 116t-178.5 31h-180l-125 -502h371q147 0 214.5 52.5t94.5 199.5h66z" />
    <glyph glyph-name="edotaccent" unicode="&#x117;" horiz-adv-x="1007" 
d="M526 1268q0 78 53.5 130t131.5 52q66 0 107.5 -40.5t41.5 -106.5q0 -78 -54 -130.5t-132 -52.5q-63 0 -105.5 42.5t-42.5 105.5zM952 684q0 -30 -10 -88l-12 -59h-600q-2 -10 -2 -45q0 -147 75.5 -228.5t204.5 -81.5q143 0 256 84l56 -65q-173 -230 -433 -230
q-180 0 -299.5 124.5t-119.5 320.5q-3 148 66.5 283.5t194 218.5t269.5 79q163 0 258.5 -85.5t95.5 -227.5zM350 649h350q9 35 9 76q0 71 -32.5 111.5t-94.5 40.5q-79 0 -139.5 -62.5t-92.5 -165.5z" />
    <glyph glyph-name="Eogonek" unicode="&#x118;" horiz-adv-x="1329" 
d="M313 1423h1071v-342h-65q-17 109 -86.5 154t-222.5 45h-295l-123 -492h147q127 0 175 34t61 118h65v-442h-65q-12 85 -59.5 116t-178.5 31h-180l-125 -502h371q147 0 214.5 52.5t94.5 199.5h66v-395q-248 -99 -248 -215q0 -38 27 -61t71 -23q52 0 100 31l39 -60
q-84 -96 -213 -96q-80 0 -132 51.5t-52 126.5q0 163 238 246h-1035v61q84 12 118.5 48t58.5 127l239 954q14 60 14 88q0 37 -20.5 57t-69.5 27v61z" />
    <glyph glyph-name="eogonek" unicode="&#x119;" horiz-adv-x="1007" 
d="M952 684q0 -30 -10 -88l-12 -59h-600q-2 -10 -2 -43q0 -147 75 -229.5t201 -82.5q150 0 260 84l56 -65q-67 -89 -138.5 -137t-175.5 -80q-103 -30 -162 -83.5t-59 -111.5q0 -42 26 -65t70 -23q55 0 103 31l39 -60q-84 -96 -213 -96q-80 0 -132.5 51.5t-52.5 124.5
q0 143 168 219v9q-143 27 -235 147q-90 122 -90 291q-3 149 67.5 284t196 217t270.5 78q160 0 255 -85.5t95 -227.5zM700 649q9 35 9 76q0 70 -32.5 111t-92.5 41q-79 0 -140.5 -62.5t-93.5 -165.5h350z" />
    <glyph glyph-name="Ecaron" unicode="&#x11a;" horiz-adv-x="1329" 
d="M1198 1845h141l-372 -323h-111l-190 323h116l166 -137zM1178 395v-395h-1205v61q84 12 118.5 48t58.5 127l239 954q14 60 14 88q0 37 -20.5 57t-69.5 27v61h1071v-342h-65q-17 109 -86.5 154t-222.5 45h-295l-123 -492h147q127 0 175 34t61 118h65v-442h-65
q-12 85 -59.5 116t-178.5 31h-180l-125 -502h371q147 0 214.5 52.5t94.5 199.5h66z" />
    <glyph glyph-name="ecaron" unicode="&#x11b;" horiz-adv-x="1007" 
d="M1065 1438l-373 -324h-110l-191 324h117l166 -138l250 138h141zM952 684q0 -30 -10 -88l-12 -59h-600q-2 -10 -2 -45q0 -147 75.5 -228.5t204.5 -81.5q143 0 256 84l56 -65q-173 -230 -433 -230q-180 0 -299.5 124.5t-119.5 320.5q-3 148 66.5 283.5t194 218.5t269.5 79
q163 0 258.5 -85.5t95.5 -227.5zM350 649h350q9 35 9 76q0 71 -32.5 111.5t-94.5 40.5q-79 0 -139.5 -62.5t-92.5 -165.5z" />
    <glyph glyph-name="Gcircumflex" unicode="&#x11c;" horiz-adv-x="1511" 
d="M1255 1522l-165 137l-250 -137h-142l373 323h111l190 -323h-117zM459 606q0 -231 102 -361t297 -130q34 0 92 10l92 371q15 62 15 84q0 41 -24.5 61t-86.5 31v61h567v-61q-89 -22 -115.5 -50t-51.5 -128l-101 -400q-221 -123 -446 -123q-141 -2 -266.5 49t-214 139
t-139 210t-48.5 258q-3 167 68.5 320t194.5 265t297 177.5t366 62.5q276 0 477 -109v-331h-57q-55 140 -163 216.5t-265 76.5q-129 3 -242 -56t-188.5 -157t-118 -225.5t-41.5 -260.5z" />
    <glyph glyph-name="gcircumflex" unicode="&#x11d;" horiz-adv-x="1060" 
d="M813 1114l-166 137l-250 -137h-141l373 324h110l191 -324h-117zM1120 850h-233v-10q57 -60 57 -142q0 -160 -127 -263t-319 -103q-88 0 -156 24q-109 -37 -109 -96q0 -30 22.5 -45t70.5 -20l288 -33q149 -18 229.5 -78t80.5 -162q0 -108 -82 -192t-210 -126t-276 -42
q-208 0 -328 65t-120 180q0 64 46.5 118.5t135.5 90.5v11q-72 54 -72 139q0 75 54.5 137t158.5 103v12q-104 87 -104 215q0 162 129.5 263t321.5 101q81 0 163 -26l367 90h12v-211zM707 725q0 74 -34.5 117t-94.5 43q-88 0 -148 -84q-55 -82 -55 -195q0 -75 35 -118.5
t96 -43.5q89 0 145 86t56 195zM227 -25q-2 0 -22 5q-96 -62 -96 -148q0 -70 68 -110.5t188 -40.5q136 0 224.5 42t88.5 117q0 85 -133 99z" />
    <glyph glyph-name="Gbreve" unicode="&#x11e;" horiz-adv-x="1511" 
d="M821 1749q0 39 13 96h106q-4 -20 -4 -43q0 -55 35 -85.5t100 -30.5q153 0 221 159h115q-37 -156 -127 -239.5t-223 -83.5q-108 0 -172 60t-64 167zM459 606q0 -231 102 -361t297 -130q34 0 92 10l92 371q15 62 15 84q0 41 -24.5 61t-86.5 31v61h567v-61
q-89 -22 -115.5 -50t-51.5 -128l-101 -400q-221 -123 -446 -123q-141 -2 -266.5 49t-214 139t-139 210t-48.5 258q-3 167 68.5 320t194.5 265t297 177.5t366 62.5q276 0 477 -109v-331h-57q-55 140 -163 216.5t-265 76.5q-129 3 -242 -56t-188.5 -157t-118 -225.5
t-41.5 -260.5z" />
    <glyph glyph-name="gbreve" unicode="&#x11f;" horiz-adv-x="1060" 
d="M408 1341q0 45 12 97h106q-4 -20 -4 -43q0 -55 35 -86t100 -31q154 0 222 160h114q-37 -156 -127 -240t-223 -84q-107 0 -171 60t-64 167zM1120 850h-233v-10q57 -60 57 -142q0 -160 -127 -263t-319 -103q-88 0 -156 24q-109 -37 -109 -96q0 -30 22.5 -45t70.5 -20
l288 -33q149 -18 229.5 -78t80.5 -162q0 -108 -82 -192t-210 -126t-276 -42q-208 0 -328 65t-120 180q0 64 46.5 118.5t135.5 90.5v11q-72 54 -72 139q0 75 54.5 137t158.5 103v12q-104 87 -104 215q0 162 129.5 263t321.5 101q81 0 163 -26l367 90h12v-211zM707 725
q0 74 -34.5 117t-94.5 43q-88 0 -148 -84q-55 -82 -55 -195q0 -75 35 -118.5t96 -43.5q89 0 145 86t56 195zM227 -25q-2 0 -22 5q-96 -62 -96 -148q0 -70 68 -110.5t188 -40.5q136 0 224.5 42t88.5 117q0 85 -133 99z" />
    <glyph glyph-name="Gdotaccent" unicode="&#x120;" horiz-adv-x="1511" 
d="M918 1679q0 78 53 130.5t131 52.5q66 0 107.5 -41t41.5 -107q0 -78 -54 -130t-132 -52q-63 0 -105 42t-42 105zM459 606q0 -231 102 -361t297 -130q34 0 92 10l92 371q15 62 15 84q0 41 -24.5 61t-86.5 31v61h567v-61q-89 -22 -115.5 -50t-51.5 -128l-101 -400
q-221 -123 -446 -123q-141 -2 -266.5 49t-214 139t-139 210t-48.5 258q-3 167 68.5 320t194.5 265t297 177.5t366 62.5q276 0 477 -109v-331h-57q-55 140 -163 216.5t-265 76.5q-129 3 -242 -56t-188.5 -157t-118 -225.5t-41.5 -260.5z" />
    <glyph glyph-name="gdotaccent" unicode="&#x121;" horiz-adv-x="1060" 
d="M514 1268q0 78 53 130t131 52q66 0 108 -40.5t42 -106.5q0 -78 -54 -130.5t-132 -52.5q-63 0 -105.5 42.5t-42.5 105.5zM1120 850h-233v-10q57 -60 57 -142q0 -160 -127 -263t-319 -103q-88 0 -156 24q-109 -37 -109 -96q0 -30 22.5 -45t70.5 -20l288 -33
q149 -18 229.5 -78t80.5 -162q0 -108 -82 -192t-210 -126t-276 -42q-208 0 -328 65t-120 180q0 64 46.5 118.5t135.5 90.5v11q-72 54 -72 139q0 75 54.5 137t158.5 103v12q-104 87 -104 215q0 162 129.5 263t321.5 101q81 0 163 -26l367 90h12v-211zM707 725q0 74 -34.5 117
t-94.5 43q-88 0 -148 -84q-55 -82 -55 -195q0 -75 35 -118.5t96 -43.5q89 0 145 86t56 195zM227 -25q-2 0 -22 5q-96 -62 -96 -148q0 -70 68 -110.5t188 -40.5q136 0 224.5 42t88.5 117q0 85 -133 99z" />
    <glyph glyph-name="uni0122" unicode="&#x122;" horiz-adv-x="1511" 
d="M459 606q0 -231 102 -361t297 -130q34 0 92 10l92 371q15 62 15 84q0 41 -24.5 61t-86.5 31v61h567v-61q-89 -22 -115.5 -50t-51.5 -128l-101 -400q-221 -123 -446 -123q-141 -2 -266.5 49t-214 139t-139 210t-48.5 258q-3 167 68.5 320t194.5 265t297 177.5t366 62.5
q276 0 477 -109v-331h-57q-55 140 -163 216.5t-265 76.5q-129 3 -242 -56t-188.5 -157t-118 -225.5t-41.5 -260.5zM889 -213q0 -66 -76 -164l-133 -168h-109l168 207q-49 4 -80.5 38t-31.5 81q0 58 37 96.5t96 38.5q56 0 92.5 -37t36.5 -92z" />
    <glyph glyph-name="uni0123" unicode="&#x123;" horiz-adv-x="1060" 
d="M508 1212q0 66 76 164l133 168h108l-168 -207q50 -5 81.5 -38t31.5 -80q0 -58 -37 -97t-96 -39q-55 0 -92 36.5t-37 92.5zM1120 850h-233v-10q57 -60 57 -142q0 -160 -127 -263t-319 -103q-88 0 -156 24q-109 -37 -109 -96q0 -30 22.5 -45t70.5 -20l288 -33
q149 -18 229.5 -78t80.5 -162q0 -108 -82 -192t-210 -126t-276 -42q-208 0 -328 65t-120 180q0 64 46.5 118.5t135.5 90.5v11q-72 54 -72 139q0 75 54.5 137t158.5 103v12q-104 87 -104 215q0 162 129.5 263t321.5 101q81 0 163 -26l367 90h12v-211zM707 725q0 74 -34.5 117
t-94.5 43q-88 0 -148 -84q-55 -82 -55 -195q0 -75 35 -118.5t96 -43.5q89 0 145 86t56 195zM227 -25q-2 0 -22 5q-96 -62 -96 -148q0 -70 68 -110.5t188 -40.5q136 0 224.5 42t88.5 117q0 85 -133 99z" />
    <glyph glyph-name="Hcircumflex" unicode="&#x124;" horiz-adv-x="1687" 
d="M1309 1522l-166 137l-250 -137h-141l372 323h111l190 -323h-116zM1274 1423h549v-61q-89 -12 -120 -44.5t-56 -131.5l-236 -948q-16 -69 -16 -97q0 -38 19 -55t69 -25v-61h-549v61q87 12 118 44t56 133l102 411h-653l-102 -411q-17 -73 -17 -97q0 -38 19 -55t69 -25v-61
h-549v61q87 12 118.5 44t56.5 133l235 948q16 75 16 100q0 36 -18.5 52.5t-67.5 23.5v61h549v-61q-89 -12 -120 -44.5t-56 -131.5l-98 -393h653l98 393q17 80 17 100q0 36 -18.5 52.5t-67.5 23.5v61z" />
    <glyph glyph-name="hcircumflex" unicode="&#x125;" horiz-adv-x="1159" 
d="M674 1522h-142l373 323h111l190 -323h-116l-166 137zM336 1206q0 2 6 29.5t6 38.5q0 29 -17.5 44t-58.5 23v62l387 61h13l-154 -616h17q64 75 130 112t148 37q114 0 183 -74.5t69 -205.5q0 -67 -18 -146l-93 -368q-16 -75 -16 -92q0 -24 12 -34t45 -16v-61h-440v61
q65 9 84 29.5t43 110.5l109 436q8 27 8 61q0 56 -29 88.5t-74 32.5q-119 0 -221 -145l-119 -479q-14 -60 -14 -82q0 -25 12 -35.5t45 -16.5v-61h-440v61q36 5 50 9t30.5 18t25 37.5t19.5 69.5z" />
    <glyph glyph-name="Hbar" unicode="&#x126;" horiz-adv-x="1730" 
d="M1845 1362q-89 -12 -120 -44.5t-56 -131.5l-6 -27h164v-133h-197l-196 -788q-17 -73 -17 -97q0 -38 19 -55t69 -25v-61h-549v61q87 12 118 44t56 133l103 411h-653l-103 -411q-16 -69 -16 -97q0 -38 19 -55t69 -25v-61h-549v61q87 12 118 44t56 133l197 788h-164v133h196
l7 27q16 75 16 100q0 36 -18.5 52.5t-67.5 23.5v61h549v-61q-89 -12 -120 -44.5t-56 -131.5l-6 -27h653l6 27q16 75 16 100q0 36 -18.5 52.5t-67.5 23.5v61h549v-61zM614 793h654l59 233h-653z" />
    <glyph glyph-name="hbar" unicode="&#x127;" horiz-adv-x="1159" 
d="M954 203q-16 -75 -16 -92q0 -24 12 -34t45 -16v-61h-440v61q65 9 84 29.5t43 110.5l109 436q8 27 8 61q0 56 -29 88.5t-74 32.5q-119 0 -221 -145l-119 -479q-14 -60 -14 -82q0 -25 12 -35.5t45 -16.5v-61h-440v61q36 5 50 9t30.5 18t25 37.5t19.5 69.5l225 903h-143v106
h170v2q0 2 6 29.5t6 38.5q0 29 -17.5 44t-58.5 23v62l387 61h13l-66 -260h262v-106h-288l-62 -250h17q64 75 130 112t148 37q114 0 183 -74.5t69 -205.5q0 -67 -18 -146z" />
    <glyph glyph-name="Itilde" unicode="&#x128;" horiz-adv-x="729" 
d="M639 1593l-43 33q-42 33 -80 33q-80 0 -110 -111h-113q23 134 86 207.5t156 73.5q70 0 139 -55l45 -33q44 -33 82 -33q74 0 108 113h113q-23 -136 -86.5 -209.5t-159.5 -73.5q-68 0 -137 55zM-23 61q87 12 118.5 44t56.5 133l235 948q16 75 16 100q0 36 -18.5 52.5
t-67.5 23.5v61h549v-61q-89 -12 -120 -44.5t-56 -131.5l-235 -948q-17 -73 -17 -97q0 -38 19 -55t69 -25v-61h-549v61z" />
    <glyph glyph-name="itilde" unicode="&#x129;" horiz-adv-x="589" 
d="M461 1178l-43 32q-42 33 -80 33q-81 0 -111 -110h-112q23 134 85.5 207t155.5 73q71 0 140 -55l45 -33q44 -33 82 -33q74 0 108 113h113q-23 -136 -86.5 -209.5t-159.5 -73.5q-67 0 -137 56zM362 174q-10 -52 -10 -61q0 -24 13.5 -35.5t44.5 -16.5v-61h-441v61
q58 6 81 28t40 89l139 559q9 41 9 51q0 30 -17.5 46t-58.5 22v62l387 61h12z" />
    <glyph glyph-name="Imacron" unicode="&#x12a;" horiz-adv-x="729" 
d="M985 1608h-631v125h631v-125zM-23 61q87 12 118.5 44t56.5 133l235 948q16 75 16 100q0 36 -18.5 52.5t-67.5 23.5v61h549v-61q-89 -12 -120 -44.5t-56 -131.5l-235 -948q-17 -73 -17 -97q0 -38 19 -55t69 -25v-61h-549v61z" />
    <glyph glyph-name="imacron" unicode="&#x12b;" horiz-adv-x="589" 
d="M805 1196h-631v125h631v-125zM362 174q-10 -52 -10 -61q0 -24 13.5 -35.5t44.5 -16.5v-61h-441v61q58 6 81 28t40 89l139 559q9 41 9 51q0 30 -17.5 46t-58.5 22v62l387 61h12z" />
    <glyph glyph-name="Ibreve" unicode="&#x12c;" horiz-adv-x="729" 
d="M401 1749q0 39 13 96h106q-4 -20 -4 -43q0 -55 35 -85.5t100 -30.5q154 0 221 159h115q-37 -156 -127 -239.5t-223 -83.5q-108 0 -172 60t-64 167zM-23 61q87 12 118.5 44t56.5 133l235 948q16 75 16 100q0 36 -18.5 52.5t-67.5 23.5v61h549v-61q-89 -12 -120 -44.5
t-56 -131.5l-235 -948q-17 -73 -17 -97q0 -38 19 -55t69 -25v-61h-549v61z" />
    <glyph glyph-name="ibreve" unicode="&#x12d;" horiz-adv-x="589" 
d="M227 1341q0 40 13 97h106q-4 -20 -4 -43q0 -55 35 -86t100 -31q153 0 221 160h115q-37 -156 -127 -240t-223 -84q-108 0 -172 60t-64 167zM362 174q-10 -52 -10 -61q0 -24 13.5 -35.5t44.5 -16.5v-61h-441v61q58 6 81 28t40 89l139 559q9 41 9 51q0 30 -17.5 46t-58.5 22
v62l387 61h12z" />
    <glyph glyph-name="Iogonek" unicode="&#x12e;" horiz-adv-x="729" 
d="M317 1423h549v-61q-89 -12 -120 -44.5t-56 -131.5l-235 -948q-17 -73 -17 -97q0 -38 19 -55t69 -25v-61h-141q-248 -99 -248 -215q0 -38 27.5 -61t71.5 -23q52 0 100 31l39 -60q-84 -96 -213 -96q-81 0 -133 51.5t-52 126.5q0 163 238 246h-238v61q87 12 118.5 44
t56.5 133l235 948q16 75 16 100q0 36 -18.5 52.5t-67.5 23.5v61z" />
    <glyph glyph-name="iogonek" unicode="&#x12f;" horiz-adv-x="589" 
d="M668 1303q0 -78 -54.5 -130.5t-132.5 -52.5q-63 0 -105 42.5t-42 105.5q0 78 53 130t131 52q66 0 108 -40.5t42 -106.5zM561 979l-199 -805q-10 -52 -10 -61q0 -24 13.5 -35.5t44.5 -16.5v-61h-105q-248 -99 -248 -215q0 -38 27.5 -61t71.5 -23q52 0 100 31l39 -60
q-84 -96 -213 -96q-80 0 -132 51.5t-52 126.5q0 164 237 246h-166v61q58 6 81 28t40 89l139 559q9 41 9 51q0 30 -17.5 46t-58.5 22v62l387 61h12z" />
    <glyph glyph-name="Idotaccent" unicode="&#x130;" horiz-adv-x="729" 
d="M498 1679q0 78 53 130.5t131 52.5q66 0 107.5 -41t41.5 -107q0 -78 -54 -130t-132 -52q-63 0 -105 42t-42 105zM-23 61q87 12 118.5 44t56.5 133l235 948q16 75 16 100q0 36 -18.5 52.5t-67.5 23.5v61h549v-61q-89 -12 -120 -44.5t-56 -131.5l-235 -948q-17 -73 -17 -97
q0 -38 19 -55t69 -25v-61h-549v61z" />
    <glyph glyph-name="dotlessi" unicode="&#x131;" horiz-adv-x="589" 
d="M362 174q-10 -52 -10 -61q0 -24 13.5 -35.5t44.5 -16.5v-61h-441v61q58 6 81 28t40 89l139 559q9 41 9 51q0 30 -17.5 46t-58.5 22v62l387 61h12z" />
    <glyph glyph-name="IJ" unicode="&#x132;" horiz-adv-x="1761" 
d="M-23 61q87 12 118.5 44t56.5 133l235 948q16 75 16 100q0 36 -18.5 52.5t-67.5 23.5v61h549v-61q-89 -12 -120 -44.5t-56 -131.5l-235 -948q-17 -73 -17 -97q0 -38 19 -55t69 -25v-61h-549v61zM643 98l57 99q112 -62 222 -62q127 0 208.5 66.5t118.5 218.5l191 766
q16 75 16 98q0 36 -19 53t-67 25v61h549v-61q-84 -7 -118 -42.5t-58 -133.5l-189 -760q-116 -455 -548 -455q-212 0 -363 127z" />
    <glyph glyph-name="ij" unicode="&#x133;" horiz-adv-x="1153" 
d="M334 1268q0 78 53 130t131 52q66 0 108 -40.5t42 -106.5q0 -78 -54.5 -130.5t-132.5 -52.5q-63 0 -105 42.5t-42 105.5zM362 174q-10 -52 -10 -61q0 -24 13.5 -35.5t44.5 -16.5v-61h-441v61q58 6 81 28t40 89l139 559q9 41 9 51q0 30 -17.5 46t-58.5 22v62l387 61h12z
M913 1268q0 78 53.5 130t131.5 52q66 0 107.5 -40.5t41.5 -106.5q0 -78 -54 -130.5t-132 -52.5q-63 0 -105.5 42.5t-42.5 105.5zM215 -369l41 95q56 -29 123 -29q170 0 217 182l211 846q10 45 10 61q0 32 -17.5 48t-58.5 22v62l387 61h13l-264 -1067q-46 -185 -151 -267.5
t-269 -82.5q-65 0 -131 19t-111 50z" />
    <glyph glyph-name="Jcircumflex" unicode="&#x134;" horiz-adv-x="1032" 
d="M739 1522h-141l373 323h110l191 -323h-117l-166 137zM-86 98l57 99q112 -62 222 -62q127 0 208.5 66.5t118.5 218.5l191 766q16 75 16 98q0 36 -19 53t-67 25v61h549v-61q-84 -7 -118 -42.5t-58 -133.5l-189 -760q-116 -455 -549 -455q-211 0 -362 127z" />
    <glyph glyph-name="jcircumflex" unicode="&#x135;" horiz-adv-x="563" 
d="M229 1114h-141l373 324h110l191 -324h-117l-166 137zM-375 -369l41 95q56 -29 123 -29q170 0 217 182l211 846q10 45 10 61q0 32 -17 48t-58 22v62l387 61h12l-264 -1067q-46 -185 -151 -267.5t-269 -82.5q-65 0 -131 19t-111 50z" />
    <glyph glyph-name="uni0136" unicode="&#x136;" horiz-adv-x="1484" 
d="M1673 1362q-119 -24 -192 -70q-68 -40 -172 -127l-408 -350l518 -807v-8h-356l-383 625l-170 -148l-59 -239q-17 -73 -17 -97q0 -38 19 -55t69 -25v-61h-549v61q87 12 118 44t56 133l236 948q16 75 16 100q0 36 -18.5 52.5t-67.5 23.5v61h549v-61q-89 -12 -120 -44.5
t-56 -131.5l-113 -451h17l526 457q109 89 109 127q0 28 -51 43v61h499v-61zM831 -213q0 -68 -75 -164l-133 -168h-109l168 207q-49 4 -81 38t-32 81q0 58 37 96.5t96 38.5q56 0 92.5 -37t36.5 -92z" />
    <glyph glyph-name="uni0137" unicode="&#x137;" horiz-adv-x="1150" 
d="M1227 907q-78 -11 -139 -41t-140 -90l-231 -180l340 -592v-4h-309l-240 434l-119 -92l-41 -168q-10 -52 -10 -61q0 -24 13 -35.5t44 -16.5v-61h-440v61q56 6 79 28t42 89l262 1045q8 36 8 51q0 30 -17.5 45.5t-58.5 21.5v62l387 61h13l-230 -917h17l350 276q41 35 41 56
q0 22 -37 28v62h416v-62zM614 -213q0 -68 -75 -164l-133 -168h-109l168 207q-49 4 -81 38t-32 81q0 58 37 96.5t96 38.5q55 0 92 -37t37 -92z" />
    <glyph glyph-name="Lacute" unicode="&#x139;" horiz-adv-x="1200" 
d="M625 1522h-119l182 323h305v-10zM-25 61q95 18 123 49.5t58 143.5l233 932q17 70 17 94q0 36 -21 55.5t-70 26.5v61h553v-61q-86 -9 -117.5 -43.5t-56.5 -130.5l-260 -1045h293q142 0 201 58t86 233h65v-434h-1104v61z" />
    <glyph glyph-name="lacute" unicode="&#x13a;" horiz-adv-x="577" 
d="M553 1522h-119l182 323h306v-10zM-45 61q56 6 79 28t42 89l262 1045q8 36 8 51q0 30 -17.5 45.5t-58.5 21.5v62l387 61h13l-322 -1290q-10 -52 -10 -61q0 -24 13 -35.5t44 -16.5v-61h-440v61z" />
    <glyph glyph-name="uni013B" unicode="&#x13b;" horiz-adv-x="1200" 
d="M1079 434v-434h-1104v61q95 18 123 49.5t58 143.5l233 932q17 70 17 94q0 36 -21 55.5t-70 26.5v61h553v-61q-86 -9 -117.5 -43.5t-56.5 -130.5l-260 -1045h293q142 0 201 58t86 233h65zM666 -213q0 -66 -76 -164l-133 -168h-109l168 207q-49 4 -81 38t-32 81
q0 58 37.5 96.5t96.5 38.5q55 0 92 -37t37 -92z" />
    <glyph glyph-name="uni013C" unicode="&#x13c;" horiz-adv-x="577" 
d="M348 174q-10 -52 -10 -61q0 -24 13 -35.5t44 -16.5v-61h-440v61q56 6 79 28t42 89l262 1045q8 36 8 51q0 30 -17.5 45.5t-58.5 21.5v62l387 61h13zM256 -213q0 -66 -76 -164l-133 -168h-108l167 207q-49 4 -80.5 38t-31.5 81q0 58 37 96.5t96 38.5q55 0 92 -37t37 -92z
" />
    <glyph glyph-name="Lcaron" unicode="&#x13d;" horiz-adv-x="1200" 
d="M1229 1323q0 -59 -72 -156l-127 -159h-102l159 196q-47 4 -76.5 37t-29.5 76q0 57 34 93t91 36q53 0 88 -35.5t35 -87.5zM727 143q142 0 201 58t86 233h65v-434h-1104v61q95 18 123 49.5t58 143.5l233 932q17 70 17 94q0 36 -21 55.5t-70 26.5v61h553v-61
q-86 -9 -117.5 -43.5t-56.5 -130.5l-260 -1045h293z" />
    <glyph glyph-name="lcaron" unicode="&#x13e;" horiz-adv-x="577" 
d="M979 1354q0 -59 -72 -156l-127 -160h-102l160 197q-47 4 -77 37t-30 76q0 57 34 93t91 36q53 0 88 -35.5t35 -87.5zM670 1464l-322 -1290q-10 -52 -10 -61q0 -24 13 -35.5t44 -16.5v-61h-440v61q56 6 79 28t42 89l262 1045q8 36 8 51q0 30 -17.5 45.5t-58.5 21.5v62
l387 61h13z" />
    <glyph glyph-name="Ldot" unicode="&#x13f;" horiz-adv-x="1200" 
d="M-25 61q95 18 123 49.5t58 143.5l233 932q17 70 17 94q0 36 -21 55.5t-70 26.5v61h553v-61q-86 -9 -117.5 -43.5t-56.5 -130.5l-260 -1045h293q142 0 201 58t86 233h65v-434h-1104v61zM667 598q0 81 53 134.5t132 53.5q71 0 112 -43t41 -110q0 -79 -53 -132t-133 -53
q-68 0 -110 43t-42 107z" />
    <glyph glyph-name="ldot" unicode="&#x140;" horiz-adv-x="790" 
d="M-45 61q56 6 79 28t42 89l262 1045q8 36 8 51q0 30 -17.5 45.5t-58.5 21.5v62l387 61h13l-322 -1290q-10 -52 -10 -61q0 -24 13 -35.5t44 -16.5v-61h-440v61zM586 731q0 81 53 135t131 54q71 0 112.5 -43.5t41.5 -110.5q0 -79 -53.5 -131.5t-133.5 -52.5
q-68 0 -109.5 42.5t-41.5 106.5z" />
    <glyph glyph-name="Lslash" unicode="&#x141;" horiz-adv-x="1245" 
d="M1126 434v-434h-1103v61q51 10 78 19.5t47 34t29 51t26 88.5l47 188l-189 -94v141l230 113l145 584q17 70 17 94q0 36 -21 55.5t-70 26.5v61h553v-61q-86 -9 -117.5 -43.5t-56.5 -130.5l-102 -412l377 187v-142l-418 -207l-117 -471h293q142 0 201 58t86 233h65z" />
    <glyph glyph-name="lslash" unicode="&#x142;" horiz-adv-x="712" 
d="M563 743l-141 -569q-10 -52 -10 -61q0 -24 13 -35.5t44 -16.5v-61h-440v61q56 6 79 28t42 89l102 410l-182 -90v133l221 108l121 484q8 36 8 51q0 30 -17.5 45.5t-58.5 21.5v62l387 61h12l-141 -569l182 90v-133z" />
    <glyph glyph-name="Nacute" unicode="&#x143;" horiz-adv-x="1546" 
d="M1014 1522h-119l182 323h305v-10zM-23 61q79 6 116 46t61 137l260 1036l-68 131v12h393l420 -970h17l184 731q14 49 14 94q0 38 -20 58t-64 26v61h406v-61q-79 -8 -115.5 -44.5t-60.5 -137.5l-297 -1180h-189l-485 1114h-17l-219 -872q-16 -66 -16 -97q0 -72 86 -84v-61
h-406v61z" />
    <glyph glyph-name="nacute" unicode="&#x144;" horiz-adv-x="1169" 
d="M754 1114h-119l182 324h305v-11zM223 721q0 3 6.5 29.5t6.5 37.5q0 29 -17.5 45t-58.5 23v62l387 61h12l-33 -131h17q65 76 131 112.5t149 36.5q112 0 181 -74.5t69 -205.5q0 -67 -18 -146l-92 -368q-17 -80 -17 -92q0 -24 12 -34t46 -16v-61h-441v61q65 9 84 29.5
t43 110.5l109 436q8 27 8 61q0 56 -28.5 88.5t-76.5 32.5q-59 0 -115.5 -39.5t-103.5 -105.5l-118 -479q-15 -65 -15 -82q0 -25 12 -35.5t46 -16.5v-61h-441v61q36 5 50 9t30.5 18t25 37.5t19.5 69.5z" />
    <glyph glyph-name="uni0145" unicode="&#x145;" horiz-adv-x="1546" 
d="M1290 1423h406v-61q-79 -8 -115.5 -44.5t-60.5 -137.5l-297 -1180h-189l-485 1114h-17l-219 -872q-16 -66 -16 -97q0 -72 86 -84v-61h-406v61q79 6 116 46t61 137l260 1036l-68 131v12h393l420 -970h17l184 731q14 49 14 94q0 38 -20 58t-64 26v61zM805 -213
q0 -66 -76 -164l-133 -168h-109l168 207q-49 4 -80.5 38t-31.5 81q0 58 37 96.5t96 38.5q56 0 92.5 -37t36.5 -92z" />
    <glyph glyph-name="uni0146" unicode="&#x146;" horiz-adv-x="1169" 
d="M963 203q-17 -80 -17 -92q0 -24 12 -34t46 -16v-61h-441v61q65 9 84 29.5t43 110.5l109 436q8 27 8 61q0 56 -28.5 88.5t-76.5 32.5q-59 0 -115.5 -39.5t-103.5 -105.5l-118 -479q-15 -65 -15 -82q0 -25 12 -35.5t46 -16.5v-61h-441v61q36 5 50 9t30.5 18t25 37.5
t19.5 69.5l131 526q0 3 6.5 29.5t6.5 37.5q0 29 -17.5 45t-58.5 23v62l387 61h12l-33 -131h17q65 76 131 112.5t149 36.5q112 0 181 -74.5t69 -205.5q0 -67 -18 -146zM588 -213q0 -66 -76 -164l-133 -168h-109l168 207q-49 4 -80.5 38t-31.5 81q0 58 37 96.5t96 38.5
q55 0 92 -37t37 -92z" />
    <glyph glyph-name="Ncaron" unicode="&#x147;" horiz-adv-x="1546" 
d="M1292 1845h142l-373 -323h-111l-190 323h117l165 -137zM-23 61q79 6 116 46t61 137l260 1036l-68 131v12h393l420 -970h17l184 731q14 49 14 94q0 38 -20 58t-64 26v61h406v-61q-79 -8 -115.5 -44.5t-60.5 -137.5l-297 -1180h-189l-485 1114h-17l-219 -872
q-16 -66 -16 -97q0 -72 86 -84v-61h-406v61z" />
    <glyph glyph-name="ncaron" unicode="&#x148;" horiz-adv-x="1169" 
d="M1026 1438h141l-372 -324h-111l-190 324h116l166 -138zM223 721q0 3 6.5 29.5t6.5 37.5q0 29 -17.5 45t-58.5 23v62l387 61h12l-33 -131h17q65 76 131 112.5t149 36.5q112 0 181 -74.5t69 -205.5q0 -67 -18 -146l-92 -368q-17 -80 -17 -92q0 -24 12 -34t46 -16v-61h-441
v61q65 9 84 29.5t43 110.5l109 436q8 27 8 61q0 56 -28.5 88.5t-76.5 32.5q-59 0 -115.5 -39.5t-103.5 -105.5l-118 -479q-15 -65 -15 -82q0 -25 12 -35.5t46 -16.5v-61h-441v61q36 5 50 9t30.5 18t25 37.5t19.5 69.5z" />
    <glyph glyph-name="Eng" unicode="&#x14a;" horiz-adv-x="1546" 
d="M512 -369l41 95q63 -29 125 -29q166 0 213 176l65 260l-409 971h-17l-217 -862q-16 -66 -16 -97q0 -38 20 -58t66 -26v-61h-406v61q79 7 115 45t60 132l262 1042l-68 131v12h389l422 -981h17l188 742q14 60 14 90q0 42 -20.5 62t-65.5 26v61h406v-61q-77 -7 -114 -45
t-60 -133l-320 -1278q-46 -184 -170 -264q-121 -80 -270 -80q-144 0 -250 69z" />
    <glyph glyph-name="eng" unicode="&#x14b;" horiz-adv-x="1155" 
d="M227 -369l41 95q56 -29 123 -29q170 0 217 182l191 758q8 27 8 61q0 56 -28.5 88.5t-76.5 32.5q-59 0 -115.5 -39.5t-103.5 -105.5l-118 -479q-15 -65 -15 -82q0 -25 12 -35.5t46 -16.5v-61h-441v61q36 5 50 9t30.5 18t25 37.5t19.5 69.5l131 526q0 3 6.5 29.5t6.5 37.5
q0 29 -17.5 45t-58.5 23v62l387 61h12l-33 -131h17q65 76 130.5 112.5t147.5 36.5q115 0 184.5 -73.5t69.5 -204.5q0 -75 -20 -148l-166 -659q-46 -185 -151 -267.5t-269 -82.5q-65 0 -131 19t-111 50z" />
    <glyph glyph-name="Omacron" unicode="&#x14c;" horiz-adv-x="1648" 
d="M1401 1608h-631v125h631v-125zM131 590q-3 172 63 332t179 277.5t271.5 186.5t332.5 66q186 2 338 -81.5t236 -226.5t81 -313q2 -139 -39 -270.5t-119.5 -238.5t-182.5 -187t-235 -123t-270 -41q-139 -2 -262.5 46t-210 131.5t-135.5 198.5t-47 243zM1305 885
q0 191 -88 302t-246 111q-110 4 -209 -66t-164.5 -182.5t-103 -248.5t-35.5 -264q0 -189 87 -299.5t245 -110.5q110 -4 209.5 65.5t165.5 181.5t103.5 247.5t35.5 263.5z" />
    <glyph glyph-name="omacron" unicode="&#x14d;" horiz-adv-x="1161" 
d="M1053 1196h-631v125h631v-125zM66 399q-3 163 74 301.5t213 219t298 77.5q200 0 323.5 -119t123.5 -309q2 -122 -43 -233.5t-123.5 -192t-188.5 -127.5t-231 -45q-197 0 -321.5 120t-124.5 308zM811 623q0 112 -42 171.5t-122 59.5q-86 4 -156.5 -78.5t-105.5 -199.5
t-33 -230q0 -112 42 -171.5t122 -59.5q64 -3 121.5 45t94.5 124t58.5 166t20.5 173z" />
    <glyph glyph-name="Obreve" unicode="&#x14e;" horiz-adv-x="1648" 
d="M817 1749q0 43 12 96h107q-4 -20 -4 -43q0 -55 35 -85.5t100 -30.5q153 0 221 159h115q-37 -156 -127 -239.5t-223 -83.5q-108 0 -172 60t-64 167zM131 590q-3 172 63 332t179 277.5t271.5 186.5t332.5 66q186 2 338 -81.5t236 -226.5t81 -313q2 -139 -39 -270.5
t-119.5 -238.5t-182.5 -187t-235 -123t-270 -41q-139 -2 -262.5 46t-210 131.5t-135.5 198.5t-47 243zM1305 885q0 191 -88 302t-246 111q-110 4 -209 -66t-164.5 -182.5t-103 -248.5t-35.5 -264q0 -189 87 -299.5t245 -110.5q110 -4 209.5 65.5t165.5 181.5t103.5 247.5
t35.5 263.5z" />
    <glyph glyph-name="obreve" unicode="&#x14f;" horiz-adv-x="1161" 
d="M475 1341q0 45 12 97h107q-4 -20 -4 -43q0 -55 35 -86t100 -31q153 0 221 160h115q-37 -156 -127 -240t-223 -84q-108 0 -172 60t-64 167zM66 399q-3 163 74 301.5t213 219t298 77.5q200 0 323.5 -119t123.5 -309q2 -122 -43 -233.5t-123.5 -192t-188.5 -127.5t-231 -45
q-197 0 -321.5 120t-124.5 308zM811 623q0 112 -42 171.5t-122 59.5q-86 4 -156.5 -78.5t-105.5 -199.5t-33 -230q0 -112 42 -171.5t122 -59.5q64 -3 121.5 45t94.5 124t58.5 166t20.5 173z" />
    <glyph glyph-name="Ohungarumlaut" unicode="&#x150;" horiz-adv-x="1648" 
d="M868 1522h-102l164 323h266v-10zM1227 1522h-105l168 323h264v-10zM131 590q-3 172 63 332t179 277.5t271.5 186.5t332.5 66q186 2 338 -81.5t236 -226.5t81 -313q2 -139 -39 -270.5t-119.5 -238.5t-182.5 -187t-235 -123t-270 -41q-139 -2 -262.5 46t-210 131.5
t-135.5 198.5t-47 243zM1305 885q0 191 -88 302t-246 111q-110 4 -209 -66t-164.5 -182.5t-103 -248.5t-35.5 -264q0 -189 87 -299.5t245 -110.5q110 -4 209.5 65.5t165.5 181.5t103.5 247.5t35.5 263.5z" />
    <glyph glyph-name="ohungarumlaut" unicode="&#x151;" horiz-adv-x="1161" 
d="M541 1114h-103l164 324h266v-11zM899 1114h-104l168 324h264v-11zM66 399q-3 163 74 301.5t213 219t298 77.5q200 0 323.5 -119t123.5 -309q2 -122 -43 -233.5t-123.5 -192t-188.5 -127.5t-231 -45q-197 0 -321.5 120t-124.5 308zM811 623q0 112 -42 171.5t-122 59.5
q-86 4 -156.5 -78.5t-105.5 -199.5t-33 -230q0 -112 42 -171.5t122 -59.5q64 -3 121.5 45t94.5 124t58.5 166t20.5 173z" />
    <glyph glyph-name="OE" unicode="&#x152;" horiz-adv-x="1984" 
d="M827 0q-310 0 -503 168t-193 442q-3 163 66.5 314t189 261.5t289 175.5t356.5 62h1006v-342h-66q-18 107 -87.5 153t-225.5 46h-225l-123 -492h110q98 0 149 36.5t58 115.5h66v-442h-66q-7 77 -57.5 112t-149.5 35h-145l-125 -502h326q128 0 195.5 58.5t92.5 193.5h66
v-395h-1004zM846 143l284 1137h-79q-130 4 -244 -56t-189 -158t-118 -220.5t-41 -245.5q0 -214 95.5 -335.5t260.5 -121.5h31z" />
    <glyph glyph-name="oe" unicode="&#x153;" horiz-adv-x="1773" 
d="M1718 686q0 -46 -8 -82l-14 -67h-600q-2 -10 -2 -43q0 -150 75 -231t205 -81q146 0 256 84l56 -65q-81 -114 -192 -172t-241 -58q-98 0 -184 41t-143 113h-17q-163 -154 -397 -154q-197 0 -321.5 120t-124.5 308q-3 163 74 301.5t213 219t298 77.5q222 0 346 -149h17
q143 149 352 149q162 0 257 -86t95 -225zM1466 649q9 35 9 76q0 70 -32.5 111t-92.5 41q-80 0 -142 -62.5t-92 -165.5h350zM811 621q0 112 -42 172.5t-120 60.5q-66 3 -124 -44.5t-95 -123.5t-58 -165.5t-20 -172.5q0 -113 41 -173t119 -60q88 -4 159.5 78t106.5 198.5
t33 229.5z" />
    <glyph glyph-name="Racute" unicode="&#x154;" horiz-adv-x="1427" 
d="M1278 1845v-10l-369 -313h-118l182 323h305zM946 692l422 -684v-8h-342l-391 666h-74l-106 -426q-17 -70 -17 -101q0 -36 19 -54t67 -24v-61h-549v61q46 6 75 17t48.5 34t30 51t23.5 79l229 925q20 73 20 115q0 36 -19.5 54.5t-66.5 25.5v61h559q216 0 355 -99.5
t139 -252.5q0 -149 -111.5 -246t-310.5 -133zM594 805h121q157 0 251.5 74.5t94.5 193.5q0 103 -66 157t-186 54h-96z" />
    <glyph glyph-name="racute" unicode="&#x155;" horiz-adv-x="841" 
d="M631 1114h-119l182 324h305v-11zM229 735q9 27 9 53q0 31 -17.5 46.5t-58.5 21.5v62l385 61h14l-67 -270h16q68 153 138 220.5t171 67.5q41 0 76 -12v-274q-44 20 -123 20q-99 0 -184 -55.5t-142 -157.5l-75 -307q-17 -80 -17 -94q0 -30 17 -40.5t63 -15.5v-61h-465v61
q64 6 84 29.5t45 118.5z" />
    <glyph glyph-name="uni0156" unicode="&#x156;" horiz-adv-x="1427" 
d="M946 692l422 -684v-8h-342l-391 666h-74l-106 -426q-17 -70 -17 -101q0 -36 19 -54t67 -24v-61h-549v61q46 6 75 17t48.5 34t30 51t23.5 79l229 925q20 73 20 115q0 36 -19.5 54.5t-66.5 25.5v61h559q216 0 355 -99.5t139 -252.5q0 -149 -111.5 -246t-310.5 -133z
M594 805h121q157 0 251.5 74.5t94.5 193.5q0 103 -66 157t-186 54h-96zM788 -213q0 -68 -75 -164l-133 -168h-109l168 207q-49 4 -81 38t-32 81q0 58 37 96.5t96 38.5q55 0 92 -37t37 -92z" />
    <glyph glyph-name="uni0157" unicode="&#x157;" horiz-adv-x="841" 
d="M895 985v-274q-44 20 -123 20q-99 0 -184 -55.5t-142 -157.5l-75 -307q-17 -80 -17 -94q0 -30 17 -40.5t63 -15.5v-61h-465v61q64 6 84 29.5t45 118.5l131 526q9 27 9 53q0 31 -17.5 46.5t-58.5 21.5v62l385 61h14l-67 -270h16q68 153 138 220.5t171 67.5q41 0 76 -12z
M272 -213q0 -68 -75 -164l-134 -168h-108l168 207q-49 4 -81 38t-32 81q0 58 37 96.5t96 38.5q55 0 92 -37t37 -92z" />
    <glyph glyph-name="Rcaron" unicode="&#x158;" horiz-adv-x="1427" 
d="M1329 1845l-373 -323h-110l-191 323h117l166 -137l250 137h141zM946 692l422 -684v-8h-342l-391 666h-74l-106 -426q-17 -70 -17 -101q0 -36 19 -54t67 -24v-61h-549v61q46 6 75 17t48.5 34t30 51t23.5 79l229 925q20 73 20 115q0 36 -19.5 54.5t-66.5 25.5v61h559
q216 0 355 -99.5t139 -252.5q0 -149 -111.5 -246t-310.5 -133zM594 805h121q157 0 251.5 74.5t94.5 193.5q0 103 -66 157t-186 54h-96z" />
    <glyph glyph-name="rcaron" unicode="&#x159;" horiz-adv-x="841" 
d="M903 1438h141l-372 -324h-111l-190 324h116l166 -138zM229 735q9 27 9 53q0 31 -17.5 46.5t-58.5 21.5v62l385 61h14l-67 -270h16q68 153 138 220.5t171 67.5q41 0 76 -12v-274q-44 20 -123 20q-99 0 -184 -55.5t-142 -157.5l-75 -307q-17 -80 -17 -94q0 -30 17 -40.5
t63 -15.5v-61h-465v61q64 6 84 29.5t45 118.5z" />
    <glyph glyph-name="Sacute" unicode="&#x15a;" horiz-adv-x="1116" 
d="M803 1522h-119l182 323h305v-10zM37 111v333h65q61 -166 159.5 -245.5t221.5 -79.5q112 0 184 58t72 153q0 60 -33.5 105t-115.5 104l-123 88q-108 80 -159.5 168.5t-51.5 203.5q0 201 149.5 327t380.5 126q98 0 198.5 -25.5t176.5 -68.5v-330h-65q-24 127 -111.5 202
t-204.5 75q-111 0 -179.5 -58.5t-68.5 -154.5q0 -119 142 -218l117 -81q119 -82 172 -170t53 -203q0 -132 -75.5 -236t-197 -158.5t-262.5 -54.5q-245 0 -444 140z" />
    <glyph glyph-name="sacute" unicode="&#x15b;" horiz-adv-x="845" 
d="M565 1114h-119l183 324h305v-11zM12 72v227h62q33 -92 99 -145.5t151 -53.5q71 0 115 31.5t44 87.5q0 66 -73 115l-115 78q-143 98 -143 245q0 149 116 244.5t281 95.5q161 0 276 -69v-238h-61q-20 85 -78 131.5t-141 46.5q-75 0 -123.5 -33.5t-48.5 -91.5q0 -35 22 -63
t82 -66l92 -61q80 -54 115 -110.5t35 -131.5q0 -149 -116.5 -244.5t-283.5 -95.5q-170 0 -307 101z" />
    <glyph glyph-name="Scircumflex" unicode="&#x15c;" horiz-adv-x="1116" 
d="M598 1522h-141l372 323h111l190 -323h-116l-166 137zM37 111v333h65q61 -166 159.5 -245.5t221.5 -79.5q112 0 184 58t72 153q0 60 -33.5 105t-115.5 104l-123 88q-108 80 -159.5 168.5t-51.5 203.5q0 201 149.5 327t380.5 126q98 0 198.5 -25.5t176.5 -68.5v-330h-65
q-24 127 -111.5 202t-204.5 75q-111 0 -179.5 -58.5t-68.5 -154.5q0 -119 142 -218l117 -81q119 -82 172 -170t53 -203q0 -132 -75.5 -236t-197 -158.5t-262.5 -54.5q-245 0 -444 140z" />
    <glyph glyph-name="scircumflex" unicode="&#x15d;" horiz-adv-x="845" 
d="M346 1114h-141l373 324h110l191 -324h-117l-166 137zM12 72v227h62q33 -92 99 -145.5t151 -53.5q71 0 115 31.5t44 87.5q0 66 -73 115l-115 78q-143 98 -143 245q0 149 116 244.5t281 95.5q161 0 276 -69v-238h-61q-20 85 -78 131.5t-141 46.5q-75 0 -123.5 -33.5
t-48.5 -91.5q0 -35 22 -63t82 -66l92 -61q80 -54 115 -110.5t35 -131.5q0 -149 -116.5 -244.5t-283.5 -95.5q-170 0 -307 101z" />
    <glyph glyph-name="Scedilla" unicode="&#x15e;" horiz-adv-x="1116" 
d="M1161 1358v-330h-65q-24 127 -111.5 202t-204.5 75q-111 0 -179.5 -58.5t-68.5 -154.5q0 -119 142 -218l117 -81q119 -82 172 -170t53 -203q0 -127 -70.5 -228t-183 -157t-246.5 -64l-41 -63l2 -4q20 4 31 4q59 0 98 -38t39 -103q0 -84 -66.5 -138.5t-166.5 -54.5
q-141 0 -230 109l45 59q62 -53 144 -53q50 0 81 21.5t31 56.5q0 26 -20 41.5t-55 15.5q-30 0 -66 -19h-12l98 168q-219 15 -391 138v333h65q61 -166 159.5 -245.5t221.5 -79.5q112 0 184 58t72 153q0 60 -33.5 105t-115.5 104l-123 88q-108 80 -159.5 168.5t-51.5 203.5
q0 201 149.5 327t380.5 126q98 0 198.5 -25.5t176.5 -68.5z" />
    <glyph glyph-name="scedilla" unicode="&#x15f;" horiz-adv-x="845" 
d="M825 928v-238h-61q-20 85 -78 131.5t-141 46.5q-75 0 -123.5 -33.5t-48.5 -91.5q0 -35 22 -63t82 -66l92 -61q80 -54 115 -110.5t35 -131.5q0 -140 -103 -235q-105 -94 -256 -103l-41 -65l3 -4q20 4 30 4q59 0 98 -38t39 -103q0 -84 -66.5 -138.5t-166.5 -54.5
q-140 0 -229 109l45 59q62 -53 143 -53q50 0 81.5 21.5t31.5 56.5q0 26 -20.5 41.5t-55.5 15.5q-30 0 -66 -19h-12l100 168q-140 12 -262 99v227h62q33 -92 99 -145.5t151 -53.5q71 0 115 31.5t44 87.5q0 66 -73 115l-115 78q-143 98 -143 245q0 149 116 244.5t281 95.5
q161 0 276 -69z" />
    <glyph glyph-name="Scaron" unicode="&#x160;" horiz-adv-x="1116" 
d="M1081 1845h142l-373 -323h-111l-190 323h117l165 -137zM37 111v333h65q61 -166 159.5 -245.5t221.5 -79.5q112 0 184 58t72 153q0 60 -33.5 105t-115.5 104l-123 88q-108 80 -159.5 168.5t-51.5 203.5q0 201 149.5 327t380.5 126q98 0 198.5 -25.5t176.5 -68.5v-330h-65
q-24 127 -111.5 202t-204.5 75q-111 0 -179.5 -58.5t-68.5 -154.5q0 -119 142 -218l117 -81q119 -82 172 -170t53 -203q0 -132 -75.5 -236t-197 -158.5t-262.5 -54.5q-245 0 -444 140z" />
    <glyph glyph-name="scaron" unicode="&#x161;" horiz-adv-x="866" 
d="M848 1438h141l-373 -324h-110l-191 324h117l166 -138zM12 72v227h62q33 -92 99 -145.5t151 -53.5q71 0 115 31.5t44 87.5q0 66 -73 115l-115 78q-143 98 -143 245q0 149 116 244.5t281 95.5q161 0 276 -69v-238h-61q-20 85 -78 131.5t-141 46.5q-75 0 -123.5 -33.5
t-48.5 -91.5q0 -35 22 -63t82 -66l92 -61q80 -54 115 -110.5t35 -131.5q0 -149 -116.5 -244.5t-283.5 -95.5q-170 0 -307 101z" />
    <glyph glyph-name="uni0162" unicode="&#x162;" horiz-adv-x="1308" 
d="M229 1423h1233v-358h-65q-19 116 -94 167.5t-224 51.5h-71l-254 -1028q-21 -77 -21 -113q0 -37 24 -56t83 -26v-61h-271l-57 -92l2 -4q20 4 31 4q59 0 98 -38t39 -103q0 -84 -66.5 -138.5t-166.5 -54.5q-141 0 -230 109l45 59q62 -53 144 -53q50 0 81 21.5t31 56.5
q0 26 -20.5 41.5t-55.5 15.5q-29 0 -65 -19h-12l114 195h-231v61q57 7 88 16.5t53 34.5t32.5 53.5t27.5 90.5l254 1028h-84q-157 0 -230 -49.5t-96 -169.5h-66v358z" />
    <glyph glyph-name="uni0163" unicode="&#x163;" horiz-adv-x="770" 
d="M553 829l-139 -559q-6 -24 -6 -45q0 -90 108 -90q57 0 127 31l39 -72q-132 -123 -283 -123q-31 0 -80 11l-45 -74l2 -4q20 4 31 4q59 0 98 -38t39 -103q0 -84 -66.5 -138.5t-166.5 -54.5q-140 0 -229 109l45 59q62 -53 143 -53q50 0 81.5 21.5t31.5 56.5q0 26 -20.5 41.5
t-55.5 15.5q-30 0 -66 -19h-12l121 205q-107 65 -107 215q0 55 15 111l123 493h-170v123q216 8 286 129q35 59 72 160h188l-67 -272h254v-140h-291z" />
    <glyph glyph-name="Tcaron" unicode="&#x164;" horiz-adv-x="1308" 
d="M1192 1845h141l-372 -323h-111l-191 323h117l166 -137zM250 61q57 7 88 16.5t53 34.5t32.5 53.5t27.5 90.5l254 1028h-84q-157 0 -230 -49.5t-96 -169.5h-66v358h1233v-358h-65q-19 116 -94 167.5t-224 51.5h-71l-254 -1028q-21 -77 -21 -113q0 -37 24 -56t83 -26v-61
h-590v61z" />
    <glyph glyph-name="tcaron" unicode="&#x165;" horiz-adv-x="770" 
d="M1016 1354q0 -59 -72 -156l-127 -160h-102l159 197q-47 4 -76.5 37t-29.5 76q0 57 34 93t91 36q53 0 88 -35.5t35 -87.5zM657 1241l-67 -272h254v-140h-291l-139 -559q-6 -24 -6 -45q0 -90 108 -90q57 0 127 31l39 -72q-132 -123 -283 -123q-116 0 -186 68t-70 186
q0 55 15 111l123 493h-170v123q216 8 286 129q35 59 72 160h188z" />
    <glyph glyph-name="Tbar" unicode="&#x166;" horiz-adv-x="1308" 
d="M229 1423h1233v-358h-65q-19 116 -94 167.5t-224 51.5h-71l-115 -461h242v-116h-271l-110 -451q-21 -77 -21 -113q0 -37 24 -56t83 -26v-61h-590v61q57 7 88 16.5t53 34.5t32.5 53.5t27.5 90.5l110 451h-248v116h277l115 461h-84q-157 0 -230 -49.5t-96 -169.5h-66v358z
" />
    <glyph glyph-name="tbar" unicode="&#x167;" horiz-adv-x="786" 
d="M854 829h-291l-61 -245h248v-107h-275l-51 -207q-6 -24 -6 -45q0 -90 108 -90q57 0 127 31l39 -72q-132 -123 -282 -123q-116 0 -186 68t-70 186q0 59 14 111l35 141h-156v107h182l62 245h-170v123q217 8 287 129q32 55 71 160h189l-68 -272h254v-140z" />
    <glyph glyph-name="Utilde" unicode="&#x168;" horiz-adv-x="1560" 
d="M1083 1593l-43 33q-42 33 -79 33q-81 0 -111 -111h-113q23 134 86 207.5t156 73.5q70 0 139 -55l45 -33q44 -33 82 -33q75 0 109 113h112q-23 -136 -86 -209.5t-159 -73.5q-69 0 -138 55zM201 444q0 99 26 197l142 563q12 46 12 80q0 36 -20 55t-66 23v61h551v-61
q-77 -7 -116 -43.5t-58 -112.5l-154 -622q-18 -70 -18 -131q0 -127 75 -199t218 -72q336 0 442 416l147 598q13 54 13 82q0 38 -20 58t-64 26v61h403v-61q-75 -4 -113 -43.5t-59 -124.5l-151 -614q-75 -302 -242.5 -455.5t-439.5 -153.5q-230 0 -369 127t-139 346z" />
    <glyph glyph-name="utilde" unicode="&#x169;" horiz-adv-x="1146" 
d="M719 1178l-43 32q-42 33 -80 33q-81 0 -111 -110h-112q23 134 85.5 207t155.5 73q71 0 140 -55l45 -33q44 -33 82 -33q74 0 108 113h113q-23 -136 -86.5 -209.5t-159.5 -73.5q-67 0 -137 56zM98 238q0 56 17 129l88 354q10 52 10 67q0 56 -74 68v62l389 61h11l-166 -670
q-8 -36 -8 -55q0 -50 28 -76t76 -26q49 0 101.5 33t97.5 91l110 445q10 52 10 67q0 30 -16 45.5t-57 22.5v62l389 61h10l-180 -729q-12 -49 -12 -76q0 -24 14 -36t47 -17v-62l-377 -67h-10l33 129h-17q-114 -150 -278 -150q-105 0 -170.5 72t-65.5 195z" />
    <glyph glyph-name="Umacron" unicode="&#x16a;" horiz-adv-x="1560" 
d="M1430 1608h-631v125h631v-125zM201 444q0 99 26 197l142 563q12 46 12 80q0 36 -20 55t-66 23v61h551v-61q-77 -7 -116 -43.5t-58 -112.5l-154 -622q-18 -70 -18 -131q0 -127 75 -199t218 -72q336 0 442 416l147 598q13 54 13 82q0 38 -20 58t-64 26v61h403v-61
q-75 -4 -113 -43.5t-59 -124.5l-151 -614q-75 -302 -242.5 -455.5t-439.5 -153.5q-230 0 -369 127t-139 346z" />
    <glyph glyph-name="umacron" unicode="&#x16b;" horiz-adv-x="1146" 
d="M1063 1196h-631v125h631v-125zM98 238q0 56 17 129l88 354q10 52 10 67q0 56 -74 68v62l389 61h11l-166 -670q-8 -36 -8 -55q0 -50 28 -76t76 -26q49 0 101.5 33t97.5 91l110 445q10 52 10 67q0 30 -16 45.5t-57 22.5v62l389 61h10l-180 -729q-12 -49 -12 -76
q0 -24 14 -36t47 -17v-62l-377 -67h-10l33 129h-17q-114 -150 -278 -150q-105 0 -170.5 72t-65.5 195z" />
    <glyph glyph-name="Ubreve" unicode="&#x16c;" horiz-adv-x="1560" 
d="M846 1749q0 43 12 96h107q-4 -20 -4 -43q0 -55 35 -85.5t100 -30.5q154 0 221 159h115q-37 -156 -127.5 -239.5t-223.5 -83.5q-107 0 -171 60t-64 167zM201 444q0 99 26 197l142 563q12 46 12 80q0 36 -20 55t-66 23v61h551v-61q-77 -7 -116 -43.5t-58 -112.5l-154 -622
q-18 -70 -18 -131q0 -127 75 -199t218 -72q336 0 442 416l147 598q13 54 13 82q0 38 -20 58t-64 26v61h403v-61q-75 -4 -113 -43.5t-59 -124.5l-151 -614q-75 -302 -242.5 -455.5t-439.5 -153.5q-230 0 -369 127t-139 346z" />
    <glyph glyph-name="ubreve" unicode="&#x16d;" horiz-adv-x="1146" 
d="M485 1341q0 40 13 97h106q-4 -20 -4 -43q0 -55 35 -86t100 -31q153 0 221 160h115q-37 -156 -127 -240t-223 -84q-108 0 -172 60t-64 167zM98 238q0 56 17 129l88 354q10 52 10 67q0 56 -74 68v62l389 61h11l-166 -670q-8 -36 -8 -55q0 -50 28 -76t76 -26q49 0 101.5 33
t97.5 91l110 445q10 52 10 67q0 30 -16 45.5t-57 22.5v62l389 61h10l-180 -729q-12 -49 -12 -76q0 -24 14 -36t47 -17v-62l-377 -67h-10l33 129h-17q-114 -150 -278 -150q-105 0 -170.5 72t-65.5 195z" />
    <glyph glyph-name="Uring" unicode="&#x16e;" horiz-adv-x="1560" 
d="M901 1714q0 86 62.5 147.5t150.5 61.5t151.5 -61.5t63.5 -147.5q0 -87 -62.5 -147t-152.5 -60q-88 0 -150.5 60.5t-62.5 146.5zM1208 1714q0 43 -26.5 70.5t-67.5 27.5t-66.5 -27.5t-25.5 -70.5t25.5 -70.5t66.5 -27.5t67.5 27.5t26.5 70.5zM201 444q0 99 26 197l142 563
q12 46 12 80q0 36 -20 55t-66 23v61h551v-61q-77 -7 -116 -43.5t-58 -112.5l-154 -622q-18 -70 -18 -131q0 -127 75 -199t218 -72q336 0 442 416l147 598q13 54 13 82q0 38 -20 58t-64 26v61h403v-61q-75 -4 -113 -43.5t-59 -124.5l-151 -614q-75 -302 -242.5 -455.5
t-439.5 -153.5q-230 0 -369 127t-139 346z" />
    <glyph glyph-name="uring" unicode="&#x16f;" horiz-adv-x="1146" 
d="M530 1290q0 86 62.5 147.5t150.5 61.5t151.5 -61.5t63.5 -147.5q0 -87 -62.5 -147t-152.5 -60q-88 0 -150.5 60.5t-62.5 146.5zM838 1290q0 43 -27 71t-68 28t-66.5 -28t-25.5 -71t25.5 -70.5t66.5 -27.5t68 27.5t27 70.5zM98 238q0 56 17 129l88 354q10 52 10 67
q0 56 -74 68v62l389 61h11l-166 -670q-8 -36 -8 -55q0 -50 28 -76t76 -26q49 0 101.5 33t97.5 91l110 445q10 52 10 67q0 30 -16 45.5t-57 22.5v62l389 61h10l-180 -729q-12 -49 -12 -76q0 -24 14 -36t47 -17v-62l-377 -67h-10l33 129h-17q-114 -150 -278 -150
q-105 0 -170.5 72t-65.5 195z" />
    <glyph glyph-name="Uhungarumlaut" unicode="&#x170;" horiz-adv-x="1560" 
d="M897 1522h-102l163 323h267v-10zM1255 1522h-104l168 323h264v-10zM201 444q0 99 26 197l142 563q12 46 12 80q0 36 -20 55t-66 23v61h551v-61q-77 -7 -116 -43.5t-58 -112.5l-154 -622q-18 -70 -18 -131q0 -127 75 -199t218 -72q336 0 442 416l147 598q13 54 13 82
q0 38 -20 58t-64 26v61h403v-61q-75 -4 -113 -43.5t-59 -124.5l-151 -614q-75 -302 -242.5 -455.5t-439.5 -153.5q-230 0 -369 127t-139 346z" />
    <glyph glyph-name="uhungarumlaut" unicode="&#x171;" horiz-adv-x="1146" 
d="M551 1114h-102l163 324h267v-11zM909 1114h-104l168 324h264v-11zM98 238q0 56 17 129l88 354q10 52 10 67q0 56 -74 68v62l389 61h11l-166 -670q-8 -36 -8 -55q0 -50 28 -76t76 -26q49 0 101.5 33t97.5 91l110 445q10 52 10 67q0 30 -16 45.5t-57 22.5v62l389 61h10
l-180 -729q-12 -49 -12 -76q0 -24 14 -36t47 -17v-62l-377 -67h-10l33 129h-17q-114 -150 -278 -150q-105 0 -170.5 72t-65.5 195z" />
    <glyph glyph-name="Uogonek" unicode="&#x172;" horiz-adv-x="1560" 
d="M446 -248q0 146 170 217v6q-192 23 -303.5 147.5t-111.5 323.5q0 99 26 197l140 555q14 60 14 88q0 35 -19 51.5t-67 24.5v61h551v-61q-77 -7 -115 -43t-59 -117l-154 -612q-18 -74 -18 -135q0 -130 74.5 -201.5t218.5 -71.5q336 0 442 416l145 588q15 56 15 92
q0 38 -19 55.5t-67 28.5v61h405v-61q-76 -6 -112.5 -43.5t-61.5 -134.5l-149 -604q-63 -252 -192 -399.5t-331 -194.5q-125 -29 -193.5 -85t-68.5 -116q0 -39 27 -61.5t74 -22.5q50 0 98 31l39 -60q-84 -96 -211 -96q-81 0 -134 51t-53 125z" />
    <glyph glyph-name="uogonek" unicode="&#x173;" horiz-adv-x="1146" 
d="M932 242q-12 -59 -12 -68q0 -25 14 -37t49 -16v-62l-137 -26q-128 -25 -209.5 -91t-81.5 -145q0 -48 26 -72t72 -24q53 0 101 31l39 -60q-84 -96 -211 -96q-82 0 -134.5 52t-52.5 134q0 74 52.5 135.5t152.5 104.5l29 119h-17q-115 -150 -282 -150q-102 0 -167 72.5
t-65 194.5q0 56 17 129l88 354q10 52 10 67q0 56 -74 68v62l389 61h11l-166 -670q-8 -36 -8 -55q0 -48 28 -75t74 -27q104 0 201 124l110 445q10 52 10 67q0 30 -16 45.5t-57 22.5v62l389 61h10z" />
    <glyph glyph-name="Wcircumflex" unicode="&#x174;" horiz-adv-x="2033" 
d="M1073 1522h-141l373 323h110l191 -323h-117l-166 137zM342 1143q-4 82 -13 120.5t-28.5 60t-62.5 38.5v61h577v-61q-108 -17 -145.5 -64t-32.5 -153l35 -686h16l430 731l-16 233h307l59 -948h17l354 658q39 72 53.5 105.5t14.5 57.5q0 45 -70 66v61h418v-61
q-79 -20 -129 -70t-109 -159l-620 -1133h-185l-57 930h-16l-551 -930h-187z" />
    <glyph glyph-name="wcircumflex" unicode="&#x175;" horiz-adv-x="1581" 
d="M721 1114h-141l372 324h111l190 -324h-116l-166 137zM524 389l269 410l-15 170h262l58 -580h16l223 363q47 75 47 102q0 32 -53 53v62h350v-62q-66 -13 -106 -47.5t-90 -114.5l-461 -745h-135l-51 610h-17l-399 -610h-133l-78 731q-6 71 -28.5 97.5t-84.5 27.5v62l355 69
l4 -55q5 -71 20 -219l31 -324h16z" />
    <glyph glyph-name="Ycircumflex" unicode="&#x176;" horiz-adv-x="1427" 
d="M1192 1522l-166 137l-250 -137h-141l373 323h110l191 -323h-117zM1219 1423h436v-61q-91 -18 -142 -55q-42 -28 -114 -113l-506 -614l-84 -334q-18 -70 -18 -107t19 -53.5t69 -24.5v-61h-551v61q80 8 116 45t62 140l82 334l-205 616q-25 74 -54.5 107.5t-92.5 58.5v61
h595v-61q-77 -13 -111 -38.5t-34 -68.5q0 -27 12 -65l136 -428h16l346 430q74 89 74 123q0 32 -51 47v61z" />
    <glyph glyph-name="ycircumflex" unicode="&#x177;" horiz-adv-x="1048" 
d="M872 1114l-165 137l-250 -137h-142l373 324h111l190 -324h-117zM813 969h356v-62q-75 -20 -116 -53t-84 -106l-533 -877q-103 -169 -197 -239t-212 -70q-94 0 -158 43v221q78 -35 174 -35q199 0 307 178l6 11l-143 772q-11 58 -33.5 80.5t-81.5 23.5v62l351 69l2 -14
l36 -240l66 -397h16l250 416q45 71 45 106q0 34 -51 49v62z" />
    <glyph glyph-name="Ydieresis" unicode="&#x178;" horiz-adv-x="1427" 
d="M639 1688q0 72 49 119.5t121 47.5q60 0 97.5 -37.5t37.5 -97.5q0 -72 -49 -120t-121 -48q-57 0 -96 39.5t-39 96.5zM1065 1688q0 72 49 119.5t121 47.5q60 0 97.5 -37.5t37.5 -97.5q0 -72 -49 -120t-121 -48q-57 0 -96 39.5t-39 96.5zM1219 1423h436v-61
q-91 -18 -142 -55q-42 -28 -114 -113l-506 -614l-84 -334q-18 -70 -18 -107t19 -53.5t69 -24.5v-61h-551v61q80 8 116 45t62 140l82 334l-205 616q-25 74 -54.5 107.5t-92.5 58.5v61h595v-61q-77 -13 -111 -38.5t-34 -68.5q0 -27 12 -65l136 -428h16l346 430q74 89 74 123
q0 32 -51 47v61z" />
    <glyph glyph-name="Zacute" unicode="&#x179;" horiz-adv-x="1275" 
d="M872 1522h-118l182 323h305v-10zM-27 0v123l1018 1145v12h-350q-131 0 -192.5 -55t-88.5 -187h-65v385h1098v-123l-1018 -1144v-13h362q152 0 218 56.5t94 212.5h65v-412h-1141z" />
    <glyph glyph-name="zacute" unicode="&#x17a;" horiz-adv-x="964" 
d="M625 1114h-119l182 324h305v-11zM324 129v16l659 701v123h-809v-277h62q26 85 73.5 116.5t147.5 31.5h166v-17l-660 -700v-123h844v309h-62q-31 -99 -85.5 -139.5t-157.5 -40.5h-178z" />
    <glyph glyph-name="Zdotaccent" unicode="&#x17b;" horiz-adv-x="1275" 
d="M745 1679q0 78 53.5 130.5t131.5 52.5q66 0 107.5 -41t41.5 -107q0 -78 -54 -130t-132 -52q-63 0 -105.5 42t-42.5 105zM-27 0v123l1018 1145v12h-350q-131 0 -192.5 -55t-88.5 -187h-65v385h1098v-123l-1018 -1144v-13h362q152 0 218 56.5t94 212.5h65v-412h-1141z" />
    <glyph glyph-name="zdotaccent" unicode="&#x17c;" horiz-adv-x="964" 
d="M500 1268q0 78 53 130t131 52q66 0 108 -40.5t42 -106.5q0 -78 -54.5 -130.5t-132.5 -52.5q-63 0 -105 42.5t-42 105.5zM324 129v16l659 701v123h-809v-277h62q26 85 73.5 116.5t147.5 31.5h166v-17l-660 -700v-123h844v309h-62q-31 -99 -85.5 -139.5t-157.5 -40.5h-178z
" />
    <glyph glyph-name="Zcaron" unicode="&#x17d;" horiz-adv-x="1275" 
d="M1151 1845h141l-372 -323h-111l-191 323h117l166 -137zM-27 0v123l1018 1145v12h-350q-131 0 -192.5 -55t-88.5 -187h-65v385h1098v-123l-1018 -1144v-13h362q152 0 218 56.5t94 212.5h65v-412h-1141z" />
    <glyph glyph-name="zcaron" unicode="&#x17e;" horiz-adv-x="964" 
d="M897 1438h141l-372 -324h-111l-190 324h116l166 -138zM324 129v16l659 701v123h-809v-277h62q26 85 73.5 116.5t147.5 31.5h166v-17l-660 -700v-123h844v309h-62q-31 -99 -85.5 -139.5t-157.5 -40.5h-178z" />
    <glyph glyph-name="uni01E2" unicode="&#x1e2;" horiz-adv-x="1892" 
d="M1229 1733h631v-125h-631v125zM1008 1423h946v-342h-66q-17 109 -87.5 154t-223.5 45h-227l-123 -492h108q195 0 209 152h66v-442h-66q-7 78 -56 112.5t-145 34.5h-151l-125 -502h315q135 0 203 54t96 198h66v-395h-1135v61q86 9 121 50t62 143l36 149h-413l-101 -133
q-86 -117 -86 -155q0 -39 72 -54v-61h-434v61q83 28 145 81.5t150 168.5zM1012 1196l-488 -649h342l162 649h-16z" />
    <glyph glyph-name="uni01E3" unicode="&#x1e3;" horiz-adv-x="1556" 
d="M592 1321h631v-125h-631v125zM1503 686q0 -49 -8 -80l-14 -69h-600q-2 -10 -2 -45q0 -148 75 -229t205 -81q146 0 256 84l55 -65q-169 -230 -436 -230q-123 0 -222 63t-148 173h-17q-76 -109 -173.5 -172.5t-207.5 -63.5q-112 0 -183 65t-71 165q0 114 87 183.5
t272 111.5l231 53l19 72q8 24 8 59q0 67 -45.5 103t-124.5 36q-127 0 -275 -88l-47 84q95 82 207.5 132t218.5 50q173 0 258 -116h17q137 116 315 116q157 0 253.5 -87t96.5 -224zM1251 649q9 35 9 74q0 71 -32.5 112.5t-94.5 41.5q-77 0 -138.5 -62.5t-93.5 -165.5h350z
M575 440l-131 -39q-83 -26 -126.5 -60.5t-43.5 -90.5q0 -46 26 -73t65 -27q79 0 165 108z" />
    <glyph glyph-name="AEacute" unicode="&#x1fc;" horiz-adv-x="1892" 
d="M1868 1845v-10l-369 -313h-119l183 323h305zM1008 1423h946v-342h-66q-17 109 -87.5 154t-223.5 45h-227l-123 -492h108q195 0 209 152h66v-442h-66q-7 78 -56 112.5t-145 34.5h-151l-125 -502h315q135 0 203 54t96 198h66v-395h-1135v61q86 9 121 50t62 143l36 149h-413
l-101 -133q-86 -117 -86 -155q0 -39 72 -54v-61h-434v61q83 28 145 81.5t150 168.5zM1012 1196l-488 -649h342l162 649h-16z" />
    <glyph glyph-name="aeacute" unicode="&#x1fd;" horiz-adv-x="1556" 
d="M1245 1438v-11l-368 -313h-119l182 324h305zM1503 686q0 -49 -8 -80l-14 -69h-600q-2 -10 -2 -45q0 -148 75 -229t205 -81q146 0 256 84l55 -65q-169 -230 -436 -230q-123 0 -222 63t-148 173h-17q-76 -109 -173.5 -172.5t-207.5 -63.5q-112 0 -183 65t-71 165
q0 114 87 183.5t272 111.5l231 53l19 72q8 24 8 59q0 67 -45.5 103t-124.5 36q-127 0 -275 -88l-47 84q95 82 207.5 132t218.5 50q173 0 258 -116h17q137 116 315 116q157 0 253.5 -87t96.5 -224zM1251 649q9 35 9 74q0 71 -32.5 112.5t-94.5 41.5q-77 0 -138.5 -62.5
t-93.5 -165.5h350zM575 440l-131 -39q-83 -26 -126.5 -60.5t-43.5 -90.5q0 -46 26 -73t65 -27q79 0 165 108z" />
    <glyph glyph-name="Oslashacute" unicode="&#x1fe;" horiz-adv-x="1648" 
d="M1409 1845v-10l-369 -313h-118l182 323h305zM1702 1452l-217 -217q147 -162 147 -404q2 -139 -39 -270.5t-119.5 -238.5t-182.5 -187t-235 -123t-270 -41q-249 0 -426 138l-213 -213l-86 79l213 215q-143 169 -143 400q-3 172 63 332t179 277.5t271.5 186.5t332.5 66
q248 0 424 -135l215 215zM475 389l764 766q-88 143 -268 143q-110 4 -209 -66t-164.5 -182.5t-103 -248.5t-35.5 -264q0 -73 16 -148zM1286 1036l-764 -766q88 -143 269 -143q110 -4 209.5 65.5t165.5 181.5t103.5 247.5t35.5 263.5q0 80 -19 151z" />
    <glyph glyph-name="oslashacute" unicode="&#x1ff;" horiz-adv-x="1161" 
d="M1075 1438v-11l-368 -313h-119l182 324h305zM1120 971l-116 -125q94 -113 94 -277q2 -122 -43 -233.5t-123.5 -192t-188.5 -127.5t-231 -45q-146 0 -262 72l-121 -129l-84 82l117 125q-96 116 -96 278q-3 163 74 301.5t213 219t298 77.5q154 0 267 -73l118 127zM352 324
l428 454q-46 76 -133 76q-86 4 -156.5 -78.5t-105.5 -199.5t-33 -230v-22zM811 641l-426 -453q43 -73 131 -73q64 -3 121.5 45t94.5 124t58.5 166t20.5 173v18z" />
    <glyph glyph-name="uni0218" unicode="&#x218;" horiz-adv-x="1116" 
d="M1161 1358v-330h-65q-24 127 -111.5 202t-204.5 75q-111 0 -179.5 -58.5t-68.5 -154.5q0 -119 142 -218l117 -81q119 -82 172 -170t53 -203q0 -132 -75.5 -236t-197 -158.5t-262.5 -54.5q-245 0 -444 140v333h65q61 -166 159.5 -245.5t221.5 -79.5q112 0 184 58t72 153
q0 60 -33.5 105t-115.5 104l-123 88q-108 80 -159.5 168.5t-51.5 203.5q0 201 149.5 327t380.5 126q98 0 198.5 -25.5t176.5 -68.5zM588 -213q0 -66 -76 -164l-133 -168h-109l168 207q-49 4 -80.5 38t-31.5 81q0 58 37 96.5t96 38.5q55 0 92 -37t37 -92z" />
    <glyph glyph-name="uni0219" unicode="&#x219;" horiz-adv-x="845" 
d="M825 928v-238h-61q-20 85 -78 131.5t-141 46.5q-75 0 -123.5 -33.5t-48.5 -91.5q0 -35 22 -63t82 -66l92 -61q80 -54 115 -110.5t35 -131.5q0 -149 -116.5 -244.5t-283.5 -95.5q-170 0 -307 101v227h62q33 -92 99 -145.5t151 -53.5q71 0 115 31.5t44 87.5q0 66 -73 115
l-115 78q-143 98 -143 245q0 149 116 244.5t281 95.5q161 0 276 -69zM432 -213q0 -66 -76 -164l-133 -168h-108l168 207q-49 4 -81 38t-32 81q0 58 37 96.5t96 38.5q55 0 92 -37t37 -92z" />
    <glyph glyph-name="uni021A" unicode="&#x21a;" horiz-adv-x="1308" 
d="M229 1423h1233v-358h-65q-19 116 -94 167.5t-224 51.5h-71l-254 -1028q-21 -77 -21 -113q0 -37 24 -56t83 -26v-61h-590v61q57 7 88 16.5t53 34.5t32.5 53.5t27.5 90.5l254 1028h-84q-157 0 -230 -49.5t-96 -169.5h-66v358zM625 -213q0 -66 -76 -164l-133 -168h-109
l168 207q-49 4 -81 38t-32 81q0 58 37.5 96.5t96.5 38.5q56 0 92.5 -37t36.5 -92z" />
    <glyph glyph-name="uni021B" unicode="&#x21b;" horiz-adv-x="770" 
d="M553 829l-139 -559q-6 -24 -6 -45q0 -90 108 -90q57 0 127 31l39 -72q-132 -123 -283 -123q-116 0 -186 68t-70 186q0 55 15 111l123 493h-170v123q216 8 286 129q35 59 72 160h188l-67 -272h254v-140h-291zM387 -213q0 -66 -76 -164l-133 -168h-108l168 207
q-49 4 -81 38t-32 81q0 58 37 96.5t96 38.5q56 0 92.5 -37t36.5 -92z" />
    <glyph glyph-name="uni0226" unicode="&#x226;" horiz-adv-x="1439" 
d="M840 1679q0 78 53 130.5t131 52.5q66 0 108 -41t42 -107q0 -78 -54 -130t-133 -52q-63 0 -105 42t-42 105zM1227 254q13 -86 36.5 -124.5t75.5 -68.5v-61h-567v61q88 20 124 50t36 84q0 4 -0.5 10t-1.5 17.5t-2 21.5l-27 159h-506l-92 -147q-53 -83 -53 -123
q0 -52 94 -72v-61h-461v61q94 35 144 74q50 42 112 141l719 1147h164zM780 1018l-295 -471h392l-80 471h-17z" />
    <glyph glyph-name="uni0227" unicode="&#x227;" horiz-adv-x="1191" 
d="M588 1268q0 78 53 130t131 52q66 0 108 -40.5t42 -106.5q0 -78 -54.5 -130.5t-132.5 -52.5q-63 0 -105 42.5t-42 105.5zM59 371q-3 160 71.5 306t203.5 235t276 85q188 0 301 -125h17l125 97h112l-182 -727q-12 -53 -12 -68q0 -44 63 -53v-62l-375 -67h-12l33 129h-16
q-105 -150 -283 -150q-139 0 -230.5 113.5t-91.5 286.5zM719 276l80 318q12 50 12 90q0 85 -45 135.5t-115 50.5q-90 3 -165.5 -69.5t-115 -179.5t-38.5 -213q0 -114 48.5 -186t129.5 -72q101 0 209 126z" />
    <glyph glyph-name="uni0232" unicode="&#x232;" horiz-adv-x="1427" 
d="M711 1733h630v-125h-630v125zM1219 1423h436v-61q-91 -18 -142 -55q-42 -28 -114 -113l-506 -614l-84 -334q-18 -70 -18 -107t19 -53.5t69 -24.5v-61h-551v61q80 8 116 45t62 140l82 334l-205 616q-25 74 -54.5 107.5t-92.5 58.5v61h595v-61q-77 -13 -111 -38.5
t-34 -68.5q0 -27 12 -65l136 -428h16l346 430q74 89 74 123q0 32 -51 47v61z" />
    <glyph glyph-name="uni0233" unicode="&#x233;" horiz-adv-x="1048" 
d="M391 1321h631v-125h-631v125zM813 969h356v-62q-75 -20 -116 -53t-84 -106l-533 -877q-103 -169 -197 -239t-212 -70q-94 0 -158 43v221q78 -35 174 -35q199 0 307 178l6 11l-143 772q-11 58 -33.5 80.5t-81.5 23.5v62l351 69l2 -14l36 -240l66 -397h16l250 416
q45 71 45 106q0 34 -51 49v62z" />
    <glyph glyph-name="uni0237" unicode="&#x237;" horiz-adv-x="563" 
d="M-375 -369l41 95q56 -29 123 -29q170 0 217 182l211 846q10 45 10 61q0 32 -17 48t-58 22v62l387 61h12l-264 -1067q-46 -185 -151 -267.5t-269 -82.5q-65 0 -131 19t-111 50z" />
    <glyph glyph-name="circumflex" unicode="&#x2c6;" horiz-adv-x="794" 
d="M354 1114h-141l373 324h110l191 -324h-117l-166 137z" />
    <glyph glyph-name="caron" unicode="&#x2c7;" horiz-adv-x="794" 
d="M825 1438h142l-373 -324h-111l-190 324h117l165 -138z" />
    <glyph glyph-name="breve" unicode="&#x2d8;" horiz-adv-x="690" 
d="M281 1341q0 45 12 97h106q-4 -20 -4 -43q0 -55 35 -86t100 -31q154 0 222 160h114q-37 -156 -127 -240t-223 -84q-107 0 -171 60t-64 167z" />
    <glyph glyph-name="dotaccent" unicode="&#x2d9;" horiz-adv-x="380" 
d="M229 1268q0 78 53.5 130t131.5 52q66 0 107.5 -40.5t41.5 -106.5q0 -78 -54 -130.5t-132 -52.5q-63 0 -105.5 42.5t-42.5 105.5z" />
    <glyph glyph-name="ring" unicode="&#x2da;" horiz-adv-x="520" 
d="M246 1290q0 86 62.5 147.5t150.5 61.5t151.5 -61.5t63.5 -147.5q0 -87 -62.5 -147t-152.5 -60q-88 0 -150.5 60.5t-62.5 146.5zM553 1290q0 43 -26.5 71t-67.5 28t-66.5 -28t-25.5 -71t25.5 -70.5t66.5 -27.5t67.5 27.5t26.5 70.5z" />
    <glyph glyph-name="ogonek" unicode="&#x2db;" horiz-adv-x="600" 
d="M-76 -246q0 191 328 273l80 -27q-248 -99 -248 -215q0 -38 27 -61t71 -23q53 0 101 31l39 -60q-84 -96 -213 -96q-81 0 -133 51.5t-52 126.5z" />
    <glyph glyph-name="tilde" unicode="&#x2dc;" horiz-adv-x="735" 
d="M553 1178l-43 32q-42 33 -80 33q-81 0 -111 -110h-112q23 134 86 207t156 73q70 0 139 -55l45 -33q44 -33 82 -33q74 0 108 113h113q-23 -136 -86.5 -209.5t-159.5 -73.5q-67 0 -137 56z" />
    <glyph glyph-name="hungarumlaut" unicode="&#x2dd;" horiz-adv-x="821" 
d="M317 1114h-102l164 324h266v-11zM676 1114h-105l168 324h265v-11z" />
    <glyph glyph-name="uni0394" unicode="&#x394;" horiz-adv-x="1226" 
d="M1100 0h-1174v123l840 1300h160l174 -1302v-121zM125 156v-17h682v13l-115 858h-16z" />
    <glyph glyph-name="Pi" unicode="&#x3a0;" horiz-adv-x="1513" 
d="M1653 1362q-89 -12 -120 -44.5t-56 -131.5l-236 -948q-16 -69 -16 -97q0 -38 19 -55t69 -25v-61h-549v61q87 12 118 44t56 133l260 1042h-485l-260 -1042q-17 -73 -17 -97q0 -38 19 -55t69 -25v-61h-549v61q87 12 118.5 44t56.5 133l235 948q16 75 16 100
q0 36 -18.5 52.5t-67.5 23.5v61h1338v-61z" />
    <glyph glyph-name="uni03A9" unicode="&#x3a9;" horiz-adv-x="1576" 
d="M59 0v242h463l2 10q-165 51 -263.5 180.5t-98.5 296.5q-2 138 58 271.5t163.5 234t251 161t309.5 56.5q171 2 313.5 -71.5t224.5 -203.5t79 -286q0 -225 -167 -404t-427 -235v-10h399v-242h-600l74 295q118 48 211 152t142.5 236t49.5 267q0 165 -79.5 256.5t-219.5 91.5
q-100 4 -190 -54.5t-149.5 -151.5t-93.5 -204.5t-32 -215.5q0 -287 191 -383l-72 -289h-539z" />
    <glyph glyph-name="uni03BC" unicode="&#x3bc;" horiz-adv-x="1157" 
d="M217 729q8 31 8 59q0 31 -16 46.5t-57 21.5v62l387 61h12l-166 -672q-6 -27 -6 -51q0 -50 26 -77t70 -27q57 0 105.5 31.5t99.5 92.5l113 453q10 42 10 59q0 29 -17.5 45t-58.5 23v62l387 61h12l-178 -719q-14 -49 -14 -86q0 -24 14 -36t47 -17v-62l-374 -67h-13l33 129
h-16q-117 -150 -271 -150q-24 0 -45 6h-6l-39 -155q-20 -81 -20 -113q0 -30 17 -41t65 -16v-62h-392z" />
    <glyph glyph-name="pi" unicode="&#x3c0;" horiz-adv-x="1263" 
d="M1032 829l-139 -559q-6 -24 -6 -43q0 -92 104 -92q65 0 131 31l39 -72q-126 -123 -282 -123q-116 0 -186 68t-70 186q0 59 14 111l123 493h-217l-207 -829h-273l207 829h-127v140h1121v-140h-232z" />
    <glyph glyph-name="uni0E3F" unicode="&#xe3f;" horiz-adv-x="1339" 
d="M936 702q128 -26 206.5 -103t78.5 -179q0 -127 -77.5 -223.5t-207.5 -146.5t-289 -50h-39l-45 -184h-114l45 184h-494v61q43 3 70.5 13t47 33.5t30.5 53.5t24 83l227 915q17 73 17 92q0 74 -80 80v62h502h4l47 188h115l-50 -195q174 -23 266.5 -104.5t92.5 -202.5
q0 -137 -102 -232t-275 -128v-17zM793 1266h-109l-119 -478h125l121 478h-18zM920 1243l-113 -446q106 20 166.5 89t60.5 173q0 132 -114 184zM535 670l-136 -543h127l136 543h-13h-114zM641 129q132 18 212.5 101.5t80.5 215.5q0 156 -162 207z" />
    <glyph glyph-name="Wgrave" unicode="&#x1e80;" horiz-adv-x="2033" 
d="M1313 1845l51 -323h-102l-230 313v10h281zM342 1143q-4 82 -13 120.5t-28.5 60t-62.5 38.5v61h577v-61q-108 -17 -145.5 -64t-32.5 -153l35 -686h16l430 731l-16 233h307l59 -948h17l354 658q39 72 53.5 105.5t14.5 57.5q0 45 -70 66v61h418v-61q-79 -20 -129 -70
t-109 -159l-620 -1133h-185l-57 930h-16l-551 -930h-187z" />
    <glyph glyph-name="wgrave" unicode="&#x1e81;" horiz-adv-x="1581" 
d="M987 1438l51 -324h-102l-229 313v11h280zM524 389l269 410l-15 170h262l58 -580h16l223 363q47 75 47 102q0 32 -53 53v62h350v-62q-66 -13 -106 -47.5t-90 -114.5l-461 -745h-135l-51 610h-17l-399 -610h-133l-78 731q-6 71 -28.5 97.5t-84.5 27.5v62l355 69l4 -55
q5 -71 20 -219l31 -324h16z" />
    <glyph glyph-name="Wacute" unicode="&#x1e82;" horiz-adv-x="2033" 
d="M1278 1522h-119l182 323h306v-10zM342 1143q-4 82 -13 120.5t-28.5 60t-62.5 38.5v61h577v-61q-108 -17 -145.5 -64t-32.5 -153l35 -686h16l430 731l-16 233h307l59 -948h17l354 658q39 72 53.5 105.5t14.5 57.5q0 45 -70 66v61h418v-61q-79 -20 -129 -70t-109 -159
l-620 -1133h-185l-57 930h-16l-551 -930h-187z" />
    <glyph glyph-name="wacute" unicode="&#x1e83;" horiz-adv-x="1581" 
d="M940 1114h-119l183 324h305v-11zM524 389l269 410l-15 170h262l58 -580h16l223 363q47 75 47 102q0 32 -53 53v62h350v-62q-66 -13 -106 -47.5t-90 -114.5l-461 -745h-135l-51 610h-17l-399 -610h-133l-78 731q-6 71 -28.5 97.5t-84.5 27.5v62l355 69l4 -55
q5 -71 20 -219l31 -324h16z" />
    <glyph glyph-name="Wdieresis" unicode="&#x1e84;" horiz-adv-x="2033" 
d="M936 1688q0 72 49 119.5t121 47.5q60 0 97.5 -37.5t37.5 -97.5q0 -72 -49 -120t-121 -48q-57 0 -96 39.5t-39 96.5zM1362 1688q0 72 49 119.5t121 47.5q60 0 97.5 -37.5t37.5 -97.5q0 -72 -49 -120t-121 -48q-57 0 -96 39.5t-39 96.5zM342 1143q-4 82 -13 120.5t-28.5 60
t-62.5 38.5v61h577v-61q-108 -17 -145.5 -64t-32.5 -153l35 -686h16l430 731l-16 233h307l59 -948h17l354 658q39 72 53.5 105.5t14.5 57.5q0 45 -70 66v61h418v-61q-79 -20 -129 -70t-109 -159l-620 -1133h-185l-57 930h-16l-551 -930h-187z" />
    <glyph glyph-name="wdieresis" unicode="&#x1e85;" horiz-adv-x="1581" 
d="M610 1270q0 72 49 120t121 48q60 0 97.5 -37.5t37.5 -97.5q0 -72 -49 -120t-121 -48q-57 0 -96 39t-39 96zM1036 1270q0 72 49 120t121 48q60 0 97.5 -37.5t37.5 -97.5q0 -72 -49 -120t-121 -48q-57 0 -96 39t-39 96zM524 389l269 410l-15 170h262l58 -580h16l223 363
q47 75 47 102q0 32 -53 53v62h350v-62q-66 -13 -106 -47.5t-90 -114.5l-461 -745h-135l-51 610h-17l-399 -610h-133l-78 731q-6 71 -28.5 97.5t-84.5 27.5v62l355 69l4 -55q5 -71 20 -219l31 -324h16z" />
    <glyph glyph-name="uni1E9E" unicode="&#x1e9e;" horiz-adv-x="1533" 
d="M1593 1423v-123l-491 -518q152 -38 243 -135t91 -239q3 -122 -74.5 -224.5t-208 -159t-279.5 -53.5q-193 0 -315 88l51 105q74 -43 185 -43q143 0 238 93t95 228q0 113 -73 174.5t-211 61.5h-33v123l442 469v14h-546l-322 -1284h-418v61q78 7 112 40.5t58 121.5l299 1200
h1157z" />
    <glyph glyph-name="uni1ECA" unicode="&#x1eca;" horiz-adv-x="729" 
d="M-23 61q87 12 118.5 44t56.5 133l235 948q16 75 16 100q0 36 -18.5 52.5t-67.5 23.5v61h549v-61q-89 -12 -120 -44.5t-56 -131.5l-235 -948q-17 -73 -17 -97q0 -38 19 -55t69 -25v-61h-549v61zM16 -276q0 78 53.5 130t131.5 52q66 0 107.5 -41t41.5 -107q0 -78 -54 -130
t-132 -52q-63 0 -105.5 42.5t-42.5 105.5z" />
    <glyph glyph-name="uni1ECB" unicode="&#x1ecb;" horiz-adv-x="589" 
d="M334 1268q0 78 53 130t131 52q66 0 108 -40.5t42 -106.5q0 -78 -54.5 -130.5t-132.5 -52.5q-63 0 -105 42.5t-42 105.5zM362 174q-10 -52 -10 -61q0 -24 13.5 -35.5t44.5 -16.5v-61h-441v61q58 6 81 28t40 89l139 559q9 41 9 51q0 30 -17.5 46t-58.5 22v62l387 61h12z
M-49 -276q0 78 53 130t131 52q66 0 108 -41t42 -107q0 -78 -54.5 -130t-132.5 -52q-63 0 -105 42.5t-42 105.5z" />
    <glyph glyph-name="uni1ECC" unicode="&#x1ecc;" horiz-adv-x="1648" 
d="M131 590q-3 172 63 332t179 277.5t271.5 186.5t332.5 66q186 2 338 -81.5t236 -226.5t81 -313q2 -139 -39 -270.5t-119.5 -238.5t-182.5 -187t-235 -123t-270 -41q-139 -2 -262.5 46t-210 131.5t-135.5 198.5t-47 243zM1305 885q0 191 -88 302t-246 111q-110 4 -209 -66
t-164.5 -182.5t-103 -248.5t-35.5 -264q0 -189 87 -299.5t245 -110.5q110 -4 209.5 65.5t165.5 181.5t103.5 247.5t35.5 263.5zM541 -276q0 78 53 130t131 52q66 0 107.5 -41t41.5 -107q0 -78 -54 -130t-132 -52q-63 0 -105 42.5t-42 105.5z" />
    <glyph glyph-name="uni1ECD" unicode="&#x1ecd;" horiz-adv-x="1161" 
d="M66 399q-3 163 74 301.5t213 219t298 77.5q200 0 323.5 -119t123.5 -309q2 -122 -43 -233.5t-123.5 -192t-188.5 -127.5t-231 -45q-197 0 -321.5 120t-124.5 308zM811 623q0 112 -42 171.5t-122 59.5q-86 4 -156.5 -78.5t-105.5 -199.5t-33 -230q0 -112 42 -171.5
t122 -59.5q64 -3 121.5 45t94.5 124t58.5 166t20.5 173zM274 -276q0 78 53.5 130t131.5 52q66 0 107.5 -41t41.5 -107q0 -78 -54 -130t-132 -52q-63 0 -105.5 42.5t-42.5 105.5z" />
    <glyph glyph-name="uni1EE4" unicode="&#x1ee4;" horiz-adv-x="1560" 
d="M201 444q0 99 26 197l142 563q12 46 12 80q0 36 -20 55t-66 23v61h551v-61q-77 -7 -116 -43.5t-58 -112.5l-154 -622q-18 -70 -18 -131q0 -127 75 -199t218 -72q336 0 442 416l147 598q13 54 13 82q0 38 -20 58t-64 26v61h403v-61q-75 -4 -113 -43.5t-59 -124.5
l-151 -614q-75 -302 -242.5 -455.5t-439.5 -153.5q-230 0 -369 127t-139 346zM483 -276q0 78 53.5 130t131.5 52q66 0 107.5 -41t41.5 -107q0 -78 -54 -130t-132 -52q-63 0 -105.5 42.5t-42.5 105.5z" />
    <glyph glyph-name="uni1EE5" unicode="&#x1ee5;" horiz-adv-x="1146" 
d="M98 238q0 56 17 129l88 354q10 52 10 67q0 56 -74 68v62l389 61h11l-166 -670q-8 -36 -8 -55q0 -50 28 -76t76 -26q49 0 101.5 33t97.5 91l110 445q10 52 10 67q0 30 -16 45.5t-57 22.5v62l389 61h10l-180 -729q-12 -49 -12 -76q0 -24 14 -36t47 -17v-62l-377 -67h-10
l33 129h-17q-114 -150 -278 -150q-105 0 -170.5 72t-65.5 195zM250 -276q0 78 53 130t131 52q66 0 108 -41t42 -107q0 -78 -54 -130t-133 -52q-63 0 -105 42.5t-42 105.5z" />
    <glyph glyph-name="Ygrave" unicode="&#x1ef2;" horiz-adv-x="1427" 
d="M1016 1845l51 -323h-102l-230 313v10h281zM1219 1423h436v-61q-91 -18 -142 -55q-42 -28 -114 -113l-506 -614l-84 -334q-18 -70 -18 -107t19 -53.5t69 -24.5v-61h-551v61q80 8 116 45t62 140l82 334l-205 616q-25 74 -54.5 107.5t-92.5 58.5v61h595v-61
q-77 -13 -111 -38.5t-34 -68.5q0 -27 12 -65l136 -428h16l346 430q74 89 74 123q0 32 -51 47v61z" />
    <glyph glyph-name="ygrave" unicode="&#x1ef3;" horiz-adv-x="1048" 
d="M723 1438l51 -324h-102l-230 313v11h281zM813 969h356v-62q-75 -20 -116 -53t-84 -106l-533 -877q-103 -169 -197 -239t-212 -70q-94 0 -158 43v221q78 -35 174 -35q199 0 307 178l6 11l-143 772q-11 58 -33.5 80.5t-81.5 23.5v62l351 69l2 -14l36 -240l66 -397h16
l250 416q45 71 45 106q0 34 -51 49v62z" />
    <glyph glyph-name="uni2002" unicode="&#x2002;" horiz-adv-x="1024" 
 />
    <glyph glyph-name="uni2003" unicode="&#x2003;" horiz-adv-x="2048" 
 />
    <glyph glyph-name="uni2009" unicode="&#x2009;" horiz-adv-x="256" 
 />
    <glyph glyph-name="uni200A" unicode="&#x200a;" horiz-adv-x="86" 
 />
    <glyph glyph-name="endash" unicode="&#x2013;" horiz-adv-x="1112" 
d="M1022 498h-891v143h891v-143z" />
    <glyph glyph-name="emdash" unicode="&#x2014;" horiz-adv-x="1660" 
d="M1571 498h-1440v143h1440v-143z" />
    <glyph glyph-name="quoteleft" unicode="&#x2018;" horiz-adv-x="501" 
d="M530 948q0 -74 -54.5 -129t-129.5 -55q-74 0 -120 47.5t-46 120.5q0 53 22 97.5t77 115.5l223 278h133l-262 -321h4q67 0 110 -43t43 -111z" />
    <glyph glyph-name="quoteright" unicode="&#x2019;" horiz-adv-x="501" 
d="M639 1290q0 -52 -22 -97.5t-76 -115.5l-224 -278h-133l262 321h-4q-67 0 -110 43t-43 111q0 74 54.5 129t129.5 55q74 0 120 -47.5t46 -120.5z" />
    <glyph glyph-name="quotesinglbase" unicode="&#x201a;" horiz-adv-x="516" 
d="M367 141q0 -51 -22.5 -97t-76.5 -116l-223 -278h-133l262 321h-4q-68 0 -111 43.5t-43 110.5q0 74 55 129t130 55q74 0 120 -47.5t46 -120.5z" />
    <glyph glyph-name="quotedblleft" unicode="&#x201c;" horiz-adv-x="940" 
d="M528 946q0 -74 -54.5 -129t-129.5 -55q-74 0 -120 47.5t-46 120.5q0 53 21.5 97.5t76.5 115.5l224 278h133l-262 -321h4q67 0 110 -43t43 -111zM971 946q0 -74 -55 -129t-130 -55q-74 0 -119.5 47.5t-45.5 120.5q0 53 21.5 97.5t76.5 115.5l223 278h133l-262 -321h4
q67 0 110.5 -43t43.5 -111z" />
    <glyph glyph-name="quotedblright" unicode="&#x201d;" horiz-adv-x="942" 
d="M637 1288q0 -52 -22 -97.5t-76 -115.5l-224 -278h-133l262 321h-4q-67 0 -110 43t-43 111q0 74 54.5 129t129.5 55q74 0 120 -47.5t46 -120.5zM1079 1288q0 -52 -22 -97.5t-76 -115.5l-223 -278h-133l262 321h-4q-67 0 -110.5 43t-43.5 111q0 74 54.5 129t129.5 55
q74 0 120 -47.5t46 -120.5z" />
    <glyph glyph-name="quotedblbase" unicode="&#x201e;" horiz-adv-x="956" 
d="M365 141q0 -51 -22.5 -97t-76.5 -116l-223 -278h-133l262 321h-4q-68 0 -111 43.5t-43 110.5q0 74 55 129t130 55q74 0 120 -47.5t46 -120.5zM807 141q0 -52 -22 -97.5t-76 -115.5l-224 -278h-133l262 321h-4q-67 0 -110 43t-43 111q0 74 54.5 129t129.5 55
q74 0 120 -47.5t46 -120.5z" />
    <glyph glyph-name="dagger" unicode="&#x2020;" horiz-adv-x="1105" 
d="M526 -299h-331l413 1294l-387 -92v311l420 -92l25 471h331l-209 -471l392 92v-311l-422 92z" />
    <glyph glyph-name="daggerdbl" unicode="&#x2021;" horiz-adv-x="1171" 
d="M563 -299h-332l209 473l-387 -92v311l418 -92l8 346l166 348l-387 -92v311l420 -92l24 471h332l-209 -471l392 92v-311l-422 92l-9 -348l-165 -346l391 92v-311l-424 92z" />
    <glyph glyph-name="bullet" unicode="&#x2022;" horiz-adv-x="960" 
d="M168 526q0 163 107 270t262 107q140 0 223.5 -87t83.5 -220q0 -156 -108 -262.5t-265 -106.5q-138 0 -221 86q-82 88 -82 213z" />
    <glyph glyph-name="ellipsis" unicode="&#x2026;" horiz-adv-x="1753" 
d="M1272 121q0 81 53 134.5t131 53.5q71 0 112.5 -43t41.5 -110q0 -79 -53.5 -132t-133.5 -53q-68 0 -109.5 43t-41.5 107zM633 121q0 81 53 134.5t131 53.5q71 0 112.5 -43t41.5 -110q0 -79 -53.5 -132t-133.5 -53q-68 0 -109.5 43t-41.5 107zM14 121q0 81 53 134.5
t132 53.5q71 0 112 -43t41 -110q0 -79 -53 -132t-133 -53q-68 0 -110 43t-42 107z" />
    <glyph glyph-name="perthousand" unicode="&#x2030;" horiz-adv-x="2226" 
d="M201 1006q0 112 50.5 212t144.5 163t208 63q132 0 217 -88q88 -88 88 -234q0 -112 -50.5 -212t-144.5 -163t-208 -63q-131 0 -219 88q-86 89 -86 234zM180 0l1313 1423h176l-1313 -1423h-176zM412 967q0 -77 26.5 -120.5t71.5 -43.5q56 0 100.5 58.5t66 140t21.5 163.5
q0 77 -26.5 118.5t-71.5 41.5q-56 0 -100.5 -57.5t-66 -138t-21.5 -162.5zM2144 422q0 -112 -50.5 -212t-144.5 -163t-208 -63q-143 0 -230 100q-109 -100 -258 -100q-131 0 -219 88q-86 89 -86 233q0 112 51 212t145 163t208 63q142 0 229 -100q109 100 258 100
q132 0 217 -88q88 -88 88 -233zM1446 465q0 77 -26.5 118.5t-71.5 41.5q-56 0 -101 -57.5t-66.5 -138.5t-21.5 -163q0 -77 26.5 -120.5t71.5 -43.5q56 0 101 58.5t66.5 140.5t21.5 164zM1933 465q0 77 -26.5 118.5t-71.5 41.5q-56 0 -100.5 -57.5t-66 -138.5t-21.5 -163
q0 -77 26.5 -120.5t71.5 -43.5q56 0 100.5 58.5t66 140.5t21.5 164z" />
    <glyph glyph-name="guilsinglleft" unicode="&#x2039;" horiz-adv-x="780" 
d="M565 25l-102 -54l-385 539l624 487l86 -86l-378 -440z" />
    <glyph glyph-name="guilsinglright" unicode="&#x203a;" horiz-adv-x="782" 
d="M215 938l102 53l385 -538l-624 -488l-86 86l379 441z" />
    <glyph glyph-name="uni203D" unicode="&#x203d;" horiz-adv-x="1044" 
d="M602 602l-57 -178h-131l143 823q-172 0 -289 -117l-69 82q89 114 207.5 177t257.5 63q188 0 311 -103t123 -259q0 -172 -130.5 -294t-365.5 -194zM657 770q172 99 172 254q0 76 -47 135zM594 156q0 -79 -53 -132t-133 -53q-68 0 -110 43t-42 107q0 81 53 134.5t131 53.5
q71 0 112.5 -43t41.5 -110z" />
    <glyph glyph-name="fraction" unicode="&#x2044;" horiz-adv-x="389" 
d="M825 1423h176l-1312 -1423h-176z" />
    <glyph glyph-name="uni2070" unicode="&#x2070;" horiz-adv-x="995" 
d="M252 1176q-2 147 64.5 273.5t184.5 201t257 71.5q167 0 272 -106.5t105 -274.5q2 -111 -37 -213.5t-107 -177t-163.5 -118t-200.5 -41.5q-170 0 -273 106q-102 108 -102 279zM891 1380q0 99 -36.5 152t-102.5 53q-72 4 -132.5 -68t-91.5 -176.5t-30 -207.5
q0 -99 34.5 -152t96.5 -53q74 -4 136.5 69.5t94.5 178t31 204.5z" />
    <glyph glyph-name="uni2074" unicode="&#x2074;" horiz-adv-x="892" 
d="M745 821h-202l49 197h-418v96l684 594h109l-129 -518h172v-172h-215zM430 1202v-12h203l57 227h-12z" />
    <glyph glyph-name="uni2075" unicode="&#x2075;" horiz-adv-x="757" 
d="M150 989l65 58q50 -52 97.5 -74.5t109.5 -22.5q88 0 144.5 42.5t56.5 109.5q0 60 -44.5 92.5t-115.5 32.5q-86 0 -180 -58h-13l205 523h483v-207h-454l-72 -182h14q65 59 152 59q94 0 159.5 -71t65.5 -179q0 -134 -100 -227.5t-248 -93.5q-103 0 -186.5 50.5
t-138.5 147.5z" />
    <glyph glyph-name="uni2076" unicode="&#x2076;" horiz-adv-x="835" 
d="M262 1030q-16 66 -16 123q0 109 42.5 215t117.5 186q155 168 374 168q147 0 258 -86l-41 -77q-79 49 -176 49q-126 0 -217 -85.5t-121 -224.5h15q81 84 190 84q104 0 174 -73q74 -71 74 -181q0 -142 -105.5 -239.5t-255.5 -97.5q-119 0 -200.5 64t-112.5 175zM721 1104
q0 67 -33 106t-92 39q-74 0 -139 -86l-6 -47q-7 -40 -7 -65q0 -74 31 -115t88 -41q71 0 114.5 58t43.5 151z" />
    <glyph glyph-name="uni2077" unicode="&#x2077;" horiz-adv-x="755" 
d="M1001 1585l-532 -764h-307v8l643 641v13h-481v209h677v-107z" />
    <glyph glyph-name="uni2078" unicode="&#x2078;" horiz-adv-x="860" 
d="M203 1044q0 101 79 168t216 86v13q-152 49 -152 168q0 110 98.5 176.5t257.5 66.5q138 0 222 -61.5t84 -159.5q0 -85 -65.5 -144.5t-176.5 -80.5v-14q77 -19 127.5 -71t50.5 -118q0 -128 -115 -205t-280 -77q-158 0 -252 69.5t-94 183.5zM797 1511q0 51 -25 79t-70 28
q-60 0 -102.5 -55.5t-42.5 -126.5q0 -49 25 -77t69 -28q61 0 103.5 54.5t42.5 125.5zM733 1108q0 60 -35.5 94.5t-95.5 34.5q-78 0 -133 -62t-55 -149q0 -60 35.5 -94.5t95.5 -34.5q77 0 132.5 63t55.5 148z" />
    <glyph glyph-name="uni2079" unicode="&#x2079;" horiz-adv-x="835" 
d="M963 1483q16 -66 16 -123q0 -109 -42.5 -216t-117.5 -186q-154 -167 -377 -167q-143 0 -258 86l41 77q82 -49 178 -49q126 0 217.5 85.5t118.5 223.5h-12q-81 -84 -190 -84q-103 0 -177 74q-71 74 -71 180q0 144 105 241t255 97q119 0 201 -64t113 -175zM504 1411
q0 -67 33 -107t92 -40q74 0 139 86l6 47q6 37 6 67q0 74 -30.5 115t-87.5 41q-71 0 -114.5 -58.5t-43.5 -150.5z" />
    <glyph glyph-name="uni2080" unicode="&#x2080;" horiz-adv-x="995" 
d="M-10 129q-2 147 64.5 274t184.5 201.5t257 71.5q167 0 271.5 -106.5t104.5 -274.5q3 -149 -63.5 -276.5t-185 -202.5t-258.5 -72q-170 0 -273 106q-102 108 -102 279zM629 334q0 99 -36.5 152t-103.5 53q-72 4 -132.5 -68.5t-91 -177t-29.5 -207.5q0 -99 34.5 -152
t96.5 -53q74 -4 136.5 69.5t94.5 178.5t31 205z" />
    <glyph glyph-name="uni2081" unicode="&#x2081;" horiz-adv-x="731" 
d="M168 -225l121 485h-312v109q98 5 165 19t126 47t100.5 88.5t75.5 140.5h154l-219 -889h-211z" />
    <glyph glyph-name="uni2082" unicode="&#x2082;" horiz-adv-x="788" 
d="M-84 -225v106l287 195q120 81 175.5 145t55.5 131q0 68 -47 109t-121 41q-104 0 -188 -72l-60 68q64 83 152 130.5t190 47.5q123 0 212.5 -77.5t89.5 -186.5q0 -103 -69 -184t-214 -169l-103 -63v-12h285v-209h-645z" />
    <glyph glyph-name="uni2083" unicode="&#x2083;" horiz-adv-x="772" 
d="M-96 -57l67 57q45 -49 92.5 -72.5t112.5 -23.5q87 0 144 40.5t57 110.5q0 108 -158 117v88l209 164v14h-330v207h637v-106l-346 -273v-12q186 -60 186 -221q0 -127 -98.5 -208t-238.5 -81q-111 0 -196.5 53.5t-137.5 145.5z" />
    <glyph glyph-name="uni2084" unicode="&#x2084;" horiz-adv-x="890" 
d="M483 -225h-202l49 196h-418v97l684 594h109l-130 -519h173v-172h-216zM168 156v-13h203l57 228h-12z" />
    <glyph glyph-name="uni2085" unicode="&#x2085;" horiz-adv-x="757" 
d="M-111 -57l66 57q50 -52 97.5 -74t109.5 -22q88 0 144 42t56 109q0 60 -44 92.5t-115 32.5q-88 0 -180 -57h-13l205 522h483v-207h-454l-72 -182h14q65 59 152 59q94 0 159.5 -70.5t65.5 -178.5q0 -135 -100 -228.5t-248 -93.5q-103 0 -187 51t-139 148z" />
    <glyph glyph-name="uni2086" unicode="&#x2086;" horiz-adv-x="835" 
d="M0 -18q-16 66 -16 122q0 109 42 216t117 186q155 168 375 168q147 0 258 -86l-41 -78q-79 49 -176 49q-126 0 -217 -85t-121 -224h15q81 84 190 84q103 0 174 -74q74 -71 74 -180q0 -142 -105.5 -240t-255.5 -98q-119 0 -200.5 64.5t-112.5 175.5zM459 55q0 67 -33 106.5
t-92 39.5q-74 0 -139 -86l-7 -47q-6 -34 -6 -66q0 -74 31 -115t88 -41q71 0 114.5 58t43.5 151z" />
    <glyph glyph-name="uni2087" unicode="&#x2087;" horiz-adv-x="753" 
d="M739 539l-532 -764h-307v8l643 641v12h-482v209h678v-106z" />
    <glyph glyph-name="uni2088" unicode="&#x2088;" horiz-adv-x="858" 
d="M-59 -4q0 101 79 168t216 86v12q-152 49 -152 168q0 110 98.5 177t257.5 67q138 0 221.5 -61.5t83.5 -159.5q0 -85 -65.5 -145t-175.5 -81v-14q77 -19 127.5 -70.5t50.5 -117.5q0 -128 -115 -205q-116 -78 -280 -78q-158 0 -252 70t-94 184zM535 463q0 51 -25 78.5
t-70 27.5q-60 0 -102.5 -55.5t-42.5 -126.5q0 -49 25 -76.5t69 -27.5q61 0 103.5 54.5t42.5 125.5zM471 59q0 60 -35.5 94.5t-95.5 34.5q-78 0 -133 -62t-55 -149q0 -60 35.5 -94.5t95.5 -34.5q77 0 132.5 63t55.5 148z" />
    <glyph glyph-name="uni2089" unicode="&#x2089;" horiz-adv-x="835" 
d="M700 434q17 -70 17 -123q0 -109 -42.5 -215t-117.5 -186q-155 -168 -377 -168q-143 0 -258 86l41 78q82 -49 178 -49q126 0 217.5 85.5t118.5 223.5h-12q-81 -84 -191 -84q-102 0 -176 74q-71 74 -71 180q0 144 105 241t255 97q119 0 200.5 -64.5t112.5 -175.5zM242 362
q0 -67 33 -107t92 -40q74 0 139 86l6 47q6 38 6 68q0 74 -31 114.5t-88 40.5q-71 0 -114 -58.5t-43 -150.5z" />
    <glyph glyph-name="uni20A6" unicode="&#x20a6;" horiz-adv-x="1314" 
d="M1399 1331q-85 -6 -115 -40.5t-55 -135.5l-88 -354h170v-119h-199l-170 -682h-162l-149 682h-178l-111 -440q-16 -69 -16 -97q0 -40 20.5 -58t71.5 -26v-61h-385v61q45 5 70 13t44 29.5t30 50t26 84.5l110 444h-172v119h201l104 424l-45 159v9h308l129 -592h163l89 352
q14 60 14 94q0 39 -20.5 58.5t-69.5 25.5v62h385v-62zM539 1028l-58 -227h123l-49 227h-16zM907 483h17l49 199h-109z" />
    <glyph glyph-name="uni20A9" unicode="&#x20a9;" horiz-adv-x="2160" 
d="M1896 1393h392v-62q-78 -12 -126 -53.5t-98 -132.5l-135 -242h187v-127h-256l-84 -149h272v-127h-344l-279 -500h-153l-47 985h-17l-549 -985h-157l-33 500h-297v127h289l-10 149h-211v127h202l-16 232q-6 97 -25 137q-14 37 -75 59v62h528v-62q-60 -11 -93 -25.5
t-50 -36.5t-19.5 -54t0.5 -78l43 -723h17l426 766l-13 213h297l45 -967h17l399 717q51 96 51 127q0 49 -78 61v62z" />
    <glyph glyph-name="uni20AA" unicode="&#x20aa;" horiz-adv-x="1499" 
d="M57 0l349 1393h274q206 0 327 -91.5t121 -259.5q0 -62 -18 -135l-145 -585h-203l147 596q21 82 21 147q0 104 -62 152.5t-196 48.5h-74l-317 -1266h-224zM928 0q-206 0 -327.5 91t-121.5 259q0 59 19 137l145 584h203l-148 -594q-20 -79 -20 -147q0 -104 62.5 -153.5
t195.5 -49.5h74l315 1266h223l-346 -1393h-274z" />
    <glyph glyph-name="Euro" unicode="&#x20ac;" horiz-adv-x="1366" 
d="M1389 1343v-311h-62q-29 116 -102 180t-172 64q-143 0 -257.5 -99.5t-177.5 -267.5h601v-127h-637q-18 -84 -23 -168h584v-127h-578q20 -151 108 -230t230 -79q172 0 314 121l65 -70q-87 -126 -211 -192t-266 -66q-222 0 -366.5 142.5t-159.5 373.5h-162v127h162
q3 63 26 168h-112v127h153q91 229 283 371q193 141 442 141q177 0 318 -78z" />
    <glyph glyph-name="uni20B4" unicode="&#x20b4;" horiz-adv-x="1290" 
d="M1282 920v-127h-1094v127h693q59 38 87.5 82t28.5 102q0 80 -49.5 126t-144.5 46q-236 0 -295 -250h-62v307q71 38 171.5 63t201.5 25q200 0 310 -93.5t110 -231.5q0 -99 -53 -176h96zM115 498v127h1093v-127h-665q-119 -76 -119 -187q0 -89 62.5 -141.5t162.5 -52.5
q123 0 208 72.5t142 226.5h62v-322q-180 -123 -440 -123q-191 0 -316 95t-125 245q0 107 53 187h-118z" />
    <glyph glyph-name="uni20B8" unicode="&#x20b8;" horiz-adv-x="1325" 
d="M1358 1266h-1131v127h1131v-127zM662 1040h-89q-126 0 -193 -50t-91 -156h-62v329h1131v-329h-62q-20 107 -89 156.5t-201 49.5h-74l-197 -788q-14 -60 -14 -90q0 -40 19.5 -61t72.5 -40v-61h-532v61q84 20 122 58t62 133z" />
    <glyph glyph-name="uni20B9" unicode="&#x20b9;" horiz-adv-x="1169" 
d="M1313 1266h-459v-17q143 -58 178 -198h195v-127h-191q-16 -99 -98.5 -181t-204 -128t-252.5 -46h-4v-16l428 -549v-4h-321l-434 575v121h217q164 0 266 59.5t127 168.5h-516v127h518q-18 106 -103 160.5t-219 54.5h-110v127h983v-127z" />
    <glyph glyph-name="uni20BA" unicode="&#x20ba;" horiz-adv-x="1308" 
d="M1253 592q-54 -300 -250.5 -446t-551.5 -146h-381v61q49 7 74.5 16.5t44 33.5t30 57.5t29.5 96.5q1 6 2 9l59 242l-190 -51v125l225 59l39 164l-190 -51v125l225 61l53 215q14 60 14 88q0 35 -18 54t-61 26v62h501v-62q-74 -7 -107 -41.5t-57 -122.5l-34 -141l473 127
v-125l-506 -137l-41 -164l473 127v-125l-506 -135l-115 -461q407 0 478 459h288z" />
    <glyph glyph-name="uni20BD" unicode="&#x20bd;" horiz-adv-x="1290" 
d="M561 586l-35 -142h371v-127h-403l-27 -106q-10 -52 -10 -70q0 -38 21.5 -57t72.5 -23v-61h-512v61q73 6 109 40t55 110l26 106h-155v127h186l174 701q19 87 19 108q0 37 -18 55.5t-60 22.5v62h442q225 0 367.5 -102.5t142.5 -264.5q0 -213 -162 -326q-159 -114 -428 -114
h-176zM729 1266l-137 -553h113q157 0 253 90q97 94 97 231q0 109 -68 170.5t-180 61.5h-78z" />
    <glyph glyph-name="uni20BF" unicode="&#x20bf;" horiz-adv-x="1343" 
d="M936 702q130 -26 207.5 -102t77.5 -180q0 -122 -70 -215t-188 -144t-267 -59l-45 -186h-114l45 184h-125l-45 -184h-115l45 184h-342v61q43 3 70.5 13t47 33.5t30.5 53.5t24 83l227 915q17 73 17 92q0 74 -80 80v62h338l47 188h115l-48 -188h60q51 0 65 -2l48 190h114
l-51 -207q138 -30 213.5 -109t75.5 -186q0 -137 -102 -232t-275 -128v-17zM684 1266l-119 -475h160q140 0 224.5 72t84.5 196q0 99 -64.5 153t-176.5 54h-109zM590 127q151 0 247.5 87t96.5 232q0 105 -75 163.5t-206 58.5h-118l-136 -541h191z" />
    <glyph glyph-name="uni2116" unicode="&#x2116;" horiz-adv-x="2482" 
d="M6 61q79 6 115.5 46t60.5 137l260 1036l-67 131v12h393l420 -970h16l185 731q14 49 14 94q0 38 -20 58t-64 26v61h405v-61q-79 -8 -115.5 -44.5t-60.5 -137.5l-297 -1180h-188l-485 1114h-17l-219 -872q-16 -66 -16 -97q0 -72 86 -84v-61h-406v61zM1569 645
q-3 136 65.5 256.5t189.5 192.5t261 69q166 0 270.5 -104t104.5 -268q0 -139 -67.5 -257t-186 -188t-260.5 -70q-165 0 -271 103t-106 266zM2218 842q0 90 -37 142t-100 52q-74 4 -138.5 -68.5t-99 -175t-33.5 -196.5q0 -91 36 -142t102 -51q73 -4 137.5 68t99 174.5
t33.5 196.5zM1501 0h717v139h-717v-139z" />
    <glyph glyph-name="uni2117" unicode="&#x2117;" horiz-adv-x="1761" 
d="M188 727q-2 156 56.5 298t159 243.5t241.5 160.5t297 56q156 2 297.5 -56.5t243 -159.5t160 -242.5t55.5 -299.5q3 -156 -55.5 -297.5t-160 -243t-243 -160.5t-297.5 -57q-156 -2 -297 57t-242 160.5t-159 243t-56 297.5zM1567 729q0 136 -47.5 254t-130.5 202
t-199 132.5t-248 48.5q-174 3 -318.5 -80.5t-226 -231t-78.5 -325.5q-3 -181 78.5 -329t226 -231.5t318.5 -80.5q175 -3 320 80.5t226.5 231.5t78.5 329zM905 631v-156q0 -41 15 -57.5t57 -24.5v-51h-328v51q36 8 49 24.5t13 57.5v510q0 42 -13 58.5t-49 21.5v51h342
q148 0 238 -61t90 -176q0 -116 -90.5 -182t-233.5 -66h-90zM905 1022v-297h58q73 0 114 40t41 114q0 143 -155 143h-58z" />
    <glyph glyph-name="trademark" unicode="&#x2122;" horiz-adv-x="1847" 
d="M514 1331h-35q-57 0 -91.5 -28.5t-57.5 -100.5h-54v221h658v-221h-53q-13 71 -48.5 100t-105.5 29h-22l-123 -491q-9 -30 -9 -54q0 -20 8 -28t27 -10v-52h-313v52q42 5 63 24.5t33 67.5zM1026 1278q10 45 10 57q0 18 -9.5 25t-35.5 12v51h281l78 -469h14l307 469h293v-51
q-44 -8 -65 -29t-33 -73l-107 -430q-6 -27 -6 -45q0 -38 37 -47v-52h-305v52q38 5 58 23.5t32 66.5l94 381h-12l-342 -523h-88l-88 525h-13l-94 -381q-6 -27 -6 -45q0 -44 37 -47v-52h-238v52q38 5 60 25t33 67z" />
    <glyph glyph-name="Omega" unicode="&#x2126;" horiz-adv-x="1593" 
d="M74 0v242h463l2 10q-165 51 -264 180.5t-99 296.5q-2 138 58 271.5t163.5 234t251 161t309.5 56.5q171 2 313.5 -71.5t224.5 -203.5t79 -286q0 -225 -167 -404t-427 -235v-10h399v-242h-600l74 295q118 48 211 152t142.5 236t49.5 267q0 165 -79.5 256.5t-219.5 91.5
q-100 4 -190 -54.5t-149 -151.5t-93 -204.5t-32 -215.5q0 -287 190 -383l-72 -289h-538z" />
    <glyph glyph-name="onethird" unicode="&#x2153;" horiz-adv-x="2019" 
d="M383 594l115 463h-297v102q74 4 128.5 13t104.5 28.5t87 50.5t68.5 77.5t55.5 111.5h148l-209 -846h-201zM1827 1423h-176l-1313 -1423h176zM1212 160l64 55q86 -92 197 -92q82 0 136 38.5t54 104.5q0 104 -150 113v84l199 155v15h-315v196h608v-102l-330 -258v-12
q176 -54 176 -211q0 -121 -94 -198t-227 -77q-105 0 -185.5 50.5t-132.5 138.5z" />
    <glyph glyph-name="twothirds" unicode="&#x2154;" horiz-adv-x="1970" 
d="M125 596v102l272 185q115 77 168 138t53 126t-44.5 103t-114.5 38q-101 0 -180 -67l-58 63q136 170 326 170q118 0 202.5 -73.5t84.5 -178.5q0 -99 -65.5 -175.5t-203.5 -160.5l-98 -59v-12h272v-199h-614zM1798 1423h-176l-1313 -1423h176zM1184 160l63 55
q86 -92 197 -92q82 0 136 38.5t54 104.5q0 104 -149 113v84l198 155v15h-315v196h608v-102l-329 -258v-12q176 -54 176 -211q0 -121 -94.5 -198t-227.5 -77q-105 0 -185 50t-132 139z" />
    <glyph glyph-name="uni2155" unicode="&#x2155;" horiz-adv-x="2019" 
d="M383 594l115 463h-297v102q74 4 128.5 13t104.5 28.5t87 50.5t68.5 77.5t55.5 111.5h148l-209 -846h-201zM1827 1423h-176l-1313 -1423h176zM1212 160l64 55q44 -49 89.5 -70.5t107.5 -21.5q85 0 137.5 40t52.5 103q0 58 -42 89.5t-110 31.5q-81 0 -172 -55h-12l197 497
h458v-196h-432l-67 -174h12q61 55 145 55q90 0 152.5 -67t62.5 -171q0 -127 -95 -216t-236 -89q-97 0 -177.5 48.5t-134.5 140.5z" />
    <glyph glyph-name="uni2156" unicode="&#x2156;" horiz-adv-x="1968" 
d="M125 596v102l272 185q115 77 168 138t53 126t-44.5 103t-114.5 38q-101 0 -180 -67l-58 63q136 170 326 170q118 0 202.5 -73.5t84.5 -178.5q0 -99 -65.5 -175.5t-203.5 -160.5l-98 -59v-12h272v-199h-614zM1796 1423h-176l-1313 -1423h176zM1182 160l63 55
q44 -49 89.5 -70.5t107.5 -21.5q85 0 137.5 40t52.5 103q0 58 -41.5 89.5t-109.5 31.5q-81 0 -172 -55h-13l197 497h459v-196h-432l-68 -174h12q61 55 146 55q90 0 152.5 -67t62.5 -171q0 -127 -95.5 -216t-236.5 -89q-97 0 -177 48.5t-134 140.5z" />
    <glyph glyph-name="uni2157" unicode="&#x2157;" horiz-adv-x="1953" 
d="M121 756l63 55q86 -92 197 -92q82 0 136 38.5t54 104.5q0 104 -149 113v84l199 155v15h-316v196h608v-102l-329 -258v-12q176 -54 176 -211q0 -121 -94.5 -198t-227.5 -77q-105 0 -185 50t-132 139zM1776 1423h-177l-1312 -1423h176zM1161 160l64 55q44 -50 89.5 -71
t106.5 -21q85 0 138 40t53 103q0 58 -42 89.5t-110 31.5q-81 0 -172 -55h-12l197 497h458v-196h-432l-67 -174h12q61 55 145 55q90 0 152.5 -67t62.5 -171q0 -127 -95 -216t-236 -89q-97 0 -177.5 48.5t-134.5 140.5z" />
    <glyph glyph-name="uni2158" unicode="&#x2158;" horiz-adv-x="2152" 
d="M696 594h-192l47 186h-397v92l651 566h102l-123 -494h164v-164h-205zM397 956v-12h193l55 217h-12zM1954 1423h-176l-1313 -1423h176zM1339 160l64 55q44 -50 89.5 -71t106.5 -21q85 0 138 40t53 103q0 58 -42 89.5t-110 31.5q-81 0 -172 -55h-12l197 497h458v-196h-432
l-67 -174h12q61 55 145 55q90 0 152.5 -67t62.5 -171q0 -127 -95 -216t-236 -89q-97 0 -177.5 48.5t-134.5 140.5z" />
    <glyph glyph-name="uni2159" unicode="&#x2159;" horiz-adv-x="2072" 
d="M383 594l115 463h-297v102q74 4 128.5 13t104.5 28.5t87 50.5t68.5 77.5t55.5 111.5h148l-209 -846h-201zM1827 1423h-176l-1313 -1423h176zM1300 199q-16 66 -16 118q0 103 40 204.5t112 176.5q151 160 358 160q141 0 246 -82l-39 -74q-82 48 -168 48
q-120 0 -207.5 -81.5t-114.5 -213.5h13q77 80 182 80q99 0 166 -70q70 -70 70 -172q0 -136 -101 -229t-244 -93q-113 0 -190 61.5t-107 166.5zM1737 268q0 64 -32 102t-87 38q-75 0 -133 -82l-6 -45q-4 -28 -4 -62q0 -149 112 -149q67 0 108.5 55.5t41.5 142.5z" />
    <glyph glyph-name="uni215A" unicode="&#x215a;" horiz-adv-x="2002" 
d="M109 754l63 55q44 -49 89.5 -70.5t107.5 -21.5q85 0 137.5 40t52.5 103q0 58 -41.5 89.5t-109.5 31.5q-81 0 -172 -55h-13l197 497h459v-196h-433l-67 -174h12q61 55 146 55q90 0 152.5 -67t62.5 -171q0 -127 -95.5 -216t-236.5 -89q-97 0 -177 48.5t-134 140.5z
M1765 1423h-176l-1313 -1423h177zM1239 199q-16 66 -16 118q0 104 40 205.5t111 175.5q151 160 359 160q140 0 245 -82l-39 -74q-82 48 -167 48q-120 0 -207.5 -81.5t-114.5 -213.5h12q77 80 183 80q98 0 165 -70q70 -70 70 -172q0 -136 -100.5 -229t-243.5 -93
q-113 0 -190 61.5t-107 166.5zM1675 268q0 64 -32 102t-87 38q-75 0 -133 -82l-6 -45q-4 -28 -4 -62q0 -72 29 -110.5t84 -38.5q67 0 108 55.5t41 142.5z" />
    <glyph glyph-name="oneeighth" unicode="&#x215b;" horiz-adv-x="2101" 
d="M383 594l115 463h-297v102q74 4 128.5 13t104.5 28.5t87 50.5t68.5 77.5t55.5 111.5h148l-209 -846h-201zM1827 1423h-176l-1313 -1423h176zM1257 213q0 96 75 159.5t206 82.5v12q-68 20 -105.5 61.5t-37.5 98.5q0 104 94 167.5t244 63.5q132 0 211 -59t79 -152
q0 -81 -61.5 -137.5t-167.5 -77.5v-12q76 -19 123 -67.5t47 -112.5q0 -121 -109 -195t-268 -74q-152 0 -241 67.5t-89 174.5zM1823 657q0 48 -23 74.5t-67 26.5q-58 0 -98 -52t-40 -120q0 -47 24 -74t67 -27q58 0 97.5 52t39.5 120zM1763 272q0 57 -34 90t-91 33
q-75 0 -127.5 -59t-52.5 -141q0 -57 34 -90t91 -33q73 0 126.5 60t53.5 140z" />
    <glyph glyph-name="threeeighths" unicode="&#x215c;" horiz-adv-x="2043" 
d="M125 756l63 55q86 -92 197 -92q82 0 136 38.5t54 104.5q0 104 -149 113v84l199 155v15h-316v196h609v-102l-330 -258v-12q176 -54 176 -211q0 -121 -94.5 -198t-227.5 -77q-105 0 -185 50t-132 139zM1780 1423h-176l-1313 -1423h176zM1210 213q0 96 75 159.5t206 82.5v12
q-68 20 -105.5 61.5t-37.5 98.5q0 104 94 167.5t244 63.5q132 0 211 -59t79 -152q0 -81 -61.5 -137.5t-167.5 -77.5v-12q76 -19 123 -67.5t47 -112.5q0 -121 -109 -195t-268 -74q-152 0 -241 67.5t-89 174.5zM1776 657q0 48 -23 74.5t-67 26.5q-58 0 -98 -52t-40 -120
q0 -47 23.5 -74t66.5 -27q58 0 98 52t40 120zM1716 272q0 57 -34 90t-91 33q-75 0 -127.5 -59t-52.5 -141q0 -57 34 -90t91 -33q73 0 126.5 60t53.5 140z" />
    <glyph glyph-name="fiveeighths" unicode="&#x215d;" horiz-adv-x="2033" 
d="M111 754l63 55q44 -49 89.5 -70.5t107.5 -21.5q85 0 137.5 40t52.5 103q0 58 -41.5 89.5t-109.5 31.5q-81 0 -172 -55h-13l197 497h459v-196h-432l-68 -174h12q61 55 146 55q90 0 152.5 -67t62.5 -171q0 -127 -95.5 -216t-236.5 -89q-97 0 -177 48.5t-134 140.5z
M1767 1423h-176l-1312 -1423h176zM1198 213q0 96 75 159.5t206 82.5v12q-68 20 -106 62t-38 98q0 104 94 167.5t244 63.5q132 0 211.5 -59t79.5 -152q0 -81 -61.5 -137.5t-167.5 -77.5v-12q76 -19 123 -67.5t47 -112.5q0 -121 -109 -195t-268 -74q-152 0 -241 67.5
t-89 174.5zM1763 657q0 48 -23 74.5t-67 26.5q-58 0 -97.5 -52t-39.5 -120q0 -47 23.5 -74t66.5 -27q58 0 97.5 52t39.5 120zM1704 272q0 57 -34 90t-91 33q-75 0 -127.5 -59t-52.5 -141q0 -57 34 -90t91 -33q73 0 126.5 60t53.5 140z" />
    <glyph glyph-name="seveneighths" unicode="&#x215e;" horiz-adv-x="2060" 
d="M928 1321l-506 -727h-293v8l612 610v13h-458v198h645v-102zM1796 1423h-176l-1313 -1423h176zM1227 213q0 96 75 159.5t205 82.5v12q-68 20 -105.5 61.5t-37.5 98.5q0 104 94 167.5t244 63.5q132 0 211.5 -59t79.5 -152q0 -81 -62 -137.5t-168 -77.5v-12
q76 -19 123 -67.5t47 -112.5q0 -122 -108 -195q-109 -74 -269 -74q-151 0 -240 67t-89 175zM1792 657q0 48 -23 74.5t-67 26.5q-58 0 -97.5 -52t-39.5 -120q0 -47 23.5 -74t66.5 -27q58 0 97.5 52t39.5 120zM1733 272q0 57 -34 90t-91 33q-75 0 -128 -59t-53 -141
q0 -57 34 -90t91 -33q73 0 127 60t54 140z" />
    <glyph glyph-name="uni215F" unicode="&#x215f;" horiz-adv-x="1478" 
d="M469 594l115 463h-297v102q74 4 128.5 13t104.5 28.5t87 50.5t68.5 77.5t55.5 111.5h148l-209 -846h-201zM1913 1423h-176l-1313 -1423h176z" />
    <glyph glyph-name="arrowleft" unicode="&#x2190;" horiz-adv-x="1433" 
d="M496 563h845v-143h-845v-17l290 -335l-84 -93l-622 508v13l622 510l84 -93l-290 -333v-17z" />
    <glyph glyph-name="arrowup" unicode="&#x2191;" horiz-adv-x="1128" 
d="M719 0h-148v1036h-16l-332 -291l-92 84l510 623h10l510 -623l-92 -84l-334 291h-16v-1036z" />
    <glyph glyph-name="arrowright" unicode="&#x2192;" horiz-adv-x="1433" 
d="M96 420v143h846v17l-291 333l84 93l623 -510v-13l-623 -508l-84 93l291 335v17h-846z" />
    <glyph glyph-name="arrowdown" unicode="&#x2193;" horiz-adv-x="1134" 
d="M539 387v1036h147v-1036h16l334 291l92 -84l-510 -623h-10l-510 623l92 84l332 -291h17z" />
    <glyph glyph-name="uni2196" unicode="&#x2196;" horiz-adv-x="1349" 
d="M537 735l667 -659l-98 -105l-668 664l-12 -10l-33 -445l-125 -6l-80 801l9 8l800 -80l-6 -125l-442 -30z" />
    <glyph glyph-name="uni2197" unicode="&#x2197;" horiz-adv-x="1081" 
d="M96 -29l-98 105l668 659l-13 13l-442 30l-6 125l801 80l8 -8l-80 -801l-125 6l-33 445l-12 10z" />
    <glyph glyph-name="uni2198" unicode="&#x2198;" horiz-adv-x="1351" 
d="M817 233l-667 660l98 104l667 -663l13 10l33 444l124 7l80 -801l-8 -8l-801 80l6 124l443 31z" />
    <glyph glyph-name="uni2199" unicode="&#x2199;" horiz-adv-x="1081" 
d="M987 997l98 -104l-667 -660l12 -12l442 -31l7 -124l-801 -80l-8 8l80 801l124 -7l33 -444l12 -10z" />
    <glyph glyph-name="uni21A4" unicode="&#x21a4;" horiz-adv-x="1542" 
d="M1200 563v379h148v-903h-148v381h-698v-17l291 -335l-84 -93l-623 508v13l623 510l84 -93l-291 -333v-17h698z" />
    <glyph glyph-name="uni21A5" unicode="&#x21a5;" horiz-adv-x="1247" 
d="M733 1036h-16v-893h364v-143h-872v143h360v893h-16l-332 -291l-92 84l510 623h10l510 -623l-92 -84z" />
    <glyph glyph-name="uni21A6" unicode="&#x21a6;" horiz-adv-x="1542" 
d="M756 913l84 93l622 -508v-13l-622 -510l-84 93l291 333v17h-699v-379h-147v903h147v-381h699v17z" />
    <glyph glyph-name="uni21A7" unicode="&#x21a7;" horiz-adv-x="1249" 
d="M815 387l334 291l92 -84l-510 -623h-10l-510 623l92 84l332 -291h16v893h-360v143h872v-143h-364v-893h16z" />
    <glyph glyph-name="uni21B0" unicode="&#x21b0;" horiz-adv-x="1669" 
d="M616 1055h846v-1055h-147v911h-699v-16l291 -336l-84 -92l-622 508v12l622 510l84 -92l-291 -334v-16z" />
    <glyph glyph-name="uni21B1" unicode="&#x21b1;" horiz-adv-x="1456" 
d="M799 1405l84 92l622 -510v-12l-622 -508l-84 92l291 336v16h-699v-911h-147v1055h846v16z" />
    <glyph glyph-name="uni21B2" unicode="&#x21b2;" horiz-adv-x="1460" 
d="M1190 543v911h147v-1055h-845v-16l290 -334l-84 -92l-622 510v12l622 508l84 -92l-290 -336v-16h698z" />
    <glyph glyph-name="uni21B3" unicode="&#x21b3;" horiz-adv-x="1669" 
d="M887 895l84 92l622 -508v-12l-622 -510l-84 92l291 334v16h-846v1055h147v-911h699v16z" />
    <glyph glyph-name="partialdiff" unicode="&#x2202;" horiz-adv-x="1181" 
d="M51 430q0 195 130.5 330t328.5 135q116 0 204 -53t136 -146h12q6 56 6 105q0 257 -136.5 391t-399.5 133v127q243 10 425 -69t284 -245t102 -401q1 -118 -26.5 -232t-81.5 -211.5t-127 -171t-169.5 -114.5t-203.5 -39q-211 0 -347.5 131t-136.5 330zM825 563
q-25 67 -84 107.5t-133 40.5q-129 0 -205 -99q-77 -95 -77 -235q0 -123 57.5 -199t151.5 -76q122 0 197.5 120t92.5 341z" />
    <glyph glyph-name="emptyset" unicode="&#x2205;" horiz-adv-x="1230" 
d="M983 842q133 -146 133 -357q0 -219 -144.5 -367.5t-355.5 -148.5q-153 0 -274 80l-117 -143l-98 76l121 149q-131 143 -131 354q0 142 65.5 260t180.5 186t253 68q154 0 273 -79l125 153l94 -78zM338 242l463 569q-80 51 -185 51q-152 0 -255 -108t-103 -269
q0 -140 80 -243zM975 485q0 142 -82 246l-463 -573q82 -52 186 -52q152 0 255.5 109.5t103.5 269.5z" />
    <glyph glyph-name="Delta" unicode="&#x2206;" horiz-adv-x="1290" 
d="M1130 0h-1173v123l840 1300h159l174 -1302v-121zM156 156v-17h682v13l-115 858h-16z" />
    <glyph glyph-name="product" unicode="&#x220f;" horiz-adv-x="1548" 
d="M1671 1362q-89 -12 -120 -44.5t-56 -131.5l-235 -948q-17 -73 -17 -97q0 -38 19 -55t69 -25v-61h-549v61q87 12 118 44t56 133l261 1042h-486l-260 -1042q-16 -69 -16 -97q0 -38 19 -55t69 -25v-61h-549v61q87 12 118 44t56 133l235 948q17 80 17 100q0 36 -18.5 52.5
t-67.5 23.5v61h1337v-61z" />
    <glyph glyph-name="summation" unicode="&#x2211;" horiz-adv-x="1486" 
d="M561 240h752v-240h-1034v123l428 549l-435 628v123h1026v-336h-61q-20 104 -81 150.5t-181 46.5h-357v-12l306 -436v-123l-363 -461v-12z" />
    <glyph glyph-name="minus" unicode="&#x2212;" horiz-adv-x="1187" 
d="M1081 412h-968v143h968v-143z" />
    <glyph glyph-name="uni2215" unicode="&#x2215;" horiz-adv-x="1024" 
d="M1143 1423h176l-1313 -1423h-176z" />
    <glyph glyph-name="radical" unicode="&#x221a;" horiz-adv-x="1036" 
d="M807 1423h457v-143h-355l-393 -1280h-197l-264 811h154l203 -635h12z" />
    <glyph glyph-name="infinity" unicode="&#x221e;" horiz-adv-x="1511" 
d="M117 541q0 145 88 239t227 94q189 0 324 -204h12q135 204 322 204q139 0 227 -94q90 -96 90 -239q0 -144 -90 -240q-88 -94 -227 -94q-186 0 -322 203h-12q-142 -203 -324 -203q-139 0 -227 94t-88 240zM698 541q-62 105 -122 152.5t-132 47.5q-83 0 -135.5 -54.5
t-52.5 -145.5t52.5 -146t135.5 -55q72 0 132 48t122 153zM1266 541q0 91 -53 145.5t-134 54.5q-72 0 -133 -48t-121 -152q60 -104 121 -152.5t133 -48.5q81 0 134 55t53 146z" />
    <glyph glyph-name="integral" unicode="&#x222b;" horiz-adv-x="598" 
d="M-72 -285v131q58 -22 121 -22q104 0 162.5 66t58.5 192v1135q0 186 90 287.5t246 101.5q84 0 150 -29v-131q-58 22 -121 22q-104 0 -162.5 -66t-58.5 -192v-1132q0 -187 -90 -289t-246 -102q-86 0 -150 28z" />
    <glyph glyph-name="approxequal" unicode="&#x2248;" horiz-adv-x="1171" 
d="M115 539q-4 130 65 211t182 81q96 0 211 -59l72 -39q102 -55 158 -55q52 0 82 38.5t30 110.5h148q2 -131 -67.5 -211.5t-184.5 -80.5q-103 0 -217 63l-72 39q-89 51 -149 51q-55 0 -83.5 -38t-27.5 -111h-147zM115 147q-4 130 65 211.5t182 81.5q96 0 211 -59l72 -39
q102 -55 158 -55q52 0 82 38.5t30 110.5h148q2 -131 -67.5 -212t-184.5 -81q-101 0 -217 64l-72 39q-89 51 -149 51q-54 0 -83 -38.5t-28 -111.5h-147z" />
    <glyph glyph-name="notequal" unicode="&#x2260;" horiz-adv-x="1294" 
d="M1135 739v-143h-426l-80 -221h506v-144h-557l-84 -231h-136l84 231h-276v144h328l79 221h-407v143h459l82 230h135l-82 -230h375z" />
    <glyph glyph-name="lessequal" unicode="&#x2264;" horiz-adv-x="1267" 
d="M1094 350v-149l-969 336v135l969 340v-152l-756 -250v-12zM1094 117v-144h-969v144h969z" />
    <glyph glyph-name="greaterequal" unicode="&#x2265;" horiz-adv-x="1333" 
d="M1153 537l-969 -336v149l756 248v12l-756 250v152l969 -340v-135zM1153 -27h-969v144h969v-144z" />
    <glyph glyph-name="angleleft" unicode="&#x2329;" horiz-adv-x="690" 
d="M446 -301l-127 -18l-251 1009l718 932l113 -66l-524 -919z" />
    <glyph glyph-name="angleright" unicode="&#x232a;" horiz-adv-x="690" 
d="M328 1595l127 19l252 -1010l-719 -932l-113 66l524 919z" />
    <glyph glyph-name="uni2460" unicode="&#x2460;" horiz-adv-x="1671" 
d="M135 629q-3 173 65 332.5t184 275.5t277.5 184t337.5 64q193 0 344 -84t234.5 -233.5t83.5 -338.5q3 -173 -65 -333t-184 -277t-277.5 -185.5t-337.5 -64.5q-192 0 -343.5 85t-235 235.5t-83.5 339.5zM1534 827q0 239 -150 389t-385 150q-151 2 -289.5 -57t-237 -159
t-156 -236.5t-54.5 -282.5q0 -239 149 -391t384 -152q151 -2 289.5 57.5t237.5 160.5t156.5 238t55.5 283zM748 313l114 463h-297v103q74 4 128.5 13t104.5 28t87.5 50t69 77.5t55.5 111.5h147l-209 -846h-200z" />
    <glyph glyph-name="uni2461" unicode="&#x2461;" horiz-adv-x="1734" 
d="M166 629q-3 173 65 332.5t184 275.5t277.5 184t337.5 64q193 0 344 -84t234.5 -233.5t83.5 -338.5q3 -173 -65 -333t-184 -277t-278 -185.5t-338 -64.5q-192 0 -343.5 85t-234.5 235.5t-83 339.5zM1565 827q0 239 -150 389t-385 150q-151 2 -289.5 -57t-237 -159
t-156 -236.5t-54.5 -282.5q0 -239 148.5 -391t383.5 -152q151 -2 289.5 57.5t237.5 160.5t157 238t56 283zM567 326v102l273 184q115 76 168 138t53 127t-45 103t-115 38q-100 0 -180 -68l-57 64q136 170 325 170q118 0 202.5 -73.5t84.5 -178.5q0 -99 -65 -176t-203 -160
l-99 -59v-13h273v-198h-615z" />
    <glyph glyph-name="uni2462" unicode="&#x2462;" horiz-adv-x="1734" 
d="M166 629q-3 173 65 332.5t184 275.5t277.5 184t337.5 64q193 0 344 -84t234.5 -233.5t83.5 -338.5q3 -173 -65 -333t-184 -277t-278 -185.5t-338 -64.5q-192 0 -343.5 85t-234.5 235.5t-83 339.5zM1565 827q0 239 -150 389t-385 150q-151 2 -289.5 -57t-237 -159
t-156 -236.5t-54.5 -282.5q0 -239 148.5 -391t383.5 -152q151 -2 289.5 57.5t237.5 160.5t157 238t56 283zM528 485l64 56q86 -92 196 -92q82 0 136.5 38.5t54.5 104.5q0 104 -150 113v83l199 156v14h-315v197h608v-102l-330 -258v-13q176 -54 176 -211q0 -121 -94 -197.5
t-227 -76.5q-105 0 -185.5 50t-132.5 138z" />
    <glyph glyph-name="uni2463" unicode="&#x2463;" horiz-adv-x="1734" 
d="M166 629q-3 173 65 332.5t184 275.5t277.5 184t337.5 64q193 0 344 -84t234.5 -233.5t83.5 -338.5q3 -173 -65 -333t-184 -277t-278 -185.5t-338 -64.5q-192 0 -343.5 85t-234.5 235.5t-83 339.5zM1565 827q0 239 -150 389t-385 150q-151 2 -289.5 -57t-237 -159
t-156 -236.5t-54.5 -282.5q0 -239 148.5 -391t383.5 -152q151 -2 289.5 57.5t237.5 160.5t157 238t56 283zM1014 326h-193l47 186h-397v92l651 565h103l-123 -493h164v-164h-205zM715 688v-12h192l56 217h-13z" />
    <glyph glyph-name="uni2464" unicode="&#x2464;" horiz-adv-x="1734" 
d="M166 629q-3 173 65 332.5t184 275.5t277.5 184t337.5 64q193 0 344 -84t234.5 -233.5t83.5 -338.5q3 -173 -65 -333t-184 -277t-278 -185.5t-338 -64.5q-192 0 -343.5 85t-234.5 235.5t-83 339.5zM1565 827q0 239 -150 389t-385 150q-151 2 -289.5 -57t-237 -159
t-156 -236.5t-54.5 -282.5q0 -239 148.5 -391t383.5 -152q151 -2 289.5 57.5t237.5 160.5t157 238t56 283zM502 475l63 55q44 -49 89.5 -70.5t107.5 -21.5q84 0 137 40.5t53 103.5q0 58 -41.5 89t-109.5 31q-81 0 -172 -55h-13l197 498h459v-197h-432l-68 -174h12
q61 55 146 55q90 0 152.5 -66.5t62.5 -170.5q0 -127 -95.5 -216t-236.5 -89q-97 0 -177 48t-134 140z" />
    <glyph glyph-name="uni2465" unicode="&#x2465;" horiz-adv-x="1734" 
d="M166 629q-3 173 65 332.5t184 275.5t277.5 184t337.5 64q193 0 344 -84t234.5 -233.5t83.5 -338.5q3 -173 -65 -333t-184 -277t-278 -185.5t-338 -64.5q-192 0 -343.5 85t-234.5 235.5t-83 339.5zM1565 827q0 239 -150 389t-385 150q-151 2 -289.5 -57t-237 -159
t-156 -236.5t-54.5 -282.5q0 -239 148.5 -391t383.5 -152q151 -2 289.5 57.5t237.5 160.5t157 238t56 283zM561 514q-16 66 -16 119q0 104 40 205.5t111 175.5q151 160 359 160q140 0 245 -82l-38 -74q-80 47 -168 47q-120 0 -207.5 -81.5t-114.5 -213.5h12q77 80 183 80
q99 0 166 -70q69 -69 69 -172q0 -136 -100.5 -228.5t-243.5 -92.5q-113 0 -190 61t-107 166zM997 584q0 64 -31.5 101.5t-86.5 37.5q-76 0 -134 -82l-6 -45q-4 -28 -4 -61q0 -72 29 -111t84 -39q67 0 108 56t41 143z" />
    <glyph glyph-name="uni2466" unicode="&#x2466;" horiz-adv-x="1734" 
d="M166 629q-3 173 65 332.5t184 275.5t277.5 184t337.5 64q193 0 344 -84t234.5 -233.5t83.5 -338.5q3 -173 -65 -333t-184 -277t-278 -185.5t-338 -64.5q-192 0 -343.5 85t-234.5 235.5t-83 339.5zM1565 827q0 239 -150 389t-385 150q-151 2 -289.5 -57t-237 -159
t-156 -236.5t-54.5 -282.5q0 -239 148.5 -391t383.5 -152q151 -2 289.5 57.5t237.5 160.5t157 238t56 283zM1329 1040l-506 -727h-293v9l613 610v12h-459v199h645v-103z" />
    <glyph glyph-name="uni2467" unicode="&#x2467;" horiz-adv-x="1734" 
d="M166 629q-3 173 65 332.5t184 275.5t277.5 184t337.5 64q193 0 344 -84t234.5 -233.5t83.5 -338.5q3 -173 -65 -333t-184 -277t-278 -185.5t-338 -64.5q-192 0 -343.5 85t-234.5 235.5t-83 339.5zM1565 827q0 239 -150 389t-385 150q-151 2 -289.5 -57t-237 -159
t-156 -236.5t-54.5 -282.5q0 -239 148.5 -391t383.5 -152q151 -2 289.5 57.5t237.5 160.5t157 238t56 283zM524 528q0 96 75 159.5t206 82.5v12q-68 20 -105.5 61.5t-37.5 98.5q0 104 93.5 168t243.5 64q132 0 211.5 -59t79.5 -152q0 -81 -61.5 -137.5t-167.5 -77.5v-13
q76 -19 123 -67.5t47 -112.5q0 -121 -109 -195q-107 -73 -268 -73q-152 0 -241 67t-89 174zM1090 973q0 48 -23.5 74t-67.5 26q-58 0 -97.5 -52t-39.5 -120q0 -47 23.5 -73.5t66.5 -26.5q58 0 98 52t40 120zM1030 588q0 57 -34 90t-91 33q-75 0 -127.5 -59.5t-52.5 -141.5
q0 -57 34 -90t91 -33q73 0 126.5 60.5t53.5 140.5z" />
    <glyph glyph-name="uni2468" unicode="&#x2468;" horiz-adv-x="1734" 
d="M166 629q-3 173 65 332.5t184 275.5t277.5 184t337.5 64q193 0 344 -84t234.5 -233.5t83.5 -338.5q3 -173 -65 -333t-184 -277t-278 -185.5t-338 -64.5q-192 0 -343.5 85t-234.5 235.5t-83 339.5zM1565 827q0 239 -150 389t-385 150q-151 2 -289.5 -57t-237 -159
t-156 -236.5t-54.5 -282.5q0 -239 148.5 -391t383.5 -152q151 -2 289.5 57.5t237.5 160.5t157 238t56 283zM1286 944q17 -70 17 -119q0 -103 -40 -204.5t-112 -176.5q-150 -159 -358 -159q-141 0 -246 82l39 73q80 -47 168 -47q120 0 207 81.5t114 213.5h-12
q-77 -80 -182 -80q-98 0 -168 70q-68 71 -68 172q0 136 100.5 228.5t243.5 92.5q113 0 190 -61t107 -166zM850 874q0 -63 32 -101t87 -38q75 0 133 82l6 45q4 28 4 62q0 72 -29 110.5t-84 38.5q-67 0 -108 -56t-41 -143z" />
    <glyph glyph-name="uni24EA" unicode="&#x24ea;" horiz-adv-x="1734" 
d="M168 629q-3 173 65 332.5t184 275.5t277.5 184t337.5 64q193 0 344 -84t234.5 -233.5t83.5 -338.5q3 -173 -65 -333t-184 -277t-278 -185.5t-338 -64.5q-192 0 -343.5 85t-234.5 235.5t-83 339.5zM1567 827q0 239 -150 389t-385 150q-151 2 -289.5 -57t-237 -159
t-156 -236.5t-54.5 -282.5q0 -239 148.5 -391t383.5 -152q151 -2 289.5 57.5t237.5 160.5t157 238t56 283zM510 651q0 218 138.5 369t342.5 151q161 0 258 -100q101 -101 101 -262q0 -145 -63 -265t-174 -189.5t-247 -69.5q-161 0 -258 100q-98 101 -98 266zM1118 846
q0 96 -34.5 145t-98.5 49q-68 3 -125.5 -66t-87.5 -168.5t-29 -195.5q0 -96 32 -145t93 -49q70 -4 129.5 65t90.5 169t30 196z" />
    <glyph glyph-name="uni24FF" unicode="&#x24ff;" horiz-adv-x="1738" 
d="M1700 838q4 -172 -66 -333.5t-189.5 -280t-286 -189t-345.5 -66.5q-187 0 -335 82.5t-231 230.5t-83 336q-4 172 66 333t189.5 279t286 188t345.5 67q284 0 466.5 -181.5t182.5 -465.5zM510 651q0 -165 98 -266q97 -100 258 -100q136 0 247 69.5t174 189.5t63 265
q0 161 -101 262q-97 100 -258 100q-204 0 -342.5 -151t-138.5 -369zM1118 846q1 -96 -30 -196t-90.5 -169t-129.5 -65q-61 0 -93 49t-32 145q-1 96 29 195.5t87.5 168.5t125.5 66q64 0 98.5 -49t34.5 -145z" />
    <glyph glyph-name="lozenge" unicode="&#x25ca;" horiz-adv-x="1214" 
d="M535 0h-125l-267 723l650 704h125l268 -733zM590 285h16l320 342l-189 512h-16l-318 -344z" />
    <glyph glyph-name="openbullet" unicode="&#x25e6;" horiz-adv-x="1015" 
d="M160 506q0 166 126 289t296 123q134 0 222.5 -89.5t88.5 -218.5q0 -164 -128.5 -286.5t-301.5 -122.5q-129 0 -216 89t-87 216zM762 606q0 87 -52 139t-139 52q-109 0 -194.5 -85.5t-85.5 -199.5q0 -85 51 -137.5t133 -52.5q113 0 200 84.5t87 199.5z" />
    <glyph glyph-name="uni2776" unicode="&#x2776;" horiz-adv-x="1675" 
d="M1667 838q4 -172 -66 -333.5t-189.5 -280t-286 -189t-345.5 -66.5q-187 0 -335 82.5t-231 230.5t-83 336q-4 172 66 333t189.5 279t286 188t345.5 67q284 0 466.5 -181.5t182.5 -465.5zM860 774l-115 -463h201l209 846h-147q-24 -65 -55.5 -111.5t-69 -77.5t-87.5 -50
t-104.5 -28t-128.5 -13v-103h297z" />
    <glyph glyph-name="uni2777" unicode="&#x2777;" horiz-adv-x="1675" 
d="M1667 838q4 -172 -66 -333.5t-189.5 -280t-286 -189t-345.5 -66.5q-187 0 -335 82.5t-231 230.5t-83 336q-4 172 66 333t189.5 279t286 188t345.5 67q284 0 466.5 -181.5t182.5 -465.5zM535 426v-102h614v198h-272v13l98 59q138 83 203 160t65 176q0 105 -84.5 178.5
t-202.5 73.5q-189 0 -325 -170l57 -64q80 68 180 68q70 0 115 -38.5t45 -103.5t-53 -126t-168 -138z" />
    <glyph glyph-name="uni2778" unicode="&#x2778;" horiz-adv-x="1673" 
d="M1667 842q4 -172 -66 -333.5t-189.5 -280t-286 -189t-345.5 -66.5q-284 0 -466.5 182.5t-182.5 467.5q-4 172 66 333t189.5 278.5t286 187.5t345.5 67q284 0 466.5 -181.5t182.5 -465.5zM561 543l-63 -56q110 -188 317 -188q133 0 227.5 76.5t94.5 197.5q0 157 -176 211
v13l329 258v102h-608v-196h315v-15l-198 -155v-84q149 -9 149 -113q0 -66 -54 -104.5t-136 -38.5q-111 0 -197 92z" />
    <glyph glyph-name="uni2779" unicode="&#x2779;" horiz-adv-x="1673" 
d="M1667 842q4 -172 -66 -333.5t-189.5 -280t-286 -189t-345.5 -66.5q-284 0 -466.5 182.5t-182.5 467.5q-4 172 66 333t189.5 278.5t286 187.5t345.5 67q284 0 466.5 -181.5t182.5 -465.5zM788 328h193l47 186h205v164h-164l123 493h-102l-652 -565v-92h398zM682 678v12
l236 205h12l-56 -217h-192z" />
    <glyph glyph-name="uni277A" unicode="&#x277a;" horiz-adv-x="1673" 
d="M1667 842q4 -172 -66 -333.5t-189.5 -280t-286 -189t-345.5 -66.5q-284 0 -466.5 182.5t-182.5 467.5q-4 172 66 333t189.5 278.5t286 187.5t345.5 67q284 0 466.5 -181.5t182.5 -465.5zM535 532l-64 -55q54 -92 134 -140t177 -48q141 0 236.5 89t95.5 216
q0 104 -62.5 170.5t-152.5 66.5q-84 0 -145 -55h-13l68 174h432v197h-459l-196 -498h12q92 56 172 56q68 0 110 -31.5t42 -89.5q0 -63 -53.5 -103.5t-137.5 -40.5q-61 0 -106.5 21t-89.5 71z" />
    <glyph glyph-name="uni277B" unicode="&#x277b;" horiz-adv-x="1673" 
d="M1667 842q4 -172 -66 -333.5t-189.5 -280t-286 -189t-345.5 -66.5q-284 0 -466.5 182.5t-182.5 467.5q-4 172 66 333t189.5 278.5t286 187.5t345.5 67q284 0 466.5 -181.5t182.5 -465.5zM528 516q30 -105 107 -166t190 -61q143 0 243.5 92.5t100.5 228.5q0 103 -69 172
q-67 70 -166 70q-105 0 -182 -80h-13q27 132 114.5 213.5t207.5 81.5q88 0 168 -47l39 74q-105 82 -246 82q-207 0 -358 -160q-72 -75 -112 -176.5t-40 -204.5q0 -53 16 -119zM965 586q0 -87 -41.5 -143t-108.5 -56q-55 0 -84 39t-29 111q0 26 5 61l6 45q58 82 133 82
q55 0 87 -38t32 -101z" />
    <glyph glyph-name="uni277C" unicode="&#x277c;" horiz-adv-x="1675" 
d="M1667 838q4 -172 -66 -333.5t-189.5 -280t-286 -189t-345.5 -66.5q-187 0 -335 82.5t-231 230.5t-83 336q-4 172 66 333t189.5 279t286 188t345.5 67q284 0 466.5 -181.5t182.5 -465.5zM793 311l505 727v103h-645v-199h459v-12l-612 -611v-8h293z" />
    <glyph glyph-name="uni277D" unicode="&#x277d;" horiz-adv-x="1673" 
d="M1667 842q4 -172 -66 -333.5t-189.5 -280t-286 -189t-345.5 -66.5q-284 0 -466.5 182.5t-182.5 467.5q-4 172 66 333t189.5 278.5t286 187.5t345.5 67q284 0 466.5 -181.5t182.5 -465.5zM492 530q0 -107 88.5 -174t240.5 -67q162 0 269 73q108 74 108 195q0 64 -47 112.5
t-123 67.5v13q106 21 167.5 77.5t61.5 137.5q0 93 -79 152t-211 59q-150 0 -244 -64t-94 -168q0 -57 37.5 -98.5t105.5 -61.5v-12q-130 -19 -205 -82.5t-75 -159.5zM1057 975q0 -68 -39.5 -120t-97.5 -52q-43 0 -67 26.5t-24 73.5q0 68 40 120t98 52q44 0 67 -26t23 -74z
M997 590q0 -80 -53.5 -140.5t-126.5 -60.5q-57 0 -91 33t-34 90q0 82 52.5 141.5t127.5 59.5q57 0 91 -33t34 -90z" />
    <glyph glyph-name="uni277E" unicode="&#x277e;" horiz-adv-x="1673" 
d="M1667 842q4 -172 -66 -333.5t-189.5 -280t-286 -189t-345.5 -66.5q-284 0 -466.5 182.5t-182.5 467.5q-4 172 66 333t189.5 278.5t286 187.5t345.5 67q284 0 466.5 -181.5t182.5 -465.5zM1253 946q-30 105 -107 166.5t-190 61.5q-143 0 -243.5 -93t-100.5 -229
q0 -101 68 -172q70 -70 168 -70q105 0 182 80h12q-27 -132 -114 -213.5t-207 -81.5q-88 0 -168 47l-39 -73q105 -82 246 -82q208 0 358 159q72 75 112 176.5t40 204.5q0 49 -17 119zM817 877q0 87 41.5 142.5t108.5 55.5q112 0 112 -149q0 -34 -4 -62l-6 -45
q-58 -82 -133 -82q-55 0 -87 38t-32 102z" />
    <glyph glyph-name="uni300A" unicode="&#x300a;" horiz-adv-x="1169" 
d="M446 -301l-127 -18l-249 1009l714 932l117 -68l-559 -913zM926 -301l-129 -18l-240 983l729 958l115 -66l-572 -942z" />
    <glyph glyph-name="uni300B" unicode="&#x300b;" horiz-adv-x="1169" 
d="M326 1595l129 19l239 -983l-729 -959l-115 66l572 942zM805 1595l127 19l250 -1010l-715 -932l-117 68l559 913z" />
    <glyph glyph-name="uni300C" unicode="&#x300c;" horiz-adv-x="755" 
d="M1014 1593v-135h-371l-199 -792h-276l231 927h615z" />
    <glyph glyph-name="uni300D" unicode="&#x300d;" horiz-adv-x="514" 
d="M-410 -299v135h371l199 793h276l-231 -928h-615z" />
    <glyph glyph-name="uni300E" unicode="&#x300e;" horiz-adv-x="907" 
d="M649 666h-479l229 927h746l-66 -274h-268zM567 1503l-186 -747h100l164 653h266l23 94h-367z" />
    <glyph glyph-name="uni300F" unicode="&#x300f;" horiz-adv-x="802" 
d="M240 612h479l-230 -927h-745l66 274h268zM322 -225l186 747h-100l-164 -653h-267l-22 -94h367z" />
    <glyph glyph-name="uni3010" unicode="&#x3010;" horiz-adv-x="698" 
d="M-18 -299l473 1892h544v-12q-322 -241 -494.5 -558t-172.5 -677q0 -361 196 -633v-12h-546z" />
    <glyph glyph-name="uni3011" unicode="&#x3011;" horiz-adv-x="694" 
d="M799 1593l-473 -1892h-545v12q322 241 495 558t173 677q0 359 -197 633v12h547z" />
    <glyph glyph-name="uni3014" unicode="&#x3014;" horiz-adv-x="659" 
d="M461 -238l-96 -88l-369 367l319 1272l531 315l69 -106l-319 -191l-342 -1362z" />
    <glyph glyph-name="uni3015" unicode="&#x3015;" horiz-adv-x="661" 
d="M283 1532l96 88l369 -367l-320 -1271l-530 -316l-70 107l319 190l342 1362z" />
    <glyph glyph-name="uniE000" unicode="&#xe000;" horiz-adv-x="1669" 
d="M1847 1401l-1052 -1430l-658 854l117 90l541 -702l936 1270z" />
    <glyph glyph-name="uniE001" unicode="&#xe001;" horiz-adv-x="2162" 
d="M1935 1249h-1585v144h1585v-144zM1935 655h-1585v144h1585v-144zM1935 61h-1585v144h1585v-144z" />
    <glyph glyph-name="uniE002" unicode="&#xe002;" horiz-adv-x="2103" 
d="M1839 0h-1454v1454h1454v-1454zM532 1311v-1168h1160v1168h-1160z" />
    <glyph glyph-name="uniE003" unicode="&#xe003;" horiz-adv-x="2041" 
d="M1692 143v529h147v-672h-1454v1454h909v-143h-762v-1168h1160zM1098 299l-426 598l125 80l311 -432l707 907l112 -88z" />
    <glyph glyph-name="uniE004" unicode="&#xe004;" horiz-adv-x="1454" 
d="M1180 766l-510 -623h581v-143h-1163v143h571l-509 623l92 84l331 -291h17v864h147v-864h17l333 291z" />
    <glyph glyph-name="uniE005" unicode="&#xe005;" horiz-adv-x="1437" 
d="M618 846v577h148v-577h16l334 291l92 -84l-510 -623h-10l-510 623l92 84l332 -291h16zM1276 0h-1163v143h1163v-143z" />
    <glyph glyph-name="uniF8FF" unicode="&#xf8ff;" horiz-adv-x="1832" 
d="M455 336q0 20 20 49q23 31 84 92q-99 -22 -133 -22q-115 0 -170 28q-63 34 -63 82q0 41 53 84q-66 39 -115 88q-64 70 -76 135q-8 44 -8 68q0 58 37 125q47 80 109 125q30 22 131 65q63 29 108 41q103 33 225 45l111 15l80 12q49 6 100 6q63 0 142 -8q105 -11 177.5 -27
t159.5 -49q98 -40 230 -139q86 -68 86 -188q0 -76 -43 -146q-28 -48 -65 -79.5t-107 -71.5q43 -49 53 -78q6 -18 6 -33q0 -62 -104 -88q-75 -16 -133 -16q-6 0 -16.5 0.5t-30.5 1.5t-35 2l-68 6q33 -44 41 -72q2 -4 2 -18q0 -31 -29 -37l-28 -4q-30 0 -74 30
q-38 -32 -70 -32q-29 0 -51 22q-47 -35 -69 -35q-21 0 -58 29q-39 -20 -55 -20q-18 0 -39 24q-42 -33 -80 -33q-41 0 -82 41q-20 -26 -40.5 -38.5t-51.5 -12.5q-49 0 -59 23q-2 2 -2 8zM791 1235q-113 -9 -166 -21q-79 -19 -88 -49q-2 -2 -2 -12q0 -15 8 -23q26 -33 73 -51
q40 -18 138 -28q82 -7 141 -7q67 0 102 3q172 9 217 90q13 28 5 41q-15 27 -78 36q-33 6 -56 11q-66 14 -96 14q-108 0 -198 -4zM1280 739q54 12 106 45q54 39 54 76q0 25 -4 45q-12 44 -50 68q-45 26 -90 26q-103 0 -157 -16q-117 -36 -140 -156l-2 -16q0 -28 12.5 -43
t43.5 -29q42 -22 88 -22q24 0 54.5 5t55.5 11t29 6zM649 711q55 13 93.5 56t33.5 85q-9 86 -78 113q-59 26 -147 26q-87 0 -174 -37q-101 -44 -101 -86q0 -88 78 -125q43 -19 95 -32q52 -15 114 -15q15 0 32.5 3t33.5 7zM795 485q10 0 25.5 22.5t23.5 47.5q15 50 12 78
q-3 15 -20 43q-6 6 -13 6q-5 0 -16 -8q-23 -14 -33 -41q-22 -51 -16 -86l6 -35l14 -23q16 -4 17 -4zM977 512l6 35q6 35 -16 86q-12 31 -35 41q-14 14 -27 2q-18 -28 -20 -43q-3 -28 12 -78q8 -25 23.5 -47.5t25.5 -22.5q1 0 17 4q1 1 14 23zM674 72q-13 8 -56 28
q-73 35 -106 64q-28 22 -43 43q-10 23 -4 31q9 18 33 18q34 0 90 -35q20 20 34 27.5t37 7.5q39 0 72 -23q44 23 70 23q32 0 69 -29q4 2 17.5 11t27.5 15.5t25 6.5q16 0 26 -6t29 -25l1 2q2 2 4.5 5t6 6t8.5 6.5t11 6t14.5 4t18.5 1.5q29 0 41.5 -9t27.5 -36q23 27 31 33
q30 24 55 24q2 0 5.5 -0.5t10 -1.5t11.5 -2q26 -7 47 -28q8 -8 8 -17q0 -10 -20 -43q-9 -15 -51 -51l-72 -59q-83 -62 -184 -62q-57 0 -111 4q-96 9 -184 60z" />
    <glyph glyph-name="AE.ss07" horiz-adv-x="1912" 
d="M1008 1423h1009l-86 -342h-65l2 31q0 91 -59.5 129.5t-200.5 38.5h-258l-123 -492h131q106 0 168.5 35.5t91.5 116.5h65l-110 -442h-66q4 32 4 34q0 113 -165 113h-154l-125 -502h297q140 0 225 54.5t146 197.5h65l-98 -395h-1090v61q86 9 121 50t62 143l36 149h-413
l-101 -133q-86 -112 -86 -153t72 -56v-61h-434v61q81 25 143.5 79.5t151.5 170.5zM1012 1196l-488 -649h342l162 649h-16z" />
    <glyph glyph-name="AEacute.ss07" horiz-adv-x="1912" 
d="M1868 1845v-10l-369 -313h-119l183 323h305zM1008 1423h1009l-86 -342h-65l2 31q0 91 -59.5 129.5t-200.5 38.5h-258l-123 -492h131q106 0 168.5 35.5t91.5 116.5h65l-110 -442h-66q4 32 4 34q0 113 -165 113h-154l-125 -502h297q140 0 225 54.5t146 197.5h65l-98 -395
h-1090v61q86 9 121 50t62 143l36 149h-413l-101 -133q-86 -112 -86 -153t72 -56v-61h-434v61q81 25 143.5 79.5t151.5 170.5zM1012 1196l-488 -649h342l162 649h-16z" />
    <glyph glyph-name="uni01E2.ss07" horiz-adv-x="1912" 
d="M1229 1733h631v-125h-631v125zM1008 1423h1009l-86 -342h-65l2 31q0 91 -59.5 129.5t-200.5 38.5h-258l-123 -492h131q106 0 168.5 35.5t91.5 116.5h65l-110 -442h-66q4 32 4 34q0 113 -165 113h-154l-125 -502h297q140 0 225 54.5t146 197.5h65l-98 -395h-1090v61
q86 9 121 50t62 143l36 149h-413l-101 -133q-86 -112 -86 -153t72 -56v-61h-434v61q81 25 143.5 79.5t151.5 170.5zM1012 1196l-488 -649h342l162 649h-16z" />
    <glyph glyph-name="C.ss07" horiz-adv-x="1398" 
d="M133 618q-3 167 64.5 322.5t182 268.5t271.5 179.5t326 63.5q290 0 498 -129l-80 -319h-66q-17 144 -104.5 222.5t-237.5 78.5q-147 4 -270.5 -84.5t-191 -233t-64.5 -305.5q0 -226 127.5 -357.5t326.5 -131.5q191 0 361 126l67 -83q-232 -265 -561 -265q-132 -2 -253 48
t-208.5 137t-138.5 208t-49 254z" />
    <glyph glyph-name="Cacute.ss07" horiz-adv-x="1398" 
d="M993 1522h-119l183 323h305v-10zM133 618q-3 167 64.5 322.5t182 268.5t271.5 179.5t326 63.5q290 0 498 -129l-80 -319h-66q-17 144 -104.5 222.5t-237.5 78.5q-147 4 -270.5 -84.5t-191 -233t-64.5 -305.5q0 -226 127.5 -357.5t326.5 -131.5q191 0 361 126l67 -83
q-232 -265 -561 -265q-132 -2 -253 48t-208.5 137t-138.5 208t-49 254z" />
    <glyph glyph-name="Ccaron.ss07" horiz-adv-x="1398" 
d="M1272 1845h141l-373 -323h-110l-191 323h117l166 -137zM133 618q-3 167 64.5 322.5t182 268.5t271.5 179.5t326 63.5q290 0 498 -129l-80 -319h-66q-17 144 -104.5 222.5t-237.5 78.5q-147 4 -270.5 -84.5t-191 -233t-64.5 -305.5q0 -226 127.5 -357.5t326.5 -131.5
q191 0 361 126l67 -83q-232 -265 -561 -265q-132 -2 -253 48t-208.5 137t-138.5 208t-49 254z" />
    <glyph glyph-name="Ccedilla.ss07" horiz-adv-x="1398" 
d="M461 682q0 -226 127.5 -357.5t326.5 -131.5q191 0 361 126l67 -83q-232 -265 -561 -265h-30l-41 -63l2 -4q20 4 30 4q59 0 98.5 -38t39.5 -103q0 -84 -67 -138.5t-167 -54.5q-140 0 -229 109l45 59q62 -53 143 -53q50 0 81.5 21.5t31.5 56.5q0 26 -20.5 41.5t-55.5 15.5
q-29 0 -65 -19h-13l105 175q-232 37 -384.5 215.5t-152.5 422.5q-3 167 64.5 322.5t182 268.5t271.5 179.5t326 63.5q290 0 498 -129l-80 -319h-66q-17 144 -104.5 222.5t-237.5 78.5q-147 4 -270.5 -84.5t-191 -233t-64.5 -305.5z" />
    <glyph glyph-name="Ccircumflex.ss07" horiz-adv-x="1398" 
d="M788 1522h-141l373 323h110l191 -323h-117l-166 137zM133 618q-3 167 64.5 322.5t182 268.5t271.5 179.5t326 63.5q290 0 498 -129l-80 -319h-66q-17 144 -104.5 222.5t-237.5 78.5q-147 4 -270.5 -84.5t-191 -233t-64.5 -305.5q0 -226 127.5 -357.5t326.5 -131.5
q191 0 361 126l67 -83q-232 -265 -561 -265q-132 -2 -253 48t-208.5 137t-138.5 208t-49 254z" />
    <glyph glyph-name="Cdotaccent.ss07" horiz-adv-x="1398" 
d="M866 1679q0 78 53.5 130.5t131.5 52.5q66 0 107.5 -41t41.5 -107q0 -78 -54 -130t-132 -52q-63 0 -105.5 42t-42.5 105zM133 618q-3 167 64.5 322.5t182 268.5t271.5 179.5t326 63.5q290 0 498 -129l-80 -319h-66q-17 144 -104.5 222.5t-237.5 78.5q-147 4 -270.5 -84.5
t-191 -233t-64.5 -305.5q0 -226 127.5 -357.5t326.5 -131.5q191 0 361 126l67 -83q-232 -265 -561 -265q-132 -2 -253 48t-208.5 137t-138.5 208t-49 254z" />
    <glyph glyph-name="E.ss07" horiz-adv-x="1320" 
d="M1210 395l-98 -395h-1139v61q84 12 118.5 48t58.5 127l239 954q14 60 14 88q0 37 -20.5 57t-69.5 27v61h1114l-86 -342h-65l2 31q0 91 -60 129.5t-202 38.5h-301l-123 -492h156q132 0 188 33t92 119h66l-111 -442h-65q2 10 2 41q0 61 -40 83.5t-151 22.5h-172l-125 -502
h332q146 0 231 54q85 52 150 198h65z" />
    </font>
</defs>
</svg>
