<?xml version="1.0" encoding="UTF-8"?><svg xmlns="http://www.w3.org/2000/svg" viewBox="0 0 142 80"><defs><style>.c{fill:var(--color-magali);}</style></defs><g id="a"/><g id="b"><g><polygon class="c" points="51.76 30.72 46.51 44.03 57.58 44.03 52.12 30.72 51.76 30.72"/><path class="c" d="M102,0L39.31-.34C17.22,.04-.38,18.26,0,40.34c.38,22.09,18.6,39.69,40.68,39.3l61.31,.35c22.09,0,40-17.91,40-40S124.09,0,102,0Zm-29.96,58.02h-13.31v-1.46c1.92-.26,2.7-.88,2.7-2.13,0-.52-.26-1.4-.73-2.7l-1.87-4.52h-13.57l-1.72,4.37c-.47,1.2-.73,2.08-.73,2.76,0,1.25,.94,1.98,3.07,2.24v1.46h-10.5v-1.46c2.29-.42,3.12-1.46,4.42-4.73l11.91-29.95h3.59l12.32,29.59c.78,1.82,1.4,3.07,1.92,3.74,.57,.68,1.4,1.09,2.5,1.35v1.46Zm12.38,0h-10.24v-1.46c1.92-.31,2.18-.68,2.18-3.8V26.92c0-2.44-.42-3.07-2.65-3.22v-1.46l8.22-1.4h.31v31.93c0,3.17,.26,3.48,2.18,3.8v1.46Zm14.2,0h-10.24v-1.46c1.92-.31,2.18-.68,2.18-3.8V26.92c0-2.44-.42-3.07-2.65-3.22v-1.46l8.22-1.4h.31v31.93c0,3.17,.26,3.48,2.18,3.8v1.46Z"/></g></g></svg>