<?xml version="1.0" encoding="UTF-8"?><svg xmlns="http://www.w3.org/2000/svg" viewBox="0 0 142 80"><defs><style>.c{fill:var(--color-magali);}</style></defs><g id="a"/><g id="b"><path class="c" d="M40,75c-19.3,0-35-15.7-35-35S20.7,5,40,5h62c19.3,0,35,15.7,35,35s-15.7,35-35,35H40Zm62,5c22.09,0,40-17.91,40-40S124.09,0,102,0L39.31-.34C17.22,.04-.38,18.26,0,40.34s18.6,39.69,40.68,39.3l61.31,.35Zm-32.46-24.79c.57,.68,1.4,1.09,2.5,1.35v1.46h-13.31v-1.46c1.92-.26,2.7-.88,2.7-2.13,0-.52-.26-1.4-.73-2.7l-1.87-4.52h-13.57l-1.72,4.37c-.47,1.2-.73,2.08-.73,2.76,0,1.25,.94,1.98,3.07,2.24v1.46h-10.5v-1.46c2.29-.42,3.12-1.46,4.42-4.73l11.91-29.95h3.59l12.32,29.59c.78,1.82,1.4,3.07,1.92,3.74Zm-23.04-11.18h11.08l-5.46-13.31h-.36l-5.25,13.31Zm29.85,8.74V26.92c0-2.44-.42-3.07-2.65-3.22v-1.46l8.22-1.4h.31v31.93c0,3.17,.26,3.48,2.18,3.8v1.46h-10.24v-1.46c1.92-.31,2.18-.68,2.18-3.8Zm14.2,0V26.92c0-2.44-.42-3.07-2.65-3.22v-1.46l8.22-1.4h.31v31.93c0,3.17,.26,3.48,2.18,3.8v1.46h-10.24v-1.46c1.92-.31,2.18-.68,2.18-3.8Z"/></g></svg>