<?xml version="1.0" encoding="UTF-8"?><svg xmlns="http://www.w3.org/2000/svg" viewBox="0 0 271 80"><defs><style>.c{fill:var(--color-magali);}</style></defs><g id="a"/><g id="b"><path class="c" d="M40,75c-19.3,0-35-15.7-35-35S20.7,5,40,5H231c19.3,0,35,15.7,35,35s-15.7,35-35,35H40Zm191,5c22.09,0,40-17.91,40-40S253.09,0,231,0L39.31-.34C17.22,.04-.38,18.26,0,40.34s18.6,39.69,40.68,39.3l190.31,.35Z"/><g><path class="c" d="M60.13,57.62l-11.49-29.54c-.68-1.72-1.25-2.91-1.82-3.59-.57-.73-1.4-1.25-2.6-1.56v-1.46h13.31v1.46c-1.92,.36-2.65,1.04-2.65,2.24,0,.78,.26,1.82,.83,3.22l7.7,20.07h.36l7.9-20.28c.57-1.46,.88-2.5,.88-3.17,0-1.09-.68-1.66-2.39-2.08v-1.46h9.98v1.46c-1.3,.42-2.24,.99-2.86,1.77-.57,.73-1.25,1.98-1.92,3.74l-11.49,29.17h-3.74Z"/><path class="c" d="M91.91,56.16v1.46h-10.14v-1.46c1.87-.31,2.13-.62,2.13-3.74v-13.83c0-2.34-.57-2.81-2.6-2.96v-1.46l8.16-1.4h.31v19.66c0,3.12,.26,3.43,2.13,3.74Zm-5.04-34.89c2.03,0,3.74,1.72,3.74,3.74,0,2.13-1.66,3.85-3.74,3.85s-3.74-1.72-3.74-3.85,1.66-3.74,3.74-3.74Z"/><path class="c" d="M108.29,58.29c-7.02,0-12.43-5.1-12.43-13.05,0-7.18,5.2-12.9,11.75-12.9,5.82,0,9.78,3.59,9.78,9.78v1.72h-15.86c.16,6.29,3.69,9.78,8.89,9.78,2.55,0,4.78-.78,6.71-2.34l1.4,1.4c-2.76,3.74-6.03,5.62-10.24,5.62Zm3.38-17.11c0-3.69-1.72-5.98-4.58-5.98s-4.84,2.18-5.41,5.98h9.98Z"/><path class="c" d="M137.56,37.08l-1.4-4.06h6.24l5.3,15.76h.36l3.33-9.72c.36-1.09,.57-1.92,.57-2.55,0-1.04-.52-1.66-1.92-2.03v-1.46h8.32v1.46c-2.08,.62-2.91,1.82-3.9,4.73l-6.4,18.41h-2.96l-5.67-16.59h-.36l-6.55,16.59h-2.96l-6.4-18.72c-.88-2.55-1.72-3.74-3.43-4.42v-1.46h10.92v1.46c-1.4,.36-1.92,.94-1.92,1.92,0,.47,.21,1.25,.57,2.39l3.28,10.04h.36l4.63-11.75Z"/><path class="c" d="M189.61,58.19c-2.65,0-4.47-1.56-4.47-4v-.1h-.36c-1.72,2.81-4,4.21-6.97,4.21-3.48,0-6.24-2.5-6.24-6.03,0-3.74,2.91-5.72,8.48-7.23l5.04-1.46v-2.03c0-3.38-2.08-5.2-5.15-5.2-2.13,0-4.42,.78-6.86,2.39l-1.25-1.72c2.86-2.76,6.5-4.68,10.19-4.68,5.15,0,8.89,2.91,8.89,9.36v11.39c0,1.4,.62,2.03,1.51,2.03,.57,0,1.14-.16,1.77-.52l.83,1.56c-1.72,1.35-3.48,2.03-5.41,2.03Zm-4.52-12.12l-3.28,1.2c-2.96,1.09-4.37,2.08-4.37,4s1.3,3.02,2.96,3.02c1.92,0,3.59-1.51,4.68-3.59v-4.63Z"/><path class="c" d="M199.8,52.37V26.52c0-2.44-.42-3.07-2.65-3.22v-1.46l8.22-1.4h.31v31.93c0,3.17,.26,3.48,2.18,3.8v1.46h-10.24v-1.46c1.92-.31,2.18-.68,2.18-3.8Z"/><path class="c" d="M214,52.37V26.52c0-2.44-.42-3.07-2.65-3.22v-1.46l8.22-1.4h.31v31.93c0,3.17,.26,3.48,2.18,3.8v1.46h-10.24v-1.46c1.92-.31,2.18-.68,2.18-3.8Z"/></g></g></svg>