<?xml version="1.0" encoding="UTF-8"?><svg xmlns="http://www.w3.org/2000/svg" viewBox="0 0 80 80"><defs><style>.c{fill:var(--color-magali);}</style></defs><g id="a"/><g id="b"><g><path class="c" d="M48.26,28.63c-3.27,0-5.12,4.21-5.12,12.25s1.81,12,5.12,12,5.12-3.96,5.12-12-1.81-12.25-5.12-12.25Z"/><path class="c" d="M40,0C17.91,0,0,17.91,0,40s17.91,40,40,40,40-17.91,40-40S62.09,0,40,0Zm-8,55.37h-6.02v-20.17h-6.11v-2.49c5.03-.3,7.61-1.98,8.26-6.58h3.87v29.24Zm16.25,.6c-6.67,0-11.35-6.11-11.35-15.09s4.69-15.35,11.35-15.35,11.35,6.32,11.35,15.35-4.69,15.09-11.35,15.09Z"/></g></g></svg>