<?xml version="1.0" encoding="UTF-8"?><svg xmlns="http://www.w3.org/2000/svg" viewBox="0 0 80 80"><defs><style>.c{fill:var(--color-magali);}</style></defs><g id="a"/><g id="b"><path class="c" d="M40,5c19.3,0,35,15.7,35,35s-15.7,35-35,35S5,59.3,5,40,20.7,5,40,5m0-5C17.91,0,0,17.91,0,40s17.91,40,40,40,40-17.91,40-40S62.09,0,40,0h0Zm-12.6,35.21h-6.11v-2.49c5.03-.3,7.61-1.98,8.26-6.58h3.87v29.24h-6.02v-20.17Zm11.44,13.72c1.59,1.55,4.17,2.71,6.71,2.71,3.83,0,6.36-2.06,6.36-5.5s-2.84-4.86-7.18-4.86v-2.58l6.66-6.92v-.34h-12.51v-5.29h19.26v2.58l-9.33,9.55v.34c5.85,.52,9.12,3.87,9.12,8.21,0,5.76-5.16,9.16-10.58,9.16-4.26,0-7.44-1.98-10.02-5.46l1.5-1.59Z"/></g></svg>