<?xml version="1.0" encoding="UTF-8"?><svg xmlns="http://www.w3.org/2000/svg" viewBox="0 0 80 80"><defs><style>.c{fill:var(--color-magali);}</style></defs><g id="a"/><g id="b"><g><path class="c" d="M48.04,53.09c2.97,0,5.03-2.58,5.03-6.49,0-3.66-1.89-6.11-4.94-6.11-2.28,0-4.08,1.5-4.9,3.44v1.81c0,4.6,1.72,7.35,4.82,7.35Z"/><path class="c" d="M40,0C17.91,0,0,17.91,0,40s17.91,40,40,40,40-17.91,40-40S62.09,0,40,0Zm-7.57,55.37h-6.02v-20.17h-6.11v-2.49c5.03-.3,7.61-1.98,8.26-6.58h3.87v29.24Zm11.05-14.96c1.38-2.24,3.78-3.66,6.92-3.66,4.69,0,8.69,3.53,8.69,9.03,0,5.89-4.82,10.19-10.79,10.19-4.64,0-8.08-2.71-9.8-6.84-.82-1.93-1.2-4.17-1.2-6.62,0-3.66,.99-7.31,2.75-10.19,2.58-4.08,6.84-6.54,11.78-6.54,2.75,0,5.46,.82,7.53,2.32l-1.08,2.24c-1.38-.82-3.31-1.33-5.25-1.33-5.98,0-9.37,4.17-9.89,11.39h.34Z"/></g></g></svg>