<?xml version="1.0" encoding="UTF-8"?><svg xmlns="http://www.w3.org/2000/svg" viewBox="0 0 80 80"><defs><style>.c{fill:var(--color-magali);}</style></defs><g id="a"/><g id="b"><g><path class="c" d="M48.26,41.36c-3.14,0-5.25,2.32-5.25,5.89s2.15,5.72,5.25,5.72,5.29-2.28,5.29-5.72-2.06-5.89-5.29-5.89Z"/><path class="c" d="M40,0C17.91,0,0,17.91,0,40s17.91,40,40,40,40-17.91,40-40S62.09,0,40,0Zm-7.83,55.37h-6.02v-20.17h-6.11v-2.49c5.03-.3,7.61-1.98,8.26-6.58h3.87v29.24Zm16.08,.6c-6.75,0-11.27-3.4-11.27-8.69,0-3.74,2.75-6.49,7.09-7.35v-.34c-3.66-.86-5.98-3.31-5.98-6.45,0-4.56,4.09-7.61,10.15-7.61s10.15,3.05,10.15,7.61c0,3.14-2.36,5.63-6.02,6.49v.34c4.34,.82,7.18,3.57,7.18,7.31,0,5.29-4.6,8.69-11.31,8.69Z"/><path class="c" d="M48.26,38.43c2.54,0,4.17-2.06,4.17-5.03s-1.59-4.86-4.17-4.86-4.13,1.89-4.13,4.86,1.59,5.03,4.13,5.03Z"/></g></g></svg>