<?xml version="1.0" encoding="UTF-8"?><svg xmlns="http://www.w3.org/2000/svg" viewBox="0 0 80 80"><defs><style>.c{fill:var(--color-magali);}</style></defs><g id="a"/><g id="b"><path class="c" d="M40,0C17.91,0,0,17.91,0,40s17.91,40,40,40,40-17.91,40-40S62.09,0,40,0Zm11.48,59.31H27.82v-2.92l9.4-9.18c2.54-2.48,4.37-4.64,5.56-6.48,1.19-1.89,1.78-3.94,1.78-6.26,0-4.75-3.29-7.83-8.1-7.83-2.86,0-5.35,.97-7.45,2.97l-1.62-1.73c2.81-3.73,6.7-5.99,11.45-5.99,7.18,0,12.2,4.59,12.2,11.07,0,3.73-1.67,6.97-4.27,9.83-1.3,1.46-3.02,3.13-5.18,5.08l-5.72,5.24v.38h15.61v5.83Z"/></g></svg>