<?xml version="1.0" encoding="UTF-8"?><svg xmlns="http://www.w3.org/2000/svg" viewBox="0 0 80 80"><defs><style>.c{fill:var(--color-magali);}</style></defs><g id="a"/><g id="b"><path class="c" d="M40,5c19.3,0,35,15.7,35,35s-15.7,35-35,35S5,59.3,5,40,20.7,5,40,5m0-5C17.91,0,0,17.91,0,40s17.91,40,40,40,40-17.91,40-40S62.09,0,40,0h0ZM18.99,55.37v-2.32l7.48-7.31c2.02-1.98,3.48-3.7,4.43-5.16,.95-1.5,1.42-3.14,1.42-4.99,0-3.78-2.62-6.23-6.45-6.23-2.28,0-4.26,.77-5.93,2.37l-1.29-1.38c2.24-2.97,5.33-4.77,9.12-4.77,5.72,0,9.72,3.66,9.72,8.82,0,2.97-1.33,5.55-3.4,7.83-1.03,1.16-2.41,2.49-4.13,4.04l-4.56,4.17v.3h12.43v4.64H18.99Zm22.49-6.06c1.76,1.72,4.17,2.84,6.88,2.84,4,0,6.67-2.28,6.67-5.89s-2.88-5.2-7.57-5.2v-2.28l7.18-7.7v-.3h-13.03v-4.64h18.88v2.32l-9.37,9.89v.3c5.72,.47,9.12,3.78,9.12,8.26,0,5.68-5.07,9.03-10.32,9.03-3.91,0-7.18-1.76-9.72-5.29l1.29-1.33Z"/></g></svg>