<?xml version="1.0" encoding="UTF-8"?><svg xmlns="http://www.w3.org/2000/svg" viewBox="0 0 80 80"><defs><style>.c{fill:var(--color-magali);}</style></defs><g id="a"/><g id="b"><path class="c" d="M40,5c19.3,0,35,15.7,35,35s-15.7,35-35,35S5,59.3,5,40,20.7,5,40,5m0-5C17.91,0,0,17.91,0,40s17.91,40,40,40,40-17.91,40-40S62.09,0,40,0h0ZM17.53,55.37v-2.32l7.48-7.31c2.02-1.98,3.48-3.7,4.43-5.16,.95-1.5,1.42-3.14,1.42-4.99,0-3.78-2.62-6.23-6.45-6.23-2.28,0-4.26,.77-5.93,2.37l-1.29-1.38c2.24-2.97,5.33-4.77,9.12-4.77,5.72,0,9.72,3.66,9.72,8.82,0,2.97-1.33,5.55-3.4,7.83-1.03,1.16-2.41,2.49-4.13,4.04l-4.56,4.17v.3h12.43v4.64H17.53Zm34.49,0v-7.44h-14.15v-2.32l16.12-19.48h2.67v17.5h6.36v4.3h-6.36v7.44h-4.64Zm-9.2-12.04v.3h9.2v-11.14h-.3l-8.9,10.84Z"/></g></svg>