<?xml version="1.0" encoding="UTF-8"?><svg xmlns="http://www.w3.org/2000/svg" viewBox="0 0 80 80"><defs><style>.c{fill:var(--color-magali);}</style></defs><g id="a"/><g id="b"><path class="c" d="M40,5c19.3,0,35,15.7,35,35s-15.7,35-35,35S5,59.3,5,40,20.7,5,40,5m0-5C17.91,0,0,17.91,0,40s17.91,40,40,40,40-17.91,40-40S62.09,0,40,0h0Z"/><g><path class="c" d="M18.07,55.37v-2.32l7.48-7.31c2.02-1.98,3.48-3.7,4.43-5.16,.95-1.5,1.42-3.14,1.42-4.99,0-3.78-2.62-6.23-6.45-6.23-2.28,0-4.26,.77-5.93,2.37l-1.29-1.38c2.24-2.97,5.33-4.77,9.12-4.77,5.72,0,9.72,3.66,9.72,8.82,0,2.97-1.33,5.55-3.4,7.83-1.03,1.16-2.41,2.49-4.13,4.04l-4.56,4.17v.3h12.43v4.64H18.07Z"/><path class="c" d="M40.13,42.34c0-3.57,.9-7.05,2.58-9.8,2.54-4.08,6.75-6.71,11.7-6.71,2.67,0,5.07,.73,7.18,2.15l-.9,1.93c-1.59-.82-3.35-1.25-5.25-1.25-6.24,0-9.85,4.47-10.15,12.21h.34c1.38-2.36,3.83-3.91,7.1-3.91,4.77,0,8.64,3.44,8.64,8.9,0,5.8-4.69,10.06-10.41,10.06-4.6,0-8-2.67-9.67-6.97-.77-1.98-1.16-4.17-1.16-6.62Zm10.75-2.11c-2.45,0-4.51,1.72-5.38,3.96v1.29c0,4.99,1.89,7.87,5.2,7.87s5.38-2.62,5.38-6.71-2.11-6.41-5.2-6.41Z"/></g></g></svg>