<?xml version="1.0" encoding="UTF-8"?><svg xmlns="http://www.w3.org/2000/svg" viewBox="0 0 80 80"><defs><style>.c{fill:var(--color-magali);}</style></defs><g id="a"/><g id="b"><g><path class="c" d="M40,0C17.91,0,0,17.91,0,40s17.91,40,40,40,40-17.91,40-40S62.09,0,40,0Zm-3.01,55.37H18.16v-2.32l7.48-7.31c2.02-1.98,3.48-3.7,4.43-5.16,.95-1.5,1.42-3.14,1.42-4.99,0-3.78-2.62-6.23-6.45-6.23-2.28,0-4.26,.77-5.93,2.37l-1.29-1.38c2.24-2.97,5.33-4.77,9.12-4.77,5.72,0,9.72,3.66,9.72,8.82,0,2.97-1.33,5.55-3.4,7.83-1.03,1.16-2.41,2.49-4.13,4.04l-4.56,4.17v.3h12.43v4.64Zm21.97-6.62c-2.54,4.26-6.71,6.92-11.87,6.92-2.67,0-5.07-.73-7.22-2.24l.9-1.89c1.68,.82,3.44,1.25,5.38,1.25,6.23,0,9.85-4.56,10.06-12.68h-.3c-1.25,2.24-3.83,3.87-7.05,3.87-4.52,0-8.43-3.44-8.43-8.64,0-5.68,4.52-9.76,10.11-9.76,4.3,0,7.65,2.37,9.42,6.32,.99,2.11,1.46,4.56,1.46,7.27,0,3.44-.86,6.88-2.45,9.59Z"/><path class="c" d="M50.92,28.11c-3.05,0-5.25,2.49-5.25,6.28s1.98,6.28,5.03,6.28c2.45,0,4.3-1.63,5.33-3.83v-1.55c0-4.34-1.85-7.18-5.12-7.18Z"/></g></g></svg>