<?xml version="1.0" encoding="UTF-8"?><svg xmlns="http://www.w3.org/2000/svg" viewBox="0 0 80 80"><defs><style>.c{fill:var(--color-magali);}</style></defs><g id="a"/><g id="b"><g><path class="c" d="M51.31,28.28c-3.57,0-5.55,4.43-5.55,12.56s1.93,12.34,5.55,12.34,5.59-4.26,5.59-12.34-1.98-12.56-5.59-12.56Z"/><path class="c" d="M40,0C17.91,0,0,17.91,0,40s17.91,40,40,40,40-17.91,40-40S62.09,0,40,0Zm-2.92,28.46l-9.37,9.89v.3c5.72,.47,9.12,3.78,9.12,8.26,0,5.68-5.07,9.03-10.32,9.03-3.91,0-7.18-1.76-9.72-5.29l1.29-1.33c1.76,1.72,4.17,2.84,6.88,2.84,4,0,6.67-2.28,6.67-5.89s-2.88-5.2-7.57-5.2v-2.28l7.18-7.7v-.3h-13.03v-4.64h18.88v2.32Zm14.23,27.48c-6.54,0-11.01-6.11-11.01-15.09s4.56-15.26,11.01-15.26,11.01,6.24,11.01,15.26-4.47,15.09-11.01,15.09Z"/></g></g></svg>