<?xml version="1.0" encoding="UTF-8"?><svg xmlns="http://www.w3.org/2000/svg" viewBox="0 0 80 80"><defs><style>.c{fill:var(--color-magali);}</style></defs><g id="a"/><g id="b"><path class="c" d="M40,0C17.91,0,0,17.91,0,40s17.91,40,40,40,40-17.91,40-40S62.09,0,40,0Zm-1.21,60.01c-5.13,0-9.29-2.59-12.1-6.64l1.62-1.67c2.54,2.38,5.4,3.56,8.69,3.56,4.97,0,8.32-2.97,8.32-7.51,0-4.1-3.08-6.8-7.88-6.8-2.65,0-5.13,.76-7.56,2.21h-.27l2.86-20.57h19.06v5.83h-16.85l-1.51,10.64h.38c1.94-1.57,4.32-2.38,7.13-2.38,5.83,0,11.18,4.27,11.18,10.91,0,7.07-5.35,12.42-13.07,12.42Z"/></g></svg>